ISO-10303-21;
HEADER;
FILE_DESCRIPTION (( 'STEP AP214' ),
    '1' );
FILE_NAME ('rj45plug.STEP',
    '2026-04-12T11:39:53',
    ( '' ),
    ( '' ),
    'SwSTEP 2.0',
    'SolidWorks 2021',
    '' );
FILE_SCHEMA (( 'AUTOMOTIVE_DESIGN' ));
ENDSEC;

DATA;
#1 = ORIENTED_EDGE ( 'NONE', *, *, #199, .F. ) ;
#2 = DIRECTION ( 'NONE',  ( 0.000000000000000000, 0.000000000000000000, -1.000000000000000000 ) ) ;
#3 = EDGE_CURVE ( 'NONE', #177, #1074, #758, .T. ) ;
#4 = ORIENTED_EDGE ( 'NONE', *, *, #469, .T. ) ;
#5 = CIRCLE ( 'NONE', #1003, 11.00000000000000178 ) ;
#6 = AXIS2_PLACEMENT_3D ( 'NONE', #275, #586, #1094 ) ;
#7 = CARTESIAN_POINT ( 'NONE',  ( -7.167199684446416974, 8.346953795155371836, -3.366023496122351855 ) ) ;
#8 = AXIS2_PLACEMENT_3D ( 'NONE', #725, #988, #549 ) ;
#9 = ADVANCED_FACE ( 'NONE', ( #618 ), #963, .T. ) ;
#10 = ORIENTED_EDGE ( 'NONE', *, *, #255, .T. ) ;
#11 = DIRECTION ( 'NONE',  ( -0.000000000000000000, -0.000000000000000000, -1.000000000000000000 ) ) ;
#12 = VERTEX_POINT ( 'NONE', #684 ) ;
#13 = CARTESIAN_POINT ( 'NONE',  ( 8.800000000000000711, -6.600000000000000533, -8.000000000000000000 ) ) ;
#14 = CARTESIAN_POINT ( 'NONE',  ( 5.600463455021368553, 9.470008944980380150, -6.969449063162491242 ) ) ;
#15 = CARTESIAN_POINT ( 'NONE',  ( -5.045927529835607217, 9.776194270968280975, -6.769525487804005870 ) ) ;
#16 = ORIENTED_EDGE ( 'NONE', *, *, #3, .T. ) ;
#17 = CARTESIAN_POINT ( 'NONE',  ( 7.475681884214774975, 8.069346582868565321, -5.277786427420736004 ) ) ;
#18 = CARTESIAN_POINT ( 'NONE',  ( 0.000000000000000000, 0.000000000000000000, 0.000000000000000000 ) ) ;
#19 = SHAPE_DEFINITION_REPRESENTATION ( #221, #383 ) ;
#20 = CARTESIAN_POINT ( 'NONE',  ( 4.000000000000000000, 10.24695076595959975, -5.000000000000000000 ) ) ;
#21 = CARTESIAN_POINT ( 'NONE',  ( -4.559703711072364385, 10.01080435668772672, -6.391568827150101662 ) ) ;
#22 = EDGE_LOOP ( 'NONE', ( #1037, #793, #470, #159, #1013, #1 ) ) ;
#23 = ORIENTED_EDGE ( 'NONE', *, *, #341, .F. ) ;
#24 = CARTESIAN_POINT ( 'NONE',  ( -4.500000000000000888, 11.59999999999999964, -5.000000000000000000 ) ) ;
#25 = EDGE_CURVE ( 'NONE', #485, #537, #971, .T. ) ;
#26 =( LENGTH_UNIT ( ) NAMED_UNIT ( * ) SI_UNIT ( .MILLI., .METRE. ) );
#27 = CARTESIAN_POINT ( 'NONE',  ( 4.036934772901211055, 10.23275123270568265, -5.442018762562659262 ) ) ;
#28 = CARTESIAN_POINT ( 'NONE',  ( -4.288969539096302519, 10.12955291605141461, -3.958752601786166281 ) ) ;
#29 = VECTOR ( 'NONE', #503, 1000.000000000000000 ) ;
#30 = ORIENTED_EDGE ( 'NONE', *, *, #1028, .F. ) ;
#31 = ORIENTED_EDGE ( 'NONE', *, *, #1042, .T. ) ;
#32 = CARTESIAN_POINT ( 'NONE',  ( 7.442445834535851290, 8.099999999999999645, -5.411521584403749863 ) ) ;
#33 = DIRECTION ( 'NONE',  ( 0.000000000000000000, -1.000000000000000000, 0.000000000000000000 ) ) ;
#34 = CARTESIAN_POINT ( 'NONE',  ( 4.000000000000000888, 10.24695076595960153, -5.223855581041344287 ) ) ;
#35 = CARTESIAN_POINT ( 'NONE',  ( 7.999999999999998224, -6.600000000000000533, 3.000000000000000000 ) ) ;
#36 = CARTESIAN_POINT ( 'NONE',  ( -4.044145182670281891, 10.22962646108861762, -4.567768761205567074 ) ) ;
#37 = ORIENTED_EDGE ( 'NONE', *, *, #158, .F. ) ;
#38 = ORIENTED_EDGE ( 'NONE', *, *, #824, .F. ) ;
#39 = LINE ( 'NONE', #227, #431 ) ;
#40 = CYLINDRICAL_SURFACE ( 'NONE', #795, 1.500000000000000444 ) ;
#41 = CARTESIAN_POINT ( 'NONE',  ( 8.000000000000000000, -6.600000000000000533, -8.000000000000000000 ) ) ;
#42 = CARTESIAN_POINT ( 'NONE',  ( 9.024151835724234516, -6.600000000000000533, -1.692357680854197133 ) ) ;
#43 = EDGE_CURVE ( 'NONE', #401, #519, #276, .T. ) ;
#44 = ORIENTED_EDGE ( 'NONE', *, *, #25, .T. ) ;
#45 = DIRECTION ( 'NONE',  ( 1.000000000000000000, 0.000000000000000000, 0.000000000000000000 ) ) ;
#46 = ORIENTED_EDGE ( 'NONE', *, *, #249, .F. ) ;
#47 = DIRECTION ( 'NONE',  ( -1.000000000000000000, 0.000000000000000000, 0.000000000000000000 ) ) ;
#48 = CARTESIAN_POINT ( 'NONE',  ( 6.000000000000000000, 11.59999999999999964, -5.000000000000000000 ) ) ;
#49 = CARTESIAN_POINT ( 'NONE',  ( -6.000000000000000000, 6.599999999999999645, -5.000000000000000000 ) ) ;
#50 = CARTESIAN_POINT ( 'NONE',  ( 0.000000000000000000, 0.000000000000000000, 3.000000000000000000 ) ) ;
#51 = ORIENTED_EDGE ( 'NONE', *, *, #102, .F. ) ;
#52 = CONICAL_SURFACE ( 'NONE', #923, 11.99999999999999289, 0.7853981633974479459 ) ;
#53 = AXIS2_PLACEMENT_3D ( 'NONE', #872, #365, #201 ) ;
#54 = EDGE_LOOP ( 'NONE', ( #1019, #442, #67, #663, #553, #200 ) ) ;
#55 = LINE ( 'NONE', #973, #166 ) ;
#56 = VECTOR ( 'NONE', #382, 1000.000000000000000 ) ;
#57 = PRODUCT_DEFINITION ( 'UNKNOWN', '', #248, #681 ) ;
#58 = DIRECTION ( 'NONE',  ( 0.000000000000000000, 0.000000000000000000, 1.000000000000000000 ) ) ;
#59 = DIRECTION ( 'NONE',  ( -0.000000000000000000, -0.000000000000000000, -1.000000000000000000 ) ) ;
#60 = DIRECTION ( 'NONE',  ( 1.000000000000000000, 0.000000000000000000, 0.000000000000000000 ) ) ;
#61 = VERTEX_POINT ( 'NONE', #939 ) ;
#62 = CARTESIAN_POINT ( 'NONE',  ( 6.857152751810540181, 8.603492226642657670, -3.184039933625711249 ) ) ;
#63 = UNCERTAINTY_MEASURE_WITH_UNIT (LENGTH_MEASURE( 1.000000000000000082E-05 ), #897, 'distance_accuracy_value', 'NONE');
#64 = DIRECTION ( 'NONE',  ( 1.000000000000000000, 0.000000000000000000, -4.336808689942015764E-16 ) ) ;
#65 = FACE_BOUND ( 'NONE', #712, .T. ) ;
#66 = DIRECTION ( 'NONE',  ( -5.421010862427522170E-17, -1.000000000000000000, -0.000000000000000000 ) ) ;
#67 = ORIENTED_EDGE ( 'NONE', *, *, #199, .T. ) ;
#68 = ADVANCED_FACE ( 'NONE', ( #99 ), #520, .F. ) ;
#69 = CARTESIAN_POINT ( 'NONE',  ( -4.500000000000000888, 8.099999999999999645, -5.000000000000000000 ) ) ;
#70 = LINE ( 'NONE', #599, #256 ) ;
#71 = AXIS2_PLACEMENT_3D ( 'NONE', #197, #277, #604 ) ;
#72 = CIRCLE ( 'NONE', #167, 1.500000000000000444 ) ;
#73 = CARTESIAN_POINT ( 'NONE',  ( 0.000000000000000000, 0.000000000000000000, 0.9999999999999931166 ) ) ;
#74 = SURFACE_SIDE_STYLE ('',( #1090 ) ) ;
#75 = CARTESIAN_POINT ( 'NONE',  ( 0.000000000000000000, 0.000000000000000000, 0.000000000000000000 ) ) ;
#76 = ORIENTED_EDGE ( 'NONE', *, *, #675, .T. ) ;
#77 = DIRECTION ( 'NONE',  ( -1.000000000000000000, 0.000000000000000000, 0.000000000000000000 ) ) ;
#78 = EDGE_CURVE ( 'NONE', #536, #98, #5, .T. ) ;
#79 = CARTESIAN_POINT ( 'NONE',  ( 7.999999999999998224, -6.600000000000000533, 3.000000000000000000 ) ) ;
#80 = LINE ( 'NONE', #1032, #29 ) ;
#81 = AXIS2_PLACEMENT_3D ( 'NONE', #338, #507, #1012 ) ;
#82 = CARTESIAN_POINT ( 'NONE',  ( 3.469446951953614189E-15, 0.000000000000000000, -1.500000000000004663 ) ) ;
#83 = AXIS2_PLACEMENT_3D ( 'NONE', #144, #558, #216 ) ;
#84 = B_SPLINE_CURVE_WITH_KNOTS ( 'NONE', 3,
 ( #954, #447, #777, #106, #433, #192, #113, #945, #937, #869, #15, #1030, #370, #21, #356, #530, #855, #882, #175, #273, #96, #784, #187, #456, #800, #36, #427, #362, #266, #28, #682, #378, #1022, #701, #942, #180, #1043, #612, #688, #617, #286, #510, #770, #7, #874, #516 ),
 .UNSPECIFIED., .F., .F.,
 ( 4, 2, 2, 2, 2, 2, 2, 2, 2, 2, 2, 2, 2, 2, 2, 2, 2, 2, 2, 2, 2, 2, 4 ),
 ( 0.001639560129412464661, 0.002300999996763354333, 0.002962439864114243572, 0.003623879731465133244, 0.004285319598816022917, 0.004946759466166912589, 0.005277479399842356124, 0.005608199333517799659, 0.005938919267193244061, 0.006269639200868686729, 0.006600359134544131132, 0.006931079068219573799, 0.007261799001895018202, 0.007592518935570462604, 0.007923238869245905272, 0.008253958802921347940, 0.008584678736596792342, 0.008915398670272235010, 0.009576838537623125550, 0.01023827840497401609, 0.01089971827232490489, 0.01156115813967579370, 0.01222259800702668424 ),
 .UNSPECIFIED. ) ;
#85 = EDGE_CURVE ( 'NONE', #401, #98, #775, .T. ) ;
#86 = DIRECTION ( 'NONE',  ( 1.000000000000000000, 0.000000000000000000, 0.000000000000000000 ) ) ;
#87 = CARTESIAN_POINT ( 'NONE',  ( 7.999999999999998224, -6.600000000000000533, 3.000000000000000000 ) ) ;
#88 = ORIENTED_EDGE ( 'NONE', *, *, #328, .F. ) ;
#89 = EDGE_CURVE ( 'NONE', #1073, #393, #94, .T. ) ;
#90 = LINE ( 'NONE', #861, #259 ) ;
#91 = ORIENTED_EDGE ( 'NONE', *, *, #859, .F. ) ;
#92 = B_SPLINE_CURVE_WITH_KNOTS ( 'NONE', 3,
 ( #32, #780, #17, #965, #358, #847 ),
 .UNSPECIFIED., .F., .F.,
 ( 4, 2, 4 ),
 ( 0.009933014577310456811, 0.01014139359112533646, 0.01034977260494021611 ),
 .UNSPECIFIED. ) ;
#93 = VERTEX_POINT ( 'NONE', #178 ) ;
#94 = LINE ( 'NONE', #1027, #791 ) ;
#95 = CIRCLE ( 'NONE', #792, 1.999999999999999112 ) ;
#96 = CARTESIAN_POINT ( 'NONE',  ( -4.047614954924060982, 10.22825577459437696, -5.447593962433555426 ) ) ;
#97 = CIRCLE ( 'NONE', #566, 13.99999999999999822 ) ;
#98 = VERTEX_POINT ( 'NONE', #513 ) ;
#99 = FACE_OUTER_BOUND ( 'NONE', #635, .T. ) ;
#100 = CARTESIAN_POINT ( 'NONE',  ( 7.442445834535851290, 8.099999999999999645, -6.385406082861687871 ) ) ;
#101 = CARTESIAN_POINT ( 'NONE',  ( 13.99999999999999822, 1.714505518806294441E-15, 0.9999999999999931166 ) ) ;
#102 = EDGE_CURVE ( 'NONE', #809, #257, #476, .T. ) ;
#103 = ORIENTED_EDGE ( 'NONE', *, *, #493, .F. ) ;
#104 = LINE ( 'NONE', #24, #771 ) ;
#105 = CARTESIAN_POINT ( 'NONE',  ( -7.499999999999836575, 8.046738469715695175, -4.929930970377249366 ) ) ;
#106 = CARTESIAN_POINT ( 'NONE',  ( -6.858937221113284188, 8.602042199263165045, -6.815016521350105272 ) ) ;
#107 = ORIENTED_EDGE ( 'NONE', *, *, #506, .T. ) ;
#108 = ORIENTED_EDGE ( 'NONE', *, *, #640, .F. ) ;
#109 = DIRECTION ( 'NONE',  ( -0.000000000000000000, -0.000000000000000000, 1.000000000000000000 ) ) ;
#110 = DIRECTION ( 'NONE',  ( -5.421010862427522170E-17, -1.000000000000000000, 0.000000000000000000 ) ) ;
#111 = CARTESIAN_POINT ( 'NONE',  ( 7.312701063434611903, 8.219212152004450544, -6.520492688114664759 ) ) ;
#112 = CARTESIAN_POINT ( 'NONE',  ( -4.500000000000000888, 6.599999999999999645, -5.000000000000000000 ) ) ;
#113 = CARTESIAN_POINT ( 'NONE',  ( -6.163487433392170978, 9.113731467309348133, -7.001893169434397990 ) ) ;
#114 = CIRCLE ( 'NONE', #258, 11.00000000000000178 ) ;
#115 = AXIS2_PLACEMENT_3D ( 'NONE', #969, #727, #60 ) ;
#116 = VERTEX_POINT ( 'NONE', #769 ) ;
#117 = EDGE_LOOP ( 'NONE', ( #209, #642, #435, #938, #774, #801 ) ) ;
#118 = CARTESIAN_POINT ( 'NONE',  ( -8.000000000000001776, -6.600000000000000533, 0.000000000000000000 ) ) ;
#119 = LINE ( 'NONE', #202, #994 ) ;
#120 = EDGE_CURVE ( 'NONE', #761, #1038, #342, .T. ) ;
#121 = DIRECTION ( 'NONE',  ( 1.000000000000000000, 0.000000000000000000, 0.000000000000000000 ) ) ;
#122 = CARTESIAN_POINT ( 'NONE',  ( 8.873165666577902400, -6.599999999999999645, -1.938540840074736371 ) ) ;
#123 = ORIENTED_EDGE ( 'NONE', *, *, #351, .T. ) ;
#124 = ORIENTED_EDGE ( 'NONE', *, *, #25, .F. ) ;
#125 = CARTESIAN_POINT ( 'NONE',  ( 4.286528687601690812, 10.13144692573843741, -3.946401765407772988 ) ) ;
#126 = DIRECTION ( 'NONE',  ( 1.000000000000000000, 0.000000000000000000, 0.000000000000000000 ) ) ;
#127 = CARTESIAN_POINT ( 'NONE',  ( -7.442445834535969418, 8.099999999999893063, -5.411521584403864438 ) ) ;
#128 = EDGE_CURVE ( 'NONE', #809, #1074, #169, .T. ) ;
#129 = CARTESIAN_POINT ( 'NONE',  ( -8.000000000000000000, 6.599999999999999645, 3.000000000000000000 ) ) ;
#130 = ORIENTED_EDGE ( 'NONE', *, *, #844, .T. ) ;
#131 = EDGE_CURVE ( 'NONE', #619, #728, #404, .T. ) ;
#132 = VERTEX_POINT ( 'NONE', #112 ) ;
#133 = CARTESIAN_POINT ( 'NONE',  ( 7.167722994402774717, 8.346518401769278839, -3.366340056515582546 ) ) ;
#134 = FACE_BOUND ( 'NONE', #210, .T. ) ;
#135 = DIRECTION ( 'NONE',  ( 1.000000000000000000, 0.000000000000000000, 0.000000000000000000 ) ) ;
#136 = CARTESIAN_POINT ( 'NONE',  ( 8.800000000000006040, -6.600000000000000533, -2.000000000000008882 ) ) ;
#137 = ORIENTED_EDGE ( 'NONE', *, *, #588, .F. ) ;
#138 = CIRCLE ( 'NONE', #833, 1.499999999999999556 ) ;
#139 = AXIS2_PLACEMENT_3D ( 'NONE', #82, #958, #697 ) ;
#140 = ORIENTED_EDGE ( 'NONE', *, *, #932, .T. ) ;
#141 = CARTESIAN_POINT ( 'NONE',  ( 5.598391724415524351, 9.471189919516227462, -3.031145922430419581 ) ) ;
#142 = VECTOR ( 'NONE', #1050, 1000.000000000000000 ) ;
#143 = LINE ( 'NONE', #403, #523 ) ;
#144 = CARTESIAN_POINT ( 'NONE',  ( 0.000000000000000000, 0.000000000000000000, 3.000000000000000000 ) ) ;
#145 = VERTEX_POINT ( 'NONE', #583 ) ;
#146 = EDGE_CURVE ( 'NONE', #619, #537, #841, .T. ) ;
#147 = CYLINDRICAL_SURFACE ( 'NONE', #887, 1.499999999999999556 ) ;
#148 = DIRECTION ( 'NONE',  ( 5.421010862427522170E-17, 1.000000000000000000, -0.000000000000000000 ) ) ;
#149 = ORIENTED_EDGE ( 'NONE', *, *, #627, .T. ) ;
#150 = CARTESIAN_POINT ( 'NONE',  ( 5.999999999999999112, 0.9431457505076207282, -5.000000000000000000 ) ) ;
#151 = CARTESIAN_POINT ( 'NONE',  ( 13.99999999999999822, 1.714505518806294441E-15, 0.000000000000000000 ) ) ;
#152 = ORIENTED_EDGE ( 'NONE', *, *, #652, .F. ) ;
#153 = CARTESIAN_POINT ( 'NONE',  ( -6.000000000000000000, 11.59999999999999964, -5.000000000000000000 ) ) ;
#154 = PRESENTATION_LAYER_ASSIGNMENT (  '', '', ( #232 ) ) ;
#155 = VECTOR ( 'NONE', #247, 1000.000000000000000 ) ;
#156 = VECTOR ( 'NONE', #399, 1000.000000000000000 ) ;
#157 = FACE_OUTER_BOUND ( 'NONE', #704, .T. ) ;
#158 = EDGE_CURVE ( 'NONE', #422, #711, #138, .T. ) ;
#159 = ORIENTED_EDGE ( 'NONE', *, *, #1042, .F. ) ;
#160 = LINE ( 'NONE', #498, #420 ) ;
#161 = ORIENTED_EDGE ( 'NONE', *, *, #249, .T. ) ;
#162 = DIRECTION ( 'NONE',  ( 1.000000000000000000, 0.000000000000000000, 0.000000000000000000 ) ) ;
#163 = CARTESIAN_POINT ( 'NONE',  ( -11.00000000000000178, 1.347111479062088602E-15, -1.000000000000000000 ) ) ;
#164 = CARTESIAN_POINT ( 'NONE',  ( 5.999999999999999112, 8.099999999999999645, -5.000000000000000000 ) ) ;
#165 = ADVANCED_FACE ( 'NONE', ( #385 ), #52, .T. ) ;
#166 = VECTOR ( 'NONE', #458, 1000.000000000000000 ) ;
#167 = AXIS2_PLACEMENT_3D ( 'NONE', #389, #298, #121 ) ;
#168 = DIRECTION ( 'NONE',  ( 0.7071067811865472397, 8.659560562354930393E-17, -0.7071067811865479058 ) ) ;
#169 = LINE ( 'NONE', #423, #848 ) ;
#170 = EDGE_CURVE ( 'NONE', #429, #116, #630, .T. ) ;
#171 = ORIENTED_EDGE ( 'NONE', *, *, #412, .F. ) ;
#172 = ORIENTED_EDGE ( 'NONE', *, *, #592, .T. ) ;
#173 = EDGE_CURVE ( 'NONE', #98, #1038, #661, .T. ) ;
#174 = FILL_AREA_STYLE_COLOUR ( '', #680 ) ;
#175 = CARTESIAN_POINT ( 'NONE',  ( -4.147751012111299929, 10.18811539410340039, -5.762466192839371892 ) ) ;
#176 = ORIENTED_EDGE ( 'NONE', *, *, #287, .T. ) ;
#177 = VERTEX_POINT ( 'NONE', #163 ) ;
#178 = CARTESIAN_POINT ( 'NONE',  ( -11.00000000000000178, 1.347111479062088602E-15, -8.000000000000000000 ) ) ;
#179 = FACE_OUTER_BOUND ( 'NONE', #326, .T. ) ;
#180 = CARTESIAN_POINT ( 'NONE',  ( -5.039816426439573505, 9.779364513972659267, -3.233585922346536634 ) ) ;
#181 = ORIENTED_EDGE ( 'NONE', *, *, #1099, .T. ) ;
#182 = DIRECTION ( 'NONE',  ( 1.000000000000000000, 0.000000000000000000, -4.336808689942015764E-16 ) ) ;
#183 = AXIS2_PLACEMENT_3D ( 'NONE', #1025, #602, #182 ) ;
#184 = FACE_BOUND ( 'NONE', #511, .T. ) ;
#185 = CIRCLE ( 'NONE', #698, 1.999999999999999112 ) ;
#186 = ADVANCED_FACE ( 'NONE', ( #179 ), #243, .F. ) ;
#187 = CARTESIAN_POINT ( 'NONE',  ( -4.000408624518611234, 10.24679125470793295, -5.118412809536541097 ) ) ;
#188 = AXIS2_PLACEMENT_3D ( 'NONE', #35, #376, #292 ) ;
#189 = ORIENTED_EDGE ( 'NONE', *, *, #888, .T. ) ;
#190 = CARTESIAN_POINT ( 'NONE',  ( 7.442445834535851290, 8.099999999999999645, -8.000000000000000000 ) ) ;
#191 = CARTESIAN_POINT ( 'NONE',  ( -7.442445834535849514, 8.099999999999999645, -6.385406082861691424 ) ) ;
#192 = CARTESIAN_POINT ( 'NONE',  ( -6.343219223250858185, 8.989468115734373654, -6.978602463430128466 ) ) ;
#193 = ORIENTED_EDGE ( 'NONE', *, *, #548, .F. ) ;
#194 = ORIENTED_EDGE ( 'NONE', *, *, #128, .T. ) ;
#195 = DIRECTION ( 'NONE',  ( -5.421010862427522170E-17, -1.000000000000000000, 0.000000000000000000 ) ) ;
#196 = DIRECTION ( 'NONE',  ( 0.000000000000000000, -0.000000000000000000, -1.000000000000000000 ) ) ;
#197 = CARTESIAN_POINT ( 'NONE',  ( 0.000000000000000000, 0.000000000000000000, 0.000000000000000000 ) ) ;
#198 = DIRECTION ( 'NONE',  ( 5.421010862427522170E-17, 1.000000000000000000, -0.000000000000000000 ) ) ;
#199 = EDGE_CURVE ( 'NONE', #429, #145, #70, .T. ) ;
#200 = ORIENTED_EDGE ( 'NONE', *, *, #567, .T. ) ;
#201 = DIRECTION ( 'NONE',  ( 1.000000000000000000, 0.000000000000000000, 0.000000000000000000 ) ) ;
#202 = CARTESIAN_POINT ( 'NONE',  ( -11.99999999999999289, 0.000000000000000000, 3.000000000000000000 ) ) ;
#203 = DIRECTION ( 'NONE',  ( 1.000000000000000000, 0.000000000000000000, -4.336808689942017736E-16 ) ) ;
#204 = DIRECTION ( 'NONE',  ( 0.000000000000000000, -1.000000000000000000, 0.000000000000000000 ) ) ;
#205 = CARTESIAN_POINT ( 'NONE',  ( 9.048666432660319003, -6.599999999999999645, -1.597509779211965242 ) ) ;
#206 = APPLICATION_CONTEXT ( 'automotive_design' ) ;
#207 = CIRCLE ( 'NONE', #233, 13.99999999999999822 ) ;
#208 = AXIS2_PLACEMENT_3D ( 'NONE', #49, #806, #228 ) ;
#209 = ORIENTED_EDGE ( 'NONE', *, *, #451, .F. ) ;
#210 = EDGE_LOOP ( 'NONE', ( #51, #352, #571, #346, #281, #492 ) ) ;
#211 = LINE ( 'NONE', #980, #1036 ) ;
#212 = ADVANCED_FACE ( 'NONE', ( #265 ), #500, .T. ) ;
#213 = CARTESIAN_POINT ( 'NONE',  ( 0.000000000000000000, 0.000000000000000000, 3.000000000000000000 ) ) ;
#214 = CARTESIAN_POINT ( 'NONE',  ( 3.035766082959410049E-15, 0.000000000000000000, -1.000000000000004885 ) ) ;
#215 = CARTESIAN_POINT ( 'NONE',  ( 7.475652186420315815, 8.069374098872035717, -4.722069781181231996 ) ) ;
#216 = DIRECTION ( 'NONE',  ( -1.000000000000000000, 0.000000000000000000, 0.000000000000000000 ) ) ;
#217 = EDGE_LOOP ( 'NONE', ( #817, #124 ) ) ;
#218 = VERTEX_POINT ( 'NONE', #419 ) ;
#219 = ORIENTED_EDGE ( 'NONE', *, *, #501, .F. ) ;
#220 = DIRECTION ( 'NONE',  ( -1.000000000000000000, 0.000000000000000000, 0.000000000000000000 ) ) ;
#221 = PRODUCT_DEFINITION_SHAPE ( 'NONE', 'NONE',  #57 ) ;
#222 = FACE_OUTER_BOUND ( 'NONE', #117, .T. ) ;
#223 = DIRECTION ( 'NONE',  ( 1.000000000000000000, 0.000000000000000000, 0.000000000000000000 ) ) ;
#224 = DIRECTION ( 'NONE',  ( 1.000000000000000000, 0.000000000000000000, -4.336808689942016257E-16 ) ) ;
#225 = VERTEX_POINT ( 'NONE', #1086 ) ;
#226 = ORIENTED_EDGE ( 'NONE', *, *, #146, .T. ) ;
#227 = CARTESIAN_POINT ( 'NONE',  ( -13.99999999999999822, 0.000000000000000000, 3.000000000000000000 ) ) ;
#228 = DIRECTION ( 'NONE',  ( 1.000000000000000000, 0.000000000000000000, 0.000000000000000000 ) ) ;
#229 = PLANE ( 'NONE',  #235 ) ;
#230 = ORIENTED_EDGE ( 'NONE', *, *, #673, .T. ) ;
#231 = EDGE_CURVE ( 'NONE', #1067, #659, #489, .T. ) ;
#232 = STYLED_ITEM ( 'NONE', ( #832 ), #239 ) ;
#233 = AXIS2_PLACEMENT_3D ( 'NONE', #73, #664, #658 ) ;
#234 = ORIENTED_EDGE ( 'NONE', *, *, #611, .F. ) ;
#235 = AXIS2_PLACEMENT_3D ( 'NONE', #1064, #110, #879 ) ;
#236 = FACE_OUTER_BOUND ( 'NONE', #956, .T. ) ;
#237 = ORIENTED_EDGE ( 'NONE', *, *, #341, .T. ) ;
#238 = CARTESIAN_POINT ( 'NONE',  ( -8.800000000000000711, -6.600000000000000533, -8.000000000000000000 ) ) ;
#239 = MANIFOLD_SOLID_BREP ( 'Chamfer1', #344 ) ;
#240 = CARTESIAN_POINT ( 'NONE',  ( -7.442445834535849514, 8.099999999999999645, -3.614593917138308576 ) ) ;
#241 = EDGE_CURVE ( 'NONE', #1067, #964, #515, .T. ) ;
#242 = CARTESIAN_POINT ( 'NONE',  ( -8.936661393381584162, -6.600000000000001421, -1.862480961834640958 ) ) ;
#243 = CYLINDRICAL_SURFACE ( 'NONE', #518, 1.999999999999999112 ) ;
#244 = VECTOR ( 'NONE', #270, 1000.000000000000000 ) ;
#245 = VECTOR ( 'NONE', #667, 1000.000000000000000 ) ;
#246 = VECTOR ( 'NONE', #557, 1000.000000000000000 ) ;
#247 = DIRECTION ( 'NONE',  ( 0.000000000000000000, 0.000000000000000000, -1.000000000000000000 ) ) ;
#248 = PRODUCT_DEFINITION_FORMATION_WITH_SPECIFIED_SOURCE ( 'ANY', '', #912, .NOT_KNOWN. ) ;
#249 = EDGE_CURVE ( 'NONE', #93, #773, #751, .T. ) ;
#250 = DIRECTION ( 'NONE',  ( -0.000000000000000000, -0.000000000000000000, 1.000000000000000000 ) ) ;
#251 = DIRECTION ( 'NONE',  ( 0.000000000000000000, 0.000000000000000000, -1.000000000000000000 ) ) ;
#252 = FACE_OUTER_BOUND ( 'NONE', #943, .T. ) ;
#253 = LINE ( 'NONE', #190, #320 ) ;
#254 = DIRECTION ( 'NONE',  ( 0.000000000000000000, 0.000000000000000000, 1.000000000000000000 ) ) ;
#255 = EDGE_CURVE ( 'NONE', #225, #343, #858, .T. ) ;
#256 = VECTOR ( 'NONE', #930, 1000.000000000000000 ) ;
#257 = VERTEX_POINT ( 'NONE', #741 ) ;
#258 = AXIS2_PLACEMENT_3D ( 'NONE', #1083, #998, #670 ) ;
#259 = VECTOR ( 'NONE', #605, 1000.000000000000000 ) ;
#260 = DIRECTION ( 'NONE',  ( 0.000000000000000000, 0.000000000000000000, 1.000000000000000000 ) ) ;
#261 = EDGE_LOOP ( 'NONE', ( #176, #569, #815, #37, #318 ) ) ;
#262 = CARTESIAN_POINT ( 'NONE',  ( 6.000000000000000000, 6.599999999999999645, -5.000000000000000000 ) ) ;
#263 = ORIENTED_EDGE ( 'NONE', *, *, #231, .T. ) ;
#264 = APPLICATION_PROTOCOL_DEFINITION ( 'draft international standard', 'automotive_design', 1998, #206 ) ;
#265 = FACE_OUTER_BOUND ( 'NONE', #315, .T. ) ;
#266 = CARTESIAN_POINT ( 'NONE',  ( -4.186175849638129165, 10.17246448714804785, -4.150374591957471715 ) ) ;
#267 = VERTEX_POINT ( 'NONE', #240 ) ;
#268 = DIRECTION ( 'NONE',  ( -5.421010862427522170E-17, -1.000000000000000000, 0.000000000000000000 ) ) ;
#269 = ORIENTED_EDGE ( 'NONE', *, *, #490, .F. ) ;
#270 = DIRECTION ( 'NONE',  ( -0.000000000000000000, -0.000000000000000000, 1.000000000000000000 ) ) ;
#271 = ADVANCED_FACE ( 'NONE', ( #332 ), #575, .F. ) ;
#272 = CARTESIAN_POINT ( 'NONE',  ( 4.285767590524058868, 10.13177304872559858, -6.052472606115093967 ) ) ;
#273 = CARTESIAN_POINT ( 'NONE',  ( -4.075101809422229771, 10.21739100675316791, -5.554028847866348428 ) ) ;
#274 = ORIENTED_EDGE ( 'NONE', *, *, #1099, .F. ) ;
#275 = CARTESIAN_POINT ( 'NONE',  ( 10.47500000000001030, 0.000000000000000000, -1.500000000000009104 ) ) ;
#276 = CIRCLE ( 'NONE', #183, 11.00000000000000533 ) ;
#277 = DIRECTION ( 'NONE',  ( 0.000000000000000000, 0.000000000000000000, 1.000000000000000000 ) ) ;
#278 = AXIS2_PLACEMENT_3D ( 'NONE', #75, #744, #834 ) ;
#279 = FACE_OUTER_BOUND ( 'NONE', #345, .T. ) ;
#280 = AXIS2_PLACEMENT_3D ( 'NONE', #459, #966, #539 ) ;
#281 = ORIENTED_EDGE ( 'NONE', *, *, #78, .F. ) ;
#282 = EDGE_LOOP ( 'NONE', ( #230, #545, #894, #289 ) ) ;
#283 = CARTESIAN_POINT ( 'NONE',  ( 4.500000000000000000, 11.59999999999999964, -5.000000000000000000 ) ) ;
#284 = SURFACE_STYLE_USAGE ( .BOTH. , #768 ) ;
#285 = DIRECTION ( 'NONE',  ( 0.000000000000000000, 0.000000000000000000, 1.000000000000000000 ) ) ;
#286 = CARTESIAN_POINT ( 'NONE',  ( -6.340626833177155142, 8.991315775701078650, -3.020891473861293086 ) ) ;
#287 = EDGE_CURVE ( 'NONE', #267, #343, #185, .T. ) ;
#288 = DIRECTION ( 'NONE',  ( 1.000000000000000000, 0.000000000000000000, -4.336808689942015764E-16 ) ) ;
#289 = ORIENTED_EDGE ( 'NONE', *, *, #469, .F. ) ;
#290 = FACE_OUTER_BOUND ( 'NONE', #782, .T. ) ;
#291 = CARTESIAN_POINT ( 'NONE',  ( 0.000000000000000000, 0.000000000000000000, -8.000000000000000000 ) ) ;
#292 = DIRECTION ( 'NONE',  ( 0.000000000000000000, 0.000000000000000000, 1.000000000000000000 ) ) ;
#293 = CARTESIAN_POINT ( 'NONE',  ( -8.000000000000001776, -6.600000000000000533, 3.000000000000000000 ) ) ;
#294 = EDGE_CURVE ( 'NONE', #659, #816, #1002, .T. ) ;
#295 = EDGE_LOOP ( 'NONE', ( #703, #596, #554, #488, #363 ) ) ;
#296 = CARTESIAN_POINT ( 'NONE',  ( 4.789271956201865521, 9.903116672409684185, -3.404835550557239188 ) ) ;
#297 = FACE_OUTER_BOUND ( 'NONE', #918, .T. ) ;
#298 = DIRECTION ( 'NONE',  ( -5.421010862427522170E-17, -1.000000000000000000, 0.000000000000000000 ) ) ;
#299 = CARTESIAN_POINT ( 'NONE',  ( 7.494981587367561815, 8.051423784952509877, -4.859200016861946914 ) ) ;
#300 = CARTESIAN_POINT ( 'NONE',  ( 8.936269979964585275, -6.600000000000001421, -1.863109445481065274 ) ) ;
#301 = AXIS2_PLACEMENT_3D ( 'NONE', #687, #655, #669 ) ;
#302 = AXIS2_PLACEMENT_3D ( 'NONE', #977, #823, #634 ) ;
#303 = ORIENTED_EDGE ( 'NONE', *, *, #996, .T. ) ;
#304 = EDGE_LOOP ( 'NONE', ( #978, #601 ) ) ;
#305 = CARTESIAN_POINT ( 'NONE',  ( 0.000000000000000000, -6.600000000000000533, 27.77543571378078724 ) ) ;
#306 = DIRECTION ( 'NONE',  ( 1.000000000000000000, 0.000000000000000000, -0.000000000000000000 ) ) ;
#307 = CARTESIAN_POINT ( 'NONE',  ( -7.500000000003556266, 8.046738469712316544, -4.999999999996077804 ) ) ;
#308 = PLANE ( 'NONE',  #935 ) ;
#309 = ORIENTED_EDGE ( 'NONE', *, *, #640, .T. ) ;
#310 = DIRECTION ( 'NONE',  ( 0.000000000000000000, -0.000000000000000000, -1.000000000000000000 ) ) ;
#311 = EDGE_CURVE ( 'NONE', #463, #809, #160, .T. ) ;
#312 = LINE ( 'NONE', #317, #56 ) ;
#313 = FACE_OUTER_BOUND ( 'NONE', #560, .T. ) ;
#314 = ORIENTED_EDGE ( 'NONE', *, *, #351, .F. ) ;
#315 = EDGE_LOOP ( 'NONE', ( #23, #16, #926, #696 ) ) ;
#316 = DIRECTION ( 'NONE',  ( 5.421010862427522786E-17, 1.000000000000000000, -0.000000000000000000 ) ) ;
#317 = CARTESIAN_POINT ( 'NONE',  ( 8.800000000000000711, -6.600000000000000533, -8.000000000000000000 ) ) ;
#318 = ORIENTED_EDGE ( 'NONE', *, *, #870, .F. ) ;
#319 = VECTOR ( 'NONE', #254, 1000.000000000000000 ) ;
#320 = VECTOR ( 'NONE', #109, 1000.000000000000000 ) ;
#321 = CARTESIAN_POINT ( 'NONE',  ( 3.577867169202164632E-16, 6.599999999999999645, -8.000000000000000000 ) ) ;
#322 = DIRECTION ( 'NONE',  ( 1.000000000000000000, -0.000000000000000000, -0.000000000000000000 ) ) ;
#323 =( NAMED_UNIT ( * ) PLANE_ANGLE_UNIT ( ) SI_UNIT ( $, .RADIAN. ) );
#324 = EDGE_CURVE ( 'NONE', #422, #718, #742, .T. ) ;
#325 = LINE ( 'NONE', #656, #850 ) ;
#326 = EDGE_LOOP ( 'NONE', ( #883, #107, #354 ) ) ;
#327 = DIRECTION ( 'NONE',  ( 1.000000000000000000, 0.000000000000000000, 0.000000000000000000 ) ) ;
#328 = EDGE_CURVE ( 'NONE', #628, #468, #650, .T. ) ;
#329 = EDGE_CURVE ( 'NONE', #986, #429, #587, .T. ) ;
#330 = CARTESIAN_POINT ( 'NONE',  ( -8.000000000000001776, -6.600000000000000533, 3.000000000000000000 ) ) ;
#331 = ORIENTED_EDGE ( 'NONE', *, *, #451, .T. ) ;
#332 = FACE_OUTER_BOUND ( 'NONE', #508, .T. ) ;
#333 = CIRCLE ( 'NONE', #608, 11.00000000000000178 ) ;
#334 = ORIENTED_EDGE ( 'NONE', *, *, #662, .F. ) ;
#335 = CIRCLE ( 'NONE', #115, 13.99999999999999822 ) ;
#336 = DIRECTION ( 'NONE',  ( -5.421010862427522170E-17, -1.000000000000000000, -0.000000000000000000 ) ) ;
#337 = AXIS2_PLACEMENT_3D ( 'NONE', #213, #58, #621 ) ;
#338 = CARTESIAN_POINT ( 'NONE',  ( 8.000000000000000000, 8.099999999999999645, 3.000000000000000000 ) ) ;
#339 = VERTEX_POINT ( 'NONE', #953 ) ;
#340 = FACE_OUTER_BOUND ( 'NONE', #22, .T. ) ;
#341 = EDGE_CURVE ( 'NONE', #177, #257, #454, .T. ) ;
#342 = LINE ( 'NONE', #87, #319 ) ;
#343 = VERTEX_POINT ( 'NONE', #191 ) ;
#344 = CLOSED_SHELL ( 'NONE', ( #165, #186, #271, #692, #9, #892, #531, #999, #762, #1077, #584, #212, #721, #955, #710, #1091, #377, #360, #1018, #919, #851, #1010, #1023, #778, #68, #486, #434, #514, #1059, #426, #982 ) ) ;
#345 = EDGE_LOOP ( 'NONE', ( #957, #303, #4, #853 ) ) ;
#346 = ORIENTED_EDGE ( 'NONE', *, *, #173, .F. ) ;
#347 = AXIS2_PLACEMENT_3D ( 'NONE', #305, #736, #310 ) ;
#348 = AXIS2_PLACEMENT_3D ( 'NONE', #734, #461, #224 ) ;
#349 = SURFACE_STYLE_FILL_AREA ( #959 ) ;
#350 = LINE ( 'NONE', #594, #142 ) ;
#351 = EDGE_CURVE ( 'NONE', #61, #1067, #361, .T. ) ;
#352 = ORIENTED_EDGE ( 'NONE', *, *, #311, .F. ) ;
#353 = DIRECTION ( 'NONE',  ( -1.000000000000000000, 0.000000000000000000, 0.000000000000000000 ) ) ;
#354 = ORIENTED_EDGE ( 'NONE', *, *, #395, .F. ) ;
#355 = CARTESIAN_POINT ( 'NONE',  ( 7.168107342165956020, 8.346162051094692558, -6.633283945894425493 ) ) ;
#356 = CARTESIAN_POINT ( 'NONE',  ( -4.486773406394827468, 10.04360558725417363, -6.312099152600500140 ) ) ;
#357 = EDGE_LOOP ( 'NONE', ( #1020, #194, #372, #1031, #689, #1052 ) ) ;
#358 = CARTESIAN_POINT ( 'NONE',  ( 7.500000000000001776, 8.046738469715542408, -5.070677338562062708 ) ) ;
#359 = DIRECTION ( 'NONE',  ( 0.000000000000000000, 0.000000000000000000, -1.000000000000000000 ) ) ;
#360 = ADVANCED_FACE ( 'NONE', ( #375, #184 ), #446, .T. ) ;
#361 = LINE ( 'NONE', #529, #494 ) ;
#362 = CARTESIAN_POINT ( 'NONE',  ( -4.142532782639380073, 10.19023506553222802, -4.250364330739775376 ) ) ;
#363 = ORIENTED_EDGE ( 'NONE', *, *, #717, .T. ) ;
#364 = ORIENTED_EDGE ( 'NONE', *, *, #592, .F. ) ;
#365 = DIRECTION ( 'NONE',  ( 5.421010862427522170E-17, 1.000000000000000000, -0.000000000000000000 ) ) ;
#366 = VECTOR ( 'NONE', #416, 1000.000000000000000 ) ;
#367 = EDGE_CURVE ( 'NONE', #12, #339, #863, .T. ) ;
#368 = CARTESIAN_POINT ( 'NONE',  ( -11.00000000000000178, 1.347111479062088602E-15, -8.000000000000000000 ) ) ;
#369 = AXIS2_PLACEMENT_3D ( 'NONE', #808, #384, #716 ) ;
#370 = CARTESIAN_POINT ( 'NONE',  ( -4.712547194476803369, 9.939768646224813153, -6.534073816393815903 ) ) ;
#371 = AXIS2_PLACEMENT_3D ( 'NONE', #526, #709, #441 ) ;
#372 = ORIENTED_EDGE ( 'NONE', *, *, #611, .T. ) ;
#373 = LINE ( 'NONE', #283, #948 ) ;
#374 = CYLINDRICAL_SURFACE ( 'NONE', #1016, 11.00000000000000178 ) ;
#375 = FACE_OUTER_BOUND ( 'NONE', #304, .T. ) ;
#376 = DIRECTION ( 'NONE',  ( 0.000000000000000000, 1.000000000000000000, -0.000000000000000000 ) ) ;
#377 = ADVANCED_FACE ( 'NONE', ( #432 ), #408, .T. ) ;
#378 = CARTESIAN_POINT ( 'NONE',  ( -4.479321887160059745, 10.04692778418801069, -3.696532950913656190 ) ) ;
#379 = ORIENTED_EDGE ( 'NONE', *, *, #412, .T. ) ;
#380 = ORIENTED_EDGE ( 'NONE', *, *, #962, .F. ) ;
#381 = CARTESIAN_POINT ( 'NONE',  ( 5.790073896173678847, 9.355410635654410001, -3.002441325115135395 ) ) ;
#382 = DIRECTION ( 'NONE',  ( -0.000000000000000000, -0.000000000000000000, 1.000000000000000000 ) ) ;
#383 = ADVANCED_BREP_SHAPE_REPRESENTATION ( 'rj45plug', ( #239, #653 ), #568 ) ;
#384 = DIRECTION ( 'NONE',  ( -0.000000000000000000, -0.000000000000000000, 1.000000000000000000 ) ) ;
#385 = FACE_OUTER_BOUND ( 'NONE', #877, .T. ) ;
#386 = EDGE_LOOP ( 'NONE', ( #613, #103 ) ) ;
#387 = CARTESIAN_POINT ( 'NONE',  ( 4.499999999999999112, 6.599999999999999645, -5.000000000000000000 ) ) ;
#388 = CARTESIAN_POINT ( 'NONE',  ( 6.000000000000000000, 8.099999999999999645, -5.000000000000000000 ) ) ;
#389 = CARTESIAN_POINT ( 'NONE',  ( 6.000000000000000000, 6.599999999999999645, -5.000000000000000000 ) ) ;
#390 = CARTESIAN_POINT ( 'NONE',  ( 4.000000000000000000, 10.24695076595959975, -5.000000000000000000 ) ) ;
#391 = AXIS2_PLACEMENT_3D ( 'NONE', #787, #1048, #700 ) ;
#392 = TOROIDAL_SURFACE ( 'NONE', #371, 10.47500000000000675, 0.7249999999999983125 ) ;
#393 = VERTEX_POINT ( 'NONE', #776 ) ;
#394 =( GEOMETRIC_REPRESENTATION_CONTEXT ( 3 ) GLOBAL_UNCERTAINTY_ASSIGNED_CONTEXT ( ( #804 ) ) GLOBAL_UNIT_ASSIGNED_CONTEXT ( ( #26, #1021, #439 ) ) REPRESENTATION_CONTEXT ( 'NONE', 'WORKASPACE' ) );
#395 = EDGE_CURVE ( 'NONE', #559, #986, #685, .T. ) ;
#396 = ORIENTED_EDGE ( 'NONE', *, *, #294, .T. ) ;
#397 = CARTESIAN_POINT ( 'NONE',  ( 4.483429925264646343, 10.04509792659649570, -3.691746009750337176 ) ) ;
#398 = FACE_OUTER_BOUND ( 'NONE', #606, .T. ) ;
#399 = DIRECTION ( 'NONE',  ( -0.000000000000000000, -0.000000000000000000, -1.000000000000000000 ) ) ;
#400 = CYLINDRICAL_SURFACE ( 'NONE', #83, 13.99999999999999822 ) ;
#401 = VERTEX_POINT ( 'NONE', #472 ) ;
#402 = CARTESIAN_POINT ( 'NONE',  ( 5.042222288949634645, 9.778107034600338920, -3.232428240937222697 ) ) ;
#403 = CARTESIAN_POINT ( 'NONE',  ( 7.999999999999998224, -6.600000000000000533, 3.000000000000000000 ) ) ;
#404 = B_SPLINE_CURVE_WITH_KNOTS ( 'NONE', 3,
 ( #715, #891, #299, #215, #881, #550 ),
 .UNSPECIFIED., .F., .F.,
 ( 4, 2, 4 ),
 ( 0.000000000000000000, 0.0002094646947179852592, 0.0004189293894359705185 ),
 .UNSPECIFIED. ) ;
#405 = ORIENTED_EDGE ( 'NONE', *, *, #673, .F. ) ;
#406 = CARTESIAN_POINT ( 'NONE',  ( 7.500000000000000888, 8.046738469715542408, -5.000000000000000000 ) ) ;
#407 = EDGE_CURVE ( 'NONE', #519, #536, #55, .T. ) ;
#408 = TOROIDAL_SURFACE ( 'NONE', #884, 10.47500000000000675, 0.7249999999999983125 ) ;
#409 = AXIS2_PLACEMENT_3D ( 'NONE', #723, #889, #306 ) ;
#410 = CARTESIAN_POINT ( 'NONE',  ( -8.874024360170217562, -6.599999999999999645, -1.937819537457019958 ) ) ;
#411 = ORIENTED_EDGE ( 'NONE', *, *, #678, .F. ) ;
#412 = EDGE_CURVE ( 'NONE', #910, #93, #333, .T. ) ;
#413 = DIRECTION ( 'NONE',  ( 1.000000000000000000, 0.000000000000000000, 0.000000000000000000 ) ) ;
#414 = CARTESIAN_POINT ( 'NONE',  ( 6.000000000000000000, 11.59999999999999964, -5.000000000000000000 ) ) ;
#415 =( LENGTH_UNIT ( ) NAMED_UNIT ( * ) SI_UNIT ( .MILLI., .METRE. ) );
#416 = DIRECTION ( 'NONE',  ( 0.000000000000000000, -1.000000000000000000, 0.000000000000000000 ) ) ;
#417 = CARTESIAN_POINT ( 'NONE',  ( 2.602085213965208275E-15, 0.000000000000000000, -2.000000000000004885 ) ) ;
#418 = CARTESIAN_POINT ( 'NONE',  ( 7.500000000000000888, 11.59999999999999964, -5.000000000000000000 ) ) ;
#419 = CARTESIAN_POINT ( 'NONE',  ( -8.000000000000001776, -6.600000000000000533, 3.000000000000000000 ) ) ;
#420 = VECTOR ( 'NONE', #77, 1000.000000000000000 ) ;
#421 = LINE ( 'NONE', #538, #453 ) ;
#422 = VERTEX_POINT ( 'NONE', #811 ) ;
#423 = CARTESIAN_POINT ( 'NONE',  ( -8.800000000000000711, -6.600000000000000533, -8.000000000000000000 ) ) ;
#424 = EDGE_LOOP ( 'NONE', ( #172, #679, #665, #438 ) ) ;
#425 = ORIENTED_EDGE ( 'NONE', *, *, #909, .F. ) ;
#426 = ADVANCED_FACE ( 'NONE', ( #636 ), #482, .T. ) ;
#427 = CARTESIAN_POINT ( 'NONE',  ( -4.071431955956338555, 10.21885073646063269, -4.458923850377565223 ) ) ;
#428 = AXIS2_PLACEMENT_3D ( 'NONE', #654, #250, #748 ) ;
#429 = VERTEX_POINT ( 'NONE', #561 ) ;
#430 = DIRECTION ( 'NONE',  ( 0.000000000000000000, 0.000000000000000000, -1.000000000000000000 ) ) ;
#431 = VECTOR ( 'NONE', #464, 1000.000000000000000 ) ;
#432 = FACE_OUTER_BOUND ( 'NONE', #755, .T. ) ;
#433 = CARTESIAN_POINT ( 'NONE',  ( -6.692375425028655123, 8.732644404102158475, -6.885015494450136941 ) ) ;
#434 = ADVANCED_FACE ( 'NONE', ( #643 ), #1075, .F. ) ;
#435 = ORIENTED_EDGE ( 'NONE', *, *, #940, .T. ) ;
#436 = DIRECTION ( 'NONE',  ( 1.000000000000000000, 0.000000000000000000, 8.673617379884039416E-16 ) ) ;
#437 = DIRECTION ( 'NONE',  ( -1.000000000000000000, 5.421010862427524635E-17, 0.000000000000000000 ) ) ;
#438 = ORIENTED_EDGE ( 'NONE', *, *, #241, .T. ) ;
#439 =( NAMED_UNIT ( * ) SI_UNIT ( $, .STERADIAN. ) SOLID_ANGLE_UNIT ( ) );
#440 = CARTESIAN_POINT ( 'NONE',  ( 6.162085883908686945, 9.114731230943196039, -7.002178497132669044 ) ) ;
#441 = DIRECTION ( 'NONE',  ( 1.000000000000000000, 0.000000000000000000, -4.336808689942017736E-16 ) ) ;
#442 = ORIENTED_EDGE ( 'NONE', *, *, #329, .T. ) ;
#443 = DIRECTION ( 'NONE',  ( -5.421010862427522170E-17, -1.000000000000000000, -0.000000000000000000 ) ) ;
#444 = APPLICATION_CONTEXT ( 'automotive_design' ) ;
#445 = DIRECTION ( 'NONE',  ( 1.000000000000000000, 0.000000000000000000, 0.000000000000000000 ) ) ;
#446 = PLANE ( 'NONE',  #391 ) ;
#447 = CARTESIAN_POINT ( 'NONE',  ( -7.313237447078568820, 8.218719311730682264, -6.519934220553905924 ) ) ;
#448 = CARTESIAN_POINT ( 'NONE',  ( 7.313527591011348861, 8.218452721545011386, -3.480367869145591708 ) ) ;
#449 = ORIENTED_EDGE ( 'NONE', *, *, #506, .F. ) ;
#450 = CARTESIAN_POINT ( 'NONE',  ( 0.000000000000000000, 0.000000000000000000, -8.000000000000000000 ) ) ;
#451 = EDGE_CURVE ( 'NONE', #581, #761, #211, .T. ) ;
#452 = DIRECTION ( 'NONE',  ( -1.000000000000000000, 0.000000000000000000, -0.000000000000000000 ) ) ;
#453 = VECTOR ( 'NONE', #690, 1000.000000000000000 ) ;
#454 = LINE ( 'NONE', #368, #934 ) ;
#455 = CIRCLE ( 'NONE', #1082, 1.500000000000000444 ) ;
#456 = CARTESIAN_POINT ( 'NONE',  ( -3.999616690269331531, 10.24710039531188599, -4.895818060524587345 ) ) ;
#457 = ORIENTED_EDGE ( 'NONE', *, *, #85, .F. ) ;
#458 = DIRECTION ( 'NONE',  ( -0.000000000000000000, -0.000000000000000000, 1.000000000000000000 ) ) ;
#459 = CARTESIAN_POINT ( 'NONE',  ( -10.47500000000000320, 1.282817522106853280E-15, -1.500000000000000000 ) ) ;
#460 = CARTESIAN_POINT ( 'NONE',  ( -11.00000000000000178, 1.347111479062088602E-15, -2.000000000000000000 ) ) ;
#461 = DIRECTION ( 'NONE',  ( 4.336808689942017736E-16, -0.000000000000000000, 1.000000000000000000 ) ) ;
#462 = DIRECTION ( 'NONE',  ( 4.336808689942017736E-16, -0.000000000000000000, 1.000000000000000000 ) ) ;
#463 = VERTEX_POINT ( 'NONE', #118 ) ;
#464 = DIRECTION ( 'NONE',  ( -0.000000000000000000, -0.000000000000000000, -1.000000000000000000 ) ) ;
#465 = PLANE ( 'NONE',  #409 ) ;
#466 = CARTESIAN_POINT ( 'NONE',  ( 0.000000000000000000, 0.000000000000000000, 0.000000000000000000 ) ) ;
#467 = DIRECTION ( 'NONE',  ( -5.421010862427522170E-17, -1.000000000000000000, -0.000000000000000000 ) ) ;
#468 = VERTEX_POINT ( 'NONE', #546 ) ;
#469 = EDGE_CURVE ( 'NONE', #471, #468, #39, .T. ) ;
#470 = ORIENTED_EDGE ( 'NONE', *, *, #567, .F. ) ;
#471 = VERTEX_POINT ( 'NONE', #904 ) ;
#472 = CARTESIAN_POINT ( 'NONE',  ( 8.800000000000011369, -6.600000000000000533, -0.9999999999999592548 ) ) ;
#473 = FACE_OUTER_BOUND ( 'NONE', #625, .T. ) ;
#474 = FACE_OUTER_BOUND ( 'NONE', #970, .T. ) ;
#475 = DIRECTION ( 'NONE',  ( 1.000000000000000000, -1.314184451497581259E-16, 0.000000000000000000 ) ) ;
#476 = CIRCLE ( 'NONE', #862, 11.00000000000000178 ) ;
#477 = EDGE_LOOP ( 'NONE', ( #76, #647, #411, #364, #730 ) ) ;
#478 = CIRCLE ( 'NONE', #759, 11.00000000000000355 ) ;
#479 = AXIS2_PLACEMENT_3D ( 'NONE', #50, #624, #893 ) ;
#480 = MECHANICAL_DESIGN_GEOMETRIC_PRESENTATION_REPRESENTATION (  '', ( #1017 ), #394 ) ;
#481 = ORIENTED_EDGE ( 'NONE', *, *, #737, .T. ) ;
#482 = PLANE ( 'NONE',  #347 ) ;
#483 = CARTESIAN_POINT ( 'NONE',  ( -8.000000000000000000, 6.599999999999999645, -8.000000000000000000 ) ) ;
#484 = CARTESIAN_POINT ( 'NONE',  ( 8.800000000000011369, -6.600000000000000533, -0.9999999999999592548 ) ) ;
#485 = VERTEX_POINT ( 'NONE', #387 ) ;
#486 = ADVANCED_FACE ( 'NONE', ( #911 ), #826, .F. ) ;
#487 = CARTESIAN_POINT ( 'NONE',  ( -8.800000000000002487, -6.600000000000000533, -2.000000000000000444 ) ) ;
#488 = ORIENTED_EDGE ( 'NONE', *, *, #501, .T. ) ;
#489 = LINE ( 'NONE', #495, #992 ) ;
#490 = EDGE_CURVE ( 'NONE', #393, #519, #1058, .T. ) ;
#491 = CARTESIAN_POINT ( 'NONE',  ( -9.048812309925374109, -6.599999999999999645, -1.404515412222503645 ) ) ;
#492 = ORIENTED_EDGE ( 'NONE', *, *, #637, .F. ) ;
#493 = EDGE_CURVE ( 'NONE', #790, #132, #578, .T. ) ;
#494 = VECTOR ( 'NONE', #873, 1000.000000000000000 ) ;
#495 = CARTESIAN_POINT ( 'NONE',  ( 8.000000000000000000, 6.599999999999998757, 3.000000000000000000 ) ) ;
#496 = DIRECTION ( 'NONE',  ( -1.000000000000000000, 0.000000000000000000, 0.000000000000000000 ) ) ;
#497 = EDGE_LOOP ( 'NONE', ( #552, #532, #875, #123, #263 ) ) ;
#498 = CARTESIAN_POINT ( 'NONE',  ( 0.000000000000000000, -6.600000000000000533, 0.000000000000000000 ) ) ;
#499 = FACE_OUTER_BOUND ( 'NONE', #497, .T. ) ;
#500 = CYLINDRICAL_SURFACE ( 'NONE', #428, 11.00000000000000178 ) ;
#501 = EDGE_CURVE ( 'NONE', #711, #132, #104, .T. ) ;
#502 = B_SPLINE_CURVE_WITH_KNOTS ( 'NONE', 3,
 ( #763, #1098, #840, #1087, #491, #574, #756, #242, #410, #487 ),
 .UNSPECIFIED., .F., .F.,
 ( 4, 2, 2, 2, 4 ),
 ( 0.004504321387213031970, 0.004790758038255055369, 0.005077194689297079636, 0.005363631340339103035, 0.005650067991381126434 ),
 .UNSPECIFIED. ) ;
#503 = DIRECTION ( 'NONE',  ( 5.421010862427522786E-17, 1.000000000000000000, -0.000000000000000000 ) ) ;
#504 = DIRECTION ( 'NONE',  ( -1.000000000000000000, 0.000000000000000000, 0.000000000000000000 ) ) ;
#505 = AXIS2_PLACEMENT_3D ( 'NONE', #79, #1092, #1008 ) ;
#506 = EDGE_CURVE ( 'NONE', #116, #986, #80, .T. ) ;
#507 = DIRECTION ( 'NONE',  ( -5.421010862427522170E-17, -1.000000000000000000, 0.000000000000000000 ) ) ;
#508 = EDGE_LOOP ( 'NONE', ( #900, #729, #1078, #219, #189 ) ) ;
#509 = EDGE_CURVE ( 'NONE', #116, #559, #95, .T. ) ;
#510 = CARTESIAN_POINT ( 'NONE',  ( -6.691104053794566298, 8.733638105467344204, -3.114457005384405175 ) ) ;
#511 = EDGE_LOOP ( 'NONE', ( #108, #425, #885, #314 ) ) ;
#512 = CARTESIAN_POINT ( 'NONE',  ( 0.000000000000000000, 0.000000000000000000, 3.000000000000000000 ) ) ;
#513 = CARTESIAN_POINT ( 'NONE',  ( 8.800000000000000711, -6.600000000000000533, 0.000000000000000000 ) ) ;
#514 = ADVANCED_FACE ( 'NONE', ( #340 ), #933, .F. ) ;
#515 = LINE ( 'NONE', #579, #925 ) ;
#516 = CARTESIAN_POINT ( 'NONE',  ( -7.442445834535849514, 8.099999999999999645, -3.614593917138308576 ) ) ;
#517 = EDGE_CURVE ( 'NONE', #145, #1061, #724, .T. ) ;
#518 = AXIS2_PLACEMENT_3D ( 'NONE', #150, #572, #921 ) ;
#519 = VERTEX_POINT ( 'NONE', #794 ) ;
#520 = CYLINDRICAL_SURFACE ( 'NONE', #676, 1.999999999999999112 ) ;
#521 = ORIENTED_EDGE ( 'NONE', *, *, #765, .F. ) ;
#522 = AXIS2_PLACEMENT_3D ( 'NONE', #672, #951, #705 ) ;
#523 = VECTOR ( 'NONE', #59, 1000.000000000000000 ) ;
#524 =( NAMED_UNIT ( * ) PLANE_ANGLE_UNIT ( ) SI_UNIT ( $, .RADIAN. ) );
#525 = CARTESIAN_POINT ( 'NONE',  ( 4.548844035515291928, 10.01641886561388617, -6.392995946534250074 ) ) ;
#526 = CARTESIAN_POINT ( 'NONE',  ( 3.469446951953614189E-15, 0.000000000000000000, -1.500000000000004663 ) ) ;
#527 = ORIENTED_EDGE ( 'NONE', *, *, #89, .T. ) ;
#528 = CYLINDRICAL_SURFACE ( 'NONE', #1093, 11.00000000000000178 ) ;
#529 = CARTESIAN_POINT ( 'NONE',  ( 7.999999999999998224, -6.600000000000000533, 3.000000000000000000 ) ) ;
#530 = CARTESIAN_POINT ( 'NONE',  ( -4.355364464272198255, 10.10128453098961288, -6.143080427822201983 ) ) ;
#531 = ADVANCED_FACE ( 'NONE', ( #252 ), #632, .T. ) ;
#532 = ORIENTED_EDGE ( 'NONE', *, *, #120, .T. ) ;
#533 = ORIENTED_EDGE ( 'NONE', *, *, #824, .T. ) ;
#534 = CARTESIAN_POINT ( 'NONE',  ( 0.000000000000000000, -6.600000000000000533, 27.77543571378078724 ) ) ;
#535 = CARTESIAN_POINT ( 'NONE',  ( 3.469446951953614189E-15, 0.000000000000000000, -1.500000000000004663 ) ) ;
#536 = VERTEX_POINT ( 'NONE', #786 ) ;
#537 = VERTEX_POINT ( 'NONE', #589 ) ;
#538 = CARTESIAN_POINT ( 'NONE',  ( -8.000000000000000000, 6.599999999999999645, 3.000000000000000000 ) ) ;
#539 = DIRECTION ( 'NONE',  ( -1.000000000000000000, 1.224646799147352961E-16, 0.000000000000000000 ) ) ;
#540 = VECTOR ( 'NONE', #496, 1000.000000000000000 ) ;
#541 = CARTESIAN_POINT ( 'NONE',  ( -7.500000000003556266, 8.046738469712316544, -4.999999999996077804 ) ) ;
#542 = CIRCLE ( 'NONE', #609, 11.00000000000000355 ) ;
#543 = CYLINDRICAL_SURFACE ( 'NONE', #369, 11.00000000000000178 ) ;
#544 = ORIENTED_EDGE ( 'NONE', *, *, #407, .T. ) ;
#545 = ORIENTED_EDGE ( 'NONE', *, *, #807, .T. ) ;
#546 = CARTESIAN_POINT ( 'NONE',  ( -13.99999999999999822, 0.000000000000000000, 0.000000000000000000 ) ) ;
#547 = DIRECTION ( 'NONE',  ( 0.000000000000000000, 0.000000000000000000, -1.000000000000000000 ) ) ;
#548 = EDGE_CURVE ( 'NONE', #12, #901, #1009, .T. ) ;
#549 = DIRECTION ( 'NONE',  ( 1.000000000000000000, 0.000000000000000000, 0.000000000000000000 ) ) ;
#550 = CARTESIAN_POINT ( 'NONE',  ( 7.442445834535851290, 8.099999999999999645, -4.588478415596250137 ) ) ;
#551 = LINE ( 'NONE', #1056, #668 ) ;
#552 = ORIENTED_EDGE ( 'NONE', *, *, #859, .T. ) ;
#553 = ORIENTED_EDGE ( 'NONE', *, *, #131, .T. ) ;
#554 = ORIENTED_EDGE ( 'NONE', *, *, #158, .T. ) ;
#555 = CARTESIAN_POINT ( 'NONE',  ( 4.556181065037700151, 10.01240674696821564, -3.612081694337943905 ) ) ;
#556 = DIRECTION ( 'NONE',  ( -5.421010862427522170E-17, -1.000000000000000000, -0.000000000000000000 ) ) ;
#557 = DIRECTION ( 'NONE',  ( 1.000000000000000000, -0.000000000000000000, -0.000000000000000000 ) ) ;
#558 = DIRECTION ( 'NONE',  ( -0.000000000000000000, -0.000000000000000000, -1.000000000000000000 ) ) ;
#559 = VERTEX_POINT ( 'NONE', #1039 ) ;
#560 = EDGE_LOOP ( 'NONE', ( #152, #161, #380, #683 ) ) ;
#561 = CARTESIAN_POINT ( 'NONE',  ( 7.442445834535851290, 8.099999999999999645, -6.385406082861687871 ) ) ;
#562 = CARTESIAN_POINT ( 'NONE',  ( -8.800000000000000711, -6.600000000000000533, 0.000000000000000000 ) ) ;
#563 = CARTESIAN_POINT ( 'NONE',  ( 8.936708856475467755, -6.600000000000001421, -1.137525740343839464 ) ) ;
#564 = ORIENTED_EDGE ( 'NONE', *, *, #43, .F. ) ;
#565 =( GEOMETRIC_REPRESENTATION_CONTEXT ( 3 ) GLOBAL_UNCERTAINTY_ASSIGNED_CONTEXT ( ( #722 ) ) GLOBAL_UNIT_ASSIGNED_CONTEXT ( ( #415, #323, #660 ) ) REPRESENTATION_CONTEXT ( 'NONE', 'WORKASPACE' ) );
#566 = AXIS2_PLACEMENT_3D ( 'NONE', #466, #983, #223 ) ;
#567 = EDGE_CURVE ( 'NONE', #728, #559, #253, .T. ) ;
#568 =( GEOMETRIC_REPRESENTATION_CONTEXT ( 3 ) GLOBAL_UNCERTAINTY_ASSIGNED_CONTEXT ( ( #63 ) ) GLOBAL_UNIT_ASSIGNED_CONTEXT ( ( #897, #524, #1040 ) ) REPRESENTATION_CONTEXT ( 'NONE', 'WORKASPACE' ) );
#569 = ORIENTED_EDGE ( 'NONE', *, *, #255, .F. ) ;
#570 = CARTESIAN_POINT ( 'NONE',  ( -7.500000000000000000, 6.599999999999999645, -5.000000000000000000 ) ) ;
#571 = ORIENTED_EDGE ( 'NONE', *, *, #842, .T. ) ;
#572 = DIRECTION ( 'NONE',  ( 5.421010862427522786E-17, 1.000000000000000000, -0.000000000000000000 ) ) ;
#573 = EDGE_CURVE ( 'NONE', #1061, #485, #373, .T. ) ;
#574 = CARTESIAN_POINT ( 'NONE',  ( -9.048701134343257735, -6.600000000000000533, -1.596164170376191294 ) ) ;
#575 = CYLINDRICAL_SURFACE ( 'NONE', #666, 1.499999999999999556 ) ;
#576 = DIRECTION ( 'NONE',  ( -0.000000000000000000, -0.000000000000000000, -1.000000000000000000 ) ) ;
#577 = COLOUR_RGB ( '',0.7921568627450980005, 0.8196078431372548767, 0.9333333333333333481 ) ;
#578 = CIRCLE ( 'NONE', #1015, 1.499999999999999556 ) ;
#579 = CARTESIAN_POINT ( 'NONE',  ( 8.000000000000000000, 6.599999999999998757, 3.000000000000000000 ) ) ;
#580 = CIRCLE ( 'NONE', #337, 11.99999999999999289 ) ;
#581 = VERTEX_POINT ( 'NONE', #1046 ) ;
#582 = LINE ( 'NONE', #238, #677 ) ;
#583 = CARTESIAN_POINT ( 'NONE',  ( 7.442445834535851290, 8.099999999999999645, -5.411521584403749863 ) ) ;
#584 = ADVANCED_FACE ( 'NONE', ( #290 ), #528, .T. ) ;
#585 = CARTESIAN_POINT ( 'NONE',  ( -7.442445834535849514, 8.099999999999999645, -8.000000000000000000 ) ) ;
#586 = DIRECTION ( 'NONE',  ( 0.000000000000000000, -1.000000000000000000, -0.000000000000000000 ) ) ;
#587 = B_SPLINE_CURVE_WITH_KNOTS ( 'NONE', 3,
 ( #20, #34, #27, #1029, #272, #525, #868, #944, #693, #14, #1033, #440, #622, #798, #610, #355, #111, #100 ),
 .UNSPECIFIED., .F., .F.,
 ( 4, 2, 2, 2, 2, 2, 2, 2, 4 ),
 ( 0.000000000000000000, 0.0006618560267475864052, 0.001323712053495172810, 0.001985568080242759107, 0.002647424106990345621, 0.003309280133737932134, 0.003971136160485518214, 0.004632992187233104728, 0.005294848213980691241 ),
 .UNSPECIFIED. ) ;
#588 = EDGE_CURVE ( 'NONE', #145, #619, #92, .T. ) ;
#589 = CARTESIAN_POINT ( 'NONE',  ( 7.500000000000000888, 6.599999999999999645, -5.000000000000000000 ) ) ;
#590 = AXIS2_PLACEMENT_3D ( 'NONE', #262, #268, #781 ) ;
#591 = VECTOR ( 'NONE', #928, 1000.000000000000000 ) ;
#592 = EDGE_CURVE ( 'NONE', #964, #816, #421, .T. ) ;
#593 = ORIENTED_EDGE ( 'NONE', *, *, #1028, .T. ) ;
#594 = CARTESIAN_POINT ( 'NONE',  ( -8.000000000000001776, -6.600000000000000533, 3.000000000000000000 ) ) ;
#595 = EDGE_CURVE ( 'NONE', #773, #936, #478, .T. ) ;
#596 = ORIENTED_EDGE ( 'NONE', *, *, #324, .F. ) ;
#597 = DIRECTION ( 'NONE',  ( 5.421010862427522786E-17, 1.000000000000000000, -0.000000000000000000 ) ) ;
#598 = PRODUCT_CONTEXT ( 'NONE', #206, 'mechanical' ) ;
#599 = CARTESIAN_POINT ( 'NONE',  ( 7.442445834535851290, 8.099999999999999645, -8.000000000000000000 ) ) ;
#600 = CARTESIAN_POINT ( 'NONE',  ( 8.800000000000006040, -6.600000000000000533, -2.000000000000008882 ) ) ;
#601 = ORIENTED_EDGE ( 'NONE', *, *, #367, .T. ) ;
#602 = DIRECTION ( 'NONE',  ( 4.336808689942017736E-16, -0.000000000000000000, 1.000000000000000000 ) ) ;
#603 = DIRECTION ( 'NONE',  ( -0.000000000000000000, -0.000000000000000000, 1.000000000000000000 ) ) ;
#604 = DIRECTION ( 'NONE',  ( 1.000000000000000000, 0.000000000000000000, 0.000000000000000000 ) ) ;
#605 = DIRECTION ( 'NONE',  ( 0.000000000000000000, 0.000000000000000000, -1.000000000000000000 ) ) ;
#606 = EDGE_LOOP ( 'NONE', ( #379, #950, #140, #331, #91, #396, #991, #149 ) ) ;
#607 = DIRECTION ( 'NONE',  ( 4.336808689942017736E-16, -0.000000000000000000, 1.000000000000000000 ) ) ;
#608 = AXIS2_PLACEMENT_3D ( 'NONE', #731, #1069, #47 ) ;
#609 = AXIS2_PLACEMENT_3D ( 'NONE', #1076, #649, #993 ) ;
#610 = CARTESIAN_POINT ( 'NONE',  ( 6.859255400546111048, 8.601790464898899202, -6.814875028031082138 ) ) ;
#611 = EDGE_CURVE ( 'NONE', #1074, #936, #502, .T. ) ;
#612 = CARTESIAN_POINT ( 'NONE',  ( -5.596621371695725600, 9.472261545753744016, -3.031394664823959140 ) ) ;
#613 = ORIENTED_EDGE ( 'NONE', *, *, #717, .F. ) ;
#614 = ORIENTED_EDGE ( 'NONE', *, *, #146, .F. ) ;
#615 = CARTESIAN_POINT ( 'NONE',  ( -6.000000000000000000, 6.599999999999999645, -5.000000000000000000 ) ) ;
#616 = DIRECTION ( 'NONE',  ( 1.000000000000000000, 0.000000000000000000, 0.000000000000000000 ) ) ;
#617 = CARTESIAN_POINT ( 'NONE',  ( -6.159828171834941024, 9.116249091661211779, -2.997663260090368542 ) ) ;
#618 = FACE_OUTER_BOUND ( 'NONE', #282, .T. ) ;
#619 = VERTEX_POINT ( 'NONE', #406 ) ;
#620 = DIRECTION ( 'NONE',  ( 1.000000000000000000, 0.000000000000000000, 0.000000000000000000 ) ) ;
#621 = DIRECTION ( 'NONE',  ( 1.000000000000000000, 0.000000000000000000, 0.000000000000000000 ) ) ;
#622 = CARTESIAN_POINT ( 'NONE',  ( 6.343262858117239666, 8.989424241378159763, -6.978553191319716298 ) ) ;
#623 = LINE ( 'NONE', #968, #772 ) ;
#624 = DIRECTION ( 'NONE',  ( 0.000000000000000000, 0.000000000000000000, -1.000000000000000000 ) ) ;
#625 = EDGE_LOOP ( 'NONE', ( #533, #237, #779, #750 ) ) ;
#626 = B_SPLINE_CURVE_WITH_KNOTS ( 'NONE', 3,
 ( #136, #122, #300, #42, #205, #1066, #814, #563, #915, #484 ),
 .UNSPECIFIED., .F., .F.,
 ( 4, 2, 2, 2, 4 ),
 ( 0.001942561857288590361, 0.002228877911979852515, 0.002515193966671114452, 0.002801510021362376389, 0.003087826076053638760 ),
 .UNSPECIFIED. ) ;
#627 = EDGE_CURVE ( 'NONE', #735, #910, #749, .T. ) ;
#628 = VERTEX_POINT ( 'NONE', #151 ) ;
#629 = CARTESIAN_POINT ( 'NONE',  ( 4.000000000000001776, 10.24695076595960153, -4.776017347640563848 ) ) ;
#630 = CIRCLE ( 'NONE', #301, 1.999999999999999112 ) ;
#631 = PLANE ( 'NONE',  #927 ) ;
#632 = TOROIDAL_SURFACE ( 'NONE', #139, 10.47500000000000675, 0.7249999999999983125 ) ;
#633 = CYLINDRICAL_SURFACE ( 'NONE', #651, 11.00000000000000178 ) ;
#634 = DIRECTION ( 'NONE',  ( -1.000000000000000000, 0.000000000000000000, 0.000000000000000000 ) ) ;
#635 = EDGE_LOOP ( 'NONE', ( #764, #837 ) ) ;
#636 = FACE_OUTER_BOUND ( 'NONE', #357, .T. ) ;
#637 = EDGE_CURVE ( 'NONE', #257, #536, #1081, .T. ) ;
#638 = DIRECTION ( 'NONE',  ( 1.000000000000000000, 0.000000000000000000, 0.000000000000000000 ) ) ;
#639 = DIRECTION ( 'NONE',  ( 4.336808689942017736E-16, -0.000000000000000000, 1.000000000000000000 ) ) ;
#640 = EDGE_CURVE ( 'NONE', #218, #61, #325, .T. ) ;
#641 = FACE_BOUND ( 'NONE', #386, .T. ) ;
#642 = ORIENTED_EDGE ( 'NONE', *, *, #765, .T. ) ;
#643 = FACE_OUTER_BOUND ( 'NONE', #695, .T. ) ;
#644 = CARTESIAN_POINT ( 'NONE',  ( -7.500000000000161648, 8.046738469715391417, -5.069872667116459120 ) ) ;
#645 = DIRECTION ( 'NONE',  ( 1.314184451497581259E-16, 1.000000000000000000, 0.000000000000000000 ) ) ;
#646 = ORIENTED_EDGE ( 'NONE', *, *, #78, .T. ) ;
#647 = ORIENTED_EDGE ( 'NONE', *, *, #702, .T. ) ;
#648 = CARTESIAN_POINT ( 'NONE',  ( 4.708759301759140037, 9.941562281766358922, -3.469108821844623769 ) ) ;
#649 = DIRECTION ( 'NONE',  ( 4.336808689942017736E-16, -0.000000000000000000, 1.000000000000000000 ) ) ;
#650 = CIRCLE ( 'NONE', #71, 13.99999999999999822 ) ;
#651 = AXIS2_PLACEMENT_3D ( 'NONE', #813, #1055, #890 ) ;
#652 = EDGE_CURVE ( 'NONE', #93, #1073, #114, .T. ) ;
#653 = AXIS2_PLACEMENT_3D ( 'NONE', #766, #260, #445 ) ;
#654 = CARTESIAN_POINT ( 'NONE',  ( 0.000000000000000000, 0.000000000000000000, -8.000000000000000000 ) ) ;
#655 = DIRECTION ( 'NONE',  ( 5.421010862427522170E-17, 1.000000000000000000, -0.000000000000000000 ) ) ;
#656 = CARTESIAN_POINT ( 'NONE',  ( 7.999999999999998224, -6.600000000000000533, 3.000000000000000000 ) ) ;
#657 = DIRECTION ( 'NONE',  ( -0.000000000000000000, -0.000000000000000000, 1.000000000000000000 ) ) ;
#658 = DIRECTION ( 'NONE',  ( 1.000000000000000000, 0.000000000000000000, 0.000000000000000000 ) ) ;
#659 = VERTEX_POINT ( 'NONE', #920 ) ;
#660 =( NAMED_UNIT ( * ) SI_UNIT ( $, .STERADIAN. ) SOLID_ANGLE_UNIT ( ) );
#661 = LINE ( 'NONE', #699, #743 ) ;
#662 = EDGE_CURVE ( 'NONE', #936, #910, #582, .T. ) ;
#663 = ORIENTED_EDGE ( 'NONE', *, *, #588, .T. ) ;
#664 = DIRECTION ( 'NONE',  ( 0.000000000000000000, 0.000000000000000000, -1.000000000000000000 ) ) ;
#665 = ORIENTED_EDGE ( 'NONE', *, *, #231, .F. ) ;
#666 = AXIS2_PLACEMENT_3D ( 'NONE', #153, #1079, #413 ) ;
#667 = DIRECTION ( 'NONE',  ( 0.000000000000000000, 0.000000000000000000, -1.000000000000000000 ) ) ;
#668 = VECTOR ( 'NONE', #467, 1000.000000000000000 ) ;
#669 = DIRECTION ( 'NONE',  ( 1.000000000000000000, 0.000000000000000000, 0.000000000000000000 ) ) ;
#670 = DIRECTION ( 'NONE',  ( -1.000000000000000000, 0.000000000000000000, 0.000000000000000000 ) ) ;
#671 = DIRECTION ( 'NONE',  ( -5.421010862427522170E-17, -1.000000000000000000, -0.000000000000000000 ) ) ;
#672 = CARTESIAN_POINT ( 'NONE',  ( 8.000000000000000000, 8.099999999999999645, 3.000000000000000000 ) ) ;
#673 = EDGE_CURVE ( 'NONE', #471, #901, #207, .T. ) ;
#674 = ORIENTED_EDGE ( 'NONE', *, *, #329, .F. ) ;
#675 = EDGE_CURVE ( 'NONE', #218, #463, #1004, .T. ) ;
#676 = AXIS2_PLACEMENT_3D ( 'NONE', #865, #597, #437 ) ;
#677 = VECTOR ( 'NONE', #251, 1000.000000000000000 ) ;
#678 = EDGE_CURVE ( 'NONE', #816, #735, #924, .T. ) ;
#679 = ORIENTED_EDGE ( 'NONE', *, *, #294, .F. ) ;
#680 = COLOUR_RGB ( '',0.7921568627450980005, 0.8196078431372548767, 0.9333333333333333481 ) ;
#681 = PRODUCT_DEFINITION_CONTEXT ( 'detailed design', #444, 'design' ) ;
#682 = CARTESIAN_POINT ( 'NONE',  ( -4.348721992566471961, 10.10414269004792409, -3.866523395437446720 ) ) ;
#683 = ORIENTED_EDGE ( 'NONE', *, *, #89, .F. ) ;
#684 = CARTESIAN_POINT ( 'NONE',  ( 11.99999999999999289, 1.592040838891558701E-15, 3.000000000000000000 ) ) ;
#685 = B_SPLINE_CURVE_WITH_KNOTS ( 'NONE', 3,
 ( #880, #448, #133, #62, #720, #818, #1053, #381, #141, #713, #402, #296, #648, #555, #397, #125, #1062, #896, #629, #803 ),
 .UNSPECIFIED., .F., .F.,
 ( 4, 2, 2, 2, 2, 2, 2, 2, 2, 4 ),
 ( 0.008575136454143122977, 0.009237368182569961894, 0.009899599910996802546, 0.01056183163942364320, 0.01122406336785048211, 0.01188629509627732103, 0.01221741096049073876, 0.01254852682470415648, 0.01321075855313099540, 0.01387299028155783084 ),
 .UNSPECIFIED. ) ;
#686 = CARTESIAN_POINT ( 'NONE',  ( -7.500000000003556266, 8.046738469712316544, -4.999999999996077804 ) ) ;
#687 = CARTESIAN_POINT ( 'NONE',  ( 5.999999999999999112, 8.099999999999999645, -5.000000000000000000 ) ) ;
#688 = CARTESIAN_POINT ( 'NONE',  ( -5.786244865815984184, 9.357822981899339254, -3.002700271087487049 ) ) ;
#689 = ORIENTED_EDGE ( 'NONE', *, *, #627, .F. ) ;
#690 = DIRECTION ( 'NONE',  ( -0.000000000000000000, -0.000000000000000000, -1.000000000000000000 ) ) ;
#691 = DIRECTION ( 'NONE',  ( -1.000000000000000000, 0.000000000000000000, 0.000000000000000000 ) ) ;
#692 = ADVANCED_FACE ( 'NONE', ( #157 ), #753, .F. ) ;
#693 = CARTESIAN_POINT ( 'NONE',  ( 5.225991622289608785, 9.681697779459813802, -6.854526919297532217 ) ) ;
#694 = DIRECTION ( 'NONE',  ( 1.000000000000000000, 0.000000000000000000, 0.000000000000000000 ) ) ;
#695 = EDGE_LOOP ( 'NONE', ( #449, #831, #674 ) ) ;
#696 = ORIENTED_EDGE ( 'NONE', *, *, #102, .T. ) ;
#697 = DIRECTION ( 'NONE',  ( 1.000000000000000000, 0.000000000000000000, -4.336808689942017736E-16 ) ) ;
#698 = AXIS2_PLACEMENT_3D ( 'NONE', #839, #1088, #327 ) ;
#699 = CARTESIAN_POINT ( 'NONE',  ( 0.000000000000000000, -6.600000000000000533, 0.000000000000000000 ) ) ;
#700 = DIRECTION ( 'NONE',  ( 1.000000000000000000, 0.000000000000000000, -0.000000000000000000 ) ) ;
#701 = CARTESIAN_POINT ( 'NONE',  ( -4.703310167454127999, 9.944142742092946463, -3.473680058276733540 ) ) ;
#702 = EDGE_CURVE ( 'NONE', #463, #735, #1089, .T. ) ;
#703 = ORIENTED_EDGE ( 'NONE', *, *, #922, .F. ) ;
#704 = EDGE_LOOP ( 'NONE', ( #908, #740, #44, #614, #137 ) ) ;
#705 = DIRECTION ( 'NONE',  ( 1.000000000000000000, -5.421010862427522170E-17, 0.000000000000000000 ) ) ;
#706 = DIRECTION ( 'NONE',  ( -0.000000000000000000, -0.000000000000000000, 1.000000000000000000 ) ) ;
#707 = CARTESIAN_POINT ( 'NONE',  ( -7.475797425272284080, 8.069239530616316713, -4.722770698693905977 ) ) ;
#708 = LINE ( 'NONE', #1049, #246 ) ;
#709 = DIRECTION ( 'NONE',  ( 4.336808689942017736E-16, -0.000000000000000000, 1.000000000000000000 ) ) ;
#710 = ADVANCED_FACE ( 'NONE', ( #499 ), #845, .T. ) ;
#711 = VERTEX_POINT ( 'NONE', #69 ) ;
#712 = EDGE_LOOP ( 'NONE', ( #1001, #856, #1051, #1057, #10 ) ) ;
#713 = CARTESIAN_POINT ( 'NONE',  ( 5.227293958362207782, 9.680951723070414516, -3.145114300287818576 ) ) ;
#714 = LINE ( 'NONE', #914, #156 ) ;
#715 = CARTESIAN_POINT ( 'NONE',  ( 7.500000000000000888, 8.046738469715542408, -5.000000000000000000 ) ) ;
#716 = DIRECTION ( 'NONE',  ( 1.000000000000000000, 0.000000000000000000, 0.000000000000000000 ) ) ;
#717 = EDGE_CURVE ( 'NONE', #132, #790, #747, .T. ) ;
#718 = VERTEX_POINT ( 'NONE', #541 ) ;
#719 = ORIENTED_EDGE ( 'NONE', *, *, #43, .T. ) ;
#720 = CARTESIAN_POINT ( 'NONE',  ( 6.690378491849044984, 8.734185188238608788, -3.114219818462635736 ) ) ;
#721 = ADVANCED_FACE ( 'NONE', ( #474 ), #633, .T. ) ;
#722 = UNCERTAINTY_MEASURE_WITH_UNIT (LENGTH_MEASURE( 1.000000000000000082E-05 ), #415, 'distance_accuracy_value', 'NONE');
#723 = CARTESIAN_POINT ( 'NONE',  ( 0.000000000000000000, 0.000000000000000000, 0.000000000000000000 ) ) ;
#724 = CIRCLE ( 'NONE', #53, 1.500000000000000444 ) ;
#725 = CARTESIAN_POINT ( 'NONE',  ( 0.000000000000000000, 0.000000000000000000, -8.000000000000000000 ) ) ;
#726 = CIRCLE ( 'NONE', #348, 11.00000000000000355 ) ;
#727 = DIRECTION ( 'NONE',  ( 0.000000000000000000, 0.000000000000000000, -1.000000000000000000 ) ) ;
#728 = VERTEX_POINT ( 'NONE', #906 ) ;
#729 = ORIENTED_EDGE ( 'NONE', *, *, #922, .T. ) ;
#730 = ORIENTED_EDGE ( 'NONE', *, *, #909, .T. ) ;
#731 = CARTESIAN_POINT ( 'NONE',  ( 0.000000000000000000, 0.000000000000000000, -8.000000000000000000 ) ) ;
#732 = PLANE ( 'NONE',  #1063 ) ;
#733 = FACE_OUTER_BOUND ( 'NONE', #871, .T. ) ;
#734 = CARTESIAN_POINT ( 'NONE',  ( 2.602085213965208275E-15, 0.000000000000000000, -2.000000000000004885 ) ) ;
#735 = VERTEX_POINT ( 'NONE', #821 ) ;
#736 = DIRECTION ( 'NONE',  ( 0.000000000000000000, -1.000000000000000000, 0.000000000000000000 ) ) ;
#737 = EDGE_CURVE ( 'NONE', #61, #1038, #143, .T. ) ;
#738 = DIRECTION ( 'NONE',  ( -5.421010862427522170E-17, -1.000000000000000000, -0.000000000000000000 ) ) ;
#739 = CARTESIAN_POINT ( 'NONE',  ( -6.000000000000000000, 8.099999999999999645, -5.000000000000000000 ) ) ;
#740 = ORIENTED_EDGE ( 'NONE', *, *, #573, .T. ) ;
#741 = CARTESIAN_POINT ( 'NONE',  ( -11.00000000000000178, 1.347111479062088602E-15, 0.000000000000000000 ) ) ;
#742 = B_SPLINE_CURVE_WITH_KNOTS ( 'NONE', 3,
 ( #754, #1007, #707, #960, #105, #686 ),
 .UNSPECIFIED., .F., .F.,
 ( 4, 2, 4 ),
 ( 0.004761692619416764936, 0.004971303755335481495, 0.005180914891254197185 ),
 .UNSPECIFIED. ) ;
#743 = VECTOR ( 'NONE', #997, 1000.000000000000000 ) ;
#744 = DIRECTION ( 'NONE',  ( 0.000000000000000000, 0.000000000000000000, -1.000000000000000000 ) ) ;
#745 = AXIS2_PLACEMENT_3D ( 'NONE', #987, #316, #886 ) ;
#746 = EDGE_LOOP ( 'NONE', ( #193, #854, #593, #1068 ) ) ;
#747 = CIRCLE ( 'NONE', #208, 1.499999999999999556 ) ;
#748 = DIRECTION ( 'NONE',  ( 1.000000000000000000, 0.000000000000000000, 0.000000000000000000 ) ) ;
#749 = LINE ( 'NONE', #830, #540 ) ;
#750 = ORIENTED_EDGE ( 'NONE', *, *, #407, .F. ) ;
#751 = LINE ( 'NONE', #843, #820 ) ;
#752 = EDGE_CURVE ( 'NONE', #537, #485, #72, .T. ) ;
#753 = CYLINDRICAL_SURFACE ( 'NONE', #835, 1.500000000000000444 ) ;
#754 = CARTESIAN_POINT ( 'NONE',  ( -7.442445834535849514, 8.099999999999999645, -4.588478415596246585 ) ) ;
#755 = EDGE_LOOP ( 'NONE', ( #274, #802, #234, #985 ) ) ;
#756 = CARTESIAN_POINT ( 'NONE',  ( -9.024137643225122574, -6.599999999999999645, -1.692252665606617024 ) ) ;
#757 = DIRECTION ( 'NONE',  ( 1.000000000000000000, 0.000000000000000000, -4.336808689942016257E-16 ) ) ;
#758 = CIRCLE ( 'NONE', #1014, 11.00000000000000533 ) ;
#759 = AXIS2_PLACEMENT_3D ( 'NONE', #417, #607, #757 ) ;
#760 = DIRECTION ( 'NONE',  ( -0.000000000000000000, -0.000000000000000000, -1.000000000000000000 ) ) ;
#761 = VERTEX_POINT ( 'NONE', #41 ) ;
#762 = ADVANCED_FACE ( 'NONE', ( #733 ), #898, .T. ) ;
#763 = CARTESIAN_POINT ( 'NONE',  ( -8.800000000000000711, -6.600000000000000533, -1.000000000000000888 ) ) ;
#764 = ORIENTED_EDGE ( 'NONE', *, *, #287, .F. ) ;
#765 = EDGE_CURVE ( 'NONE', #581, #866, #312, .T. ) ;
#766 = CARTESIAN_POINT ( 'NONE',  ( 0.000000000000000000, 0.000000000000000000, 0.000000000000000000 ) ) ;
#767 = ORIENTED_EDGE ( 'NONE', *, *, #490, .T. ) ;
#768 = SURFACE_SIDE_STYLE ('',( #349 ) ) ;
#769 = CARTESIAN_POINT ( 'NONE',  ( 4.000000000000000000, 8.099999999999999645, -5.000000000000000000 ) ) ;
#770 = CARTESIAN_POINT ( 'NONE',  ( -6.857520507311618552, 8.603185541820439042, -3.184265190580941152 ) ) ;
#771 = VECTOR ( 'NONE', #443, 1000.000000000000000 ) ;
#772 = VECTOR ( 'NONE', #204, 1000.000000000000000 ) ;
#773 = VERTEX_POINT ( 'NONE', #460 ) ;
#774 = ORIENTED_EDGE ( 'NONE', *, *, #173, .T. ) ;
#775 = LINE ( 'NONE', #13, #244 ) ;
#776 = CARTESIAN_POINT ( 'NONE',  ( 11.00000000000000355, 0.000000000000000000, -2.000000000000009770 ) ) ;
#777 = CARTESIAN_POINT ( 'NONE',  ( -7.167669673216379600, 8.346535883630508579, -6.633586746040254667 ) ) ;
#778 = ADVANCED_FACE ( 'NONE', ( #1065 ), #147, .F. ) ;
#779 = ORIENTED_EDGE ( 'NONE', *, *, #637, .T. ) ;
#780 = CARTESIAN_POINT ( 'NONE',  ( 7.461164266150028368, 8.082801121802967614, -5.345910630485022352 ) ) ;
#781 = DIRECTION ( 'NONE',  ( 1.000000000000000000, 0.000000000000000000, 0.000000000000000000 ) ) ;
#782 = EDGE_LOOP ( 'NONE', ( #719, #544, #646, #457 ) ) ;
#783 = DIRECTION ( 'NONE',  ( -0.000000000000000000, -0.000000000000000000, 1.000000000000000000 ) ) ;
#784 = CARTESIAN_POINT ( 'NONE',  ( -4.010254602179601946, 10.24296153656477593, -5.230349671794179756 ) ) ;
#785 = ORIENTED_EDGE ( 'NONE', *, *, #842, .F. ) ;
#786 = CARTESIAN_POINT ( 'NONE',  ( 11.00000000000000178, 0.000000000000000000, 0.000000000000000000 ) ) ;
#787 = CARTESIAN_POINT ( 'NONE',  ( 0.000000000000000000, 0.000000000000000000, 3.000000000000000000 ) ) ;
#788 = B_SPLINE_CURVE_WITH_KNOTS ( 'NONE', 3,
 ( #307, #644, #827, #917, #1071, #127 ),
 .UNSPECIFIED., .F., .F.,
 ( 4, 2, 4 ),
 ( 0.005180914891254197185, 0.005389938609782363860, 0.005598962328310530534 ),
 .UNSPECIFIED. ) ;
#789 = FACE_OUTER_BOUND ( 'NONE', #1026, .T. ) ;
#790 = VERTEX_POINT ( 'NONE', #570 ) ;
#791 = VECTOR ( 'NONE', #603, 1000.000000000000000 ) ;
#792 = AXIS2_PLACEMENT_3D ( 'NONE', #164, #878, #436 ) ;
#793 = ORIENTED_EDGE ( 'NONE', *, *, #509, .T. ) ;
#794 = CARTESIAN_POINT ( 'NONE',  ( 11.00000000000000888, 0.000000000000000000, -1.000000000000009548 ) ) ;
#795 = AXIS2_PLACEMENT_3D ( 'NONE', #48, #556, #638 ) ;
#796 = DIRECTION ( 'NONE',  ( -0.7071067811865472397, 0.000000000000000000, -0.7071067811865479058 ) ) ;
#797 = EDGE_CURVE ( 'NONE', #718, #225, #788, .T. ) ;
#798 = CARTESIAN_POINT ( 'NONE',  ( 6.691554802021133064, 8.733259769993958699, -6.885272944813496387 ) ) ;
#799 = PLANE ( 'NONE',  #188 ) ;
#800 = CARTESIAN_POINT ( 'NONE',  ( -4.008451111014483814, 10.24366572485291726, -4.785698966306280333 ) ) ;
#801 = ORIENTED_EDGE ( 'NONE', *, *, #120, .F. ) ;
#802 = ORIENTED_EDGE ( 'NONE', *, *, #595, .T. ) ;
#803 = CARTESIAN_POINT ( 'NONE',  ( 4.000000000000000000, 10.24695076595959975, -5.000000000000000000 ) ) ;
#804 = UNCERTAINTY_MEASURE_WITH_UNIT (LENGTH_MEASURE( 1.000000000000000082E-05 ), #26, 'distance_accuracy_value', 'NONE');
#805 = FACE_OUTER_BOUND ( 'NONE', #825, .T. ) ;
#806 = DIRECTION ( 'NONE',  ( -5.421010862427522170E-17, -1.000000000000000000, 0.000000000000000000 ) ) ;
#807 = EDGE_CURVE ( 'NONE', #901, #628, #714, .T. ) ;
#808 = CARTESIAN_POINT ( 'NONE',  ( 0.000000000000000000, 0.000000000000000000, -8.000000000000000000 ) ) ;
#809 = VERTEX_POINT ( 'NONE', #562 ) ;
#810 = ORIENTED_EDGE ( 'NONE', *, *, #548, .T. ) ;
#811 = CARTESIAN_POINT ( 'NONE',  ( -7.442445834535849514, 8.099999999999999645, -4.588478415596246585 ) ) ;
#812 = CARTESIAN_POINT ( 'NONE',  ( 7.999999999999998224, -6.600000000000000533, 0.000000000000000000 ) ) ;
#813 = CARTESIAN_POINT ( 'NONE',  ( 0.000000000000000000, 0.000000000000000000, -8.000000000000000000 ) ) ;
#814 = CARTESIAN_POINT ( 'NONE',  ( 9.024333538989067094, -6.599999999999999645, -1.308214445334897169 ) ) ;
#815 = ORIENTED_EDGE ( 'NONE', *, *, #888, .F. ) ;
#816 = VERTEX_POINT ( 'NONE', #483 ) ;
#817 = ORIENTED_EDGE ( 'NONE', *, *, #752, .F. ) ;
#818 = CARTESIAN_POINT ( 'NONE',  ( 6.340454512368043360, 8.991428798763559271, -3.020889068269519306 ) ) ;
#819 = DIRECTION ( 'NONE',  ( 1.000000000000000000, 0.000000000000000000, 0.000000000000000000 ) ) ;
#820 = VECTOR ( 'NONE', #657, 1000.000000000000000 ) ;
#821 = CARTESIAN_POINT ( 'NONE',  ( -8.000000000000000000, -6.600000000000000533, -8.000000000000000000 ) ) ;
#822 = CIRCLE ( 'NONE', #302, 11.00000000000000178 ) ;
#823 = DIRECTION ( 'NONE',  ( 0.000000000000000000, 0.000000000000000000, -1.000000000000000000 ) ) ;
#824 = EDGE_CURVE ( 'NONE', #519, #177, #1006, .T. ) ;
#825 = EDGE_LOOP ( 'NONE', ( #1045, #31, #1084, #226, #916 ) ) ;
#826 = PLANE ( 'NONE',  #522 ) ;
#827 = CARTESIAN_POINT ( 'NONE',  ( -7.494975459217101843, 8.051429645920258338, -5.141023195430779680 ) ) ;
#828 = FACE_OUTER_BOUND ( 'NONE', #746, .T. ) ;
#829 = ORIENTED_EDGE ( 'NONE', *, *, #675, .F. ) ;
#830 = CARTESIAN_POINT ( 'NONE',  ( 0.000000000000000000, -6.600000000000000533, -8.000000000000000000 ) ) ;
#831 = ORIENTED_EDGE ( 'NONE', *, *, #170, .F. ) ;
#832 = PRESENTATION_STYLE_ASSIGNMENT (( #846 ) ) ;
#833 = AXIS2_PLACEMENT_3D ( 'NONE', #739, #148, #45 ) ;
#834 = DIRECTION ( 'NONE',  ( -1.000000000000000000, 0.000000000000000000, 0.000000000000000000 ) ) ;
#835 = AXIS2_PLACEMENT_3D ( 'NONE', #414, #336, #162 ) ;
#836 = EDGE_CURVE ( 'NONE', #468, #628, #97, .T. ) ;
#837 = ORIENTED_EDGE ( 'NONE', *, *, #876, .F. ) ;
#838 = CIRCLE ( 'NONE', #949, 1.499999999999999556 ) ;
#839 = CARTESIAN_POINT ( 'NONE',  ( -6.000000000000000888, 8.099999999999999645, -5.000000000000000000 ) ) ;
#840 = CARTESIAN_POINT ( 'NONE',  ( -8.936706478493531947, -6.600000000000001421, -1.137435020914060901 ) ) ;
#841 = LINE ( 'NONE', #418, #1080 ) ;
#842 = EDGE_CURVE ( 'NONE', #463, #1038, #708, .T. ) ;
#843 = CARTESIAN_POINT ( 'NONE',  ( -11.00000000000000178, 1.347111479062088602E-15, -8.000000000000000000 ) ) ;
#844 = EDGE_CURVE ( 'NONE', #866, #393, #542, .T. ) ;
#845 = PLANE ( 'NONE',  #505 ) ;
#846 = SURFACE_STYLE_USAGE ( .BOTH. , #74 ) ;
#847 = CARTESIAN_POINT ( 'NONE',  ( 7.500000000000000888, 8.046738469715542408, -5.000000000000000000 ) ) ;
#848 = VECTOR ( 'NONE', #2, 1000.000000000000000 ) ;
#849 = VECTOR ( 'NONE', #576, 1000.000000000000000 ) ;
#850 = VECTOR ( 'NONE', #322, 1000.000000000000000 ) ;
#851 = ADVANCED_FACE ( 'NONE', ( #236 ), #799, .T. ) ;
#852 = DIRECTION ( 'NONE',  ( -0.000000000000000000, -0.000000000000000000, 1.000000000000000000 ) ) ;
#853 = ORIENTED_EDGE ( 'NONE', *, *, #836, .T. ) ;
#854 = ORIENTED_EDGE ( 'NONE', *, *, #1085, .F. ) ;
#855 = CARTESIAN_POINT ( 'NONE',  ( -4.296473166817579958, 10.12637511943580648, -6.053416268747034756 ) ) ;
#856 = ORIENTED_EDGE ( 'NONE', *, *, #870, .T. ) ;
#857 = CARTESIAN_POINT ( 'NONE',  ( 0.000000000000000000, 0.000000000000000000, 0.000000000000000000 ) ) ;
#858 = LINE ( 'NONE', #585, #245 ) ;
#859 = EDGE_CURVE ( 'NONE', #659, #761, #623, .T. ) ;
#860 = DIRECTION ( 'NONE',  ( -1.000000000000000000, 0.000000000000000000, 0.000000000000000000 ) ) ;
#861 = CARTESIAN_POINT ( 'NONE',  ( -7.442445834535849514, 8.099999999999999645, -8.000000000000000000 ) ) ;
#862 = AXIS2_PLACEMENT_3D ( 'NONE', #857, #430, #504 ) ;
#863 = CIRCLE ( 'NONE', #1005, 11.99999999999999289 ) ;
#864 = ORIENTED_EDGE ( 'NONE', *, *, #367, .F. ) ;
#865 = CARTESIAN_POINT ( 'NONE',  ( -6.000000000000000888, 0.9431457505076207282, -5.000000000000000000 ) ) ;
#866 = VERTEX_POINT ( 'NONE', #600 ) ;
#867 = PRESENTATION_STYLE_ASSIGNMENT (( #284 ) ) ;
#868 = CARTESIAN_POINT ( 'NONE',  ( 4.703795071663873451, 9.945368662922918546, -6.536966278565983224 ) ) ;
#869 = CARTESIAN_POINT ( 'NONE',  ( -5.231007128322202604, 9.678943144814706301, -6.856400630298007393 ) ) ;
#870 = EDGE_CURVE ( 'NONE', #267, #422, #90, .T. ) ;
#871 = EDGE_LOOP ( 'NONE', ( #903, #527, #972, #521 ) ) ;
#872 = CARTESIAN_POINT ( 'NONE',  ( 6.000000000000000000, 8.099999999999999645, -5.000000000000000000 ) ) ;
#873 = DIRECTION ( 'NONE',  ( 1.314184451497581259E-16, 1.000000000000000000, 0.000000000000000000 ) ) ;
#874 = CARTESIAN_POINT ( 'NONE',  ( -7.313230872647874747, 8.218725352452205257, -3.480058934333830400 ) ) ;
#875 = ORIENTED_EDGE ( 'NONE', *, *, #737, .F. ) ;
#876 = EDGE_CURVE ( 'NONE', #343, #267, #84, .T. ) ;
#877 = EDGE_LOOP ( 'NONE', ( #864, #810, #405, #30 ) ) ;
#878 = DIRECTION ( 'NONE',  ( 5.421010862427522170E-17, 1.000000000000000000, -0.000000000000000000 ) ) ;
#879 = DIRECTION ( 'NONE',  ( 1.000000000000000000, -5.421010862427522170E-17, 0.000000000000000000 ) ) ;
#880 = CARTESIAN_POINT ( 'NONE',  ( 7.442445834535851290, 8.099999999999999645, -3.614593917138312129 ) ) ;
#881 = CARTESIAN_POINT ( 'NONE',  ( 7.461308972410711782, 8.082668162728019468, -4.654596586999796948 ) ) ;
#882 = CARTESIAN_POINT ( 'NONE',  ( -4.192839434638917062, 10.16972232698852174, -5.863631980439155456 ) ) ;
#883 = ORIENTED_EDGE ( 'NONE', *, *, #509, .F. ) ;
#884 = AXIS2_PLACEMENT_3D ( 'NONE', #535, #967, #203 ) ;
#885 = ORIENTED_EDGE ( 'NONE', *, *, #241, .F. ) ;
#886 = DIRECTION ( 'NONE',  ( -1.000000000000000000, 5.421010862427524635E-17, 0.000000000000000000 ) ) ;
#887 = AXIS2_PLACEMENT_3D ( 'NONE', #976, #738, #135 ) ;
#888 = EDGE_CURVE ( 'NONE', #711, #225, #838, .T. ) ;
#889 = DIRECTION ( 'NONE',  ( 0.000000000000000000, 0.000000000000000000, 1.000000000000000000 ) ) ;
#890 = DIRECTION ( 'NONE',  ( 1.000000000000000000, 0.000000000000000000, 0.000000000000000000 ) ) ;
#891 = CARTESIAN_POINT ( 'NONE',  ( 7.499999999999999112, 8.046738469715544184, -4.928954423603645552 ) ) ;
#892 = ADVANCED_FACE ( 'NONE', ( #789 ), #392, .T. ) ;
#893 = DIRECTION ( 'NONE',  ( -1.000000000000000000, 0.000000000000000000, 0.000000000000000000 ) ) ;
#894 = ORIENTED_EDGE ( 'NONE', *, *, #328, .T. ) ;
#895 = ORIENTED_EDGE ( 'NONE', *, *, #962, .T. ) ;
#896 = CARTESIAN_POINT ( 'NONE',  ( 4.037251082225850496, 10.23262705051421584, -4.556657839752499051 ) ) ;
#897 =( LENGTH_UNIT ( ) NAMED_UNIT ( * ) SI_UNIT ( .MILLI., .METRE. ) );
#898 = CYLINDRICAL_SURFACE ( 'NONE', #8, 11.00000000000000178 ) ;
#899 = FACE_OUTER_BOUND ( 'NONE', #477, .T. ) ;
#900 = ORIENTED_EDGE ( 'NONE', *, *, #797, .F. ) ;
#901 = VERTEX_POINT ( 'NONE', #101 ) ;
#902 = DIRECTION ( 'NONE',  ( 0.000000000000000000, 0.000000000000000000, -1.000000000000000000 ) ) ;
#903 = ORIENTED_EDGE ( 'NONE', *, *, #932, .F. ) ;
#904 = CARTESIAN_POINT ( 'NONE',  ( -13.99999999999999822, 0.000000000000000000, 0.9999999999999931166 ) ) ;
#905 = CARTESIAN_POINT ( 'NONE',  ( 8.000000000000000000, 6.599999999999999645, 3.000000000000000000 ) ) ;
#906 = CARTESIAN_POINT ( 'NONE',  ( 7.442445834535851290, 8.099999999999999645, -4.588478415596250137 ) ) ;
#907 = CARTESIAN_POINT ( 'NONE',  ( -8.800000000000002487, -6.600000000000000533, -2.000000000000000444 ) ) ;
#908 = ORIENTED_EDGE ( 'NONE', *, *, #517, .T. ) ;
#909 = EDGE_CURVE ( 'NONE', #964, #218, #350, .T. ) ;
#910 = VERTEX_POINT ( 'NONE', #1034 ) ;
#911 = FACE_OUTER_BOUND ( 'NONE', #261, .T. ) ;
#912 = PRODUCT ( 'rj45plug', 'rj45plug', '', ( #598 ) ) ;
#913 = VECTOR ( 'NONE', #168, 999.9999999999998863 ) ;
#914 = CARTESIAN_POINT ( 'NONE',  ( 13.99999999999999822, 1.714505518806294441E-15, 3.000000000000000000 ) ) ;
#915 = CARTESIAN_POINT ( 'NONE',  ( 8.873784911838674461, -6.599999999999999645, -1.061979325944478303 ) ) ;
#916 = ORIENTED_EDGE ( 'NONE', *, *, #752, .T. ) ;
#917 = CARTESIAN_POINT ( 'NONE',  ( -7.475506520408348621, 8.069509200738449906, -5.278782484283609300 ) ) ;
#918 = EDGE_LOOP ( 'NONE', ( #1024, #88 ) ) ;
#919 = ADVANCED_FACE ( 'NONE', ( #279 ), #400, .T. ) ;
#920 = CARTESIAN_POINT ( 'NONE',  ( 8.000000000000000000, 6.599999999999999645, -8.000000000000000000 ) ) ;
#921 = DIRECTION ( 'NONE',  ( -1.000000000000000000, 5.421010862427524635E-17, 0.000000000000000000 ) ) ;
#922 = EDGE_CURVE ( 'NONE', #718, #790, #551, .T. ) ;
#923 = AXIS2_PLACEMENT_3D ( 'NONE', #1060, #902, #860 ) ;
#924 = LINE ( 'NONE', #929, #366 ) ;
#925 = VECTOR ( 'NONE', #1011, 1000.000000000000000 ) ;
#926 = ORIENTED_EDGE ( 'NONE', *, *, #128, .F. ) ;
#927 = AXIS2_PLACEMENT_3D ( 'NONE', #534, #33, #196 ) ;
#928 = DIRECTION ( 'NONE',  ( -1.000000000000000000, 5.421010862427522170E-17, 0.000000000000000000 ) ) ;
#929 = CARTESIAN_POINT ( 'NONE',  ( -7.999999999999998224, 0.000000000000000000, -8.000000000000000000 ) ) ;
#930 = DIRECTION ( 'NONE',  ( -0.000000000000000000, -0.000000000000000000, 1.000000000000000000 ) ) ;
#931 = CARTESIAN_POINT ( 'NONE',  ( 11.99999999999999289, 1.469576158976823158E-15, 3.000000000000000000 ) ) ;
#932 = EDGE_CURVE ( 'NONE', #1073, #581, #822, .T. ) ;
#933 = PLANE ( 'NONE',  #81 ) ;
#934 = VECTOR ( 'NONE', #783, 1000.000000000000000 ) ;
#935 = AXIS2_PLACEMENT_3D ( 'NONE', #293, #475, #645 ) ;
#936 = VERTEX_POINT ( 'NONE', #907 ) ;
#937 = CARTESIAN_POINT ( 'NONE',  ( -5.601812625694213565, 9.469164233644182360, -6.969522823377677589 ) ) ;
#938 = ORIENTED_EDGE ( 'NONE', *, *, #85, .T. ) ;
#939 = CARTESIAN_POINT ( 'NONE',  ( 7.999999999999998224, -6.600000000000000533, 3.000000000000000000 ) ) ;
#940 = EDGE_CURVE ( 'NONE', #866, #401, #626, .T. ) ;
#941 = APPLICATION_PROTOCOL_DEFINITION ( 'draft international standard', 'automotive_design', 1998, #444 ) ;
#942 = CARTESIAN_POINT ( 'NONE',  ( -4.785622744069653933, 9.904884902349078146, -3.407570824982793845 ) ) ;
#943 = EDGE_LOOP ( 'NONE', ( #130, #767, #564, #979 ) ) ;
#944 = CARTESIAN_POINT ( 'NONE',  ( 5.044200973334370453, 9.777120356131002055, -6.768858608910520935 ) ) ;
#945 = CARTESIAN_POINT ( 'NONE',  ( -5.793080315204944597, 9.353550077986040989, -6.997871028557541173 ) ) ;
#946 = PRODUCT_RELATED_PRODUCT_CATEGORY ( 'part', '', ( #912 ) ) ;
#947 = MECHANICAL_DESIGN_GEOMETRIC_PRESENTATION_REPRESENTATION (  '', ( #232 ), #565 ) ;
#948 = VECTOR ( 'NONE', #671, 1000.000000000000000 ) ;
#949 = AXIS2_PLACEMENT_3D ( 'NONE', #961, #198, #694 ) ;
#950 = ORIENTED_EDGE ( 'NONE', *, *, #652, .T. ) ;
#951 = DIRECTION ( 'NONE',  ( -5.421010862427522170E-17, -1.000000000000000000, 0.000000000000000000 ) ) ;
#952 = PRESENTATION_LAYER_ASSIGNMENT (  '', '', ( #1017 ) ) ;
#953 = CARTESIAN_POINT ( 'NONE',  ( -11.99999999999999289, 0.000000000000000000, 3.000000000000000000 ) ) ;
#954 = CARTESIAN_POINT ( 'NONE',  ( -7.442445834535849514, 8.099999999999999645, -6.385406082861691424 ) ) ;
#955 = ADVANCED_FACE ( 'NONE', ( #899 ), #308, .T. ) ;
#956 = EDGE_LOOP ( 'NONE', ( #785, #829, #309, #481 ) ) ;
#957 = ORIENTED_EDGE ( 'NONE', *, *, #807, .F. ) ;
#958 = DIRECTION ( 'NONE',  ( 4.336808689942017736E-16, -0.000000000000000000, 1.000000000000000000 ) ) ;
#959 = FILL_AREA_STYLE ('',( #174 ) ) ;
#960 = CARTESIAN_POINT ( 'NONE',  ( -7.495114639836648607, 8.051299912552945415, -4.860478174864669931 ) ) ;
#961 = CARTESIAN_POINT ( 'NONE',  ( -6.000000000000000000, 8.099999999999999645, -5.000000000000000000 ) ) ;
#962 = EDGE_CURVE ( 'NONE', #393, #773, #726, .T. ) ;
#963 = CYLINDRICAL_SURFACE ( 'NONE', #1035, 13.99999999999999822 ) ;
#964 = VERTEX_POINT ( 'NONE', #129 ) ;
#965 = CARTESIAN_POINT ( 'NONE',  ( 7.495008363766176629, 8.051398855820304234, -5.140542929128484317 ) ) ;
#966 = DIRECTION ( 'NONE',  ( 1.224646799147353207E-16, 1.000000000000000000, -5.311058880651918365E-32 ) ) ;
#967 = DIRECTION ( 'NONE',  ( 4.336808689942017736E-16, -0.000000000000000000, 1.000000000000000000 ) ) ;
#968 = CARTESIAN_POINT ( 'NONE',  ( 7.999999999999998224, 0.000000000000000000, -8.000000000000000000 ) ) ;
#969 = CARTESIAN_POINT ( 'NONE',  ( 0.000000000000000000, 0.000000000000000000, 0.9999999999999931166 ) ) ;
#970 = EDGE_LOOP ( 'NONE', ( #46, #171, #334, #990 ) ) ;
#971 = CIRCLE ( 'NONE', #590, 1.500000000000000444 ) ;
#972 = ORIENTED_EDGE ( 'NONE', *, *, #844, .F. ) ;
#973 = CARTESIAN_POINT ( 'NONE',  ( 11.00000000000000178, 0.000000000000000000, -8.000000000000000000 ) ) ;
#974 = CONICAL_SURFACE ( 'NONE', #479, 11.99999999999999289, 0.7853981633974479459 ) ;
#975 = CARTESIAN_POINT ( 'NONE',  ( 11.00000000000000178, 0.000000000000000000, -8.000000000000000000 ) ) ;
#976 = CARTESIAN_POINT ( 'NONE',  ( -6.000000000000000000, 11.59999999999999964, -5.000000000000000000 ) ) ;
#977 = CARTESIAN_POINT ( 'NONE',  ( 0.000000000000000000, 0.000000000000000000, -8.000000000000000000 ) ) ;
#978 = ORIENTED_EDGE ( 'NONE', *, *, #1085, .T. ) ;
#979 = ORIENTED_EDGE ( 'NONE', *, *, #940, .F. ) ;
#980 = CARTESIAN_POINT ( 'NONE',  ( 0.000000000000000000, -6.600000000000000533, -8.000000000000000000 ) ) ;
#981 = DIRECTION ( 'NONE',  ( 5.421010862427522170E-17, 1.000000000000000000, -0.000000000000000000 ) ) ;
#982 = ADVANCED_FACE ( 'NONE', ( #828 ), #974, .T. ) ;
#983 = DIRECTION ( 'NONE',  ( 0.000000000000000000, 0.000000000000000000, 1.000000000000000000 ) ) ;
#984 = FACE_BOUND ( 'NONE', #217, .T. ) ;
#985 = ORIENTED_EDGE ( 'NONE', *, *, #3, .F. ) ;
#986 = VERTEX_POINT ( 'NONE', #390 ) ;
#987 = CARTESIAN_POINT ( 'NONE',  ( 5.999999999999999112, 0.9431457505076207282, -5.000000000000000000 ) ) ;
#988 = DIRECTION ( 'NONE',  ( -0.000000000000000000, -0.000000000000000000, 1.000000000000000000 ) ) ;
#989 = FACE_OUTER_BOUND ( 'NONE', #424, .T. ) ;
#990 = ORIENTED_EDGE ( 'NONE', *, *, #595, .F. ) ;
#991 = ORIENTED_EDGE ( 'NONE', *, *, #678, .T. ) ;
#992 = VECTOR ( 'NONE', #760, 1000.000000000000000 ) ;
#993 = DIRECTION ( 'NONE',  ( 1.000000000000000000, 0.000000000000000000, -4.336808689942016257E-16 ) ) ;
#994 = VECTOR ( 'NONE', #796, 999.9999999999998863 ) ;
#995 = FILL_AREA_STYLE ('',( #1097 ) ) ;
#996 = EDGE_CURVE ( 'NONE', #901, #471, #335, .T. ) ;
#997 = DIRECTION ( 'NONE',  ( -1.000000000000000000, 0.000000000000000000, 0.000000000000000000 ) ) ;
#998 = DIRECTION ( 'NONE',  ( 0.000000000000000000, 0.000000000000000000, -1.000000000000000000 ) ) ;
#999 = ADVANCED_FACE ( 'NONE', ( #1072, #65, #313 ), #543, .T. ) ;
#1000 = CARTESIAN_POINT ( 'NONE',  ( -8.000000000000001776, -6.600000000000000533, 3.000000000000000000 ) ) ;
#1001 = ORIENTED_EDGE ( 'NONE', *, *, #876, .T. ) ;
#1002 = LINE ( 'NONE', #321, #591 ) ;
#1003 = AXIS2_PLACEMENT_3D ( 'NONE', #18, #359, #691 ) ;
#1004 = LINE ( 'NONE', #1000, #849 ) ;
#1005 = AXIS2_PLACEMENT_3D ( 'NONE', #1041, #285, #616 ) ;
#1006 = CIRCLE ( 'NONE', #1095, 11.00000000000000533 ) ;
#1007 = CARTESIAN_POINT ( 'NONE',  ( -7.461138510669456991, 8.082824786465815592, -4.653999092632707502 ) ) ;
#1008 = DIRECTION ( 'NONE',  ( -1.314184451497581259E-16, -1.000000000000000000, 0.000000000000000000 ) ) ;
#1009 = LINE ( 'NONE', #931, #913 ) ;
#1010 = ADVANCED_FACE ( 'NONE', ( #641, #984, #989 ), #229, .T. ) ;
#1011 = DIRECTION ( 'NONE',  ( -1.000000000000000000, 5.421010862427522170E-17, 0.000000000000000000 ) ) ;
#1012 = DIRECTION ( 'NONE',  ( 1.000000000000000000, -5.421010862427522170E-17, 0.000000000000000000 ) ) ;
#1013 = ORIENTED_EDGE ( 'NONE', *, *, #517, .F. ) ;
#1014 = AXIS2_PLACEMENT_3D ( 'NONE', #1044, #462, #288 ) ;
#1015 = AXIS2_PLACEMENT_3D ( 'NONE', #615, #195, #86 ) ;
#1016 = AXIS2_PLACEMENT_3D ( 'NONE', #291, #706, #819 ) ;
#1017 = STYLED_ITEM ( 'NONE', ( #867 ), #383 ) ;
#1018 = ADVANCED_FACE ( 'NONE', ( #134, #297 ), #465, .F. ) ;
#1019 = ORIENTED_EDGE ( 'NONE', *, *, #395, .T. ) ;
#1020 = ORIENTED_EDGE ( 'NONE', *, *, #311, .T. ) ;
#1021 =( NAMED_UNIT ( * ) PLANE_ANGLE_UNIT ( ) SI_UNIT ( $, .RADIAN. ) );
#1022 = CARTESIAN_POINT ( 'NONE',  ( -4.550405010547519780, 10.01503448053880518, -3.618069664243443562 ) ) ;
#1023 = ADVANCED_FACE ( 'NONE', ( #805 ), #40, .F. ) ;
#1024 = ORIENTED_EDGE ( 'NONE', *, *, #836, .F. ) ;
#1025 = CARTESIAN_POINT ( 'NONE',  ( 3.035766082959410049E-15, 0.000000000000000000, -1.000000000000004885 ) ) ;
#1026 = EDGE_LOOP ( 'NONE', ( #895, #181, #38, #269 ) ) ;
#1027 = CARTESIAN_POINT ( 'NONE',  ( 11.00000000000000178, 0.000000000000000000, -8.000000000000000000 ) ) ;
#1028 = EDGE_CURVE ( 'NONE', #339, #471, #119, .T. ) ;
#1029 = CARTESIAN_POINT ( 'NONE',  ( 4.181119656469305390, 10.17468813130823335, -5.860627659455302840 ) ) ;
#1030 = CARTESIAN_POINT ( 'NONE',  ( -4.793110138648288832, 9.901259261518376320, -6.598056802853027314 ) ) ;
#1031 = ORIENTED_EDGE ( 'NONE', *, *, #662, .T. ) ;
#1032 = CARTESIAN_POINT ( 'NONE',  ( 4.000000000000000000, 0.9431457505076208392, -5.000000000000000000 ) ) ;
#1033 = CARTESIAN_POINT ( 'NONE',  ( 5.787999692955360764, 9.356745556407238595, -6.997510059538090132 ) ) ;
#1034 = CARTESIAN_POINT ( 'NONE',  ( -8.800000000000000711, -6.600000000000000533, -8.000000000000000000 ) ) ;
#1035 = AXIS2_PLACEMENT_3D ( 'NONE', #512, #11, #353 ) ;
#1036 = VECTOR ( 'NONE', #220, 1000.000000000000000 ) ;
#1037 = ORIENTED_EDGE ( 'NONE', *, *, #170, .T. ) ;
#1038 = VERTEX_POINT ( 'NONE', #812 ) ;
#1039 = CARTESIAN_POINT ( 'NONE',  ( 7.442445834535851290, 8.099999999999999645, -3.614593917138312129 ) ) ;
#1040 =( NAMED_UNIT ( * ) SI_UNIT ( $, .STERADIAN. ) SOLID_ANGLE_UNIT ( ) );
#1041 = CARTESIAN_POINT ( 'NONE',  ( 0.000000000000000000, 0.000000000000000000, 3.000000000000000000 ) ) ;
#1042 = EDGE_CURVE ( 'NONE', #1061, #728, #455, .T. ) ;
#1043 = CARTESIAN_POINT ( 'NONE',  ( -5.223502228695220850, 9.683022980252729894, -3.146578166035880031 ) ) ;
#1044 = CARTESIAN_POINT ( 'NONE',  ( 3.035766082959410049E-15, 0.000000000000000000, -1.000000000000004885 ) ) ;
#1045 = ORIENTED_EDGE ( 'NONE', *, *, #573, .F. ) ;
#1046 = CARTESIAN_POINT ( 'NONE',  ( 8.800000000000000711, -6.600000000000000533, -8.000000000000000000 ) ) ;
#1047 = CARTESIAN_POINT ( 'NONE',  ( -8.800000000000000711, -6.600000000000000533, -1.000000000000000888 ) ) ;
#1048 = DIRECTION ( 'NONE',  ( 0.000000000000000000, 0.000000000000000000, 1.000000000000000000 ) ) ;
#1049 = CARTESIAN_POINT ( 'NONE',  ( 7.999999999999998224, -6.600000000000000533, 0.000000000000000000 ) ) ;
#1050 = DIRECTION ( 'NONE',  ( -1.314184451497581259E-16, -1.000000000000000000, -0.000000000000000000 ) ) ;
#1051 = ORIENTED_EDGE ( 'NONE', *, *, #324, .T. ) ;
#1052 = ORIENTED_EDGE ( 'NONE', *, *, #702, .F. ) ;
#1053 = CARTESIAN_POINT ( 'NONE',  ( 6.160502786753085935, 9.115748422333457057, -2.997864019573103000 ) ) ;
#1054 = CARTESIAN_POINT ( 'NONE',  ( 4.499999999999999112, 8.099999999999999645, -5.000000000000000000 ) ) ;
#1055 = DIRECTION ( 'NONE',  ( -0.000000000000000000, -0.000000000000000000, 1.000000000000000000 ) ) ;
#1056 = CARTESIAN_POINT ( 'NONE',  ( -7.500000000000000000, 11.59999999999999964, -5.000000000000000000 ) ) ;
#1057 = ORIENTED_EDGE ( 'NONE', *, *, #797, .T. ) ;
#1058 = CIRCLE ( 'NONE', #6, 0.7249999999999982014 ) ;
#1059 = ADVANCED_FACE ( 'NONE', ( #222 ), #631, .T. ) ;
#1060 = CARTESIAN_POINT ( 'NONE',  ( 0.000000000000000000, 0.000000000000000000, 3.000000000000000000 ) ) ;
#1061 = VERTEX_POINT ( 'NONE', #1054 ) ;
#1062 = CARTESIAN_POINT ( 'NONE',  ( 4.181582919036794799, 10.17449836341176983, -4.138434619464215203 ) ) ;
#1063 = AXIS2_PLACEMENT_3D ( 'NONE', #1070, #547, #452 ) ;
#1064 = CARTESIAN_POINT ( 'NONE',  ( 8.000000000000000000, 6.599999999999998757, 3.000000000000000000 ) ) ;
#1065 = FACE_OUTER_BOUND ( 'NONE', #295, .T. ) ;
#1066 = CARTESIAN_POINT ( 'NONE',  ( 9.048846702590813251, -6.600000000000000533, -1.403579190360389806 ) ) ;
#1067 = VERTEX_POINT ( 'NONE', #905 ) ;
#1068 = ORIENTED_EDGE ( 'NONE', *, *, #996, .F. ) ;
#1069 = DIRECTION ( 'NONE',  ( 0.000000000000000000, 0.000000000000000000, -1.000000000000000000 ) ) ;
#1070 = CARTESIAN_POINT ( 'NONE',  ( 0.000000000000000000, 0.000000000000000000, -8.000000000000000000 ) ) ;
#1071 = CARTESIAN_POINT ( 'NONE',  ( -7.461153598350400706, 8.082810923596074559, -5.345948022748190809 ) ) ;
#1072 = FACE_BOUND ( 'NONE', #54, .T. ) ;
#1073 = VERTEX_POINT ( 'NONE', #975 ) ;
#1074 = VERTEX_POINT ( 'NONE', #1047 ) ;
#1075 = CYLINDRICAL_SURFACE ( 'NONE', #745, 1.999999999999999112 ) ;
#1076 = CARTESIAN_POINT ( 'NONE',  ( 2.602085213965208275E-15, 0.000000000000000000, -2.000000000000004885 ) ) ;
#1077 = ADVANCED_FACE ( 'NONE', ( #473 ), #374, .T. ) ;
#1078 = ORIENTED_EDGE ( 'NONE', *, *, #493, .T. ) ;
#1079 = DIRECTION ( 'NONE',  ( -5.421010862427522170E-17, -1.000000000000000000, -0.000000000000000000 ) ) ;
#1080 = VECTOR ( 'NONE', #66, 1000.000000000000000 ) ;
#1081 = CIRCLE ( 'NONE', #278, 11.00000000000000178 ) ;
#1082 = AXIS2_PLACEMENT_3D ( 'NONE', #388, #981, #126 ) ;
#1083 = CARTESIAN_POINT ( 'NONE',  ( 0.000000000000000000, 0.000000000000000000, -8.000000000000000000 ) ) ;
#1084 = ORIENTED_EDGE ( 'NONE', *, *, #131, .F. ) ;
#1085 = EDGE_CURVE ( 'NONE', #339, #12, #580, .T. ) ;
#1086 = CARTESIAN_POINT ( 'NONE',  ( -7.442445834535969418, 8.099999999999893063, -5.411521584403864438 ) ) ;
#1087 = CARTESIAN_POINT ( 'NONE',  ( -9.024579170815231421, -6.600000000000000533, -1.308779250198337296 ) ) ;
#1088 = DIRECTION ( 'NONE',  ( 5.421010862427522170E-17, 1.000000000000000000, -0.000000000000000000 ) ) ;
#1089 = LINE ( 'NONE', #330, #155 ) ;
#1090 = SURFACE_STYLE_FILL_AREA ( #995 ) ;
#1091 = ADVANCED_FACE ( 'NONE', ( #398 ), #732, .T. ) ;
#1092 = DIRECTION ( 'NONE',  ( -1.000000000000000000, 1.314184451497581259E-16, 0.000000000000000000 ) ) ;
#1093 = AXIS2_PLACEMENT_3D ( 'NONE', #450, #852, #620 ) ;
#1094 = DIRECTION ( 'NONE',  ( 0.000000000000000000, 0.000000000000000000, -1.000000000000000000 ) ) ;
#1095 = AXIS2_PLACEMENT_3D ( 'NONE', #214, #639, #64 ) ;
#1096 = CIRCLE ( 'NONE', #280, 0.7249999999999982014 ) ;
#1097 = FILL_AREA_STYLE_COLOUR ( '', #577 ) ;
#1098 = CARTESIAN_POINT ( 'NONE',  ( -8.874182189254062436, -6.599999999999999645, -1.062313038973410118 ) ) ;
#1099 = EDGE_CURVE ( 'NONE', #773, #177, #1096, .T. ) ;
ENDSEC;
END-ISO-10303-21;
