ISO-10303-21;
HEADER;
FILE_DESCRIPTION (( 'STEP AP214' ),
    '1' );
FILE_NAME ('spacer.STEP',
    '2026-04-18T08:54:48',
    ( '' ),
    ( '' ),
    'SwSTEP 2.0',
    'SolidWorks 2021',
    '' );
FILE_SCHEMA (( 'AUTOMOTIVE_DESIGN' ));
ENDSEC;

DATA;
#1 = PRODUCT_CONTEXT ( 'NONE', #97, 'mechanical' ) ;
#2 = SHAPE_DEFINITION_REPRESENTATION ( #68, #146 ) ;
#3 = ORIENTED_EDGE ( 'NONE', *, *, #44, .F. ) ;
#4 = AXIS2_PLACEMENT_3D ( 'NONE', #145, #147, #166 ) ;
#5 = ORIENTED_EDGE ( 'NONE', *, *, #189, .T. ) ;
#6 = MECHANICAL_DESIGN_GEOMETRIC_PRESENTATION_REPRESENTATION (  '', ( #204 ), #17 ) ;
#7 = EDGE_LOOP ( 'NONE', ( #168, #93, #42, #91 ) ) ;
#8 = CARTESIAN_POINT ( 'NONE',  ( 6.000000000000000888, 7.347880794884119736E-16, 0.000000000000000000 ) ) ;
#9 = FILL_AREA_STYLE_COLOUR ( '', #55 ) ;
#10 = DIRECTION ( 'NONE',  ( 0.000000000000000000, 0.000000000000000000, 1.000000000000000000 ) ) ;
#11 = DIRECTION ( 'NONE',  ( 1.000000000000000000, 0.000000000000000000, 0.000000000000000000 ) ) ;
#12 = LINE ( 'NONE', #83, #170 ) ;
#13 = DIRECTION ( 'NONE',  ( 0.000000000000000000, 0.000000000000000000, 1.000000000000000000 ) ) ;
#14 = UNCERTAINTY_MEASURE_WITH_UNIT (LENGTH_MEASURE( 1.000000000000000082E-05 ), #193, 'distance_accuracy_value', 'NONE');
#15 = STYLED_ITEM ( 'NONE', ( #73 ), #146 ) ;
#16 = LINE ( 'NONE', #174, #122 ) ;
#17 =( GEOMETRIC_REPRESENTATION_CONTEXT ( 3 ) GLOBAL_UNCERTAINTY_ASSIGNED_CONTEXT ( ( #14 ) ) GLOBAL_UNIT_ASSIGNED_CONTEXT ( ( #193, #180, #23 ) ) REPRESENTATION_CONTEXT ( 'NONE', 'WORKASPACE' ) );
#18 = FILL_AREA_STYLE_COLOUR ( '', #101 ) ;
#19 = EDGE_CURVE ( 'NONE', #209, #196, #137, .T. ) ;
#20 =( NAMED_UNIT ( * ) PLANE_ANGLE_UNIT ( ) SI_UNIT ( $, .RADIAN. ) );
#21 = ORIENTED_EDGE ( 'NONE', *, *, #107, .T. ) ;
#22 = EDGE_CURVE ( 'NONE', #129, #205, #64, .T. ) ;
#23 =( NAMED_UNIT ( * ) SI_UNIT ( $, .STERADIAN. ) SOLID_ANGLE_UNIT ( ) );
#24 = EDGE_LOOP ( 'NONE', ( #111, #206 ) ) ;
#25 = CYLINDRICAL_SURFACE ( 'NONE', #4, 6.000000000000000888 ) ;
#26 = AXIS2_PLACEMENT_3D ( 'NONE', #29, #186, #210 ) ;
#27 = EDGE_CURVE ( 'NONE', #196, #209, #211, .T. ) ;
#28 = SURFACE_SIDE_STYLE ('',( #81 ) ) ;
#29 = CARTESIAN_POINT ( 'NONE',  ( 0.000000000000000000, 0.000000000000000000, 13.00000000000000000 ) ) ;
#30 = CARTESIAN_POINT ( 'NONE',  ( 0.000000000000000000, 0.000000000000000000, 0.000000000000000000 ) ) ;
#31 = CARTESIAN_POINT ( 'NONE',  ( -4.250000000000000000, 0.000000000000000000, 13.00000000000000000 ) ) ;
#32 = DIRECTION ( 'NONE',  ( 1.000000000000000000, 0.000000000000000000, -0.000000000000000000 ) ) ;
#33 = MECHANICAL_DESIGN_GEOMETRIC_PRESENTATION_REPRESENTATION (  '', ( #15 ), #188 ) ;
#34 = AXIS2_PLACEMENT_3D ( 'NONE', #212, #200, #11 ) ;
#35 = AXIS2_PLACEMENT_3D ( 'NONE', #49, #13, #100 ) ;
#36 = CARTESIAN_POINT ( 'NONE',  ( 0.000000000000000000, 0.000000000000000000, 0.000000000000000000 ) ) ;
#37 = EDGE_CURVE ( 'NONE', #192, #79, #121, .T. ) ;
#38 = APPLICATION_PROTOCOL_DEFINITION ( 'draft international standard', 'automotive_design', 1998, #89 ) ;
#39 =( NAMED_UNIT ( * ) SI_UNIT ( $, .STERADIAN. ) SOLID_ANGLE_UNIT ( ) );
#40 = CARTESIAN_POINT ( 'NONE',  ( 0.000000000000000000, 0.000000000000000000, 13.00000000000000000 ) ) ;
#41 = ORIENTED_EDGE ( 'NONE', *, *, #22, .T. ) ;
#42 = ORIENTED_EDGE ( 'NONE', *, *, #141, .T. ) ;
#43 = CARTESIAN_POINT ( 'NONE',  ( 0.000000000000000000, 0.000000000000000000, 13.00000000000000000 ) ) ;
#44 = EDGE_CURVE ( 'NONE', #79, #192, #116, .T. ) ;
#45 = DIRECTION ( 'NONE',  ( 1.000000000000000000, 0.000000000000000000, 0.000000000000000000 ) ) ;
#46 = CARTESIAN_POINT ( 'NONE',  ( 0.000000000000000000, 0.000000000000000000, 13.00000000000000000 ) ) ;
#47 = CARTESIAN_POINT ( 'NONE',  ( 6.000000000000000888, 7.347880794884119736E-16, 13.00000000000000000 ) ) ;
#48 = EDGE_CURVE ( 'NONE', #205, #129, #87, .T. ) ;
#49 = CARTESIAN_POINT ( 'NONE',  ( 0.000000000000000000, 0.000000000000000000, 0.000000000000000000 ) ) ;
#50 = EDGE_LOOP ( 'NONE', ( #41, #130 ) ) ;
#51 = DIRECTION ( 'NONE',  ( -1.000000000000000000, 0.000000000000000000, 0.000000000000000000 ) ) ;
#52 = FACE_BOUND ( 'NONE', #171, .T. ) ;
#53 = DIRECTION ( 'NONE',  ( 1.000000000000000000, 0.000000000000000000, 0.000000000000000000 ) ) ;
#54 = PRODUCT_DEFINITION ( 'UNKNOWN', '', #132, #183 ) ;
#55 = COLOUR_RGB ( '',0.7921568627450980005, 0.8196078431372548767, 0.9333333333333333481 ) ;
#56 = CIRCLE ( 'NONE', #35, 6.000000000000000888 ) ;
#57 = AXIS2_PLACEMENT_3D ( 'NONE', #148, #194, #208 ) ;
#58 = PRESENTATION_STYLE_ASSIGNMENT (( #181 ) ) ;
#59 = ORIENTED_EDGE ( 'NONE', *, *, #27, .F. ) ;
#60 = CYLINDRICAL_SURFACE ( 'NONE', #126, 4.250000000000000000 ) ;
#61 = EDGE_LOOP ( 'NONE', ( #84, #133, #131, #59 ) ) ;
#62 = PLANE ( 'NONE',  #154 ) ;
#63 = DIRECTION ( 'NONE',  ( -0.000000000000000000, -0.000000000000000000, -1.000000000000000000 ) ) ;
#64 = CIRCLE ( 'NONE', #162, 6.000000000000000888 ) ;
#65 = CARTESIAN_POINT ( 'NONE',  ( -6.000000000000000888, 0.000000000000000000, 0.000000000000000000 ) ) ;
#66 = ORIENTED_EDGE ( 'NONE', *, *, #37, .F. ) ;
#67 = PLANE ( 'NONE',  #95 ) ;
#68 = PRODUCT_DEFINITION_SHAPE ( 'NONE', 'NONE',  #54 ) ;
#69 = UNCERTAINTY_MEASURE_WITH_UNIT (LENGTH_MEASURE( 1.000000000000000082E-05 ), #177, 'distance_accuracy_value', 'NONE');
#70 = PRODUCT_RELATED_PRODUCT_CATEGORY ( 'part', '', ( #140 ) ) ;
#71 = VECTOR ( 'NONE', #63, 1000.000000000000000 ) ;
#72 = MANIFOLD_SOLID_BREP ( 'Boss-Extrude1', #175 ) ;
#73 = PRESENTATION_STYLE_ASSIGNMENT (( #123 ) ) ;
#74 = ORIENTED_EDGE ( 'NONE', *, *, #19, .F. ) ;
#75 = AXIS2_PLACEMENT_3D ( 'NONE', #197, #149, #45 ) ;
#76 = CARTESIAN_POINT ( 'NONE',  ( 4.250000000000000000, 5.204748896376249713E-16, 13.00000000000000000 ) ) ;
#77 = FACE_OUTER_BOUND ( 'NONE', #118, .T. ) ;
#78 = VERTEX_POINT ( 'NONE', #8 ) ;
#79 = VERTEX_POINT ( 'NONE', #76 ) ;
#80 = FILL_AREA_STYLE ('',( #9 ) ) ;
#81 = SURFACE_STYLE_FILL_AREA ( #80 ) ;
#82 = FACE_OUTER_BOUND ( 'NONE', #7, .T. ) ;
#83 = CARTESIAN_POINT ( 'NONE',  ( 6.000000000000000888, 7.347880794884119736E-16, 13.00000000000000000 ) ) ;
#84 = ORIENTED_EDGE ( 'NONE', *, *, #151, .F. ) ;
#85 = FACE_OUTER_BOUND ( 'NONE', #50, .T. ) ;
#86 = ADVANCED_FACE ( 'NONE', ( #77 ), #25, .T. ) ;
#87 = CIRCLE ( 'NONE', #199, 6.000000000000000888 ) ;
#88 = ADVANCED_FACE ( 'NONE', ( #207 ), #60, .F. ) ;
#89 = APPLICATION_CONTEXT ( 'automotive_design' ) ;
#90 = FILL_AREA_STYLE ('',( #18 ) ) ;
#91 = ORIENTED_EDGE ( 'NONE', *, *, #189, .F. ) ;
#92 = AXIS2_PLACEMENT_3D ( 'NONE', #46, #113, #128 ) ;
#93 = ORIENTED_EDGE ( 'NONE', *, *, #103, .T. ) ;
#94 = ORIENTED_EDGE ( 'NONE', *, *, #37, .T. ) ;
#95 = AXIS2_PLACEMENT_3D ( 'NONE', #187, #138, #139 ) ;
#96 = ORIENTED_EDGE ( 'NONE', *, *, #22, .F. ) ;
#97 = APPLICATION_CONTEXT ( 'automotive_design' ) ;
#98 = DIRECTION ( 'NONE',  ( -0.000000000000000000, -0.000000000000000000, -1.000000000000000000 ) ) ;
#99 = CARTESIAN_POINT ( 'NONE',  ( -4.250000000000000000, 0.000000000000000000, 0.000000000000000000 ) ) ;
#100 = DIRECTION ( 'NONE',  ( 1.000000000000000000, 0.000000000000000000, 0.000000000000000000 ) ) ;
#101 = COLOUR_RGB ( '',0.7921568627450980005, 0.8196078431372548767, 0.9333333333333333481 ) ;
#102 = LINE ( 'NONE', #134, #71 ) ;
#103 = EDGE_CURVE ( 'NONE', #205, #78, #12, .T. ) ;
#104 = SURFACE_SIDE_STYLE ('',( #143 ) ) ;
#105 = ADVANCED_FACE ( 'NONE', ( #82 ), #172, .T. ) ;
#106 = DIRECTION ( 'NONE',  ( 0.000000000000000000, 0.000000000000000000, 1.000000000000000000 ) ) ;
#107 = EDGE_CURVE ( 'NONE', #165, #78, #135, .T. ) ;
#108 = ORIENTED_EDGE ( 'NONE', *, *, #127, .F. ) ;
#109 = EDGE_LOOP ( 'NONE', ( #94, #163, #74, #108 ) ) ;
#110 = CARTESIAN_POINT ( 'NONE',  ( 0.000000000000000000, 0.000000000000000000, 13.00000000000000000 ) ) ;
#111 = ORIENTED_EDGE ( 'NONE', *, *, #107, .F. ) ;
#112 = DIRECTION ( 'NONE',  ( 0.000000000000000000, 0.000000000000000000, 1.000000000000000000 ) ) ;
#113 = DIRECTION ( 'NONE',  ( 0.000000000000000000, 0.000000000000000000, 1.000000000000000000 ) ) ;
#114 = UNCERTAINTY_MEASURE_WITH_UNIT (LENGTH_MEASURE( 1.000000000000000082E-05 ), #176, 'distance_accuracy_value', 'NONE');
#115 = CARTESIAN_POINT ( 'NONE',  ( 0.000000000000000000, 0.000000000000000000, 13.00000000000000000 ) ) ;
#116 = CIRCLE ( 'NONE', #92, 4.250000000000000000 ) ;
#117 = FACE_BOUND ( 'NONE', #213, .T. ) ;
#118 = EDGE_LOOP ( 'NONE', ( #160, #96, #5, #21 ) ) ;
#119 = FACE_OUTER_BOUND ( 'NONE', #109, .T. ) ;
#120 = DIRECTION ( 'NONE',  ( 0.000000000000000000, 0.000000000000000000, 1.000000000000000000 ) ) ;
#121 = CIRCLE ( 'NONE', #153, 4.250000000000000000 ) ;
#122 = VECTOR ( 'NONE', #98, 1000.000000000000000 ) ;
#123 = SURFACE_STYLE_USAGE ( .BOTH. , #104 ) ;
#124 = ADVANCED_FACE ( 'NONE', ( #119 ), #150, .F. ) ;
#125 = VECTOR ( 'NONE', #198, 1000.000000000000000 ) ;
#126 = AXIS2_PLACEMENT_3D ( 'NONE', #169, #136, #51 ) ;
#127 = EDGE_CURVE ( 'NONE', #192, #209, #201, .T. ) ;
#128 = DIRECTION ( 'NONE',  ( 1.000000000000000000, 0.000000000000000000, 0.000000000000000000 ) ) ;
#129 = VERTEX_POINT ( 'NONE', #214 ) ;
#130 = ORIENTED_EDGE ( 'NONE', *, *, #48, .T. ) ;
#131 = ORIENTED_EDGE ( 'NONE', *, *, #127, .T. ) ;
#132 = PRODUCT_DEFINITION_FORMATION_WITH_SPECIFIED_SOURCE ( 'ANY', '', #140, .NOT_KNOWN. ) ;
#133 = ORIENTED_EDGE ( 'NONE', *, *, #44, .T. ) ;
#134 = CARTESIAN_POINT ( 'NONE',  ( -6.000000000000000888, 0.000000000000000000, 13.00000000000000000 ) ) ;
#135 = CIRCLE ( 'NONE', #34, 6.000000000000000888 ) ;
#136 = DIRECTION ( 'NONE',  ( -0.000000000000000000, -0.000000000000000000, -1.000000000000000000 ) ) ;
#137 = CIRCLE ( 'NONE', #75, 4.250000000000000000 ) ;
#138 = DIRECTION ( 'NONE',  ( 0.000000000000000000, 0.000000000000000000, 1.000000000000000000 ) ) ;
#139 = DIRECTION ( 'NONE',  ( 1.000000000000000000, 0.000000000000000000, -0.000000000000000000 ) ) ;
#140 = PRODUCT ( 'spacer', 'spacer', '', ( #1 ) ) ;
#141 = EDGE_CURVE ( 'NONE', #78, #165, #56, .T. ) ;
#142 =( GEOMETRIC_REPRESENTATION_CONTEXT ( 3 ) GLOBAL_UNCERTAINTY_ASSIGNED_CONTEXT ( ( #69 ) ) GLOBAL_UNIT_ASSIGNED_CONTEXT ( ( #177, #20, #39 ) ) REPRESENTATION_CONTEXT ( 'NONE', 'WORKASPACE' ) );
#143 = SURFACE_STYLE_FILL_AREA ( #90 ) ;
#144 = AXIS2_PLACEMENT_3D ( 'NONE', #115, #184, #152 ) ;
#145 = CARTESIAN_POINT ( 'NONE',  ( 0.000000000000000000, 0.000000000000000000, 13.00000000000000000 ) ) ;
#146 = ADVANCED_BREP_SHAPE_REPRESENTATION ( 'spacer', ( #72, #157 ), #142 ) ;
#147 = DIRECTION ( 'NONE',  ( -0.000000000000000000, -0.000000000000000000, -1.000000000000000000 ) ) ;
#148 = CARTESIAN_POINT ( 'NONE',  ( 0.000000000000000000, 0.000000000000000000, 0.000000000000000000 ) ) ;
#149 = DIRECTION ( 'NONE',  ( 0.000000000000000000, 0.000000000000000000, 1.000000000000000000 ) ) ;
#150 = CYLINDRICAL_SURFACE ( 'NONE', #26, 4.250000000000000000 ) ;
#151 = EDGE_CURVE ( 'NONE', #79, #196, #16, .T. ) ;
#152 = DIRECTION ( 'NONE',  ( -1.000000000000000000, 0.000000000000000000, 0.000000000000000000 ) ) ;
#153 = AXIS2_PLACEMENT_3D ( 'NONE', #40, #112, #182 ) ;
#154 = AXIS2_PLACEMENT_3D ( 'NONE', #30, #120, #32 ) ;
#155 = ORIENTED_EDGE ( 'NONE', *, *, #27, .T. ) ;
#156 = CARTESIAN_POINT ( 'NONE',  ( 4.250000000000000000, 5.204748896376249713E-16, 0.000000000000000000 ) ) ;
#157 = AXIS2_PLACEMENT_3D ( 'NONE', #36, #159, #53 ) ;
#158 = APPLICATION_PROTOCOL_DEFINITION ( 'draft international standard', 'automotive_design', 1998, #97 ) ;
#159 = DIRECTION ( 'NONE',  ( 0.000000000000000000, 0.000000000000000000, 1.000000000000000000 ) ) ;
#160 = ORIENTED_EDGE ( 'NONE', *, *, #103, .F. ) ;
#161 = DIRECTION ( 'NONE',  ( 1.000000000000000000, 0.000000000000000000, 0.000000000000000000 ) ) ;
#162 = AXIS2_PLACEMENT_3D ( 'NONE', #43, #10, #161 ) ;
#163 = ORIENTED_EDGE ( 'NONE', *, *, #151, .T. ) ;
#164 = ORIENTED_EDGE ( 'NONE', *, *, #19, .T. ) ;
#165 = VERTEX_POINT ( 'NONE', #65 ) ;
#166 = DIRECTION ( 'NONE',  ( -1.000000000000000000, 0.000000000000000000, 0.000000000000000000 ) ) ;
#167 = ADVANCED_FACE ( 'NONE', ( #85, #117 ), #67, .T. ) ;
#168 = ORIENTED_EDGE ( 'NONE', *, *, #48, .F. ) ;
#169 = CARTESIAN_POINT ( 'NONE',  ( 0.000000000000000000, 0.000000000000000000, 13.00000000000000000 ) ) ;
#170 = VECTOR ( 'NONE', #173, 1000.000000000000000 ) ;
#171 = EDGE_LOOP ( 'NONE', ( #164, #155 ) ) ;
#172 = CYLINDRICAL_SURFACE ( 'NONE', #144, 6.000000000000000888 ) ;
#173 = DIRECTION ( 'NONE',  ( -0.000000000000000000, -0.000000000000000000, -1.000000000000000000 ) ) ;
#174 = CARTESIAN_POINT ( 'NONE',  ( 4.250000000000000000, 5.204748896376249713E-16, 13.00000000000000000 ) ) ;
#175 = CLOSED_SHELL ( 'NONE', ( #124, #105, #167, #203, #86, #88 ) ) ;
#176 =( LENGTH_UNIT ( ) NAMED_UNIT ( * ) SI_UNIT ( .MILLI., .METRE. ) );
#177 =( LENGTH_UNIT ( ) NAMED_UNIT ( * ) SI_UNIT ( .MILLI., .METRE. ) );
#178 =( NAMED_UNIT ( * ) SI_UNIT ( $, .STERADIAN. ) SOLID_ANGLE_UNIT ( ) );
#179 = DIRECTION ( 'NONE',  ( 1.000000000000000000, 0.000000000000000000, 0.000000000000000000 ) ) ;
#180 =( NAMED_UNIT ( * ) PLANE_ANGLE_UNIT ( ) SI_UNIT ( $, .RADIAN. ) );
#181 = SURFACE_STYLE_USAGE ( .BOTH. , #28 ) ;
#182 = DIRECTION ( 'NONE',  ( 1.000000000000000000, 0.000000000000000000, 0.000000000000000000 ) ) ;
#183 = PRODUCT_DEFINITION_CONTEXT ( 'detailed design', #89, 'design' ) ;
#184 = DIRECTION ( 'NONE',  ( -0.000000000000000000, -0.000000000000000000, -1.000000000000000000 ) ) ;
#185 = CARTESIAN_POINT ( 'NONE',  ( -4.250000000000000000, 0.000000000000000000, 13.00000000000000000 ) ) ;
#186 = DIRECTION ( 'NONE',  ( -0.000000000000000000, -0.000000000000000000, -1.000000000000000000 ) ) ;
#187 = CARTESIAN_POINT ( 'NONE',  ( 0.000000000000000000, 0.000000000000000000, 13.00000000000000000 ) ) ;
#188 =( GEOMETRIC_REPRESENTATION_CONTEXT ( 3 ) GLOBAL_UNCERTAINTY_ASSIGNED_CONTEXT ( ( #114 ) ) GLOBAL_UNIT_ASSIGNED_CONTEXT ( ( #176, #191, #178 ) ) REPRESENTATION_CONTEXT ( 'NONE', 'WORKASPACE' ) );
#189 = EDGE_CURVE ( 'NONE', #129, #165, #102, .T. ) ;
#190 = PRESENTATION_LAYER_ASSIGNMENT (  '', '', ( #204 ) ) ;
#191 =( NAMED_UNIT ( * ) PLANE_ANGLE_UNIT ( ) SI_UNIT ( $, .RADIAN. ) );
#192 = VERTEX_POINT ( 'NONE', #185 ) ;
#193 =( LENGTH_UNIT ( ) NAMED_UNIT ( * ) SI_UNIT ( .MILLI., .METRE. ) );
#194 = DIRECTION ( 'NONE',  ( 0.000000000000000000, 0.000000000000000000, 1.000000000000000000 ) ) ;
#195 = PRESENTATION_LAYER_ASSIGNMENT (  '', '', ( #15 ) ) ;
#196 = VERTEX_POINT ( 'NONE', #156 ) ;
#197 = CARTESIAN_POINT ( 'NONE',  ( 0.000000000000000000, 0.000000000000000000, 0.000000000000000000 ) ) ;
#198 = DIRECTION ( 'NONE',  ( -0.000000000000000000, -0.000000000000000000, -1.000000000000000000 ) ) ;
#199 = AXIS2_PLACEMENT_3D ( 'NONE', #110, #106, #179 ) ;
#200 = DIRECTION ( 'NONE',  ( 0.000000000000000000, 0.000000000000000000, 1.000000000000000000 ) ) ;
#201 = LINE ( 'NONE', #31, #125 ) ;
#202 = FACE_OUTER_BOUND ( 'NONE', #24, .T. ) ;
#203 = ADVANCED_FACE ( 'NONE', ( #202, #52 ), #62, .F. ) ;
#204 = STYLED_ITEM ( 'NONE', ( #58 ), #72 ) ;
#205 = VERTEX_POINT ( 'NONE', #47 ) ;
#206 = ORIENTED_EDGE ( 'NONE', *, *, #141, .F. ) ;
#207 = FACE_OUTER_BOUND ( 'NONE', #61, .T. ) ;
#208 = DIRECTION ( 'NONE',  ( 1.000000000000000000, 0.000000000000000000, 0.000000000000000000 ) ) ;
#209 = VERTEX_POINT ( 'NONE', #99 ) ;
#210 = DIRECTION ( 'NONE',  ( -1.000000000000000000, 0.000000000000000000, 0.000000000000000000 ) ) ;
#211 = CIRCLE ( 'NONE', #57, 4.250000000000000000 ) ;
#212 = CARTESIAN_POINT ( 'NONE',  ( 0.000000000000000000, 0.000000000000000000, 0.000000000000000000 ) ) ;
#213 = EDGE_LOOP ( 'NONE', ( #66, #3 ) ) ;
#214 = CARTESIAN_POINT ( 'NONE',  ( -6.000000000000000888, 0.000000000000000000, 13.00000000000000000 ) ) ;
ENDSEC;
END-ISO-10303-21;
