ISO-10303-21;
HEADER;
FILE_DESCRIPTION (( 'STEP AP214' ),
    '1' );
FILE_NAME ('xbearingholder right.STEP',
    '2026-04-15T16:57:47',
    ( '' ),
    ( '' ),
    'SwSTEP 2.0',
    'SolidWorks 2021',
    '' );
FILE_SCHEMA (( 'AUTOMOTIVE_DESIGN' ));
ENDSEC;

DATA;
#1 = DIRECTION ( 'NONE',  ( -0.000000000000000000, -1.000000000000000000, -0.000000000000000000 ) ) ;
#2 = CARTESIAN_POINT ( 'NONE',  ( 18.00000000000000355, 10.00000000000000355, 4.000000000000000000 ) ) ;
#3 = ORIENTED_EDGE ( 'NONE', *, *, #462, .T. ) ;
#4 = CARTESIAN_POINT ( 'NONE',  ( -1.000000000000000888, 20.00000000000000000, 5.500000000000000000 ) ) ;
#5 = EDGE_LOOP ( 'NONE', ( #10, #422, #95, #771 ) ) ;
#6 = CARTESIAN_POINT ( 'NONE',  ( 10.00000000000000178, 10.00000000000000178, 5.500000000000000000 ) ) ;
#7 = CARTESIAN_POINT ( 'NONE',  ( 10.99945462184698286, 14.13517702187223968, -3.664419466412705884 ) ) ;
#8 = DIRECTION ( 'NONE',  ( -1.000000000000000000, 0.000000000000000000, 0.000000000000000000 ) ) ;
#9 =( NAMED_UNIT ( * ) SI_UNIT ( $, .STERADIAN. ) SOLID_ANGLE_UNIT ( ) );
#10 = ORIENTED_EDGE ( 'NONE', *, *, #578, .F. ) ;
#11 = EDGE_LOOP ( 'NONE', ( #339, #470 ) ) ;
#12 = PLANE ( 'NONE',  #710 ) ;
#13 = CARTESIAN_POINT ( 'NONE',  ( 20.00000000000000000, 19.81920241085422774, -17.00000000000000000 ) ) ;
#14 = ADVANCED_FACE ( 'NONE', ( #291, #755 ), #280, .F. ) ;
#15 = EDGE_CURVE ( 'NONE', #662, #267, #421, .T. ) ;
#16 = DIRECTION ( 'NONE',  ( -0.000000000000000000, 0.000000000000000000, -1.000000000000000000 ) ) ;
#17 = SURFACE_STYLE_FILL_AREA ( #217 ) ;
#18 = DIRECTION ( 'NONE',  ( -0.000000000000000000, -0.000000000000000000, 1.000000000000000000 ) ) ;
#19 = ORIENTED_EDGE ( 'NONE', *, *, #832, .F. ) ;
#20 = DIRECTION ( 'NONE',  ( 1.000000000000000000, 0.000000000000000000, 0.000000000000000000 ) ) ;
#21 = FACE_OUTER_BOUND ( 'NONE', #625, .T. ) ;
#22 = DIRECTION ( 'NONE',  ( -0.000000000000000000, -1.000000000000000000, -0.000000000000000000 ) ) ;
#23 = DIRECTION ( 'NONE',  ( 0.000000000000000000, 0.000000000000000000, 1.000000000000000000 ) ) ;
#24 = VERTEX_POINT ( 'NONE', #354 ) ;
#25 = DIRECTION ( 'NONE',  ( 0.000000000000000000, 0.000000000000000000, 1.000000000000000000 ) ) ;
#26 = FACE_OUTER_BOUND ( 'NONE', #411, .T. ) ;
#27 = EDGE_CURVE ( 'NONE', #24, #407, #251, .T. ) ;
#28 = ORIENTED_EDGE ( 'NONE', *, *, #668, .T. ) ;
#29 = LINE ( 'NONE', #579, #79 ) ;
#30 = VECTOR ( 'NONE', #282, 1000.000000000000000 ) ;
#31 = DIRECTION ( 'NONE',  ( -1.000000000000000000, 0.000000000000000000, 0.000000000000000000 ) ) ;
#32 = ORIENTED_EDGE ( 'NONE', *, *, #284, .T. ) ;
#33 = VECTOR ( 'NONE', #18, 1000.000000000000000 ) ;
#34 = CARTESIAN_POINT ( 'NONE',  ( 7.021254238971890160, 13.03194842249276064, -6.909010948552759324 ) ) ;
#35 = VECTOR ( 'NONE', #285, 1000.000000000000000 ) ;
#36 = COLOUR_RGB ( '',0.7921568627450980005, 0.8196078431372548767, 0.9333333333333333481 ) ;
#37 = CYLINDRICAL_SURFACE ( 'NONE', #375, 4.250000000000000000 ) ;
#38 = ADVANCED_FACE ( 'NONE', ( #689 ), #296, .F. ) ;
#39 = AXIS2_PLACEMENT_3D ( 'NONE', #50, #604, #460 ) ;
#40 = CARTESIAN_POINT ( 'NONE',  ( 8.637276504489285855, 14.03003218783521255, -9.179914911833435553 ) ) ;
#41 = CARTESIAN_POINT ( 'NONE',  ( 13.36341328445248600, 12.60996850364126587, -8.924172149113314134 ) ) ;
#42 = CARTESIAN_POINT ( 'NONE',  ( 9.999999999999998224, 14.25000000000000178, -9.500000000000000000 ) ) ;
#43 = ADVANCED_FACE ( 'NONE', ( #26 ), #218, .F. ) ;
#44 = CARTESIAN_POINT ( 'NONE',  ( 10.00000000000000178, 10.00000000000000178, -1.000000000000000000 ) ) ;
#45 = EDGE_CURVE ( 'NONE', #484, #607, #94, .T. ) ;
#46 = CARTESIAN_POINT ( 'NONE',  ( 10.80370175531374599, 14.17808732189158860, -9.397372008304916591 ) ) ;
#47 = CARTESIAN_POINT ( 'NONE',  ( 0.000000000000000000, 20.00000000000000000, 4.000000000000000000 ) ) ;
#48 = CARTESIAN_POINT ( 'NONE',  ( 14.25000000000004086, 10.00000000000001954, -5.797356367836962399 ) ) ;
#49 = PRESENTATION_STYLE_ASSIGNMENT (( #107 ) ) ;
#50 = CARTESIAN_POINT ( 'NONE',  ( 10.00000000000000178, 10.00000000000000178, 4.000000000000000000 ) ) ;
#51 = CARTESIAN_POINT ( 'NONE',  ( 13.40638532738223709, 7.442752670145490690, -3.680723720817947520 ) ) ;
#52 = DIRECTION ( 'NONE',  ( 0.000000000000000000, 0.000000000000000000, -1.000000000000000000 ) ) ;
#53 = VECTOR ( 'NONE', #176, 1000.000000000000000 ) ;
#54 = ORIENTED_EDGE ( 'NONE', *, *, #702, .F. ) ;
#55 = CARTESIAN_POINT ( 'NONE',  ( 8.752766677243693394, 14.06635664505704320, -11.47748582440281417 ) ) ;
#56 = CARTESIAN_POINT ( 'NONE',  ( 0.000000000000000000, 19.81920241085422774, -21.00000000000000000 ) ) ;
#57 = DIRECTION ( 'NONE',  ( 1.000000000000000000, 0.000000000000000000, 0.000000000000000000 ) ) ;
#58 = EDGE_LOOP ( 'NONE', ( #197, #728, #695, #571 ) ) ;
#59 = CARTESIAN_POINT ( 'NONE',  ( 7.650835203774652094, 6.445903856627419160, -3.031034858858214331 ) ) ;
#60 = ORIENTED_EDGE ( 'NONE', *, *, #325, .T. ) ;
#61 = CIRCLE ( 'NONE', #633, 4.250000000000000000 ) ;
#62 = CARTESIAN_POINT ( 'NONE',  ( 10.00000000000000000, 14.25000000000000178, -3.500000000000000444 ) ) ;
#63 = CIRCLE ( 'NONE', #443, 9.000000000000001776 ) ;
#64 = DIRECTION ( 'NONE',  ( 1.000000000000000000, 0.000000000000000000, 0.000000000000000000 ) ) ;
#65 = ORIENTED_EDGE ( 'NONE', *, *, #511, .T. ) ;
#66 = CARTESIAN_POINT ( 'NONE',  ( 7.180692439935040916, 6.805993187558784463, -3.256259374061282408 ) ) ;
#67 = ORIENTED_EDGE ( 'NONE', *, *, #482, .F. ) ;
#68 = DIRECTION ( 'NONE',  ( 0.000000000000000000, -0.000000000000000000, -1.000000000000000000 ) ) ;
#69 = PLANE ( 'NONE',  #831 ) ;
#70 = DIRECTION ( 'NONE',  ( 0.000000000000000000, 0.000000000000000000, -1.000000000000000000 ) ) ;
#71 = EDGE_LOOP ( 'NONE', ( #355, #74 ) ) ;
#72 = B_SPLINE_CURVE_WITH_KNOTS ( 'NONE', 3,
 ( #311, #181, #721, #382, #314, #652, #51, #644, #595, #590, #250, #523, #186, #457, #600, #663, #735, #614, #123, #340, #477, #541, #729, #400, #393, #59, #66, #137, #742, #800, #406, #806, #195, #268, #671, #261, #677 ),
 .UNSPECIFIED., .F., .F.,
 ( 4, 2, 2, 2, 2, 2, 2, 2, 2, 1, 2, 2, 2, 2, 2, 2, 2, 2, 4 ),
 ( 2.117499858742978245E-17, 0.001883718686165344316, 0.002825578029248004656, 0.003767437372330663045, 0.004709296715413321434, 0.005180226386954649327, 0.005651156058495977220, 0.006593015401578638211, 0.007063945073119970441, 0.007534874744661302672, 0.008005804416202634902, 0.008476734087743966264, 0.009418593430826632459, 0.01036045277390929172, 0.01130231211699195097, 0.01224417146007461196, 0.01318603080315727295, 0.01412789014623993568, 0.01506974948932259493 ),
 .UNSPECIFIED. ) ;
#73 = DIRECTION ( 'NONE',  ( 0.000000000000000000, 0.000000000000000000, -1.000000000000000000 ) ) ;
#74 = ORIENTED_EDGE ( 'NONE', *, *, #27, .T. ) ;
#75 = EDGE_CURVE ( 'NONE', #319, #143, #570, .T. ) ;
#76 = DIRECTION ( 'NONE',  ( 1.000000000000000000, 0.000000000000000000, 0.000000000000000000 ) ) ;
#77 = AXIS2_PLACEMENT_3D ( 'NONE', #346, #611, #618 ) ;
#78 = CARTESIAN_POINT ( 'NONE',  ( 10.00000000000000178, 10.00000000000000178, -1.000000000000000000 ) ) ;
#79 = VECTOR ( 'NONE', #364, 1000.000000000000000 ) ;
#80 = CARTESIAN_POINT ( 'NONE',  ( 0.000000000000000000, 0.000000000000000000, -0.5000000000000017764 ) ) ;
#81 = EDGE_LOOP ( 'NONE', ( #812, #28 ) ) ;
#82 = EDGE_LOOP ( 'NONE', ( #348, #220, #788, #799 ) ) ;
#83 = FACE_OUTER_BOUND ( 'NONE', #203, .T. ) ;
#84 = CARTESIAN_POINT ( 'NONE',  ( 12.38270475932003301, 13.52166653075054725, -4.667422256241575695 ) ) ;
#85 = CARTESIAN_POINT ( 'NONE',  ( 1.000000000000002665, 10.00000000000000178, 5.500000000000000000 ) ) ;
#86 = VERTEX_POINT ( 'NONE', #830 ) ;
#87 = VERTEX_POINT ( 'NONE', #358 ) ;
#88 = CARTESIAN_POINT ( 'NONE',  ( 10.00000000000000000, 17.50000000000000000, -4.899999999999999467 ) ) ;
#89 = DIRECTION ( 'NONE',  ( -1.000000000000000000, 0.000000000000000000, 0.000000000000000000 ) ) ;
#90 = VERTEX_POINT ( 'NONE', #163 ) ;
#91 = B_SPLINE_CURVE_WITH_KNOTS ( 'NONE', 3,
 ( #427, #493, #151, #564, #423, #691, #227, #497, #157, #696, #330, #602, #867, #772, #170, #236, #368, #705, #34, #237, #704, #643, #370, #101, #303, #441, #40, #369, #167, #580, #169, #766 ),
 .UNSPECIFIED., .F., .F.,
 ( 4, 2, 2, 2, 2, 2, 2, 2, 2, 2, 2, 2, 2, 2, 2, 4 ),
 ( 0.009757895275441606092, 0.01036648620694743603, 0.01097507713845326596, 0.01158366806995909590, 0.01219225900146492583, 0.01280084993297075577, 0.01340944086447658744, 0.01401803179598241911, 0.01462662272748825078, 0.01523521365899408245, 0.01584380459049991585, 0.01706098645351158266, 0.01766957738501740913, 0.01827816831652323559, 0.01888675924802906553, 0.01949535017953489546 ),
 .UNSPECIFIED. ) ;
#92 = DIRECTION ( 'NONE',  ( -0.000000000000000000, -0.000000000000000000, 1.000000000000000000 ) ) ;
#93 = EDGE_CURVE ( 'NONE', #230, #795, #216, .T. ) ;
#94 = LINE ( 'NONE', #491, #100 ) ;
#95 = ORIENTED_EDGE ( 'NONE', *, *, #593, .T. ) ;
#96 = DIRECTION ( 'NONE',  ( 0.000000000000000000, -1.000000000000000000, 0.000000000000000000 ) ) ;
#97 = VECTOR ( 'NONE', #202, 1000.000000000000000 ) ;
#98 = ORIENTED_EDGE ( 'NONE', *, *, #75, .T. ) ;
#99 = CARTESIAN_POINT ( 'NONE',  ( 10.00000000000000000, 20.00000000000000000, -6.500000000000000000 ) ) ;
#100 = VECTOR ( 'NONE', #566, 1000.000000000000000 ) ;
#101 = CARTESIAN_POINT ( 'NONE',  ( 8.002122720255314903, 13.75426839974070070, -8.745897235431808525 ) ) ;
#102 = EDGE_CURVE ( 'NONE', #811, #756, #656, .T. ) ;
#103 = FILL_AREA_STYLE_COLOUR ( '', #36 ) ;
#104 = CARTESIAN_POINT ( 'NONE',  ( 14.14617150647816324, 11.05921194495909710, -6.894886998736265760 ) ) ;
#105 = EDGE_CURVE ( 'NONE', #405, #540, #231, .T. ) ;
#106 = CARTESIAN_POINT ( 'NONE',  ( 11.83776081262621105, 13.83479538089140526, -11.00812772579839915 ) ) ;
#107 = SURFACE_STYLE_USAGE ( .BOTH. , #112 ) ;
#108 = CYLINDRICAL_SURFACE ( 'NONE', #759, 2.999999999999998224 ) ;
#109 = B_SPLINE_CURVE_WITH_KNOTS ( 'NONE', 3,
 ( #125, #525, #645, #46, #791, #187, #459, #585, #120, #388, #660, #846, #239, #241, #321, #465, #532, #277, #409, #803, #331, #140, #272, #84, #687, #345, #622, #145, #558, #7, #337, #350, #752, #265 ),
 .UNSPECIFIED., .F., .F.,
 ( 4, 2, 2, 2, 2, 2, 2, 2, 2, 2, 2, 2, 2, 2, 2, 2, 4 ),
 ( 1.734723475976806902E-18, 0.0006098684547151020071, 0.001219736909430202279, 0.001829605364145302660, 0.002439473818860402824, 0.003049342273575502988, 0.003659210728290603586, 0.004269079183005703750, 0.004878947637720803913, 0.005488816092435904077, 0.006098684547151004241, 0.006708553001866104405, 0.007318421456581205436, 0.007928289911296305600, 0.008538158366011405764, 0.009148026820726505928, 0.009757895275441606092 ),
 .UNSPECIFIED. ) ;
#110 = AXIS2_PLACEMENT_3D ( 'NONE', #631, #301, #636 ) ;
#111 = DIRECTION ( 'NONE',  ( -0.000000000000000000, -0.000000000000000000, 1.000000000000000000 ) ) ;
#112 = SURFACE_SIDE_STYLE ('',( #781 ) ) ;
#113 = DIRECTION ( 'NONE',  ( 0.000000000000000000, -1.000000000000000000, 0.000000000000000000 ) ) ;
#114 = CARTESIAN_POINT ( 'NONE',  ( 6.640486270935380020, 12.61514545898620554, -8.931798087758066274 ) ) ;
#115 = FACE_BOUND ( 'NONE', #414, .T. ) ;
#116 = DIRECTION ( 'NONE',  ( -1.000000000000000000, -0.000000000000000000, -0.000000000000000000 ) ) ;
#117 = ORIENTED_EDGE ( 'NONE', *, *, #627, .F. ) ;
#118 = CARTESIAN_POINT ( 'NONE',  ( 16.00000000000000355, 10.00000000000000178, -1.000000000000000000 ) ) ;
#119 = EDGE_CURVE ( 'NONE', #343, #86, #387, .T. ) ;
#120 = CARTESIAN_POINT ( 'NONE',  ( 11.99735838144335709, 13.75456335658430795, -8.746405755418550143 ) ) ;
#121 = CARTESIAN_POINT ( 'NONE',  ( 20.00000000000000000, -3.979741641482624104, -20.10004225676693324 ) ) ;
#122 = VERTEX_POINT ( 'NONE', #42 ) ;
#123 = CARTESIAN_POINT ( 'NONE',  ( 10.01151542795898486, 5.741273537841536267, -2.621436580858623966 ) ) ;
#124 = ORIENTED_EDGE ( 'NONE', *, *, #287, .F. ) ;
#125 = CARTESIAN_POINT ( 'NONE',  ( 9.999999999999998224, 14.25000000000000178, -9.500000000000000000 ) ) ;
#126 = DIRECTION ( 'NONE',  ( -0.000000000000000000, -1.000000000000000000, -0.000000000000000000 ) ) ;
#127 = ORIENTED_EDGE ( 'NONE', *, *, #637, .F. ) ;
#128 = CARTESIAN_POINT ( 'NONE',  ( 10.00000000000000178, 10.00000000000000178, 0.000000000000000000 ) ) ;
#129 = VERTEX_POINT ( 'NONE', #797 ) ;
#130 = AXIS2_PLACEMENT_3D ( 'NONE', #410, #16, #8 ) ;
#131 = CARTESIAN_POINT ( 'NONE',  ( 16.00000000000000355, 10.00000000000000178, 0.000000000000000000 ) ) ;
#132 = DIRECTION ( 'NONE',  ( 1.000000000000000000, -0.000000000000000000, -0.000000000000000000 ) ) ;
#133 = DIRECTION ( 'NONE',  ( 0.000000000000000000, 0.000000000000000000, 1.000000000000000000 ) ) ;
#134 = ADVANCED_FACE ( 'NONE', ( #718 ), #849, .F. ) ;
#135 = ADVANCED_FACE ( 'NONE', ( #449, #115 ), #726, .F. ) ;
#136 = ORIENTED_EDGE ( 'NONE', *, *, #817, .T. ) ;
#137 = CARTESIAN_POINT ( 'NONE',  ( 6.967840742059212111, 7.008732372640022135, -3.387188021469920152 ) ) ;
#138 = ORIENTED_EDGE ( 'NONE', *, *, #362, .T. ) ;
#139 = CARTESIAN_POINT ( 'NONE',  ( 5.750000000000001776, 10.00000000000000178, -21.00000000000000000 ) ) ;
#140 = CARTESIAN_POINT ( 'NONE',  ( 12.68632478879315428, 13.29485702850252871, -5.150449977063501272 ) ) ;
#141 = DIRECTION ( 'NONE',  ( 0.000000000000000000, 0.000000000000000000, 1.000000000000000000 ) ) ;
#142 = ORIENTED_EDGE ( 'NONE', *, *, #438, .F. ) ;
#143 = VERTEX_POINT ( 'NONE', #713 ) ;
#144 = DIRECTION ( 'NONE',  ( 1.000000000000000000, -0.000000000000000000, -0.000000000000000000 ) ) ;
#145 = CARTESIAN_POINT ( 'NONE',  ( 11.53356434336919278, 13.96739847202861462, -3.914528408223779898 ) ) ;
#146 = CARTESIAN_POINT ( 'NONE',  ( -1.000000000000000000, 19.81920241085422774, -17.00000000000000000 ) ) ;
#147 = AXIS2_PLACEMENT_3D ( 'NONE', #555, #624, #148 ) ;
#148 = DIRECTION ( 'NONE',  ( 0.000000000000000000, 0.000000000000000000, -1.000000000000000000 ) ) ;
#149 = ORIENTED_EDGE ( 'NONE', *, *, #287, .T. ) ;
#150 = VECTOR ( 'NONE', #733, 1000.000000000000000 ) ;
#151 = CARTESIAN_POINT ( 'NONE',  ( 9.593869049158715967, 14.23536768678294528, -3.520619207713677756 ) ) ;
#152 = FACE_OUTER_BOUND ( 'NONE', #281, .T. ) ;
#153 = UNCERTAINTY_MEASURE_WITH_UNIT (LENGTH_MEASURE( 1.000000000000000082E-05 ), #816, 'distance_accuracy_value', 'NONE');
#154 = CARTESIAN_POINT ( 'NONE',  ( 10.00000000000000178, 10.00000000000000178, -1.000000000000000000 ) ) ;
#155 = ORIENTED_EDGE ( 'NONE', *, *, #415, .F. ) ;
#156 =( GEOMETRIC_REPRESENTATION_CONTEXT ( 3 ) GLOBAL_UNCERTAINTY_ASSIGNED_CONTEXT ( ( #153 ) ) GLOBAL_UNIT_ASSIGNED_CONTEXT ( ( #816, #553, #9 ) ) REPRESENTATION_CONTEXT ( 'NONE', 'WORKASPACE' ) );
#157 = CARTESIAN_POINT ( 'NONE',  ( 8.003096085457347186, 13.75482523711829508, -4.253139534142061251 ) ) ;
#158 = CARTESIAN_POINT ( 'NONE',  ( 10.00000000000000000, 17.50000000000000000, -3.500000000000000444 ) ) ;
#159 = ORIENTED_EDGE ( 'NONE', *, *, #390, .T. ) ;
#160 = DIRECTION ( 'NONE',  ( -1.000000000000000000, 0.000000000000000000, 0.000000000000000000 ) ) ;
#161 = AXIS2_PLACEMENT_3D ( 'NONE', #99, #96, #699 ) ;
#162 = MANIFOLD_SOLID_BREP ( 'Cut-Extrude5', #521 ) ;
#163 = CARTESIAN_POINT ( 'NONE',  ( 5.750000000000001776, 10.00000000000000355, -5.797356367836955293 ) ) ;
#164 = ORIENTED_EDGE ( 'NONE', *, *, #720, .F. ) ;
#165 = EDGE_CURVE ( 'NONE', #765, #750, #516, .T. ) ;
#166 = ORIENTED_EDGE ( 'NONE', *, *, #247, .F. ) ;
#167 = CARTESIAN_POINT ( 'NONE',  ( 9.194055327581420300, 14.17764428276911737, -9.396734016603181416 ) ) ;
#168 = PRESENTATION_LAYER_ASSIGNMENT (  '', '', ( #437 ) ) ;
#169 = CARTESIAN_POINT ( 'NONE',  ( 9.793815842229641078, 14.25000000000000355, -9.499999999999996447 ) ) ;
#170 = CARTESIAN_POINT ( 'NONE',  ( 7.102956684116287889, 13.11012174298986643, -5.694878198044155404 ) ) ;
#171 = EDGE_CURVE ( 'NONE', #662, #690, #598, .T. ) ;
#172 = VECTOR ( 'NONE', #758, 1000.000000000000000 ) ;
#173 = AXIS2_PLACEMENT_3D ( 'NONE', #591, #731, #853 ) ;
#174 = CARTESIAN_POINT ( 'NONE',  ( 10.93566258032872263, 14.14916391560599074, -11.65295740795214741 ) ) ;
#175 = CARTESIAN_POINT ( 'NONE',  ( -1.000000000000000000, -3.979741641482624104, -20.10004225676693324 ) ) ;
#176 = DIRECTION ( 'NONE',  ( 0.000000000000000000, 1.000000000000000000, 0.000000000000000000 ) ) ;
#177 = CARTESIAN_POINT ( 'NONE',  ( 11.26196828334841094, 14.06182984806316760, -11.46799977954735894 ) ) ;
#178 = DIRECTION ( 'NONE',  ( 1.000000000000000000, 0.000000000000000000, 0.000000000000000000 ) ) ;
#179 = DIRECTION ( 'NONE',  ( 0.000000000000000000, -0.000000000000000000, -1.000000000000000000 ) ) ;
#180 = CIRCLE ( 'NONE', #161, 1.599999999999999867 ) ;
#181 = CARTESIAN_POINT ( 'NONE',  ( 14.25000000000000178, 9.545512711281871177, -5.353131071626338056 ) ) ;
#182 = DIRECTION ( 'NONE',  ( -0.000000000000000000, -0.000000000000000000, 1.000000000000000000 ) ) ;
#183 = DIRECTION ( 'NONE',  ( -1.000000000000000000, 0.000000000000000000, 0.000000000000000000 ) ) ;
#184 = EDGE_LOOP ( 'NONE', ( #531, #262 ) ) ;
#185 = EDGE_CURVE ( 'NONE', #87, #484, #374, .T. ) ;
#186 = CARTESIAN_POINT ( 'NONE',  ( 11.96635848831028781, 6.229110238705269254, -2.901634303724330621 ) ) ;
#187 = CARTESIAN_POINT ( 'NONE',  ( 11.36072679963951337, 14.03069797216744696, -9.180912535708662503 ) ) ;
#188 = CARTESIAN_POINT ( 'NONE',  ( 1.000000000000002665, 10.00000000000000178, 4.000000000000000000 ) ) ;
#189 = ORIENTED_EDGE ( 'NONE', *, *, #379, .T. ) ;
#190 = CARTESIAN_POINT ( 'NONE',  ( 9.078353493266414276, 14.15227829544444837, -11.65966336695204042 ) ) ;
#191 = ORIENTED_EDGE ( 'NONE', *, *, #15, .T. ) ;
#192 = DIRECTION ( 'NONE',  ( -0.000000000000000000, -0.000000000000000000, -1.000000000000000000 ) ) ;
#193 = LINE ( 'NONE', #396, #219 ) ;
#194 = EDGE_LOOP ( 'NONE', ( #615, #664, #851, #499 ) ) ;
#195 = CARTESIAN_POINT ( 'NONE',  ( 5.904363908600586797, 8.837423446592202581, -4.743816340843019397 ) ) ;
#196 = ADVANCED_BREP_SHAPE_REPRESENTATION ( 'xbearingholder right', ( #162, #353 ), #612 ) ;
#197 = ORIENTED_EDGE ( 'NONE', *, *, #757, .F. ) ;
#198 = CARTESIAN_POINT ( 'NONE',  ( 10.00000000000000000, 17.50000000000000000, -9.499999999999998224 ) ) ;
#199 = LINE ( 'NONE', #472, #642 ) ;
#200 = EDGE_CURVE ( 'NONE', #690, #122, #258, .T. ) ;
#201 = EDGE_CURVE ( 'NONE', #122, #267, #109, .T. ) ;
#202 = DIRECTION ( 'NONE',  ( 0.000000000000000000, 0.000000000000000000, 1.000000000000000000 ) ) ;
#203 = EDGE_LOOP ( 'NONE', ( #189, #257 ) ) ;
#204 = CARTESIAN_POINT ( 'NONE',  ( 10.00000000000000000, 17.50000000000000000, -3.500000000000000444 ) ) ;
#205 = ORIENTED_EDGE ( 'NONE', *, *, #702, .T. ) ;
#206 = CIRCLE ( 'NONE', #567, 4.250000000000000000 ) ;
#207 = CARTESIAN_POINT ( 'NONE',  ( 0.000000000000000000, 0.000000000000000000, 4.000000000000000000 ) ) ;
#208 = FACE_OUTER_BOUND ( 'NONE', #503, .T. ) ;
#209 = LINE ( 'NONE', #481, #35 ) ;
#210 = PRESENTATION_STYLE_ASSIGNMENT (( #490 ) ) ;
#211 = ORIENTED_EDGE ( 'NONE', *, *, #371, .F. ) ;
#212 = ORIENTED_EDGE ( 'NONE', *, *, #856, .F. ) ;
#213 = PLANE ( 'NONE',  #512 ) ;
#214 = DIRECTION ( 'NONE',  ( -0.000000000000000000, -1.000000000000000000, -0.000000000000000000 ) ) ;
#215 = DIRECTION ( 'NONE',  ( -0.000000000000000000, -0.000000000000000000, -1.000000000000000000 ) ) ;
#216 = CIRCLE ( 'NONE', #315, 6.000000000000000888 ) ;
#217 = FILL_AREA_STYLE ('',( #103 ) ) ;
#218 = CYLINDRICAL_SURFACE ( 'NONE', #286, 9.000000000000000000 ) ;
#219 = VECTOR ( 'NONE', #64, 1000.000000000000000 ) ;
#220 = ORIENTED_EDGE ( 'NONE', *, *, #312, .T. ) ;
#221 = DIRECTION ( 'NONE',  ( 0.000000000000000000, -0.000000000000000000, 1.000000000000000000 ) ) ;
#222 = CYLINDRICAL_SURFACE ( 'NONE', #778, 6.000000000000001776 ) ;
#223 = CARTESIAN_POINT ( 'NONE',  ( 20.00000000000000000, 20.00000000000000000, 5.500000000000000000 ) ) ;
#224 = DIRECTION ( 'NONE',  ( -0.000000000000000000, -1.000000000000000000, -0.000000000000000000 ) ) ;
#225 = VERTEX_POINT ( 'NONE', #680 ) ;
#226 = ADVANCED_FACE ( 'NONE', ( #665, #418 ), #69, .F. ) ;
#227 = CARTESIAN_POINT ( 'NONE',  ( 8.467493700225306341, 13.96784577395183646, -3.913828837874754107 ) ) ;
#228 = VECTOR ( 'NONE', #192, 1000.000000000000000 ) ;
#229 = DIRECTION ( 'NONE',  ( -1.000000000000000000, 0.000000000000000000, 0.000000000000000000 ) ) ;
#230 = VERTEX_POINT ( 'NONE', #544 ) ;
#231 = LINE ( 'NONE', #769, #820 ) ;
#232 = EDGE_LOOP ( 'NONE', ( #127, #456 ) ) ;
#233 = CYLINDRICAL_SURFACE ( 'NONE', #110, 8.000000000000001776 ) ;
#234 = EDGE_CURVE ( 'NONE', #407, #24, #63, .T. ) ;
#235 = DIRECTION ( 'NONE',  ( 1.000000000000000000, 0.000000000000000000, 0.000000000000000000 ) ) ;
#236 = CARTESIAN_POINT ( 'NONE',  ( 7.020987741179527397, 13.03169971997923682, -6.091873730460216407 ) ) ;
#237 = CARTESIAN_POINT ( 'NONE',  ( 7.102195469343577372, 13.10939969248187253, -7.301838616547045469 ) ) ;
#238 = CARTESIAN_POINT ( 'NONE',  ( 12.21882848630257357, 13.63612181029384018, -10.62566040419983437 ) ) ;
#239 = CARTESIAN_POINT ( 'NONE',  ( 12.68622971813243616, 13.29493202354148096, -7.849708420480076221 ) ) ;
#240 = CARTESIAN_POINT ( 'NONE',  ( 5.874825028147292016, 11.05547025511218706, -6.905795956711105354 ) ) ;
#241 = CARTESIAN_POINT ( 'NONE',  ( 12.83753398675683677, 13.16556598609741080, -7.492947024212538665 ) ) ;
#242 = DIRECTION ( 'NONE',  ( 0.000000000000000000, 8.673617379884037444E-16, -1.000000000000000000 ) ) ;
#243 = CARTESIAN_POINT ( 'NONE',  ( 12.85411703642113679, 13.15982809174713530, -9.787901331183158860 ) ) ;
#244 = AXIS2_PLACEMENT_3D ( 'NONE', #841, #182, #178 ) ;
#245 =( LENGTH_UNIT ( ) NAMED_UNIT ( * ) SI_UNIT ( .MILLI., .METRE. ) );
#246 = CARTESIAN_POINT ( 'NONE',  ( 10.00000000000000000, 17.50000000000000000, -6.500000000000000000 ) ) ;
#247 = EDGE_CURVE ( 'NONE', #765, #670, #674, .T. ) ;
#248 = ADVANCED_FACE ( 'NONE', ( #21 ), #222, .F. ) ;
#249 = EDGE_LOOP ( 'NONE', ( #399, #619 ) ) ;
#250 = CARTESIAN_POINT ( 'NONE',  ( 12.35830754838649526, 6.461137090684442974, -3.041420328872012302 ) ) ;
#251 = CIRCLE ( 'NONE', #854, 9.000000000000001776 ) ;
#252 = CARTESIAN_POINT ( 'NONE',  ( 10.00000000000000000, 17.50000000000000000, -9.499999999999998224 ) ) ;
#253 = DIRECTION ( 'NONE',  ( 0.000000000000000000, 0.000000000000000000, 1.000000000000000000 ) ) ;
#254 = AXIS2_PLACEMENT_3D ( 'NONE', #13, #132, #814 ) ;
#255 = ORIENTED_EDGE ( 'NONE', *, *, #447, .T. ) ;
#256 = CARTESIAN_POINT ( 'NONE',  ( 6.492650521203073843, 12.41293696083714693, -8.636628031001578165 ) ) ;
#257 = ORIENTED_EDGE ( 'NONE', *, *, #171, .T. ) ;
#258 = LINE ( 'NONE', #252, #328 ) ;
#259 = FACE_OUTER_BOUND ( 'NONE', #836, .T. ) ;
#260 = ORIENTED_EDGE ( 'NONE', *, *, #201, .T. ) ;
#261 = CARTESIAN_POINT ( 'NONE',  ( 5.750000000000001776, 9.775163490890852458, -5.577596503617919588 ) ) ;
#262 = ORIENTED_EDGE ( 'NONE', *, *, #325, .F. ) ;
#263 = ADVANCED_FACE ( 'NONE', ( #208 ), #480, .F. ) ;
#264 = FACE_BOUND ( 'NONE', #730, .T. ) ;
#265 = CARTESIAN_POINT ( 'NONE',  ( 10.00000000000000000, 14.25000000000000178, -3.500000000000000444 ) ) ;
#266 = DIRECTION ( 'NONE',  ( -0.000000000000000000, -0.000000000000000000, -1.000000000000000000 ) ) ;
#267 = VERTEX_POINT ( 'NONE', #62 ) ;
#268 = CARTESIAN_POINT ( 'NONE',  ( 5.844514754155943237, 9.077681088487699057, -4.947426048055467263 ) ) ;
#269 = VECTOR ( 'NONE', #297, 1000.000000000000000 ) ;
#270 = ORIENTED_EDGE ( 'NONE', *, *, #45, .F. ) ;
#271 = FACE_OUTER_BOUND ( 'NONE', #71, .T. ) ;
#272 = CARTESIAN_POINT ( 'NONE',  ( 12.59359626461872317, 13.36937316723017588, -4.980499564606559737 ) ) ;
#273 = LINE ( 'NONE', #623, #294 ) ;
#274 = ORIENTED_EDGE ( 'NONE', *, *, #171, .F. ) ;
#275 = ORIENTED_EDGE ( 'NONE', *, *, #669, .F. ) ;
#276 = FACE_OUTER_BOUND ( 'NONE', #536, .T. ) ;
#277 = CARTESIAN_POINT ( 'NONE',  ( 12.99988245829531053, 13.01051578034699752, -6.294179662389518093 ) ) ;
#278 = DIRECTION ( 'NONE',  ( 1.000000000000000000, 0.000000000000000000, 0.000000000000000000 ) ) ;
#279 = SURFACE_SIDE_STYLE ('',( #17 ) ) ;
#280 = CYLINDRICAL_SURFACE ( 'NONE', #147, 19.99999999999999645 ) ;
#281 = EDGE_LOOP ( 'NONE', ( #166, #805, #32, #548 ) ) ;
#282 = DIRECTION ( 'NONE',  ( -0.000000000000000000, -0.000000000000000000, -1.000000000000000000 ) ) ;
#283 = DIRECTION ( 'NONE',  ( 0.000000000000000000, 0.000000000000000000, -1.000000000000000000 ) ) ;
#284 = EDGE_CURVE ( 'NONE', #750, #129, #199, .T. ) ;
#285 = DIRECTION ( 'NONE',  ( -0.000000000000000000, -0.000000000000000000, -1.000000000000000000 ) ) ;
#286 = AXIS2_PLACEMENT_3D ( 'NONE', #495, #697, #31 ) ;
#287 = EDGE_CURVE ( 'NONE', #534, #698, #789, .T. ) ;
#288 = DIRECTION ( 'NONE',  ( -0.000000000000000000, -1.000000000000000000, -0.000000000000000000 ) ) ;
#289 = VECTOR ( 'NONE', #266, 1000.000000000000000 ) ;
#290 = CARTESIAN_POINT ( 'NONE',  ( 16.00000000000000355, 10.00000000000000178, -1.000000000000000000 ) ) ;
#291 = FACE_BOUND ( 'NONE', #232, .T. ) ;
#292 = ORIENTED_EDGE ( 'NONE', *, *, #379, .F. ) ;
#293 =( LENGTH_UNIT ( ) NAMED_UNIT ( * ) SI_UNIT ( .MILLI., .METRE. ) );
#294 = VECTOR ( 'NONE', #215, 1000.000000000000000 ) ;
#295 = PRODUCT_DEFINITION_CONTEXT ( 'detailed design', #430, 'design' ) ;
#296 = CYLINDRICAL_SURFACE ( 'NONE', #487, 1.599999999999999867 ) ;
#297 = DIRECTION ( 'NONE',  ( 0.000000000000000000, -1.000000000000000000, 0.000000000000000000 ) ) ;
#298 = ADVANCED_FACE ( 'NONE', ( #488 ), #108, .F. ) ;
#299 = CIRCLE ( 'NONE', #835, 6.000000000000000888 ) ;
#300 = CIRCLE ( 'NONE', #717, 6.000000000000000888 ) ;
#301 = DIRECTION ( 'NONE',  ( -0.000000000000000000, -0.000000000000000000, -1.000000000000000000 ) ) ;
#302 = AXIS2_PLACEMENT_3D ( 'NONE', #745, #617, #283 ) ;
#303 = CARTESIAN_POINT ( 'NONE',  ( 8.149719551577204513, 13.83001377923225661, -8.869288539047742503 ) ) ;
#304 = CARTESIAN_POINT ( 'NONE',  ( 6.126736366431381420, 11.76720588060959649, -7.764300505822913756 ) ) ;
#305 = DIRECTION ( 'NONE',  ( -0.000000000000000000, -0.000000000000000000, 1.000000000000000000 ) ) ;
#306 = DIRECTION ( 'NONE',  ( -0.000000000000000000, -0.000000000000000000, 1.000000000000000000 ) ) ;
#307 = DIRECTION ( 'NONE',  ( 1.000000000000000000, -0.000000000000000000, -0.000000000000000000 ) ) ;
#308 = DIRECTION ( 'NONE',  ( -1.000000000000000000, 0.000000000000000000, -0.000000000000000000 ) ) ;
#309 = VECTOR ( 'NONE', #144, 1000.000000000000000 ) ;
#310 = APPLICATION_CONTEXT ( 'automotive_design' ) ;
#311 = CARTESIAN_POINT ( 'NONE',  ( 14.25000000000004086, 10.00000000000001954, -5.797356367836962399 ) ) ;
#312 = EDGE_CURVE ( 'NONE', #343, #534, #649, .T. ) ;
#313 = CARTESIAN_POINT ( 'NONE',  ( 20.00000000000000000, 0.000000000000000000, 5.500000000000000000 ) ) ;
#314 = CARTESIAN_POINT ( 'NONE',  ( 13.82444659074119464, 8.127474650986242111, -4.178445040960478529 ) ) ;
#315 = AXIS2_PLACEMENT_3D ( 'NONE', #154, #694, #229 ) ;
#316 = DIRECTION ( 'NONE',  ( 0.000000000000000000, 0.000000000000000000, -1.000000000000000000 ) ) ;
#317 = CIRCLE ( 'NONE', #439, 2.999999999999998224 ) ;
#318 = CARTESIAN_POINT ( 'NONE',  ( -1.000000000000000000, 15.85271173546474976, -17.51667370946115554 ) ) ;
#319 = VERTEX_POINT ( 'NONE', #539 ) ;
#320 = CARTESIAN_POINT ( 'NONE',  ( 7.562186294929722052, 13.49106118259482301, -10.35962908910128810 ) ) ;
#321 = CARTESIAN_POINT ( 'NONE',  ( 12.89781007001588975, 13.10939370680408622, -7.301767203870097589 ) ) ;
#322 = DIRECTION ( 'NONE',  ( 0.000000000000000000, 0.000000000000000000, -1.000000000000000000 ) ) ;
#323 = APPLICATION_PROTOCOL_DEFINITION ( 'draft international standard', 'automotive_design', 1998, #430 ) ;
#324 = CIRCLE ( 'NONE', #829, 1.599999999999999867 ) ;
#325 = EDGE_CURVE ( 'NONE', #684, #678, #420, .T. ) ;
#326 = ORIENTED_EDGE ( 'NONE', *, *, #784, .F. ) ;
#327 = DIRECTION ( 'NONE',  ( 1.000000000000000000, -0.000000000000000000, -0.000000000000000000 ) ) ;
#328 = VECTOR ( 'NONE', #648, 1000.000000000000000 ) ;
#329 = EDGE_LOOP ( 'NONE', ( #67, #142, #124, #736 ) ) ;
#330 = CARTESIAN_POINT ( 'NONE',  ( 7.616905768734073767, 13.52140689459618095, -4.667906820053985939 ) ) ;
#331 = CARTESIAN_POINT ( 'NONE',  ( 12.83774932030127047, 13.16537557081095677, -5.507626617435669836 ) ) ;
#332 = CARTESIAN_POINT ( 'NONE',  ( 0.000000000000000000, 0.000000000000000000, 0.000000000000000000 ) ) ;
#333 = ORIENTED_EDGE ( 'NONE', *, *, #757, .T. ) ;
#334 = DIRECTION ( 'NONE',  ( 0.000000000000000000, 0.000000000000000000, -1.000000000000000000 ) ) ;
#335 = ORIENTED_EDGE ( 'NONE', *, *, #505, .F. ) ;
#336 = LINE ( 'NONE', #673, #666 ) ;
#337 = CARTESIAN_POINT ( 'NONE',  ( 10.80686307762080567, 14.17748722414736839, -3.603491612462460747 ) ) ;
#338 = LINE ( 'NONE', #80, #365 ) ;
#339 = ORIENTED_EDGE ( 'NONE', *, *, #447, .F. ) ;
#340 = CARTESIAN_POINT ( 'NONE',  ( 9.696234450081094636, 5.757904188341551155, -2.630679283765355425 ) ) ;
#341 = AXIS2_PLACEMENT_3D ( 'NONE', #352, #141, #688 ) ;
#342 = AXIS2_PLACEMENT_3D ( 'NONE', #434, #839, #572 ) ;
#343 = VERTEX_POINT ( 'NONE', #318 ) ;
#344 = CARTESIAN_POINT ( 'NONE',  ( 10.00000000000000000, 20.00000000000000000, -8.099999999999999645 ) ) ;
#345 = CARTESIAN_POINT ( 'NONE',  ( 11.99668342379185226, 13.75493994116436092, -4.252951403213071302 ) ) ;
#346 = CARTESIAN_POINT ( 'NONE',  ( 0.000000000000000000, 0.000000000000000000, 5.500000000000000000 ) ) ;
#347 = ORIENTED_EDGE ( 'NONE', *, *, #165, .F. ) ;
#348 = ORIENTED_EDGE ( 'NONE', *, *, #119, .F. ) ;
#349 = LINE ( 'NONE', #139, #172 ) ;
#350 = CARTESIAN_POINT ( 'NONE',  ( 10.41135123098536219, 14.23476300384201210, -3.521480396258928725 ) ) ;
#351 = EDGE_CURVE ( 'NONE', #540, #534, #858, .T. ) ;
#352 = CARTESIAN_POINT ( 'NONE',  ( 10.00000000000000178, 10.00000000000000178, 4.000000000000000000 ) ) ;
#353 = AXIS2_PLACEMENT_3D ( 'NONE', #747, #467, #57 ) ;
#354 = CARTESIAN_POINT ( 'NONE',  ( 19.00000000000000355, 10.00000000000000355, 4.000000000000000000 ) ) ;
#355 = ORIENTED_EDGE ( 'NONE', *, *, #234, .T. ) ;
#356 = CARTESIAN_POINT ( 'NONE',  ( -1.000000000000000000, -3.979741641482624104, -20.10004225676693324 ) ) ;
#357 = CARTESIAN_POINT ( 'NONE',  ( 20.00000000000000000, 0.000000000000000000, -0.5000000000000017764 ) ) ;
#358 = CARTESIAN_POINT ( 'NONE',  ( -1.000000000000000888, 20.00000000000000000, 5.500000000000000000 ) ) ;
#359 = DIRECTION ( 'NONE',  ( 0.000000000000000000, 0.000000000000000000, -1.000000000000000000 ) ) ;
#360 = CARTESIAN_POINT ( 'NONE',  ( 14.25000000000000178, 10.00000000000000178, -21.00000000000000000 ) ) ;
#361 = ADVANCED_FACE ( 'NONE', ( #847 ), #596, .F. ) ;
#362 = EDGE_CURVE ( 'NONE', #484, #225, #193, .T. ) ;
#363 = ORIENTED_EDGE ( 'NONE', *, *, #15, .F. ) ;
#364 = DIRECTION ( 'NONE',  ( -0.000000000000000000, -0.000000000000000000, -1.000000000000000000 ) ) ;
#365 = VECTOR ( 'NONE', #552, 1000.000000000000000 ) ;
#366 = ADVANCED_FACE ( 'NONE', ( #655, #259 ), #782, .F. ) ;
#367 = ORIENTED_EDGE ( 'NONE', *, *, #165, .T. ) ;
#368 = CARTESIAN_POINT ( 'NONE',  ( 7.000084080493734540, 13.01048243474351374, -6.293804101941675277 ) ) ;
#369 = CARTESIAN_POINT ( 'NONE',  ( 9.000146503573212442, 14.13502935248202164, -9.335357516357900565 ) ) ;
#370 = CARTESIAN_POINT ( 'NONE',  ( 7.603819011829293650, 13.52349202365715186, -8.344068529119853750 ) ) ;
#371 = EDGE_CURVE ( 'NONE', #613, #87, #850, .T. ) ;
#372 = DIRECTION ( 'NONE',  ( 0.000000000000000000, 0.000000000000000000, -1.000000000000000000 ) ) ;
#373 = CARTESIAN_POINT ( 'NONE',  ( 6.971150432184647805, 12.99188712403637069, -9.513079862325568570 ) ) ;
#374 = LINE ( 'NONE', #779, #228 ) ;
#375 = AXIS2_PLACEMENT_3D ( 'NONE', #708, #92, #235 ) ;
#376 = CARTESIAN_POINT ( 'NONE',  ( 0.000000000000000000, 15.85271173546474976, -17.51667370946115554 ) ) ;
#377 = ADVANCED_FACE ( 'NONE', ( #586, #661 ), #446, .F. ) ;
#378 = CARTESIAN_POINT ( 'NONE',  ( 8.598718764577055751, 14.01535786845027332, -11.37119545717431457 ) ) ;
#379 = EDGE_CURVE ( 'NONE', #690, #662, #317, .T. ) ;
#380 = CARTESIAN_POINT ( 'NONE',  ( 10.00000000000000178, 10.00000000000000178, -1.000000000000000000 ) ) ;
#381 = LINE ( 'NONE', #2, #289 ) ;
#382 = CARTESIAN_POINT ( 'NONE',  ( 13.93145305743668594, 8.366181409412087433, -4.362460468505886979 ) ) ;
#383 = CARTESIAN_POINT ( 'NONE',  ( 10.00000000000000000, 20.00000000000000000, -6.500000000000000000 ) ) ;
#384 = FACE_OUTER_BOUND ( 'NONE', #703, .T. ) ;
#385 = ORIENTED_EDGE ( 'NONE', *, *, #482, .T. ) ;
#386 = CARTESIAN_POINT ( 'NONE',  ( 13.03566752996221112, 12.98482950259541724, -9.501840463071600240 ) ) ;
#387 = CIRCLE ( 'NONE', #589, 20.00000000000000355 ) ;
#388 = CARTESIAN_POINT ( 'NONE',  ( 12.26369673848343922, 13.60025882107204787, -8.477740225125399931 ) ) ;
#389 = AXIS2_PLACEMENT_3D ( 'NONE', #714, #787, #183 ) ;
#390 = EDGE_CURVE ( 'NONE', #684, #756, #381, .T. ) ;
#391 = DIRECTION ( 'NONE',  ( 0.000000000000000000, 1.000000000000000000, 0.000000000000000000 ) ) ;
#392 = EDGE_LOOP ( 'NONE', ( #212, #155, #599, #605, #149, #19 ) ) ;
#393 = CARTESIAN_POINT ( 'NONE',  ( 7.907737183529994773, 6.287696052536525748, -2.936031716080242493 ) ) ;
#394 = ORIENTED_EDGE ( 'NONE', *, *, #45, .T. ) ;
#395 = DIRECTION ( 'NONE',  ( 1.000000000000000000, 0.000000000000000000, 0.000000000000000000 ) ) ;
#396 = CARTESIAN_POINT ( 'NONE',  ( 0.000000000000000000, 20.00000000000000000, -21.00000000000000000 ) ) ;
#397 = PRODUCT_CONTEXT ( 'NONE', #310, 'mechanical' ) ;
#398 = AXIS2_PLACEMENT_3D ( 'NONE', #6, #557, #20 ) ;
#399 = ORIENTED_EDGE ( 'NONE', *, *, #818, .F. ) ;
#400 = CARTESIAN_POINT ( 'NONE',  ( 8.469069391856836049, 6.023190252905444630, -2.780547802320432638 ) ) ;
#401 = EDGE_LOOP ( 'NONE', ( #270, #138, #793, #561 ) ) ;
#402 = DIRECTION ( 'NONE',  ( 0.000000000000000000, -1.000000000000000000, 0.000000000000000000 ) ) ;
#403 = CARTESIAN_POINT ( 'NONE',  ( 10.00000000000000000, 32.50000000000000000, -4.899999999999999467 ) ) ;
#404 = CARTESIAN_POINT ( 'NONE',  ( 10.00000000000000000, 32.50000000000000000, -6.500000000000000000 ) ) ;
#405 = VERTEX_POINT ( 'NONE', #651 ) ;
#406 = CARTESIAN_POINT ( 'NONE',  ( 6.175920005136514845, 8.126360698772565172, -4.177551259770005743 ) ) ;
#407 = VERTEX_POINT ( 'NONE', #188 ) ;
#408 = DIRECTION ( 'NONE',  ( 0.000000000000000000, 0.000000000000000000, -1.000000000000000000 ) ) ;
#409 = CARTESIAN_POINT ( 'NONE',  ( 12.97880864931654266, 13.03189834180278694, -6.090640916278265315 ) ) ;
#410 = CARTESIAN_POINT ( 'NONE',  ( 0.000000000000000000, 0.000000000000000000, -21.00000000000000000 ) ) ;
#411 = EDGE_LOOP ( 'NONE', ( #629, #333, #435, #335 ) ) ;
#412 = VECTOR ( 'NONE', #116, 1000.000000000000000 ) ;
#413 = AXIS2_PLACEMENT_3D ( 'NONE', #417, #537, #686 ) ;
#414 = EDGE_LOOP ( 'NONE', ( #741, #657 ) ) ;
#415 = EDGE_CURVE ( 'NONE', #405, #563, #466, .T. ) ;
#416 = ADVANCED_FACE ( 'NONE', ( #520 ), #855, .F. ) ;
#417 = CARTESIAN_POINT ( 'NONE',  ( 10.00000000000000000, 17.50000000000000000, -6.500000000000000000 ) ) ;
#418 = FACE_OUTER_BOUND ( 'NONE', #11, .T. ) ;
#419 = CARTESIAN_POINT ( 'NONE',  ( 19.00000000000000355, 10.00000000000000355, 5.500000000000000000 ) ) ;
#420 = CIRCLE ( 'NONE', #39, 8.000000000000000000 ) ;
#421 = LINE ( 'NONE', #158, #641 ) ;
#422 = ORIENTED_EDGE ( 'NONE', *, *, #93, .T. ) ;
#423 = CARTESIAN_POINT ( 'NONE',  ( 9.003856539074135412, 14.13593846876890758, -3.663318879764019709 ) ) ;
#424 = DIRECTION ( 'NONE',  ( -1.000000000000000000, 0.000000000000000000, 0.000000000000000000 ) ) ;
#425 = CARTESIAN_POINT ( 'NONE',  ( 10.00000000000000000, 32.50000000000000000, -6.500000000000000000 ) ) ;
#426 = ORIENTED_EDGE ( 'NONE', *, *, #720, .T. ) ;
#427 = CARTESIAN_POINT ( 'NONE',  ( 10.00000000000000000, 14.25000000000000178, -3.500000000000000444 ) ) ;
#428 = DIRECTION ( 'NONE',  ( 1.000000000000000000, 0.000000000000000000, 0.000000000000000000 ) ) ;
#429 = EDGE_LOOP ( 'NONE', ( #3, #159, #676, #635 ) ) ;
#430 = APPLICATION_CONTEXT ( 'automotive_design' ) ;
#431 = ADVANCED_FACE ( 'NONE', ( #455 ), #727, .F. ) ;
#432 = DIRECTION ( 'NONE',  ( -0.000000000000000000, -0.000000000000000000, -1.000000000000000000 ) ) ;
#433 = ORIENTED_EDGE ( 'NONE', *, *, #627, .T. ) ;
#434 = CARTESIAN_POINT ( 'NONE',  ( 10.00000000000000178, 10.00000000000000178, 5.500000000000000000 ) ) ;
#435 = ORIENTED_EDGE ( 'NONE', *, *, #234, .F. ) ;
#436 = CARTESIAN_POINT ( 'NONE',  ( 2.000000000000000000, 10.00000000000000178, 0.000000000000000000 ) ) ;
#437 = STYLED_ITEM ( 'NONE', ( #49 ), #162 ) ;
#438 = EDGE_CURVE ( 'NONE', #698, #607, #526, .T. ) ;
#439 = AXIS2_PLACEMENT_3D ( 'NONE', #246, #719, #322 ) ;
#440 = ADVANCED_FACE ( 'NONE', ( #384, #533 ), #474, .T. ) ;
#441 = CARTESIAN_POINT ( 'NONE',  ( 8.467748652685610722, 13.96796535967463626, -9.086362644280940870 ) ) ;
#442 = VECTOR ( 'NONE', #111, 1000.000000000000000 ) ;
#443 = AXIS2_PLACEMENT_3D ( 'NONE', #603, #738, #551 ) ;
#444 = CARTESIAN_POINT ( 'NONE',  ( 12.44641315873026777, 13.48504810350949512, -10.34882590840487104 ) ) ;
#445 = FILL_AREA_STYLE_COLOUR ( '', #706 ) ;
#446 = PLANE ( 'NONE',  #774 ) ;
#447 = EDGE_CURVE ( 'NONE', #795, #230, #299, .T. ) ;
#448 = DIRECTION ( 'NONE',  ( -1.000000000000000000, 0.000000000000000000, 0.000000000000000000 ) ) ;
#449 = FACE_OUTER_BOUND ( 'NONE', #522, .T. ) ;
#450 = AXIS2_PLACEMENT_3D ( 'NONE', #404, #22, #494 ) ;
#451 = AXIS2_PLACEMENT_3D ( 'NONE', #356, #813, #25 ) ;
#452 = CARTESIAN_POINT ( 'NONE',  ( 10.00000000000000000, 17.50000000000000000, -6.500000000000000000 ) ) ;
#453 = CARTESIAN_POINT ( 'NONE',  ( 8.308983463118931212, 13.90219822465091326, -11.14166073736681817 ) ) ;
#454 = FILL_AREA_STYLE ('',( #445 ) ) ;
#455 = FACE_OUTER_BOUND ( 'NONE', #392, .T. ) ;
#456 = ORIENTED_EDGE ( 'NONE', *, *, #608, .F. ) ;
#457 = CARTESIAN_POINT ( 'NONE',  ( 11.54960659276518165, 6.030627178859602644, -2.784844094334595788 ) ) ;
#458 = PRODUCT_DEFINITION_FORMATION_WITH_SPECIFIED_SOURCE ( 'ANY', '', #863, .NOT_KNOWN. ) ;
#459 = CARTESIAN_POINT ( 'NONE',  ( 11.53202119032767392, 13.96809487549889361, -9.086577370015039179 ) ) ;
#460 = DIRECTION ( 'NONE',  ( 1.000000000000000000, 0.000000000000000000, 0.000000000000000000 ) ) ;
#461 = VERTEX_POINT ( 'NONE', #740 ) ;
#462 = EDGE_CURVE ( 'NONE', #678, #684, #786, .T. ) ;
#463 = DIRECTION ( 'NONE',  ( -1.000000000000000000, 0.000000000000000000, 0.000000000000000000 ) ) ;
#464 = ORIENTED_EDGE ( 'NONE', *, *, #371, .T. ) ;
#465 = CARTESIAN_POINT ( 'NONE',  ( 12.97868591961943174, 13.03200636840678506, -6.909345872518725784 ) ) ;
#466 = LINE ( 'NONE', #313, #53 ) ;
#467 = DIRECTION ( 'NONE',  ( 0.000000000000000000, 0.000000000000000000, 1.000000000000000000 ) ) ;
#468 = EDGE_LOOP ( 'NONE', ( #634, #394, #385, #630, #542, #464 ) ) ;
#469 = CARTESIAN_POINT ( 'NONE',  ( 0.000000000000000000, 19.81920241085422774, -17.00000000000000000 ) ) ;
#470 = ORIENTED_EDGE ( 'NONE', *, *, #93, .F. ) ;
#471 = DIRECTION ( 'NONE',  ( 0.000000000000000000, -1.000000000000000000, 0.000000000000000000 ) ) ;
#472 = CARTESIAN_POINT ( 'NONE',  ( 10.00000000000000000, 32.50000000000000000, -8.099999999999999645 ) ) ;
#473 = B_SPLINE_CURVE_WITH_KNOTS ( 'NONE', 3,
 ( #510, #583, #776, #240, #587, #304, #842, #256, #114, #373, #840, #320, #513, #715, #453, #378, #55, #190, #517, #859, #725, #794, #780, #709, #174, #177, #848, #650, #106, #238, #444, #243, #386, #41, #646, #785, #530, #104, #852, #48 ),
 .UNSPECIFIED., .F., .F.,
 ( 4, 2, 2, 2, 2, 2, 2, 2, 2, 2, 2, 2, 2, 2, 2, 2, 2, 2, 2, 4 ),
 ( 0.01506974948932259493, 0.01621422271220452141, 0.01735869593508644962, 0.01850316915796837436, 0.01964764238085030257, 0.02079211560373222731, 0.02193658882661415552, 0.02250882543805511615, 0.02308106204949608026, 0.02365329866093704436, 0.02422553527237800500, 0.02479777188381896563, 0.02537000849525992974, 0.02594224510670089384, 0.02651448171814185795, 0.02765895494102378616, 0.02880342816390571090, 0.02994790138678763911, 0.03109237460966956385, 0.03338132105543342026 ),
 .UNSPECIFIED. ) ;
#474 = PLANE ( 'NONE',  #77 ) ;
#475 = VECTOR ( 'NONE', #306, 1000.000000000000000 ) ;
#476 = VERTEX_POINT ( 'NONE', #419 ) ;
#477 = CARTESIAN_POINT ( 'NONE',  ( 9.380931845637427102, 5.792339723211748392, -2.649918624214536500 ) ) ;
#478 = ORIENTED_EDGE ( 'NONE', *, *, #578, .T. ) ;
#479 = LINE ( 'NONE', #828, #30 ) ;
#480 = CYLINDRICAL_SURFACE ( 'NONE', #302, 2.999999999999998224 ) ;
#481 = CARTESIAN_POINT ( 'NONE',  ( 1.000000000000002665, 10.00000000000000178, 5.500000000000000000 ) ) ;
#482 = EDGE_CURVE ( 'NONE', #607, #343, #716, .T. ) ;
#483 = ADVANCED_FACE ( 'NONE', ( #152 ), #489, .F. ) ;
#484 = VERTEX_POINT ( 'NONE', #825 ) ;
#485 = ORIENTED_EDGE ( 'NONE', *, *, #511, .F. ) ;
#486 = PLANE ( 'NONE',  #647 ) ;
#487 = AXIS2_PLACEMENT_3D ( 'NONE', #425, #288, #826 ) ;
#488 = FACE_OUTER_BOUND ( 'NONE', #594, .T. ) ;
#489 = CYLINDRICAL_SURFACE ( 'NONE', #450, 1.599999999999999867 ) ;
#490 = SURFACE_STYLE_USAGE ( .BOTH. , #279 ) ;
#491 = CARTESIAN_POINT ( 'NONE',  ( -1.000000000000000000, 24.00000000000000000, -20.99999999999998579 ) ) ;
#492 = EDGE_LOOP ( 'NONE', ( #834, #205, #485, #762 ) ) ;
#493 = CARTESIAN_POINT ( 'NONE',  ( 9.796373081731095667, 14.25000000000000533, -3.499999999999999112 ) ) ;
#494 = DIRECTION ( 'NONE',  ( 0.000000000000000000, 0.000000000000000000, -1.000000000000000000 ) ) ;
#495 = CARTESIAN_POINT ( 'NONE',  ( 10.00000000000000178, 10.00000000000000178, 5.500000000000000000 ) ) ;
#496 = EDGE_LOOP ( 'NONE', ( #556, #60, #685, #864 ) ) ;
#497 = CARTESIAN_POINT ( 'NONE',  ( 8.150346581612641472, 13.83029475061182900, -4.130266033811956561 ) ) ;
#498 = ORIENTED_EDGE ( 'NONE', *, *, #102, .T. ) ;
#499 = ORIENTED_EDGE ( 'NONE', *, *, #185, .F. ) ;
#500 = DIRECTION ( 'NONE',  ( 1.000000000000000000, 0.000000000000000000, 0.000000000000000000 ) ) ;
#501 = ORIENTED_EDGE ( 'NONE', *, *, #700, .T. ) ;
#502 = CIRCLE ( 'NONE', #413, 1.599999999999999867 ) ;
#503 = EDGE_LOOP ( 'NONE', ( #363, #292, #801, #260 ) ) ;
#504 =( NAMED_UNIT ( * ) PLANE_ANGLE_UNIT ( ) SI_UNIT ( $, .RADIAN. ) );
#505 = EDGE_CURVE ( 'NONE', #573, #407, #209, .T. ) ;
#506 = EDGE_CURVE ( 'NONE', #756, #811, #574, .T. ) ;
#507 =( NAMED_UNIT ( * ) SI_UNIT ( $, .STERADIAN. ) SOLID_ANGLE_UNIT ( ) );
#508 = AXIS2_PLACEMENT_3D ( 'NONE', #380, #305, #518 ) ;
#509 = CARTESIAN_POINT ( 'NONE',  ( 20.00000000000000000, 20.00000000000000000, -21.00000000000000000 ) ) ;
#510 = CARTESIAN_POINT ( 'NONE',  ( 5.750000000000001776, 10.00000000000000355, -5.797356367836955293 ) ) ;
#511 = EDGE_CURVE ( 'NONE', #143, #461, #61, .T. ) ;
#512 = AXIS2_PLACEMENT_3D ( 'NONE', #207, #408, #763 ) ;
#513 = CARTESIAN_POINT ( 'NONE',  ( 7.789120272054482541, 13.64114072765456065, -10.63496495318110924 ) ) ;
#514 = DIRECTION ( 'NONE',  ( 0.000000000000000000, 0.000000000000000000, 1.000000000000000000 ) ) ;
#515 = DIRECTION ( 'NONE',  ( -1.000000000000000000, 0.000000000000000000, 0.000000000000000000 ) ) ;
#516 = CIRCLE ( 'NONE', #711, 1.599999999999999867 ) ;
#517 = CARTESIAN_POINT ( 'NONE',  ( 9.251898956602962798, 14.18780909595668582, -11.73681036588978799 ) ) ;
#518 = DIRECTION ( 'NONE',  ( 1.000000000000000000, 0.000000000000000000, 0.000000000000000000 ) ) ;
#519 = MECHANICAL_DESIGN_GEOMETRIC_PRESENTATION_REPRESENTATION (  '', ( #640 ), #156 ) ;
#520 = FACE_OUTER_BOUND ( 'NONE', #58, .T. ) ;
#521 = CLOSED_SHELL ( 'NONE', ( #38, #298, #248, #43, #844, #838, #377, #768, #431, #135, #767, #361, #440, #416, #366, #134, #226, #545, #14, #263, #692, #483, #783, #653 ) ) ;
#522 = EDGE_LOOP ( 'NONE', ( #54, #601, #98, #117 ) ) ;
#523 = CARTESIAN_POINT ( 'NONE',  ( 12.10199330263157691, 6.303137906359221887, -2.945715718448621345 ) ) ;
#524 = AXIS2_PLACEMENT_3D ( 'NONE', #121, #592, #242 ) ;
#525 = CARTESIAN_POINT ( 'NONE',  ( 10.20661696909452054, 14.25000000000000178, -9.499999999999998224 ) ) ;
#526 = LINE ( 'NONE', #56, #412 ) ;
#527 = PRODUCT_DEFINITION ( 'UNKNOWN', '', #458, #295 ) ;
#528 = ORIENTED_EDGE ( 'NONE', *, *, #247, .T. ) ;
#529 = EDGE_CURVE ( 'NONE', #86, #540, #338, .T. ) ;
#530 = CARTESIAN_POINT ( 'NONE',  ( 13.87678242621269931, 11.75943173956174270, -7.754395903805694878 ) ) ;
#531 = ORIENTED_EDGE ( 'NONE', *, *, #462, .F. ) ;
#532 = CARTESIAN_POINT ( 'NONE',  ( 13.00011655504717289, 13.01028249229836931, -6.702379423593141539 ) ) ;
#533 = FACE_BOUND ( 'NONE', #249, .T. ) ;
#534 = VERTEX_POINT ( 'NONE', #693 ) ;
#535 = CYLINDRICAL_SURFACE ( 'NONE', #584, 4.000000000000000000 ) ;
#536 = EDGE_LOOP ( 'NONE', ( #866, #764, #164, #761 ) ) ;
#537 = DIRECTION ( 'NONE',  ( 0.000000000000000000, -1.000000000000000000, 0.000000000000000000 ) ) ;
#538 = DIRECTION ( 'NONE',  ( -0.000000000000000000, 0.000000000000000000, -1.000000000000000000 ) ) ;
#539 = CARTESIAN_POINT ( 'NONE',  ( 14.25000000000004086, 10.00000000000001954, -5.797356367836962399 ) ) ;
#540 = VERTEX_POINT ( 'NONE', #357 ) ;
#541 = CARTESIAN_POINT ( 'NONE',  ( 9.223017917528158804, 5.818669670508186620, -2.664655871270822818 ) ) ;
#542 = ORIENTED_EDGE ( 'NONE', *, *, #577, .T. ) ;
#543 = CARTESIAN_POINT ( 'NONE',  ( 18.00000000000000355, 10.00000000000000355, 0.000000000000000000 ) ) ;
#544 = CARTESIAN_POINT ( 'NONE',  ( 4.000000000000000888, 10.00000000000000178, -1.000000000000000000 ) ) ;
#545 = ADVANCED_FACE ( 'NONE', ( #628 ), #746, .T. ) ;
#546 = CARTESIAN_POINT ( 'NONE',  ( 10.00000000000000178, 10.00000000000000178, 0.000000000000000000 ) ) ;
#547 = APPLICATION_PROTOCOL_DEFINITION ( 'draft international standard', 'automotive_design', 1998, #310 ) ;
#548 = ORIENTED_EDGE ( 'NONE', *, *, #784, .T. ) ;
#549 = ORIENTED_EDGE ( 'NONE', *, *, #506, .T. ) ;
#550 = DIRECTION ( 'NONE',  ( 0.000000000000000000, 1.000000000000000000, 0.000000000000000000 ) ) ;
#551 = DIRECTION ( 'NONE',  ( 1.000000000000000000, 0.000000000000000000, 0.000000000000000000 ) ) ;
#552 = DIRECTION ( 'NONE',  ( 1.000000000000000000, -0.000000000000000000, -0.000000000000000000 ) ) ;
#553 =( NAMED_UNIT ( * ) PLANE_ANGLE_UNIT ( ) SI_UNIT ( $, .RADIAN. ) );
#554 = UNCERTAINTY_MEASURE_WITH_UNIT (LENGTH_MEASURE( 1.000000000000000082E-05 ), #245, 'distance_accuracy_value', 'NONE');
#555 = CARTESIAN_POINT ( 'NONE',  ( 0.000000000000000000, -3.979741641482624104, -20.10004225676693324 ) ) ;
#556 = ORIENTED_EDGE ( 'NONE', *, *, #390, .F. ) ;
#557 = DIRECTION ( 'NONE',  ( 0.000000000000000000, 0.000000000000000000, 1.000000000000000000 ) ) ;
#558 = CARTESIAN_POINT ( 'NONE',  ( 11.36445627791303004, 14.02949843144468467, -3.820879702354851748 ) ) ;
#559 = CARTESIAN_POINT ( 'NONE',  ( 10.00000000000000178, 10.00000000000000178, -1.000000000000000000 ) ) ;
#560 = AXIS2_PLACEMENT_3D ( 'NONE', #792, #588, #515 ) ;
#561 = ORIENTED_EDGE ( 'NONE', *, *, #438, .T. ) ;
#562 = EDGE_CURVE ( 'NONE', #678, #811, #273, .T. ) ;
#563 = VERTEX_POINT ( 'NONE', #223 ) ;
#564 = CARTESIAN_POINT ( 'NONE',  ( 9.194106087670139260, 14.17777653705245378, -3.603072790568325523 ) ) ;
#565 = PRODUCT_RELATED_PRODUCT_CATEGORY ( 'part', '', ( #863 ) ) ;
#566 = DIRECTION ( 'NONE',  ( 0.000000000000000000, -1.000000000000000000, -1.734723475976807094E-15 ) ) ;
#567 = AXIS2_PLACEMENT_3D ( 'NONE', #44, #372, #448 ) ;
#568 = FACE_OUTER_BOUND ( 'NONE', #429, .T. ) ;
#569 = VECTOR ( 'NONE', #1, 1000.000000000000000 ) ;
#570 = LINE ( 'NONE', #360, #33 ) ;
#571 = ORIENTED_EDGE ( 'NONE', *, *, #27, .F. ) ;
#572 = DIRECTION ( 'NONE',  ( 1.000000000000000000, 0.000000000000000000, 0.000000000000000000 ) ) ;
#573 = VERTEX_POINT ( 'NONE', #85 ) ;
#574 = CIRCLE ( 'NONE', #843, 8.000000000000000000 ) ;
#575 = CARTESIAN_POINT ( 'NONE',  ( 4.000000000000000888, 10.00000000000000178, 0.000000000000000000 ) ) ;
#576 = PRESENTATION_LAYER_ASSIGNMENT (  '', '', ( #640 ) ) ;
#577 = EDGE_CURVE ( 'NONE', #86, #613, #760, .T. ) ;
#578 = EDGE_CURVE ( 'NONE', #230, #821, #810, .T. ) ;
#579 = CARTESIAN_POINT ( 'NONE',  ( 20.00000000000000000, 20.00000000000000000, 4.000000000000000000 ) ) ;
#580 = CARTESIAN_POINT ( 'NONE',  ( 9.588736253547780919, 14.23475155106028289, -9.478502460767828097 ) ) ;
#581 = CARTESIAN_POINT ( 'NONE',  ( -1.000000000000000000, 19.81920241085422774, -20.99999999999999289 ) ) ;
#582 =( NAMED_UNIT ( * ) PLANE_ANGLE_UNIT ( ) SI_UNIT ( $, .RADIAN. ) );
#583 = CARTESIAN_POINT ( 'NONE',  ( 5.750000000000003553, 10.27320360103821884, -6.064391230218503459 ) ) ;
#584 = AXIS2_PLACEMENT_3D ( 'NONE', #469, #327, #334 ) ;
#585 = CARTESIAN_POINT ( 'NONE',  ( 11.85173139155533839, 13.82935460908259628, -8.868240332444210949 ) ) ;
#586 = FACE_BOUND ( 'NONE', #860, .T. ) ;
#587 = CARTESIAN_POINT ( 'NONE',  ( 5.946029963778715732, 11.30019796377563246, -7.190343326537385948 ) ) ;
#588 = DIRECTION ( 'NONE',  ( -0.000000000000000000, -0.000000000000000000, -1.000000000000000000 ) ) ;
#589 = AXIS2_PLACEMENT_3D ( 'NONE', #175, #307, #514 ) ;
#590 = CARTESIAN_POINT ( 'NONE',  ( 12.48011704043384995, 6.545592034368390877, -3.093323758156660830 ) ) ;
#591 = CARTESIAN_POINT ( 'NONE',  ( 10.00000000000000000, 17.50000000000000000, -6.500000000000000000 ) ) ;
#592 = DIRECTION ( 'NONE',  ( -1.000000000000000000, 0.000000000000000000, -0.000000000000000000 ) ) ;
#593 = EDGE_CURVE ( 'NONE', #795, #672, #790, .T. ) ;
#594 = EDGE_LOOP ( 'NONE', ( #274, #191, #827, #743 ) ) ;
#595 = CARTESIAN_POINT ( 'NONE',  ( 12.82771601206176726, 6.813751129587108935, -3.261247581471138357 ) ) ;
#596 = CYLINDRICAL_SURFACE ( 'NONE', #560, 8.000000000000001776 ) ;
#597 = SHAPE_DEFINITION_REPRESENTATION ( #732, #196 ) ;
#598 = CIRCLE ( 'NONE', #173, 2.999999999999998224 ) ;
#599 = ORIENTED_EDGE ( 'NONE', *, *, #105, .T. ) ;
#600 = CARTESIAN_POINT ( 'NONE',  ( 11.25807482289069128, 5.928378309874047680, -2.726623615735611406 ) ) ;
#601 = ORIENTED_EDGE ( 'NONE', *, *, #608, .T. ) ;
#602 = CARTESIAN_POINT ( 'NONE',  ( 7.405863438117696873, 13.36896128364632830, -4.981395695579956318 ) ) ;
#603 = CARTESIAN_POINT ( 'NONE',  ( 10.00000000000000178, 10.00000000000000178, 4.000000000000000000 ) ) ;
#604 = DIRECTION ( 'NONE',  ( 0.000000000000000000, 0.000000000000000000, 1.000000000000000000 ) ) ;
#605 = ORIENTED_EDGE ( 'NONE', *, *, #351, .T. ) ;
#606 = LINE ( 'NONE', #4, #309 ) ;
#607 = VERTEX_POINT ( 'NONE', #581 ) ;
#608 = EDGE_CURVE ( 'NONE', #90, #319, #473, .T. ) ;
#609 = CARTESIAN_POINT ( 'NONE',  ( 10.00000000000000000, 17.50000000000000000, -6.500000000000000000 ) ) ;
#610 = DIRECTION ( 'NONE',  ( -1.000000000000000000, 0.000000000000000000, 0.000000000000000000 ) ) ;
#611 = DIRECTION ( 'NONE',  ( 0.000000000000000000, 0.000000000000000000, 1.000000000000000000 ) ) ;
#612 =( GEOMETRIC_REPRESENTATION_CONTEXT ( 3 ) GLOBAL_UNCERTAINTY_ASSIGNED_CONTEXT ( ( #754 ) ) GLOBAL_UNIT_ASSIGNED_CONTEXT ( ( #293, #504, #507 ) ) REPRESENTATION_CONTEXT ( 'NONE', 'WORKASPACE' ) );
#613 = VERTEX_POINT ( 'NONE', #658 ) ;
#614 = CARTESIAN_POINT ( 'NONE',  ( 10.32675403426649652, 5.759610970462414770, -2.631629630005560383 ) ) ;
#615 = ORIENTED_EDGE ( 'NONE', *, *, #669, .T. ) ;
#616 = CARTESIAN_POINT ( 'NONE',  ( 20.00000000000000000, 19.81920241085422774, -21.00000000000000000 ) ) ;
#617 = DIRECTION ( 'NONE',  ( -0.000000000000000000, -1.000000000000000000, -0.000000000000000000 ) ) ;
#618 = DIRECTION ( 'NONE',  ( 1.000000000000000000, 0.000000000000000000, -0.000000000000000000 ) ) ;
#619 = ORIENTED_EDGE ( 'NONE', *, *, #722, .F. ) ;
#620 = ORIENTED_EDGE ( 'NONE', *, *, #284, .F. ) ;
#621 = CARTESIAN_POINT ( 'NONE',  ( 18.00000000000000355, 10.00000000000000355, 4.000000000000000000 ) ) ;
#622 = CARTESIAN_POINT ( 'NONE',  ( 11.84907776139435676, 13.83053281717116256, -4.129895702832451221 ) ) ;
#623 = CARTESIAN_POINT ( 'NONE',  ( 2.000000000000000000, 10.00000000000000178, 4.000000000000000000 ) ) ;
#624 = DIRECTION ( 'NONE',  ( 1.000000000000000000, -0.000000000000000000, -0.000000000000000000 ) ) ;
#625 = EDGE_LOOP ( 'NONE', ( #255, #478, #770, #807 ) ) ;
#626 = PLANE ( 'NONE',  #451 ) ;
#627 = EDGE_CURVE ( 'NONE', #461, #143, #206, .T. ) ;
#628 = FACE_OUTER_BOUND ( 'NONE', #401, .T. ) ;
#629 = ORIENTED_EDGE ( 'NONE', *, *, #818, .T. ) ;
#630 = ORIENTED_EDGE ( 'NONE', *, *, #119, .T. ) ;
#631 = CARTESIAN_POINT ( 'NONE',  ( 10.00000000000000178, 10.00000000000000178, 4.000000000000000000 ) ) ;
#632 = DIRECTION ( 'NONE',  ( 0.000000000000000000, 0.000000000000000000, 1.000000000000000000 ) ) ;
#633 = AXIS2_PLACEMENT_3D ( 'NONE', #559, #70, #815 ) ;
#634 = ORIENTED_EDGE ( 'NONE', *, *, #185, .T. ) ;
#635 = ORIENTED_EDGE ( 'NONE', *, *, #562, .F. ) ;
#636 = DIRECTION ( 'NONE',  ( -1.000000000000000000, 0.000000000000000000, 0.000000000000000000 ) ) ;
#637 = EDGE_CURVE ( 'NONE', #319, #90, #72, .T. ) ;
#638 = AXIS2_PLACEMENT_3D ( 'NONE', #833, #632, #500 ) ;
#639 = LINE ( 'NONE', #509, #269 ) ;
#640 = STYLED_ITEM ( 'NONE', ( #210 ), #196 ) ;
#641 = VECTOR ( 'NONE', #224, 1000.000000000000000 ) ;
#642 = VECTOR ( 'NONE', #214, 1000.000000000000000 ) ;
#643 = CARTESIAN_POINT ( 'NONE',  ( 7.388605134226915894, 13.35893500571639336, -8.026358050832907765 ) ) ;
#644 = CARTESIAN_POINT ( 'NONE',  ( 13.03629618893689646, 7.012713546092324002, -3.389766183844283187 ) ) ;
#645 = CARTESIAN_POINT ( 'NONE',  ( 10.40853264076924134, 14.23502671328904512, -9.478892772059676730 ) ) ;
#646 = CARTESIAN_POINT ( 'NONE',  ( 13.50943220140552192, 12.41008655180838360, -8.632470458988050765 ) ) ;
#647 = AXIS2_PLACEMENT_3D ( 'NONE', #822, #550, #221 ) ;
#648 = DIRECTION ( 'NONE',  ( -0.000000000000000000, -1.000000000000000000, -0.000000000000000000 ) ) ;
#649 = LINE ( 'NONE', #376, #150 ) ;
#650 = CARTESIAN_POINT ( 'NONE',  ( 11.70377405064521881, 13.89659978247893690, -11.13049353311399514 ) ) ;
#651 = CARTESIAN_POINT ( 'NONE',  ( 20.00000000000000000, 0.000000000000000000, 5.500000000000000000 ) ) ;
#652 = CARTESIAN_POINT ( 'NONE',  ( 13.56217619735402558, 7.666838272400418042, -3.838458060738076050 ) ) ;
#653 = ADVANCED_FACE ( 'NONE', ( #865 ), #535, .T. ) ;
#654 = DIRECTION ( 'NONE',  ( 0.000000000000000000, -1.000000000000000000, 0.000000000000000000 ) ) ;
#655 = FACE_BOUND ( 'NONE', #81, .T. ) ;
#656 = CIRCLE ( 'NONE', #638, 8.000000000000000000 ) ;
#657 = ORIENTED_EDGE ( 'NONE', *, *, #796, .F. ) ;
#658 = CARTESIAN_POINT ( 'NONE',  ( -1.000000000000000000, 0.000000000000000000, 5.500000000000000000 ) ) ;
#659 = AXIS2_PLACEMENT_3D ( 'NONE', #798, #723, #253 ) ;
#660 = CARTESIAN_POINT ( 'NONE',  ( 12.38489167516958211, 13.52018321363631159, -8.329747389403344471 ) ) ;
#661 = FACE_OUTER_BOUND ( 'NONE', #194, .T. ) ;
#662 = VERTEX_POINT ( 'NONE', #204 ) ;
#663 = CARTESIAN_POINT ( 'NONE',  ( 10.79961470864734885, 5.822954970366168048, -2.667062930277730892 ) ) ;
#664 = ORIENTED_EDGE ( 'NONE', *, *, #856, .T. ) ;
#665 = FACE_BOUND ( 'NONE', #857, .T. ) ;
#666 = VECTOR ( 'NONE', #76, 1000.000000000000000 ) ;
#667 = DIRECTION ( 'NONE',  ( 0.000000000000000000, 0.000000000000000000, -1.000000000000000000 ) ) ;
#668 = EDGE_CURVE ( 'NONE', #821, #672, #739, .T. ) ;
#669 = EDGE_CURVE ( 'NONE', #87, #563, #606, .T. ) ;
#670 = VERTEX_POINT ( 'NONE', #88 ) ;
#671 = CARTESIAN_POINT ( 'NONE',  ( 5.767705142985175115, 9.545676275936683552, -5.363654080663407875 ) ) ;
#672 = VERTEX_POINT ( 'NONE', #131 ) ;
#673 = CARTESIAN_POINT ( 'NONE',  ( 0.000000000000000000, 0.000000000000000000, 5.500000000000000000 ) ) ;
#674 = LINE ( 'NONE', #403, #569 ) ;
#675 = DIRECTION ( 'NONE',  ( 0.000000000000000000, 0.000000000000000000, 1.000000000000000000 ) ) ;
#676 = ORIENTED_EDGE ( 'NONE', *, *, #102, .F. ) ;
#677 = CARTESIAN_POINT ( 'NONE',  ( 5.750000000000001776, 10.00000000000000355, -5.797356367836955293 ) ) ;
#678 = VERTEX_POINT ( 'NONE', #802 ) ;
#679 = FACE_OUTER_BOUND ( 'NONE', #468, .T. ) ;
#680 = CARTESIAN_POINT ( 'NONE',  ( 20.00000000000000000, 20.00000000000000000, -21.00000000000000000 ) ) ;
#681 = CARTESIAN_POINT ( 'NONE',  ( 10.00000000000000178, 10.00000000000000178, -1.000000000000000000 ) ) ;
#682 = AXIS2_PLACEMENT_3D ( 'NONE', #146, #424, #133 ) ;
#683 = CIRCLE ( 'NONE', #342, 9.000000000000001776 ) ;
#684 = VERTEX_POINT ( 'NONE', #621 ) ;
#685 = ORIENTED_EDGE ( 'NONE', *, *, #562, .T. ) ;
#686 = DIRECTION ( 'NONE',  ( 0.000000000000000000, 0.000000000000000000, -1.000000000000000000 ) ) ;
#687 = CARTESIAN_POINT ( 'NONE',  ( 12.26377626380555874, 13.60022717116949487, -4.522302065886244726 ) ) ;
#688 = DIRECTION ( 'NONE',  ( 1.000000000000000000, 0.000000000000000000, 0.000000000000000000 ) ) ;
#689 = FACE_OUTER_BOUND ( 'NONE', #724, .T. ) ;
#690 = VERTEX_POINT ( 'NONE', #198 ) ;
#691 = CARTESIAN_POINT ( 'NONE',  ( 8.640320105106725990, 14.03107422353035361, -3.818520528500799927 ) ) ;
#692 = ADVANCED_FACE ( 'NONE', ( #264, #83 ), #12, .T. ) ;
#693 = CARTESIAN_POINT ( 'NONE',  ( 20.00000000000000000, 15.85271173546474976, -17.51667370946115554 ) ) ;
#694 = DIRECTION ( 'NONE',  ( 0.000000000000000000, 0.000000000000000000, -1.000000000000000000 ) ) ;
#695 = ORIENTED_EDGE ( 'NONE', *, *, #505, .T. ) ;
#696 = CARTESIAN_POINT ( 'NONE',  ( 7.735907206045280482, 13.60003078119875575, -4.522655564320307242 ) ) ;
#697 = DIRECTION ( 'NONE',  ( -0.000000000000000000, -0.000000000000000000, -1.000000000000000000 ) ) ;
#698 = VERTEX_POINT ( 'NONE', #616 ) ;
#699 = DIRECTION ( 'NONE',  ( 0.000000000000000000, 0.000000000000000000, -1.000000000000000000 ) ) ;
#700 = EDGE_CURVE ( 'NONE', #670, #129, #324, .T. ) ;
#701 = AXIS2_PLACEMENT_3D ( 'NONE', #128, #73, #463 ) ;
#702 = EDGE_CURVE ( 'NONE', #90, #461, #349, .T. ) ;
#703 = EDGE_LOOP ( 'NONE', ( #275, #211, #426, #748 ) ) ;
#704 = CARTESIAN_POINT ( 'NONE',  ( 7.162526303216472101, 13.16560814054185435, -7.492990952196308285 ) ) ;
#705 = CARTESIAN_POINT ( 'NONE',  ( 6.999916421316795478, 13.01031535472974809, -6.703741977507323924 ) ) ;
#706 = COLOUR_RGB ( '',0.7921568627450980005, 0.8196078431372548767, 0.9333333333333333481 ) ;
#707 = AXIS2_PLACEMENT_3D ( 'NONE', #332, #52, #308 ) ;
#708 = CARTESIAN_POINT ( 'NONE',  ( 10.00000000000000178, 10.00000000000000178, -21.00000000000000000 ) ) ;
#709 = CARTESIAN_POINT ( 'NONE',  ( 10.76258138837609657, 14.18518838684732764, -11.73110913214114071 ) ) ;
#710 = AXIS2_PLACEMENT_3D ( 'NONE', #609, #471, #68 ) ;
#711 = AXIS2_PLACEMENT_3D ( 'NONE', #383, #654, #316 ) ;
#712 = CARTESIAN_POINT ( 'NONE',  ( 4.000000000000000888, 10.00000000000000178, -1.000000000000000000 ) ) ;
#713 = CARTESIAN_POINT ( 'NONE',  ( 14.25000000000000178, 10.00000000000000178, -1.000000000000000000 ) ) ;
#714 = CARTESIAN_POINT ( 'NONE',  ( 10.00000000000000178, 10.00000000000000178, 5.500000000000000000 ) ) ;
#715 = CARTESIAN_POINT ( 'NONE',  ( 8.173771886282752419, 13.84034368503328771, -11.01899854400194201 ) ) ;
#716 = CIRCLE ( 'NONE', #682, 4.000000000000000000 ) ;
#717 = AXIS2_PLACEMENT_3D ( 'NONE', #837, #359, #160 ) ;
#718 = FACE_OUTER_BOUND ( 'NONE', #5, .T. ) ;
#719 = DIRECTION ( 'NONE',  ( 0.000000000000000000, -1.000000000000000000, 0.000000000000000000 ) ) ;
#720 = EDGE_CURVE ( 'NONE', #613, #405, #336, .T. ) ;
#721 = CARTESIAN_POINT ( 'NONE',  ( 14.17922687761911504, 9.078420907083019742, -4.938987645081298616 ) ) ;
#722 = EDGE_CURVE ( 'NONE', #476, #573, #777, .T. ) ;
#723 = DIRECTION ( 'NONE',  ( -1.000000000000000000, 0.000000000000000000, 0.000000000000000000 ) ) ;
#724 = EDGE_LOOP ( 'NONE', ( #347, #528, #501, #620 ) ) ;
#725 = CARTESIAN_POINT ( 'NONE',  ( 9.812491760039215194, 14.25035130295669106, -11.87424673313744172 ) ) ;
#726 = CYLINDRICAL_SURFACE ( 'NONE', #244, 4.250000000000000000 ) ;
#727 = PLANE ( 'NONE',  #659 ) ;
#728 = ORIENTED_EDGE ( 'NONE', *, *, #722, .T. ) ;
#729 = CARTESIAN_POINT ( 'NONE',  ( 8.762739882795901991, 5.921938533369354829, -2.722960214119120703 ) ) ;
#730 = EDGE_LOOP ( 'NONE', ( #326, #734 ) ) ;
#731 = DIRECTION ( 'NONE',  ( 0.000000000000000000, -1.000000000000000000, 0.000000000000000000 ) ) ;
#732 = PRODUCT_DEFINITION_SHAPE ( 'NONE', 'NONE',  #527 ) ;
#733 = DIRECTION ( 'NONE',  ( 1.000000000000000000, -0.000000000000000000, -0.000000000000000000 ) ) ;
#734 = ORIENTED_EDGE ( 'NONE', *, *, #700, .F. ) ;
#735 = CARTESIAN_POINT ( 'NONE',  ( 10.64197098709214373, 5.795771108459471854, -2.651839499052421445 ) ) ;
#736 = ORIENTED_EDGE ( 'NONE', *, *, #312, .F. ) ;
#737 = CARTESIAN_POINT ( 'NONE',  ( 10.00000000000000000, 17.50000000000000000, -6.500000000000000000 ) ) ;
#738 = DIRECTION ( 'NONE',  ( 0.000000000000000000, 0.000000000000000000, 1.000000000000000000 ) ) ;
#739 = CIRCLE ( 'NONE', #701, 6.000000000000000888 ) ;
#740 = CARTESIAN_POINT ( 'NONE',  ( 5.750000000000001776, 10.00000000000000178, -1.000000000000000000 ) ) ;
#741 = ORIENTED_EDGE ( 'NONE', *, *, #201, .F. ) ;
#742 = CARTESIAN_POINT ( 'NONE',  ( 6.599955701464553570, 7.434581797834040273, -3.675083253104240111 ) ) ;
#743 = ORIENTED_EDGE ( 'NONE', *, *, #200, .F. ) ;
#744 = FACE_BOUND ( 'NONE', #184, .T. ) ;
#745 = CARTESIAN_POINT ( 'NONE',  ( 10.00000000000000000, 17.50000000000000000, -6.500000000000000000 ) ) ;
#746 = PLANE ( 'NONE',  #130 ) ;
#747 = CARTESIAN_POINT ( 'NONE',  ( 0.000000000000000000, 0.000000000000000000, 0.000000000000000000 ) ) ;
#748 = ORIENTED_EDGE ( 'NONE', *, *, #415, .T. ) ;
#749 = MECHANICAL_DESIGN_GEOMETRIC_PRESENTATION_REPRESENTATION (  '', ( #437 ), #773 ) ;
#750 = VERTEX_POINT ( 'NONE', #344 ) ;
#751 = DIRECTION ( 'NONE',  ( 0.000000000000000000, 0.000000000000000000, -1.000000000000000000 ) ) ;
#752 = CARTESIAN_POINT ( 'NONE',  ( 10.20405436156563539, 14.25000000000000355, -3.500000000000000000 ) ) ;
#753 = DIRECTION ( 'NONE',  ( 0.000000000000000000, 0.000000000000000000, -1.000000000000000000 ) ) ;
#754 = UNCERTAINTY_MEASURE_WITH_UNIT (LENGTH_MEASURE( 1.000000000000000082E-05 ), #293, 'distance_accuracy_value', 'NONE');
#755 = FACE_OUTER_BOUND ( 'NONE', #82, .T. ) ;
#756 = VERTEX_POINT ( 'NONE', #543 ) ;
#757 = EDGE_CURVE ( 'NONE', #476, #24, #479, .T. ) ;
#758 = DIRECTION ( 'NONE',  ( -0.000000000000000000, -0.000000000000000000, 1.000000000000000000 ) ) ;
#759 = AXIS2_PLACEMENT_3D ( 'NONE', #452, #126, #667 ) ;
#760 = LINE ( 'NONE', #804, #97 ) ;
#761 = ORIENTED_EDGE ( 'NONE', *, *, #577, .F. ) ;
#762 = ORIENTED_EDGE ( 'NONE', *, *, #75, .F. ) ;
#763 = DIRECTION ( 'NONE',  ( -1.000000000000000000, 0.000000000000000000, -0.000000000000000000 ) ) ;
#764 = ORIENTED_EDGE ( 'NONE', *, *, #105, .F. ) ;
#765 = VERTEX_POINT ( 'NONE', #808 ) ;
#766 = CARTESIAN_POINT ( 'NONE',  ( 9.999999999999998224, 14.25000000000000178, -9.500000000000000000 ) ) ;
#767 = ADVANCED_FACE ( 'NONE', ( #744, #271 ), #213, .F. ) ;
#768 = ADVANCED_FACE ( 'NONE', ( #276 ), #486, .F. ) ;
#769 = CARTESIAN_POINT ( 'NONE',  ( 20.00000000000000000, 0.000000000000000000, 4.000000000000000000 ) ) ;
#770 = ORIENTED_EDGE ( 'NONE', *, *, #845, .F. ) ;
#771 = ORIENTED_EDGE ( 'NONE', *, *, #668, .F. ) ;
#772 = CARTESIAN_POINT ( 'NONE',  ( 7.162186524106899377, 13.16531022241253801, -5.507887732184347129 ) ) ;
#773 =( GEOMETRIC_REPRESENTATION_CONTEXT ( 3 ) GLOBAL_UNCERTAINTY_ASSIGNED_CONTEXT ( ( #554 ) ) GLOBAL_UNIT_ASSIGNED_CONTEXT ( ( #245, #582, #861 ) ) REPRESENTATION_CONTEXT ( 'NONE', 'WORKASPACE' ) );
#774 = AXIS2_PLACEMENT_3D ( 'NONE', #47, #113, #179 ) ;
#775 = FACE_OUTER_BOUND ( 'NONE', #492, .T. ) ;
#776 = CARTESIAN_POINT ( 'NONE',  ( 5.776448097639781842, 10.54101324927951033, -6.341648106123818351 ) ) ;
#777 = CIRCLE ( 'NONE', #398, 9.000000000000001776 ) ;
#778 = AXIS2_PLACEMENT_3D ( 'NONE', #78, #809, #395 ) ;
#779 = CARTESIAN_POINT ( 'NONE',  ( -1.000000000000000888, 20.00000000000000000, -21.00000000000000000 ) ) ;
#780 = CARTESIAN_POINT ( 'NONE',  ( 10.39277784695943296, 14.23592466531656875, -11.84212329507187889 ) ) ;
#781 = SURFACE_STYLE_FILL_AREA ( #454 ) ;
#782 = PLANE ( 'NONE',  #707 ) ;
#783 = ADVANCED_FACE ( 'NONE', ( #679 ), #626, .T. ) ;
#784 = EDGE_CURVE ( 'NONE', #129, #670, #502, .T. ) ;
#785 = CARTESIAN_POINT ( 'NONE',  ( 13.76710492637992012, 11.98331844067304708, -8.045483618795216785 ) ) ;
#786 = CIRCLE ( 'NONE', #341, 8.000000000000000000 ) ;
#787 = DIRECTION ( 'NONE',  ( -0.000000000000000000, -0.000000000000000000, -1.000000000000000000 ) ) ;
#788 = ORIENTED_EDGE ( 'NONE', *, *, #351, .F. ) ;
#789 = CIRCLE ( 'NONE', #254, 4.000000000000000000 ) ;
#790 = LINE ( 'NONE', #118, #475 ) ;
#791 = CARTESIAN_POINT ( 'NONE',  ( 10.99817184705872641, 14.13542700695241194, -9.335934133776103039 ) ) ;
#792 = CARTESIAN_POINT ( 'NONE',  ( 10.00000000000000178, 10.00000000000000178, 4.000000000000000000 ) ) ;
#793 = ORIENTED_EDGE ( 'NONE', *, *, #832, .T. ) ;
#794 = CARTESIAN_POINT ( 'NONE',  ( 10.20310875969218323, 14.24963438078326483, -11.87265806746979280 ) ) ;
#795 = VERTEX_POINT ( 'NONE', #290 ) ;
#796 = EDGE_CURVE ( 'NONE', #267, #122, #91, .T. ) ;
#797 = CARTESIAN_POINT ( 'NONE',  ( 10.00000000000000000, 17.50000000000000000, -8.099999999999999645 ) ) ;
#798 = CARTESIAN_POINT ( 'NONE',  ( 20.00000000000000000, 0.000000000000000000, 4.000000000000000000 ) ) ;
#799 = ORIENTED_EDGE ( 'NONE', *, *, #529, .F. ) ;
#800 = CARTESIAN_POINT ( 'NONE',  ( 6.441141046139316373, 7.661488724691544405, -3.834582257620127610 ) ) ;
#801 = ORIENTED_EDGE ( 'NONE', *, *, #200, .T. ) ;
#802 = CARTESIAN_POINT ( 'NONE',  ( 2.000000000000000000, 10.00000000000000178, 4.000000000000000000 ) ) ;
#803 = CARTESIAN_POINT ( 'NONE',  ( 12.89694686243465682, 13.11021018590376386, -5.694658640762463087 ) ) ;
#804 = CARTESIAN_POINT ( 'NONE',  ( -1.000000000000000000, 0.000000000000000000, -0.5000000000000004441 ) ) ;
#805 = ORIENTED_EDGE ( 'NONE', *, *, #817, .F. ) ;
#806 = CARTESIAN_POINT ( 'NONE',  ( 6.070164898340693505, 8.362252977571504431, -4.359376321073604288 ) ) ;
#807 = ORIENTED_EDGE ( 'NONE', *, *, #593, .F. ) ;
#808 = CARTESIAN_POINT ( 'NONE',  ( 10.00000000000000000, 20.00000000000000000, -4.899999999999999467 ) ) ;
#809 = DIRECTION ( 'NONE',  ( -0.000000000000000000, -0.000000000000000000, 1.000000000000000000 ) ) ;
#810 = LINE ( 'NONE', #712, #442 ) ;
#811 = VERTEX_POINT ( 'NONE', #436 ) ;
#812 = ORIENTED_EDGE ( 'NONE', *, *, #845, .T. ) ;
#813 = DIRECTION ( 'NONE',  ( -1.000000000000000000, 0.000000000000000000, 0.000000000000000000 ) ) ;
#814 = DIRECTION ( 'NONE',  ( 0.000000000000000000, 1.734723475976807094E-15, 1.000000000000000000 ) ) ;
#815 = DIRECTION ( 'NONE',  ( -1.000000000000000000, 0.000000000000000000, 0.000000000000000000 ) ) ;
#816 =( LENGTH_UNIT ( ) NAMED_UNIT ( * ) SI_UNIT ( .MILLI., .METRE. ) );
#817 = EDGE_CURVE ( 'NONE', #750, #765, #180, .T. ) ;
#818 = EDGE_CURVE ( 'NONE', #573, #476, #683, .T. ) ;
#819 = CARTESIAN_POINT ( 'NONE',  ( 10.00000000000000178, 10.00000000000000178, 4.000000000000000000 ) ) ;
#820 = VECTOR ( 'NONE', #432, 1000.000000000000000 ) ;
#821 = VERTEX_POINT ( 'NONE', #575 ) ;
#822 = CARTESIAN_POINT ( 'NONE',  ( 0.000000000000000000, 0.000000000000000000, 4.000000000000000000 ) ) ;
#823 = VECTOR ( 'NONE', #391, 1000.000000000000000 ) ;
#824 = CARTESIAN_POINT ( 'NONE',  ( 0.000000000000000000, 0.000000000000000000, -1.000000000000000000 ) ) ;
#825 = CARTESIAN_POINT ( 'NONE',  ( -1.000000000000000000, 19.99999999999999645, -20.99999999999999289 ) ) ;
#826 = DIRECTION ( 'NONE',  ( 0.000000000000000000, 0.000000000000000000, -1.000000000000000000 ) ) ;
#827 = ORIENTED_EDGE ( 'NONE', *, *, #796, .T. ) ;
#828 = CARTESIAN_POINT ( 'NONE',  ( 19.00000000000000355, 10.00000000000000355, 5.500000000000000000 ) ) ;
#829 = AXIS2_PLACEMENT_3D ( 'NONE', #737, #402, #751 ) ;
#830 = CARTESIAN_POINT ( 'NONE',  ( -1.000000000000000000, 0.000000000000000000, -0.5000000000000004441 ) ) ;
#831 = AXIS2_PLACEMENT_3D ( 'NONE', #824, #538, #610 ) ;
#832 = EDGE_CURVE ( 'NONE', #225, #698, #639, .T. ) ;
#833 = CARTESIAN_POINT ( 'NONE',  ( 10.00000000000000178, 10.00000000000000178, 0.000000000000000000 ) ) ;
#834 = ORIENTED_EDGE ( 'NONE', *, *, #637, .T. ) ;
#835 = AXIS2_PLACEMENT_3D ( 'NONE', #681, #753, #89 ) ;
#836 = EDGE_LOOP ( 'NONE', ( #498, #549 ) ) ;
#837 = CARTESIAN_POINT ( 'NONE',  ( 10.00000000000000178, 10.00000000000000178, 0.000000000000000000 ) ) ;
#838 = ADVANCED_FACE ( 'NONE', ( #775 ), #37, .F. ) ;
#839 = DIRECTION ( 'NONE',  ( 0.000000000000000000, 0.000000000000000000, 1.000000000000000000 ) ) ;
#840 = CARTESIAN_POINT ( 'NONE',  ( 7.153835954333195524, 13.16698501202680305, -9.799830362613677792 ) ) ;
#841 = CARTESIAN_POINT ( 'NONE',  ( 10.00000000000000178, 10.00000000000000178, -21.00000000000000000 ) ) ;
#842 = CARTESIAN_POINT ( 'NONE',  ( 6.236256331865646096, 11.98947197617097338, -8.053715268668900862 ) ) ;
#843 = AXIS2_PLACEMENT_3D ( 'NONE', #546, #675, #278 ) ;
#844 = ADVANCED_FACE ( 'NONE', ( #568 ), #233, .F. ) ;
#845 = EDGE_CURVE ( 'NONE', #672, #821, #300, .T. ) ;
#846 = CARTESIAN_POINT ( 'NONE',  ( 12.59557292027531261, 13.36784788483588216, -8.016141493019379283 ) ) ;
#847 = FACE_OUTER_BOUND ( 'NONE', #496, .T. ) ;
#848 = CARTESIAN_POINT ( 'NONE',  ( 11.41655466698187560, 14.00995121615198791, -11.36005725105906805 ) ) ;
#849 = CYLINDRICAL_SURFACE ( 'NONE', #508, 6.000000000000001776 ) ;
#850 = LINE ( 'NONE', #862, #823 ) ;
#851 = ORIENTED_EDGE ( 'NONE', *, *, #362, .F. ) ;
#852 = CARTESIAN_POINT ( 'NONE',  ( 14.25000000000000355, 10.55225712405812466, -6.337143927597061577 ) ) ;
#853 = DIRECTION ( 'NONE',  ( 0.000000000000000000, 0.000000000000000000, -1.000000000000000000 ) ) ;
#854 = AXIS2_PLACEMENT_3D ( 'NONE', #819, #23, #428 ) ;
#855 = CYLINDRICAL_SURFACE ( 'NONE', #389, 9.000000000000000000 ) ;
#856 = EDGE_CURVE ( 'NONE', #563, #225, #29, .T. ) ;
#857 = EDGE_LOOP ( 'NONE', ( #65, #433 ) ) ;
#858 = CIRCLE ( 'NONE', #524, 19.99999999999999645 ) ;
#859 = CARTESIAN_POINT ( 'NONE',  ( 9.622238803721804956, 14.23729827530417502, -11.84516466056888717 ) ) ;
#860 = EDGE_LOOP ( 'NONE', ( #136, #367 ) ) ;
#861 =( NAMED_UNIT ( * ) SI_UNIT ( $, .STERADIAN. ) SOLID_ANGLE_UNIT ( ) );
#862 = CARTESIAN_POINT ( 'NONE',  ( -1.000000000000000000, 0.000000000000000000, 5.500000000000000000 ) ) ;
#863 = PRODUCT ( 'xbearingholder right', 'xbearingholder right', '', ( #397 ) ) ;
#864 = ORIENTED_EDGE ( 'NONE', *, *, #506, .F. ) ;
#865 = FACE_OUTER_BOUND ( 'NONE', #329, .T. ) ;
#866 = ORIENTED_EDGE ( 'NONE', *, *, #529, .T. ) ;
#867 = CARTESIAN_POINT ( 'NONE',  ( 7.313221961220317091, 13.29447991318826894, -5.151409681837369803 ) ) ;
ENDSEC;
END-ISO-10303-21;
