ISO-10303-21;
HEADER;
FILE_DESCRIPTION (( 'STEP AP214' ),
    '1' );
FILE_NAME ('y bearing holder ender 3v2.STEP',
    '2026-05-02T16:33:22',
    ( '' ),
    ( '' ),
    'SwSTEP 2.0',
    'SolidWorks 2021',
    '' );
FILE_SCHEMA (( 'AUTOMOTIVE_DESIGN' ));
ENDSEC;

DATA;
#1 = AXIS2_PLACEMENT_3D ( 'NONE', #503, #106, #451 ) ;
#2 = DIRECTION ( 'NONE',  ( -0.000000000000000000, -0.000000000000000000, -1.000000000000000000 ) ) ;
#3 = EDGE_LOOP ( 'NONE', ( #484, #438 ) ) ;
#4 = EDGE_CURVE ( 'NONE', #285, #322, #43, .T. ) ;
#5 = DIRECTION ( 'NONE',  ( -0.9308252323746846191, -0.3654646176781201627, 0.000000000000000000 ) ) ;
#6 = CARTESIAN_POINT ( 'NONE',  ( 32.59999999999999432, 10.00000000000000000, -1.000000000000000000 ) ) ;
#7 = CARTESIAN_POINT ( 'NONE',  ( 20.00000000000000000, 34.00000000000000000, -1.000000000000000000 ) ) ;
#8 = DIRECTION ( 'NONE',  ( -0.000000000000000000, -0.000000000000000000, -1.000000000000000000 ) ) ;
#9 = CARTESIAN_POINT ( 'NONE',  ( 27.40000000000000213, 10.00000000000000000, 6.000000000000000000 ) ) ;
#10 = CARTESIAN_POINT ( 'NONE',  ( 20.00000000000000000, 34.00000000000000000, -1.000000000000000000 ) ) ;
#11 = CARTESIAN_POINT ( 'NONE',  ( 0.000000000000000000, 20.00000000000000000, 6.000000000000000000 ) ) ;
#12 = EDGE_CURVE ( 'NONE', #135, #60, #40, .T. ) ;
#13 = EDGE_CURVE ( 'NONE', #105, #312, #359, .T. ) ;
#14 = EDGE_CURVE ( 'NONE', #229, #156, #540, .T. ) ;
#15 = DIRECTION ( 'NONE',  ( 0.000000000000000000, 0.000000000000000000, 1.000000000000000000 ) ) ;
#16 = LINE ( 'NONE', #59, #75 ) ;
#17 = CARTESIAN_POINT ( 'NONE',  ( 27.40000000000000213, 10.00000000000000000, 6.000000000000000000 ) ) ;
#18 = VECTOR ( 'NONE', #403, 1000.000000000000114 ) ;
#19 = EDGE_LOOP ( 'NONE', ( #181, #461 ) ) ;
#20 = AXIS2_PLACEMENT_3D ( 'NONE', #287, #237, #406 ) ;
#21 = EDGE_CURVE ( 'NONE', #282, #549, #355, .T. ) ;
#22 = ORIENTED_EDGE ( 'NONE', *, *, #260, .T. ) ;
#23 = CIRCLE ( 'NONE', #41, 2.599999999999998312 ) ;
#24 = PLANE ( 'NONE',  #254 ) ;
#25 = CARTESIAN_POINT ( 'NONE',  ( 10.50000000000000178, 34.00000000000000000, 6.000000000000000000 ) ) ;
#26 = ORIENTED_EDGE ( 'NONE', *, *, #440, .F. ) ;
#27 = CARTESIAN_POINT ( 'NONE',  ( 7.400000000000000355, 10.00000000000000000, -1.000000000000000000 ) ) ;
#28 = DIRECTION ( 'NONE',  ( -1.000000000000000000, 0.000000000000000000, 0.000000000000000000 ) ) ;
#29 = ORIENTED_EDGE ( 'NONE', *, *, #481, .F. ) ;
#30 = FACE_OUTER_BOUND ( 'NONE', #378, .T. ) ;
#31 = DIRECTION ( 'NONE',  ( 0.000000000000000000, 0.000000000000000000, -1.000000000000000000 ) ) ;
#32 = FACE_OUTER_BOUND ( 'NONE', #433, .T. ) ;
#33 = CARTESIAN_POINT ( 'NONE',  ( 20.00000000000000000, 34.00000000000000000, -1.000000000000000000 ) ) ;
#34 = EDGE_LOOP ( 'NONE', ( #418, #505, #567, #376 ) ) ;
#35 = SURFACE_STYLE_USAGE ( .BOTH. , #424 ) ;
#36 = ORIENTED_EDGE ( 'NONE', *, *, #241, .T. ) ;
#37 =( NAMED_UNIT ( * ) SI_UNIT ( $, .STERADIAN. ) SOLID_ANGLE_UNIT ( ) );
#38 = ORIENTED_EDGE ( 'NONE', *, *, #434, .F. ) ;
#39 = CARTESIAN_POINT ( 'NONE',  ( 32.56614063705824691, 38.93377233865462728, -1.000000000000000000 ) ) ;
#40 = CIRCLE ( 'NONE', #572, 9.499999999999998224 ) ;
#41 = AXIS2_PLACEMENT_3D ( 'NONE', #462, #212, #562 ) ;
#42 = SURFACE_SIDE_STYLE ('',( #266 ) ) ;
#43 = CIRCLE ( 'NONE', #108, 2.599999999999998312 ) ;
#44 = CARTESIAN_POINT ( 'NONE',  ( 29.50000000000000000, 34.00000000000000000, 6.000000000000000000 ) ) ;
#45 = EDGE_CURVE ( 'NONE', #164, #285, #450, .T. ) ;
#46 = LINE ( 'NONE', #197, #83 ) ;
#47 = VERTEX_POINT ( 'NONE', #366 ) ;
#48 = CARTESIAN_POINT ( 'NONE',  ( 10.00000000000000000, 10.00000000000000000, -1.000000000000000000 ) ) ;
#49 = VECTOR ( 'NONE', #371, 1000.000000000000000 ) ;
#50 = DIRECTION ( 'NONE',  ( 0.000000000000000000, 1.000000000000000000, 0.000000000000000000 ) ) ;
#51 = DIRECTION ( 'NONE',  ( -0.000000000000000000, -0.000000000000000000, 1.000000000000000000 ) ) ;
#52 = LINE ( 'NONE', #313, #539 ) ;
#53 = LINE ( 'NONE', #235, #144 ) ;
#54 = CARTESIAN_POINT ( 'NONE',  ( 0.000000000000000000, 0.000000000000000000, 6.000000000000000000 ) ) ;
#55 = DIRECTION ( 'NONE',  ( -0.000000000000000000, -0.000000000000000000, -1.000000000000000000 ) ) ;
#56 = ADVANCED_FACE ( 'NONE', ( #239 ), #276, .F. ) ;
#57 = CARTESIAN_POINT ( 'NONE',  ( 32.59999999999999432, 10.00000000000000000, 6.000000000000000000 ) ) ;
#58 = EDGE_CURVE ( 'NONE', #549, #430, #190, .T. ) ;
#59 = CARTESIAN_POINT ( 'NONE',  ( 26.00000000000000000, 34.00000000000000000, -1.000000000000000000 ) ) ;
#60 = VERTEX_POINT ( 'NONE', #365 ) ;
#61 = LINE ( 'NONE', #548, #150 ) ;
#62 = DIRECTION ( 'NONE',  ( -0.000000000000000000, -0.000000000000000000, -1.000000000000000000 ) ) ;
#63 = VERTEX_POINT ( 'NONE', #494 ) ;
#64 = ORIENTED_EDGE ( 'NONE', *, *, #124, .T. ) ;
#65 = FACE_BOUND ( 'NONE', #251, .T. ) ;
#66 = ORIENTED_EDGE ( 'NONE', *, *, #524, .F. ) ;
#67 = ORIENTED_EDGE ( 'NONE', *, *, #207, .F. ) ;
#68 = DIRECTION ( 'NONE',  ( -0.000000000000000000, -0.000000000000000000, -1.000000000000000000 ) ) ;
#69 = CARTESIAN_POINT ( 'NONE',  ( 30.00000000000000000, 10.00000000000000000, -1.000000000000000000 ) ) ;
#70 = ORIENTED_EDGE ( 'NONE', *, *, #563, .T. ) ;
#71 = ORIENTED_EDGE ( 'NONE', *, *, #124, .F. ) ;
#72 = LINE ( 'NONE', #166, #152 ) ;
#73 = VERTEX_POINT ( 'NONE', #542 ) ;
#74 = VECTOR ( 'NONE', #495, 1000.000000000000000 ) ;
#75 = VECTOR ( 'NONE', #200, 1000.000000000000000 ) ;
#76 = CIRCLE ( 'NONE', #361, 13.50000000000000178 ) ;
#77 = ADVANCED_FACE ( 'NONE', ( #107 ), #501, .F. ) ;
#78 = CARTESIAN_POINT ( 'NONE',  ( 0.000000000000000000, 0.000000000000000000, -1.000000000000000000 ) ) ;
#79 = ORIENTED_EDGE ( 'NONE', *, *, #466, .F. ) ;
#80 = VERTEX_POINT ( 'NONE', #504 ) ;
#81 = CIRCLE ( 'NONE', #20, 5.999999999999998224 ) ;
#82 = FACE_BOUND ( 'NONE', #474, .T. ) ;
#83 = VECTOR ( 'NONE', #184, 1000.000000000000000 ) ;
#84 = DIRECTION ( 'NONE',  ( -1.000000000000000000, 0.000000000000000000, 0.000000000000000000 ) ) ;
#85 = CARTESIAN_POINT ( 'NONE',  ( 40.00000000000000000, 0.000000000000000000, 6.000000000000000000 ) ) ;
#86 = DIRECTION ( 'NONE',  ( 0.000000000000000000, 0.000000000000000000, 1.000000000000000000 ) ) ;
#87 = FACE_OUTER_BOUND ( 'NONE', #248, .T. ) ;
#88 = ORIENTED_EDGE ( 'NONE', *, *, #233, .F. ) ;
#89 = SURFACE_STYLE_USAGE ( .BOTH. , #42 ) ;
#90 = CIRCLE ( 'NONE', #215, 5.999999999999998224 ) ;
#91 = CARTESIAN_POINT ( 'NONE',  ( 29.50000000000000000, 34.00000000000000000, 0.000000000000000000 ) ) ;
#92 = FACE_OUTER_BOUND ( 'NONE', #211, .T. ) ;
#93 =( GEOMETRIC_REPRESENTATION_CONTEXT ( 3 ) GLOBAL_UNCERTAINTY_ASSIGNED_CONTEXT ( ( #380 ) ) GLOBAL_UNIT_ASSIGNED_CONTEXT ( ( #154, #468, #37 ) ) REPRESENTATION_CONTEXT ( 'NONE', 'WORKASPACE' ) );
#94 = DIRECTION ( 'NONE',  ( 0.000000000000000000, 0.000000000000000000, -1.000000000000000000 ) ) ;
#95 = DIRECTION ( 'NONE',  ( -1.000000000000000000, 0.000000000000000000, 0.000000000000000000 ) ) ;
#96 = DIRECTION ( 'NONE',  ( 1.000000000000000000, 0.000000000000000000, 0.000000000000000000 ) ) ;
#97 = EDGE_CURVE ( 'NONE', #80, #294, #81, .T. ) ;
#98 = AXIS2_PLACEMENT_3D ( 'NONE', #454, #62, #413 ) ;
#99 = AXIS2_PLACEMENT_3D ( 'NONE', #48, #224, #84 ) ;
#100 = AXIS2_PLACEMENT_3D ( 'NONE', #167, #514, #218 ) ;
#101 = EDGE_CURVE ( 'NONE', #73, #282, #284, .T. ) ;
#102 = ORIENTED_EDGE ( 'NONE', *, *, #101, .F. ) ;
#103 = CARTESIAN_POINT ( 'NONE',  ( 40.00000000000000000, 20.00000000000000000, -1.000000000000000000 ) ) ;
#104 = CARTESIAN_POINT ( 'NONE',  ( 10.00000000000000000, 10.00000000000000000, 6.000000000000000000 ) ) ;
#105 = VERTEX_POINT ( 'NONE', #91 ) ;
#106 = DIRECTION ( 'NONE',  ( 0.000000000000000000, 1.000000000000000000, 0.000000000000000000 ) ) ;
#107 = FACE_OUTER_BOUND ( 'NONE', #34, .T. ) ;
#108 = AXIS2_PLACEMENT_3D ( 'NONE', #232, #94, #536 ) ;
#109 = ORIENTED_EDGE ( 'NONE', *, *, #348, .F. ) ;
#110 = VECTOR ( 'NONE', #118, 1000.000000000000000 ) ;
#111 = CARTESIAN_POINT ( 'NONE',  ( 20.00000000000000000, 34.00000000000000000, 6.000000000000000000 ) ) ;
#112 = ORIENTED_EDGE ( 'NONE', *, *, #264, .T. ) ;
#113 = VERTEX_POINT ( 'NONE', #9 ) ;
#114 = EDGE_CURVE ( 'NONE', #156, #290, #347, .T. ) ;
#115 = DIRECTION ( 'NONE',  ( 0.000000000000000000, 0.000000000000000000, -1.000000000000000000 ) ) ;
#116 = LINE ( 'NONE', #78, #110 ) ;
#117 = PRESENTATION_STYLE_ASSIGNMENT (( #35 ) ) ;
#118 = DIRECTION ( 'NONE',  ( 0.000000000000000000, 1.000000000000000000, 0.000000000000000000 ) ) ;
#119 =( NAMED_UNIT ( * ) SI_UNIT ( $, .STERADIAN. ) SOLID_ANGLE_UNIT ( ) );
#120 = ORIENTED_EDGE ( 'NONE', *, *, #13, .F. ) ;
#121 = AXIS2_PLACEMENT_3D ( 'NONE', #317, #354, #96 ) ;
#122 = LINE ( 'NONE', #39, #306 ) ;
#123 = AXIS2_PLACEMENT_3D ( 'NONE', #171, #334, #513 ) ;
#124 = EDGE_CURVE ( 'NONE', #60, #135, #131, .T. ) ;
#125 = FILL_AREA_STYLE ('',( #425 ) ) ;
#126 = ORIENTED_EDGE ( 'NONE', *, *, #12, .F. ) ;
#127 = APPLICATION_PROTOCOL_DEFINITION ( 'draft international standard', 'automotive_design', 1998, #337 ) ;
#128 = CARTESIAN_POINT ( 'NONE',  ( 32.56614063705824691, 38.93377233865462728, 6.000000000000000000 ) ) ;
#129 =( NAMED_UNIT ( * ) PLANE_ANGLE_UNIT ( ) SI_UNIT ( $, .RADIAN. ) );
#130 = ORIENTED_EDGE ( 'NONE', *, *, #4, .F. ) ;
#131 = CIRCLE ( 'NONE', #488, 9.499999999999998224 ) ;
#132 = VECTOR ( 'NONE', #529, 1000.000000000000000 ) ;
#133 = PRESENTATION_LAYER_ASSIGNMENT (  '', '', ( #547 ) ) ;
#134 = DIRECTION ( 'NONE',  ( 0.000000000000000000, 0.000000000000000000, -1.000000000000000000 ) ) ;
#135 = VERTEX_POINT ( 'NONE', #25 ) ;
#136 = DIRECTION ( 'NONE',  ( -1.000000000000000000, 0.000000000000000000, 0.000000000000000000 ) ) ;
#137 = LINE ( 'NONE', #351, #560 ) ;
#138 = ORIENTED_EDGE ( 'NONE', *, *, #386, .T. ) ;
#139 = LINE ( 'NONE', #432, #423 ) ;
#140 = DIRECTION ( 'NONE',  ( 0.000000000000000000, 0.000000000000000000, -1.000000000000000000 ) ) ;
#141 = CARTESIAN_POINT ( 'NONE',  ( 27.40000000000000213, 10.00000000000000000, -1.000000000000000000 ) ) ;
#142 = DIRECTION ( 'NONE',  ( -0.000000000000000000, -0.000000000000000000, -1.000000000000000000 ) ) ;
#143 = CIRCLE ( 'NONE', #278, 2.600000000000000089 ) ;
#144 = VECTOR ( 'NONE', #523, 1000.000000000000000 ) ;
#145 = LINE ( 'NONE', #274, #528 ) ;
#146 = DIRECTION ( 'NONE',  ( 1.000000000000000000, 0.000000000000000000, 0.000000000000000000 ) ) ;
#147 = DIRECTION ( 'NONE',  ( 0.3654646176781202183, 0.9308252323746845081, 0.000000000000000000 ) ) ;
#148 = ADVANCED_FACE ( 'NONE', ( #508 ), #192, .F. ) ;
#149 = DIRECTION ( 'NONE',  ( -1.000000000000000000, 0.000000000000000000, 0.000000000000000000 ) ) ;
#150 = VECTOR ( 'NONE', #323, 1000.000000000000000 ) ;
#151 = ORIENTED_EDGE ( 'NONE', *, *, #101, .T. ) ;
#152 = VECTOR ( 'NONE', #68, 1000.000000000000000 ) ;
#153 = CARTESIAN_POINT ( 'NONE',  ( 20.00000000000000000, 34.00000000000000000, 0.000000000000000000 ) ) ;
#154 =( LENGTH_UNIT ( ) NAMED_UNIT ( * ) SI_UNIT ( .MILLI., .METRE. ) );
#155 = ORIENTED_EDGE ( 'NONE', *, *, #21, .F. ) ;
#156 = VERTEX_POINT ( 'NONE', #27 ) ;
#157 = FACE_OUTER_BOUND ( 'NONE', #455, .T. ) ;
#158 = DIRECTION ( 'NONE',  ( 0.000000000000000000, 0.000000000000000000, -1.000000000000000000 ) ) ;
#159 = VERTEX_POINT ( 'NONE', #537 ) ;
#160 = EDGE_LOOP ( 'NONE', ( #502, #396 ) ) ;
#161 = DIRECTION ( 'NONE',  ( -1.000000000000000000, 0.000000000000000000, 0.000000000000000000 ) ) ;
#162 = EDGE_CURVE ( 'NONE', #159, #229, #143, .T. ) ;
#163 = ORIENTED_EDGE ( 'NONE', *, *, #260, .F. ) ;
#164 = VERTEX_POINT ( 'NONE', #448 ) ;
#165 = AXIS2_PLACEMENT_3D ( 'NONE', #482, #86, #398 ) ;
#166 = CARTESIAN_POINT ( 'NONE',  ( 0.000000000000000000, 0.000000000000000000, 6.000000000000000000 ) ) ;
#167 = CARTESIAN_POINT ( 'NONE',  ( 20.00000000000000000, 34.00000000000000000, 6.000000000000000000 ) ) ;
#168 = DIRECTION ( 'NONE',  ( 1.000000000000000000, 0.000000000000000000, 0.000000000000000000 ) ) ;
#169 = ADVANCED_FACE ( 'NONE', ( #459 ), #319, .F. ) ;
#170 = EDGE_LOOP ( 'NONE', ( #383, #250, #112, #465, #521, #151 ) ) ;
#171 = CARTESIAN_POINT ( 'NONE',  ( 30.00000000000000000, 10.00000000000000000, 6.000000000000000000 ) ) ;
#172 = CARTESIAN_POINT ( 'NONE',  ( 10.00000000000000000, 10.00000000000000000, 6.000000000000000000 ) ) ;
#173 = UNCERTAINTY_MEASURE_WITH_UNIT (LENGTH_MEASURE( 1.000000000000000082E-05 ), #180, 'distance_accuracy_value', 'NONE');
#174 = ORIENTED_EDGE ( 'NONE', *, *, #213, .F. ) ;
#175 = PRODUCT_DEFINITION ( 'UNKNOWN', '', #332, #204 ) ;
#176 = DIRECTION ( 'NONE',  ( 0.000000000000000000, 0.000000000000000000, 1.000000000000000000 ) ) ;
#177 = VERTEX_POINT ( 'NONE', #552 ) ;
#178 = AXIS2_PLACEMENT_3D ( 'NONE', #111, #463, #291 ) ;
#179 = FACE_OUTER_BOUND ( 'NONE', #367, .T. ) ;
#180 =( LENGTH_UNIT ( ) NAMED_UNIT ( * ) SI_UNIT ( .MILLI., .METRE. ) );
#181 = ORIENTED_EDGE ( 'NONE', *, *, #392, .T. ) ;
#182 = FACE_BOUND ( 'NONE', #199, .T. ) ;
#183 = ADVANCED_FACE ( 'NONE', ( #65, #416, #208, #379 ), #555, .T. ) ;
#184 = DIRECTION ( 'NONE',  ( -0.000000000000000000, -0.000000000000000000, -1.000000000000000000 ) ) ;
#185 = CARTESIAN_POINT ( 'NONE',  ( 40.00000000000000000, 0.000000000000000000, -1.000000000000000000 ) ) ;
#186 = ORIENTED_EDGE ( 'NONE', *, *, #531, .F. ) ;
#187 = EDGE_CURVE ( 'NONE', #330, #566, #487, .T. ) ;
#188 = CARTESIAN_POINT ( 'NONE',  ( 7.400000000000000355, 10.00000000000000000, 6.000000000000000000 ) ) ;
#189 = CARTESIAN_POINT ( 'NONE',  ( 10.50000000000000178, 34.00000000000000000, 0.000000000000000000 ) ) ;
#190 = LINE ( 'NONE', #490, #470 ) ;
#191 = DIRECTION ( 'NONE',  ( 0.3654646176781201072, -0.9308252323746845081, 0.000000000000000000 ) ) ;
#192 = CYLINDRICAL_SURFACE ( 'NONE', #410, 2.600000000000000089 ) ;
#193 = CYLINDRICAL_SURFACE ( 'NONE', #497, 9.499999999999998224 ) ;
#194 = DIRECTION ( 'NONE',  ( 0.000000000000000000, 0.000000000000000000, 1.000000000000000000 ) ) ;
#195 = AXIS2_PLACEMENT_3D ( 'NONE', #328, #363, #245 ) ;
#196 = CARTESIAN_POINT ( 'NONE',  ( 20.00000000000000000, 34.00000000000000000, 6.000000000000000000 ) ) ;
#197 = CARTESIAN_POINT ( 'NONE',  ( 12.59999999999999964, 10.00000000000000000, 6.000000000000000000 ) ) ;
#198 = DIRECTION ( 'NONE',  ( -0.000000000000000000, -0.000000000000000000, -1.000000000000000000 ) ) ;
#199 = EDGE_LOOP ( 'NONE', ( #286, #417 ) ) ;
#200 = DIRECTION ( 'NONE',  ( -0.000000000000000000, -0.000000000000000000, 1.000000000000000000 ) ) ;
#201 = AXIS2_PLACEMENT_3D ( 'NONE', #267, #134, #364 ) ;
#202 = ORIENTED_EDGE ( 'NONE', *, *, #45, .F. ) ;
#203 = DIRECTION ( 'NONE',  ( 1.000000000000000000, 0.000000000000000000, 0.000000000000000000 ) ) ;
#204 = PRODUCT_DEFINITION_CONTEXT ( 'detailed design', #397, 'design' ) ;
#205 = EDGE_LOOP ( 'NONE', ( #326, #516, #309, #480 ) ) ;
#206 = ORIENTED_EDGE ( 'NONE', *, *, #162, .T. ) ;
#207 = EDGE_CURVE ( 'NONE', #329, #377, #53, .T. ) ;
#208 = FACE_BOUND ( 'NONE', #259, .T. ) ;
#209 = LINE ( 'NONE', #17, #49 ) ;
#210 = EDGE_LOOP ( 'NONE', ( #202, #414, #325, #382 ) ) ;
#211 = EDGE_LOOP ( 'NONE', ( #22, #214, #67, #530 ) ) ;
#212 = DIRECTION ( 'NONE',  ( 0.000000000000000000, 0.000000000000000000, 1.000000000000000000 ) ) ;
#213 = EDGE_CURVE ( 'NONE', #570, #80, #344, .T. ) ;
#214 = ORIENTED_EDGE ( 'NONE', *, *, #301, .F. ) ;
#215 = AXIS2_PLACEMENT_3D ( 'NONE', #10, #358, #538 ) ;
#216 = CYLINDRICAL_SURFACE ( 'NONE', #394, 2.600000000000000089 ) ;
#217 = ORIENTED_EDGE ( 'NONE', *, *, #447, .T. ) ;
#218 = DIRECTION ( 'NONE',  ( -1.000000000000000000, 0.000000000000000000, 0.000000000000000000 ) ) ;
#219 = ORIENTED_EDGE ( 'NONE', *, *, #58, .T. ) ;
#220 = CARTESIAN_POINT ( 'NONE',  ( 40.00000000000000000, 20.00000000000000000, 6.000000000000000000 ) ) ;
#221 = VERTEX_POINT ( 'NONE', #185 ) ;
#222 = MECHANICAL_DESIGN_GEOMETRIC_PRESENTATION_REPRESENTATION (  '', ( #457 ), #360 ) ;
#223 = ORIENTED_EDGE ( 'NONE', *, *, #550, .F. ) ;
#224 = DIRECTION ( 'NONE',  ( 0.000000000000000000, 0.000000000000000000, -1.000000000000000000 ) ) ;
#225 = ADVANCED_FACE ( 'NONE', ( #234 ), #226, .F. ) ;
#226 = PLANE ( 'NONE',  #507 ) ;
#227 = EDGE_CURVE ( 'NONE', #290, #156, #321, .T. ) ;
#228 = CARTESIAN_POINT ( 'NONE',  ( 0.000000000000000000, 20.00000000000000000, 6.000000000000000000 ) ) ;
#229 = VERTEX_POINT ( 'NONE', #188 ) ;
#230 = CIRCLE ( 'NONE', #546, 2.599999999999998312 ) ;
#231 = DIRECTION ( 'NONE',  ( -1.000000000000000000, 0.000000000000000000, 0.000000000000000000 ) ) ;
#232 = CARTESIAN_POINT ( 'NONE',  ( 30.00000000000000000, 10.00000000000000000, -1.000000000000000000 ) ) ;
#233 = EDGE_CURVE ( 'NONE', #221, #47, #52, .T. ) ;
#234 = FACE_OUTER_BOUND ( 'NONE', #426, .T. ) ;
#235 = CARTESIAN_POINT ( 'NONE',  ( 40.00000000000000000, 20.00000000000000000, 6.000000000000000000 ) ) ;
#236 = CARTESIAN_POINT ( 'NONE',  ( 40.00000000000000000, 20.00000000000000000, 6.000000000000000000 ) ) ;
#237 = DIRECTION ( 'NONE',  ( 0.000000000000000000, 0.000000000000000000, -1.000000000000000000 ) ) ;
#238 = LINE ( 'NONE', #492, #132 ) ;
#239 = FACE_OUTER_BOUND ( 'NONE', #296, .T. ) ;
#240 = COLOUR_RGB ( '',0.7921568627450980005, 0.8196078431372548767, 0.9333333333333333481 ) ;
#241 = EDGE_CURVE ( 'NONE', #135, #312, #356, .T. ) ;
#242 = UNCERTAINTY_MEASURE_WITH_UNIT (LENGTH_MEASURE( 1.000000000000000082E-05 ), #395, 'distance_accuracy_value', 'NONE');
#243 = ORIENTED_EDGE ( 'NONE', *, *, #97, .F. ) ;
#244 = CARTESIAN_POINT ( 'NONE',  ( 30.00000000000000000, 10.00000000000000000, 6.000000000000000000 ) ) ;
#245 = DIRECTION ( 'NONE',  ( 1.000000000000000000, 0.000000000000000000, 0.000000000000000000 ) ) ;
#246 = CIRCLE ( 'NONE', #269, 13.50000000000000533 ) ;
#247 = EDGE_LOOP ( 'NONE', ( #29, #64, #36, #120 ) ) ;
#248 = EDGE_LOOP ( 'NONE', ( #561, #333 ) ) ;
#249 = DIRECTION ( 'NONE',  ( 0.000000000000000000, 0.000000000000000000, 1.000000000000000000 ) ) ;
#250 = ORIENTED_EDGE ( 'NONE', *, *, #187, .T. ) ;
#251 = EDGE_LOOP ( 'NONE', ( #38, #130 ) ) ;
#252 = DIRECTION ( 'NONE',  ( 1.000000000000000000, 0.000000000000000000, 0.000000000000000000 ) ) ;
#253 = SURFACE_STYLE_FILL_AREA ( #125 ) ;
#254 = AXIS2_PLACEMENT_3D ( 'NONE', #458, #551, #374 ) ;
#255 = PRODUCT_DEFINITION_SHAPE ( 'NONE', 'NONE',  #175 ) ;
#256 = CARTESIAN_POINT ( 'NONE',  ( 10.00000000000000000, 10.00000000000000000, 6.000000000000000000 ) ) ;
#257 = ORIENTED_EDGE ( 'NONE', *, *, #550, .T. ) ;
#258 = ADVANCED_FACE ( 'NONE', ( #182, #310, #82, #402 ), #261, .T. ) ;
#259 = EDGE_LOOP ( 'NONE', ( #372, #452 ) ) ;
#260 = EDGE_CURVE ( 'NONE', #566, #221, #139, .T. ) ;
#261 = PLANE ( 'NONE',  #165 ) ;
#262 = ORIENTED_EDGE ( 'NONE', *, *, #419, .T. ) ;
#263 = MANIFOLD_SOLID_BREP ( 'Boss-Extrude2', #292 ) ;
#264 = EDGE_CURVE ( 'NONE', #566, #329, #436, .T. ) ;
#265 = ORIENTED_EDGE ( 'NONE', *, *, #336, .F. ) ;
#266 = SURFACE_STYLE_FILL_AREA ( #268 ) ;
#267 = CARTESIAN_POINT ( 'NONE',  ( 20.00000000000000000, 34.00000000000000000, 0.000000000000000000 ) ) ;
#268 = FILL_AREA_STYLE ('',( #486 ) ) ;
#269 = AXIS2_PLACEMENT_3D ( 'NONE', #299, #343, #149 ) ;
#270 = CARTESIAN_POINT ( 'NONE',  ( 0.000000000000000000, 0.000000000000000000, 6.000000000000000000 ) ) ;
#271 = PLANE ( 'NONE',  #305 ) ;
#272 = DIRECTION ( 'NONE',  ( 1.000000000000000000, 0.000000000000000000, 0.000000000000000000 ) ) ;
#273 = DIRECTION ( 'NONE',  ( -0.000000000000000000, -0.000000000000000000, -1.000000000000000000 ) ) ;
#274 = CARTESIAN_POINT ( 'NONE',  ( 7.433859362941755755, 38.93377233865462728, 6.000000000000000000 ) ) ;
#275 = ADVANCED_FACE ( 'NONE', ( #533 ), #193, .F. ) ;
#276 = CYLINDRICAL_SURFACE ( 'NONE', #385, 5.999999999999998224 ) ;
#277 = EDGE_CURVE ( 'NONE', #159, #290, #46, .T. ) ;
#278 = AXIS2_PLACEMENT_3D ( 'NONE', #375, #357, #146 ) ;
#279 = VECTOR ( 'NONE', #50, 1000.000000000000000 ) ;
#280 = AXIS2_PLACEMENT_3D ( 'NONE', #559, #511, #115 ) ;
#281 = CARTESIAN_POINT ( 'NONE',  ( 14.00000000000000178, 34.00000000000000000, -1.000000000000000000 ) ) ;
#282 = VERTEX_POINT ( 'NONE', #228 ) ;
#283 = DIRECTION ( 'NONE',  ( -1.000000000000000000, 0.000000000000000000, 0.000000000000000000 ) ) ;
#284 = LINE ( 'NONE', #11, #18 ) ;
#285 = VERTEX_POINT ( 'NONE', #6 ) ;
#286 = ORIENTED_EDGE ( 'NONE', *, *, #563, .F. ) ;
#287 = CARTESIAN_POINT ( 'NONE',  ( 20.00000000000000000, 34.00000000000000000, 0.000000000000000000 ) ) ;
#288 = PRESENTATION_LAYER_ASSIGNMENT (  '', '', ( #457 ) ) ;
#289 = ORIENTED_EDGE ( 'NONE', *, *, #466, .T. ) ;
#290 = VERTEX_POINT ( 'NONE', #345 ) ;
#291 = DIRECTION ( 'NONE',  ( -1.000000000000000000, 0.000000000000000000, 0.000000000000000000 ) ) ;
#292 = CLOSED_SHELL ( 'NONE', ( #77, #169, #148, #427, #258, #476, #368, #324, #225, #544, #362, #275, #568, #460, #311, #183, #56 ) ) ;
#293 = EDGE_LOOP ( 'NONE', ( #217, #400, #469, #346 ) ) ;
#294 = VERTEX_POINT ( 'NONE', #483 ) ;
#295 = CARTESIAN_POINT ( 'NONE',  ( 7.433859362941755755, 38.93377233865462728, -1.000000000000000000 ) ) ;
#296 = EDGE_LOOP ( 'NONE', ( #174, #262, #138, #243 ) ) ;
#297 = FACE_OUTER_BOUND ( 'NONE', #210, .T. ) ;
#298 = AXIS2_PLACEMENT_3D ( 'NONE', #33, #158, #28 ) ;
#299 = CARTESIAN_POINT ( 'NONE',  ( 20.00000000000000000, 34.00000000000000000, -1.000000000000000000 ) ) ;
#300 = ORIENTED_EDGE ( 'NONE', *, *, #389, .F. ) ;
#301 = EDGE_CURVE ( 'NONE', #377, #221, #137, .T. ) ;
#302 = DIRECTION ( 'NONE',  ( 0.3654646176781201627, -0.9308252323746845081, 0.000000000000000000 ) ) ;
#303 = CARTESIAN_POINT ( 'NONE',  ( 40.00000000000000000, 20.00000000000000000, 6.000000000000000000 ) ) ;
#304 = ORIENTED_EDGE ( 'NONE', *, *, #277, .T. ) ;
#305 = AXIS2_PLACEMENT_3D ( 'NONE', #445, #308, #543 ) ;
#306 = VECTOR ( 'NONE', #302, 1000.000000000000114 ) ;
#307 = DIRECTION ( 'NONE',  ( 0.000000000000000000, 0.000000000000000000, 1.000000000000000000 ) ) ;
#308 = DIRECTION ( 'NONE',  ( -1.000000000000000000, 0.000000000000000000, 0.000000000000000000 ) ) ;
#309 = ORIENTED_EDGE ( 'NONE', *, *, #320, .F. ) ;
#310 = FACE_OUTER_BOUND ( 'NONE', #170, .T. ) ;
#311 = ADVANCED_FACE ( 'NONE', ( #399, #87 ), #449, .F. ) ;
#312 = VERTEX_POINT ( 'NONE', #189 ) ;
#313 = CARTESIAN_POINT ( 'NONE',  ( 40.00000000000000000, 0.000000000000000000, -1.000000000000000000 ) ) ;
#314 = DIRECTION ( 'NONE',  ( -1.000000000000000000, 0.000000000000000000, -0.000000000000000000 ) ) ;
#315 = CARTESIAN_POINT ( 'NONE',  ( 0.000000000000000000, 20.00000000000000000, 6.000000000000000000 ) ) ;
#316 = DIRECTION ( 'NONE',  ( 0.000000000000000000, 0.000000000000000000, -1.000000000000000000 ) ) ;
#317 = CARTESIAN_POINT ( 'NONE',  ( 20.00000000000000000, 34.00000000000000000, 0.000000000000000000 ) ) ;
#318 = DIRECTION ( 'NONE',  ( 1.000000000000000000, 0.000000000000000000, 0.000000000000000000 ) ) ;
#319 = CYLINDRICAL_SURFACE ( 'NONE', #98, 2.599999999999998312 ) ;
#320 = EDGE_CURVE ( 'NONE', #312, #105, #408, .T. ) ;
#321 = CIRCLE ( 'NONE', #99, 2.600000000000000089 ) ;
#322 = VERTEX_POINT ( 'NONE', #141 ) ;
#323 = DIRECTION ( 'NONE',  ( -0.000000000000000000, -0.000000000000000000, -1.000000000000000000 ) ) ;
#324 = ADVANCED_FACE ( 'NONE', ( #92 ), #271, .F. ) ;
#325 = ORIENTED_EDGE ( 'NONE', *, *, #421, .T. ) ;
#326 = ORIENTED_EDGE ( 'NONE', *, *, #12, .T. ) ;
#327 = PLANE ( 'NONE',  #1 ) ;
#328 = CARTESIAN_POINT ( 'NONE',  ( 20.00000000000000000, 34.00000000000000000, -1.000000000000000000 ) ) ;
#329 = VERTEX_POINT ( 'NONE', #236 ) ;
#330 = VERTEX_POINT ( 'NONE', #54 ) ;
#331 = CARTESIAN_POINT ( 'NONE',  ( 10.00000000000000000, 10.00000000000000000, -1.000000000000000000 ) ) ;
#332 = PRODUCT_DEFINITION_FORMATION_WITH_SPECIFIED_SOURCE ( 'ANY', '', #342, .NOT_KNOWN. ) ;
#333 = ORIENTED_EDGE ( 'NONE', *, *, #13, .T. ) ;
#334 = DIRECTION ( 'NONE',  ( -0.000000000000000000, -0.000000000000000000, -1.000000000000000000 ) ) ;
#335 = CARTESIAN_POINT ( 'NONE',  ( 0.000000000000000000, 20.00000000000000000, -1.000000000000000000 ) ) ;
#336 = EDGE_CURVE ( 'NONE', #282, #330, #238, .T. ) ;
#337 = APPLICATION_CONTEXT ( 'automotive_design' ) ;
#338 = EDGE_CURVE ( 'NONE', #63, #570, #90, .T. ) ;
#339 = PRODUCT_CONTEXT ( 'NONE', #337, 'mechanical' ) ;
#340 = ORIENTED_EDGE ( 'NONE', *, *, #389, .T. ) ;
#341 = CYLINDRICAL_SURFACE ( 'NONE', #100, 13.50000000000000533 ) ;
#342 = PRODUCT ( 'y bearing holder ender 3v2', 'y bearing holder ender 3v2', '', ( #339 ) ) ;
#343 = DIRECTION ( 'NONE',  ( 0.000000000000000000, 0.000000000000000000, -1.000000000000000000 ) ) ;
#344 = LINE ( 'NONE', #350, #401 ) ;
#345 = CARTESIAN_POINT ( 'NONE',  ( 12.59999999999999964, 10.00000000000000000, -1.000000000000000000 ) ) ;
#346 = ORIENTED_EDGE ( 'NONE', *, *, #421, .F. ) ;
#347 = CIRCLE ( 'NONE', #506, 2.600000000000000089 ) ;
#348 = EDGE_CURVE ( 'NONE', #73, #430, #145, .T. ) ;
#349 = VECTOR ( 'NONE', #393, 1000.000000000000114 ) ;
#350 = CARTESIAN_POINT ( 'NONE',  ( 14.00000000000000178, 34.00000000000000000, -1.000000000000000000 ) ) ;
#351 = CARTESIAN_POINT ( 'NONE',  ( 40.00000000000000000, 20.00000000000000000, -1.000000000000000000 ) ) ;
#352 = ORIENTED_EDGE ( 'NONE', *, *, #14, .T. ) ;
#353 = CARTESIAN_POINT ( 'NONE',  ( 10.50000000000000178, 34.00000000000000000, 6.000000000000000000 ) ) ;
#354 = DIRECTION ( 'NONE',  ( 0.000000000000000000, 0.000000000000000000, 1.000000000000000000 ) ) ;
#355 = LINE ( 'NONE', #315, #429 ) ;
#356 = LINE ( 'NONE', #353, #369 ) ;
#357 = DIRECTION ( 'NONE',  ( 0.000000000000000000, 0.000000000000000000, 1.000000000000000000 ) ) ;
#358 = DIRECTION ( 'NONE',  ( 0.000000000000000000, 0.000000000000000000, -1.000000000000000000 ) ) ;
#359 = CIRCLE ( 'NONE', #475, 9.499999999999998224 ) ;
#360 =( GEOMETRIC_REPRESENTATION_CONTEXT ( 3 ) GLOBAL_UNCERTAINTY_ASSIGNED_CONTEXT ( ( #242 ) ) GLOBAL_UNIT_ASSIGNED_CONTEXT ( ( #395, #129, #526 ) ) REPRESENTATION_CONTEXT ( 'NONE', 'WORKASPACE' ) );
#361 = AXIS2_PLACEMENT_3D ( 'NONE', #473, #307, #428 ) ;
#362 = ADVANCED_FACE ( 'NONE', ( #453 ), #24, .F. ) ;
#363 = DIRECTION ( 'NONE',  ( -0.000000000000000000, -0.000000000000000000, 1.000000000000000000 ) ) ;
#364 = DIRECTION ( 'NONE',  ( -1.000000000000000000, 0.000000000000000000, -0.000000000000000000 ) ) ;
#365 = CARTESIAN_POINT ( 'NONE',  ( 29.50000000000000000, 34.00000000000000000, 6.000000000000000000 ) ) ;
#366 = CARTESIAN_POINT ( 'NONE',  ( 0.000000000000000000, 0.000000000000000000, -1.000000000000000000 ) ) ;
#367 = EDGE_LOOP ( 'NONE', ( #340, #26, #109, #409 ) ) ;
#368 = ADVANCED_FACE ( 'NONE', ( #157 ), #327, .F. ) ;
#369 = VECTOR ( 'NONE', #534, 1000.000000000000000 ) ;
#370 = DIRECTION ( 'NONE',  ( -0.000000000000000000, -0.000000000000000000, -1.000000000000000000 ) ) ;
#371 = DIRECTION ( 'NONE',  ( -0.000000000000000000, -0.000000000000000000, -1.000000000000000000 ) ) ;
#372 = ORIENTED_EDGE ( 'NONE', *, *, #338, .F. ) ;
#373 = ADVANCED_BREP_SHAPE_REPRESENTATION ( 'y bearing holder ender 3v2', ( #263, #472 ), #93 ) ;
#374 = DIRECTION ( 'NONE',  ( 0.3654646176781202738, 0.9308252323746845081, 0.000000000000000000 ) ) ;
#375 = CARTESIAN_POINT ( 'NONE',  ( 10.00000000000000000, 10.00000000000000000, 6.000000000000000000 ) ) ;
#376 = ORIENTED_EDGE ( 'NONE', *, *, #386, .F. ) ;
#377 = VERTEX_POINT ( 'NONE', #103 ) ;
#378 = EDGE_LOOP ( 'NONE', ( #456, #223, #79, #265 ) ) ;
#379 = FACE_BOUND ( 'NONE', #160, .T. ) ;
#380 = UNCERTAINTY_MEASURE_WITH_UNIT (LENGTH_MEASURE( 1.000000000000000082E-05 ), #154, 'distance_accuracy_value', 'NONE');
#381 = FACE_OUTER_BOUND ( 'NONE', #205, .T. ) ;
#382 = ORIENTED_EDGE ( 'NONE', *, *, #434, .T. ) ;
#383 = ORIENTED_EDGE ( 'NONE', *, *, #336, .T. ) ;
#384 = PLANE ( 'NONE',  #280 ) ;
#385 = AXIS2_PLACEMENT_3D ( 'NONE', #7, #51, #407 ) ;
#386 = EDGE_CURVE ( 'NONE', #63, #294, #16, .T. ) ;
#387 = VECTOR ( 'NONE', #444, 1000.000000000000000 ) ;
#388 = DIRECTION ( 'NONE',  ( -1.000000000000000000, 0.000000000000000000, 0.000000000000000000 ) ) ;
#389 = EDGE_CURVE ( 'NONE', #499, #177, #61, .T. ) ;
#390 = APPLICATION_PROTOCOL_DEFINITION ( 'draft international standard', 'automotive_design', 1998, #397 ) ;
#391 = ORIENTED_EDGE ( 'NONE', *, *, #233, .T. ) ;
#392 = EDGE_CURVE ( 'NONE', #294, #80, #518, .T. ) ;
#393 = DIRECTION ( 'NONE',  ( -0.3654646176781201627, 0.9308252323746845081, 0.000000000000000000 ) ) ;
#394 = AXIS2_PLACEMENT_3D ( 'NONE', #172, #370, #498 ) ;
#395 =( LENGTH_UNIT ( ) NAMED_UNIT ( * ) SI_UNIT ( .MILLI., .METRE. ) );
#396 = ORIENTED_EDGE ( 'NONE', *, *, #227, .F. ) ;
#397 = APPLICATION_CONTEXT ( 'automotive_design' ) ;
#398 = DIRECTION ( 'NONE',  ( 1.000000000000000000, 0.000000000000000000, -0.000000000000000000 ) ) ;
#399 = FACE_BOUND ( 'NONE', #19, .T. ) ;
#400 = ORIENTED_EDGE ( 'NONE', *, *, #45, .T. ) ;
#401 = VECTOR ( 'NONE', #532, 1000.000000000000000 ) ;
#402 = FACE_BOUND ( 'NONE', #3, .T. ) ;
#403 = DIRECTION ( 'NONE',  ( -0.3654646176781203293, -0.9308252323746845081, -0.000000000000000000 ) ) ;
#404 = CARTESIAN_POINT ( 'NONE',  ( 20.00000000000000000, 34.00000000000000000, 6.000000000000000000 ) ) ;
#405 = EDGE_CURVE ( 'NONE', #164, #113, #230, .T. ) ;
#406 = DIRECTION ( 'NONE',  ( -1.000000000000000000, 0.000000000000000000, 0.000000000000000000 ) ) ;
#407 = DIRECTION ( 'NONE',  ( 1.000000000000000000, 0.000000000000000000, 0.000000000000000000 ) ) ;
#408 = CIRCLE ( 'NONE', #121, 9.499999999999998224 ) ;
#409 = ORIENTED_EDGE ( 'NONE', *, *, #479, .F. ) ;
#410 = AXIS2_PLACEMENT_3D ( 'NONE', #104, #273, #161 ) ;
#411 = CIRCLE ( 'NONE', #489, 2.599999999999998312 ) ;
#412 = DIRECTION ( 'NONE',  ( 0.000000000000000000, 0.000000000000000000, 1.000000000000000000 ) ) ;
#413 = DIRECTION ( 'NONE',  ( -1.000000000000000000, 0.000000000000000000, 0.000000000000000000 ) ) ;
#414 = ORIENTED_EDGE ( 'NONE', *, *, #405, .T. ) ;
#415 = ORIENTED_EDGE ( 'NONE', *, *, #58, .F. ) ;
#416 = FACE_OUTER_BOUND ( 'NONE', #558, .T. ) ;
#417 = ORIENTED_EDGE ( 'NONE', *, *, #162, .F. ) ;
#418 = ORIENTED_EDGE ( 'NONE', *, *, #338, .T. ) ;
#419 = EDGE_CURVE ( 'NONE', #570, #63, #442, .T. ) ;
#420 = CYLINDRICAL_SURFACE ( 'NONE', #123, 2.599999999999998312 ) ;
#421 = EDGE_CURVE ( 'NONE', #113, #322, #209, .T. ) ;
#422 = CARTESIAN_POINT ( 'NONE',  ( 40.00000000000000000, 0.000000000000000000, 6.000000000000000000 ) ) ;
#423 = VECTOR ( 'NONE', #8, 1000.000000000000000 ) ;
#424 = SURFACE_SIDE_STYLE ('',( #253 ) ) ;
#425 = FILL_AREA_STYLE_COLOUR ( '', #431 ) ;
#426 = EDGE_LOOP ( 'NONE', ( #509, #66, #300, #186 ) ) ;
#427 = ADVANCED_FACE ( 'NONE', ( #381 ), #556, .F. ) ;
#428 = DIRECTION ( 'NONE',  ( 1.000000000000000000, 0.000000000000000000, 0.000000000000000000 ) ) ;
#429 = VECTOR ( 'NONE', #198, 1000.000000000000000 ) ;
#430 = VERTEX_POINT ( 'NONE', #295 ) ;
#431 = COLOUR_RGB ( '',0.7921568627450980005, 0.8196078431372548767, 0.9333333333333333481 ) ;
#432 = CARTESIAN_POINT ( 'NONE',  ( 40.00000000000000000, 0.000000000000000000, 6.000000000000000000 ) ) ;
#433 = EDGE_LOOP ( 'NONE', ( #554, #206, #352, #464 ) ) ;
#434 = EDGE_CURVE ( 'NONE', #322, #285, #411, .T. ) ;
#435 = LINE ( 'NONE', #44, #520 ) ;
#436 = LINE ( 'NONE', #85, #279 ) ;
#437 = DIRECTION ( 'NONE',  ( 0.000000000000000000, -1.000000000000000000, 0.000000000000000000 ) ) ;
#438 = ORIENTED_EDGE ( 'NONE', *, *, #405, .F. ) ;
#439 = PRESENTATION_STYLE_ASSIGNMENT (( #89 ) ) ;
#440 = EDGE_CURVE ( 'NONE', #430, #177, #246, .T. ) ;
#441 = CARTESIAN_POINT ( 'NONE',  ( 20.00000000000000000, 34.00000000000000000, 0.000000000000000000 ) ) ;
#442 = CIRCLE ( 'NONE', #298, 5.999999999999998224 ) ;
#443 = CIRCLE ( 'NONE', #478, 2.600000000000000089 ) ;
#444 = DIRECTION ( 'NONE',  ( 1.000000000000000000, 0.000000000000000000, 0.000000000000000000 ) ) ;
#445 = CARTESIAN_POINT ( 'NONE',  ( 40.00000000000000000, 0.000000000000000000, 6.000000000000000000 ) ) ;
#446 = PRODUCT_RELATED_PRODUCT_CATEGORY ( 'part', '', ( #342 ) ) ;
#447 = EDGE_CURVE ( 'NONE', #113, #164, #23, .T. ) ;
#448 = CARTESIAN_POINT ( 'NONE',  ( 32.59999999999999432, 10.00000000000000000, 6.000000000000000000 ) ) ;
#449 = PLANE ( 'NONE',  #201 ) ;
#450 = LINE ( 'NONE', #57, #496 ) ;
#451 = DIRECTION ( 'NONE',  ( 0.000000000000000000, -0.000000000000000000, 1.000000000000000000 ) ) ;
#452 = ORIENTED_EDGE ( 'NONE', *, *, #419, .F. ) ;
#453 = FACE_OUTER_BOUND ( 'NONE', #477, .T. ) ;
#454 = CARTESIAN_POINT ( 'NONE',  ( 30.00000000000000000, 10.00000000000000000, 6.000000000000000000 ) ) ;
#455 = EDGE_LOOP ( 'NONE', ( #289, #88, #163, #525 ) ) ;
#456 = ORIENTED_EDGE ( 'NONE', *, *, #21, .T. ) ;
#457 = STYLED_ITEM ( 'NONE', ( #439 ), #263 ) ;
#458 = CARTESIAN_POINT ( 'NONE',  ( 0.000000000000000000, 20.00000000000000000, 6.000000000000000000 ) ) ;
#459 = FACE_OUTER_BOUND ( 'NONE', #293, .T. ) ;
#460 = ADVANCED_FACE ( 'NONE', ( #297 ), #420, .F. ) ;
#461 = ORIENTED_EDGE ( 'NONE', *, *, #97, .T. ) ;
#462 = CARTESIAN_POINT ( 'NONE',  ( 30.00000000000000000, 10.00000000000000000, 6.000000000000000000 ) ) ;
#463 = DIRECTION ( 'NONE',  ( -0.000000000000000000, -0.000000000000000000, -1.000000000000000000 ) ) ;
#464 = ORIENTED_EDGE ( 'NONE', *, *, #114, .T. ) ;
#465 = ORIENTED_EDGE ( 'NONE', *, *, #531, .T. ) ;
#466 = EDGE_CURVE ( 'NONE', #330, #47, #72, .T. ) ;
#467 = DIRECTION ( 'NONE',  ( 1.000000000000000000, 0.000000000000000000, 0.000000000000000000 ) ) ;
#468 =( NAMED_UNIT ( * ) PLANE_ANGLE_UNIT ( ) SI_UNIT ( $, .RADIAN. ) );
#469 = ORIENTED_EDGE ( 'NONE', *, *, #4, .T. ) ;
#470 = VECTOR ( 'NONE', #147, 1000.000000000000114 ) ;
#471 = AXIS2_PLACEMENT_3D ( 'NONE', #153, #500, #283 ) ;
#472 = AXIS2_PLACEMENT_3D ( 'NONE', #515, #176, #168 ) ;
#473 = CARTESIAN_POINT ( 'NONE',  ( 20.00000000000000000, 34.00000000000000000, 6.000000000000000000 ) ) ;
#474 = EDGE_LOOP ( 'NONE', ( #126, #71 ) ) ;
#475 = AXIS2_PLACEMENT_3D ( 'NONE', #441, #194, #318 ) ;
#476 = ADVANCED_FACE ( 'NONE', ( #30 ), #384, .F. ) ;
#477 = EDGE_LOOP ( 'NONE', ( #545, #415, #155, #102 ) ) ;
#478 = AXIS2_PLACEMENT_3D ( 'NONE', #256, #564, #467 ) ;
#479 = EDGE_CURVE ( 'NONE', #499, #73, #76, .T. ) ;
#480 = ORIENTED_EDGE ( 'NONE', *, *, #241, .F. ) ;
#481 = EDGE_CURVE ( 'NONE', #60, #105, #435, .T. ) ;
#482 = CARTESIAN_POINT ( 'NONE',  ( 20.00000000000000000, 34.00000000000000000, 6.000000000000000000 ) ) ;
#483 = CARTESIAN_POINT ( 'NONE',  ( 26.00000000000000000, 34.00000000000000000, 0.000000000000000000 ) ) ;
#484 = ORIENTED_EDGE ( 'NONE', *, *, #447, .F. ) ;
#485 = CARTESIAN_POINT ( 'NONE',  ( 20.00000000000000000, 34.00000000000000000, 6.000000000000000000 ) ) ;
#486 = FILL_AREA_STYLE_COLOUR ( '', #240 ) ;
#487 = LINE ( 'NONE', #270, #387 ) ;
#488 = AXIS2_PLACEMENT_3D ( 'NONE', #196, #249, #203 ) ;
#489 = AXIS2_PLACEMENT_3D ( 'NONE', #69, #31, #388 ) ;
#490 = CARTESIAN_POINT ( 'NONE',  ( 0.000000000000000000, 20.00000000000000000, -1.000000000000000000 ) ) ;
#491 = MECHANICAL_DESIGN_GEOMETRIC_PRESENTATION_REPRESENTATION (  '', ( #547 ), #541 ) ;
#492 = CARTESIAN_POINT ( 'NONE',  ( 0.000000000000000000, 0.000000000000000000, 6.000000000000000000 ) ) ;
#493 = CARTESIAN_POINT ( 'NONE',  ( 7.400000000000000355, 10.00000000000000000, 6.000000000000000000 ) ) ;
#494 = CARTESIAN_POINT ( 'NONE',  ( 26.00000000000000000, 34.00000000000000000, -1.000000000000000000 ) ) ;
#495 = DIRECTION ( 'NONE',  ( -0.000000000000000000, -0.000000000000000000, -1.000000000000000000 ) ) ;
#496 = VECTOR ( 'NONE', #142, 1000.000000000000000 ) ;
#497 = AXIS2_PLACEMENT_3D ( 'NONE', #404, #2, #231 ) ;
#498 = DIRECTION ( 'NONE',  ( -1.000000000000000000, 0.000000000000000000, 0.000000000000000000 ) ) ;
#499 = VERTEX_POINT ( 'NONE', #128 ) ;
#500 = DIRECTION ( 'NONE',  ( 0.000000000000000000, 0.000000000000000000, -1.000000000000000000 ) ) ;
#501 = CYLINDRICAL_SURFACE ( 'NONE', #195, 5.999999999999998224 ) ;
#502 = ORIENTED_EDGE ( 'NONE', *, *, #114, .F. ) ;
#503 = CARTESIAN_POINT ( 'NONE',  ( 0.000000000000000000, 0.000000000000000000, 6.000000000000000000 ) ) ;
#504 = CARTESIAN_POINT ( 'NONE',  ( 14.00000000000000178, 34.00000000000000000, 0.000000000000000000 ) ) ;
#505 = ORIENTED_EDGE ( 'NONE', *, *, #213, .T. ) ;
#506 = AXIS2_PLACEMENT_3D ( 'NONE', #331, #316, #95 ) ;
#507 = AXIS2_PLACEMENT_3D ( 'NONE', #303, #5, #191 ) ;
#508 = FACE_OUTER_BOUND ( 'NONE', #553, .T. ) ;
#509 = ORIENTED_EDGE ( 'NONE', *, *, #207, .T. ) ;
#510 = ORIENTED_EDGE ( 'NONE', *, *, #440, .T. ) ;
#511 = DIRECTION ( 'NONE',  ( 1.000000000000000000, 0.000000000000000000, 0.000000000000000000 ) ) ;
#512 =( NAMED_UNIT ( * ) PLANE_ANGLE_UNIT ( ) SI_UNIT ( $, .RADIAN. ) );
#513 = DIRECTION ( 'NONE',  ( -1.000000000000000000, 0.000000000000000000, 0.000000000000000000 ) ) ;
#514 = DIRECTION ( 'NONE',  ( -0.000000000000000000, -0.000000000000000000, -1.000000000000000000 ) ) ;
#515 = CARTESIAN_POINT ( 'NONE',  ( 0.000000000000000000, 0.000000000000000000, 0.000000000000000000 ) ) ;
#516 = ORIENTED_EDGE ( 'NONE', *, *, #481, .T. ) ;
#517 = DIRECTION ( 'NONE',  ( -0.000000000000000000, -0.000000000000000000, -1.000000000000000000 ) ) ;
#518 = CIRCLE ( 'NONE', #471, 5.999999999999998224 ) ;
#519 = SHAPE_DEFINITION_REPRESENTATION ( #255, #373 ) ;
#520 = VECTOR ( 'NONE', #517, 1000.000000000000000 ) ;
#521 = ORIENTED_EDGE ( 'NONE', *, *, #479, .T. ) ;
#522 = ORIENTED_EDGE ( 'NONE', *, *, #301, .T. ) ;
#523 = DIRECTION ( 'NONE',  ( -0.000000000000000000, -0.000000000000000000, -1.000000000000000000 ) ) ;
#524 = EDGE_CURVE ( 'NONE', #177, #377, #122, .T. ) ;
#525 = ORIENTED_EDGE ( 'NONE', *, *, #187, .F. ) ;
#526 =( NAMED_UNIT ( * ) SI_UNIT ( $, .STERADIAN. ) SOLID_ANGLE_UNIT ( ) );
#527 = AXIS2_PLACEMENT_3D ( 'NONE', #535, #140, #314 ) ;
#528 = VECTOR ( 'NONE', #55, 1000.000000000000000 ) ;
#529 = DIRECTION ( 'NONE',  ( -0.000000000000000000, -1.000000000000000000, -0.000000000000000000 ) ) ;
#530 = ORIENTED_EDGE ( 'NONE', *, *, #264, .F. ) ;
#531 = EDGE_CURVE ( 'NONE', #329, #499, #571, .T. ) ;
#532 = DIRECTION ( 'NONE',  ( -0.000000000000000000, -0.000000000000000000, 1.000000000000000000 ) ) ;
#533 = FACE_OUTER_BOUND ( 'NONE', #247, .T. ) ;
#534 = DIRECTION ( 'NONE',  ( -0.000000000000000000, -0.000000000000000000, -1.000000000000000000 ) ) ;
#535 = CARTESIAN_POINT ( 'NONE',  ( 20.00000000000000000, 34.00000000000000000, -1.000000000000000000 ) ) ;
#536 = DIRECTION ( 'NONE',  ( -1.000000000000000000, 0.000000000000000000, 0.000000000000000000 ) ) ;
#537 = CARTESIAN_POINT ( 'NONE',  ( 12.59999999999999964, 10.00000000000000000, 6.000000000000000000 ) ) ;
#538 = DIRECTION ( 'NONE',  ( -1.000000000000000000, 0.000000000000000000, 0.000000000000000000 ) ) ;
#539 = VECTOR ( 'NONE', #136, 1000.000000000000000 ) ;
#540 = LINE ( 'NONE', #493, #74 ) ;
#541 =( GEOMETRIC_REPRESENTATION_CONTEXT ( 3 ) GLOBAL_UNCERTAINTY_ASSIGNED_CONTEXT ( ( #173 ) ) GLOBAL_UNIT_ASSIGNED_CONTEXT ( ( #180, #512, #119 ) ) REPRESENTATION_CONTEXT ( 'NONE', 'WORKASPACE' ) );
#542 = CARTESIAN_POINT ( 'NONE',  ( 7.433859362941755755, 38.93377233865462728, 6.000000000000000000 ) ) ;
#543 = DIRECTION ( 'NONE',  ( 0.000000000000000000, 0.000000000000000000, 1.000000000000000000 ) ) ;
#544 = ADVANCED_FACE ( 'NONE', ( #179 ), #341, .T. ) ;
#545 = ORIENTED_EDGE ( 'NONE', *, *, #348, .T. ) ;
#546 = AXIS2_PLACEMENT_3D ( 'NONE', #244, #412, #252 ) ;
#547 = STYLED_ITEM ( 'NONE', ( #117 ), #373 ) ;
#548 = CARTESIAN_POINT ( 'NONE',  ( 32.56614063705824691, 38.93377233865462728, 6.000000000000000000 ) ) ;
#549 = VERTEX_POINT ( 'NONE', #335 ) ;
#550 = EDGE_CURVE ( 'NONE', #47, #549, #116, .T. ) ;
#551 = DIRECTION ( 'NONE',  ( 0.9308252323746845081, -0.3654646176781202738, 0.000000000000000000 ) ) ;
#552 = CARTESIAN_POINT ( 'NONE',  ( 32.56614063705824691, 38.93377233865462728, -1.000000000000000000 ) ) ;
#553 = EDGE_LOOP ( 'NONE', ( #70, #304, #565, #557 ) ) ;
#554 = ORIENTED_EDGE ( 'NONE', *, *, #277, .F. ) ;
#555 = PLANE ( 'NONE',  #527 ) ;
#556 = CYLINDRICAL_SURFACE ( 'NONE', #178, 9.499999999999998224 ) ;
#557 = ORIENTED_EDGE ( 'NONE', *, *, #14, .F. ) ;
#558 = EDGE_LOOP ( 'NONE', ( #391, #257, #219, #510, #569, #522 ) ) ;
#559 = CARTESIAN_POINT ( 'NONE',  ( 0.000000000000000000, 0.000000000000000000, 6.000000000000000000 ) ) ;
#560 = VECTOR ( 'NONE', #437, 1000.000000000000000 ) ;
#561 = ORIENTED_EDGE ( 'NONE', *, *, #320, .T. ) ;
#562 = DIRECTION ( 'NONE',  ( 1.000000000000000000, 0.000000000000000000, 0.000000000000000000 ) ) ;
#563 = EDGE_CURVE ( 'NONE', #229, #159, #443, .T. ) ;
#564 = DIRECTION ( 'NONE',  ( 0.000000000000000000, 0.000000000000000000, 1.000000000000000000 ) ) ;
#565 = ORIENTED_EDGE ( 'NONE', *, *, #227, .T. ) ;
#566 = VERTEX_POINT ( 'NONE', #422 ) ;
#567 = ORIENTED_EDGE ( 'NONE', *, *, #392, .F. ) ;
#568 = ADVANCED_FACE ( 'NONE', ( #32 ), #216, .F. ) ;
#569 = ORIENTED_EDGE ( 'NONE', *, *, #524, .T. ) ;
#570 = VERTEX_POINT ( 'NONE', #281 ) ;
#571 = LINE ( 'NONE', #220, #349 ) ;
#572 = AXIS2_PLACEMENT_3D ( 'NONE', #485, #15, #272 ) ;
ENDSEC;
END-ISO-10303-21;
