ISO-10303-21;
HEADER;
FILE_DESCRIPTION (( 'STEP AP214' ),
    '1' );
FILE_NAME ('spacer.STEP',
    '2026-04-19T17:23:03',
    ( '' ),
    ( '' ),
    'SwSTEP 2.0',
    'SolidWorks 2021',
    '' );
FILE_SCHEMA (( 'AUTOMOTIVE_DESIGN' ));
ENDSEC;

DATA;
#1 = VERTEX_POINT ( 'NONE', #74 ) ;
#2 = SURFACE_SIDE_STYLE ('',( #4 ) ) ;
#3 = ORIENTED_EDGE ( 'NONE', *, *, #184, .T. ) ;
#4 = SURFACE_STYLE_FILL_AREA ( #60 ) ;
#5 = DIRECTION ( 'NONE',  ( -0.000000000000000000, -0.000000000000000000, -1.000000000000000000 ) ) ;
#6 = CLOSED_SHELL ( 'NONE', ( #120, #65, #20, #181, #203, #197 ) ) ;
#7 = CIRCLE ( 'NONE', #118, 10.00000000000000000 ) ;
#8 = SURFACE_STYLE_FILL_AREA ( #205 ) ;
#9 =( GEOMETRIC_REPRESENTATION_CONTEXT ( 3 ) GLOBAL_UNCERTAINTY_ASSIGNED_CONTEXT ( ( #76 ) ) GLOBAL_UNIT_ASSIGNED_CONTEXT ( ( #107, #138, #177 ) ) REPRESENTATION_CONTEXT ( 'NONE', 'WORKASPACE' ) );
#10 = FACE_OUTER_BOUND ( 'NONE', #90, .T. ) ;
#11 = ORIENTED_EDGE ( 'NONE', *, *, #191, .F. ) ;
#12 = DIRECTION ( 'NONE',  ( -0.000000000000000000, -0.000000000000000000, -1.000000000000000000 ) ) ;
#13 = DIRECTION ( 'NONE',  ( 1.000000000000000000, 0.000000000000000000, 0.000000000000000000 ) ) ;
#14 = CARTESIAN_POINT ( 'NONE',  ( -10.00000000000000000, 0.000000000000000000, 0.000000000000000000 ) ) ;
#15 = EDGE_CURVE ( 'NONE', #33, #144, #32, .T. ) ;
#16 = FACE_OUTER_BOUND ( 'NONE', #53, .T. ) ;
#17 = PRESENTATION_LAYER_ASSIGNMENT (  '', '', ( #111 ) ) ;
#18 = ORIENTED_EDGE ( 'NONE', *, *, #83, .T. ) ;
#19 = ORIENTED_EDGE ( 'NONE', *, *, #113, .F. ) ;
#20 = ADVANCED_FACE ( 'NONE', ( #63, #146 ), #79, .T. ) ;
#21 = LINE ( 'NONE', #200, #178 ) ;
#22 = PRODUCT_CONTEXT ( 'NONE', #171, 'mechanical' ) ;
#23 = EDGE_CURVE ( 'NONE', #144, #174, #21, .T. ) ;
#24 = AXIS2_PLACEMENT_3D ( 'NONE', #67, #140, #192 ) ;
#25 = MANIFOLD_SOLID_BREP ( 'Boss-Extrude1', #6 ) ;
#26 = CARTESIAN_POINT ( 'NONE',  ( 2.500000000000000000, 3.061616997868383141E-16, 0.000000000000000000 ) ) ;
#27 = ORIENTED_EDGE ( 'NONE', *, *, #34, .T. ) ;
#28 = CARTESIAN_POINT ( 'NONE',  ( -10.00000000000000000, 0.000000000000000000, 12.00000000000000000 ) ) ;
#29 = CARTESIAN_POINT ( 'NONE',  ( -2.500000000000000000, 0.000000000000000000, 12.00000000000000000 ) ) ;
#30 =( NAMED_UNIT ( * ) SI_UNIT ( $, .STERADIAN. ) SOLID_ANGLE_UNIT ( ) );
#31 = ORIENTED_EDGE ( 'NONE', *, *, #77, .F. ) ;
#32 = CIRCLE ( 'NONE', #110, 10.00000000000000000 ) ;
#33 = VERTEX_POINT ( 'NONE', #28 ) ;
#34 = EDGE_CURVE ( 'NONE', #144, #33, #55, .T. ) ;
#35 = CARTESIAN_POINT ( 'NONE',  ( -2.500000000000000000, 0.000000000000000000, 12.00000000000000000 ) ) ;
#36 = AXIS2_PLACEMENT_3D ( 'NONE', #150, #119, #154 ) ;
#37 = DIRECTION ( 'NONE',  ( -1.000000000000000000, 0.000000000000000000, 0.000000000000000000 ) ) ;
#38 = ORIENTED_EDGE ( 'NONE', *, *, #15, .F. ) ;
#39 = CARTESIAN_POINT ( 'NONE',  ( 0.000000000000000000, 0.000000000000000000, 0.000000000000000000 ) ) ;
#40 = DIRECTION ( 'NONE',  ( 1.000000000000000000, 0.000000000000000000, 0.000000000000000000 ) ) ;
#41 = DIRECTION ( 'NONE',  ( -0.000000000000000000, -0.000000000000000000, -1.000000000000000000 ) ) ;
#42 = DIRECTION ( 'NONE',  ( -0.000000000000000000, -0.000000000000000000, -1.000000000000000000 ) ) ;
#43 = CYLINDRICAL_SURFACE ( 'NONE', #143, 10.00000000000000000 ) ;
#44 = PRODUCT_DEFINITION ( 'UNKNOWN', '', #214, #196 ) ;
#45 = ORIENTED_EDGE ( 'NONE', *, *, #23, .F. ) ;
#46 = MECHANICAL_DESIGN_GEOMETRIC_PRESENTATION_REPRESENTATION (  '', ( #111 ), #199 ) ;
#47 = EDGE_LOOP ( 'NONE', ( #95, #170, #179, #160 ) ) ;
#48 = CIRCLE ( 'NONE', #24, 2.500000000000000000 ) ;
#49 = DIRECTION ( 'NONE',  ( 1.000000000000000000, 0.000000000000000000, 0.000000000000000000 ) ) ;
#50 =( GEOMETRIC_REPRESENTATION_CONTEXT ( 3 ) GLOBAL_UNCERTAINTY_ASSIGNED_CONTEXT ( ( #206 ) ) GLOBAL_UNIT_ASSIGNED_CONTEXT ( ( #82, #145, #164 ) ) REPRESENTATION_CONTEXT ( 'NONE', 'WORKASPACE' ) );
#51 = EDGE_CURVE ( 'NONE', #1, #142, #147, .T. ) ;
#52 = CYLINDRICAL_SURFACE ( 'NONE', #93, 2.500000000000000000 ) ;
#53 = EDGE_LOOP ( 'NONE', ( #31, #195, #3, #155 ) ) ;
#54 = AXIS2_PLACEMENT_3D ( 'NONE', #182, #127, #98 ) ;
#55 = CIRCLE ( 'NONE', #168, 10.00000000000000000 ) ;
#56 = FACE_OUTER_BOUND ( 'NONE', #94, .T. ) ;
#57 = CYLINDRICAL_SURFACE ( 'NONE', #209, 10.00000000000000000 ) ;
#58 = CARTESIAN_POINT ( 'NONE',  ( 0.000000000000000000, 0.000000000000000000, 12.00000000000000000 ) ) ;
#59 = VERTEX_POINT ( 'NONE', #137 ) ;
#60 = FILL_AREA_STYLE ('',( #96 ) ) ;
#61 = ORIENTED_EDGE ( 'NONE', *, *, #167, .T. ) ;
#62 = PRODUCT_RELATED_PRODUCT_CATEGORY ( 'part', '', ( #104 ) ) ;
#63 = FACE_OUTER_BOUND ( 'NONE', #151, .T. ) ;
#64 = AXIS2_PLACEMENT_3D ( 'NONE', #211, #88, #106 ) ;
#65 = ADVANCED_FACE ( 'NONE', ( #190 ), #57, .T. ) ;
#66 = SURFACE_SIDE_STYLE ('',( #8 ) ) ;
#67 = CARTESIAN_POINT ( 'NONE',  ( 0.000000000000000000, 0.000000000000000000, 12.00000000000000000 ) ) ;
#68 = ORIENTED_EDGE ( 'NONE', *, *, #159, .T. ) ;
#69 = DIRECTION ( 'NONE',  ( 1.000000000000000000, 0.000000000000000000, 0.000000000000000000 ) ) ;
#70 = CARTESIAN_POINT ( 'NONE',  ( 0.000000000000000000, 0.000000000000000000, 0.000000000000000000 ) ) ;
#71 = ORIENTED_EDGE ( 'NONE', *, *, #99, .F. ) ;
#72 = DIRECTION ( 'NONE',  ( 1.000000000000000000, 0.000000000000000000, 0.000000000000000000 ) ) ;
#73 = AXIS2_PLACEMENT_3D ( 'NONE', #70, #136, #40 ) ;
#74 = CARTESIAN_POINT ( 'NONE',  ( -2.500000000000000000, 0.000000000000000000, 0.000000000000000000 ) ) ;
#75 = VERTEX_POINT ( 'NONE', #14 ) ;
#76 = UNCERTAINTY_MEASURE_WITH_UNIT (LENGTH_MEASURE( 1.000000000000000082E-05 ), #107, 'distance_accuracy_value', 'NONE');
#77 = EDGE_CURVE ( 'NONE', #59, #142, #91, .T. ) ;
#78 = SHAPE_DEFINITION_REPRESENTATION ( #131, #141 ) ;
#79 = PLANE ( 'NONE',  #54 ) ;
#80 = COLOUR_RGB ( '',0.7921568627450980005, 0.8196078431372548767, 0.9333333333333333481 ) ;
#81 = VECTOR ( 'NONE', #134, 1000.000000000000000 ) ;
#82 =( LENGTH_UNIT ( ) NAMED_UNIT ( * ) SI_UNIT ( .MILLI., .METRE. ) );
#83 = EDGE_CURVE ( 'NONE', #142, #1, #185, .T. ) ;
#84 = PRESENTATION_STYLE_ASSIGNMENT (( #130 ) ) ;
#85 = AXIS2_PLACEMENT_3D ( 'NONE', #39, #116, #105 ) ;
#86 = ORIENTED_EDGE ( 'NONE', *, *, #159, .F. ) ;
#87 = CARTESIAN_POINT ( 'NONE',  ( -10.00000000000000000, 0.000000000000000000, 12.00000000000000000 ) ) ;
#88 = DIRECTION ( 'NONE',  ( 0.000000000000000000, 0.000000000000000000, 1.000000000000000000 ) ) ;
#89 = DIRECTION ( 'NONE',  ( -0.000000000000000000, -0.000000000000000000, -1.000000000000000000 ) ) ;
#90 = EDGE_LOOP ( 'NONE', ( #109, #124, #208, #133 ) ) ;
#91 = LINE ( 'NONE', #156, #165 ) ;
#92 = DIRECTION ( 'NONE',  ( -1.000000000000000000, 0.000000000000000000, 0.000000000000000000 ) ) ;
#93 = AXIS2_PLACEMENT_3D ( 'NONE', #132, #12, #37 ) ;
#94 = EDGE_LOOP ( 'NONE', ( #86, #71 ) ) ;
#95 = ORIENTED_EDGE ( 'NONE', *, *, #34, .F. ) ;
#96 = FILL_AREA_STYLE_COLOUR ( '', #204 ) ;
#97 = AXIS2_PLACEMENT_3D ( 'NONE', #157, #42, #92 ) ;
#98 = DIRECTION ( 'NONE',  ( 1.000000000000000000, 0.000000000000000000, -0.000000000000000000 ) ) ;
#99 = EDGE_CURVE ( 'NONE', #174, #75, #128, .T. ) ;
#100 = CIRCLE ( 'NONE', #36, 2.500000000000000000 ) ;
#101 = LINE ( 'NONE', #87, #81 ) ;
#102 = VERTEX_POINT ( 'NONE', #35 ) ;
#103 = CARTESIAN_POINT ( 'NONE',  ( 0.000000000000000000, 0.000000000000000000, 0.000000000000000000 ) ) ;
#104 = PRODUCT ( 'spacer', 'spacer', '', ( #22 ) ) ;
#105 = DIRECTION ( 'NONE',  ( 1.000000000000000000, 0.000000000000000000, -0.000000000000000000 ) ) ;
#106 = DIRECTION ( 'NONE',  ( 1.000000000000000000, 0.000000000000000000, 0.000000000000000000 ) ) ;
#107 =( LENGTH_UNIT ( ) NAMED_UNIT ( * ) SI_UNIT ( .MILLI., .METRE. ) );
#108 = CARTESIAN_POINT ( 'NONE',  ( 0.000000000000000000, 0.000000000000000000, 12.00000000000000000 ) ) ;
#109 = ORIENTED_EDGE ( 'NONE', *, *, #191, .T. ) ;
#110 = AXIS2_PLACEMENT_3D ( 'NONE', #158, #114, #49 ) ;
#111 = STYLED_ITEM ( 'NONE', ( #84 ), #25 ) ;
#112 = EDGE_LOOP ( 'NONE', ( #45, #38, #61, #68 ) ) ;
#113 = EDGE_CURVE ( 'NONE', #59, #102, #100, .T. ) ;
#114 = DIRECTION ( 'NONE',  ( 0.000000000000000000, 0.000000000000000000, 1.000000000000000000 ) ) ;
#115 =( LENGTH_UNIT ( ) NAMED_UNIT ( * ) SI_UNIT ( .MILLI., .METRE. ) );
#116 = DIRECTION ( 'NONE',  ( 0.000000000000000000, 0.000000000000000000, 1.000000000000000000 ) ) ;
#117 = ORIENTED_EDGE ( 'NONE', *, *, #15, .T. ) ;
#118 = AXIS2_PLACEMENT_3D ( 'NONE', #169, #152, #69 ) ;
#119 = DIRECTION ( 'NONE',  ( 0.000000000000000000, 0.000000000000000000, 1.000000000000000000 ) ) ;
#120 = ADVANCED_FACE ( 'NONE', ( #10 ), #52, .F. ) ;
#121 = CARTESIAN_POINT ( 'NONE',  ( 0.000000000000000000, 0.000000000000000000, 12.00000000000000000 ) ) ;
#122 = MECHANICAL_DESIGN_GEOMETRIC_PRESENTATION_REPRESENTATION (  '', ( #161 ), #50 ) ;
#123 = DIRECTION ( 'NONE',  ( -1.000000000000000000, 0.000000000000000000, 0.000000000000000000 ) ) ;
#124 = ORIENTED_EDGE ( 'NONE', *, *, #77, .T. ) ;
#125 = ORIENTED_EDGE ( 'NONE', *, *, #51, .T. ) ;
#126 = SURFACE_STYLE_USAGE ( .BOTH. , #2 ) ;
#127 = DIRECTION ( 'NONE',  ( 0.000000000000000000, 0.000000000000000000, 1.000000000000000000 ) ) ;
#128 = CIRCLE ( 'NONE', #73, 10.00000000000000000 ) ;
#129 = VECTOR ( 'NONE', #89, 1000.000000000000000 ) ;
#130 = SURFACE_STYLE_USAGE ( .BOTH. , #66 ) ;
#131 = PRODUCT_DEFINITION_SHAPE ( 'NONE', 'NONE',  #44 ) ;
#132 = CARTESIAN_POINT ( 'NONE',  ( 0.000000000000000000, 0.000000000000000000, 12.00000000000000000 ) ) ;
#133 = ORIENTED_EDGE ( 'NONE', *, *, #184, .F. ) ;
#134 = DIRECTION ( 'NONE',  ( -0.000000000000000000, -0.000000000000000000, -1.000000000000000000 ) ) ;
#135 = AXIS2_PLACEMENT_3D ( 'NONE', #103, #153, #13 ) ;
#136 = DIRECTION ( 'NONE',  ( 0.000000000000000000, 0.000000000000000000, 1.000000000000000000 ) ) ;
#137 = CARTESIAN_POINT ( 'NONE',  ( 2.500000000000000000, 3.061616997868383141E-16, 12.00000000000000000 ) ) ;
#138 =( NAMED_UNIT ( * ) PLANE_ANGLE_UNIT ( ) SI_UNIT ( $, .RADIAN. ) );
#139 = PRESENTATION_LAYER_ASSIGNMENT (  '', '', ( #161 ) ) ;
#140 = DIRECTION ( 'NONE',  ( 0.000000000000000000, 0.000000000000000000, 1.000000000000000000 ) ) ;
#141 = ADVANCED_BREP_SHAPE_REPRESENTATION ( 'spacer', ( #25, #175 ), #9 ) ;
#142 = VERTEX_POINT ( 'NONE', #26 ) ;
#143 = AXIS2_PLACEMENT_3D ( 'NONE', #108, #213, #123 ) ;
#144 = VERTEX_POINT ( 'NONE', #172 ) ;
#145 =( NAMED_UNIT ( * ) PLANE_ANGLE_UNIT ( ) SI_UNIT ( $, .RADIAN. ) );
#146 = FACE_BOUND ( 'NONE', #194, .T. ) ;
#147 = CIRCLE ( 'NONE', #64, 2.500000000000000000 ) ;
#148 = APPLICATION_PROTOCOL_DEFINITION ( 'draft international standard', 'automotive_design', 1998, #183 ) ;
#149 =( NAMED_UNIT ( * ) PLANE_ANGLE_UNIT ( ) SI_UNIT ( $, .RADIAN. ) );
#150 = CARTESIAN_POINT ( 'NONE',  ( 0.000000000000000000, 0.000000000000000000, 12.00000000000000000 ) ) ;
#151 = EDGE_LOOP ( 'NONE', ( #117, #27 ) ) ;
#152 = DIRECTION ( 'NONE',  ( 0.000000000000000000, 0.000000000000000000, 1.000000000000000000 ) ) ;
#153 = DIRECTION ( 'NONE',  ( 0.000000000000000000, 0.000000000000000000, 1.000000000000000000 ) ) ;
#154 = DIRECTION ( 'NONE',  ( 1.000000000000000000, 0.000000000000000000, 0.000000000000000000 ) ) ;
#155 = ORIENTED_EDGE ( 'NONE', *, *, #83, .F. ) ;
#156 = CARTESIAN_POINT ( 'NONE',  ( 2.500000000000000000, 3.061616997868383141E-16, 12.00000000000000000 ) ) ;
#157 = CARTESIAN_POINT ( 'NONE',  ( 0.000000000000000000, 0.000000000000000000, 12.00000000000000000 ) ) ;
#158 = CARTESIAN_POINT ( 'NONE',  ( 0.000000000000000000, 0.000000000000000000, 12.00000000000000000 ) ) ;
#159 = EDGE_CURVE ( 'NONE', #75, #174, #7, .T. ) ;
#160 = ORIENTED_EDGE ( 'NONE', *, *, #167, .F. ) ;
#161 = STYLED_ITEM ( 'NONE', ( #180 ), #141 ) ;
#162 = DIRECTION ( 'NONE',  ( 0.000000000000000000, 0.000000000000000000, 1.000000000000000000 ) ) ;
#163 = FILL_AREA_STYLE_COLOUR ( '', #80 ) ;
#164 =( NAMED_UNIT ( * ) SI_UNIT ( $, .STERADIAN. ) SOLID_ANGLE_UNIT ( ) );
#165 = VECTOR ( 'NONE', #212, 1000.000000000000000 ) ;
#166 = UNCERTAINTY_MEASURE_WITH_UNIT (LENGTH_MEASURE( 1.000000000000000082E-05 ), #115, 'distance_accuracy_value', 'NONE');
#167 = EDGE_CURVE ( 'NONE', #33, #75, #101, .T. ) ;
#168 = AXIS2_PLACEMENT_3D ( 'NONE', #58, #173, #72 ) ;
#169 = CARTESIAN_POINT ( 'NONE',  ( 0.000000000000000000, 0.000000000000000000, 0.000000000000000000 ) ) ;
#170 = ORIENTED_EDGE ( 'NONE', *, *, #23, .T. ) ;
#171 = APPLICATION_CONTEXT ( 'automotive_design' ) ;
#172 = CARTESIAN_POINT ( 'NONE',  ( 10.00000000000000000, 1.224646799147353256E-15, 12.00000000000000000 ) ) ;
#173 = DIRECTION ( 'NONE',  ( 0.000000000000000000, 0.000000000000000000, 1.000000000000000000 ) ) ;
#174 = VERTEX_POINT ( 'NONE', #210 ) ;
#175 = AXIS2_PLACEMENT_3D ( 'NONE', #202, #162, #198 ) ;
#176 = FACE_OUTER_BOUND ( 'NONE', #112, .T. ) ;
#177 =( NAMED_UNIT ( * ) SI_UNIT ( $, .STERADIAN. ) SOLID_ANGLE_UNIT ( ) );
#178 = VECTOR ( 'NONE', #5, 1000.000000000000000 ) ;
#179 = ORIENTED_EDGE ( 'NONE', *, *, #99, .T. ) ;
#180 = PRESENTATION_STYLE_ASSIGNMENT (( #126 ) ) ;
#181 = ADVANCED_FACE ( 'NONE', ( #56, #186 ), #188, .F. ) ;
#182 = CARTESIAN_POINT ( 'NONE',  ( 0.000000000000000000, 0.000000000000000000, 12.00000000000000000 ) ) ;
#183 = APPLICATION_CONTEXT ( 'automotive_design' ) ;
#184 = EDGE_CURVE ( 'NONE', #102, #1, #207, .T. ) ;
#185 = CIRCLE ( 'NONE', #135, 2.500000000000000000 ) ;
#186 = FACE_BOUND ( 'NONE', #187, .T. ) ;
#187 = EDGE_LOOP ( 'NONE', ( #125, #18 ) ) ;
#188 = PLANE ( 'NONE',  #85 ) ;
#189 = DIRECTION ( 'NONE',  ( -1.000000000000000000, 0.000000000000000000, 0.000000000000000000 ) ) ;
#190 = FACE_OUTER_BOUND ( 'NONE', #47, .T. ) ;
#191 = EDGE_CURVE ( 'NONE', #102, #59, #48, .T. ) ;
#192 = DIRECTION ( 'NONE',  ( 1.000000000000000000, 0.000000000000000000, 0.000000000000000000 ) ) ;
#193 = CYLINDRICAL_SURFACE ( 'NONE', #97, 2.500000000000000000 ) ;
#194 = EDGE_LOOP ( 'NONE', ( #11, #19 ) ) ;
#195 = ORIENTED_EDGE ( 'NONE', *, *, #113, .T. ) ;
#196 = PRODUCT_DEFINITION_CONTEXT ( 'detailed design', #183, 'design' ) ;
#197 = ADVANCED_FACE ( 'NONE', ( #16 ), #193, .F. ) ;
#198 = DIRECTION ( 'NONE',  ( 1.000000000000000000, 0.000000000000000000, 0.000000000000000000 ) ) ;
#199 =( GEOMETRIC_REPRESENTATION_CONTEXT ( 3 ) GLOBAL_UNCERTAINTY_ASSIGNED_CONTEXT ( ( #166 ) ) GLOBAL_UNIT_ASSIGNED_CONTEXT ( ( #115, #149, #30 ) ) REPRESENTATION_CONTEXT ( 'NONE', 'WORKASPACE' ) );
#200 = CARTESIAN_POINT ( 'NONE',  ( 10.00000000000000000, 1.224646799147353256E-15, 12.00000000000000000 ) ) ;
#201 = APPLICATION_PROTOCOL_DEFINITION ( 'draft international standard', 'automotive_design', 1998, #171 ) ;
#202 = CARTESIAN_POINT ( 'NONE',  ( 0.000000000000000000, 0.000000000000000000, 0.000000000000000000 ) ) ;
#203 = ADVANCED_FACE ( 'NONE', ( #176 ), #43, .T. ) ;
#204 = COLOUR_RGB ( '',0.7921568627450980005, 0.8196078431372548767, 0.9333333333333333481 ) ;
#205 = FILL_AREA_STYLE ('',( #163 ) ) ;
#206 = UNCERTAINTY_MEASURE_WITH_UNIT (LENGTH_MEASURE( 1.000000000000000082E-05 ), #82, 'distance_accuracy_value', 'NONE');
#207 = LINE ( 'NONE', #29, #129 ) ;
#208 = ORIENTED_EDGE ( 'NONE', *, *, #51, .F. ) ;
#209 = AXIS2_PLACEMENT_3D ( 'NONE', #121, #41, #189 ) ;
#210 = CARTESIAN_POINT ( 'NONE',  ( 10.00000000000000000, 1.224646799147353256E-15, 0.000000000000000000 ) ) ;
#211 = CARTESIAN_POINT ( 'NONE',  ( 0.000000000000000000, 0.000000000000000000, 0.000000000000000000 ) ) ;
#212 = DIRECTION ( 'NONE',  ( -0.000000000000000000, -0.000000000000000000, -1.000000000000000000 ) ) ;
#213 = DIRECTION ( 'NONE',  ( -0.000000000000000000, -0.000000000000000000, -1.000000000000000000 ) ) ;
#214 = PRODUCT_DEFINITION_FORMATION_WITH_SPECIFIED_SOURCE ( 'ANY', '', #104, .NOT_KNOWN. ) ;
ENDSEC;
END-ISO-10303-21;
