ISO-10303-21;
HEADER;
FILE_DESCRIPTION (( 'STEP AP214' ),
    '1' );
FILE_NAME ('wire guide brass.STEP',
    '2026-08-28T09:09:20',
    ( '' ),
    ( '' ),
    'SwSTEP 2.0',
    'SolidWorks 2021',
    '' );
FILE_SCHEMA (( 'AUTOMOTIVE_DESIGN' ));
ENDSEC;

DATA;
#1 = FACE_OUTER_BOUND ( 'NONE', #712, .T. ) ;
#2 = AXIS2_PLACEMENT_3D ( 'NONE', #108, #798, #995 ) ;
#3 = CARTESIAN_POINT ( 'NONE',  ( 0.000000000000000000, 0.000000000000000000, 0.000000000000000000 ) ) ;
#4 = ORIENTED_EDGE ( 'NONE', *, *, #1054, .F. ) ;
#5 = DIRECTION ( 'NONE',  ( 0.000000000000000000, -0.000000000000000000, -1.000000000000000000 ) ) ;
#6 = EDGE_CURVE ( 'NONE', #1173, #724, #1255, .T. ) ;
#7 = VERTEX_POINT ( 'NONE', #149 ) ;
#8 = ADVANCED_FACE ( 'NONE', ( #769 ), #1163, .T. ) ;
#9 =( LENGTH_UNIT ( ) NAMED_UNIT ( * ) SI_UNIT ( .MILLI., .METRE. ) );
#10 = CONICAL_SURFACE ( 'NONE', #1011, 0.9999999999999995559, 0.5235987755982947078 ) ;
#11 = VECTOR ( 'NONE', #331, 1000.000000000000000 ) ;
#12 = CARTESIAN_POINT ( 'NONE',  ( 12.30742027177059228, -1.812712165592825109, 0.5051179724409460281 ) ) ;
#13 = DIRECTION ( 'NONE',  ( 1.000000000000000000, 0.000000000000000000, 0.000000000000000000 ) ) ;
#14 = VERTEX_POINT ( 'NONE', #405 ) ;
#15 = CARTESIAN_POINT ( 'NONE',  ( 17.89999999999999858, 4.000000000000000000, 7.500000000000000000 ) ) ;
#16 = B_SPLINE_CURVE_WITH_KNOTS ( 'NONE', 3,
 ( #89, #492, #482, #883, #690, #1088, #796, #84, #790, #96, #1178, #186, #1190, #1297 ),
 .UNSPECIFIED., .F., .F.,
 ( 4, 2, 2, 2, 2, 2, 4 ),
 ( 2.168404344971008868E-19, 0.0009686618526275662076, 0.001452992778941351046, 0.001937323705255135668, 0.002421654631568920940, 0.002905985557882705995, 0.003874647410510274372 ),
 .UNSPECIFIED. ) ;
#17 = CARTESIAN_POINT ( 'NONE',  ( 17.89999999999999858, 6.999999999999999112, -0.1728420597616221743 ) ) ;
#18 = ORIENTED_EDGE ( 'NONE', *, *, #1026, .F. ) ;
#19 = CARTESIAN_POINT ( 'NONE',  ( 19.50000000000000000, 4.000000000000000000, -0.1728420597616221743 ) ) ;
#20 = CARTESIAN_POINT ( 'NONE',  ( 12.52736999355489367, -3.557093594671059567, 1.512237060088649665 ) ) ;
#21 = ORIENTED_EDGE ( 'NONE', *, *, #354, .F. ) ;
#22 = CARTESIAN_POINT ( 'NONE',  ( 16.00000000000000000, 0.000000000000000000, 7.500000000000000000 ) ) ;
#23 = EDGE_CURVE ( 'NONE', #1232, #685, #894, .T. ) ;
#24 = EDGE_CURVE ( 'NONE', #503, #249, #888, .T. ) ;
#25 = VECTOR ( 'NONE', #938, 1000.000000000000000 ) ;
#26 = DIRECTION ( 'NONE',  ( 1.000000000000000000, 0.000000000000000000, -0.000000000000000000 ) ) ;
#27 = AXIS2_PLACEMENT_3D ( 'NONE', #1263, #277, #571 ) ;
#28 = DIRECTION ( 'NONE',  ( 1.000000000000000000, 0.000000000000000000, 0.000000000000000000 ) ) ;
#29 = PLANE ( 'NONE',  #27 ) ;
#30 = EDGE_CURVE ( 'NONE', #843, #1232, #1186, .T. ) ;
#31 = CIRCLE ( 'NONE', #892, 1.599999999999999867 ) ;
#32 = DIRECTION ( 'NONE',  ( 0.000000000000000000, 1.000000000000000000, -0.000000000000000000 ) ) ;
#33 = ORIENTED_EDGE ( 'NONE', *, *, #1134, .F. ) ;
#34 = EDGE_CURVE ( 'NONE', #963, #1173, #16, .T. ) ;
#35 = DIRECTION ( 'NONE',  ( 1.000000000000000000, 0.000000000000000000, 0.000000000000000000 ) ) ;
#36 = CARTESIAN_POINT ( 'NONE',  ( 12.13382475121430915, 0.3604912815918601132, 0.8213783925194416691 ) ) ;
#37 = CARTESIAN_POINT ( 'NONE',  ( 8.000000000000000000, 0.000000000000000000, 3.499999999999999112 ) ) ;
#38 = CARTESIAN_POINT ( 'NONE',  ( 3.000000000000000000, 0.000000000000000000, 0.000000000000000000 ) ) ;
#39 = VECTOR ( 'NONE', #183, 1000.000000000000000 ) ;
#40 = EDGE_LOOP ( 'NONE', ( #718, #1097, #797, #1151 ) ) ;
#41 = ORIENTED_EDGE ( 'NONE', *, *, #170, .F. ) ;
#42 = EDGE_CURVE ( 'NONE', #415, #273, #399, .T. ) ;
#43 = DIRECTION ( 'NONE',  ( 0.000000000000000000, 0.000000000000000000, 1.000000000000000000 ) ) ;
#44 = CARTESIAN_POINT ( 'NONE',  ( 12.15814709272792804, 0.7842963949837257198, 1.066062388820175899 ) ) ;
#45 = CARTESIAN_POINT ( 'NONE',  ( 12.15814709272792626, -2.784296394983724721, 5.933937611179821658 ) ) ;
#46 = DIRECTION ( 'NONE',  ( 1.000000000000000000, 0.000000000000000000, 0.000000000000000000 ) ) ;
#47 = PRESENTATION_LAYER_ASSIGNMENT (  '', '', ( #717 ) ) ;
#48 = EDGE_LOOP ( 'NONE', ( #113, #1105, #297, #889 ) ) ;
#49 = VERTEX_POINT ( 'NONE', #1279 ) ;
#50 = CARTESIAN_POINT ( 'NONE',  ( 0.000000000000000000, 0.000000000000000000, 7.500000000000000000 ) ) ;
#51 = ORIENTED_EDGE ( 'NONE', *, *, #196, .F. ) ;
#52 = CARTESIAN_POINT ( 'NONE',  ( 12.72459178506153776, 1.786769611552658121, 1.644840570261638879 ) ) ;
#53 = CIRCLE ( 'NONE', #704, 0.9999999999999995559 ) ;
#54 = CARTESIAN_POINT ( 'NONE',  ( 16.00000000000000000, -3.482050807568878525, 1.468911086754464579 ) ) ;
#55 = PRODUCT_CONTEXT ( 'NONE', #130, 'mechanical' ) ;
#56 = CARTESIAN_POINT ( 'NONE',  ( 16.00000000000000000, -3.000000000000000000, 0.000000000000000000 ) ) ;
#57 = VECTOR ( 'NONE', #1064, 1000.000000000000000 ) ;
#58 = ORIENTED_EDGE ( 'NONE', *, *, #501, .F. ) ;
#59 = DIRECTION ( 'NONE',  ( 1.000000000000000000, 0.000000000000000000, 0.000000000000000000 ) ) ;
#60 = ORIENTED_EDGE ( 'NONE', *, *, #1127, .F. ) ;
#61 = DIRECTION ( 'NONE',  ( 0.000000000000000000, -0.4999999999999998335, -0.8660254037844388186 ) ) ;
#62 = CARTESIAN_POINT ( 'NONE',  ( 8.000000000000000000, 0.000000000000000000, 7.500000000000000000 ) ) ;
#63 = ORIENTED_EDGE ( 'NONE', *, *, #778, .T. ) ;
#64 = ORIENTED_EDGE ( 'NONE', *, *, #1233, .T. ) ;
#65 = EDGE_LOOP ( 'NONE', ( #4, #349, #706, #359 ) ) ;
#66 = CARTESIAN_POINT ( 'NONE',  ( 24.00000000000000000, -4.000000000000000000, 1.767949192431122141 ) ) ;
#67 = EDGE_CURVE ( 'NONE', #273, #250, #614, .T. ) ;
#68 = LINE ( 'NONE', #178, #93 ) ;
#69 = EDGE_CURVE ( 'NONE', #593, #1174, #998, .T. ) ;
#70 = SURFACE_STYLE_USAGE ( .BOTH. , #774 ) ;
#71 = DIRECTION ( 'NONE',  ( 1.000000000000000000, 0.000000000000000000, 0.000000000000000000 ) ) ;
#72 = ORIENTED_EDGE ( 'NONE', *, *, #924, .T. ) ;
#73 = ORIENTED_EDGE ( 'NONE', *, *, #778, .F. ) ;
#74 = VECTOR ( 'NONE', #748, 1000.000000000000000 ) ;
#75 = FACE_OUTER_BOUND ( 'NONE', #919, .T. ) ;
#76 = CARTESIAN_POINT ( 'NONE',  ( 0.000000000000000000, 10.00000000000000000, 7.500000000000000000 ) ) ;
#77 = VERTEX_POINT ( 'NONE', #388 ) ;
#78 = DIRECTION ( 'NONE',  ( -0.000000000000000000, 0.000000000000000000, 1.000000000000000000 ) ) ;
#79 = EDGE_CURVE ( 'NONE', #449, #529, #1019, .T. ) ;
#80 = ORIENTED_EDGE ( 'NONE', *, *, #6, .F. ) ;
#81 = EDGE_CURVE ( 'NONE', #109, #1280, #190, .T. ) ;
#82 = LINE ( 'NONE', #188, #782 ) ;
#83 = CARTESIAN_POINT ( 'NONE',  ( 21.10000000000000142, 0.000000000000000000, 0.000000000000000000 ) ) ;
#84 = CARTESIAN_POINT ( 'NONE',  ( 12.13382475121430915, 0.6395087184081431619, 6.017530815226075802 ) ) ;
#85 = ORIENTED_EDGE ( 'NONE', *, *, #363, .F. ) ;
#86 = DIRECTION ( 'NONE',  ( 0.000000000000000000, 1.000000000000000000, 0.000000000000000000 ) ) ;
#87 = CIRCLE ( 'NONE', #1087, 2.999999999999999112 ) ;
#88 = CARTESIAN_POINT ( 'NONE',  ( 12.13382475121431270, -2.360491281591858836, 6.178621607480557110 ) ) ;
#89 = CARTESIAN_POINT ( 'NONE',  ( 12.93782217350888075, -0.9999999999999986677, 6.964101615137755275 ) ) ;
#90 = ORIENTED_EDGE ( 'NONE', *, *, #589, .T. ) ;
#91 = CARTESIAN_POINT ( 'NONE',  ( 23.38987659787527207, 0.7595917942265428824, 1.051799180922793564 ) ) ;
#92 = AXIS2_PLACEMENT_3D ( 'NONE', #408, #1199, #735 ) ;
#93 = VECTOR ( 'NONE', #387, 1000.000000000000227 ) ;
#94 = VECTOR ( 'NONE', #454, 1000.000000000000000 ) ;
#95 = CARTESIAN_POINT ( 'NONE',  ( 0.000000000000000000, 0.000000000000000000, 6.386751345948130876 ) ) ;
#96 = CARTESIAN_POINT ( 'NONE',  ( 12.24323011072674561, 1.052400235483533342, 5.779147786696486655 ) ) ;
#97 = ORIENTED_EDGE ( 'NONE', *, *, #895, .F. ) ;
#98 = DIRECTION ( 'NONE',  ( 0.000000000000000000, -0.000000000000000000, -1.000000000000000000 ) ) ;
#99 = CARTESIAN_POINT ( 'NONE',  ( 21.00000000000000000, 7.000000000000000000, 0.000000000000000000 ) ) ;
#100 = CARTESIAN_POINT ( 'NONE',  ( 0.000000000000000000, -6.000000000000000000, 7.500000000000000000 ) ) ;
#101 = EDGE_CURVE ( 'NONE', #307, #910, #374, .T. ) ;
#102 = ORIENTED_EDGE ( 'NONE', *, *, #526, .F. ) ;
#103 = CARTESIAN_POINT ( 'NONE',  ( 24.00000000000000000, 3.000000000000000000, 0.000000000000000000 ) ) ;
#104 = ORIENTED_EDGE ( 'NONE', *, *, #1089, .T. ) ;
#105 = FILL_AREA_STYLE_COLOUR ( '', #444 ) ;
#106 = DIRECTION ( 'NONE',  ( 0.000000000000000000, 0.000000000000000000, -1.000000000000000000 ) ) ;
#107 = VERTEX_POINT ( 'NONE', #304 ) ;
#108 = CARTESIAN_POINT ( 'NONE',  ( 8.000000000000000000, 0.000000000000000000, 7.500000000000000000 ) ) ;
#109 = VERTEX_POINT ( 'NONE', #1104 ) ;
#110 = FILL_AREA_STYLE ('',( #105 ) ) ;
#111 = CARTESIAN_POINT ( 'NONE',  ( 21.00000000000000000, 0.000000000000000000, 6.943375672974065438 ) ) ;
#112 = CARTESIAN_POINT ( 'NONE',  ( 13.00000000000000178, -6.000000000000000000, 0.000000000000000000 ) ) ;
#113 = ORIENTED_EDGE ( 'NONE', *, *, #257, .F. ) ;
#114 = DIRECTION ( 'NONE',  ( 0.000000000000000000, -0.000000000000000000, -1.000000000000000000 ) ) ;
#115 =( BOUNDED_CURVE ( )  B_SPLINE_CURVE ( 3, ( #289, #169, #91, #1063 ),
 .UNSPECIFIED., .F., .T. ) 
 B_SPLINE_CURVE_WITH_KNOTS ( ( 4, 4 ),
 ( 0.000000000000000000, 1.230959417340775186 ),
 .UNSPECIFIED. ) 
 CURVE ( )  GEOMETRIC_REPRESENTATION_ITEM ( )  RATIONAL_B_SPLINE_CURVE ( ( 1.000000000000000000, 0.8776643872851505046, 0.8776643872851505046, 1.000000000000000000 ) ) 
 REPRESENTATION_ITEM ( '' )  );
#116 = DIRECTION ( 'NONE',  ( 0.000000000000000000, 0.000000000000000000, -1.000000000000000000 ) ) ;
#117 = ADVANCED_FACE ( 'NONE', ( #982 ), #206, .F. ) ;
#118 = ORIENTED_EDGE ( 'NONE', *, *, #1054, .T. ) ;
#119 = CARTESIAN_POINT ( 'NONE',  ( 19.50000000000000000, 4.000000000000000000, 7.500000000000000000 ) ) ;
#120 = PRODUCT_DEFINITION_CONTEXT ( 'detailed design', #411, 'design' ) ;
#121 = DIRECTION ( 'NONE',  ( 0.000000000000000000, 0.000000000000000000, 1.000000000000000000 ) ) ;
#122 = ORIENTED_EDGE ( 'NONE', *, *, #739, .T. ) ;
#123 = EDGE_CURVE ( 'NONE', #14, #496, #279, .T. ) ;
#124 = FACE_OUTER_BOUND ( 'NONE', #785, .T. ) ;
#125 = VECTOR ( 'NONE', #1013, 1000.000000000000000 ) ;
#126 = CARTESIAN_POINT ( 'NONE',  ( 12.30529963714669606, -3.183099550286998980, 1.296311497888194442 ) ) ;
#127 = ORIENTED_EDGE ( 'NONE', *, *, #1201, .T. ) ;
#128 = FACE_OUTER_BOUND ( 'NONE', #644, .T. ) ;
#129 = CYLINDRICAL_SURFACE ( 'NONE', #525, 2.999999999999999112 ) ;
#130 = APPLICATION_CONTEXT ( 'automotive_design' ) ;
#131 = VECTOR ( 'NONE', #609, 1000.000000000000000 ) ;
#132 = CARTESIAN_POINT ( 'NONE',  ( 12.24440164632367178, -1.945170737358976387, 0.5815929645066062470 ) ) ;
#133 = FACE_OUTER_BOUND ( 'NONE', #615, .T. ) ;
#134 = EDGE_CURVE ( 'NONE', #856, #198, #423, .T. ) ;
#135 = EDGE_LOOP ( 'NONE', ( #680, #994, #118, #664, #18 ) ) ;
#136 = EDGE_CURVE ( 'NONE', #910, #307, #53, .T. ) ;
#137 = CARTESIAN_POINT ( 'NONE',  ( 8.000000000000000000, -0.9999999999999983347, 4.499999999999999112 ) ) ;
#138 = CARTESIAN_POINT ( 'NONE',  ( 17.89999999999999858, 6.999999999999999112, 7.500000000000000000 ) ) ;
#139 = CARTESIAN_POINT ( 'NONE',  ( 12.93782217350888253, -0.9999999999999981126, 0.03589838486224312258 ) ) ;
#140 = DIRECTION ( 'NONE',  ( 0.000000000000000000, -0.000000000000000000, 1.000000000000000000 ) ) ;
#141 = AXIS2_PLACEMENT_3D ( 'NONE', #268, #1180, #379 ) ;
#142 = ORIENTED_EDGE ( 'NONE', *, *, #833, .T. ) ;
#143 = ORIENTED_EDGE ( 'NONE', *, *, #858, .T. ) ;
#144 = CARTESIAN_POINT ( 'NONE',  ( 6.100000000000000533, 4.000000000000000000, 7.500000000000000000 ) ) ;
#145 = CARTESIAN_POINT ( 'NONE',  ( 8.000000000000000000, -0.9999999999999985567, 3.499999999999999112 ) ) ;
#146 = DIRECTION ( 'NONE',  ( -0.000000000000000000, -0.000000000000000000, 1.000000000000000000 ) ) ;
#147 = APPLICATION_PROTOCOL_DEFINITION ( 'draft international standard', 'automotive_design', 1998, #130 ) ;
#148 = LINE ( 'NONE', #1162, #616 ) ;
#149 = CARTESIAN_POINT ( 'NONE',  ( 2.900000000000000799, 4.000000000000000000, 0.000000000000000000 ) ) ;
#150 = ORIENTED_EDGE ( 'NONE', *, *, #589, .F. ) ;
#151 = CIRCLE ( 'NONE', #948, 0.9999999999999995559 ) ;
#152 = PLANE ( 'NONE',  #1270 ) ;
#153 = VERTEX_POINT ( 'NONE', #728 ) ;
#154 = VECTOR ( 'NONE', #643, 999.9999999999998863 ) ;
#155 = DIRECTION ( 'NONE',  ( 1.000000000000000000, 0.000000000000000000, 0.000000000000000000 ) ) ;
#156 = DIRECTION ( 'NONE',  ( 0.000000000000000000, 0.000000000000000000, 1.000000000000000000 ) ) ;
#157 = LINE ( 'NONE', #1264, #205 ) ;
#158 = VECTOR ( 'NONE', #916, 1000.000000000000000 ) ;
#159 = EDGE_LOOP ( 'NONE', ( #1072, #51, #21, #60, #395, #176, #912, #1205 ) ) ;
#160 = ORIENTED_EDGE ( 'NONE', *, *, #674, .F. ) ;
#161 = VERTEX_POINT ( 'NONE', #221 ) ;
#162 = EDGE_CURVE ( 'NONE', #258, #656, #474, .T. ) ;
#163 = FACE_OUTER_BOUND ( 'NONE', #871, .T. ) ;
#164 = LINE ( 'NONE', #882, #992 ) ;
#165 = DIRECTION ( 'NONE',  ( -1.000000000000000000, 0.000000000000000000, 0.000000000000000000 ) ) ;
#166 = ORIENTED_EDGE ( 'NONE', *, *, #532, .F. ) ;
#167 = EDGE_LOOP ( 'NONE', ( #1262, #567, #516, #622 ) ) ;
#168 =( BOUNDED_CURVE ( )  B_SPLINE_CURVE ( 3, ( #336, #857, #237, #1261 ),
 .UNSPECIFIED., .F., .T. ) 
 B_SPLINE_CURVE_WITH_KNOTS ( ( 4, 4 ),
 ( 1.230959417340774520, 1.570796326794896336 ),
 .UNSPECIFIED. ) 
 CURVE ( )  GEOMETRIC_REPRESENTATION_ITEM ( )  RATIONAL_B_SPLINE_CURVE ( ( 1.000000000000000000, 0.9903990397689925729, 0.9903990397689925729, 1.000000000000000000 ) ) 
 REPRESENTATION_ITEM ( '' )  );
#169 = CARTESIAN_POINT ( 'NONE',  ( 22.31565158061277998, 0.000000000000000000, 0.6132486540518680140 ) ) ;
#170 = EDGE_CURVE ( 'NONE', #49, #209, #226, .T. ) ;
#171 = DIRECTION ( 'NONE',  ( 0.000000000000000000, 1.000000000000000000, -0.000000000000000000 ) ) ;
#172 = DIRECTION ( 'NONE',  ( 0.000000000000000000, -0.000000000000000000, 1.000000000000000000 ) ) ;
#173 = ORIENTED_EDGE ( 'NONE', *, *, #363, .T. ) ;
#174 = EDGE_CURVE ( 'NONE', #302, #449, #1148, .T. ) ;
#175 = CARTESIAN_POINT ( 'NONE',  ( 12.15814709272792626, 2.000000000000002220, 3.828277200346987819 ) ) ;
#176 = ORIENTED_EDGE ( 'NONE', *, *, #1126, .F. ) ;
#177 = CARTESIAN_POINT ( 'NONE',  ( 21.10000000000000142, 6.999999999999999112, 0.000000000000000000 ) ) ;
#178 = CARTESIAN_POINT ( 'NONE',  ( 16.00000000000000000, -0.01794919243112275131, 7.531088913245534755 ) ) ;
#179 = ORIENTED_EDGE ( 'NONE', *, *, #1228, .F. ) ;
#180 = CARTESIAN_POINT ( 'NONE',  ( 12.52723710946927760, -4.000000000000000888, 4.720463699270805336 ) ) ;
#181 = ORIENTED_EDGE ( 'NONE', *, *, #24, .F. ) ;
#182 = EDGE_CURVE ( 'NONE', #685, #243, #412, .T. ) ;
#183 = DIRECTION ( 'NONE',  ( 0.000000000000000000, 0.000000000000000000, -1.000000000000000000 ) ) ;
#184 = LINE ( 'NONE', #1093, #280 ) ;
#185 = EDGE_CURVE ( 'NONE', #1222, #243, #613, .T. ) ;
#186 = CARTESIAN_POINT ( 'NONE',  ( 12.52723710946927227, 1.556952567965250944, 5.487844361717914232 ) ) ;
#187 = VERTEX_POINT ( 'NONE', #908 ) ;
#188 = CARTESIAN_POINT ( 'NONE',  ( 8.669872981077714869, -0.9999999999999983347, 4.499999999999999112 ) ) ;
#189 = LINE ( 'NONE', #76, #57 ) ;
#190 = LINE ( 'NONE', #3, #931 ) ;
#191 = ORIENTED_EDGE ( 'NONE', *, *, #259, .F. ) ;
#192 = CARTESIAN_POINT ( 'NONE',  ( 12.93782217350888075, -0.9999999999999986677, 6.964101615137755275 ) ) ;
#193 = AXIS2_PLACEMENT_3D ( 'NONE', #1131, #535, #1111 ) ;
#194 = STYLED_ITEM ( 'NONE', ( #465 ), #335 ) ;
#195 = CARTESIAN_POINT ( 'NONE',  ( 12.24323011072674205, -1.947599764516467324, 6.417004636010145369 ) ) ;
#196 = EDGE_CURVE ( 'NONE', #949, #1174, #627, .T. ) ;
#197 = DIRECTION ( 'NONE',  ( 0.000000000000000000, 0.000000000000000000, -1.000000000000000000 ) ) ;
#198 = VERTEX_POINT ( 'NONE', #721 ) ;
#199 = VECTOR ( 'NONE', #800, 1000.000000000000000 ) ;
#200 = DIRECTION ( 'NONE',  ( -0.000000000000000000, 0.000000000000000000, 1.000000000000000000 ) ) ;
#201 = ORIENTED_EDGE ( 'NONE', *, *, #321, .F. ) ;
#202 = VECTOR ( 'NONE', #576, 1000.000000000000000 ) ;
#203 = EDGE_CURVE ( 'NONE', #543, #1222, #1017, .T. ) ;
#204 = CARTESIAN_POINT ( 'NONE',  ( 16.00000000000000000, 0.000000000000000000, 7.500000000000000000 ) ) ;
#205 = VECTOR ( 'NONE', #750, 1000.000000000000000 ) ;
#206 = PLANE ( 'NONE',  #413 ) ;
#207 = EDGE_LOOP ( 'NONE', ( #637, #811, #1078, #432, #104 ) ) ;
#208 = LINE ( 'NONE', #820, #25 ) ;
#209 = VERTEX_POINT ( 'NONE', #528 ) ;
#210 = LINE ( 'NONE', #1213, #1219 ) ;
#211 = ADVANCED_FACE ( 'NONE', ( #521 ), #819, .T. ) ;
#212 = CARTESIAN_POINT ( 'NONE',  ( 12.72393793518203964, -3.786115761673158886, 1.644463069857702076 ) ) ;
#213 = CARTESIAN_POINT ( 'NONE',  ( 2.900000000000000799, 6.999999999999999112, 0.000000000000000000 ) ) ;
#214 = ORIENTED_EDGE ( 'NONE', *, *, #826, .F. ) ;
#215 = DIRECTION ( 'NONE',  ( -0.000000000000000000, 0.000000000000000000, -1.000000000000000000 ) ) ;
#216 = AXIS2_PLACEMENT_3D ( 'NONE', #1278, #78, #476 ) ;
#217 = CARTESIAN_POINT ( 'NONE',  ( 17.89999999999999858, 4.000000000000000000, -0.1728420597616221743 ) ) ;
#218 = EDGE_LOOP ( 'NONE', ( #988, #127, #143, #713 ) ) ;
#219 = ORIENTED_EDGE ( 'NONE', *, *, #913, .T. ) ;
#220 = AXIS2_PLACEMENT_3D ( 'NONE', #290, #675, #1075 ) ;
#221 = CARTESIAN_POINT ( 'NONE',  ( 21.10000000000000142, 4.000000000000000000, 7.500000000000000000 ) ) ;
#222 = ADVANCED_FACE ( 'NONE', ( #435 ), #831, .T. ) ;
#223 = VERTEX_POINT ( 'NONE', #312 ) ;
#224 = CARTESIAN_POINT ( 'NONE',  ( 21.00000000000000000, 10.00000000000000000, 0.000000000000000000 ) ) ;
#225 = UNCERTAINTY_MEASURE_WITH_UNIT (LENGTH_MEASURE( 1.000000000000000082E-05 ), #9, 'distance_accuracy_value', 'NONE');
#226 = LINE ( 'NONE', #233, #915 ) ;
#227 = VERTEX_POINT ( 'NONE', #513 ) ;
#228 = DIRECTION ( 'NONE',  ( 0.000000000000000000, 1.000000000000000000, 0.000000000000000000 ) ) ;
#229 = DIRECTION ( 'NONE',  ( -1.000000000000000000, 0.000000000000000000, 0.000000000000000000 ) ) ;
#230 = EDGE_CURVE ( 'NONE', #7, #273, #710, .T. ) ;
#231 = EDGE_CURVE ( 'NONE', #153, #209, #1012, .T. ) ;
#232 = CIRCLE ( 'NONE', #427, 2.999999999999999112 ) ;
#233 = CARTESIAN_POINT ( 'NONE',  ( 0.000000000000000000, 0.000000000000000000, 7.500000000000000000 ) ) ;
#234 = DIRECTION ( 'NONE',  ( -0.000000000000000000, -0.000000000000000000, 1.000000000000000000 ) ) ;
#235 = PRODUCT_RELATED_PRODUCT_CATEGORY ( 'part', '', ( #732 ) ) ;
#236 = ORIENTED_EDGE ( 'NONE', *, *, #23, .F. ) ;
#237 = CARTESIAN_POINT ( 'NONE',  ( 16.00000000000000000, -3.341482517521837892, 1.387753946656278714 ) ) ;
#238 = DIRECTION ( 'NONE',  ( 0.000000000000000000, 0.000000000000000000, -1.000000000000000000 ) ) ;
#239 = CARTESIAN_POINT ( 'NONE',  ( 6.100000000000000533, 4.000000000000000000, 7.500000000000000000 ) ) ;
#240 = CARTESIAN_POINT ( 'NONE',  ( 16.00000000000000000, 0.000000000000000000, 0.6132486540518684581 ) ) ;
#241 = CARTESIAN_POINT ( 'NONE',  ( 12.13382475121431092, 2.000000000000002220, 3.338909207745520469 ) ) ;
#242 = EDGE_LOOP ( 'NONE', ( #63, #655, #85, #1099 ) ) ;
#243 = VERTEX_POINT ( 'NONE', #15 ) ;
#244 = FACE_OUTER_BOUND ( 'NONE', #401, .T. ) ;
#245 = CARTESIAN_POINT ( 'NONE',  ( 11.00000000000000000, -3.000000000000000000, 7.500000000000000000 ) ) ;
#246 = CARTESIAN_POINT ( 'NONE',  ( 4.500000000000000888, 4.000000000000000000, 0.000000000000000000 ) ) ;
#247 = LINE ( 'NONE', #1051, #154 ) ;
#248 = AXIS2_PLACEMENT_3D ( 'NONE', #1135, #437, #43 ) ;
#249 = VERTEX_POINT ( 'NONE', #1018 ) ;
#250 = VERTEX_POINT ( 'NONE', #239 ) ;
#251 = CARTESIAN_POINT ( 'NONE',  ( 0.000000000000000000, 0.000000000000000000, 0.000000000000000000 ) ) ;
#252 = ORIENTED_EDGE ( 'NONE', *, *, #1195, .F. ) ;
#253 = LINE ( 'NONE', #433, #11 ) ;
#254 = LINE ( 'NONE', #459, #652 ) ;
#255 = AXIS2_PLACEMENT_3D ( 'NONE', #1204, #5, #13 ) ;
#256 = AXIS2_PLACEMENT_3D ( 'NONE', #204, #310, #215 ) ;
#257 = EDGE_CURVE ( 'NONE', #898, #744, #723, .T. ) ;
#258 = VERTEX_POINT ( 'NONE', #37 ) ;
#259 = EDGE_CURVE ( 'NONE', #448, #598, #1246, .T. ) ;
#260 = VERTEX_POINT ( 'NONE', #1145 ) ;
#261 = AXIS2_PLACEMENT_3D ( 'NONE', #1136, #61, #458 ) ;
#262 = DIRECTION ( 'NONE',  ( 0.000000000000000000, 1.000000000000000000, -0.000000000000000000 ) ) ;
#263 = PLANE ( 'NONE',  #261 ) ;
#264 = FACE_OUTER_BOUND ( 'NONE', #167, .T. ) ;
#265 = DIRECTION ( 'NONE',  ( 1.000000000000000000, 0.000000000000000000, 0.000000000000000000 ) ) ;
#266 = ORIENTED_EDGE ( 'NONE', *, *, #417, .F. ) ;
#267 = EDGE_CURVE ( 'NONE', #791, #449, #845, .T. ) ;
#268 = CARTESIAN_POINT ( 'NONE',  ( 0.000000000000000000, 0.000000000000000000, 7.500000000000000000 ) ) ;
#269 = DIRECTION ( 'NONE',  ( 1.000000000000000000, 0.000000000000000000, 0.000000000000000000 ) ) ;
#270 = EDGE_CURVE ( 'NONE', #983, #250, #749, .T. ) ;
#271 = CARTESIAN_POINT ( 'NONE',  ( 8.000000000000000000, 0.000000000000000000, 0.000000000000000000 ) ) ;
#272 = DIRECTION ( 'NONE',  ( 1.000000000000000000, 0.000000000000000000, -0.000000000000000000 ) ) ;
#273 = VERTEX_POINT ( 'NONE', #1237 ) ;
#274 = ORIENTED_EDGE ( 'NONE', *, *, #509, .T. ) ;
#275 = CARTESIAN_POINT ( 'NONE',  ( 16.00000000000000000, -3.341482517521837448, 5.612246053343719510 ) ) ;
#276 = DIRECTION ( 'NONE',  ( -0.000000000000000000, -0.000000000000000000, 1.000000000000000000 ) ) ;
#277 = DIRECTION ( 'NONE',  ( 1.000000000000000000, -0.000000000000000000, 0.000000000000000000 ) ) ;
#278 = EDGE_CURVE ( 'NONE', #843, #543, #852, .T. ) ;
#279 = LINE ( 'NONE', #679, #1080 ) ;
#280 = VECTOR ( 'NONE', #171, 1000.000000000000000 ) ;
#281 = ORIENTED_EDGE ( 'NONE', *, *, #806, .T. ) ;
#282 =( GEOMETRIC_REPRESENTATION_CONTEXT ( 3 ) GLOBAL_UNCERTAINTY_ASSIGNED_CONTEXT ( ( #1224 ) ) GLOBAL_UNIT_ASSIGNED_CONTEXT ( ( #563, #789, #653 ) ) REPRESENTATION_CONTEXT ( 'NONE', 'WORKASPACE' ) );
#283 = CARTESIAN_POINT ( 'NONE',  ( 21.00000000000000000, 3.000000000000000000, 7.500000000000000000 ) ) ;
#284 = CARTESIAN_POINT ( 'NONE',  ( 16.00000000000000000, -0.9999999999999981126, 0.03589838486224312258 ) ) ;
#285 = DIRECTION ( 'NONE',  ( 1.000000000000000000, 0.000000000000000000, 0.000000000000000000 ) ) ;
#286 = CARTESIAN_POINT ( 'NONE',  ( 12.30510422855825858, -4.000000000000000000, 4.288347545565867058 ) ) ;
#287 = AXIS2_PLACEMENT_3D ( 'NONE', #1121, #121, #328 ) ;
#288 = VERTEX_POINT ( 'NONE', #1256 ) ;
#289 = CARTESIAN_POINT ( 'NONE',  ( 21.00000000000000000, 0.000000000000000000, 0.6132486540518684581 ) ) ;
#290 = CARTESIAN_POINT ( 'NONE',  ( 19.50000000000000000, 6.999999999999999112, -0.1728420597616221743 ) ) ;
#291 = ORIENTED_EDGE ( 'NONE', *, *, #826, .T. ) ;
#292 = CARTESIAN_POINT ( 'NONE',  ( 12.13382475121430915, -4.000000000000000888, 3.661090792254479975 ) ) ;
#293 = ORIENTED_EDGE ( 'NONE', *, *, #123, .T. ) ;
#294 = CARTESIAN_POINT ( 'NONE',  ( 19.50000000000000000, 4.000000000000000000, 0.000000000000000000 ) ) ;
#295 = DIRECTION ( 'NONE',  ( -1.000000000000000000, 0.000000000000000000, 0.000000000000000000 ) ) ;
#296 = DIRECTION ( 'NONE',  ( 1.000000000000000000, 0.000000000000000000, 0.000000000000000000 ) ) ;
#297 = ORIENTED_EDGE ( 'NONE', *, *, #641, .F. ) ;
#298 = EDGE_CURVE ( 'NONE', #7, #983, #31, .T. ) ;
#299 = ORIENTED_EDGE ( 'NONE', *, *, #1100, .T. ) ;
#300 = EDGE_CURVE ( 'NONE', #1280, #1045, #355, .T. ) ;
#301 = DIRECTION ( 'NONE',  ( -1.000000000000000000, 0.000000000000000000, 0.000000000000000000 ) ) ;
#302 = VERTEX_POINT ( 'NONE', #139 ) ;
#303 = PLANE ( 'NONE',  #788 ) ;
#304 = CARTESIAN_POINT ( 'NONE',  ( 23.82842712474619162, 2.000000000000001776, 1.767949192431121475 ) ) ;
#305 = ORIENTED_EDGE ( 'NONE', *, *, #174, .T. ) ;
#306 = CARTESIAN_POINT ( 'NONE',  ( 8.669872981077714869, -0.9999999999999985567, 3.499999999999999112 ) ) ;
#307 = VERTEX_POINT ( 'NONE', #446 ) ;
#308 = EDGE_CURVE ( 'NONE', #529, #963, #1120, .T. ) ;
#309 = CIRCLE ( 'NONE', #1034, 1.599999999999999867 ) ;
#310 = DIRECTION ( 'NONE',  ( 1.000000000000000000, 0.000000000000000000, -0.000000000000000000 ) ) ;
#311 = ADVANCED_FACE ( 'NONE', ( #773 ), #485, .T. ) ;
#312 = CARTESIAN_POINT ( 'NONE',  ( 24.00000000000000000, 7.000000000000000000, 0.000000000000000000 ) ) ;
#313 = LINE ( 'NONE', #17, #467 ) ;
#314 = VERTEX_POINT ( 'NONE', #874 ) ;
#315 = FACE_OUTER_BOUND ( 'NONE', #494, .T. ) ;
#316 = VECTOR ( 'NONE', #86, 1000.000000000000000 ) ;
#317 = CARTESIAN_POINT ( 'NONE',  ( 12.15804875450497846, -2.216132998408573140, 0.7380330988638207357 ) ) ;
#318 = EDGE_LOOP ( 'NONE', ( #390, #342, #236, #358 ) ) ;
#319 = LINE ( 'NONE', #326, #762 ) ;
#320 = CIRCLE ( 'NONE', #487, 1.600000000000000755 ) ;
#321 = EDGE_CURVE ( 'NONE', #153, #1046, #1081, .T. ) ;
#322 = AXIS2_PLACEMENT_3D ( 'NONE', #941, #1129, #844 ) ;
#323 = DIRECTION ( 'NONE',  ( -0.000000000000000000, -0.000000000000000000, 1.000000000000000000 ) ) ;
#324 = ORIENTED_EDGE ( 'NONE', *, *, #203, .T. ) ;
#325 = VECTOR ( 'NONE', #594, 1000.000000000000000 ) ;
#326 = CARTESIAN_POINT ( 'NONE',  ( 8.669872981077714869, -0.9999999999999985567, 2.499999999999999556 ) ) ;
#327 = VECTOR ( 'NONE', #393, 1000.000000000000000 ) ;
#328 = DIRECTION ( 'NONE',  ( -1.000000000000000000, 0.000000000000000000, 0.000000000000000000 ) ) ;
#329 = EDGE_CURVE ( 'NONE', #752, #1173, #1273, .T. ) ;
#330 = CARTESIAN_POINT ( 'NONE',  ( 4.500000000000000888, 4.000000000000000000, -0.1728420597616221743 ) ) ;
#331 = DIRECTION ( 'NONE',  ( -0.000000000000000000, -0.000000000000000000, 1.000000000000000000 ) ) ;
#332 = CARTESIAN_POINT ( 'NONE',  ( 8.669872981077714869, -0.9999999999999985567, 3.499999999999999112 ) ) ;
#333 = FACE_OUTER_BOUND ( 'NONE', #1292, .T. ) ;
#334 = ORIENTED_EDGE ( 'NONE', *, *, #34, .T. ) ;
#335 = ADVANCED_BREP_SHAPE_REPRESENTATION ( 'wire guide brass', ( #581, #1271 ), #282 ) ;
#336 = CARTESIAN_POINT ( 'NONE',  ( 15.82842712474619162, -4.000000000000000000, 1.767949192431122141 ) ) ;
#337 = VECTOR ( 'NONE', #607, 1000.000000000000000 ) ;
#338 = CARTESIAN_POINT ( 'NONE',  ( 12.52723710946927582, -0.5569525679652469474, 0.2916919390112793220 ) ) ;
#339 = DIRECTION ( 'NONE',  ( -0.000000000000000000, 0.000000000000000000, 1.000000000000000000 ) ) ;
#340 = LINE ( 'NONE', #62, #456 ) ;
#341 = CARTESIAN_POINT ( 'NONE',  ( 12.52723710946927049, 2.000000000000002220, 2.279536300729193776 ) ) ;
#342 = ORIENTED_EDGE ( 'NONE', *, *, #182, .F. ) ;
#343 = DIRECTION ( 'NONE',  ( 0.000000000000000000, -0.000000000000000000, 1.000000000000000000 ) ) ;
#344 = EDGE_LOOP ( 'NONE', ( #385, #461, #955, #805 ) ) ;
#345 = VECTOR ( 'NONE', #323, 1000.000000000000000 ) ;
#346 = CARTESIAN_POINT ( 'NONE',  ( 24.00000000000000000, -0.9999999999999981126, 0.03589838486224312258 ) ) ;
#347 = DIRECTION ( 'NONE',  ( 1.000000000000000000, 0.000000000000000000, 0.000000000000000000 ) ) ;
#348 = PLANE ( 'NONE',  #504 ) ;
#349 = ORIENTED_EDGE ( 'NONE', *, *, #1126, .T. ) ;
#350 = ORIENTED_EDGE ( 'NONE', *, *, #793, .T. ) ;
#351 = DIRECTION ( 'NONE',  ( -0.000000000000000000, 0.000000000000000000, -1.000000000000000000 ) ) ;
#352 = VERTEX_POINT ( 'NONE', #693 ) ;
#353 = LINE ( 'NONE', #539, #527 ) ;
#354 = EDGE_CURVE ( 'NONE', #945, #949, #1056, .T. ) ;
#355 = LINE ( 'NONE', #633, #997 ) ;
#356 = DIRECTION ( 'NONE',  ( -0.000000000000000000, -0.000000000000000000, 1.000000000000000000 ) ) ;
#357 = CARTESIAN_POINT ( 'NONE',  ( 16.00000000000000000, -3.000000000000000000, 7.500000000000000000 ) ) ;
#358 = ORIENTED_EDGE ( 'NONE', *, *, #880, .T. ) ;
#359 = ORIENTED_EDGE ( 'NONE', *, *, #79, .T. ) ;
#360 = DIRECTION ( 'NONE',  ( 0.000000000000000000, -1.000000000000000000, 0.000000000000000000 ) ) ;
#361 = ORIENTED_EDGE ( 'NONE', *, *, #1026, .T. ) ;
#362 = CARTESIAN_POINT ( 'NONE',  ( 12.30510422855825858, -0.1827290014711501487, 0.5077500158637479055 ) ) ;
#363 = EDGE_CURVE ( 'NONE', #314, #843, #1289, .T. ) ;
#364 = LINE ( 'NONE', #1140, #418 ) ;
#365 = CIRCLE ( 'NONE', #523, 1.600000000000000755 ) ;
#366 = CIRCLE ( 'NONE', #1095, 2.999999999999999112 ) ;
#367 = CARTESIAN_POINT ( 'NONE',  ( 12.30510422855825681, 2.000000000000001776, 2.711652454434131609 ) ) ;
#368 = VERTEX_POINT ( 'NONE', #1296 ) ;
#369 = PRODUCT_DEFINITION_FORMATION_WITH_SPECIFIED_SOURCE ( 'ANY', '', #732, .NOT_KNOWN. ) ;
#370 = ORIENTED_EDGE ( 'NONE', *, *, #781, .T. ) ;
#371 = EDGE_CURVE ( 'NONE', #656, #352, #933, .T. ) ;
#372 = DIRECTION ( 'NONE',  ( 1.000000000000000000, 0.000000000000000000, 0.000000000000000000 ) ) ;
#373 = PLANE ( 'NONE',  #477 ) ;
#374 = CIRCLE ( 'NONE', #849, 0.9999999999999995559 ) ;
#375 =( NAMED_UNIT ( * ) PLANE_ANGLE_UNIT ( ) SI_UNIT ( $, .RADIAN. ) );
#376 = CARTESIAN_POINT ( 'NONE',  ( 24.00000000000000000, 7.000000000000000000, 7.500000000000000000 ) ) ;
#377 = EDGE_LOOP ( 'NONE', ( #219, #672, #736, #758 ) ) ;
#378 = ORIENTED_EDGE ( 'NONE', *, *, #42, .T. ) ;
#379 = DIRECTION ( 'NONE',  ( 1.000000000000000000, 0.000000000000000000, 0.000000000000000000 ) ) ;
#380 = EDGE_CURVE ( 'NONE', #223, #1067, #480, .T. ) ;
#381 = EDGE_CURVE ( 'NONE', #904, #415, #309, .T. ) ;
#382 = CARTESIAN_POINT ( 'NONE',  ( 24.00000000000000000, 2.000000000000001776, 5.232050807568878525 ) ) ;
#383 = DIRECTION ( 'NONE',  ( -0.000000000000000000, 0.000000000000000000, -1.000000000000000000 ) ) ;
#384 = CARTESIAN_POINT ( 'NONE',  ( 12.93782217350888253, -4.000000000000000000, 5.232050807568877637 ) ) ;
#385 = ORIENTED_EDGE ( 'NONE', *, *, #67, .F. ) ;
#386 = DIRECTION ( 'NONE',  ( 0.000000000000000000, -0.000000000000000000, 1.000000000000000000 ) ) ;
#387 = DIRECTION ( 'NONE',  ( 0.000000000000000000, 0.8660254037844385966, 0.4999999999999998890 ) ) ;
#388 = CARTESIAN_POINT ( 'NONE',  ( 21.00000000000000000, 10.00000000000000000, 7.500000000000000000 ) ) ;
#389 = AXIS2_PLACEMENT_3D ( 'NONE', #1229, #553, #737 ) ;
#390 = ORIENTED_EDGE ( 'NONE', *, *, #185, .T. ) ;
#391 = AXIS2_PLACEMENT_3D ( 'NONE', #875, #1076, #549 ) ;
#392 = DIRECTION ( 'NONE',  ( 0.8660254037844407060, 6.123233995736721662E-17, 0.4999999999999962808 ) ) ;
#393 = DIRECTION ( 'NONE',  ( -1.000000000000000000, 0.000000000000000000, 0.000000000000000000 ) ) ;
#394 = DIRECTION ( 'NONE',  ( -0.000000000000000000, -1.000000000000000000, -0.000000000000000000 ) ) ;
#395 = ORIENTED_EDGE ( 'NONE', *, *, #703, .F. ) ;
#396 = CARTESIAN_POINT ( 'NONE',  ( 6.100000000000000533, 6.999999999999999112, 0.000000000000000000 ) ) ;
#397 = CARTESIAN_POINT ( 'NONE',  ( 12.93782217350888075, -0.9999999999999986677, 6.964101615137755275 ) ) ;
#398 = ADVANCED_FACE ( 'NONE', ( #1277 ), #373, .T. ) ;
#399 = LINE ( 'NONE', #580, #1225 ) ;
#400 = ORIENTED_EDGE ( 'NONE', *, *, #731, .F. ) ;
#401 = EDGE_LOOP ( 'NONE', ( #1275, #72, #1021, #619, #500 ) ) ;
#402 = CARTESIAN_POINT ( 'NONE',  ( 11.00000000000000000, -6.000000000000000000, 0.000000000000000000 ) ) ;
#403 = ORIENTED_EDGE ( 'NONE', *, *, #966, .T. ) ;
#404 = DIRECTION ( 'NONE',  ( 0.000000000000000000, 0.000000000000000000, -1.000000000000000000 ) ) ;
#405 = CARTESIAN_POINT ( 'NONE',  ( 0.000000000000000000, 3.000000000000000000, 0.000000000000000000 ) ) ;
#406 = ADVANCED_FACE ( 'NONE', ( #1187 ), #491, .F. ) ;
#407 = EDGE_LOOP ( 'NONE', ( #669, #803, #698, #1267 ) ) ;
#408 = CARTESIAN_POINT ( 'NONE',  ( 11.00000000000000000, -3.000000000000000000, 0.000000000000000000 ) ) ;
#409 = EDGE_LOOP ( 'NONE', ( #939, #918, #191, #1156, #305 ) ) ;
#410 =( NAMED_UNIT ( * ) PLANE_ANGLE_UNIT ( ) SI_UNIT ( $, .RADIAN. ) );
#411 = APPLICATION_CONTEXT ( 'automotive_design' ) ;
#412 = LINE ( 'NONE', #217, #345 ) ;
#413 = AXIS2_PLACEMENT_3D ( 'NONE', #600, #1004, #106 ) ;
#414 = LINE ( 'NONE', #38, #927 ) ;
#415 = VERTEX_POINT ( 'NONE', #1086 ) ;
#416 = CARTESIAN_POINT ( 'NONE',  ( 16.00000000000000000, -3.000000000000000000, 1.190598923241495966 ) ) ;
#417 = EDGE_CURVE ( 'NONE', #249, #77, #189, .T. ) ;
#418 = VECTOR ( 'NONE', #634, 1000.000000000000000 ) ;
#419 = CARTESIAN_POINT ( 'NONE',  ( 12.24321176118033350, -3.052300185147226674, 1.220794449214914756 ) ) ;
#420 = CARTESIAN_POINT ( 'NONE',  ( 24.00000000000000000, 0.000000000000000000, 7.500000000000000000 ) ) ;
#421 = ORIENTED_EDGE ( 'NONE', *, *, #123, .F. ) ;
#422 = DIRECTION ( 'NONE',  ( 0.000000000000000000, 0.000000000000000000, 1.000000000000000000 ) ) ;
#423 = LINE ( 'NONE', #518, #1184 ) ;
#424 = ORIENTED_EDGE ( 'NONE', *, *, #231, .F. ) ;
#425 = ORIENTED_EDGE ( 'NONE', *, *, #957, .T. ) ;
#426 =( NAMED_UNIT ( * ) SI_UNIT ( $, .STERADIAN. ) SOLID_ANGLE_UNIT ( ) );
#427 = AXIS2_PLACEMENT_3D ( 'NONE', #1038, #541, #447 ) ;
#428 = DIRECTION ( 'NONE',  ( 0.000000000000000000, 0.000000000000000000, -1.000000000000000000 ) ) ;
#429 = EDGE_CURVE ( 'NONE', #107, #724, #1194, .T. ) ;
#430 = CYLINDRICAL_SURFACE ( 'NONE', #887, 1.599999999999999867 ) ;
#431 = AXIS2_PLACEMENT_3D ( 'NONE', #780, #464, #886 ) ;
#432 = ORIENTED_EDGE ( 'NONE', *, *, #498, .F. ) ;
#433 = CARTESIAN_POINT ( 'NONE',  ( 23.82842712474619162, 2.000000000000001776, 1.767949192431121475 ) ) ;
#434 = EDGE_CURVE ( 'NONE', #898, #288, #184, .T. ) ;
#435 = FACE_OUTER_BOUND ( 'NONE', #65, .T. ) ;
#436 = ORIENTED_EDGE ( 'NONE', *, *, #1103, .T. ) ;
#437 = DIRECTION ( 'NONE',  ( -1.000000000000000000, 0.000000000000000000, 0.000000000000000000 ) ) ;
#438 = LINE ( 'NONE', #346, #697 ) ;
#439 = CARTESIAN_POINT ( 'NONE',  ( 12.53121282212427978, -3.562229808298813527, 5.484797545590748058 ) ) ;
#440 = LINE ( 'NONE', #1172, #599 ) ;
#441 = ORIENTED_EDGE ( 'NONE', *, *, #957, .F. ) ;
#442 = EDGE_CURVE ( 'NONE', #260, #227, #68, .T. ) ;
#443 = CARTESIAN_POINT ( 'NONE',  ( 17.89999999999999858, 4.000000000000000000, 0.000000000000000000 ) ) ;
#444 = COLOUR_RGB ( '',0.2980392156862745057, 0.2980392156862745057, 0.2980392156862745057 ) ;
#445 = DIRECTION ( 'NONE',  ( 0.000000000000000000, -0.000000000000000000, 1.000000000000000000 ) ) ;
#446 = CARTESIAN_POINT ( 'NONE',  ( 8.669872981077714869, -0.9999999999999983347, 4.499999999999999112 ) ) ;
#447 = DIRECTION ( 'NONE',  ( 1.000000000000000000, 0.000000000000000000, 0.000000000000000000 ) ) ;
#448 = VERTEX_POINT ( 'NONE', #284 ) ;
#449 = VERTEX_POINT ( 'NONE', #787 ) ;
#450 = DIRECTION ( 'NONE',  ( 0.000000000000000000, -0.000000000000000000, 1.000000000000000000 ) ) ;
#451 = CARTESIAN_POINT ( 'NONE',  ( 12.53121282212427445, 1.562229808298815525, 1.515202454409247279 ) ) ;
#452 = CARTESIAN_POINT ( 'NONE',  ( 3.000000000000000000, 3.000000000000000000, 7.500000000000000000 ) ) ;
#453 = APPLICATION_PROTOCOL_DEFINITION ( 'draft international standard', 'automotive_design', 1998, #411 ) ;
#454 = DIRECTION ( 'NONE',  ( -0.000000000000000000, 0.000000000000000000, -1.000000000000000000 ) ) ;
#455 = ORIENTED_EDGE ( 'NONE', *, *, #1201, .F. ) ;
#456 = VECTOR ( 'NONE', #767, 1000.000000000000000 ) ;
#457 = PLANE ( 'NONE',  #1114 ) ;
#458 = DIRECTION ( 'NONE',  ( 0.000000000000000000, 0.8660254037844387076, -0.4999999999999997780 ) ) ;
#459 = CARTESIAN_POINT ( 'NONE',  ( 15.82842712474619162, -4.000000000000000000, 5.232050807568877637 ) ) ;
#460 = ORIENTED_EDGE ( 'NONE', *, *, #498, .T. ) ;
#461 = ORIENTED_EDGE ( 'NONE', *, *, #42, .F. ) ;
#462 = ORIENTED_EDGE ( 'NONE', *, *, #6, .T. ) ;
#463 = CARTESIAN_POINT ( 'NONE',  ( 6.100000000000000533, 0.000000000000000000, 0.000000000000000000 ) ) ;
#464 = DIRECTION ( 'NONE',  ( 0.000000000000000000, 1.000000000000000000, 0.000000000000000000 ) ) ;
#465 = PRESENTATION_STYLE_ASSIGNMENT (( #70 ) ) ;
#466 = DIRECTION ( 'NONE',  ( 0.000000000000000000, 1.000000000000000000, 0.000000000000000000 ) ) ;
#467 = VECTOR ( 'NONE', #234, 1000.000000000000000 ) ;
#468 = ORIENTED_EDGE ( 'NONE', *, *, #34, .F. ) ;
#469 = ORIENTED_EDGE ( 'NONE', *, *, #1003, .T. ) ;
#470 = ADVANCED_FACE ( 'NONE', ( #682 ), #1181, .F. ) ;
#471 = EDGE_CURVE ( 'NONE', #243, #161, #320, .T. ) ;
#472 = DIRECTION ( 'NONE',  ( 0.000000000000000000, -1.000000000000000000, 0.000000000000000000 ) ) ;
#473 = DIRECTION ( 'NONE',  ( 1.000000000000000000, 0.000000000000000000, -0.000000000000000000 ) ) ;
#474 = CIRCLE ( 'NONE', #1207, 0.9999999999999995559 ) ;
#475 = SHAPE_DEFINITION_REPRESENTATION ( #1139, #335 ) ;
#476 = DIRECTION ( 'NONE',  ( 1.000000000000000000, 0.000000000000000000, 0.000000000000000000 ) ) ;
#477 = AXIS2_PLACEMENT_3D ( 'NONE', #990, #668, #1283 ) ;
#478 = CARTESIAN_POINT ( 'NONE',  ( 12.30757220991108980, 2.000000000000001332, 4.293944347771678771 ) ) ;
#479 = CARTESIAN_POINT ( 'NONE',  ( 12.93782217350887898, 2.000000000000001776, 1.767949192431121475 ) ) ;
#480 = LINE ( 'NONE', #881, #1102 ) ;
#481 = CARTESIAN_POINT ( 'NONE',  ( 0.000000000000000000, 0.000000000000000000, 0.000000000000000000 ) ) ;
#482 = CARTESIAN_POINT ( 'NONE',  ( 12.53121282212427978, -0.5622298082988123058, 6.711354877115881301 ) ) ;
#483 = EDGE_LOOP ( 'NONE', ( #378, #906, #58, #350 ) ) ;
#484 = CARTESIAN_POINT ( 'NONE',  ( 21.10000000000000142, 4.000000000000000000, 7.500000000000000000 ) ) ;
#485 = PLANE ( 'NONE',  #431 ) ;
#486 = DIRECTION ( 'NONE',  ( -0.000000000000000000, -0.000000000000000000, 1.000000000000000000 ) ) ;
#487 = AXIS2_PLACEMENT_3D ( 'NONE', #119, #422, #818 ) ;
#488 = CARTESIAN_POINT ( 'NONE',  ( 16.00000000000000000, -2.999999999999999556, 5.809401076758502924 ) ) ;
#489 = ADVANCED_FACE ( 'NONE', ( #315 ), #10, .F. ) ;
#490 = ADVANCED_FACE ( 'NONE', ( #1206 ), #1002, .T. ) ;
#491 = CYLINDRICAL_SURFACE ( 'NONE', #220, 1.600000000000000755 ) ;
#492 = CARTESIAN_POINT ( 'NONE',  ( 12.72459178506153599, -0.7867696115526544576, 6.840992992968272013 ) ) ;
#493 = AXIS2_PLACEMENT_3D ( 'NONE', #688, #585, #1177 ) ;
#494 = EDGE_LOOP ( 'NONE', ( #636, #122, #863, #761, #506, #102 ) ) ;
#495 = DIRECTION ( 'NONE',  ( 1.000000000000000000, 0.000000000000000000, 0.000000000000000000 ) ) ;
#496 = VERTEX_POINT ( 'NONE', #714 ) ;
#497 = DIRECTION ( 'NONE',  ( -0.000000000000000000, -0.000000000000000000, -1.000000000000000000 ) ) ;
#498 = EDGE_CURVE ( 'NONE', #1082, #1203, #920, .T. ) ;
#499 = CARTESIAN_POINT ( 'NONE',  ( 12.30757220991109335, -4.000000000000000888, 2.706055652228321229 ) ) ;
#500 = ORIENTED_EDGE ( 'NONE', *, *, #702, .F. ) ;
#501 = EDGE_CURVE ( 'NONE', #962, #7, #1022, .T. ) ;
#502 = CARTESIAN_POINT ( 'NONE',  ( 3.000000000000000000, 7.000000000000000000, 7.500000000000000000 ) ) ;
#503 = VERTEX_POINT ( 'NONE', #719 ) ;
#504 = AXIS2_PLACEMENT_3D ( 'NONE', #565, #466, #140 ) ;
#505 = CARTESIAN_POINT ( 'NONE',  ( 12.93782217350888253, -4.000000000000000000, 1.767949192431122141 ) ) ;
#506 = ORIENTED_EDGE ( 'NONE', *, *, #174, .F. ) ;
#507 = AXIS2_PLACEMENT_3D ( 'NONE', #730, #530, #343 ) ;
#508 = CARTESIAN_POINT ( 'NONE',  ( 8.669872981077714869, -0.9999999999999985567, 2.499999999999999556 ) ) ;
#509 = EDGE_CURVE ( 'NONE', #49, #1046, #1123, .T. ) ;
#510 = EDGE_LOOP ( 'NONE', ( #160, #629, #150, #1061 ) ) ;
#511 = SURFACE_STYLE_USAGE ( .BOTH. , #1118 ) ;
#512 = ORIENTED_EDGE ( 'NONE', *, *, #1268, .T. ) ;
#513 = CARTESIAN_POINT ( 'NONE',  ( 16.00000000000000000, -0.9999999999999986677, 6.964101615137755275 ) ) ;
#514 = VECTOR ( 'NONE', #1031, 1000.000000000000000 ) ;
#515 = LINE ( 'NONE', #917, #125 ) ;
#516 = ORIENTED_EDGE ( 'NONE', *, *, #69, .F. ) ;
#517 = LINE ( 'NONE', #612, #337 ) ;
#518 = CARTESIAN_POINT ( 'NONE',  ( 21.00000000000000000, 0.000000000000000000, 7.500000000000000000 ) ) ;
#519 = ORIENTED_EDGE ( 'NONE', *, *, #30, .T. ) ;
#520 = VECTOR ( 'NONE', #262, 1000.000000000000000 ) ;
#521 = FACE_OUTER_BOUND ( 'NONE', #135, .T. ) ;
#522 = LINE ( 'NONE', #835, #1176 ) ;
#523 = AXIS2_PLACEMENT_3D ( 'NONE', #294, #200, #692 ) ;
#524 = AXIS2_PLACEMENT_3D ( 'NONE', #646, #947, #929 ) ;
#525 = AXIS2_PLACEMENT_3D ( 'NONE', #245, #531, #936 ) ;
#526 = EDGE_CURVE ( 'NONE', #910, #302, #319, .T. ) ;
#527 = VECTOR ( 'NONE', #155, 1000.000000000000000 ) ;
#528 = CARTESIAN_POINT ( 'NONE',  ( 21.00000000000000000, 0.000000000000000000, 7.500000000000000000 ) ) ;
#529 = VERTEX_POINT ( 'NONE', #592 ) ;
#530 = DIRECTION ( 'NONE',  ( 0.000000000000000000, 1.000000000000000000, 0.000000000000000000 ) ) ;
#531 = DIRECTION ( 'NONE',  ( -0.000000000000000000, 0.000000000000000000, -1.000000000000000000 ) ) ;
#532 = EDGE_CURVE ( 'NONE', #314, #161, #210, .T. ) ;
#533 = AXIS2_PLACEMENT_3D ( 'NONE', #550, #172, #46 ) ;
#534 = CARTESIAN_POINT ( 'NONE',  ( 12.93782217350888253, -4.000000000000000000, 5.232050807568877637 ) ) ;
#535 = DIRECTION ( 'NONE',  ( 0.000000000000000000, -1.000000000000000000, 0.000000000000000000 ) ) ;
#536 = ORIENTED_EDGE ( 'NONE', *, *, #1208, .F. ) ;
#537 = ORIENTED_EDGE ( 'NONE', *, *, #1233, .F. ) ;
#538 = FACE_OUTER_BOUND ( 'NONE', #657, .T. ) ;
#539 = CARTESIAN_POINT ( 'NONE',  ( -0.000000000000000000, 10.00000000000000000, 0.000000000000000000 ) ) ;
#540 = CARTESIAN_POINT ( 'NONE',  ( 12.30757220991109158, -3.187575974361339437, 5.701104037467477070 ) ) ;
#541 = DIRECTION ( 'NONE',  ( -0.000000000000000000, 0.000000000000000000, 1.000000000000000000 ) ) ;
#542 = ORIENTED_EDGE ( 'NONE', *, *, #1003, .F. ) ;
#543 = VERTEX_POINT ( 'NONE', #1113 ) ;
#544 = DIRECTION ( 'NONE',  ( -0.000000000000000000, 0.000000000000000000, 1.000000000000000000 ) ) ;
#545 = ORIENTED_EDGE ( 'NONE', *, *, #702, .T. ) ;
#546 = VECTOR ( 'NONE', #360, 1000.000000000000000 ) ;
#547 = FACE_OUTER_BOUND ( 'NONE', #878, .T. ) ;
#548 = CARTESIAN_POINT ( 'NONE',  ( 21.10000000000000142, 6.999999999999999112, -0.1728420597616221743 ) ) ;
#549 = DIRECTION ( 'NONE',  ( 0.000000000000000000, 0.000000000000000000, -1.000000000000000000 ) ) ;
#550 = CARTESIAN_POINT ( 'NONE',  ( 13.00000000000000178, -3.000000000000000000, 7.500000000000000000 ) ) ;
#551 = CARTESIAN_POINT ( 'NONE',  ( 21.00000000000000000, 7.000000000000000000, 7.500000000000000000 ) ) ;
#552 = VECTOR ( 'NONE', #272, 1000.000000000000000 ) ;
#553 = DIRECTION ( 'NONE',  ( 0.000000000000000000, -0.000000000000000000, -1.000000000000000000 ) ) ;
#554 = ORIENTED_EDGE ( 'NONE', *, *, #564, .F. ) ;
#555 = CYLINDRICAL_SURFACE ( 'NONE', #1240, 3.000000000000000000 ) ;
#556 = CYLINDRICAL_SURFACE ( 'NONE', #391, 0.9999999999999995559 ) ;
#557 = FACE_OUTER_BOUND ( 'NONE', #159, .T. ) ;
#558 = VERTEX_POINT ( 'NONE', #1108 ) ;
#559 = ORIENTED_EDGE ( 'NONE', *, *, #1091, .T. ) ;
#560 = ORIENTED_EDGE ( 'NONE', *, *, #858, .F. ) ;
#561 = FACE_OUTER_BOUND ( 'NONE', #409, .T. ) ;
#562 = CARTESIAN_POINT ( 'NONE',  ( 12.24454843057702469, 1.055168682933419477, 1.222450577183941123 ) ) ;
#563 =( LENGTH_UNIT ( ) NAMED_UNIT ( * ) SI_UNIT ( .MILLI., .METRE. ) );
#564 = EDGE_CURVE ( 'NONE', #896, #949, #517, .T. ) ;
#565 = CARTESIAN_POINT ( 'NONE',  ( 0.000000000000000000, -6.000000000000000000, 7.500000000000000000 ) ) ;
#566 = ORIENTED_EDGE ( 'NONE', *, *, #203, .F. ) ;
#567 = ORIENTED_EDGE ( 'NONE', *, *, #196, .T. ) ;
#568 = FACE_OUTER_BOUND ( 'NONE', #48, .T. ) ;
#569 =( BOUNDED_CURVE ( )  B_SPLINE_CURVE ( 3, ( #488, #275, #673, #890 ),
 .UNSPECIFIED., .F., .T. ) 
 B_SPLINE_CURVE_WITH_KNOTS ( ( 4, 4 ),
 ( 1.570796326794896558, 1.910633236249018374 ),
 .UNSPECIFIED. ) 
 CURVE ( )  GEOMETRIC_REPRESENTATION_ITEM ( )  RATIONAL_B_SPLINE_CURVE ( ( 1.000000000000000000, 0.9903990397689925729, 0.9903990397689925729, 1.000000000000000000 ) ) 
 REPRESENTATION_ITEM ( '' )  );
#570 = CARTESIAN_POINT ( 'NONE',  ( 4.500000000000000888, 6.999999999999999112, 7.500000000000000000 ) ) ;
#571 = DIRECTION ( 'NONE',  ( 0.000000000000000000, 0.000000000000000000, -1.000000000000000000 ) ) ;
#572 = DIRECTION ( 'NONE',  ( 1.000000000000000000, -0.000000000000000000, -0.000000000000000000 ) ) ;
#573 = CARTESIAN_POINT ( 'NONE',  ( 12.24323011072674383, 2.000000000000002665, 2.862143150686339954 ) ) ;
#574 = ORIENTED_EDGE ( 'NONE', *, *, #182, .T. ) ;
#575 = CARTESIAN_POINT ( 'NONE',  ( 21.00000000000000000, 0.000000000000000000, 0.000000000000000000 ) ) ;
#576 = DIRECTION ( 'NONE',  ( -1.000000000000000000, 0.000000000000000000, 0.000000000000000000 ) ) ;
#577 = CARTESIAN_POINT ( 'NONE',  ( 12.15670022873370115, -4.000000000000000000, 3.821412951233534194 ) ) ;
#578 = PLANE ( 'NONE',  #141 ) ;
#579 = CARTESIAN_POINT ( 'NONE',  ( 12.15670022873370293, -2.221648219126429957, 6.258782686970083553 ) ) ;
#580 = CARTESIAN_POINT ( 'NONE',  ( 2.900000000000000799, 4.000000000000000000, 7.500000000000000000 ) ) ;
#581 = MANIFOLD_SOLID_BREP ( 'Cut-Extrude3', #745 ) ;
#582 = ORIENTED_EDGE ( 'NONE', *, *, #722, .T. ) ;
#583 = VECTOR ( 'NONE', #472, 1000.000000000000000 ) ;
#584 = LINE ( 'NONE', #1166, #39 ) ;
#585 = DIRECTION ( 'NONE',  ( 0.000000000000000000, -0.000000000000000000, -1.000000000000000000 ) ) ;
#586 = CARTESIAN_POINT ( 'NONE',  ( 3.000000000000000000, 10.00000000000000000, 7.500000000000000000 ) ) ;
#587 = AXIS2_PLACEMENT_3D ( 'NONE', #306, #707, #1032 ) ;
#588 = ORIENTED_EDGE ( 'NONE', *, *, #24, .T. ) ;
#589 = EDGE_CURVE ( 'NONE', #187, #223, #366, .T. ) ;
#590 = CIRCLE ( 'NONE', #216, 2.999999999999999112 ) ;
#591 = CARTESIAN_POINT ( 'NONE',  ( 16.00000000000000000, -3.000000000000000000, 0.000000000000000000 ) ) ;
#592 = CARTESIAN_POINT ( 'NONE',  ( 12.93782217350888253, -4.000000000000000000, 5.232050807568877637 ) ) ;
#593 = VERTEX_POINT ( 'NONE', #812 ) ;
#594 = DIRECTION ( 'NONE',  ( 0.000000000000000000, -1.000000000000000000, 0.000000000000000000 ) ) ;
#595 = AXIS2_PLACEMENT_3D ( 'NONE', #799, #473, #1170 ) ;
#596 = ORIENTED_EDGE ( 'NONE', *, *, #136, .F. ) ;
#597 = DIRECTION ( 'NONE',  ( 1.000000000000000000, -0.000000000000000000, -0.000000000000000000 ) ) ;
#598 = VERTEX_POINT ( 'NONE', #416 ) ;
#599 = VECTOR ( 'NONE', #165, 1000.000000000000000 ) ;
#600 = CARTESIAN_POINT ( 'NONE',  ( 21.10000000000000142, 4.000000000000000000, -0.1728420597616221743 ) ) ;
#601 = ADVANCED_FACE ( 'NONE', ( #1 ), #303, .T. ) ;
#602 = ADVANCED_FACE ( 'NONE', ( #244 ), #746, .F. ) ;
#603 = ORIENTED_EDGE ( 'NONE', *, *, #1228, .T. ) ;
#604 = CYLINDRICAL_SURFACE ( 'NONE', #1191, 2.999999999999999112 ) ;
#605 = VECTOR ( 'NONE', #638, 1000.000000000000000 ) ;
#606 = ORIENTED_EDGE ( 'NONE', *, *, #81, .F. ) ;
#607 = DIRECTION ( 'NONE',  ( 1.000000000000000000, 0.000000000000000000, 0.000000000000000000 ) ) ;
#608 = ORIENTED_EDGE ( 'NONE', *, *, #1066, .T. ) ;
#609 = DIRECTION ( 'NONE',  ( -0.000000000000000000, -0.000000000000000000, 1.000000000000000000 ) ) ;
#610 = DIRECTION ( 'NONE',  ( 0.000000000000000000, -0.8660254037844385966, 0.5000000000000001110 ) ) ;
#611 = EDGE_LOOP ( 'NONE', ( #1024, #281, #1125, #1062, #252, #1141 ) ) ;
#612 = CARTESIAN_POINT ( 'NONE',  ( 0.000000000000000000, -6.000000000000000000, 0.000000000000000000 ) ) ;
#613 = LINE ( 'NONE', #1227, #514 ) ;
#614 = CIRCLE ( 'NONE', #1055, 1.599999999999999867 ) ;
#615 = EDGE_LOOP ( 'NONE', ( #727, #596, #848, #536, #80, #468 ) ) ;
#616 = VECTOR ( 'NONE', #572, 1000.000000000000000 ) ;
#617 = CARTESIAN_POINT ( 'NONE',  ( 13.00000000000000178, -6.000000000000000000, 7.500000000000000000 ) ) ;
#618 = ADVANCED_FACE ( 'NONE', ( #850 ), #430, .F. ) ;
#619 = ORIENTED_EDGE ( 'NONE', *, *, #1103, .F. ) ;
#620 = DIRECTION ( 'NONE',  ( -0.000000000000000000, -0.000000000000000000, 1.000000000000000000 ) ) ;
#621 = CARTESIAN_POINT ( 'NONE',  ( 12.93782217350888253, -0.9999999999999981126, 0.03589838486224312258 ) ) ;
#622 = ORIENTED_EDGE ( 'NONE', *, *, #1134, .T. ) ;
#623 = EDGE_CURVE ( 'NONE', #250, #904, #1029, .T. ) ;
#624 = FACE_BOUND ( 'NONE', #1001, .T. ) ;
#625 = PRESENTATION_LAYER_ASSIGNMENT (  '', '', ( #194 ) ) ;
#626 = CARTESIAN_POINT ( 'NONE',  ( 24.00000000000000000, 3.000000000000000000, 7.500000000000000000 ) ) ;
#627 = LINE ( 'NONE', #617, #683 ) ;
#628 = PLANE ( 'NONE',  #193 ) ;
#629 = ORIENTED_EDGE ( 'NONE', *, *, #380, .F. ) ;
#630 = ORIENTED_EDGE ( 'NONE', *, *, #471, .T. ) ;
#631 = CARTESIAN_POINT ( 'NONE',  ( 16.00000000000000000, 0.000000000000000000, 0.000000000000000000 ) ) ;
#632 = CARTESIAN_POINT ( 'NONE',  ( 3.000000000000000000, 7.000000000000000000, 7.500000000000000000 ) ) ;
#633 = CARTESIAN_POINT ( 'NONE',  ( 8.000000000000000000, 0.000000000000000000, 0.000000000000000000 ) ) ;
#634 = DIRECTION ( 'NONE',  ( -0.000000000000000000, -0.000000000000000000, -1.000000000000000000 ) ) ;
#635 = ADVANCED_FACE ( 'NONE', ( #1251, #624, #128 ), #152, .F. ) ;
#636 = ORIENTED_EDGE ( 'NONE', *, *, #101, .F. ) ;
#637 = ORIENTED_EDGE ( 'NONE', *, *, #259, .T. ) ;
#638 = DIRECTION ( 'NONE',  ( -0.000000000000000000, -0.000000000000000000, -1.000000000000000000 ) ) ;
#639 = VECTOR ( 'NONE', #1044, 1000.000000000000000 ) ;
#640 = CARTESIAN_POINT ( 'NONE',  ( 12.93782217350888253, -0.9999999999999981126, 0.03589838486224312258 ) ) ;
#641 = EDGE_CURVE ( 'NONE', #109, #14, #1074, .T. ) ;
#642 = DIRECTION ( 'NONE',  ( 1.000000000000000000, 0.000000000000000000, 0.000000000000000000 ) ) ;
#643 = DIRECTION ( 'NONE',  ( 0.000000000000000000, 0.8660254037844388186, -0.4999999999999998335 ) ) ;
#644 = EDGE_LOOP ( 'NONE', ( #560, #403, #1155, #1249, #1286, #554, #864, #1053, #606, #825, #293, #747, #64, #90 ) ) ;
#645 = ORIENTED_EDGE ( 'NONE', *, *, #806, .F. ) ;
#646 = CARTESIAN_POINT ( 'NONE',  ( 0.000000000000000000, 0.000000000000000000, 7.500000000000000000 ) ) ;
#647 = ORIENTED_EDGE ( 'NONE', *, *, #23, .T. ) ;
#648 = CIRCLE ( 'NONE', #92, 2.999999999999999112 ) ;
#649 = AXIS2_PLACEMENT_3D ( 'NONE', #19, #907, #925 ) ;
#650 = ORIENTED_EDGE ( 'NONE', *, *, #509, .F. ) ;
#651 = DIRECTION ( 'NONE',  ( 0.000000000000000000, -0.5000000000000003331, 0.8660254037844385966 ) ) ;
#652 = VECTOR ( 'NONE', #1247, 1000.000000000000000 ) ;
#653 =( NAMED_UNIT ( * ) SI_UNIT ( $, .STERADIAN. ) SOLID_ANGLE_UNIT ( ) );
#654 = DIRECTION ( 'NONE',  ( -0.000000000000000000, -0.000000000000000000, 1.000000000000000000 ) ) ;
#655 = ORIENTED_EDGE ( 'NONE', *, *, #278, .F. ) ;
#656 = VERTEX_POINT ( 'NONE', #137 ) ;
#657 = EDGE_LOOP ( 'NONE', ( #1142, #754, #1241, #460 ) ) ;
#658 = ADVANCED_FACE ( 'NONE', ( #538 ), #940, .F. ) ;
#659 = AXIS2_PLACEMENT_3D ( 'NONE', #1214, #1231, #1210 ) ;
#660 = DIRECTION ( 'NONE',  ( 0.000000000000000000, 0.000000000000000000, -1.000000000000000000 ) ) ;
#661 = FILL_AREA_STYLE ('',( #677 ) ) ;
#662 = CARTESIAN_POINT ( 'NONE',  ( 4.500000000000000888, 6.999999999999999112, -0.1728420597616221743 ) ) ;
#663 = CARTESIAN_POINT ( 'NONE',  ( 12.72459178506153776, 2.000000000000002220, 4.985833563229913779 ) ) ;
#664 = ORIENTED_EDGE ( 'NONE', *, *, #308, .T. ) ;
#665 = ADVANCED_FACE ( 'NONE', ( #124 ), #457, .F. ) ;
#666 = EDGE_CURVE ( 'NONE', #1203, #945, #1234, .T. ) ;
#667 = FACE_BOUND ( 'NONE', #344, .T. ) ;
#668 = DIRECTION ( 'NONE',  ( 1.000000000000000000, 0.000000000000000000, -0.000000000000000000 ) ) ;
#669 = ORIENTED_EDGE ( 'NONE', *, *, #623, .T. ) ;
#670 = DIRECTION ( 'NONE',  ( 0.000000000000000000, -0.8660254037844384856, -0.5000000000000002220 ) ) ;
#671 = ORIENTED_EDGE ( 'NONE', *, *, #501, .T. ) ;
#672 = ORIENTED_EDGE ( 'NONE', *, *, #381, .T. ) ;
#673 = CARTESIAN_POINT ( 'NONE',  ( 15.94225463058680425, -3.678047194938205866, 5.417930346237659123 ) ) ;
#674 = EDGE_CURVE ( 'NONE', #1067, #77, #1288, .T. ) ;
#675 = DIRECTION ( 'NONE',  ( -0.000000000000000000, -0.000000000000000000, 1.000000000000000000 ) ) ;
#676 = VECTOR ( 'NONE', #1025, 1000.000000000000000 ) ;
#677 = FILL_AREA_STYLE_COLOUR ( '', #764 ) ;
#678 = ADVANCED_FACE ( 'NONE', ( #1242 ), #1143, .F. ) ;
#679 = CARTESIAN_POINT ( 'NONE',  ( 0.000000000000000000, 0.000000000000000000, 0.000000000000000000 ) ) ;
#680 = ORIENTED_EDGE ( 'NONE', *, *, #442, .F. ) ;
#681 = DIRECTION ( 'NONE',  ( -0.000000000000000000, 0.000000000000000000, 1.000000000000000000 ) ) ;
#682 = FACE_OUTER_BOUND ( 'NONE', #928, .T. ) ;
#683 = VECTOR ( 'NONE', #1130, 1000.000000000000000 ) ;
#684 = CARTESIAN_POINT ( 'NONE',  ( 12.72459178506153776, -4.000000000000000000, 2.014166436770087554 ) ) ;
#685 = VERTEX_POINT ( 'NONE', #443 ) ;
#686 = CARTESIAN_POINT ( 'NONE',  ( 21.00000000000000000, 0.000000000000000000, 6.386751345948130876 ) ) ;
#687 = AXIS2_PLACEMENT_3D ( 'NONE', #1216, #98, #495 ) ;
#688 = CARTESIAN_POINT ( 'NONE',  ( 13.00000000000000178, -3.000000000000000000, 0.000000000000000000 ) ) ;
#689 = EDGE_CURVE ( 'NONE', #1015, #260, #522, .T. ) ;
#690 = CARTESIAN_POINT ( 'NONE',  ( 12.24454843057702114, -0.05516868293341687518, 6.418602999890573813 ) ) ;
#691 = EDGE_LOOP ( 'NONE', ( #821, #469, #1040, #1160 ) ) ;
#692 = DIRECTION ( 'NONE',  ( 1.000000000000000000, 0.000000000000000000, 0.000000000000000000 ) ) ;
#693 = CARTESIAN_POINT ( 'NONE',  ( 8.000000000000000000, -0.9999999999999985567, 2.499999999999999556 ) ) ;
#694 = DIRECTION ( 'NONE',  ( 0.000000000000000000, 0.000000000000000000, 1.000000000000000000 ) ) ;
#695 = AXIS2_PLACEMENT_3D ( 'NONE', #502, #1092, #1299 ) ;
#696 =( GEOMETRIC_REPRESENTATION_CONTEXT ( 3 ) GLOBAL_UNCERTAINTY_ASSIGNED_CONTEXT ( ( #225 ) ) GLOBAL_UNIT_ASSIGNED_CONTEXT ( ( #9, #410, #426 ) ) REPRESENTATION_CONTEXT ( 'NONE', 'WORKASPACE' ) );
#697 = VECTOR ( 'NONE', #229, 1000.000000000000000 ) ;
#698 = ORIENTED_EDGE ( 'NONE', *, *, #781, .F. ) ;
#699 = DIRECTION ( 'NONE',  ( 0.000000000000000000, 0.000000000000000000, 1.000000000000000000 ) ) ;
#700 = ORIENTED_EDGE ( 'NONE', *, *, #958, .T. ) ;
#701 = CARTESIAN_POINT ( 'NONE',  ( 0.000000000000000000, 0.000000000000000000, 7.500000000000000000 ) ) ;
#702 = EDGE_CURVE ( 'NONE', #801, #258, #841, .T. ) ;
#703 = EDGE_CURVE ( 'NONE', #791, #598, #168, .T. ) ;
#704 = AXIS2_PLACEMENT_3D ( 'NONE', #332, #823, #116 ) ;
#705 = CARTESIAN_POINT ( 'NONE',  ( 12.53121282212427801, -3.999999999999998224, 2.273442668474869421 ) ) ;
#706 = ORIENTED_EDGE ( 'NONE', *, *, #267, .T. ) ;
#707 = DIRECTION ( 'NONE',  ( 1.000000000000000000, 0.000000000000000000, 0.000000000000000000 ) ) ;
#708 = ORIENTED_EDGE ( 'NONE', *, *, #278, .T. ) ;
#709 = CARTESIAN_POINT ( 'NONE',  ( 2.900000000000000799, 0.000000000000000000, 0.000000000000000000 ) ) ;
#710 = LINE ( 'NONE', #1109, #131 ) ;
#711 = CARTESIAN_POINT ( 'NONE',  ( 6.100000000000000533, 6.999999999999999112, 7.500000000000000000 ) ) ;
#712 = EDGE_LOOP ( 'NONE', ( #421, #1183, #1084, #1260 ) ) ;
#713 = ORIENTED_EDGE ( 'NONE', *, *, #380, .T. ) ;
#714 = CARTESIAN_POINT ( 'NONE',  ( 0.000000000000000000, 7.000000000000000000, 0.000000000000000000 ) ) ;
#715 = AXIS2_PLACEMENT_3D ( 'NONE', #662, #654, #71 ) ;
#716 = CARTESIAN_POINT ( 'NONE',  ( 12.15680102106897209, -2.778712895450520470, 1.062838753861660823 ) ) ;
#717 = STYLED_ITEM ( 'NONE', ( #914 ), #581 ) ;
#718 = ORIENTED_EDGE ( 'NONE', *, *, #230, .T. ) ;
#719 = CARTESIAN_POINT ( 'NONE',  ( 3.000000000000000000, 10.00000000000000000, 0.000000000000000000 ) ) ;
#720 = EDGE_CURVE ( 'NONE', #1203, #856, #753, .T. ) ;
#721 = CARTESIAN_POINT ( 'NONE',  ( 21.00000000000000000, 0.000000000000000000, 0.6132486540518684581 ) ) ;
#722 = EDGE_CURVE ( 'NONE', #77, #187, #760, .T. ) ;
#723 = CIRCLE ( 'NONE', #873, 3.000000000000000000 ) ;
#724 = VERTEX_POINT ( 'NONE', #479 ) ;
#725 = DIRECTION ( 'NONE',  ( -0.000000000000000000, -0.000000000000000000, -1.000000000000000000 ) ) ;
#726 = UNCERTAINTY_MEASURE_WITH_UNIT (LENGTH_MEASURE( 1.000000000000000082E-05 ), #1065, 'distance_accuracy_value', 'NONE');
#727 = ORIENTED_EDGE ( 'NONE', *, *, #739, .F. ) ;
#728 = CARTESIAN_POINT ( 'NONE',  ( 21.00000000000000000, 0.000000000000000000, 6.386751345948130876 ) ) ;
#729 = EDGE_CURVE ( 'NONE', #209, #558, #87, .T. ) ;
#730 = CARTESIAN_POINT ( 'NONE',  ( 0.000000000000000000, 0.000000000000000000, 7.500000000000000000 ) ) ;
#731 = EDGE_CURVE ( 'NONE', #288, #496, #584, .T. ) ;
#732 = PRODUCT ( 'wire guide brass', 'wire guide brass', '', ( #55 ) ) ;
#733 = CARTESIAN_POINT ( 'NONE',  ( 12.72392486108163290, -0.7861026875727527008, 0.1593920557710510055 ) ) ;
#734 = CARTESIAN_POINT ( 'NONE',  ( 12.13407124251324198, -2.358222519856602251, 0.8200685223208653563 ) ) ;
#735 = DIRECTION ( 'NONE',  ( 1.000000000000000000, 0.000000000000000000, 0.000000000000000000 ) ) ;
#736 = ORIENTED_EDGE ( 'NONE', *, *, #793, .F. ) ;
#737 = DIRECTION ( 'NONE',  ( 1.000000000000000000, 0.000000000000000000, 0.000000000000000000 ) ) ;
#738 = DIRECTION ( 'NONE',  ( 1.000000000000000000, 0.000000000000000000, -0.000000000000000000 ) ) ;
#739 = EDGE_CURVE ( 'NONE', #307, #963, #82, .T. ) ;
#740 = DIRECTION ( 'NONE',  ( -0.000000000000000000, 0.000000000000000000, 1.000000000000000000 ) ) ;
#741 = LINE ( 'NONE', #868, #552 ) ;
#742 = PRODUCT_DEFINITION ( 'UNKNOWN', '', #369, #120 ) ;
#743 = CARTESIAN_POINT ( 'NONE',  ( 12.72392486108162934, 2.000000000000001332, 2.014936534248737754 ) ) ;
#744 = VERTEX_POINT ( 'NONE', #786 ) ;
#745 = CLOSED_SHELL ( 'NONE', ( #489, #1252, #398, #490, #658, #665, #932, #601, #602, #869, #1007, #311, #770, #635, #222, #860, #1197, #909, #1235, #211, #969, #901, #978, #1020, #1209, #768, #1188, #8, #470, #1153, #406, #117, #618, #678, #1014, #1245 ) ) ;
#746 = PLANE ( 'NONE',  #524 ) ;
#747 = ORIENTED_EDGE ( 'NONE', *, *, #900, .T. ) ;
#748 = DIRECTION ( 'NONE',  ( 0.000000000000000000, 0.000000000000000000, -1.000000000000000000 ) ) ;
#749 = LINE ( 'NONE', #1043, #956 ) ;
#750 = DIRECTION ( 'NONE',  ( 0.000000000000000000, 1.000000000000000000, -0.000000000000000000 ) ) ;
#751 = CARTESIAN_POINT ( 'NONE',  ( 12.93782217350888075, 2.000000000000001776, 5.232050807568878525 ) ) ;
#752 = VERTEX_POINT ( 'NONE', #1281 ) ;
#753 = LINE ( 'NONE', #251, #922 ) ;
#754 = ORIENTED_EDGE ( 'NONE', *, *, #134, .T. ) ;
#755 = CARTESIAN_POINT ( 'NONE',  ( 8.000000000000000000, -3.000000000000000000, 7.500000000000000000 ) ) ;
#756 = DIRECTION ( 'NONE',  ( 0.000000000000000000, -1.000000000000000000, 0.000000000000000000 ) ) ;
#757 = CARTESIAN_POINT ( 'NONE',  ( 21.00000000000000000, 3.000000000000000000, 7.500000000000000000 ) ) ;
#758 = ORIENTED_EDGE ( 'NONE', *, *, #1268, .F. ) ;
#759 = ORIENTED_EDGE ( 'NONE', *, *, #136, .T. ) ;
#760 = LINE ( 'NONE', #224, #1282 ) ;
#761 = ORIENTED_EDGE ( 'NONE', *, *, #79, .F. ) ;
#762 = VECTOR ( 'NONE', #1223, 1000.000000000000341 ) ;
#763 = CARTESIAN_POINT ( 'NONE',  ( 12.15670022873369760, 0.2216482191264319279, 0.7412173130299146706 ) ) ;
#764 = COLOUR_RGB ( '',0.2980392156862745057, 0.2980392156862745057, 0.2980392156862745057 ) ;
#765 = SURFACE_STYLE_FILL_AREA ( #661 ) ;
#766 = ORIENTED_EDGE ( 'NONE', *, *, #434, .F. ) ;
#767 = DIRECTION ( 'NONE',  ( 0.000000000000000000, -1.000000000000000000, 0.000000000000000000 ) ) ;
#768 = ADVANCED_FACE ( 'NONE', ( #568 ), #779, .T. ) ;
#769 = FACE_OUTER_BOUND ( 'NONE', #510, .T. ) ;
#770 = ADVANCED_FACE ( 'NONE', ( #667, #1057, #75 ), #578, .T. ) ;
#771 = ORIENTED_EDGE ( 'NONE', *, *, #1138, .F. ) ;
#772 = AXIS2_PLACEMENT_3D ( 'NONE', #930, #814, #1115 ) ;
#773 = FACE_OUTER_BOUND ( 'NONE', #776, .T. ) ;
#774 = SURFACE_SIDE_STYLE ('',( #765 ) ) ;
#775 = FACE_OUTER_BOUND ( 'NONE', #377, .T. ) ;
#776 = EDGE_LOOP ( 'NONE', ( #537, #588, #1253, #582 ) ) ;
#777 = ORIENTED_EDGE ( 'NONE', *, *, #170, .T. ) ;
#778 = EDGE_CURVE ( 'NONE', #161, #543, #885, .T. ) ;
#779 = CYLINDRICAL_SURFACE ( 'NONE', #1149, 3.000000000000000000 ) ;
#780 = CARTESIAN_POINT ( 'NONE',  ( 0.000000000000000000, 10.00000000000000000, 7.500000000000000000 ) ) ;
#781 = EDGE_CURVE ( 'NONE', #983, #832, #792, .T. ) ;
#782 = VECTOR ( 'NONE', #392, 1000.000000000000341 ) ;
#783 = CARTESIAN_POINT ( 'NONE',  ( 11.00000000000000000, -6.000000000000000000, 7.500000000000000000 ) ) ;
#784 = CARTESIAN_POINT ( 'NONE',  ( 19.50000000000000000, 6.999999999999999112, 0.000000000000000000 ) ) ;
#785 = EDGE_LOOP ( 'NONE', ( #201, #1298, #41, #274 ) ) ;
#786 = CARTESIAN_POINT ( 'NONE',  ( 3.000000000000000000, 0.000000000000000000, 7.500000000000000000 ) ) ;
#787 = CARTESIAN_POINT ( 'NONE',  ( 12.93782217350888253, -4.000000000000000000, 1.767949192431122141 ) ) ;
#788 = AXIS2_PLACEMENT_3D ( 'NONE', #701, #1035, #1048 ) ;
#789 =( NAMED_UNIT ( * ) PLANE_ANGLE_UNIT ( ) SI_UNIT ( $, .RADIAN. ) );
#790 = CARTESIAN_POINT ( 'NONE',  ( 12.15670022873370293, 0.7783517808735710419, 5.937369735736550247 ) ) ;
#791 = VERTEX_POINT ( 'NONE', #872 ) ;
#792 = LINE ( 'NONE', #463, #1215 ) ;
#793 = EDGE_CURVE ( 'NONE', #962, #415, #1272, .T. ) ;
#794 = DIRECTION ( 'NONE',  ( 0.000000000000000000, 0.000000000000000000, 1.000000000000000000 ) ) ;
#795 = AXIS2_PLACEMENT_3D ( 'NONE', #551, #954, #265 ) ;
#796 = CARTESIAN_POINT ( 'NONE',  ( 12.13412592507499710, 0.3577145289688825058, 6.180224766354904808 ) ) ;
#797 = ORIENTED_EDGE ( 'NONE', *, *, #270, .F. ) ;
#798 = DIRECTION ( 'NONE',  ( 1.000000000000000000, 0.000000000000000000, -0.000000000000000000 ) ) ;
#799 = CARTESIAN_POINT ( 'NONE',  ( 8.000000000000000000, -0.9999999999999985567, 3.499999999999999112 ) ) ;
#800 = DIRECTION ( 'NONE',  ( 1.000000000000000000, 0.000000000000000000, 0.000000000000000000 ) ) ;
#801 = VERTEX_POINT ( 'NONE', #865 ) ;
#802 =( BOUNDED_CURVE ( )  B_SPLINE_CURVE ( 3, ( #1175, #879, #1085, #686 ),
 .UNSPECIFIED., .F., .F. ) 
 B_SPLINE_CURVE_WITH_KNOTS ( ( 4, 4 ),
 ( 1.910633236249017930, 3.141592653589793116 ),
 .UNSPECIFIED. ) 
 CURVE ( )  GEOMETRIC_REPRESENTATION_ITEM ( )  RATIONAL_B_SPLINE_CURVE ( ( 1.000000000000000000, 0.8776643872851505046, 0.8776643872851505046, 1.000000000000000000 ) ) 
 REPRESENTATION_ITEM ( '' )  );
#803 = ORIENTED_EDGE ( 'NONE', *, *, #913, .F. ) ;
#804 = CARTESIAN_POINT ( 'NONE',  ( 0.000000000000000000, -0.9999999999999985567, 3.499999999999999112 ) ) ;
#805 = ORIENTED_EDGE ( 'NONE', *, *, #623, .F. ) ;
#806 = EDGE_CURVE ( 'NONE', #198, #107, #115, .T. ) ;
#807 = DIRECTION ( 'NONE',  ( 0.000000000000000000, -1.000000000000000000, 0.000000000000000000 ) ) ;
#808 = CARTESIAN_POINT ( 'NONE',  ( 8.669872981077714869, -0.9999999999999985567, 3.499999999999999112 ) ) ;
#809 = ORIENTED_EDGE ( 'NONE', *, *, #162, .F. ) ;
#810 = CARTESIAN_POINT ( 'NONE',  ( 0.000000000000000000, 3.000000000000000000, 7.500000000000000000 ) ) ;
#811 = ORIENTED_EDGE ( 'NONE', *, *, #1127, .T. ) ;
#812 = CARTESIAN_POINT ( 'NONE',  ( 11.00000000000000000, -6.000000000000000000, 7.500000000000000000 ) ) ;
#813 = VECTOR ( 'NONE', #486, 1000.000000000000000 ) ;
#814 = DIRECTION ( 'NONE',  ( 0.000000000000000000, 0.4999999999999999445, -0.8660254037844387076 ) ) ;
#815 = VERTEX_POINT ( 'NONE', #972 ) ;
#816 = DIRECTION ( 'NONE',  ( 0.000000000000000000, 0.000000000000000000, -1.000000000000000000 ) ) ;
#817 = ORIENTED_EDGE ( 'NONE', *, *, #321, .T. ) ;
#818 = DIRECTION ( 'NONE',  ( -1.000000000000000000, 0.000000000000000000, 0.000000000000000000 ) ) ;
#819 = PLANE ( 'NONE',  #772 ) ;
#820 = CARTESIAN_POINT ( 'NONE',  ( 6.100000000000000533, 6.999999999999999112, -0.1728420597616221743 ) ) ;
#821 = ORIENTED_EDGE ( 'NONE', *, *, #371, .F. ) ;
#822 = DIRECTION ( 'NONE',  ( 1.000000000000000000, 0.000000000000000000, 0.000000000000000000 ) ) ;
#823 = DIRECTION ( 'NONE',  ( 1.000000000000000000, 0.000000000000000000, 0.000000000000000000 ) ) ;
#824 = CIRCLE ( 'NONE', #255, 3.000000000000000000 ) ;
#825 = ORIENTED_EDGE ( 'NONE', *, *, #641, .T. ) ;
#826 = EDGE_CURVE ( 'NONE', #49, #1015, #1293, .T. ) ;
#827 = DIRECTION ( 'NONE',  ( -0.000000000000000000, -0.000000000000000000, 1.000000000000000000 ) ) ;
#828 = VECTOR ( 'NONE', #951, 1000.000000000000000 ) ;
#829 = DIRECTION ( 'NONE',  ( 1.000000000000000000, 0.000000000000000000, 0.000000000000000000 ) ) ;
#830 = CARTESIAN_POINT ( 'NONE',  ( 12.93782217350887898, 2.000000000000001776, 1.767949192431121475 ) ) ;
#831 = PLANE ( 'NONE',  #659 ) ;
#832 = VERTEX_POINT ( 'NONE', #396 ) ;
#833 = EDGE_CURVE ( 'NONE', #752, #153, #802, .T. ) ;
#834 = EDGE_CURVE ( 'NONE', #260, #368, #569, .T. ) ;
#835 = CARTESIAN_POINT ( 'NONE',  ( 16.00000000000000000, -3.000000000000000000, 0.000000000000000000 ) ) ;
#836 = LINE ( 'NONE', #755, #973 ) ;
#837 = DIRECTION ( 'NONE',  ( 0.000000000000000000, -0.8660254037844385966, 0.5000000000000001110 ) ) ;
#838 = CARTESIAN_POINT ( 'NONE',  ( 16.00000000000000000, 0.000000000000000000, 6.386751345948130876 ) ) ;
#839 = EDGE_LOOP ( 'NONE', ( #671, #971, #370, #512 ) ) ;
#840 = ORIENTED_EDGE ( 'NONE', *, *, #689, .T. ) ;
#841 = LINE ( 'NONE', #1150, #605 ) ;
#842 = VECTOR ( 'NONE', #383, 1000.000000000000000 ) ;
#843 = VERTEX_POINT ( 'NONE', #177 ) ;
#844 = DIRECTION ( 'NONE',  ( 0.000000000000000000, 0.000000000000000000, 1.000000000000000000 ) ) ;
#845 = LINE ( 'NONE', #937, #1294 ) ;
#846 = CARTESIAN_POINT ( 'NONE',  ( 24.00000000000000000, -0.9999999999999986677, 6.964101615137755275 ) ) ;
#847 = CARTESIAN_POINT ( 'NONE',  ( 12.53121282212427978, 2.000000000000001776, 4.726557331525130579 ) ) ;
#848 = ORIENTED_EDGE ( 'NONE', *, *, #526, .T. ) ;
#849 = AXIS2_PLACEMENT_3D ( 'NONE', #808, #296, #197 ) ;
#850 = FACE_OUTER_BOUND ( 'NONE', #40, .T. ) ;
#851 = CARTESIAN_POINT ( 'NONE',  ( 12.30757220991109335, 1.187575974361342768, 1.298895962532521597 ) ) ;
#852 = LINE ( 'NONE', #548, #828 ) ;
#853 = LINE ( 'NONE', #783, #842 ) ;
#854 = ORIENTED_EDGE ( 'NONE', *, *, #900, .F. ) ;
#855 = ORIENTED_EDGE ( 'NONE', *, *, #471, .F. ) ;
#856 = VERTEX_POINT ( 'NONE', #575 ) ;
#857 = CARTESIAN_POINT ( 'NONE',  ( 15.94225463058680425, -3.678047194938206754, 1.582069653762339545 ) ) ;
#858 = EDGE_CURVE ( 'NONE', #977, #223, #979, .T. ) ;
#859 = FACE_OUTER_BOUND ( 'NONE', #407, .T. ) ;
#860 = ADVANCED_FACE ( 'NONE', ( #561 ), #964, .T. ) ;
#861 = DIRECTION ( 'NONE',  ( 0.000000000000000000, 0.000000000000000000, -1.000000000000000000 ) ) ;
#862 = EDGE_LOOP ( 'NONE', ( #645, #1243, #1122, #455, #1052, #424, #1164, #884 ) ) ;
#863 = ORIENTED_EDGE ( 'NONE', *, *, #308, .F. ) ;
#864 = ORIENTED_EDGE ( 'NONE', *, *, #895, .T. ) ;
#865 = CARTESIAN_POINT ( 'NONE',  ( 8.000000000000000000, 0.000000000000000000, 7.500000000000000000 ) ) ;
#866 = CIRCLE ( 'NONE', #687, 2.999999999999999112 ) ;
#867 = CARTESIAN_POINT ( 'NONE',  ( 12.52723710946927582, -1.443047432034750388, 6.708308060988718680 ) ) ;
#868 = CARTESIAN_POINT ( 'NONE',  ( 0.000000000000000000, 0.000000000000000000, 0.6132486540518684581 ) ) ;
#869 = ADVANCED_FACE ( 'NONE', ( #905 ), #911, .F. ) ;
#870 = ORIENTED_EDGE ( 'NONE', *, *, #674, .T. ) ;
#871 = EDGE_LOOP ( 'NONE', ( #893, #142, #817, #1212, #361, #334 ) ) ;
#872 = CARTESIAN_POINT ( 'NONE',  ( 15.82842712474619162, -4.000000000000000000, 1.767949192431122141 ) ) ;
#873 = AXIS2_PLACEMENT_3D ( 'NONE', #452, #339, #642 ) ;
#874 = CARTESIAN_POINT ( 'NONE',  ( 21.10000000000000142, 4.000000000000000000, 0.000000000000000000 ) ) ;
#875 = CARTESIAN_POINT ( 'NONE',  ( 0.000000000000000000, -0.9999999999999985567, 3.499999999999999112 ) ) ;
#876 = FACE_OUTER_BOUND ( 'NONE', #318, .T. ) ;
#877 = CARTESIAN_POINT ( 'NONE',  ( 12.13412592507499532, 2.000000000000001776, 3.664297110003178481 ) ) ;
#878 = EDGE_LOOP ( 'NONE', ( #771, #1112, #97, #33 ) ) ;
#879 = CARTESIAN_POINT ( 'NONE',  ( 23.38987659787527207, 0.7595917942265428824, 5.948200819077205104 ) ) ;
#880 = EDGE_CURVE ( 'NONE', #1232, #1222, #313, .T. ) ;
#881 = CARTESIAN_POINT ( 'NONE',  ( 24.00000000000000000, 7.000000000000000000, 7.500000000000000000 ) ) ;
#882 = CARTESIAN_POINT ( 'NONE',  ( 0.000000000000000000, 3.000000000000000000, 7.500000000000000000 ) ) ;
#883 = CARTESIAN_POINT ( 'NONE',  ( 12.30757220991108980, -0.1875759743613387986, 6.495048385239151401 ) ) ;
#884 = ORIENTED_EDGE ( 'NONE', *, *, #1189, .F. ) ;
#885 = LINE ( 'NONE', #484, #316 ) ;
#886 = DIRECTION ( 'NONE',  ( 0.000000000000000000, -0.000000000000000000, 1.000000000000000000 ) ) ;
#887 = AXIS2_PLACEMENT_3D ( 'NONE', #330, #620, #28 ) ;
#888 = LINE ( 'NONE', #586, #813 ) ;
#889 = ORIENTED_EDGE ( 'NONE', *, *, #924, .F. ) ;
#890 = CARTESIAN_POINT ( 'NONE',  ( 15.82842712474619162, -4.000000000000000000, 5.232050807568877637 ) ) ;
#891 = DIRECTION ( 'NONE',  ( 0.000000000000000000, 1.000000000000000000, 0.000000000000000000 ) ) ;
#892 = AXIS2_PLACEMENT_3D ( 'NONE', #246, #740, #347 ) ;
#893 = ORIENTED_EDGE ( 'NONE', *, *, #329, .F. ) ;
#894 = LINE ( 'NONE', #1096, #325 ) ;
#895 = EDGE_CURVE ( 'NONE', #896, #1045, #648, .T. ) ;
#896 = VERTEX_POINT ( 'NONE', #402 ) ;
#897 = CYLINDRICAL_SURFACE ( 'NONE', #935, 0.9999999999999995559 ) ;
#898 = VERTEX_POINT ( 'NONE', #810 ) ;
#899 = DIRECTION ( 'NONE',  ( 1.000000000000000000, 0.000000000000000000, 0.000000000000000000 ) ) ;
#900 = EDGE_CURVE ( 'NONE', #496, #503, #824, .T. ) ;
#901 = ADVANCED_FACE ( 'NONE', ( #133 ), #1157, .F. ) ;
#902 = CARTESIAN_POINT ( 'NONE',  ( 12.13412592507499888, -4.000000000000000000, 3.335702889996821963 ) ) ;
#903 = AXIS2_PLACEMENT_3D ( 'NONE', #66, #1008, #610 ) ;
#904 = VERTEX_POINT ( 'NONE', #711 ) ;
#905 = FACE_OUTER_BOUND ( 'NONE', #981, .T. ) ;
#906 = ORIENTED_EDGE ( 'NONE', *, *, #230, .F. ) ;
#907 = DIRECTION ( 'NONE',  ( -0.000000000000000000, -0.000000000000000000, 1.000000000000000000 ) ) ;
#908 = CARTESIAN_POINT ( 'NONE',  ( 21.00000000000000000, 10.00000000000000000, 0.000000000000000000 ) ) ;
#909 = ADVANCED_FACE ( 'NONE', ( #333 ), #628, .T. ) ;
#910 = VERTEX_POINT ( 'NONE', #508 ) ;
#911 = PLANE ( 'NONE',  #2 ) ;
#912 = ORIENTED_EDGE ( 'NONE', *, *, #834, .F. ) ;
#913 = EDGE_CURVE ( 'NONE', #832, #904, #208, .T. ) ;
#914 = PRESENTATION_STYLE_ASSIGNMENT (( #511 ) ) ;
#915 = VECTOR ( 'NONE', #1124, 1000.000000000000000 ) ;
#916 = DIRECTION ( 'NONE',  ( -0.000000000000000000, -0.000000000000000000, 1.000000000000000000 ) ) ;
#917 = CARTESIAN_POINT ( 'NONE',  ( 0.000000000000000000, 0.000000000000000000, 7.500000000000000000 ) ) ;
#918 = ORIENTED_EDGE ( 'NONE', *, *, #703, .T. ) ;
#919 = EDGE_LOOP ( 'NONE', ( #777, #1117, #608, #870, #266, #700, #766, #1071, #1006, #1266, #1192, #1198, #1200, #214 ) ) ;
#920 = LINE ( 'NONE', #22, #991 ) ;
#921 = CARTESIAN_POINT ( 'NONE',  ( 12.93782217350888253, -4.000000000000000000, 1.767949192431122141 ) ) ;
#922 = VECTOR ( 'NONE', #59, 1000.000000000000000 ) ;
#923 = ORIENTED_EDGE ( 'NONE', *, *, #30, .F. ) ;
#924 = EDGE_CURVE ( 'NONE', #744, #109, #414, .T. ) ;
#925 = DIRECTION ( 'NONE',  ( 1.000000000000000000, 0.000000000000000000, 0.000000000000000000 ) ) ;
#926 = CARTESIAN_POINT ( 'NONE',  ( 8.000000000000000000, -0.9999999999999985567, 3.499999999999999112 ) ) ;
#927 = VECTOR ( 'NONE', #816, 1000.000000000000000 ) ;
#928 = EDGE_LOOP ( 'NONE', ( #574, #630, #166, #441 ) ) ;
#929 = DIRECTION ( 'NONE',  ( 0.000000000000000000, -0.000000000000000000, 1.000000000000000000 ) ) ;
#930 = CARTESIAN_POINT ( 'NONE',  ( 24.00000000000000000, -0.9999999999999986677, 6.964101615137755275 ) ) ;
#931 = VECTOR ( 'NONE', #1196, 1000.000000000000000 ) ;
#932 = ADVANCED_FACE ( 'NONE', ( #1193 ), #1211, .F. ) ;
#933 = CIRCLE ( 'NONE', #595, 0.9999999999999995559 ) ;
#934 = DIRECTION ( 'NONE',  ( -0.000000000000000000, 0.000000000000000000, 1.000000000000000000 ) ) ;
#935 = AXIS2_PLACEMENT_3D ( 'NONE', #804, #597, #1000 ) ;
#936 = DIRECTION ( 'NONE',  ( -1.000000000000000000, 0.000000000000000000, 0.000000000000000000 ) ) ;
#937 = CARTESIAN_POINT ( 'NONE',  ( 24.00000000000000000, -4.000000000000000000, 1.767949192431122141 ) ) ;
#938 = DIRECTION ( 'NONE',  ( -0.000000000000000000, -0.000000000000000000, 1.000000000000000000 ) ) ;
#939 = ORIENTED_EDGE ( 'NONE', *, *, #267, .F. ) ;
#940 = PLANE ( 'NONE',  #507 ) ;
#941 = CARTESIAN_POINT ( 'NONE',  ( 17.89999999999999858, 4.000000000000000000, -0.1728420597616221743 ) ) ;
#942 = CARTESIAN_POINT ( 'NONE',  ( 12.24454843057702469, -3.055168682933419699, 5.777549422816055547 ) ) ;
#943 = CARTESIAN_POINT ( 'NONE',  ( 6.100000000000000533, 4.000000000000000000, 0.000000000000000000 ) ) ;
#944 = ORIENTED_EDGE ( 'NONE', *, *, #429, .F. ) ;
#945 = VERTEX_POINT ( 'NONE', #591 ) ;
#946 = MECHANICAL_DESIGN_GEOMETRIC_PRESENTATION_REPRESENTATION (  '', ( #717 ), #696 ) ;
#947 = DIRECTION ( 'NONE',  ( 0.000000000000000000, 1.000000000000000000, 0.000000000000000000 ) ) ;
#948 = AXIS2_PLACEMENT_3D ( 'NONE', #145, #738, #660 ) ;
#949 = VERTEX_POINT ( 'NONE', #112 ) ;
#950 = PLANE ( 'NONE',  #1049 ) ;
#951 = DIRECTION ( 'NONE',  ( -0.000000000000000000, -0.000000000000000000, 1.000000000000000000 ) ) ;
#952 =( NAMED_UNIT ( * ) SI_UNIT ( $, .STERADIAN. ) SOLID_ANGLE_UNIT ( ) );
#953 = LINE ( 'NONE', #56, #94 ) ;
#954 = DIRECTION ( 'NONE',  ( 0.000000000000000000, -0.000000000000000000, 1.000000000000000000 ) ) ;
#955 = ORIENTED_EDGE ( 'NONE', *, *, #381, .F. ) ;
#956 = VECTOR ( 'NONE', #146, 1000.000000000000000 ) ;
#957 = EDGE_CURVE ( 'NONE', #685, #314, #365, .T. ) ;
#958 = EDGE_CURVE ( 'NONE', #249, #288, #1269, .T. ) ;
#959 = LINE ( 'NONE', #626, #74 ) ;
#960 = LINE ( 'NONE', #1069, #639 ) ;
#961 = EDGE_LOOP ( 'NONE', ( #1179, #181, #854, #400 ) ) ;
#962 = VERTEX_POINT ( 'NONE', #213 ) ;
#963 = VERTEX_POINT ( 'NONE', #192 ) ;
#964 = PLANE ( 'NONE',  #903 ) ;
#965 = EDGE_CURVE ( 'NONE', #744, #801, #515, .T. ) ;
#966 = EDGE_CURVE ( 'NONE', #977, #856, #866, .T. ) ;
#967 = CARTESIAN_POINT ( 'NONE',  ( 24.00000000000000000, 2.000000000000001776, 1.767949192431121475 ) ) ;
#968 = CARTESIAN_POINT ( 'NONE',  ( 16.00000000000000000, 2.982050807568879414, 2.334936490538902287 ) ) ;
#969 = ADVANCED_FACE ( 'NONE', ( #1098 ), #897, .F. ) ;
#970 = ORIENTED_EDGE ( 'NONE', *, *, #329, .T. ) ;
#971 = ORIENTED_EDGE ( 'NONE', *, *, #298, .T. ) ;
#972 = CARTESIAN_POINT ( 'NONE',  ( 8.000000000000000000, -3.000000000000000000, 7.500000000000000000 ) ) ;
#973 = VECTOR ( 'NONE', #445, 1000.000000000000000 ) ;
#974 = CARTESIAN_POINT ( 'NONE',  ( 12.72392486108162934, -1.213897312427245634, 6.840607944228946913 ) ) ;
#975 = CARTESIAN_POINT ( 'NONE',  ( 8.000000000000000000, -3.000000000000000000, 0.000000000000000000 ) ) ;
#976 = ORIENTED_EDGE ( 'NONE', *, *, #442, .T. ) ;
#977 = VERTEX_POINT ( 'NONE', #103 ) ;
#978 = ADVANCED_FACE ( 'NONE', ( #1106 ), #604, .T. ) ;
#979 = LINE ( 'NONE', #1158, #520 ) ;
#980 = CARTESIAN_POINT ( 'NONE',  ( 12.30510422855825858, -1.817270998528847104, 6.492249984136249985 ) ) ;
#981 = EDGE_LOOP ( 'NONE', ( #999, #1070, #1090, #545, #1300, #1147, #603, #436 ) ) ;
#982 = FACE_OUTER_BOUND ( 'NONE', #242, .T. ) ;
#983 = VERTEX_POINT ( 'NONE', #943 ) ;
#984 = DIRECTION ( 'NONE',  ( -0.000000000000000000, -0.000000000000000000, 1.000000000000000000 ) ) ;
#985 = CARTESIAN_POINT ( 'NONE',  ( 12.13412592507499710, -2.642285471031118327, 6.015927656351725439 ) ) ;
#986 = VECTOR ( 'NONE', #984, 1000.000000000000000 ) ;
#987 = CARTESIAN_POINT ( 'NONE',  ( 12.72392486108163467, -4.000000000000000000, 4.985063465751261802 ) ) ;
#988 = ORIENTED_EDGE ( 'NONE', *, *, #1066, .F. ) ;
#989 = DIRECTION ( 'NONE',  ( 0.000000000000000000, 1.000000000000000000, 0.000000000000000000 ) ) ;
#990 = CARTESIAN_POINT ( 'NONE',  ( 16.00000000000000000, 0.000000000000000000, 7.500000000000000000 ) ) ;
#991 = VECTOR ( 'NONE', #725, 1000.000000000000000 ) ;
#992 = VECTOR ( 'NONE', #356, 1000.000000000000000 ) ;
#993 = DIRECTION ( 'NONE',  ( -0.000000000000000000, 0.000000000000000000, 1.000000000000000000 ) ) ;
#994 = ORIENTED_EDGE ( 'NONE', *, *, #834, .T. ) ;
#995 = DIRECTION ( 'NONE',  ( -0.000000000000000000, 0.000000000000000000, -1.000000000000000000 ) ) ;
#996 = EDGE_CURVE ( 'NONE', #801, #815, #340, .T. ) ;
#997 = VECTOR ( 'NONE', #756, 1000.000000000000000 ) ;
#998 = LINE ( 'NONE', #100, #199 ) ;
#999 = ORIENTED_EDGE ( 'NONE', *, *, #300, .T. ) ;
#1000 = DIRECTION ( 'NONE',  ( 0.000000000000000000, 0.000000000000000000, -1.000000000000000000 ) ) ;
#1001 = EDGE_LOOP ( 'NONE', ( #647, #425, #173, #519 ) ) ;
#1002 = PLANE ( 'NONE',  #256 ) ;
#1003 = EDGE_CURVE ( 'NONE', #656, #307, #148, .T. ) ;
#1004 = DIRECTION ( 'NONE',  ( 1.000000000000000000, -0.000000000000000000, 0.000000000000000000 ) ) ;
#1005 = AXIS2_PLACEMENT_3D ( 'NONE', #1041, #934, #35 ) ;
#1006 = ORIENTED_EDGE ( 'NONE', *, *, #965, .T. ) ;
#1007 = ADVANCED_FACE ( 'NONE', ( #264 ), #348, .F. ) ;
#1008 = DIRECTION ( 'NONE',  ( 0.000000000000000000, 0.5000000000000001110, 0.8660254037844385966 ) ) ;
#1009 = ORIENTED_EDGE ( 'NONE', *, *, #185, .F. ) ;
#1010 = DIRECTION ( 'NONE',  ( -0.000000000000000000, -0.000000000000000000, 1.000000000000000000 ) ) ;
#1011 = AXIS2_PLACEMENT_3D ( 'NONE', #1101, #822, #404 ) ;
#1012 = LINE ( 'NONE', #111, #158 ) ;
#1013 = DIRECTION ( 'NONE',  ( 1.000000000000000000, 0.000000000000000000, 0.000000000000000000 ) ) ;
#1014 = ADVANCED_FACE ( 'NONE', ( #775 ), #1274, .F. ) ;
#1015 = VERTEX_POINT ( 'NONE', #357 ) ;
#1016 = SURFACE_STYLE_FILL_AREA ( #110 ) ;
#1017 = CIRCLE ( 'NONE', #287, 1.600000000000000755 ) ;
#1018 = CARTESIAN_POINT ( 'NONE',  ( 3.000000000000000000, 10.00000000000000000, 7.500000000000000000 ) ) ;
#1019 = B_SPLINE_CURVE_WITH_KNOTS ( 'NONE', 3,
 ( #505, #684, #705, #499, #1083, #1182, #902, #292, #577, #1290, #286, #180, #987, #384 ),
 .UNSPECIFIED., .F., .F.,
 ( 4, 2, 2, 2, 2, 2, 4 ),
 ( 0.000000000000000000, 0.0009686618526275690266, 0.001452992778941353431, 0.001937323705255138053, 0.002421654631568922675, 0.002905985557882706863, 0.003874647410510276106 ),
 .UNSPECIFIED. ) ;
#1020 = ADVANCED_FACE ( 'NONE', ( #557 ), #1060, .T. ) ;
#1021 = ORIENTED_EDGE ( 'NONE', *, *, #81, .T. ) ;
#1022 = LINE ( 'NONE', #709, #1239 ) ;
#1023 = CARTESIAN_POINT ( 'NONE',  ( 12.53108755055054147, -1.437912938152627440, 0.2887275375862838334 ) ) ;
#1024 = ORIENTED_EDGE ( 'NONE', *, *, #1068, .T. ) ;
#1025 = DIRECTION ( 'NONE',  ( 0.000000000000000000, 1.000000000000000000, 0.000000000000000000 ) ) ;
#1026 = EDGE_CURVE ( 'NONE', #227, #963, #1238, .T. ) ;
#1027 = CARTESIAN_POINT ( 'NONE',  ( 12.13387855735751231, -2.640000868308608695, 0.9827533276514403004 ) ) ;
#1028 = ORIENTED_EDGE ( 'NONE', *, *, #880, .F. ) ;
#1029 = LINE ( 'NONE', #144, #676 ) ;
#1030 = CARTESIAN_POINT ( 'NONE',  ( 16.00000000000000000, 0.000000000000000000, 0.000000000000000000 ) ) ;
#1031 = DIRECTION ( 'NONE',  ( -0.000000000000000000, -1.000000000000000000, -0.000000000000000000 ) ) ;
#1032 = DIRECTION ( 'NONE',  ( 0.000000000000000000, 0.000000000000000000, -1.000000000000000000 ) ) ;
#1033 = EDGE_LOOP ( 'NONE', ( #291, #840, #976, #559, #650 ) ) ;
#1034 = AXIS2_PLACEMENT_3D ( 'NONE', #570, #794, #269 ) ;
#1035 = DIRECTION ( 'NONE',  ( -1.000000000000000000, 0.000000000000000000, 0.000000000000000000 ) ) ;
#1036 = CARTESIAN_POINT ( 'NONE',  ( 13.00000000000000178, -6.000000000000000000, 7.500000000000000000 ) ) ;
#1037 = CARTESIAN_POINT ( 'NONE',  ( 12.72459178506153599, -3.786769611552656567, 5.355159429738360011 ) ) ;
#1038 = CARTESIAN_POINT ( 'NONE',  ( 13.00000000000000178, -3.000000000000000000, 7.500000000000000000 ) ) ;
#1039 = CARTESIAN_POINT ( 'NONE',  ( 12.93782217350887898, 2.000000000000001776, 1.767949192431121475 ) ) ;
#1040 = ORIENTED_EDGE ( 'NONE', *, *, #101, .T. ) ;
#1041 = CARTESIAN_POINT ( 'NONE',  ( 21.00000000000000000, 7.000000000000000000, 7.500000000000000000 ) ) ;
#1042 = PLANE ( 'NONE',  #322 ) ;
#1043 = CARTESIAN_POINT ( 'NONE',  ( 6.100000000000000533, 4.000000000000000000, -0.1728420597616221743 ) ) ;
#1044 = DIRECTION ( 'NONE',  ( 1.000000000000000000, -0.000000000000000000, -0.000000000000000000 ) ) ;
#1045 = VERTEX_POINT ( 'NONE', #975 ) ;
#1046 = VERTEX_POINT ( 'NONE', #838 ) ;
#1047 = VECTOR ( 'NONE', #497, 1000.000000000000000 ) ;
#1048 = DIRECTION ( 'NONE',  ( 0.000000000000000000, 0.000000000000000000, 1.000000000000000000 ) ) ;
#1049 = AXIS2_PLACEMENT_3D ( 'NONE', #1058, #651, #1244 ) ;
#1050 = CARTESIAN_POINT ( 'NONE',  ( 12.93782217350888075, 2.000000000000001776, 5.232050807568878525 ) ) ;
#1051 = CARTESIAN_POINT ( 'NONE',  ( 16.00000000000000000, -0.4820508075688763050, 6.665063509461097269 ) ) ;
#1052 = ORIENTED_EDGE ( 'NONE', *, *, #729, .F. ) ;
#1053 = ORIENTED_EDGE ( 'NONE', *, *, #300, .F. ) ;
#1054 = EDGE_CURVE ( 'NONE', #368, #529, #440, .T. ) ;
#1055 = AXIS2_PLACEMENT_3D ( 'NONE', #1285, #694, #1077 ) ;
#1056 = CIRCLE ( 'NONE', #493, 2.999999999999999112 ) ;
#1057 = FACE_BOUND ( 'NONE', #1132, .T. ) ;
#1058 = CARTESIAN_POINT ( 'NONE',  ( 24.00000000000000000, -0.9999999999999981126, 0.03589838486224312258 ) ) ;
#1059 = DIRECTION ( 'NONE',  ( -0.000000000000000000, 0.000000000000000000, 1.000000000000000000 ) ) ;
#1060 = CYLINDRICAL_SURFACE ( 'NONE', #533, 2.999999999999999112 ) ;
#1061 = ORIENTED_EDGE ( 'NONE', *, *, #722, .F. ) ;
#1062 = ORIENTED_EDGE ( 'NONE', *, *, #1208, .T. ) ;
#1063 = CARTESIAN_POINT ( 'NONE',  ( 23.82842712474619162, 2.000000000000001776, 1.767949192431121475 ) ) ;
#1064 = DIRECTION ( 'NONE',  ( 1.000000000000000000, 0.000000000000000000, 0.000000000000000000 ) ) ;
#1065 =( LENGTH_UNIT ( ) NAMED_UNIT ( * ) SI_UNIT ( .MILLI., .METRE. ) );
#1066 = EDGE_CURVE ( 'NONE', #558, #1067, #157, .T. ) ;
#1067 = VERTEX_POINT ( 'NONE', #376 ) ;
#1068 = EDGE_CURVE ( 'NONE', #1082, #198, #741, .T. ) ;
#1069 = CARTESIAN_POINT ( 'NONE',  ( 0.000000000000000000, -0.9999999999999985567, 2.499999999999999556 ) ) ;
#1070 = ORIENTED_EDGE ( 'NONE', *, *, #1167, .T. ) ;
#1071 = ORIENTED_EDGE ( 'NONE', *, *, #257, .T. ) ;
#1072 = ORIENTED_EDGE ( 'NONE', *, *, #1110, .F. ) ;
#1073 = CARTESIAN_POINT ( 'NONE',  ( 2.900000000000000799, 6.999999999999999112, -0.1728420597616221743 ) ) ;
#1074 = CIRCLE ( 'NONE', #389, 3.000000000000000000 ) ;
#1075 = DIRECTION ( 'NONE',  ( 1.000000000000000000, 0.000000000000000000, 0.000000000000000000 ) ) ;
#1076 = DIRECTION ( 'NONE',  ( 1.000000000000000000, -0.000000000000000000, -0.000000000000000000 ) ) ;
#1077 = DIRECTION ( 'NONE',  ( 1.000000000000000000, 0.000000000000000000, 0.000000000000000000 ) ) ;
#1078 = ORIENTED_EDGE ( 'NONE', *, *, #666, .F. ) ;
#1079 = DIRECTION ( 'NONE',  ( 1.000000000000000000, 0.000000000000000000, 0.000000000000000000 ) ) ;
#1080 = VECTOR ( 'NONE', #32, 1000.000000000000000 ) ;
#1081 = LINE ( 'NONE', #95, #202 ) ;
#1082 = VERTEX_POINT ( 'NONE', #240 ) ;
#1083 = CARTESIAN_POINT ( 'NONE',  ( 12.24454843057702469, -4.000000000000000000, 2.858946422925480846 ) ) ;
#1084 = ORIENTED_EDGE ( 'NONE', *, *, #434, .T. ) ;
#1085 = CARTESIAN_POINT ( 'NONE',  ( 22.31565158061277998, -7.062408882893443310E-16, 6.386751345948131764 ) ) ;
#1086 = CARTESIAN_POINT ( 'NONE',  ( 2.900000000000000799, 6.999999999999999112, 7.500000000000000000 ) ) ;
#1087 = AXIS2_PLACEMENT_3D ( 'NONE', #283, #681, #1079 ) ;
#1088 = CARTESIAN_POINT ( 'NONE',  ( 12.15814709272792626, 0.2157036050162769725, 6.262214811526807701 ) ) ;
#1089 = EDGE_CURVE ( 'NONE', #1082, #448, #1146, .T. ) ;
#1090 = ORIENTED_EDGE ( 'NONE', *, *, #996, .F. ) ;
#1091 = EDGE_CURVE ( 'NONE', #227, #1046, #247, .T. ) ;
#1092 = DIRECTION ( 'NONE',  ( -0.000000000000000000, 0.000000000000000000, 1.000000000000000000 ) ) ;
#1093 = CARTESIAN_POINT ( 'NONE',  ( 0.000000000000000000, 0.000000000000000000, 7.500000000000000000 ) ) ;
#1094 = AXIS2_PLACEMENT_3D ( 'NONE', #420, #301, #699 ) ;
#1095 = AXIS2_PLACEMENT_3D ( 'NONE', #99, #114, #899 ) ;
#1096 = CARTESIAN_POINT ( 'NONE',  ( 17.89999999999999858, 0.000000000000000000, 0.000000000000000000 ) ) ;
#1097 = ORIENTED_EDGE ( 'NONE', *, *, #67, .T. ) ;
#1098 = FACE_OUTER_BOUND ( 'NONE', #1107, .T. ) ;
#1099 = ORIENTED_EDGE ( 'NONE', *, *, #532, .T. ) ;
#1100 = EDGE_CURVE ( 'NONE', #352, #910, #960, .T. ) ;
#1101 = CARTESIAN_POINT ( 'NONE',  ( 8.669872981077714869, -0.9999999999999985567, 3.499999999999999112 ) ) ;
#1102 = VECTOR ( 'NONE', #276, 1000.000000000000000 ) ;
#1103 = EDGE_CURVE ( 'NONE', #258, #1280, #364, .T. ) ;
#1104 = CARTESIAN_POINT ( 'NONE',  ( 3.000000000000000000, 0.000000000000000000, 0.000000000000000000 ) ) ;
#1105 = ORIENTED_EDGE ( 'NONE', *, *, #1295, .F. ) ;
#1106 = FACE_OUTER_BOUND ( 'NONE', #862, .T. ) ;
#1107 = EDGE_LOOP ( 'NONE', ( #542, #809, #179, #299, #759 ) ) ;
#1108 = CARTESIAN_POINT ( 'NONE',  ( 24.00000000000000000, 3.000000000000000000, 7.500000000000000000 ) ) ;
#1109 = CARTESIAN_POINT ( 'NONE',  ( 2.900000000000000799, 4.000000000000000000, -0.1728420597616221743 ) ) ;
#1110 = EDGE_CURVE ( 'NONE', #1174, #1015, #232, .T. ) ;
#1111 = DIRECTION ( 'NONE',  ( 0.000000000000000000, -0.000000000000000000, -1.000000000000000000 ) ) ;
#1112 = ORIENTED_EDGE ( 'NONE', *, *, #1167, .F. ) ;
#1113 = CARTESIAN_POINT ( 'NONE',  ( 21.10000000000000142, 6.999999999999999112, 7.500000000000000000 ) ) ;
#1114 = AXIS2_PLACEMENT_3D ( 'NONE', #50, #228, #450 ) ;
#1115 = DIRECTION ( 'NONE',  ( 0.000000000000000000, 0.8660254037844387076, 0.4999999999999999445 ) ) ;
#1116 = CIRCLE ( 'NONE', #1159, 1.599999999999999867 ) ;
#1117 = ORIENTED_EDGE ( 'NONE', *, *, #729, .T. ) ;
#1118 = SURFACE_SIDE_STYLE ('',( #1016 ) ) ;
#1119 = VECTOR ( 'NONE', #295, 1000.000000000000000 ) ;
#1120 = B_SPLINE_CURVE_WITH_KNOTS ( 'NONE', 3,
 ( #534, #1037, #439, #540, #942, #45, #985, #88, #579, #195, #980, #867, #974, #397 ),
 .UNSPECIFIED., .F., .F.,
 ( 4, 2, 2, 2, 2, 2, 4 ),
 ( 0.000000000000000000, 0.0009686618526275681592, 0.001452992778941352781, 0.001937323705255137619, 0.002421654631568921807, 0.002905985557882706863, 0.003874647410510275239 ),
 .UNSPECIFIED. ) ;
#1121 = CARTESIAN_POINT ( 'NONE',  ( 19.50000000000000000, 6.999999999999999112, 7.500000000000000000 ) ) ;
#1122 = ORIENTED_EDGE ( 'NONE', *, *, #966, .F. ) ;
#1123 = LINE ( 'NONE', #1218, #1047 ) ;
#1124 = DIRECTION ( 'NONE',  ( 1.000000000000000000, 0.000000000000000000, 0.000000000000000000 ) ) ;
#1125 = ORIENTED_EDGE ( 'NONE', *, *, #429, .T. ) ;
#1126 = EDGE_CURVE ( 'NONE', #368, #791, #254, .T. ) ;
#1127 = EDGE_CURVE ( 'NONE', #598, #945, #953, .T. ) ;
#1128 = CARTESIAN_POINT ( 'NONE',  ( 0.000000000000000000, 0.000000000000000000, 0.000000000000000000 ) ) ;
#1129 = DIRECTION ( 'NONE',  ( -1.000000000000000000, 0.000000000000000000, 0.000000000000000000 ) ) ;
#1130 = DIRECTION ( 'NONE',  ( -0.000000000000000000, -0.000000000000000000, 1.000000000000000000 ) ) ;
#1131 = CARTESIAN_POINT ( 'NONE',  ( 24.00000000000000000, 2.000000000000001776, 1.767949192431121475 ) ) ;
#1132 = EDGE_LOOP ( 'NONE', ( #855, #1009, #566, #73 ) ) ;
#1133 = MECHANICAL_DESIGN_GEOMETRIC_PRESENTATION_REPRESENTATION (  '', ( #194 ), #1221 ) ;
#1134 = EDGE_CURVE ( 'NONE', #593, #896, #853, .T. ) ;
#1135 = CARTESIAN_POINT ( 'NONE',  ( 2.900000000000000799, 4.000000000000000000, -0.1728420597616221743 ) ) ;
#1136 = CARTESIAN_POINT ( 'NONE',  ( 24.00000000000000000, 2.000000000000001776, 5.232050807568878525 ) ) ;
#1137 = DIRECTION ( 'NONE',  ( -1.000000000000000000, 0.000000000000000000, 0.000000000000000000 ) ) ;
#1138 = EDGE_CURVE ( 'NONE', #815, #593, #590, .T. ) ;
#1139 = PRODUCT_DEFINITION_SHAPE ( 'NONE', 'NONE',  #742 ) ;
#1140 = CARTESIAN_POINT ( 'NONE',  ( 8.000000000000000000, 0.000000000000000000, 7.500000000000000000 ) ) ;
#1141 = ORIENTED_EDGE ( 'NONE', *, *, #1089, .F. ) ;
#1142 = ORIENTED_EDGE ( 'NONE', *, *, #720, .T. ) ;
#1143 = PLANE ( 'NONE',  #248 ) ;
#1144 = CARTESIAN_POINT ( 'NONE',  ( 12.24323011072673850, -0.05240023548353050370, 0.5829953639898517448 ) ) ;
#1145 = CARTESIAN_POINT ( 'NONE',  ( 16.00000000000000000, -2.999999999999999556, 5.809401076758502924 ) ) ;
#1146 = LINE ( 'NONE', #968, #1291 ) ;
#1147 = ORIENTED_EDGE ( 'NONE', *, *, #371, .T. ) ;
#1148 = B_SPLINE_CURVE_WITH_KNOTS ( 'NONE', 3,
 ( #621, #1220, #1023, #12, #132, #317, #734, #1027, #716, #419, #126, #20, #212, #921 ),
 .UNSPECIFIED., .F., .F.,
 ( 4, 2, 2, 2, 2, 2, 4 ),
 ( -0.001804531755204308871, -0.0008342553778392059957, -0.0003491171891566546663, 0.0001360209995258968799, 0.0006211591882084490767, 0.001106297376891000406, 0.002076573754256103715 ),
 .UNSPECIFIED. ) ;
#1149 = AXIS2_PLACEMENT_3D ( 'NONE', #1276, #386, #372 ) ;
#1150 = CARTESIAN_POINT ( 'NONE',  ( 8.000000000000000000, 0.000000000000000000, 7.500000000000000000 ) ) ;
#1151 = ORIENTED_EDGE ( 'NONE', *, *, #298, .F. ) ;
#1152 = FACE_OUTER_BOUND ( 'NONE', #961, .T. ) ;
#1153 = ADVANCED_FACE ( 'NONE', ( #876 ), #1042, .F. ) ;
#1154 = DIRECTION ( 'NONE',  ( -1.000000000000000000, 0.000000000000000000, 0.000000000000000000 ) ) ;
#1155 = ORIENTED_EDGE ( 'NONE', *, *, #720, .F. ) ;
#1156 = ORIENTED_EDGE ( 'NONE', *, *, #1195, .T. ) ;
#1157 = CONICAL_SURFACE ( 'NONE', #587, 0.9999999999999995559, 0.5235987755982947078 ) ;
#1158 = CARTESIAN_POINT ( 'NONE',  ( 24.00000000000000000, 0.000000000000000000, 0.000000000000000000 ) ) ;
#1159 = AXIS2_PLACEMENT_3D ( 'NONE', #1171, #1059, #1257 ) ;
#1160 = ORIENTED_EDGE ( 'NONE', *, *, #1100, .F. ) ;
#1161 = DIRECTION ( 'NONE',  ( -1.000000000000000000, 0.000000000000000000, 0.000000000000000000 ) ) ;
#1162 = CARTESIAN_POINT ( 'NONE',  ( 0.000000000000000000, -0.9999999999999983347, 4.499999999999999112 ) ) ;
#1163 = CYLINDRICAL_SURFACE ( 'NONE', #795, 2.999999999999999112 ) ;
#1164 = ORIENTED_EDGE ( 'NONE', *, *, #833, .F. ) ;
#1165 = VECTOR ( 'NONE', #891, 1000.000000000000000 ) ;
#1166 = CARTESIAN_POINT ( 'NONE',  ( 0.000000000000000000, 7.000000000000000000, 7.500000000000000000 ) ) ;
#1167 = EDGE_CURVE ( 'NONE', #1045, #815, #836, .T. ) ;
#1168 = B_SPLINE_CURVE_WITH_KNOTS ( 'NONE', 3,
 ( #830, #52, #451, #851, #562, #44, #1230, #36, #763, #1144, #362, #338, #733, #640 ),
 .UNSPECIFIED., .F., .F.,
 ( 4, 2, 2, 2, 2, 2, 4 ),
 ( 0.000000000000000000, 0.0009686618526275708697, 0.001452992778941354949, 0.001937323705255138704, 0.002421654631568923109, 0.002905985557882706429, 0.003874647410510273938 ),
 .UNSPECIFIED. ) ;
#1169 = VECTOR ( 'NONE', #1154, 1000.000000000000000 ) ;
#1170 = DIRECTION ( 'NONE',  ( 0.000000000000000000, 0.000000000000000000, -1.000000000000000000 ) ) ;
#1171 = CARTESIAN_POINT ( 'NONE',  ( 4.500000000000000888, 6.999999999999999112, 0.000000000000000000 ) ) ;
#1172 = CARTESIAN_POINT ( 'NONE',  ( 24.00000000000000000, -4.000000000000000000, 5.232050807568877637 ) ) ;
#1173 = VERTEX_POINT ( 'NONE', #1050 ) ;
#1174 = VERTEX_POINT ( 'NONE', #1036 ) ;
#1175 = CARTESIAN_POINT ( 'NONE',  ( 23.82842712474619162, 2.000000000000001776, 5.232050807568878525 ) ) ;
#1176 = VECTOR ( 'NONE', #351, 1000.000000000000000 ) ;
#1177 = DIRECTION ( 'NONE',  ( 1.000000000000000000, 0.000000000000000000, 0.000000000000000000 ) ) ;
#1178 = CARTESIAN_POINT ( 'NONE',  ( 12.30510422855826214, 1.182729001471153563, 5.703902438570383815 ) ) ;
#1179 = ORIENTED_EDGE ( 'NONE', *, *, #958, .F. ) ;
#1180 = DIRECTION ( 'NONE',  ( -0.000000000000000000, 0.000000000000000000, 1.000000000000000000 ) ) ;
#1181 = CYLINDRICAL_SURFACE ( 'NONE', #649, 1.600000000000000755 ) ;
#1182 = CARTESIAN_POINT ( 'NONE',  ( 12.15814709272792626, -4.000000000000000888, 3.171722799653012625 ) ) ;
#1183 = ORIENTED_EDGE ( 'NONE', *, *, #1295, .T. ) ;
#1184 = VECTOR ( 'NONE', #827, 1000.000000000000000 ) ;
#1185 = CARTESIAN_POINT ( 'NONE',  ( 16.00000000000000000, 0.000000000000000000, 7.500000000000000000 ) ) ;
#1186 = CIRCLE ( 'NONE', #1248, 1.600000000000000755 ) ;
#1187 = FACE_OUTER_BOUND ( 'NONE', #1250, .T. ) ;
#1188 = ADVANCED_FACE ( 'NONE', ( #1152 ), #555, .T. ) ;
#1189 = EDGE_CURVE ( 'NONE', #107, #752, #253, .T. ) ;
#1190 = CARTESIAN_POINT ( 'NONE',  ( 12.72392486108162934, 1.786102687572754810, 5.355544478477686887 ) ) ;
#1191 = AXIS2_PLACEMENT_3D ( 'NONE', #757, #861, #1258 ) ;
#1192 = ORIENTED_EDGE ( 'NONE', *, *, #1138, .T. ) ;
#1193 = FACE_OUTER_BOUND ( 'NONE', #218, .T. ) ;
#1194 = LINE ( 'NONE', #967, #1119 ) ;
#1195 = EDGE_CURVE ( 'NONE', #448, #302, #438, .T. ) ;
#1196 = DIRECTION ( 'NONE',  ( 1.000000000000000000, 0.000000000000000000, 0.000000000000000000 ) ) ;
#1197 = ADVANCED_FACE ( 'NONE', ( #1236 ), #950, .T. ) ;
#1198 = ORIENTED_EDGE ( 'NONE', *, *, #69, .T. ) ;
#1199 = DIRECTION ( 'NONE',  ( 0.000000000000000000, -0.000000000000000000, -1.000000000000000000 ) ) ;
#1200 = ORIENTED_EDGE ( 'NONE', *, *, #1110, .T. ) ;
#1201 = EDGE_CURVE ( 'NONE', #558, #977, #959, .T. ) ;
#1202 = DIRECTION ( 'NONE',  ( 1.000000000000000000, 0.000000000000000000, 0.000000000000000000 ) ) ;
#1203 = VERTEX_POINT ( 'NONE', #1030 ) ;
#1204 = CARTESIAN_POINT ( 'NONE',  ( 3.000000000000000000, 7.000000000000000000, 0.000000000000000000 ) ) ;
#1205 = ORIENTED_EDGE ( 'NONE', *, *, #689, .F. ) ;
#1206 = FACE_OUTER_BOUND ( 'NONE', #207, .T. ) ;
#1207 = AXIS2_PLACEMENT_3D ( 'NONE', #926, #26, #428 ) ;
#1208 = EDGE_CURVE ( 'NONE', #724, #302, #1168, .T. ) ;
#1209 = ADVANCED_FACE ( 'NONE', ( #547 ), #129, .T. ) ;
#1210 = DIRECTION ( 'NONE',  ( 0.000000000000000000, -0.000000000000000000, 1.000000000000000000 ) ) ;
#1211 = PLANE ( 'NONE',  #1094 ) ;
#1212 = ORIENTED_EDGE ( 'NONE', *, *, #1091, .F. ) ;
#1213 = CARTESIAN_POINT ( 'NONE',  ( 21.10000000000000142, 4.000000000000000000, -0.1728420597616221743 ) ) ;
#1214 = CARTESIAN_POINT ( 'NONE',  ( 24.00000000000000000, -4.000000000000000000, 5.232050807568877637 ) ) ;
#1215 = VECTOR ( 'NONE', #989, 1000.000000000000000 ) ;
#1216 = CARTESIAN_POINT ( 'NONE',  ( 21.00000000000000000, 3.000000000000000000, 0.000000000000000000 ) ) ;
#1217 = ORIENTED_EDGE ( 'NONE', *, *, #1189, .T. ) ;
#1218 = CARTESIAN_POINT ( 'NONE',  ( 16.00000000000000000, 0.000000000000000000, 7.500000000000000000 ) ) ;
#1219 = VECTOR ( 'NONE', #1010, 1000.000000000000000 ) ;
#1220 = CARTESIAN_POINT ( 'NONE',  ( 12.72452358297367248, -1.213298590535209387, 0.1590463835255149783 ) ) ;
#1221 =( GEOMETRIC_REPRESENTATION_CONTEXT ( 3 ) GLOBAL_UNCERTAINTY_ASSIGNED_CONTEXT ( ( #726 ) ) GLOBAL_UNIT_ASSIGNED_CONTEXT ( ( #1065, #375, #952 ) ) REPRESENTATION_CONTEXT ( 'NONE', 'WORKASPACE' ) );
#1222 = VERTEX_POINT ( 'NONE', #138 ) ;
#1223 = DIRECTION ( 'NONE',  ( 0.8660254037844407060, 0.000000000000000000, -0.4999999999999962808 ) ) ;
#1224 = UNCERTAINTY_MEASURE_WITH_UNIT (LENGTH_MEASURE( 1.000000000000000082E-05 ), #563, 'distance_accuracy_value', 'NONE');
#1225 = VECTOR ( 'NONE', #394, 1000.000000000000000 ) ;
#1226 = VECTOR ( 'NONE', #837, 1000.000000000000000 ) ;
#1227 = CARTESIAN_POINT ( 'NONE',  ( 17.89999999999999858, 4.000000000000000000, 7.500000000000000000 ) ) ;
#1228 = EDGE_CURVE ( 'NONE', #352, #258, #151, .T. ) ;
#1229 = CARTESIAN_POINT ( 'NONE',  ( 3.000000000000000000, 3.000000000000000000, 0.000000000000000000 ) ) ;
#1230 = CARTESIAN_POINT ( 'NONE',  ( 12.13412592507500243, 0.6422854710311208803, 0.9840723436482718967 ) ) ;
#1231 = DIRECTION ( 'NONE',  ( 0.000000000000000000, 1.000000000000000000, 0.000000000000000000 ) ) ;
#1232 = VERTEX_POINT ( 'NONE', #1254 ) ;
#1233 = EDGE_CURVE ( 'NONE', #503, #187, #353, .T. ) ;
#1234 = LINE ( 'NONE', #631, #546 ) ;
#1235 = ADVANCED_FACE ( 'NONE', ( #163 ), #263, .T. ) ;
#1236 = FACE_OUTER_BOUND ( 'NONE', #611, .T. ) ;
#1237 = CARTESIAN_POINT ( 'NONE',  ( 2.900000000000000799, 4.000000000000000000, 7.500000000000000000 ) ) ;
#1238 = LINE ( 'NONE', #846, #1169 ) ;
#1239 = VECTOR ( 'NONE', #807, 1000.000000000000000 ) ;
#1240 = AXIS2_PLACEMENT_3D ( 'NONE', #632, #238, #1161 ) ;
#1241 = ORIENTED_EDGE ( 'NONE', *, *, #1068, .F. ) ;
#1242 = FACE_OUTER_BOUND ( 'NONE', #483, .T. ) ;
#1243 = ORIENTED_EDGE ( 'NONE', *, *, #134, .F. ) ;
#1244 = DIRECTION ( 'NONE',  ( 0.000000000000000000, -0.8660254037844384856, -0.5000000000000002220 ) ) ;
#1245 = ADVANCED_FACE ( 'NONE', ( #859 ), #29, .F. ) ;
#1246 = LINE ( 'NONE', #54, #1226 ) ;
#1247 = DIRECTION ( 'NONE',  ( -0.000000000000000000, 0.000000000000000000, -1.000000000000000000 ) ) ;
#1248 = AXIS2_PLACEMENT_3D ( 'NONE', #784, #993, #1202 ) ;
#1249 = ORIENTED_EDGE ( 'NONE', *, *, #666, .T. ) ;
#1250 = EDGE_LOOP ( 'NONE', ( #708, #324, #1028, #923 ) ) ;
#1251 = FACE_BOUND ( 'NONE', #839, .T. ) ;
#1252 = ADVANCED_FACE ( 'NONE', ( #1284 ), #556, .F. ) ;
#1253 = ORIENTED_EDGE ( 'NONE', *, *, #417, .T. ) ;
#1254 = CARTESIAN_POINT ( 'NONE',  ( 17.89999999999999858, 6.999999999999999112, 0.000000000000000000 ) ) ;
#1255 = B_SPLINE_CURVE_WITH_KNOTS ( 'NONE', 3,
 ( #751, #663, #847, #478, #1259, #175, #877, #241, #1265, #573, #367, #341, #743, #1039 ),
 .UNSPECIFIED., .F., .F.,
 ( 4, 2, 2, 2, 2, 2, 4 ),
 ( 0.000000000000000000, 0.0009686618526275688097, 0.001452992778941353215, 0.001937323705255137619, 0.002421654631568922241, 0.002905985557882706429, 0.003874647410510278708 ),
 .UNSPECIFIED. ) ;
#1256 = CARTESIAN_POINT ( 'NONE',  ( 0.000000000000000000, 7.000000000000000000, 7.500000000000000000 ) ) ;
#1257 = DIRECTION ( 'NONE',  ( 1.000000000000000000, 0.000000000000000000, 0.000000000000000000 ) ) ;
#1258 = DIRECTION ( 'NONE',  ( -1.000000000000000000, 0.000000000000000000, 0.000000000000000000 ) ) ;
#1259 = CARTESIAN_POINT ( 'NONE',  ( 12.24454843057702647, 2.000000000000002220, 4.141053577074520042 ) ) ;
#1260 = ORIENTED_EDGE ( 'NONE', *, *, #731, .T. ) ;
#1261 = CARTESIAN_POINT ( 'NONE',  ( 16.00000000000000000, -3.000000000000000000, 1.190598923241495966 ) ) ;
#1262 = ORIENTED_EDGE ( 'NONE', *, *, #564, .T. ) ;
#1263 = CARTESIAN_POINT ( 'NONE',  ( 6.100000000000000533, 4.000000000000000000, -0.1728420597616221743 ) ) ;
#1264 = CARTESIAN_POINT ( 'NONE',  ( 24.00000000000000000, 0.000000000000000000, 7.500000000000000000 ) ) ;
#1265 = CARTESIAN_POINT ( 'NONE',  ( 12.15670022873369760, 2.000000000000001776, 3.178587048766465362 ) ) ;
#1266 = ORIENTED_EDGE ( 'NONE', *, *, #996, .T. ) ;
#1267 = ORIENTED_EDGE ( 'NONE', *, *, #270, .T. ) ;
#1268 = EDGE_CURVE ( 'NONE', #832, #962, #1116, .T. ) ;
#1269 = CIRCLE ( 'NONE', #695, 3.000000000000000000 ) ;
#1270 = AXIS2_PLACEMENT_3D ( 'NONE', #1128, #544, #829 ) ;
#1271 = AXIS2_PLACEMENT_3D ( 'NONE', #481, #156, #285 ) ;
#1272 = LINE ( 'NONE', #1073, #986 ) ;
#1273 = LINE ( 'NONE', #382, #327 ) ;
#1274 = CYLINDRICAL_SURFACE ( 'NONE', #715, 1.599999999999999867 ) ;
#1275 = ORIENTED_EDGE ( 'NONE', *, *, #965, .F. ) ;
#1276 = CARTESIAN_POINT ( 'NONE',  ( 3.000000000000000000, 3.000000000000000000, 7.500000000000000000 ) ) ;
#1277 = FACE_OUTER_BOUND ( 'NONE', #1033, .T. ) ;
#1278 = CARTESIAN_POINT ( 'NONE',  ( 11.00000000000000000, -3.000000000000000000, 7.500000000000000000 ) ) ;
#1279 = CARTESIAN_POINT ( 'NONE',  ( 16.00000000000000000, 0.000000000000000000, 7.500000000000000000 ) ) ;
#1280 = VERTEX_POINT ( 'NONE', #271 ) ;
#1281 = CARTESIAN_POINT ( 'NONE',  ( 23.82842712474619162, 2.000000000000001776, 5.232050807568878525 ) ) ;
#1282 = VECTOR ( 'NONE', #1287, 1000.000000000000000 ) ;
#1283 = DIRECTION ( 'NONE',  ( -0.000000000000000000, 0.000000000000000000, -1.000000000000000000 ) ) ;
#1284 = FACE_OUTER_BOUND ( 'NONE', #691, .T. ) ;
#1285 = CARTESIAN_POINT ( 'NONE',  ( 4.500000000000000888, 4.000000000000000000, 7.500000000000000000 ) ) ;
#1286 = ORIENTED_EDGE ( 'NONE', *, *, #354, .T. ) ;
#1287 = DIRECTION ( 'NONE',  ( 0.000000000000000000, 0.000000000000000000, -1.000000000000000000 ) ) ;
#1288 = CIRCLE ( 'NONE', #1005, 2.999999999999999112 ) ;
#1289 = LINE ( 'NONE', #83, #1165 ) ;
#1290 = CARTESIAN_POINT ( 'NONE',  ( 12.24323011072674205, -4.000000000000000888, 4.137856849313659602 ) ) ;
#1291 = VECTOR ( 'NONE', #670, 1000.000000000000114 ) ;
#1292 = EDGE_LOOP ( 'NONE', ( #944, #1217, #970, #462 ) ) ;
#1293 = LINE ( 'NONE', #1185, #583 ) ;
#1294 = VECTOR ( 'NONE', #1137, 1000.000000000000000 ) ;
#1295 = EDGE_CURVE ( 'NONE', #14, #898, #164, .T. ) ;
#1296 = CARTESIAN_POINT ( 'NONE',  ( 15.82842712474619162, -4.000000000000000000, 5.232050807568877637 ) ) ;
#1297 = CARTESIAN_POINT ( 'NONE',  ( 12.93782217350888075, 2.000000000000001776, 5.232050807568878525 ) ) ;
#1298 = ORIENTED_EDGE ( 'NONE', *, *, #231, .T. ) ;
#1299 = DIRECTION ( 'NONE',  ( 1.000000000000000000, 0.000000000000000000, 0.000000000000000000 ) ) ;
#1300 = ORIENTED_EDGE ( 'NONE', *, *, #162, .T. ) ;
ENDSEC;
END-ISO-10303-21;
