ISO-10303-21;
HEADER;
FILE_DESCRIPTION (( 'STEP AP214' ),
    '1' );
FILE_NAME ('equerre  x.STEP',
    '2026-04-17T21:13:28',
    ( '' ),
    ( '' ),
    'SwSTEP 2.0',
    'SolidWorks 2021',
    '' );
FILE_SCHEMA (( 'AUTOMOTIVE_DESIGN' ));
ENDSEC;

DATA;
#1 = DIRECTION ( 'NONE',  ( -0.000000000000000000, -0.000000000000000000, -1.000000000000000000 ) ) ;
#2 = ORIENTED_EDGE ( 'NONE', *, *, #586, .F. ) ;
#3 = FACE_BOUND ( 'NONE', #623, .T. ) ;
#4 = FILL_AREA_STYLE_COLOUR ( '', #168 ) ;
#5 = EDGE_CURVE ( 'NONE', #196, #435, #507, .T. ) ;
#6 = DIRECTION ( 'NONE',  ( 0.000000000000000000, 0.000000000000000000, 1.000000000000000000 ) ) ;
#7 = CARTESIAN_POINT ( 'NONE',  ( 9.500000000000000000, 26.00000000000000000, 5.000000000000000000 ) ) ;
#8 = VECTOR ( 'NONE', #688, 1000.000000000000000 ) ;
#9 = AXIS2_PLACEMENT_3D ( 'NONE', #375, #840, #983 ) ;
#10 = LINE ( 'NONE', #599, #73 ) ;
#11 = ORIENTED_EDGE ( 'NONE', *, *, #484, .F. ) ;
#12 = DIRECTION ( 'NONE',  ( 0.000000000000000000, 0.000000000000000000, -1.000000000000000000 ) ) ;
#13 =( NAMED_UNIT ( * ) SI_UNIT ( $, .STERADIAN. ) SOLID_ANGLE_UNIT ( ) );
#14 = ORIENTED_EDGE ( 'NONE', *, *, #5, .F. ) ;
#15 = CARTESIAN_POINT ( 'NONE',  ( 0.000000000000000000, 0.000000000000000000, 0.000000000000000000 ) ) ;
#16 = DIRECTION ( 'NONE',  ( -0.000000000000000000, -0.000000000000000000, -1.000000000000000000 ) ) ;
#17 = DIRECTION ( 'NONE',  ( -0.000000000000000000, 1.000000000000000000, -0.000000000000000000 ) ) ;
#18 = ORIENTED_EDGE ( 'NONE', *, *, #762, .F. ) ;
#19 = FACE_OUTER_BOUND ( 'NONE', #549, .T. ) ;
#20 = PLANE ( 'NONE',  #771 ) ;
#21 = AXIS2_PLACEMENT_3D ( 'NONE', #219, #827, #986 ) ;
#22 = VECTOR ( 'NONE', #702, 1000.000000000000114 ) ;
#23 = ADVANCED_FACE ( 'NONE', ( #426 ), #119, .F. ) ;
#24 = VERTEX_POINT ( 'NONE', #727 ) ;
#25 = VECTOR ( 'NONE', #705, 1000.000000000000000 ) ;
#26 = CARTESIAN_POINT ( 'NONE',  ( 16.00000000000000000, 0.000000000000000000, -15.53995417325129402 ) ) ;
#27 = ADVANCED_FACE ( 'NONE', ( #886 ), #135, .F. ) ;
#28 = FACE_OUTER_BOUND ( 'NONE', #867, .T. ) ;
#29 = DIRECTION ( 'NONE',  ( -0.000000000000000000, 1.000000000000000000, -0.000000000000000000 ) ) ;
#30 = ORIENTED_EDGE ( 'NONE', *, *, #562, .T. ) ;
#31 = CARTESIAN_POINT ( 'NONE',  ( 16.00000000000000000, -4.000000000000000000, -9.539954173251274483 ) ) ;
#32 = FACE_OUTER_BOUND ( 'NONE', #887, .T. ) ;
#33 =( NAMED_UNIT ( * ) SI_UNIT ( $, .STERADIAN. ) SOLID_ANGLE_UNIT ( ) );
#34 = VERTEX_POINT ( 'NONE', #880 ) ;
#35 = DIRECTION ( 'NONE',  ( -1.000000000000000000, 0.000000000000000000, 0.000000000000000000 ) ) ;
#36 = LINE ( 'NONE', #929, #752 ) ;
#37 = EDGE_CURVE ( 'NONE', #654, #115, #356, .T. ) ;
#38 = VECTOR ( 'NONE', #758, 1000.000000000000000 ) ;
#39 = ORIENTED_EDGE ( 'NONE', *, *, #218, .T. ) ;
#40 = VECTOR ( 'NONE', #316, 1000.000000000000000 ) ;
#41 = DIRECTION ( 'NONE',  ( -0.000000000000000000, 1.000000000000000000, -0.000000000000000000 ) ) ;
#42 = ORIENTED_EDGE ( 'NONE', *, *, #707, .T. ) ;
#43 = CARTESIAN_POINT ( 'NONE',  ( 16.00000000000000000, -10.00000000000000000, -35.53995417325127448 ) ) ;
#44 = VERTEX_POINT ( 'NONE', #511 ) ;
#45 = ORIENTED_EDGE ( 'NONE', *, *, #382, .T. ) ;
#46 = CARTESIAN_POINT ( 'NONE',  ( 0.000000000000000000, 24.22359148590794575, -22.77017599675347270 ) ) ;
#47 = VERTEX_POINT ( 'NONE', #578 ) ;
#48 = EDGE_CURVE ( 'NONE', #642, #272, #805, .T. ) ;
#49 = CARTESIAN_POINT ( 'NONE',  ( 45.00000000000000711, -1.372443077143798318, -50.00000000000000000 ) ) ;
#50 = ORIENTED_EDGE ( 'NONE', *, *, #448, .T. ) ;
#51 = CIRCLE ( 'NONE', #712, 3.000000000000009770 ) ;
#52 = CIRCLE ( 'NONE', #755, 11.50000000000000355 ) ;
#53 = FACE_BOUND ( 'NONE', #766, .T. ) ;
#54 = VERTEX_POINT ( 'NONE', #212 ) ;
#55 = CARTESIAN_POINT ( 'NONE',  ( 16.00000000000000000, -4.000000000000000000, -15.53995417325129402 ) ) ;
#56 = EDGE_LOOP ( 'NONE', ( #430, #655 ) ) ;
#57 = FACE_BOUND ( 'NONE', #337, .T. ) ;
#58 = ORIENTED_EDGE ( 'NONE', *, *, #965, .F. ) ;
#59 = FACE_OUTER_BOUND ( 'NONE', #963, .T. ) ;
#60 = ORIENTED_EDGE ( 'NONE', *, *, #305, .F. ) ;
#61 = ORIENTED_EDGE ( 'NONE', *, *, #181, .F. ) ;
#62 = DIRECTION ( 'NONE',  ( 0.000000000000000000, 0.000000000000000000, 1.000000000000000000 ) ) ;
#63 = ADVANCED_FACE ( 'NONE', ( #359, #890 ), #434, .T. ) ;
#64 = CARTESIAN_POINT ( 'NONE',  ( -3.000000000000000000, -1.372443077143804535, -50.00000000000000000 ) ) ;
#65 = LINE ( 'NONE', #947, #903 ) ;
#66 = EDGE_CURVE ( 'NONE', #942, #532, #900, .T. ) ;
#67 = ORIENTED_EDGE ( 'NONE', *, *, #626, .F. ) ;
#68 = AXIS2_PLACEMENT_3D ( 'NONE', #438, #663, #515 ) ;
#69 = VECTOR ( 'NONE', #635, 1000.000000000000000 ) ;
#70 = DIRECTION ( 'NONE',  ( 0.000000000000000000, 0.000000000000000000, 1.000000000000000000 ) ) ;
#71 = CARTESIAN_POINT ( 'NONE',  ( -3.000000000000000000, -1.372443077143804535, -50.00000000000000000 ) ) ;
#72 = AXIS2_PLACEMENT_3D ( 'NONE', #594, #735, #514 ) ;
#73 = VECTOR ( 'NONE', #309, 1000.000000000000000 ) ;
#74 = CARTESIAN_POINT ( 'NONE',  ( 16.00000000000000000, -10.00000000000000000, -15.53995417325129402 ) ) ;
#75 = VERTEX_POINT ( 'NONE', #274 ) ;
#76 = CARTESIAN_POINT ( 'NONE',  ( 42.00000000000000000, 45.62755692285621478, 0.000000000000000000 ) ) ;
#77 = LINE ( 'NONE', #387, #407 ) ;
#78 = CARTESIAN_POINT ( 'NONE',  ( 32.50000000000000711, 26.00000000000000000, 0.000000000000000000 ) ) ;
#79 = LINE ( 'NONE', #157, #22 ) ;
#80 = CARTESIAN_POINT ( 'NONE',  ( 21.00000000000000355, 26.00000000000000000, 5.000000000000000000 ) ) ;
#81 = ADVANCED_FACE ( 'NONE', ( #673 ), #123, .F. ) ;
#82 = ADVANCED_FACE ( 'NONE', ( #971 ), #445, .T. ) ;
#83 = DIRECTION ( 'NONE',  ( 1.000000000000000000, 0.000000000000000000, 0.000000000000000000 ) ) ;
#84 = ORIENTED_EDGE ( 'NONE', *, *, #992, .F. ) ;
#85 = DIRECTION ( 'NONE',  ( 0.000000000000000000, 1.000000000000000000, 0.000000000000000000 ) ) ;
#86 = SURFACE_STYLE_USAGE ( .BOTH. , #297 ) ;
#87 = VECTOR ( 'NONE', #306, 1000.000000000000000 ) ;
#88 = EDGE_CURVE ( 'NONE', #761, #642, #220, .T. ) ;
#89 = ORIENTED_EDGE ( 'NONE', *, *, #888, .T. ) ;
#90 = LINE ( 'NONE', #232, #618 ) ;
#91 = CARTESIAN_POINT ( 'NONE',  ( 16.00000000000000000, -10.00000000000000000, -41.53995417325128869 ) ) ;
#92 = CARTESIAN_POINT ( 'NONE',  ( 16.00000000000000000, -4.000000000000000000, -38.53995417325128159 ) ) ;
#93 = ORIENTED_EDGE ( 'NONE', *, *, #893, .T. ) ;
#94 = FACE_OUTER_BOUND ( 'NONE', #287, .T. ) ;
#95 = CARTESIAN_POINT ( 'NONE',  ( 3.843650813895954865, 41.55634918610404327, 5.000000000000000000 ) ) ;
#96 = CARTESIAN_POINT ( 'NONE',  ( -3.000000000000000000, 47.00000000000000000, 1.460045826748704201 ) ) ;
#97 = VERTEX_POINT ( 'NONE', #574 ) ;
#98 = PLANE ( 'NONE',  #738 ) ;
#99 = DIRECTION ( 'NONE',  ( 1.000000000000000000, 0.000000000000000000, 0.000000000000000000 ) ) ;
#100 = AXIS2_PLACEMENT_3D ( 'NONE', #529, #384, #751 ) ;
#101 = AXIS2_PLACEMENT_3D ( 'NONE', #901, #895, #533 ) ;
#102 = CARTESIAN_POINT ( 'NONE',  ( 3.843650813895954865, 41.55634918610404327, 0.000000000000000000 ) ) ;
#103 = VECTOR ( 'NONE', #371, 1000.000000000000000 ) ;
#104 = ORIENTED_EDGE ( 'NONE', *, *, #163, .F. ) ;
#105 = ADVANCED_FACE ( 'NONE', ( #451 ), #608, .F. ) ;
#106 = DIRECTION ( 'NONE',  ( 0.000000000000000000, 0.000000000000000000, -1.000000000000000000 ) ) ;
#107 = DIRECTION ( 'NONE',  ( -0.000000000000000000, -0.000000000000000000, -1.000000000000000000 ) ) ;
#108 = ORIENTED_EDGE ( 'NONE', *, *, #352, .F. ) ;
#109 = DIRECTION ( 'NONE',  ( 0.000000000000000000, 0.000000000000000000, 1.000000000000000000 ) ) ;
#110 = LINE ( 'NONE', #782, #440 ) ;
#111 = VERTEX_POINT ( 'NONE', #64 ) ;
#112 = CARTESIAN_POINT ( 'NONE',  ( 16.00000000000000000, -10.00000000000000000, -41.53995417325128869 ) ) ;
#113 = ORIENTED_EDGE ( 'NONE', *, *, #785, .F. ) ;
#114 = ORIENTED_EDGE ( 'NONE', *, *, #481, .F. ) ;
#115 = VERTEX_POINT ( 'NONE', #764 ) ;
#116 = VECTOR ( 'NONE', #459, 1000.000000000000000 ) ;
#117 = VECTOR ( 'NONE', #254, 1000.000000000000000 ) ;
#118 = ORIENTED_EDGE ( 'NONE', *, *, #785, .T. ) ;
#119 = CYLINDRICAL_SURFACE ( 'NONE', #577, 11.50000000000000533 ) ;
#120 = ORIENTED_EDGE ( 'NONE', *, *, #462, .F. ) ;
#121 = EDGE_CURVE ( 'NONE', #355, #927, #162, .T. ) ;
#122 = ORIENTED_EDGE ( 'NONE', *, *, #308, .T. ) ;
#123 = PLANE ( 'NONE',  #68 ) ;
#124 = ADVANCED_FACE ( 'NONE', ( #455 ), #925, .F. ) ;
#125 = ORIENTED_EDGE ( 'NONE', *, *, #615, .T. ) ;
#126 = EDGE_CURVE ( 'NONE', #761, #845, #77, .T. ) ;
#127 = FACE_BOUND ( 'NONE', #365, .T. ) ;
#128 = CARTESIAN_POINT ( 'NONE',  ( 5.443650813895954066, 41.55634918610404327, 0.000000000000000000 ) ) ;
#129 = CARTESIAN_POINT ( 'NONE',  ( 26.00000000000000355, -10.00000000000000000, -35.53995417325127448 ) ) ;
#130 = ORIENTED_EDGE ( 'NONE', *, *, #992, .T. ) ;
#131 = EDGE_LOOP ( 'NONE', ( #658, #376, #260, #256 ) ) ;
#132 = AXIS2_PLACEMENT_3D ( 'NONE', #380, #847, #540 ) ;
#133 = VECTOR ( 'NONE', #154, 1000.000000000000000 ) ;
#134 = DIRECTION ( 'NONE',  ( 1.000000000000000000, 0.000000000000000000, 0.000000000000000000 ) ) ;
#135 = PLANE ( 'NONE',  #769 ) ;
#136 = DIRECTION ( 'NONE',  ( -1.000000000000000000, -0.000000000000000000, -0.000000000000000000 ) ) ;
#137 = EDGE_LOOP ( 'NONE', ( #50, #803 ) ) ;
#138 = ORIENTED_EDGE ( 'NONE', *, *, #121, .F. ) ;
#139 = CARTESIAN_POINT ( 'NONE',  ( 0.000000000000000000, -1.372443077143798318, -50.00000000000000000 ) ) ;
#140 = FACE_OUTER_BOUND ( 'NONE', #862, .T. ) ;
#141 = ADVANCED_FACE ( 'NONE', ( #233, #748, #140 ), #242, .T. ) ;
#142 = DIRECTION ( 'NONE',  ( -1.000000000000000000, 0.000000000000000000, 0.000000000000000000 ) ) ;
#143 = ORIENTED_EDGE ( 'NONE', *, *, #640, .T. ) ;
#144 = ORIENTED_EDGE ( 'NONE', *, *, #581, .T. ) ;
#145 = CARTESIAN_POINT ( 'NONE',  ( 3.843650813895955309, 41.55634918610404327, 5.000000000000000000 ) ) ;
#146 = CARTESIAN_POINT ( 'NONE',  ( 16.00000000000000000, 0.000000000000000000, -35.53995417325127448 ) ) ;
#147 = CARTESIAN_POINT ( 'NONE',  ( 7.043650813896290330, 10.44365081389584127, 0.000000000000000000 ) ) ;
#148 = MANIFOLD_SOLID_BREP ( 'Boss-Extrude8', #360 ) ;
#149 = VECTOR ( 'NONE', #865, 1000.000000000000000 ) ;
#150 = CARTESIAN_POINT ( 'NONE',  ( 26.00000000000000355, 0.000000000000000000, -41.53995417325128869 ) ) ;
#151 = DIRECTION ( 'NONE',  ( -1.000000000000000000, 0.000000000000000000, 0.000000000000000000 ) ) ;
#152 = AXIS2_PLACEMENT_3D ( 'NONE', #531, #446, #990 ) ;
#153 = AXIS2_PLACEMENT_3D ( 'NONE', #92, #475, #548 ) ;
#154 = DIRECTION ( 'NONE',  ( -1.000000000000000000, 0.000000000000000000, 0.000000000000000000 ) ) ;
#155 = ORIENTED_EDGE ( 'NONE', *, *, #335, .T. ) ;
#156 = EDGE_CURVE ( 'NONE', #204, #299, #51, .T. ) ;
#157 = CARTESIAN_POINT ( 'NONE',  ( 42.00000000000000000, 24.22359148590794931, -22.77017599675347626 ) ) ;
#158 = DIRECTION ( 'NONE',  ( 1.000000000000000000, 0.000000000000000000, 0.000000000000000000 ) ) ;
#159 = CARTESIAN_POINT ( 'NONE',  ( 42.00000000000000000, -4.000000000000000000, -50.00000000000000000 ) ) ;
#160 = ORIENTED_EDGE ( 'NONE', *, *, #176, .F. ) ;
#161 = FACE_BOUND ( 'NONE', #506, .T. ) ;
#162 = LINE ( 'NONE', #312, #38 ) ;
#163 = EDGE_CURVE ( 'NONE', #111, #600, #835, .T. ) ;
#164 =( LENGTH_UNIT ( ) NAMED_UNIT ( * ) SI_UNIT ( .MILLI., .METRE. ) );
#165 = ORIENTED_EDGE ( 'NONE', *, *, #126, .T. ) ;
#166 = DIRECTION ( 'NONE',  ( 0.000000000000000000, 0.000000000000000000, 1.000000000000000000 ) ) ;
#167 = CARTESIAN_POINT ( 'NONE',  ( 45.00000000000000711, 47.00000000000000711, 5.000000000000000000 ) ) ;
#168 = COLOUR_RGB ( '',0.7921568627450980005, 0.8196078431372548767, 0.9333333333333333481 ) ;
#169 = AXIS2_PLACEMENT_3D ( 'NONE', #379, #296, #223 ) ;
#170 = CIRCLE ( 'NONE', #580, 11.50000000000000355 ) ;
#171 = LINE ( 'NONE', #941, #855 ) ;
#172 = EDGE_LOOP ( 'NONE', ( #67, #195, #449, #84 ) ) ;
#173 = EDGE_CURVE ( 'NONE', #504, #367, #224, .T. ) ;
#174 = CARTESIAN_POINT ( 'NONE',  ( 16.00000000000000000, 0.000000000000000000, -35.53995417325127448 ) ) ;
#175 = DIRECTION ( 'NONE',  ( -0.000000000000000000, -0.000000000000000000, 1.000000000000000000 ) ) ;
#176 = EDGE_CURVE ( 'NONE', #858, #667, #410, .T. ) ;
#177 = APPLICATION_PROTOCOL_DEFINITION ( 'draft international standard', 'automotive_design', 1998, #813 ) ;
#178 = ORIENTED_EDGE ( 'NONE', *, *, #839, .T. ) ;
#179 = DIRECTION ( 'NONE',  ( 1.000000000000000000, 0.000000000000000000, 0.000000000000000000 ) ) ;
#180 = CARTESIAN_POINT ( 'NONE',  ( 36.55634918610438433, 10.44365081389606686, 5.000000000000000000 ) ) ;
#181 = EDGE_CURVE ( 'NONE', #849, #245, #470, .T. ) ;
#182 = ORIENTED_EDGE ( 'NONE', *, *, #424, .F. ) ;
#183 = DIRECTION ( 'NONE',  ( 1.000000000000000000, 1.652117596168388249E-16, 1.757571910817433972E-16 ) ) ;
#184 = CARTESIAN_POINT ( 'NONE',  ( 26.00000000000000355, 0.000000000000000000, -15.53995417325129402 ) ) ;
#185 = PRESENTATION_LAYER_ASSIGNMENT (  '', '', ( #967 ) ) ;
#186 = AXIS2_PLACEMENT_3D ( 'NONE', #560, #247, #717 ) ;
#187 = DIRECTION ( 'NONE',  ( 0.000000000000000000, -0.6849100087678869908, -0.7286276689020071418 ) ) ;
#188 = VECTOR ( 'NONE', #647, 1000.000000000000000 ) ;
#189 = VERTEX_POINT ( 'NONE', #464 ) ;
#190 = LINE ( 'NONE', #716, #753 ) ;
#191 = CARTESIAN_POINT ( 'NONE',  ( 9.500000000000000000, 26.00000000000000000, 0.000000000000000000 ) ) ;
#192 = EDGE_LOOP ( 'NONE', ( #293, #89, #617, #883 ) ) ;
#193 = CARTESIAN_POINT ( 'NONE',  ( 6.221724020487423467E-16, 47.00000000000000000, 1.460045826748707309 ) ) ;
#194 = VERTEX_POINT ( 'NONE', #620 ) ;
#195 = ORIENTED_EDGE ( 'NONE', *, *, #37, .F. ) ;
#196 = VERTEX_POINT ( 'NONE', #317 ) ;
#197 = DIRECTION ( 'NONE',  ( 0.000000000000000000, 0.6849100087678868798, 0.7286276689020071418 ) ) ;
#198 = VECTOR ( 'NONE', #523, 1000.000000000000000 ) ;
#199 = VECTOR ( 'NONE', #700, 1000.000000000000000 ) ;
#200 = ORIENTED_EDGE ( 'NONE', *, *, #734, .F. ) ;
#201 = AXIS2_PLACEMENT_3D ( 'NONE', #913, #859, #179 ) ;
#202 = CIRCLE ( 'NONE', #153, 3.000000000000009770 ) ;
#203 = ORIENTED_EDGE ( 'NONE', *, *, #163, .T. ) ;
#204 = VERTEX_POINT ( 'NONE', #921 ) ;
#205 = ADVANCED_FACE ( 'NONE', ( #239 ), #544, .F. ) ;
#206 = ORIENTED_EDGE ( 'NONE', *, *, #583, .T. ) ;
#207 = CARTESIAN_POINT ( 'NONE',  ( 0.000000000000000000, 0.000000000000000000, 0.000000000000000000 ) ) ;
#208 = ORIENTED_EDGE ( 'NONE', *, *, #218, .F. ) ;
#209 = FACE_OUTER_BOUND ( 'NONE', #453, .T. ) ;
#210 = VERTEX_POINT ( 'NONE', #547 ) ;
#211 = CARTESIAN_POINT ( 'NONE',  ( 0.000000000000000000, 45.62755692285622189, 3.469446951953614189E-15 ) ) ;
#212 = CARTESIAN_POINT ( 'NONE',  ( 38.15634918610414417, 41.55634918610414985, 0.000000000000000000 ) ) ;
#213 = CARTESIAN_POINT ( 'NONE',  ( -3.000000000000000000, 47.00000000000000000, 5.000000000000000000 ) ) ;
#214 = EDGE_LOOP ( 'NONE', ( #447, #651 ) ) ;
#215 = VERTEX_POINT ( 'NONE', #648 ) ;
#216 = VECTOR ( 'NONE', #857, 1000.000000000000000 ) ;
#217 = VECTOR ( 'NONE', #136, 1000.000000000000000 ) ;
#218 = EDGE_CURVE ( 'NONE', #353, #927, #714, .T. ) ;
#219 = CARTESIAN_POINT ( 'NONE',  ( 5.443650813895954066, 41.55634918610404327, 5.000000000000000000 ) ) ;
#220 = LINE ( 'NONE', #271, #198 ) ;
#221 = DIRECTION ( 'NONE',  ( -0.000000000000000000, -0.000000000000000000, -1.000000000000000000 ) ) ;
#222 = ORIENTED_EDGE ( 'NONE', *, *, #640, .F. ) ;
#223 = DIRECTION ( 'NONE',  ( 0.000000000000000000, 0.000000000000000000, -1.000000000000000000 ) ) ;
#224 = LINE ( 'NONE', #146, #633 ) ;
#225 = LINE ( 'NONE', #381, #567 ) ;
#226 = VERTEX_POINT ( 'NONE', #167 ) ;
#227 = FACE_BOUND ( 'NONE', #912, .T. ) ;
#228 = DIRECTION ( 'NONE',  ( 1.000000000000000000, 0.000000000000000000, 0.000000000000000000 ) ) ;
#229 = EDGE_CURVE ( 'NONE', #966, #521, #632, .T. ) ;
#230 = ORIENTED_EDGE ( 'NONE', *, *, #946, .T. ) ;
#231 = AXIS2_PLACEMENT_3D ( 'NONE', #472, #552, #99 ) ;
#232 = CARTESIAN_POINT ( 'NONE',  ( -0.000000000000000000, 24.22359148590794931, -22.77017599675347626 ) ) ;
#233 = FACE_BOUND ( 'NONE', #131, .T. ) ;
#234 = AXIS2_PLACEMENT_3D ( 'NONE', #323, #259, #418 ) ;
#235 = EDGE_CURVE ( 'NONE', #34, #47, #868, .T. ) ;
#236 = DIRECTION ( 'NONE',  ( -1.000000000000000000, 0.000000000000000000, 0.000000000000000000 ) ) ;
#237 = ORIENTED_EDGE ( 'NONE', *, *, #48, .F. ) ;
#238 = CARTESIAN_POINT ( 'NONE',  ( 0.000000000000000000, -4.000000000000000000, -41.53995417325128869 ) ) ;
#239 = FACE_OUTER_BOUND ( 'NONE', #740, .T. ) ;
#240 = ORIENTED_EDGE ( 'NONE', *, *, #486, .T. ) ;
#241 = CARTESIAN_POINT ( 'NONE',  ( -3.000000000000000000, -4.000000000000000000, -50.00000000000000000 ) ) ;
#242 = PLANE ( 'NONE',  #100 ) ;
#243 = CYLINDRICAL_SURFACE ( 'NONE', #636, 3.000000000000009770 ) ;
#244 = EDGE_CURVE ( 'NONE', #532, #942, #249, .T. ) ;
#245 = VERTEX_POINT ( 'NONE', #191 ) ;
#246 = CARTESIAN_POINT ( 'NONE',  ( 32.50000000000000711, 26.00000000000000000, 5.000000000000000000 ) ) ;
#247 = DIRECTION ( 'NONE',  ( 0.000000000000000000, -1.000000000000000000, 0.000000000000000000 ) ) ;
#248 = ADVANCED_FACE ( 'NONE', ( #871 ), #334, .F. ) ;
#249 = CIRCLE ( 'NONE', #579, 1.599999999999998090 ) ;
#250 = ORIENTED_EDGE ( 'NONE', *, *, #972, .T. ) ;
#251 = FACE_BOUND ( 'NONE', #56, .T. ) ;
#252 = LINE ( 'NONE', #408, #149 ) ;
#253 = DIRECTION ( 'NONE',  ( 1.000000000000000000, 0.000000000000000000, 0.000000000000000000 ) ) ;
#254 = DIRECTION ( 'NONE',  ( 1.000000000000000000, -0.000000000000000000, -0.000000000000000000 ) ) ;
#255 = UNCERTAINTY_MEASURE_WITH_UNIT (LENGTH_MEASURE( 1.000000000000000082E-05 ), #164, 'distance_accuracy_value', 'NONE');
#256 = ORIENTED_EDGE ( 'NONE', *, *, #505, .F. ) ;
#257 = LINE ( 'NONE', #266, #791 ) ;
#258 = CARTESIAN_POINT ( 'NONE',  ( -3.000000000000000000, 0.000000000000000000, 0.000000000000000000 ) ) ;
#259 = DIRECTION ( 'NONE',  ( 0.000000000000000000, 0.000000000000000000, 1.000000000000000000 ) ) ;
#260 = ORIENTED_EDGE ( 'NONE', *, *, #229, .F. ) ;
#261 = EDGE_CURVE ( 'NONE', #683, #54, #252, .T. ) ;
#262 = CARTESIAN_POINT ( 'NONE',  ( 0.000000000000000000, 45.62755692285621478, 0.000000000000000000 ) ) ;
#263 = FACE_OUTER_BOUND ( 'NONE', #842, .T. ) ;
#264 = VECTOR ( 'NONE', #775, 1000.000000000000000 ) ;
#265 = ORIENTED_EDGE ( 'NONE', *, *, #516, .F. ) ;
#266 = CARTESIAN_POINT ( 'NONE',  ( 7.043650813895951934, 41.55634918610404327, 5.000000000000000000 ) ) ;
#267 = ORIENTED_EDGE ( 'NONE', *, *, #676, .T. ) ;
#268 = ADVANCED_FACE ( 'NONE', ( #28 ), #945, .T. ) ;
#269 = EDGE_LOOP ( 'NONE', ( #425, #391 ) ) ;
#270 = VERTEX_POINT ( 'NONE', #417 ) ;
#271 = CARTESIAN_POINT ( 'NONE',  ( 0.000000000000000000, -4.000000000000000000, -15.53995417325129402 ) ) ;
#272 = VERTEX_POINT ( 'NONE', #860 ) ;
#273 = ORIENTED_EDGE ( 'NONE', *, *, #815, .F. ) ;
#274 = CARTESIAN_POINT ( 'NONE',  ( 7.043650813895952822, 41.55634918610404327, 5.000000000000000000 ) ) ;
#275 = AXIS2_PLACEMENT_3D ( 'NONE', #747, #62, #603 ) ;
#276 = VERTEX_POINT ( 'NONE', #483 ) ;
#277 = VECTOR ( 'NONE', #638, 1000.000000000000000 ) ;
#278 =( GEOMETRIC_REPRESENTATION_CONTEXT ( 3 ) GLOBAL_UNCERTAINTY_ASSIGNED_CONTEXT ( ( #255 ) ) GLOBAL_UNIT_ASSIGNED_CONTEXT ( ( #164, #630, #33 ) ) REPRESENTATION_CONTEXT ( 'NONE', 'WORKASPACE' ) );
#279 = CARTESIAN_POINT ( 'NONE',  ( 5.443650813895954066, 41.55634918610404327, 5.000000000000000000 ) ) ;
#280 = DIRECTION ( 'NONE',  ( 0.000000000000000000, -1.000000000000000000, 0.000000000000000000 ) ) ;
#281 = EDGE_CURVE ( 'NONE', #810, #97, #809, .T. ) ;
#282 = CARTESIAN_POINT ( 'NONE',  ( 21.00000000000000355, 26.00000000000000000, 0.000000000000000000 ) ) ;
#283 = ORIENTED_EDGE ( 'NONE', *, *, #261, .T. ) ;
#284 = PLANE ( 'NONE',  #933 ) ;
#285 = CARTESIAN_POINT ( 'NONE',  ( 21.00000000000000355, 26.00000000000000000, 5.000000000000000000 ) ) ;
#286 = LINE ( 'NONE', #129, #989 ) ;
#287 = EDGE_LOOP ( 'NONE', ( #892, #814, #208 ) ) ;
#288 = VERTEX_POINT ( 'NONE', #787 ) ;
#289 = DIRECTION ( 'NONE',  ( -0.000000000000000000, -0.000000000000000000, -1.000000000000000000 ) ) ;
#290 = ORIENTED_EDGE ( 'NONE', *, *, #388, .T. ) ;
#291 = CARTESIAN_POINT ( 'NONE',  ( 16.00000000000000000, -10.00000000000000000, -9.539954173251274483 ) ) ;
#292 = ORIENTED_EDGE ( 'NONE', *, *, #308, .F. ) ;
#293 = ORIENTED_EDGE ( 'NONE', *, *, #505, .T. ) ;
#294 = AXIS2_PLACEMENT_3D ( 'NONE', #482, #12, #467 ) ;
#295 = VECTOR ( 'NONE', #187, 1000.000000000000000 ) ;
#296 = DIRECTION ( 'NONE',  ( 0.000000000000000000, -1.000000000000000000, 0.000000000000000000 ) ) ;
#297 = SURFACE_SIDE_STYLE ('',( #394 ) ) ;
#298 = LINE ( 'NONE', #610, #103 ) ;
#299 = VERTEX_POINT ( 'NONE', #184 ) ;
#300 = CARTESIAN_POINT ( 'NONE',  ( 26.00000000000000355, 0.000000000000000000, -35.53995417325127448 ) ) ;
#301 = CARTESIAN_POINT ( 'NONE',  ( 21.00000000000000355, 26.00000000000000000, 0.000000000000000000 ) ) ;
#302 = EDGE_CURVE ( 'NONE', #976, #667, #494, .T. ) ;
#303 = LINE ( 'NONE', #674, #773 ) ;
#304 = EDGE_LOOP ( 'NONE', ( #711, #974, #42, #958 ) ) ;
#305 = EDGE_CURVE ( 'NONE', #554, #849, #110, .T. ) ;
#306 = DIRECTION ( 'NONE',  ( -1.000000000000000000, 0.000000000000000000, 0.000000000000000000 ) ) ;
#307 = DIRECTION ( 'NONE',  ( -0.000000000000000000, 1.000000000000000000, -0.000000000000000000 ) ) ;
#308 = EDGE_CURVE ( 'NONE', #527, #858, #793, .T. ) ;
#309 = DIRECTION ( 'NONE',  ( -0.000000000000000000, 1.000000000000000000, -0.000000000000000000 ) ) ;
#310 = CIRCLE ( 'NONE', #275, 1.599999999999998090 ) ;
#311 = DIRECTION ( 'NONE',  ( 0.000000000000000000, 1.000000000000000000, 0.000000000000000000 ) ) ;
#312 = CARTESIAN_POINT ( 'NONE',  ( 0.000000000000000000, 0.000000000000000000, 0.000000000000000000 ) ) ;
#313 = CIRCLE ( 'NONE', #838, 3.000000000000009770 ) ;
#314 = DIRECTION ( 'NONE',  ( -0.000000000000000000, 0.000000000000000000, 1.000000000000000000 ) ) ;
#315 = ORIENTED_EDGE ( 'NONE', *, *, #173, .F. ) ;
#316 = DIRECTION ( 'NONE',  ( -0.000000000000000000, 1.000000000000000000, -0.000000000000000000 ) ) ;
#317 = CARTESIAN_POINT ( 'NONE',  ( 45.00000000000000711, -1.372443077143798318, -50.00000000000000000 ) ) ;
#318 = SURFACE_SIDE_STYLE ('',( #783 ) ) ;
#319 = EDGE_LOOP ( 'NONE', ( #819, #155, #93 ) ) ;
#320 = ADVANCED_FACE ( 'NONE', ( #32 ), #322, .F. ) ;
#321 = LINE ( 'NONE', #238, #264 ) ;
#322 = CYLINDRICAL_SURFACE ( 'NONE', #680, 3.000000000000009770 ) ;
#323 = CARTESIAN_POINT ( 'NONE',  ( 36.55634918610414985, 41.55634918610414985, 0.000000000000000000 ) ) ;
#324 = ORIENTED_EDGE ( 'NONE', *, *, #235, .T. ) ;
#325 = CARTESIAN_POINT ( 'NONE',  ( 0.000000000000000000, 0.000000000000000000, -50.00000000000000000 ) ) ;
#326 = DIRECTION ( 'NONE',  ( -1.000000000000000000, 0.000000000000000000, 0.000000000000000000 ) ) ;
#327 = ADVANCED_BREP_SHAPE_REPRESENTATION ( 'equerre  x', ( #148, #621 ), #278 ) ;
#328 = ADVANCED_FACE ( 'NONE', ( #263 ), #565, .F. ) ;
#329 = CIRCLE ( 'NONE', #808, 1.599999999999997202 ) ;
#330 = PRESENTATION_STYLE_ASSIGNMENT (( #770 ) ) ;
#331 = PRODUCT_DEFINITION_FORMATION_WITH_SPECIFIED_SOURCE ( 'ANY', '', #781, .NOT_KNOWN. ) ;
#332 = ORIENTED_EDGE ( 'NONE', *, *, #696, .T. ) ;
#333 = DIRECTION ( 'NONE',  ( 0.000000000000000000, 0.000000000000000000, 1.000000000000000000 ) ) ;
#334 = CYLINDRICAL_SURFACE ( 'NONE', #535, 1.599999999999997202 ) ;
#335 = EDGE_CURVE ( 'NONE', #405, #194, #36, .T. ) ;
#336 = PRODUCT_DEFINITION_SHAPE ( 'NONE', 'NONE',  #894 ) ;
#337 = EDGE_LOOP ( 'NONE', ( #573, #728 ) ) ;
#338 = CARTESIAN_POINT ( 'NONE',  ( 45.00000000000000711, -3.999999999999994227, 5.000000000000000000 ) ) ;
#339 = DIRECTION ( 'NONE',  ( -0.000000000000000000, 1.000000000000000000, -0.000000000000000000 ) ) ;
#340 = FILL_AREA_STYLE ('',( #479 ) ) ;
#341 = VERTEX_POINT ( 'NONE', #95 ) ;
#342 = ADVANCED_FACE ( 'NONE', ( #403 ), #20, .F. ) ;
#343 = FACE_OUTER_BOUND ( 'NONE', #611, .T. ) ;
#344 = DIRECTION ( 'NONE',  ( 0.000000000000000000, 0.000000000000000000, 1.000000000000000000 ) ) ;
#345 = AXIS2_PLACEMENT_3D ( 'NONE', #370, #280, #896 ) ;
#346 =( GEOMETRIC_REPRESENTATION_CONTEXT ( 3 ) GLOBAL_UNCERTAINTY_ASSIGNED_CONTEXT ( ( #826 ) ) GLOBAL_UNIT_ASSIGNED_CONTEXT ( ( #685, #625, #613 ) ) REPRESENTATION_CONTEXT ( 'NONE', 'WORKASPACE' ) );
#347 = AXIS2_PLACEMENT_3D ( 'NONE', #291, #314, #904 ) ;
#348 = ORIENTED_EDGE ( 'NONE', *, *, #569, .T. ) ;
#349 = DIRECTION ( 'NONE',  ( -1.000000000000000000, -0.000000000000000000, 0.000000000000000000 ) ) ;
#350 = ORIENTED_EDGE ( 'NONE', *, *, #959, .T. ) ;
#351 = ORIENTED_EDGE ( 'NONE', *, *, #66, .F. ) ;
#352 = EDGE_CURVE ( 'NONE', #75, #341, #988, .T. ) ;
#353 = VERTEX_POINT ( 'NONE', #757 ) ;
#354 = EDGE_CURVE ( 'NONE', #34, #44, #364, .T. ) ;
#355 = VERTEX_POINT ( 'NONE', #211 ) ;
#356 = LINE ( 'NONE', #431, #439 ) ;
#357 = ORIENTED_EDGE ( 'NONE', *, *, #959, .F. ) ;
#358 = DIRECTION ( 'NONE',  ( -0.000000000000000000, -0.000000000000000000, -1.000000000000000000 ) ) ;
#359 = FACE_BOUND ( 'NONE', #962, .T. ) ;
#360 = CLOSED_SHELL ( 'NONE', ( #876, #777, #656, #602, #23, #530, #141, #63, #396, #342, #414, #81, #609, #526, #105, #409, #205, #248, #328, #124, #872, #957, #917, #794, #690, #320, #27, #82, #268 ) ) ;
#361 = CIRCLE ( 'NONE', #915, 1.599999999999997202 ) ;
#362 = VERTEX_POINT ( 'NONE', #150 ) ;
#363 = AXIS2_PLACEMENT_3D ( 'NONE', #497, #944, #955 ) ;
#364 = LINE ( 'NONE', #910, #550 ) ;
#365 = EDGE_LOOP ( 'NONE', ( #315, #593, #637, #200 ) ) ;
#366 = LINE ( 'NONE', #493, #954 ) ;
#367 = VERTEX_POINT ( 'NONE', #300 ) ;
#368 = PRODUCT_DEFINITION_CONTEXT ( 'detailed design', #919, 'design' ) ;
#369 = FACE_BOUND ( 'NONE', #137, .T. ) ;
#370 = CARTESIAN_POINT ( 'NONE',  ( 26.00000000000000355, -4.000000000000000000, -12.53995417325128336 ) ) ;
#371 = DIRECTION ( 'NONE',  ( -0.000000000000000000, -0.000000000000000000, -1.000000000000000000 ) ) ;
#372 = EDGE_LOOP ( 'NONE', ( #830, #30, #960, #500 ) ) ;
#373 = CYLINDRICAL_SURFACE ( 'NONE', #598, 1.599999999999998090 ) ;
#374 = CARTESIAN_POINT ( 'NONE',  ( 26.00000000000000355, 0.000000000000000000, -12.53995417325128336 ) ) ;
#375 = CARTESIAN_POINT ( 'NONE',  ( 16.00000000000000000, -10.00000000000000000, -38.53995417325128159 ) ) ;
#376 = ORIENTED_EDGE ( 'NONE', *, *, #852, .F. ) ;
#377 = AXIS2_PLACEMENT_3D ( 'NONE', #444, #662, #741 ) ;
#378 = VECTOR ( 'NONE', #463, 1000.000000000000000 ) ;
#379 = CARTESIAN_POINT ( 'NONE',  ( 16.00000000000000000, -4.000000000000000000, -12.53995417325128336 ) ) ;
#380 = CARTESIAN_POINT ( 'NONE',  ( 5.443650813896291574, 10.44365081389584127, 0.000000000000000000 ) ) ;
#381 = CARTESIAN_POINT ( 'NONE',  ( 45.00000000000000711, -4.000000000000000000, -50.00000000000000000 ) ) ;
#382 = EDGE_CURVE ( 'NONE', #196, #111, #584, .T. ) ;
#383 = FACE_BOUND ( 'NONE', #806, .T. ) ;
#384 = DIRECTION ( 'NONE',  ( 0.000000000000000000, -1.000000000000000000, 0.000000000000000000 ) ) ;
#385 = DIRECTION ( 'NONE',  ( -1.000000000000000000, 0.000000000000000000, -0.000000000000000000 ) ) ;
#386 = DIRECTION ( 'NONE',  ( 0.000000000000000000, 1.000000000000000000, 0.000000000000000000 ) ) ;
#387 = CARTESIAN_POINT ( 'NONE',  ( 16.00000000000000000, -10.00000000000000000, -15.53995417325129402 ) ) ;
#388 = EDGE_CURVE ( 'NONE', #44, #24, #882, .T. ) ;
#389 = SHAPE_DEFINITION_REPRESENTATION ( #336, #327 ) ;
#390 = PLANE ( 'NONE',  #347 ) ;
#391 = ORIENTED_EDGE ( 'NONE', *, *, #244, .T. ) ;
#392 = CIRCLE ( 'NONE', #517, 3.000000000000009770 ) ;
#393 = DIRECTION ( 'NONE',  ( 0.000000000000000000, -0.000000000000000000, 1.000000000000000000 ) ) ;
#394 = SURFACE_STYLE_FILL_AREA ( #907 ) ;
#395 = CIRCLE ( 'NONE', #503, 11.50000000000000355 ) ;
#396 = ADVANCED_FACE ( 'NONE', ( #53, #889, #678, #57, #369, #522 ), #284, .T. ) ;
#397 = ORIENTED_EDGE ( 'NONE', *, *, #388, .F. ) ;
#398 = PLANE ( 'NONE',  #294 ) ;
#399 = CARTESIAN_POINT ( 'NONE',  ( 3.843650813896293705, 10.44365081389584127, 5.000000000000000000 ) ) ;
#400 = LINE ( 'NONE', #796, #117 ) ;
#401 = ORIENTED_EDGE ( 'NONE', *, *, #5, .T. ) ;
#402 = LINE ( 'NONE', #551, #40 ) ;
#403 = FACE_OUTER_BOUND ( 'NONE', #172, .T. ) ;
#404 = CARTESIAN_POINT ( 'NONE',  ( 3.843650813896293705, 10.44365081389584127, 5.000000000000000000 ) ) ;
#405 = VERTEX_POINT ( 'NONE', #834 ) ;
#406 = DIRECTION ( 'NONE',  ( 0.000000000000000000, 1.000000000000000000, 0.000000000000000000 ) ) ;
#407 = VECTOR ( 'NONE', #307, 1000.000000000000000 ) ;
#408 = CARTESIAN_POINT ( 'NONE',  ( 38.15634918610414417, 41.55634918610414985, 5.000000000000000000 ) ) ;
#409 = ADVANCED_FACE ( 'NONE', ( #672 ), #373, .F. ) ;
#410 = CIRCLE ( 'NONE', #132, 1.599999999999998090 ) ;
#411 = CIRCLE ( 'NONE', #201, 1.599999999999998090 ) ;
#412 = PRESENTATION_LAYER_ASSIGNMENT (  '', '', ( #885 ) ) ;
#413 =( LENGTH_UNIT ( ) NAMED_UNIT ( * ) SI_UNIT ( .MILLI., .METRE. ) );
#414 = ADVANCED_FACE ( 'NONE', ( #127, #227, #450 ), #436, .F. ) ;
#415 = ORIENTED_EDGE ( 'NONE', *, *, #156, .F. ) ;
#416 = DIRECTION ( 'NONE',  ( -1.000000000000000000, -0.000000000000000000, -0.000000000000000000 ) ) ;
#417 = CARTESIAN_POINT ( 'NONE',  ( 16.00000000000000000, 0.000000000000000000, -9.539954173251278036 ) ) ;
#418 = DIRECTION ( 'NONE',  ( 1.000000000000000000, 0.000000000000000000, 0.000000000000000000 ) ) ;
#419 = ORIENTED_EDGE ( 'NONE', *, *, #88, .F. ) ;
#420 = CARTESIAN_POINT ( 'NONE',  ( 38.15634918610414417, 41.55634918610414985, 5.000000000000000000 ) ) ;
#421 = CARTESIAN_POINT ( 'NONE',  ( 5.443650813896291574, 10.44365081389584127, 5.000000000000000000 ) ) ;
#422 = ORIENTED_EDGE ( 'NONE', *, *, #940, .F. ) ;
#423 = CARTESIAN_POINT ( 'NONE',  ( 21.00000000000000355, 26.00000000000000000, 5.000000000000000000 ) ) ;
#424 = EDGE_CURVE ( 'NONE', #683, #276, #837, .T. ) ;
#425 = ORIENTED_EDGE ( 'NONE', *, *, #66, .T. ) ;
#426 = FACE_OUTER_BOUND ( 'NONE', #595, .T. ) ;
#427 = AXIS2_PLACEMENT_3D ( 'NONE', #258, #556, #644 ) ;
#428 = EDGE_CURVE ( 'NONE', #276, #683, #968, .T. ) ;
#429 = ORIENTED_EDGE ( 'NONE', *, *, #659, .T. ) ;
#430 = ORIENTED_EDGE ( 'NONE', *, *, #235, .F. ) ;
#431 = CARTESIAN_POINT ( 'NONE',  ( -3.000000000000000000, 47.00000000000000000, 5.000000000000000000 ) ) ;
#432 = ORIENTED_EDGE ( 'NONE', *, *, #888, .F. ) ;
#433 = EDGE_LOOP ( 'NONE', ( #692, #182 ) ) ;
#434 = PLANE ( 'NONE',  #931 ) ;
#435 = VERTEX_POINT ( 'NONE', #820 ) ;
#436 = PLANE ( 'NONE',  #72 ) ;
#437 = EDGE_CURVE ( 'NONE', #341, #75, #457, .T. ) ;
#438 = CARTESIAN_POINT ( 'NONE',  ( 42.00000000000000000, 0.000000000000000000, 0.000000000000000000 ) ) ;
#439 = VECTOR ( 'NONE', #736, 1000.000000000000000 ) ;
#440 = VECTOR ( 'NONE', #107, 1000.000000000000000 ) ;
#441 = LINE ( 'NONE', #26, #726 ) ;
#442 = ORIENTED_EDGE ( 'NONE', *, *, #499, .F. ) ;
#443 = AXIS2_PLACEMENT_3D ( 'NONE', #534, #221, #236 ) ;
#444 = CARTESIAN_POINT ( 'NONE',  ( 36.55634918610438433, 10.44365081389606686, 0.000000000000000000 ) ) ;
#445 = PLANE ( 'NONE',  #469 ) ;
#446 = DIRECTION ( 'NONE',  ( 0.000000000000000000, 0.000000000000000000, 1.000000000000000000 ) ) ;
#447 = ORIENTED_EDGE ( 'NONE', *, *, #774, .T. ) ;
#448 = EDGE_CURVE ( 'NONE', #667, #858, #310, .T. ) ;
#449 = ORIENTED_EDGE ( 'NONE', *, *, #863, .F. ) ;
#450 = FACE_OUTER_BOUND ( 'NONE', #825, .T. ) ;
#451 = FACE_OUTER_BOUND ( 'NONE', #978, .T. ) ;
#452 = LINE ( 'NONE', #159, #133 ) ;
#453 = EDGE_LOOP ( 'NONE', ( #324, #898, #397, #525 ) ) ;
#454 = DIRECTION ( 'NONE',  ( -0.000000000000000000, -0.000000000000000000, -1.000000000000000000 ) ) ;
#455 = FACE_OUTER_BOUND ( 'NONE', #701, .T. ) ;
#456 = CARTESIAN_POINT ( 'NONE',  ( 16.00000000000000000, 0.000000000000000000, -41.53995417325128869 ) ) ;
#457 = CIRCLE ( 'NONE', #21, 1.599999999999998090 ) ;
#458 = VECTOR ( 'NONE', #694, 1000.000000000000000 ) ;
#459 = DIRECTION ( 'NONE',  ( -1.000000000000000000, 0.000000000000000000, 0.000000000000000000 ) ) ;
#460 = DIRECTION ( 'NONE',  ( 0.000000000000000000, 0.000000000000000000, 1.000000000000000000 ) ) ;
#461 = LINE ( 'NONE', #833, #458 ) ;
#462 = EDGE_CURVE ( 'NONE', #731, #761, #790, .T. ) ;
#463 = DIRECTION ( 'NONE',  ( 1.000000000000000000, 0.000000000000000000, 0.000000000000000000 ) ) ;
#464 = CARTESIAN_POINT ( 'NONE',  ( -3.000000000000000000, -4.000000000000000000, 5.000000000000000000 ) ) ;
#465 = DIRECTION ( 'NONE',  ( 0.000000000000000000, 1.000000000000000000, 0.000000000000000000 ) ) ;
#466 = EDGE_LOOP ( 'NONE', ( #687, #487, #732, #881 ) ) ;
#467 = DIRECTION ( 'NONE',  ( -1.000000000000000000, 0.000000000000000000, -0.000000000000000000 ) ) ;
#468 = ORIENTED_EDGE ( 'NONE', *, *, #839, .F. ) ;
#469 = AXIS2_PLACEMENT_3D ( 'NONE', #821, #982, #902 ) ;
#470 = CIRCLE ( 'NONE', #616, 11.50000000000000355 ) ;
#471 = PLANE ( 'NONE',  #520 ) ;
#472 = CARTESIAN_POINT ( 'NONE',  ( 36.55634918610438433, 10.44365081389606686, 5.000000000000000000 ) ) ;
#473 = VECTOR ( 'NONE', #891, 1000.000000000000000 ) ;
#474 = PRODUCT_CONTEXT ( 'NONE', #813, 'mechanical' ) ;
#475 = DIRECTION ( 'NONE',  ( 0.000000000000000000, -1.000000000000000000, 0.000000000000000000 ) ) ;
#476 = ORIENTED_EDGE ( 'NONE', *, *, #762, .T. ) ;
#477 = CYLINDRICAL_SURFACE ( 'NONE', #823, 1.599999999999998090 ) ;
#478 = DIRECTION ( 'NONE',  ( -0.000000000000000000, -0.000000000000000000, -1.000000000000000000 ) ) ;
#479 = FILL_AREA_STYLE_COLOUR ( '', #841 ) ;
#480 = EDGE_LOOP ( 'NONE', ( #178, #104, #706, #875 ) ) ;
#481 = EDGE_CURVE ( 'NONE', #341, #942, #832, .T. ) ;
#482 = CARTESIAN_POINT ( 'NONE',  ( 0.000000000000000000, 0.000000000000000000, 5.000000000000000000 ) ) ;
#483 = CARTESIAN_POINT ( 'NONE',  ( 34.95634918610414843, 41.55634918610414985, 5.000000000000000000 ) ) ;
#484 = EDGE_CURVE ( 'NONE', #210, #54, #361, .T. ) ;
#485 = DIRECTION ( 'NONE',  ( -0.000000000000000000, 1.000000000000000000, -0.000000000000000000 ) ) ;
#486 = EDGE_CURVE ( 'NONE', #575, #245, #634, .T. ) ;
#487 = ORIENTED_EDGE ( 'NONE', *, *, #281, .T. ) ;
#488 = LINE ( 'NONE', #973, #473 ) ;
#489 = VECTOR ( 'NONE', #197, 1000.000000000000114 ) ;
#490 = CARTESIAN_POINT ( 'NONE',  ( 5.443650813895954066, 41.55634918610404327, 0.000000000000000000 ) ) ;
#491 = FACE_OUTER_BOUND ( 'NONE', #797, .T. ) ;
#492 = EDGE_LOOP ( 'NONE', ( #729, #934, #873, #652 ) ) ;
#493 = CARTESIAN_POINT ( 'NONE',  ( 16.00000000000000000, -10.00000000000000000, -9.539954173251274483 ) ) ;
#494 = LINE ( 'NONE', #399, #822 ) ;
#495 = CARTESIAN_POINT ( 'NONE',  ( 0.000000000000000000, 0.000000000000000000, 0.000000000000000000 ) ) ;
#496 = ORIENTED_EDGE ( 'NONE', *, *, #879, .F. ) ;
#497 = CARTESIAN_POINT ( 'NONE',  ( 5.443650813896291574, 10.44365081389584127, 5.000000000000000000 ) ) ;
#498 = ORIENTED_EDGE ( 'NONE', *, *, #943, .T. ) ;
#499 = EDGE_CURVE ( 'NONE', #845, #270, #566, .T. ) ;
#500 = ORIENTED_EDGE ( 'NONE', *, *, #759, .F. ) ;
#501 = ORIENTED_EDGE ( 'NONE', *, *, #946, .F. ) ;
#502 = DIRECTION ( 'NONE',  ( 0.000000000000000000, 0.000000000000000000, 1.000000000000000000 ) ) ;
#503 = AXIS2_PLACEMENT_3D ( 'NONE', #691, #6, #83 ) ;
#504 = VERTEX_POINT ( 'NONE', #174 ) ;
#505 = EDGE_CURVE ( 'NONE', #810, #966, #321, .T. ) ;
#506 = EDGE_LOOP ( 'NONE', ( #558, #948 ) ) ;
#507 = LINE ( 'NONE', #49, #489 ) ;
#508 = VERTEX_POINT ( 'NONE', #76 ) ;
#509 = EDGE_CURVE ( 'NONE', #97, #504, #392, .T. ) ;
#510 = DIRECTION ( 'NONE',  ( -1.000000000000000000, 0.000000000000000000, -0.000000000000000000 ) ) ;
#511 = CARTESIAN_POINT ( 'NONE',  ( 34.95634918610439001, 10.44365081389606686, 0.000000000000000000 ) ) ;
#512 = DIRECTION ( 'NONE',  ( -1.000000000000000000, 0.000000000000000000, -0.000000000000000000 ) ) ;
#513 = ORIENTED_EDGE ( 'NONE', *, *, #302, .T. ) ;
#514 = DIRECTION ( 'NONE',  ( 0.000000000000000000, 0.000000000000000000, -1.000000000000000000 ) ) ;
#515 = DIRECTION ( 'NONE',  ( -0.000000000000000000, 0.000000000000000000, -1.000000000000000000 ) ) ;
#516 = EDGE_CURVE ( 'NONE', #288, #189, #850, .T. ) ;
#517 = AXIS2_PLACEMENT_3D ( 'NONE', #924, #85, #166 ) ;
#518 = DIRECTION ( 'NONE',  ( -1.000000000000000000, -1.652117596168388002E-16, -0.000000000000000000 ) ) ;
#519 = ORIENTED_EDGE ( 'NONE', *, *, #893, .F. ) ;
#520 = AXIS2_PLACEMENT_3D ( 'NONE', #15, #349, #109 ) ;
#521 = VERTEX_POINT ( 'NONE', #928 ) ;
#522 = FACE_OUTER_BOUND ( 'NONE', #590, .T. ) ;
#523 = DIRECTION ( 'NONE',  ( 1.000000000000000000, 0.000000000000000000, 0.000000000000000000 ) ) ;
#524 = CARTESIAN_POINT ( 'NONE',  ( 5.443650813896291574, 10.44365081389584127, 5.000000000000000000 ) ) ;
#525 = ORIENTED_EDGE ( 'NONE', *, *, #354, .F. ) ;
#526 = ADVANCED_FACE ( 'NONE', ( #19, #383, #3, #846, #251, #161 ), #398, .F. ) ;
#527 = VERTEX_POINT ( 'NONE', #546 ) ;
#528 = CARTESIAN_POINT ( 'NONE',  ( 36.55634918610414985, 41.55634918610414985, 5.000000000000000000 ) ) ;
#529 = CARTESIAN_POINT ( 'NONE',  ( 0.000000000000000000, -4.000000000000000000, 0.000000000000000000 ) ) ;
#530 = ADVANCED_FACE ( 'NONE', ( #843 ), #555, .F. ) ;
#531 = CARTESIAN_POINT ( 'NONE',  ( 36.55634918610438433, 10.44365081389606686, 0.000000000000000000 ) ) ;
#532 = VERTEX_POINT ( 'NONE', #612 ) ;
#533 = DIRECTION ( 'NONE',  ( 1.000000000000000000, 0.000000000000000000, 0.000000000000000000 ) ) ;
#534 = CARTESIAN_POINT ( 'NONE',  ( 36.55634918610438433, 10.44365081389606686, 5.000000000000000000 ) ) ;
#535 = AXIS2_PLACEMENT_3D ( 'NONE', #180, #639, #776 ) ;
#536 = ORIENTED_EDGE ( 'NONE', *, *, #499, .T. ) ;
#537 = AXIS2_PLACEMENT_3D ( 'NONE', #74, #744, #385 ) ;
#538 = MECHANICAL_DESIGN_GEOMETRIC_PRESENTATION_REPRESENTATION (  '', ( #885 ), #936 ) ;
#539 = CARTESIAN_POINT ( 'NONE',  ( 42.00000000000000000, -4.000000000000000000, 5.000000000000000000 ) ) ;
#540 = DIRECTION ( 'NONE',  ( 1.000000000000000000, 0.000000000000000000, 0.000000000000000000 ) ) ;
#541 = CYLINDRICAL_SURFACE ( 'NONE', #9, 3.000000000000009770 ) ;
#542 = ORIENTED_EDGE ( 'NONE', *, *, #428, .T. ) ;
#543 = DIRECTION ( 'NONE',  ( -1.000000000000000000, 0.000000000000000000, 0.000000000000000000 ) ) ;
#544 = CYLINDRICAL_SURFACE ( 'NONE', #649, 1.599999999999997202 ) ;
#545 = ORIENTED_EDGE ( 'NONE', *, *, #156, .T. ) ;
#546 = CARTESIAN_POINT ( 'NONE',  ( 7.043650813896290330, 10.44365081389584127, 5.000000000000000000 ) ) ;
#547 = CARTESIAN_POINT ( 'NONE',  ( 34.95634918610414843, 41.55634918610414985, 0.000000000000000000 ) ) ;
#548 = DIRECTION ( 'NONE',  ( 0.000000000000000000, 0.000000000000000000, -1.000000000000000000 ) ) ;
#549 = EDGE_LOOP ( 'NONE', ( #985, #984, #265, #909 ) ) ;
#550 = VECTOR ( 'NONE', #358, 1000.000000000000000 ) ;
#551 = CARTESIAN_POINT ( 'NONE',  ( 16.00000000000000000, -10.00000000000000000, -35.53995417325127448 ) ) ;
#552 = DIRECTION ( 'NONE',  ( 0.000000000000000000, 0.000000000000000000, 1.000000000000000000 ) ) ;
#553 = CIRCLE ( 'NONE', #234, 1.599999999999997202 ) ;
#554 = VERTEX_POINT ( 'NONE', #246 ) ;
#555 = PLANE ( 'NONE',  #853 ) ;
#556 = DIRECTION ( 'NONE',  ( -1.000000000000000000, -0.000000000000000000, 0.000000000000000000 ) ) ;
#557 = LINE ( 'NONE', #561, #25 ) ;
#558 = ORIENTED_EDGE ( 'NONE', *, *, #569, .F. ) ;
#559 = DIRECTION ( 'NONE',  ( -0.000000000000000000, -0.000000000000000000, -1.000000000000000000 ) ) ;
#560 = CARTESIAN_POINT ( 'NONE',  ( 26.00000000000000355, -4.000000000000000000, -38.53995417325128159 ) ) ;
#561 = CARTESIAN_POINT ( 'NONE',  ( 45.00000000000000711, 47.00000000000000711, 1.460045826748711306 ) ) ;
#562 = EDGE_CURVE ( 'NONE', #811, #504, #402, .T. ) ;
#563 = ORIENTED_EDGE ( 'NONE', *, *, #972, .F. ) ;
#564 = DIRECTION ( 'NONE',  ( 0.000000000000000000, 0.000000000000000000, 1.000000000000000000 ) ) ;
#565 = CYLINDRICAL_SURFACE ( 'NONE', #807, 1.599999999999998090 ) ;
#566 = CIRCLE ( 'NONE', #695, 3.000000000000009770 ) ;
#567 = VECTOR ( 'NONE', #465, 1000.000000000000000 ) ;
#568 = ORIENTED_EDGE ( 'NONE', *, *, #704, .T. ) ;
#569 = EDGE_CURVE ( 'NONE', #976, #527, #411, .T. ) ;
#570 = CARTESIAN_POINT ( 'NONE',  ( 3.843650813896293705, 10.44365081389584127, 0.000000000000000000 ) ) ;
#571 = ORIENTED_EDGE ( 'NONE', *, *, #335, .F. ) ;
#572 = ORIENTED_EDGE ( 'NONE', *, *, #448, .F. ) ;
#573 = ORIENTED_EDGE ( 'NONE', *, *, #484, .T. ) ;
#574 = CARTESIAN_POINT ( 'NONE',  ( 16.00000000000000000, 0.000000000000000000, -41.53995417325128869 ) ) ;
#575 = VERTEX_POINT ( 'NONE', #699 ) ;
#576 = ORIENTED_EDGE ( 'NONE', *, *, #615, .F. ) ;
#577 = AXIS2_PLACEMENT_3D ( 'NONE', #285, #742, #585 ) ;
#578 = CARTESIAN_POINT ( 'NONE',  ( 38.15634918610437865, 10.44365081389606686, 5.000000000000000000 ) ) ;
#579 = AXIS2_PLACEMENT_3D ( 'NONE', #490, #344, #938 ) ;
#580 = AXIS2_PLACEMENT_3D ( 'NONE', #423, #723, #949 ) ;
#581 = EDGE_CURVE ( 'NONE', #355, #353, #90, .T. ) ;
#582 = EDGE_LOOP ( 'NONE', ( #671, #952, #351, #114 ) ) ;
#583 = EDGE_CURVE ( 'NONE', #405, #508, #79, .T. ) ;
#584 = LINE ( 'NONE', #139, #116 ) ;
#585 = DIRECTION ( 'NONE',  ( -1.000000000000000000, 0.000000000000000000, 0.000000000000000000 ) ) ;
#586 = EDGE_CURVE ( 'NONE', #353, #405, #856, .T. ) ;
#587 = DIRECTION ( 'NONE',  ( 1.000000000000000000, 0.000000000000000000, 0.000000000000000000 ) ) ;
#588 = ORIENTED_EDGE ( 'NONE', *, *, #424, .T. ) ;
#589 = DIRECTION ( 'NONE',  ( 1.652117596168388002E-16, -1.000000000000000000, 0.000000000000000000 ) ) ;
#590 = EDGE_LOOP ( 'NONE', ( #138, #125, #519, #563 ) ) ;
#591 = CARTESIAN_POINT ( 'NONE',  ( 0.000000000000000000, -4.000000000000000000, -9.539954173251274483 ) ) ;
#592 = ORIENTED_EDGE ( 'NONE', *, *, #707, .F. ) ;
#593 = ORIENTED_EDGE ( 'NONE', *, *, #509, .F. ) ;
#594 = CARTESIAN_POINT ( 'NONE',  ( 42.00000000000000000, 0.000000000000000000, -50.00000000000000000 ) ) ;
#595 = EDGE_LOOP ( 'NONE', ( #854, #631, #899, #697 ) ) ;
#596 = AXIS2_PLACEMENT_3D ( 'NONE', #80, #768, #151 ) ;
#597 = EDGE_CURVE ( 'NONE', #189, #654, #763, .T. ) ;
#598 = AXIS2_PLACEMENT_3D ( 'NONE', #981, #289, #975 ) ;
#599 = CARTESIAN_POINT ( 'NONE',  ( 26.00000000000000355, -10.00000000000000000, -41.53995417325128869 ) ) ;
#600 = VERTEX_POINT ( 'NONE', #241 ) ;
#601 = CIRCLE ( 'NONE', #363, 1.599999999999998090 ) ;
#602 = ADVANCED_FACE ( 'NONE', ( #693 ), #477, .F. ) ;
#603 = DIRECTION ( 'NONE',  ( 1.000000000000000000, 0.000000000000000000, 0.000000000000000000 ) ) ;
#604 = DIRECTION ( 'NONE',  ( 0.000000000000000000, 0.000000000000000000, 1.000000000000000000 ) ) ;
#605 = FACE_OUTER_BOUND ( 'NONE', #466, .T. ) ;
#606 = ORIENTED_EDGE ( 'NONE', *, *, #302, .F. ) ;
#607 = DIRECTION ( 'NONE',  ( 0.000000000000000000, 0.000000000000000000, 1.000000000000000000 ) ) ;
#608 = CYLINDRICAL_SURFACE ( 'NONE', #596, 11.50000000000000533 ) ;
#609 = ADVANCED_FACE ( 'NONE', ( #94 ), #471, .F. ) ;
#610 = CARTESIAN_POINT ( 'NONE',  ( 38.15634918610437865, 10.44365081389606686, 5.000000000000000000 ) ) ;
#611 = EDGE_LOOP ( 'NONE', ( #542, #283, #11, #772 ) ) ;
#612 = CARTESIAN_POINT ( 'NONE',  ( 7.043650813895952822, 41.55634918610404327, 0.000000000000000000 ) ) ;
#613 =( NAMED_UNIT ( * ) SI_UNIT ( $, .STERADIAN. ) SOLID_ANGLE_UNIT ( ) );
#614 = DIRECTION ( 'NONE',  ( -1.476360405086644063E-16, 1.000000000000000000, 0.000000000000000000 ) ) ;
#615 = EDGE_CURVE ( 'NONE', #355, #508, #897, .T. ) ;
#616 = AXIS2_PLACEMENT_3D ( 'NONE', #301, #460, #158 ) ;
#617 = ORIENTED_EDGE ( 'NONE', *, *, #800, .T. ) ;
#618 = VECTOR ( 'NONE', #619, 1000.000000000000114 ) ;
#619 = DIRECTION ( 'NONE',  ( 0.000000000000000000, -0.6849100087678868798, -0.7286276689020071418 ) ) ;
#620 = CARTESIAN_POINT ( 'NONE',  ( 42.00000000000000000, 0.000000000000000000, 0.000000000000000000 ) ) ;
#621 = AXIS2_PLACEMENT_3D ( 'NONE', #495, #951, #253 ) ;
#622 = LINE ( 'NONE', #686, #698 ) ;
#623 = EDGE_LOOP ( 'NONE', ( #657, #108 ) ) ;
#624 = CARTESIAN_POINT ( 'NONE',  ( -3.000000000000000000, -4.000000000000000000, 5.000000000000000000 ) ) ;
#625 =( NAMED_UNIT ( * ) PLANE_ANGLE_UNIT ( ) SI_UNIT ( $, .RADIAN. ) );
#626 = EDGE_CURVE ( 'NONE', #115, #435, #818, .T. ) ;
#627 = ORIENTED_EDGE ( 'NONE', *, *, #815, .T. ) ;
#628 = DIRECTION ( 'NONE',  ( 0.000000000000000000, 0.000000000000000000, 1.000000000000000000 ) ) ;
#629 = DIRECTION ( 'NONE',  ( -1.000000000000000000, 0.000000000000000000, 0.000000000000000000 ) ) ;
#630 =( NAMED_UNIT ( * ) PLANE_ANGLE_UNIT ( ) SI_UNIT ( $, .RADIAN. ) );
#631 = ORIENTED_EDGE ( 'NONE', *, *, #305, .T. ) ;
#632 = CIRCLE ( 'NONE', #186, 3.000000000000009770 ) ;
#633 = VECTOR ( 'NONE', #914, 1000.000000000000000 ) ;
#634 = LINE ( 'NONE', #7, #8 ) ;
#635 = DIRECTION ( 'NONE',  ( -0.000000000000000000, -0.000000000000000000, 1.000000000000000000 ) ) ;
#636 = AXIS2_PLACEMENT_3D ( 'NONE', #848, #29, #866 ) ;
#637 = ORIENTED_EDGE ( 'NONE', *, *, #800, .F. ) ;
#638 = DIRECTION ( 'NONE',  ( 0.000000000000000000, -1.103914939257968218E-16, -1.000000000000000000 ) ) ;
#639 = DIRECTION ( 'NONE',  ( -0.000000000000000000, -0.000000000000000000, -1.000000000000000000 ) ) ;
#640 = EDGE_CURVE ( 'NONE', #288, #215, #666, .T. ) ;
#641 =( NAMED_UNIT ( * ) PLANE_ANGLE_UNIT ( ) SI_UNIT ( $, .RADIAN. ) );
#642 = VERTEX_POINT ( 'NONE', #977 ) ;
#643 = FACE_OUTER_BOUND ( 'NONE', #192, .T. ) ;
#644 = DIRECTION ( 'NONE',  ( 0.000000000000000000, 0.000000000000000000, 1.000000000000000000 ) ) ;
#645 = CARTESIAN_POINT ( 'NONE',  ( 34.95634918610414843, 41.55634918610414985, 5.000000000000000000 ) ) ;
#646 = ORIENTED_EDGE ( 'NONE', *, *, #229, .T. ) ;
#647 = DIRECTION ( 'NONE',  ( 1.000000000000000000, 0.000000000000000000, 0.000000000000000000 ) ) ;
#648 = CARTESIAN_POINT ( 'NONE',  ( 45.00000000000000711, -4.000000000000000000, -50.00000000000000000 ) ) ;
#649 = AXIS2_PLACEMENT_3D ( 'NONE', #956, #478, #326 ) ;
#650 = AXIS2_PLACEMENT_3D ( 'NONE', #524, #1, #142 ) ;
#651 = ORIENTED_EDGE ( 'NONE', *, *, #181, .T. ) ;
#652 = ORIENTED_EDGE ( 'NONE', *, *, #244, .F. ) ;
#653 = DIRECTION ( 'NONE',  ( -0.000000000000000000, 0.000000000000000000, 1.000000000000000000 ) ) ;
#654 = VERTEX_POINT ( 'NONE', #213 ) ;
#655 = ORIENTED_EDGE ( 'NONE', *, *, #704, .F. ) ;
#656 = ADVANCED_FACE ( 'NONE', ( #343 ), #870, .F. ) ;
#657 = ORIENTED_EDGE ( 'NONE', *, *, #437, .F. ) ;
#658 = ORIENTED_EDGE ( 'NONE', *, *, #980, .F. ) ;
#659 = EDGE_CURVE ( 'NONE', #600, #189, #190, .T. ) ;
#660 = MECHANICAL_DESIGN_GEOMETRIC_PRESENTATION_REPRESENTATION (  '', ( #967 ), #346 ) ;
#661 = EDGE_CURVE ( 'NONE', #226, #288, #488, .T. ) ;
#662 = DIRECTION ( 'NONE',  ( 0.000000000000000000, 0.000000000000000000, 1.000000000000000000 ) ) ;
#663 = DIRECTION ( 'NONE',  ( 1.000000000000000000, 0.000000000000000000, -0.000000000000000000 ) ) ;
#664 = AXIS2_PLACEMENT_3D ( 'NONE', #528, #607, #668 ) ;
#665 = VECTOR ( 'NONE', #926, 1000.000000000000000 ) ;
#666 = LINE ( 'NONE', #338, #277 ) ;
#667 = VERTEX_POINT ( 'NONE', #570 ) ;
#668 = DIRECTION ( 'NONE',  ( 1.000000000000000000, 0.000000000000000000, 0.000000000000000000 ) ) ;
#669 = ORIENTED_EDGE ( 'NONE', *, *, #659, .F. ) ;
#670 = DIRECTION ( 'NONE',  ( 0.000000000000000000, 0.000000000000000000, 1.000000000000000000 ) ) ;
#671 = ORIENTED_EDGE ( 'NONE', *, *, #437, .T. ) ;
#672 = FACE_OUTER_BOUND ( 'NONE', #492, .T. ) ;
#673 = FACE_OUTER_BOUND ( 'NONE', #319, .T. ) ;
#674 = CARTESIAN_POINT ( 'NONE',  ( 42.00000000000000000, 0.000000000000000000, 0.000000000000000000 ) ) ;
#675 = EDGE_LOOP ( 'NONE', ( #831, #568, #779, #273 ) ) ;
#676 = EDGE_CURVE ( 'NONE', #731, #270, #366, .T. ) ;
#677 = EDGE_LOOP ( 'NONE', ( #476, #267, #118, #357 ) ) ;
#678 = FACE_BOUND ( 'NONE', #214, .T. ) ;
#679 = DIRECTION ( 'NONE',  ( 0.000000000000000000, 1.000000000000000000, 0.000000000000000000 ) ) ;
#680 = AXIS2_PLACEMENT_3D ( 'NONE', #709, #339, #950 ) ;
#681 = CARTESIAN_POINT ( 'NONE',  ( 16.00000000000000000, 0.000000000000000000, -9.539954173251274483 ) ) ;
#682 = VECTOR ( 'NONE', #183, 1000.000000000000000 ) ;
#683 = VERTEX_POINT ( 'NONE', #420 ) ;
#684 = DIRECTION ( 'NONE',  ( 1.000000000000000000, 0.000000000000000000, 0.000000000000000000 ) ) ;
#685 =( LENGTH_UNIT ( ) NAMED_UNIT ( * ) SI_UNIT ( .MILLI., .METRE. ) );
#686 = CARTESIAN_POINT ( 'NONE',  ( 0.000000000000000000, 47.00000000000000000, 5.000000000000000000 ) ) ;
#687 = ORIENTED_EDGE ( 'NONE', *, *, #980, .T. ) ;
#688 = DIRECTION ( 'NONE',  ( -0.000000000000000000, -0.000000000000000000, -1.000000000000000000 ) ) ;
#689 = DIRECTION ( 'NONE',  ( -0.000000000000000000, 1.000000000000000000, -0.000000000000000000 ) ) ;
#690 = ADVANCED_FACE ( 'NONE', ( #643 ), #98, .F. ) ;
#691 = CARTESIAN_POINT ( 'NONE',  ( 21.00000000000000355, 26.00000000000000000, 5.000000000000000000 ) ) ;
#692 = ORIENTED_EDGE ( 'NONE', *, *, #428, .F. ) ;
#693 = FACE_OUTER_BOUND ( 'NONE', #582, .T. ) ;
#694 = DIRECTION ( 'NONE',  ( -1.000000000000000000, 0.000000000000000000, 0.000000000000000000 ) ) ;
#695 = AXIS2_PLACEMENT_3D ( 'NONE', #708, #311, #628 ) ;
#696 = EDGE_CURVE ( 'NONE', #527, #976, #601, .T. ) ;
#697 = ORIENTED_EDGE ( 'NONE', *, *, #486, .F. ) ;
#698 = VECTOR ( 'NONE', #518, 1000.000000000000000 ) ;
#699 = CARTESIAN_POINT ( 'NONE',  ( 9.500000000000000000, 26.00000000000000000, 5.000000000000000000 ) ) ;
#700 = DIRECTION ( 'NONE',  ( 0.000000000000000000, -1.000000000000000000, 0.000000000000000000 ) ) ;
#701 = EDGE_LOOP ( 'NONE', ( #877, #165, #536, #789 ) ) ;
#702 = DIRECTION ( 'NONE',  ( 0.000000000000000000, 0.6849100087678868798, 0.7286276689020071418 ) ) ;
#703 = CARTESIAN_POINT ( 'NONE',  ( 7.043650813896290330, 10.44365081389584127, 5.000000000000000000 ) ) ;
#704 = EDGE_CURVE ( 'NONE', #47, #34, #329, .T. ) ;
#705 = DIRECTION ( 'NONE',  ( 0.000000000000000000, 0.000000000000000000, 1.000000000000000000 ) ) ;
#706 = ORIENTED_EDGE ( 'NONE', *, *, #382, .F. ) ;
#707 = EDGE_CURVE ( 'NONE', #299, #845, #441, .T. ) ;
#708 = CARTESIAN_POINT ( 'NONE',  ( 16.00000000000000000, 0.000000000000000000, -12.53995417325128336 ) ) ;
#709 = CARTESIAN_POINT ( 'NONE',  ( 26.00000000000000355, -10.00000000000000000, -38.53995417325128159 ) ) ;
#710 = CARTESIAN_POINT ( 'NONE',  ( 26.00000000000000355, -4.000000000000000000, -41.53995417325128869 ) ) ;
#711 = ORIENTED_EDGE ( 'NONE', *, *, #88, .T. ) ;
#712 = AXIS2_PLACEMENT_3D ( 'NONE', #374, #679, #987 ) ;
#713 = DIRECTION ( 'NONE',  ( 0.000000000000000000, 0.000000000000000000, 1.000000000000000000 ) ) ;
#714 = LINE ( 'NONE', #851, #69 ) ;
#715 = ORIENTED_EDGE ( 'NONE', *, *, #756, .F. ) ;
#716 = CARTESIAN_POINT ( 'NONE',  ( -3.000000000000000000, -4.000000000000000000, -50.00000000000000000 ) ) ;
#717 = DIRECTION ( 'NONE',  ( 0.000000000000000000, 0.000000000000000000, -1.000000000000000000 ) ) ;
#718 = PRODUCT_RELATED_PRODUCT_CATEGORY ( 'part', '', ( #781 ) ) ;
#719 = ORIENTED_EDGE ( 'NONE', *, *, #516, .T. ) ;
#720 = DIRECTION ( 'NONE',  ( 1.000000000000000000, 0.000000000000000000, 0.000000000000000000 ) ) ;
#721 = DIRECTION ( 'NONE',  ( -0.000000000000000000, -0.000000000000000000, -1.000000000000000000 ) ) ;
#722 = ORIENTED_EDGE ( 'NONE', *, *, #48, .T. ) ;
#723 = DIRECTION ( 'NONE',  ( 0.000000000000000000, 0.000000000000000000, 1.000000000000000000 ) ) ;
#724 = EDGE_LOOP ( 'NONE', ( #120, #18, #237, #419 ) ) ;
#725 = VECTOR ( 'NONE', #454, 1000.000000000000000 ) ;
#726 = VECTOR ( 'NONE', #416, 1000.000000000000000 ) ;
#727 = CARTESIAN_POINT ( 'NONE',  ( 38.15634918610437865, 10.44365081389606686, 0.000000000000000000 ) ) ;
#728 = ORIENTED_EDGE ( 'NONE', *, *, #965, .T. ) ;
#729 = ORIENTED_EDGE ( 'NONE', *, *, #743, .F. ) ;
#730 = DIRECTION ( 'NONE',  ( 0.000000000000000000, 0.6849100087678868798, 0.7286276689020071418 ) ) ;
#731 = VERTEX_POINT ( 'NONE', #31 ) ;
#732 = ORIENTED_EDGE ( 'NONE', *, *, #509, .T. ) ;
#733 = ORIENTED_EDGE ( 'NONE', *, *, #756, .T. ) ;
#734 = EDGE_CURVE ( 'NONE', #367, #362, #313, .T. ) ;
#735 = DIRECTION ( 'NONE',  ( 0.000000000000000000, -1.000000000000000000, -0.000000000000000000 ) ) ;
#736 = DIRECTION ( 'NONE',  ( 0.000000000000000000, 0.000000000000000000, -1.000000000000000000 ) ) ;
#737 = VECTOR ( 'NONE', #16, 1000.000000000000000 ) ;
#738 = AXIS2_PLACEMENT_3D ( 'NONE', #112, #106, #512 ) ;
#739 = CARTESIAN_POINT ( 'NONE',  ( 36.55634918610414985, 41.55634918610414985, 5.000000000000000000 ) ) ;
#740 = EDGE_LOOP ( 'NONE', ( #746, #588, #498, #58 ) ) ;
#741 = DIRECTION ( 'NONE',  ( 1.000000000000000000, 0.000000000000000000, 0.000000000000000000 ) ) ;
#742 = DIRECTION ( 'NONE',  ( -0.000000000000000000, -0.000000000000000000, -1.000000000000000000 ) ) ;
#743 = EDGE_CURVE ( 'NONE', #75, #532, #257, .T. ) ;
#744 = DIRECTION ( 'NONE',  ( 0.000000000000000000, 0.000000000000000000, -1.000000000000000000 ) ) ;
#745 = ORIENTED_EDGE ( 'NONE', *, *, #597, .T. ) ;
#746 = ORIENTED_EDGE ( 'NONE', *, *, #261, .F. ) ;
#747 = CARTESIAN_POINT ( 'NONE',  ( 5.443650813896291574, 10.44365081389584127, 0.000000000000000000 ) ) ;
#748 = FACE_BOUND ( 'NONE', #724, .T. ) ;
#749 = LINE ( 'NONE', #456, #217 ) ;
#750 = CARTESIAN_POINT ( 'NONE',  ( 36.55634918610414985, 41.55634918610414985, 0.000000000000000000 ) ) ;
#751 = DIRECTION ( 'NONE',  ( 0.000000000000000000, -0.000000000000000000, -1.000000000000000000 ) ) ;
#752 = VECTOR ( 'NONE', #175, 1000.000000000000000 ) ;
#753 = VECTOR ( 'NONE', #564, 1000.000000000000000 ) ;
#754 = FACE_OUTER_BOUND ( 'NONE', #304, .T. ) ;
#755 = AXIS2_PLACEMENT_3D ( 'NONE', #282, #670, #587 ) ;
#756 = EDGE_CURVE ( 'NONE', #554, #575, #170, .T. ) ;
#757 = CARTESIAN_POINT ( 'NONE',  ( 0.000000000000000000, 0.000000000000000000, -48.53995417325128159 ) ) ;
#758 = DIRECTION ( 'NONE',  ( -0.000000000000000000, -1.000000000000000000, -0.000000000000000000 ) ) ;
#759 = EDGE_CURVE ( 'NONE', #521, #367, #286, .T. ) ;
#760 = LINE ( 'NONE', #681, #916 ) ;
#761 = VERTEX_POINT ( 'NONE', #55 ) ;
#762 = EDGE_CURVE ( 'NONE', #272, #731, #864, .T. ) ;
#763 = LINE ( 'NONE', #624, #935 ) ;
#764 = CARTESIAN_POINT ( 'NONE',  ( -3.000000000000000000, 47.00000000000000000, 1.460045826748704201 ) ) ;
#765 = PLANE ( 'NONE',  #537 ) ;
#766 = EDGE_LOOP ( 'NONE', ( #290, #627 ) ) ;
#767 = CARTESIAN_POINT ( 'NONE',  ( 42.00000000000000000, 0.000000000000000000, -48.53995417325128159 ) ) ;
#768 = DIRECTION ( 'NONE',  ( -0.000000000000000000, -0.000000000000000000, -1.000000000000000000 ) ) ;
#769 = AXIS2_PLACEMENT_3D ( 'NONE', #43, #653, #812 ) ;
#770 = SURFACE_STYLE_USAGE ( .BOTH. , #318 ) ;
#771 = AXIS2_PLACEMENT_3D ( 'NONE', #993, #589, #906 ) ;
#772 = ORIENTED_EDGE ( 'NONE', *, *, #943, .F. ) ;
#773 = VECTOR ( 'NONE', #614, 1000.000000000000000 ) ;
#774 = EDGE_CURVE ( 'NONE', #245, #849, #52, .T. ) ;
#775 = DIRECTION ( 'NONE',  ( 1.000000000000000000, 0.000000000000000000, 0.000000000000000000 ) ) ;
#776 = DIRECTION ( 'NONE',  ( -1.000000000000000000, 0.000000000000000000, 0.000000000000000000 ) ) ;
#777 = ADVANCED_FACE ( 'NONE', ( #209 ), #824, .F. ) ;
#778 = LINE ( 'NONE', #645, #665 ) ;
#779 = ORIENTED_EDGE ( 'NONE', *, *, #354, .T. ) ;
#780 = DIRECTION ( 'NONE',  ( -0.000000000000000000, -0.000000000000000000, -1.000000000000000000 ) ) ;
#781 = PRODUCT ( 'equerre  x', 'equerre  x', '', ( #474 ) ) ;
#782 = CARTESIAN_POINT ( 'NONE',  ( 32.50000000000000711, 26.00000000000000000, 5.000000000000000000 ) ) ;
#783 = SURFACE_STYLE_FILL_AREA ( #340 ) ;
#784 = ORIENTED_EDGE ( 'NONE', *, *, #661, .T. ) ;
#785 = EDGE_CURVE ( 'NONE', #270, #204, #760, .T. ) ;
#786 = CARTESIAN_POINT ( 'NONE',  ( 26.00000000000000355, 0.000000000000000000, -38.53995417325128159 ) ) ;
#787 = CARTESIAN_POINT ( 'NONE',  ( 45.00000000000000711, -3.999999999999994227, 5.000000000000000000 ) ) ;
#788 = AXIS2_PLACEMENT_3D ( 'NONE', #828, #689, #604 ) ;
#789 = ORIENTED_EDGE ( 'NONE', *, *, #676, .F. ) ;
#790 = CIRCLE ( 'NONE', #169, 3.000000000000009770 ) ;
#791 = VECTOR ( 'NONE', #559, 1000.000000000000000 ) ;
#792 = DIRECTION ( 'NONE',  ( -0.000000000000000000, -0.000000000000000000, -1.000000000000000000 ) ) ;
#793 = LINE ( 'NONE', #703, #737 ) ;
#794 = ADVANCED_FACE ( 'NONE', ( #605 ), #541, .F. ) ;
#795 = EDGE_CURVE ( 'NONE', #47, #24, #298, .T. ) ;
#796 = CARTESIAN_POINT ( 'NONE',  ( 42.00000000000000000, 0.000000000000000000, 0.000000000000000000 ) ) ;
#797 = EDGE_LOOP ( 'NONE', ( #722, #350, #545, #422 ) ) ;
#798 = DIRECTION ( 'NONE',  ( -0.000000000000000000, 1.000000000000000000, -0.000000000000000000 ) ) ;
#799 = DIRECTION ( 'NONE',  ( -0.000000000000000000, -0.000000000000000000, -1.000000000000000000 ) ) ;
#800 = EDGE_CURVE ( 'NONE', #362, #97, #749, .T. ) ;
#801 = ORIENTED_EDGE ( 'NONE', *, *, #734, .T. ) ;
#802 = DIRECTION ( 'NONE',  ( -1.000000000000000000, 0.000000000000000000, 0.000000000000000000 ) ) ;
#803 = ORIENTED_EDGE ( 'NONE', *, *, #176, .T. ) ;
#804 = ORIENTED_EDGE ( 'NONE', *, *, #37, .T. ) ;
#805 = CIRCLE ( 'NONE', #345, 3.000000000000009770 ) ;
#806 = EDGE_LOOP ( 'NONE', ( #496, #715 ) ) ;
#807 = AXIS2_PLACEMENT_3D ( 'NONE', #421, #721, #629 ) ;
#808 = AXIS2_PLACEMENT_3D ( 'NONE', #874, #333, #720 ) ;
#809 = LINE ( 'NONE', #91, #216 ) ;
#810 = VERTEX_POINT ( 'NONE', #911 ) ;
#811 = VERTEX_POINT ( 'NONE', #908 ) ;
#812 = DIRECTION ( 'NONE',  ( 1.000000000000000000, 0.000000000000000000, 0.000000000000000000 ) ) ;
#813 = APPLICATION_CONTEXT ( 'automotive_design' ) ;
#814 = ORIENTED_EDGE ( 'NONE', *, *, #121, .T. ) ;
#815 = EDGE_CURVE ( 'NONE', #24, #44, #969, .T. ) ;
#816 = DIRECTION ( 'NONE',  ( 0.000000000000000000, 0.000000000000000000, -1.000000000000000000 ) ) ;
#817 = EDGE_LOOP ( 'NONE', ( #784, #143, #878, #401, #130 ) ) ;
#818 = LINE ( 'NONE', #193, #682 ) ;
#819 = ORIENTED_EDGE ( 'NONE', *, *, #583, .F. ) ;
#820 = CARTESIAN_POINT ( 'NONE',  ( 45.00000000000000711, 47.00000000000000711, 1.460045826748711306 ) ) ;
#821 = CARTESIAN_POINT ( 'NONE',  ( 45.00000000000000711, 0.000000000000000000, 0.000000000000000000 ) ) ;
#822 = VECTOR ( 'NONE', #799, 1000.000000000000000 ) ;
#823 = AXIS2_PLACEMENT_3D ( 'NONE', #920, #780, #543 ) ;
#824 = CYLINDRICAL_SURFACE ( 'NONE', #443, 1.599999999999997202 ) ;
#825 = EDGE_LOOP ( 'NONE', ( #2, #39, #250, #571 ) ) ;
#826 = UNCERTAINTY_MEASURE_WITH_UNIT (LENGTH_MEASURE( 1.000000000000000082E-05 ), #685, 'distance_accuracy_value', 'NONE');
#827 = DIRECTION ( 'NONE',  ( 0.000000000000000000, 0.000000000000000000, 1.000000000000000000 ) ) ;
#828 = CARTESIAN_POINT ( 'NONE',  ( 16.00000000000000000, -10.00000000000000000, -12.53995417325128336 ) ) ;
#829 = CARTESIAN_POINT ( 'NONE',  ( 0.000000000000000000, 0.000000000000000000, 0.000000000000000000 ) ) ;
#830 = ORIENTED_EDGE ( 'NONE', *, *, #852, .T. ) ;
#831 = ORIENTED_EDGE ( 'NONE', *, *, #795, .F. ) ;
#832 = LINE ( 'NONE', #145, #725 ) ;
#833 = CARTESIAN_POINT ( 'NONE',  ( 0.000000000000000000, -4.000000000000000000, -35.53995417325127448 ) ) ;
#834 = CARTESIAN_POINT ( 'NONE',  ( 42.00000000000000000, 0.000000000000000000, -48.53995417325128159 ) ) ;
#835 = LINE ( 'NONE', #71, #199 ) ;
#836 = EDGE_CURVE ( 'NONE', #215, #196, #225, .T. ) ;
#837 = CIRCLE ( 'NONE', #664, 1.599999999999997202 ) ;
#838 = AXIS2_PLACEMENT_3D ( 'NONE', #786, #406, #713 ) ;
#839 = EDGE_CURVE ( 'NONE', #215, #600, #452, .T. ) ;
#840 = DIRECTION ( 'NONE',  ( -0.000000000000000000, 1.000000000000000000, -0.000000000000000000 ) ) ;
#841 = COLOUR_RGB ( '',0.7921568627450980005, 0.8196078431372548767, 0.9333333333333333481 ) ;
#842 = EDGE_LOOP ( 'NONE', ( #292, #332, #513, #160 ) ) ;
#843 = FACE_OUTER_BOUND ( 'NONE', #480, .T. ) ;
#844 = CARTESIAN_POINT ( 'NONE',  ( 16.00000000000000000, 0.000000000000000000, -15.53995417325129402 ) ) ;
#845 = VERTEX_POINT ( 'NONE', #844 ) ;
#846 = FACE_BOUND ( 'NONE', #433, .T. ) ;
#847 = DIRECTION ( 'NONE',  ( 0.000000000000000000, 0.000000000000000000, 1.000000000000000000 ) ) ;
#848 = CARTESIAN_POINT ( 'NONE',  ( 26.00000000000000355, -10.00000000000000000, -12.53995417325128336 ) ) ;
#849 = VERTEX_POINT ( 'NONE', #78 ) ;
#850 = LINE ( 'NONE', #539, #87 ) ;
#851 = CARTESIAN_POINT ( 'NONE',  ( 0.000000000000000000, 0.000000000000000000, -50.00000000000000000 ) ) ;
#852 = EDGE_CURVE ( 'NONE', #521, #811, #461, .T. ) ;
#853 = AXIS2_PLACEMENT_3D ( 'NONE', #325, #393, #937 ) ;
#854 = ORIENTED_EDGE ( 'NONE', *, *, #879, .T. ) ;
#855 = VECTOR ( 'NONE', #485, 1000.000000000000000 ) ;
#856 = LINE ( 'NONE', #767, #378 ) ;
#857 = DIRECTION ( 'NONE',  ( -0.000000000000000000, 1.000000000000000000, -0.000000000000000000 ) ) ;
#858 = VERTEX_POINT ( 'NONE', #147 ) ;
#859 = DIRECTION ( 'NONE',  ( 0.000000000000000000, 0.000000000000000000, 1.000000000000000000 ) ) ;
#860 = CARTESIAN_POINT ( 'NONE',  ( 26.00000000000000355, -4.000000000000000000, -9.539954173251274483 ) ) ;
#861 = UNCERTAINTY_MEASURE_WITH_UNIT (LENGTH_MEASURE( 1.000000000000000082E-05 ), #413, 'distance_accuracy_value', 'NONE');
#862 = EDGE_LOOP ( 'NONE', ( #719, #669, #468, #222 ) ) ;
#863 = EDGE_CURVE ( 'NONE', #226, #654, #622, .T. ) ;
#864 = LINE ( 'NONE', #591, #884 ) ;
#865 = DIRECTION ( 'NONE',  ( -0.000000000000000000, -0.000000000000000000, -1.000000000000000000 ) ) ;
#866 = DIRECTION ( 'NONE',  ( 0.000000000000000000, 0.000000000000000000, 1.000000000000000000 ) ) ;
#867 = EDGE_LOOP ( 'NONE', ( #230, #203, #429, #745, #804 ) ) ;
#868 = CIRCLE ( 'NONE', #231, 1.599999999999997202 ) ;
#869 = AXIS2_PLACEMENT_3D ( 'NONE', #739, #792, #802 ) ;
#870 = CYLINDRICAL_SURFACE ( 'NONE', #869, 1.599999999999997202 ) ;
#871 = FACE_OUTER_BOUND ( 'NONE', #675, .T. ) ;
#872 = ADVANCED_FACE ( 'NONE', ( #754 ), #765, .F. ) ;
#873 = ORIENTED_EDGE ( 'NONE', *, *, #481, .T. ) ;
#874 = CARTESIAN_POINT ( 'NONE',  ( 36.55634918610438433, 10.44365081389606686, 5.000000000000000000 ) ) ;
#875 = ORIENTED_EDGE ( 'NONE', *, *, #836, .F. ) ;
#876 = ADVANCED_FACE ( 'NONE', ( #59 ), #922, .F. ) ;
#877 = ORIENTED_EDGE ( 'NONE', *, *, #462, .T. ) ;
#878 = ORIENTED_EDGE ( 'NONE', *, *, #836, .T. ) ;
#879 = EDGE_CURVE ( 'NONE', #575, #554, #395, .T. ) ;
#880 = CARTESIAN_POINT ( 'NONE',  ( 34.95634918610439001, 10.44365081389606686, 5.000000000000000000 ) ) ;
#881 = ORIENTED_EDGE ( 'NONE', *, *, #562, .F. ) ;
#882 = CIRCLE ( 'NONE', #377, 1.599999999999997202 ) ;
#883 = ORIENTED_EDGE ( 'NONE', *, *, #281, .F. ) ;
#884 = VECTOR ( 'NONE', #35, 1000.000000000000000 ) ;
#885 = STYLED_ITEM ( 'NONE', ( #330 ), #327 ) ;
#886 = FACE_OUTER_BOUND ( 'NONE', #372, .T. ) ;
#887 = EDGE_LOOP ( 'NONE', ( #646, #979, #801, #432 ) ) ;
#888 = EDGE_CURVE ( 'NONE', #966, #362, #10, .T. ) ;
#889 = FACE_BOUND ( 'NONE', #269, .T. ) ;
#890 = FACE_OUTER_BOUND ( 'NONE', #923, .T. ) ;
#891 = DIRECTION ( 'NONE',  ( 0.000000000000000000, -1.000000000000000000, 0.000000000000000000 ) ) ;
#892 = ORIENTED_EDGE ( 'NONE', *, *, #581, .F. ) ;
#893 = EDGE_CURVE ( 'NONE', #194, #508, #303, .T. ) ;
#894 = PRODUCT_DEFINITION ( 'UNKNOWN', '', #331, #368 ) ;
#895 = DIRECTION ( 'NONE',  ( 0.000000000000000000, 0.000000000000000000, 1.000000000000000000 ) ) ;
#896 = DIRECTION ( 'NONE',  ( 0.000000000000000000, 0.000000000000000000, -1.000000000000000000 ) ) ;
#897 = LINE ( 'NONE', #262, #188 ) ;
#898 = ORIENTED_EDGE ( 'NONE', *, *, #795, .T. ) ;
#899 = ORIENTED_EDGE ( 'NONE', *, *, #774, .F. ) ;
#900 = CIRCLE ( 'NONE', #930, 1.599999999999998090 ) ;
#901 = CARTESIAN_POINT ( 'NONE',  ( 36.55634918610414985, 41.55634918610414985, 5.000000000000000000 ) ) ;
#902 = DIRECTION ( 'NONE',  ( 0.000000000000000000, 0.000000000000000000, -1.000000000000000000 ) ) ;
#903 = VECTOR ( 'NONE', #17, 1000.000000000000000 ) ;
#904 = DIRECTION ( 'NONE',  ( 1.000000000000000000, 0.000000000000000000, 0.000000000000000000 ) ) ;
#905 = ORIENTED_EDGE ( 'NONE', *, *, #586, .T. ) ;
#906 = DIRECTION ( 'NONE',  ( 1.000000000000000000, 1.652117596168388002E-16, 0.000000000000000000 ) ) ;
#907 = FILL_AREA_STYLE ('',( #4 ) ) ;
#908 = CARTESIAN_POINT ( 'NONE',  ( 16.00000000000000000, -4.000000000000000000, -35.53995417325127448 ) ) ;
#909 = ORIENTED_EDGE ( 'NONE', *, *, #661, .F. ) ;
#910 = CARTESIAN_POINT ( 'NONE',  ( 34.95634918610439001, 10.44365081389606686, 5.000000000000000000 ) ) ;
#911 = CARTESIAN_POINT ( 'NONE',  ( 16.00000000000000000, -4.000000000000000000, -41.53995417325128869 ) ) ;
#912 = EDGE_LOOP ( 'NONE', ( #113, #442, #592, #415 ) ) ;
#913 = CARTESIAN_POINT ( 'NONE',  ( 5.443650813896291574, 10.44365081389584127, 5.000000000000000000 ) ) ;
#914 = DIRECTION ( 'NONE',  ( 1.000000000000000000, 0.000000000000000000, 0.000000000000000000 ) ) ;
#915 = AXIS2_PLACEMENT_3D ( 'NONE', #750, #70, #684 ) ;
#916 = VECTOR ( 'NONE', #228, 1000.000000000000000 ) ;
#917 = ADVANCED_FACE ( 'NONE', ( #918 ), #390, .F. ) ;
#918 = FACE_OUTER_BOUND ( 'NONE', #677, .T. ) ;
#919 = APPLICATION_CONTEXT ( 'automotive_design' ) ;
#920 = CARTESIAN_POINT ( 'NONE',  ( 5.443650813895954066, 41.55634918610404327, 5.000000000000000000 ) ) ;
#921 = CARTESIAN_POINT ( 'NONE',  ( 26.00000000000000355, 0.000000000000000000, -9.539954173251274483 ) ) ;
#922 = CYLINDRICAL_SURFACE ( 'NONE', #650, 1.599999999999998090 ) ;
#923 = EDGE_LOOP ( 'NONE', ( #45, #501, #991, #14 ) ) ;
#924 = CARTESIAN_POINT ( 'NONE',  ( 16.00000000000000000, 0.000000000000000000, -38.53995417325128159 ) ) ;
#925 = CYLINDRICAL_SURFACE ( 'NONE', #788, 3.000000000000009770 ) ;
#926 = DIRECTION ( 'NONE',  ( -0.000000000000000000, -0.000000000000000000, -1.000000000000000000 ) ) ;
#927 = VERTEX_POINT ( 'NONE', #829 ) ;
#928 = CARTESIAN_POINT ( 'NONE',  ( 26.00000000000000355, -4.000000000000000000, -35.53995417325127448 ) ) ;
#929 = CARTESIAN_POINT ( 'NONE',  ( 42.00000000000000000, 0.000000000000000000, -50.00000000000000000 ) ) ;
#930 = AXIS2_PLACEMENT_3D ( 'NONE', #128, #502, #964 ) ;
#931 = AXIS2_PLACEMENT_3D ( 'NONE', #46, #961, #730 ) ;
#932 = LINE ( 'NONE', #96, #295 ) ;
#933 = AXIS2_PLACEMENT_3D ( 'NONE', #207, #816, #510 ) ;
#934 = ORIENTED_EDGE ( 'NONE', *, *, #352, .T. ) ;
#935 = VECTOR ( 'NONE', #386, 1000.000000000000000 ) ;
#936 =( GEOMETRIC_REPRESENTATION_CONTEXT ( 3 ) GLOBAL_UNCERTAINTY_ASSIGNED_CONTEXT ( ( #861 ) ) GLOBAL_UNIT_ASSIGNED_CONTEXT ( ( #413, #641, #13 ) ) REPRESENTATION_CONTEXT ( 'NONE', 'WORKASPACE' ) );
#937 = DIRECTION ( 'NONE',  ( 1.000000000000000000, 0.000000000000000000, -0.000000000000000000 ) ) ;
#938 = DIRECTION ( 'NONE',  ( 1.000000000000000000, 0.000000000000000000, 0.000000000000000000 ) ) ;
#939 = APPLICATION_PROTOCOL_DEFINITION ( 'draft international standard', 'automotive_design', 1998, #919 ) ;
#940 = EDGE_CURVE ( 'NONE', #642, #299, #65, .T. ) ;
#941 = CARTESIAN_POINT ( 'NONE',  ( 26.00000000000000355, -10.00000000000000000, -9.539954173251274483 ) ) ;
#942 = VERTEX_POINT ( 'NONE', #102 ) ;
#943 = EDGE_CURVE ( 'NONE', #276, #210, #778, .T. ) ;
#944 = DIRECTION ( 'NONE',  ( 0.000000000000000000, 0.000000000000000000, 1.000000000000000000 ) ) ;
#945 = PLANE ( 'NONE',  #427 ) ;
#946 = EDGE_CURVE ( 'NONE', #115, #111, #932, .T. ) ;
#947 = CARTESIAN_POINT ( 'NONE',  ( 26.00000000000000355, -10.00000000000000000, -15.53995417325129402 ) ) ;
#948 = ORIENTED_EDGE ( 'NONE', *, *, #696, .F. ) ;
#949 = DIRECTION ( 'NONE',  ( 1.000000000000000000, 0.000000000000000000, 0.000000000000000000 ) ) ;
#950 = DIRECTION ( 'NONE',  ( 0.000000000000000000, 0.000000000000000000, 1.000000000000000000 ) ) ;
#951 = DIRECTION ( 'NONE',  ( 0.000000000000000000, 0.000000000000000000, 1.000000000000000000 ) ) ;
#952 = ORIENTED_EDGE ( 'NONE', *, *, #743, .T. ) ;
#953 = AXIS2_PLACEMENT_3D ( 'NONE', #279, #970, #134 ) ;
#954 = VECTOR ( 'NONE', #798, 1000.000000000000000 ) ;
#955 = DIRECTION ( 'NONE',  ( 1.000000000000000000, 0.000000000000000000, 0.000000000000000000 ) ) ;
#956 = CARTESIAN_POINT ( 'NONE',  ( 36.55634918610414985, 41.55634918610414985, 5.000000000000000000 ) ) ;
#957 = ADVANCED_FACE ( 'NONE', ( #491 ), #243, .F. ) ;
#958 = ORIENTED_EDGE ( 'NONE', *, *, #126, .F. ) ;
#959 = EDGE_CURVE ( 'NONE', #272, #204, #171, .T. ) ;
#960 = ORIENTED_EDGE ( 'NONE', *, *, #173, .T. ) ;
#961 = DIRECTION ( 'NONE',  ( 0.000000000000000000, 0.7286276689020072528, -0.6849100087678869908 ) ) ;
#962 = EDGE_LOOP ( 'NONE', ( #206, #576, #144, #905 ) ) ;
#963 = EDGE_LOOP ( 'NONE', ( #348, #122, #572, #606 ) ) ;
#964 = DIRECTION ( 'NONE',  ( 1.000000000000000000, 0.000000000000000000, 0.000000000000000000 ) ) ;
#965 = EDGE_CURVE ( 'NONE', #54, #210, #553, .T. ) ;
#966 = VERTEX_POINT ( 'NONE', #710 ) ;
#967 = STYLED_ITEM ( 'NONE', ( #994 ), #148 ) ;
#968 = CIRCLE ( 'NONE', #101, 1.599999999999997202 ) ;
#969 = CIRCLE ( 'NONE', #152, 1.599999999999997202 ) ;
#970 = DIRECTION ( 'NONE',  ( 0.000000000000000000, 0.000000000000000000, 1.000000000000000000 ) ) ;
#971 = FACE_OUTER_BOUND ( 'NONE', #817, .T. ) ;
#972 = EDGE_CURVE ( 'NONE', #927, #194, #400, .T. ) ;
#973 = CARTESIAN_POINT ( 'NONE',  ( 45.00000000000000711, 47.00000000000000711, 5.000000000000000000 ) ) ;
#974 = ORIENTED_EDGE ( 'NONE', *, *, #940, .T. ) ;
#975 = DIRECTION ( 'NONE',  ( -1.000000000000000000, 0.000000000000000000, 0.000000000000000000 ) ) ;
#976 = VERTEX_POINT ( 'NONE', #404 ) ;
#977 = CARTESIAN_POINT ( 'NONE',  ( 26.00000000000000355, -4.000000000000000000, -15.53995417325129402 ) ) ;
#978 = EDGE_LOOP ( 'NONE', ( #60, #733, #240, #61 ) ) ;
#979 = ORIENTED_EDGE ( 'NONE', *, *, #759, .T. ) ;
#980 = EDGE_CURVE ( 'NONE', #811, #810, #202, .T. ) ;
#981 = CARTESIAN_POINT ( 'NONE',  ( 5.443650813895954066, 41.55634918610404327, 5.000000000000000000 ) ) ;
#982 = DIRECTION ( 'NONE',  ( 1.000000000000000000, 0.000000000000000000, 0.000000000000000000 ) ) ;
#983 = DIRECTION ( 'NONE',  ( 0.000000000000000000, 0.000000000000000000, 1.000000000000000000 ) ) ;
#984 = ORIENTED_EDGE ( 'NONE', *, *, #597, .F. ) ;
#985 = ORIENTED_EDGE ( 'NONE', *, *, #863, .T. ) ;
#986 = DIRECTION ( 'NONE',  ( 1.000000000000000000, 0.000000000000000000, 0.000000000000000000 ) ) ;
#987 = DIRECTION ( 'NONE',  ( 0.000000000000000000, 0.000000000000000000, 1.000000000000000000 ) ) ;
#988 = CIRCLE ( 'NONE', #953, 1.599999999999998090 ) ;
#989 = VECTOR ( 'NONE', #41, 1000.000000000000000 ) ;
#990 = DIRECTION ( 'NONE',  ( 1.000000000000000000, 0.000000000000000000, 0.000000000000000000 ) ) ;
#991 = ORIENTED_EDGE ( 'NONE', *, *, #626, .T. ) ;
#992 = EDGE_CURVE ( 'NONE', #435, #226, #557, .T. ) ;
#993 = CARTESIAN_POINT ( 'NONE',  ( 0.000000000000000000, 47.00000000000000000, 5.000000000000000000 ) ) ;
#994 = PRESENTATION_STYLE_ASSIGNMENT (( #86 ) ) ;
ENDSEC;
END-ISO-10303-21;
