ISO-10303-21;
HEADER;
FILE_DESCRIPTION (( 'STEP AP214' ),
    '1' );
FILE_NAME ('xbearingholder left.STEP',
    '2026-02-16T20:06:32',
    ( '' ),
    ( '' ),
    'SwSTEP 2.0',
    'SolidWorks 2021',
    '' );
FILE_SCHEMA (( 'AUTOMOTIVE_DESIGN' ));
ENDSEC;

DATA;
#1 = EDGE_CURVE ( 'NONE', #29, #252, #530, .T. ) ;
#2 = FACE_OUTER_BOUND ( 'NONE', #655, .T. ) ;
#3 = ORIENTED_EDGE ( 'NONE', *, *, #915, .F. ) ;
#4 = LINE ( 'NONE', #783, #34 ) ;
#5 = AXIS2_PLACEMENT_3D ( 'NONE', #945, #173, #514 ) ;
#6 = PRODUCT_RELATED_PRODUCT_CATEGORY ( 'part', '', ( #1045 ) ) ;
#7 = ORIENTED_EDGE ( 'NONE', *, *, #668, .F. ) ;
#8 = LINE ( 'NONE', #448, #659 ) ;
#9 = DIRECTION ( 'NONE',  ( 1.000000000000000000, -0.000000000000000000, -0.000000000000000000 ) ) ;
#10 = AXIS2_PLACEMENT_3D ( 'NONE', #135, #818, #50 ) ;
#11 = PLANE ( 'NONE',  #885 ) ;
#12 = AXIS2_PLACEMENT_3D ( 'NONE', #912, #566, #560 ) ;
#13 = DIRECTION ( 'NONE',  ( 0.000000000000000000, 0.000000000000000000, -1.000000000000000000 ) ) ;
#14 = DIRECTION ( 'NONE',  ( 1.000000000000000000, 0.000000000000000000, 0.000000000000000000 ) ) ;
#15 = CARTESIAN_POINT ( 'NONE',  ( 14.25000000000000178, 10.00000000000000178, -21.00000000000000000 ) ) ;
#16 = EDGE_CURVE ( 'NONE', #654, #752, #121, .T. ) ;
#17 = ORIENTED_EDGE ( 'NONE', *, *, #54, .T. ) ;
#18 = DIRECTION ( 'NONE',  ( 0.000000000000000000, -1.000000000000000000, 0.000000000000000000 ) ) ;
#19 = DIRECTION ( 'NONE',  ( 0.000000000000000000, 0.000000000000000000, 1.000000000000000000 ) ) ;
#20 = EDGE_CURVE ( 'NONE', #570, #680, #852, .T. ) ;
#21 = AXIS2_PLACEMENT_3D ( 'NONE', #222, #908, #601 ) ;
#22 = VECTOR ( 'NONE', #606, 1000.000000000000000 ) ;
#23 = DIRECTION ( 'NONE',  ( -0.000000000000000000, -0.000000000000000000, -1.000000000000000000 ) ) ;
#24 = CARTESIAN_POINT ( 'NONE',  ( 10.00000000000000000, 30.00000000000000000, 0.000000000000000000 ) ) ;
#25 = ORIENTED_EDGE ( 'NONE', *, *, #353, .F. ) ;
#26 = LINE ( 'NONE', #880, #161 ) ;
#27 = AXIS2_PLACEMENT_3D ( 'NONE', #658, #120, #639 ) ;
#28 = ORIENTED_EDGE ( 'NONE', *, *, #1, .T. ) ;
#29 = VERTEX_POINT ( 'NONE', #88 ) ;
#30 = CARTESIAN_POINT ( 'NONE',  ( 10.00000000000000178, 10.00000000000000178, 0.000000000000000000 ) ) ;
#31 = CYLINDRICAL_SURFACE ( 'NONE', #282, 8.000000000000001776 ) ;
#32 = EDGE_CURVE ( 'NONE', #680, #342, #799, .T. ) ;
#33 = DIRECTION ( 'NONE',  ( -0.000000000000000000, -1.000000000000000000, -0.000000000000000000 ) ) ;
#34 = VECTOR ( 'NONE', #9, 1000.000000000000000 ) ;
#35 = CARTESIAN_POINT ( 'NONE',  ( 0.000000000000000000, 0.000000000000000000, 5.500000000000000000 ) ) ;
#36 = ORIENTED_EDGE ( 'NONE', *, *, #335, .F. ) ;
#37 = CARTESIAN_POINT ( 'NONE',  ( 12.44641315873026777, 13.48504810350949512, -10.34882590840487104 ) ) ;
#38 = DIRECTION ( 'NONE',  ( 0.000000000000000000, 1.000000000000000000, 0.000000000000000000 ) ) ;
#39 = VECTOR ( 'NONE', #803, 1000.000000000000000 ) ;
#40 = CARTESIAN_POINT ( 'NONE',  ( 10.41135123098536219, 14.23476300384201210, -3.521480396258928725 ) ) ;
#41 = DIRECTION ( 'NONE',  ( -0.000000000000000000, -0.000000000000000000, 1.000000000000000000 ) ) ;
#42 = VERTEX_POINT ( 'NONE', #548 ) ;
#43 = CARTESIAN_POINT ( 'NONE',  ( 13.36341328445248600, 12.60996850364126587, -8.924172149113314134 ) ) ;
#44 = CARTESIAN_POINT ( 'NONE',  ( 5.750000000000001776, 10.00000000000000355, -5.797356367836955293 ) ) ;
#45 = AXIS2_PLACEMENT_3D ( 'NONE', #212, #911, #226 ) ;
#46 = CARTESIAN_POINT ( 'NONE',  ( 10.80370175531374599, 14.17808732189158860, -9.397372008304916591 ) ) ;
#47 = EDGE_CURVE ( 'NONE', #715, #29, #105, .T. ) ;
#48 = DIRECTION ( 'NONE',  ( -1.000000000000000000, 0.000000000000000000, -0.000000000000000000 ) ) ;
#49 = ORIENTED_EDGE ( 'NONE', *, *, #850, .F. ) ;
#50 = DIRECTION ( 'NONE',  ( 0.000000000000000000, 0.000000000000000000, -1.000000000000000000 ) ) ;
#51 = CARTESIAN_POINT ( 'NONE',  ( 21.00000000000000000, 39.99999999999999289, -0.5000000000000143219 ) ) ;
#52 = FACE_BOUND ( 'NONE', #868, .T. ) ;
#53 = DIRECTION ( 'NONE',  ( 1.000000000000000000, 0.000000000000000000, 0.000000000000000000 ) ) ;
#54 = EDGE_CURVE ( 'NONE', #909, #412, #969, .T. ) ;
#55 =( GEOMETRIC_REPRESENTATION_CONTEXT ( 3 ) GLOBAL_UNCERTAINTY_ASSIGNED_CONTEXT ( ( #577 ) ) GLOBAL_UNIT_ASSIGNED_CONTEXT ( ( #690, #758, #245 ) ) REPRESENTATION_CONTEXT ( 'NONE', 'WORKASPACE' ) );
#56 = DIRECTION ( 'NONE',  ( 0.000000000000000000, -1.000000000000000000, 0.000000000000000000 ) ) ;
#57 = ORIENTED_EDGE ( 'NONE', *, *, #16, .F. ) ;
#58 = CARTESIAN_POINT ( 'NONE',  ( 9.251898956602962798, 14.18780909595668582, -11.73681036588978799 ) ) ;
#59 = LINE ( 'NONE', #403, #68 ) ;
#60 = CARTESIAN_POINT ( 'NONE',  ( 12.26377626380555874, 13.60022717116949487, -4.522302065886244726 ) ) ;
#61 = CARTESIAN_POINT ( 'NONE',  ( 0.000000000000000000, 20.00000000000000000, 0.000000000000000000 ) ) ;
#62 = EDGE_LOOP ( 'NONE', ( #620, #529, #440, #373 ) ) ;
#63 = ORIENTED_EDGE ( 'NONE', *, *, #147, .T. ) ;
#64 = CARTESIAN_POINT ( 'NONE',  ( 6.175920005136514845, 8.126360698772565172, -4.177551259770005743 ) ) ;
#65 = ADVANCED_FACE ( 'NONE', ( #446 ), #181, .F. ) ;
#66 = CYLINDRICAL_SURFACE ( 'NONE', #778, 6.000000000000001776 ) ;
#67 = CARTESIAN_POINT ( 'NONE',  ( 21.00000000000000000, 0.000000000000000000, 5.500000000000000000 ) ) ;
#68 = VECTOR ( 'NONE', #38, 1000.000000000000000 ) ;
#69 =( NAMED_UNIT ( * ) SI_UNIT ( $, .STERADIAN. ) SOLID_ANGLE_UNIT ( ) );
#70 = ORIENTED_EDGE ( 'NONE', *, *, #310, .T. ) ;
#71 = CARTESIAN_POINT ( 'NONE',  ( 13.40638532738223709, 7.442752670145490690, -3.680723720817947520 ) ) ;
#72 = CYLINDRICAL_SURFACE ( 'NONE', #501, 4.250000000000000000 ) ;
#73 = ADVANCED_FACE ( 'NONE', ( #2 ), #11, .F. ) ;
#74 = CARTESIAN_POINT ( 'NONE',  ( 10.00000000000000178, 10.00000000000000178, 0.000000000000000000 ) ) ;
#75 = ORIENTED_EDGE ( 'NONE', *, *, #20, .F. ) ;
#76 = CARTESIAN_POINT ( 'NONE',  ( 14.25000000000000178, 9.545512711281871177, -5.353131071626338056 ) ) ;
#77 = AXIS2_PLACEMENT_3D ( 'NONE', #236, #169, #255 ) ;
#78 = DIRECTION ( 'NONE',  ( -0.000000000000000000, -1.000000000000000000, -0.000000000000000000 ) ) ;
#79 = DIRECTION ( 'NONE',  ( 1.000000000000000000, -0.000000000000000000, -0.000000000000000000 ) ) ;
#80 = VECTOR ( 'NONE', #265, 1000.000000000000000 ) ;
#81 = ORIENTED_EDGE ( 'NONE', *, *, #32, .F. ) ;
#82 = CARTESIAN_POINT ( 'NONE',  ( 8.469069391856836049, 6.023190252905444630, -2.780547802320432638 ) ) ;
#83 = CARTESIAN_POINT ( 'NONE',  ( 0.000000000000000000, 0.000000000000000000, -21.00000000000000000 ) ) ;
#84 = ORIENTED_EDGE ( 'NONE', *, *, #674, .F. ) ;
#85 = CARTESIAN_POINT ( 'NONE',  ( 6.999916421316795478, 13.01031535472974809, -6.703741977507323924 ) ) ;
#86 = EDGE_CURVE ( 'NONE', #938, #973, #890, .T. ) ;
#87 =( GEOMETRIC_REPRESENTATION_CONTEXT ( 3 ) GLOBAL_UNCERTAINTY_ASSIGNED_CONTEXT ( ( #679 ) ) GLOBAL_UNIT_ASSIGNED_CONTEXT ( ( #113, #286, #201 ) ) REPRESENTATION_CONTEXT ( 'NONE', 'WORKASPACE' ) );
#88 = CARTESIAN_POINT ( 'NONE',  ( 0.000000000000000000, 40.00000000000000000, 0.000000000000000000 ) ) ;
#89 = CARTESIAN_POINT ( 'NONE',  ( 7.313221961220317091, 13.29447991318826894, -5.151409681837369803 ) ) ;
#90 = ORIENTED_EDGE ( 'NONE', *, *, #948, .T. ) ;
#91 = CARTESIAN_POINT ( 'NONE',  ( 20.00000000000000000, 20.00000000000000000, 4.000000000000000000 ) ) ;
#92 = CIRCLE ( 'NONE', #344, 19.99999999999998934 ) ;
#93 = CARTESIAN_POINT ( 'NONE',  ( 21.00000000000000000, 40.00000000000000000, 5.500000000000000000 ) ) ;
#94 = ORIENTED_EDGE ( 'NONE', *, *, #238, .T. ) ;
#95 = CARTESIAN_POINT ( 'NONE',  ( 7.021254238971890160, 13.03194842249276064, -6.909010948552759324 ) ) ;
#96 = ORIENTED_EDGE ( 'NONE', *, *, #630, .T. ) ;
#97 = AXIS2_PLACEMENT_3D ( 'NONE', #635, #785, #859 ) ;
#98 = VERTEX_POINT ( 'NONE', #35 ) ;
#99 = DIRECTION ( 'NONE',  ( -1.000000000000000000, -0.000000000000000000, -0.000000000000000000 ) ) ;
#100 = ADVANCED_FACE ( 'NONE', ( #687, #1024 ), #603, .F. ) ;
#101 = CARTESIAN_POINT ( 'NONE',  ( 7.102195469343577372, 13.10939969248187253, -7.301838616547045469 ) ) ;
#102 = ORIENTED_EDGE ( 'NONE', *, *, #416, .F. ) ;
#103 = ORIENTED_EDGE ( 'NONE', *, *, #335, .T. ) ;
#104 = AXIS2_PLACEMENT_3D ( 'NONE', #124, #465, #13 ) ;
#105 = LINE ( 'NONE', #260, #721 ) ;
#106 = SURFACE_STYLE_USAGE ( .BOTH. , #884 ) ;
#107 = DIRECTION ( 'NONE',  ( -0.000000000000000000, -1.000000000000000000, -0.000000000000000000 ) ) ;
#108 = ORIENTED_EDGE ( 'NONE', *, *, #772, .F. ) ;
#109 = DIRECTION ( 'NONE',  ( -0.000000000000000000, -1.000000000000000000, -0.000000000000000000 ) ) ;
#110 = DIRECTION ( 'NONE',  ( -1.000000000000000000, 0.000000000000000000, 0.000000000000000000 ) ) ;
#111 = ORIENTED_EDGE ( 'NONE', *, *, #353, .T. ) ;
#112 = EDGE_CURVE ( 'NONE', #1098, #1019, #432, .T. ) ;
#113 =( LENGTH_UNIT ( ) NAMED_UNIT ( * ) SI_UNIT ( .MILLI., .METRE. ) );
#114 = EDGE_CURVE ( 'NONE', #345, #791, #745, .T. ) ;
#115 = ORIENTED_EDGE ( 'NONE', *, *, #186, .F. ) ;
#116 = CARTESIAN_POINT ( 'NONE',  ( 5.750000000000001776, 10.00000000000000355, -5.797356367836955293 ) ) ;
#117 = CIRCLE ( 'NONE', #228, 9.000000000000001776 ) ;
#118 = DIRECTION ( 'NONE',  ( 0.000000000000000000, -0.000000000000000000, 1.000000000000000000 ) ) ;
#119 = AXIS2_PLACEMENT_3D ( 'NONE', #877, #456, #291 ) ;
#120 = DIRECTION ( 'NONE',  ( 0.000000000000000000, 0.000000000000000000, 1.000000000000000000 ) ) ;
#121 = LINE ( 'NONE', #91, #528 ) ;
#122 = ORIENTED_EDGE ( 'NONE', *, *, #180, .T. ) ;
#123 = CARTESIAN_POINT ( 'NONE',  ( 7.153835954333195524, 13.16698501202680305, -9.799830362613677792 ) ) ;
#124 = CARTESIAN_POINT ( 'NONE',  ( 0.000000000000000000, 19.81920241085422774, -17.00000000000000000 ) ) ;
#125 = CARTESIAN_POINT ( 'NONE',  ( 10.80686307762080567, 14.17748722414736839, -3.603491612462460747 ) ) ;
#126 = VECTOR ( 'NONE', #843, 1000.000000000000000 ) ;
#127 = DIRECTION ( 'NONE',  ( 0.000000000000000000, -1.000000000000000000, 0.000000000000000000 ) ) ;
#128 = ORIENTED_EDGE ( 'NONE', *, *, #263, .F. ) ;
#129 = CARTESIAN_POINT ( 'NONE',  ( 6.236256331865646096, 11.98947197617097338, -8.053715268668900862 ) ) ;
#130 = LINE ( 'NONE', #1004, #682 ) ;
#131 = CARTESIAN_POINT ( 'NONE',  ( 12.68632478879315428, 13.29485702850252871, -5.150449977063501272 ) ) ;
#132 = EDGE_CURVE ( 'NONE', #98, #323, #646, .T. ) ;
#133 = CARTESIAN_POINT ( 'NONE',  ( 10.00000000000000000, 20.00000000000000000, -6.500000000000000000 ) ) ;
#134 = EDGE_LOOP ( 'NONE', ( #84, #957, #90, #269 ) ) ;
#135 = CARTESIAN_POINT ( 'NONE',  ( 21.00000000000000000, -3.979741641482624104, -20.10004225676693324 ) ) ;
#136 = CARTESIAN_POINT ( 'NONE',  ( 2.000000000000000000, 10.00000000000000178, 0.000000000000000000 ) ) ;
#137 = CARTESIAN_POINT ( 'NONE',  ( 11.36072679963951337, 14.03069797216744696, -9.180912535708662503 ) ) ;
#138 = VECTOR ( 'NONE', #1058, 1000.000000000000000 ) ;
#139 = CARTESIAN_POINT ( 'NONE',  ( 21.00000000000000000, 15.85271173546474976, -17.51667370946115554 ) ) ;
#140 = EDGE_LOOP ( 'NONE', ( #336, #519, #879, #670 ) ) ;
#141 = CARTESIAN_POINT ( 'NONE',  ( 0.000000000000000000, 19.81920241085422774, -21.00000000000000000 ) ) ;
#142 = DIRECTION ( 'NONE',  ( -1.000000000000000000, -0.000000000000000000, -0.000000000000000000 ) ) ;
#143 = DIRECTION ( 'NONE',  ( -1.000000000000000000, -0.000000000000000000, -0.000000000000000000 ) ) ;
#144 = CARTESIAN_POINT ( 'NONE',  ( 0.000000000000000000, 0.000000000000000000, -0.5000000000000017764 ) ) ;
#145 = SHAPE_DEFINITION_REPRESENTATION ( #634, #483 ) ;
#146 = DIRECTION ( 'NONE',  ( -0.000000000000000000, -0.000000000000000000, 1.000000000000000000 ) ) ;
#147 = EDGE_CURVE ( 'NONE', #600, #220, #439, .T. ) ;
#148 = ORIENTED_EDGE ( 'NONE', *, *, #346, .F. ) ;
#149 = ORIENTED_EDGE ( 'NONE', *, *, #310, .F. ) ;
#150 = CARTESIAN_POINT ( 'NONE',  ( 9.223017917528158804, 5.818669670508186620, -2.664655871270822818 ) ) ;
#151 =( GEOMETRIC_REPRESENTATION_CONTEXT ( 3 ) GLOBAL_UNCERTAINTY_ASSIGNED_CONTEXT ( ( #844 ) ) GLOBAL_UNIT_ASSIGNED_CONTEXT ( ( #872, #831, #69 ) ) REPRESENTATION_CONTEXT ( 'NONE', 'WORKASPACE' ) );
#152 = PLANE ( 'NONE',  #418 ) ;
#153 = AXIS2_PLACEMENT_3D ( 'NONE', #133, #127, #1062 ) ;
#154 = DIRECTION ( 'NONE',  ( 0.000000000000000000, 1.000000000000000000, 0.000000000000000000 ) ) ;
#155 = ORIENTED_EDGE ( 'NONE', *, *, #882, .F. ) ;
#156 = ADVANCED_FACE ( 'NONE', ( #399, #661 ), #294, .F. ) ;
#157 = CARTESIAN_POINT ( 'NONE',  ( 9.696234450081094636, 5.757904188341551155, -2.630679283765355425 ) ) ;
#158 = FACE_OUTER_BOUND ( 'NONE', #441, .T. ) ;
#159 = CARTESIAN_POINT ( 'NONE',  ( 10.00000000000000000, 30.00000000000000000, -14.50000000000000000 ) ) ;
#160 = CIRCLE ( 'NONE', #354, 6.000000000000000888 ) ;
#161 = VECTOR ( 'NONE', #109, 1000.000000000000000 ) ;
#162 = ORIENTED_EDGE ( 'NONE', *, *, #1032, .T. ) ;
#163 = CARTESIAN_POINT ( 'NONE',  ( 20.00000000000000000, 24.14728826453525201, -17.51667370946115554 ) ) ;
#164 = CARTESIAN_POINT ( 'NONE',  ( 10.00000000000000000, 17.50000000000000000, -6.500000000000000000 ) ) ;
#165 = CARTESIAN_POINT ( 'NONE',  ( 10.00000000000000000, 14.25000000000000178, -3.500000000000000444 ) ) ;
#166 = VERTEX_POINT ( 'NONE', #993 ) ;
#167 = CARTESIAN_POINT ( 'NONE',  ( 14.25000000000004086, 10.00000000000001954, -5.797356367836962399 ) ) ;
#168 = VECTOR ( 'NONE', #488, 1000.000000000000000 ) ;
#169 = DIRECTION ( 'NONE',  ( 0.000000000000000000, 0.000000000000000000, 1.000000000000000000 ) ) ;
#170 = VERTEX_POINT ( 'NONE', #314 ) ;
#171 = CARTESIAN_POINT ( 'NONE',  ( 4.000000000000000888, 10.00000000000000178, 0.000000000000000000 ) ) ;
#172 = ADVANCED_FACE ( 'NONE', ( #1074 ), #578, .F. ) ;
#173 = DIRECTION ( 'NONE',  ( 0.000000000000000000, -1.000000000000000000, 0.000000000000000000 ) ) ;
#174 = EDGE_CURVE ( 'NONE', #680, #570, #923, .T. ) ;
#175 = VERTEX_POINT ( 'NONE', #139 ) ;
#176 = CARTESIAN_POINT ( 'NONE',  ( 9.793815842229641078, 14.25000000000000355, -9.499999999999996447 ) ) ;
#177 = CIRCLE ( 'NONE', #790, 6.000000000000000888 ) ;
#178 = CARTESIAN_POINT ( 'NONE',  ( 0.000000000000000000, 40.00000000000000000, 0.000000000000000000 ) ) ;
#179 = CARTESIAN_POINT ( 'NONE',  ( 9.588736253547780919, 14.23475155106028289, -9.478502460767828097 ) ) ;
#180 = EDGE_CURVE ( 'NONE', #715, #654, #385, .T. ) ;
#181 = CYLINDRICAL_SURFACE ( 'NONE', #97, 2.249999999999998668 ) ;
#182 = CIRCLE ( 'NONE', #615, 2.249999999999998668 ) ;
#183 = FACE_BOUND ( 'NONE', #839, .T. ) ;
#184 = CARTESIAN_POINT ( 'NONE',  ( 20.00000000000000000, 20.18079758914577937, -21.00000000000000000 ) ) ;
#185 = AXIS2_PLACEMENT_3D ( 'NONE', #393, #737, #569 ) ;
#186 = EDGE_CURVE ( 'NONE', #624, #360, #722, .T. ) ;
#187 = CARTESIAN_POINT ( 'NONE',  ( 19.00000000000000355, 10.00000000000000355, 5.500000000000000000 ) ) ;
#188 = CARTESIAN_POINT ( 'NONE',  ( 10.00000000000000178, 10.00000000000000178, -1.000000000000000000 ) ) ;
#189 = DIRECTION ( 'NONE',  ( 1.000000000000000000, 0.000000000000000000, 0.000000000000000000 ) ) ;
#190 = AXIS2_PLACEMENT_3D ( 'NONE', #878, #629, #695 ) ;
#191 = B_SPLINE_CURVE_WITH_KNOTS ( 'NONE', 3,
 ( #167, #76, #846, #407, #253, #504, #71, #671, #681, #420, #1003, #509, #767, #1099, #413, #331, #854, #919, #925, #157, #941, #150, #1014, #82, #247, #317, #497, #664, #593, #1105, #64, #337, #324, #761, #234, #581, #836 ),
 .UNSPECIFIED., .F., .F.,
 ( 4, 2, 2, 2, 2, 2, 2, 2, 2, 1, 2, 2, 2, 2, 2, 2, 2, 2, 4 ),
 ( 2.117499858742978245E-17, 0.001883718686165344316, 0.002825578029248004656, 0.003767437372330663045, 0.004709296715413321434, 0.005180226386954649327, 0.005651156058495977220, 0.006593015401578638211, 0.007063945073119970441, 0.007534874744661302672, 0.008005804416202634902, 0.008476734087743966264, 0.009418593430826632459, 0.01036045277390929172, 0.01130231211699195097, 0.01224417146007461196, 0.01318603080315727295, 0.01412789014623993568, 0.01506974948932259493 ),
 .UNSPECIFIED. ) ;
#192 = EDGE_LOOP ( 'NONE', ( #217, #539, #946, #1093 ) ) ;
#193 = AXIS2_PLACEMENT_3D ( 'NONE', #582, #806, #389 ) ;
#194 = PRESENTATION_LAYER_ASSIGNMENT (  '', '', ( #683 ) ) ;
#195 = CARTESIAN_POINT ( 'NONE',  ( 5.750000000000001776, 10.00000000000000178, -1.000000000000000000 ) ) ;
#196 = ORIENTED_EDGE ( 'NONE', *, *, #810, .F. ) ;
#197 = FILL_AREA_STYLE ('',( #638 ) ) ;
#198 = ADVANCED_FACE ( 'NONE', ( #823 ), #378, .T. ) ;
#199 = ORIENTED_EDGE ( 'NONE', *, *, #32, .T. ) ;
#200 = CARTESIAN_POINT ( 'NONE',  ( 13.76710492637992012, 11.98331844067304708, -8.045483618795216785 ) ) ;
#201 =( NAMED_UNIT ( * ) SI_UNIT ( $, .STERADIAN. ) SOLID_ANGLE_UNIT ( ) );
#202 = CARTESIAN_POINT ( 'NONE',  ( 10.40853264076924134, 14.23502671328904512, -9.478892772059676730 ) ) ;
#203 = ORIENTED_EDGE ( 'NONE', *, *, #320, .T. ) ;
#204 = EDGE_LOOP ( 'NONE', ( #1070, #387 ) ) ;
#205 = CARTESIAN_POINT ( 'NONE',  ( 9.078353493266414276, 14.15227829544444837, -11.65966336695204042 ) ) ;
#206 = LINE ( 'NONE', #894, #626 ) ;
#207 = CARTESIAN_POINT ( 'NONE',  ( 11.99668342379185226, 13.75493994116436092, -4.252951403213071302 ) ) ;
#208 = CARTESIAN_POINT ( 'NONE',  ( 20.00000000000000000, 40.00000000000000000, 0.000000000000000000 ) ) ;
#209 = EDGE_LOOP ( 'NONE', ( #706, #503, #330, #122 ) ) ;
#210 = ADVANCED_FACE ( 'NONE', ( #555 ), #896, .F. ) ;
#211 = CARTESIAN_POINT ( 'NONE',  ( 10.39277784695943296, 14.23592466531656875, -11.84212329507187889 ) ) ;
#212 = CARTESIAN_POINT ( 'NONE',  ( 0.000000000000000000, 19.81920241085422774, -17.00000000000000000 ) ) ;
#213 = CARTESIAN_POINT ( 'NONE',  ( 12.83774932030127047, 13.16537557081095677, -5.507626617435669836 ) ) ;
#214 = MECHANICAL_DESIGN_GEOMETRIC_PRESENTATION_REPRESENTATION (  '', ( #940 ), #55 ) ;
#215 = CARTESIAN_POINT ( 'NONE',  ( 4.000000000000000888, 10.00000000000000178, -1.000000000000000000 ) ) ;
#216 = EDGE_CURVE ( 'NONE', #953, #723, #1029, .T. ) ;
#217 = ORIENTED_EDGE ( 'NONE', *, *, #481, .F. ) ;
#218 = CARTESIAN_POINT ( 'NONE',  ( 10.00000000000000000, 32.50000000000000000, -8.099999999999999645 ) ) ;
#219 = DIRECTION ( 'NONE',  ( 0.000000000000000000, 0.000000000000000000, 1.000000000000000000 ) ) ;
#220 = VERTEX_POINT ( 'NONE', #652 ) ;
#221 = CARTESIAN_POINT ( 'NONE',  ( 12.68622971813243616, 13.29493202354148096, -7.849708420480076221 ) ) ;
#222 = CARTESIAN_POINT ( 'NONE',  ( 10.00000000000000000, 17.50000000000000000, -6.500000000000000000 ) ) ;
#223 = ORIENTED_EDGE ( 'NONE', *, *, #939, .T. ) ;
#224 = ORIENTED_EDGE ( 'NONE', *, *, #47, .T. ) ;
#225 = CARTESIAN_POINT ( 'NONE',  ( 6.971150432184647805, 12.99188712403637069, -9.513079862325568570 ) ) ;
#226 = DIRECTION ( 'NONE',  ( 0.000000000000000000, 0.000000000000000000, -1.000000000000000000 ) ) ;
#227 = DIRECTION ( 'NONE',  ( -0.000000000000000000, -0.000000000000000000, -1.000000000000000000 ) ) ;
#228 = AXIS2_PLACEMENT_3D ( 'NONE', #1051, #284, #14 ) ;
#229 = COLOUR_RGB ( '',0.7921568627450980005, 0.8196078431372548767, 0.9333333333333333481 ) ;
#230 = CYLINDRICAL_SURFACE ( 'NONE', #523, 2.249999999999998668 ) ;
#231 = EDGE_CURVE ( 'NONE', #784, #246, #849, .T. ) ;
#232 = CARTESIAN_POINT ( 'NONE',  ( 0.000000000000000000, 0.000000000000000000, 4.000000000000000000 ) ) ;
#233 = ORIENTED_EDGE ( 'NONE', *, *, #422, .T. ) ;
#234 = CARTESIAN_POINT ( 'NONE',  ( 5.767705142985175115, 9.545676275936683552, -5.363654080663407875 ) ) ;
#235 = DIRECTION ( 'NONE',  ( -1.000000000000000000, -0.000000000000000000, -0.000000000000000000 ) ) ;
#236 = CARTESIAN_POINT ( 'NONE',  ( 10.00000000000000178, 10.00000000000000178, 4.000000000000000000 ) ) ;
#237 = CARTESIAN_POINT ( 'NONE',  ( 12.24999999999999822, 30.00000000000000000, 0.000000000000000000 ) ) ;
#238 = EDGE_CURVE ( 'NONE', #1084, #360, #329, .T. ) ;
#239 = AXIS2_PLACEMENT_3D ( 'NONE', #507, #322, #584 ) ;
#240 = EDGE_LOOP ( 'NONE', ( #1096, #256 ) ) ;
#241 = PLANE ( 'NONE',  #729 ) ;
#242 = CARTESIAN_POINT ( 'NONE',  ( 21.00000000000000000, 43.97974164148261167, -20.10004225676693324 ) ) ;
#243 = VECTOR ( 'NONE', #916, 1000.000000000000000 ) ;
#244 = CARTESIAN_POINT ( 'NONE',  ( 0.000000000000000000, 0.000000000000000000, -1.000000000000000000 ) ) ;
#245 =( NAMED_UNIT ( * ) SI_UNIT ( $, .STERADIAN. ) SOLID_ANGLE_UNIT ( ) );
#246 = VERTEX_POINT ( 'NONE', #1108 ) ;
#247 = CARTESIAN_POINT ( 'NONE',  ( 7.907737183529994773, 6.287696052536525748, -2.936031716080242493 ) ) ;
#248 = DIRECTION ( 'NONE',  ( -1.000000000000000000, 0.000000000000000000, 0.000000000000000000 ) ) ;
#249 = DIRECTION ( 'NONE',  ( -0.000000000000000000, -1.000000000000000000, -0.000000000000000000 ) ) ;
#250 = VECTOR ( 'NONE', #648, 1000.000000000000000 ) ;
#251 = VERTEX_POINT ( 'NONE', #685 ) ;
#252 = VERTEX_POINT ( 'NONE', #61 ) ;
#253 = CARTESIAN_POINT ( 'NONE',  ( 13.82444659074119464, 8.127474650986242111, -4.178445040960478529 ) ) ;
#254 = ADVANCED_FACE ( 'NONE', ( #398 ), #937, .F. ) ;
#255 = DIRECTION ( 'NONE',  ( 1.000000000000000000, 0.000000000000000000, 0.000000000000000000 ) ) ;
#256 = ORIENTED_EDGE ( 'NONE', *, *, #850, .T. ) ;
#257 = CARTESIAN_POINT ( 'NONE',  ( 20.00000000000000000, 40.00000000000000000, 5.500000000000000000 ) ) ;
#258 = EDGE_LOOP ( 'NONE', ( #699, #162 ) ) ;
#259 = CARTESIAN_POINT ( 'NONE',  ( 8.150346581612641472, 13.83029475061182900, -4.130266033811956561 ) ) ;
#260 = CARTESIAN_POINT ( 'NONE',  ( 20.00000000000000000, 40.00000000000000000, 0.000000000000000000 ) ) ;
#261 = DIRECTION ( 'NONE',  ( -1.000000000000000000, 0.000000000000000000, 0.000000000000000000 ) ) ;
#262 = VECTOR ( 'NONE', #219, 1000.000000000000000 ) ;
#263 = EDGE_CURVE ( 'NONE', #166, #175, #999, .T. ) ;
#264 = VECTOR ( 'NONE', #18, 1000.000000000000000 ) ;
#265 = DIRECTION ( 'NONE',  ( -0.000000000000000000, -1.000000000000000000, -0.000000000000000000 ) ) ;
#266 = CARTESIAN_POINT ( 'NONE',  ( 16.00000000000000355, 10.00000000000000178, 0.000000000000000000 ) ) ;
#267 = EDGE_LOOP ( 'NONE', ( #429, #149, #379, #270 ) ) ;
#268 = CARTESIAN_POINT ( 'NONE',  ( 21.00000000000000000, 20.18079758914577937, -21.00000000000000000 ) ) ;
#269 = ORIENTED_EDGE ( 'NONE', *, *, #998, .T. ) ;
#270 = ORIENTED_EDGE ( 'NONE', *, *, #834, .F. ) ;
#271 = EDGE_CURVE ( 'NONE', #909, #924, #92, .T. ) ;
#272 = COLOUR_RGB ( '',0.7921568627450980005, 0.8196078431372548767, 0.9333333333333333481 ) ;
#273 = ORIENTED_EDGE ( 'NONE', *, *, #886, .T. ) ;
#274 = DIRECTION ( 'NONE',  ( -1.000000000000000000, 0.000000000000000000, 0.000000000000000000 ) ) ;
#275 = DIRECTION ( 'NONE',  ( -0.000000000000000000, -0.000000000000000000, 1.000000000000000000 ) ) ;
#276 = CARTESIAN_POINT ( 'NONE',  ( 7.603819011829293650, 13.52349202365715186, -8.344068529119853750 ) ) ;
#277 = ORIENTED_EDGE ( 'NONE', *, *, #238, .F. ) ;
#278 = DIRECTION ( 'NONE',  ( 0.000000000000000000, 0.000000000000000000, -1.000000000000000000 ) ) ;
#279 = CARTESIAN_POINT ( 'NONE',  ( 10.00000000000000178, 10.00000000000000178, 4.000000000000000000 ) ) ;
#280 = ORIENTED_EDGE ( 'NONE', *, *, #1032, .F. ) ;
#281 = AXIS2_PLACEMENT_3D ( 'NONE', #349, #453, #442 ) ;
#282 = AXIS2_PLACEMENT_3D ( 'NONE', #375, #23, #274 ) ;
#283 = DIRECTION ( 'NONE',  ( -0.000000000000000000, -0.000000000000000000, -1.000000000000000000 ) ) ;
#284 = DIRECTION ( 'NONE',  ( 0.000000000000000000, 0.000000000000000000, 1.000000000000000000 ) ) ;
#285 = EDGE_CURVE ( 'NONE', #170, #959, #743, .T. ) ;
#286 =( NAMED_UNIT ( * ) PLANE_ANGLE_UNIT ( ) SI_UNIT ( $, .RADIAN. ) );
#287 = DIRECTION ( 'NONE',  ( 0.000000000000000000, 0.000000000000000000, 1.000000000000000000 ) ) ;
#288 = AXIS2_PLACEMENT_3D ( 'NONE', #232, #482, #48 ) ;
#289 = ORIENTED_EDGE ( 'NONE', *, *, #1049, .F. ) ;
#290 = CARTESIAN_POINT ( 'NONE',  ( 8.173771886282752419, 13.84034368503328771, -11.01899854400194201 ) ) ;
#291 = DIRECTION ( 'NONE',  ( 1.000000000000000000, 0.000000000000000000, -0.000000000000000000 ) ) ;
#292 = CARTESIAN_POINT ( 'NONE',  ( 11.84907776139435676, 13.83053281717116256, -4.129895702832451221 ) ) ;
#293 = ADVANCED_FACE ( 'NONE', ( #1011 ), #230, .F. ) ;
#294 = PLANE ( 'NONE',  #288 ) ;
#295 = ORIENTED_EDGE ( 'NONE', *, *, #863, .F. ) ;
#296 = CARTESIAN_POINT ( 'NONE',  ( 5.946029963778715732, 11.30019796377563246, -7.190343326537385948 ) ) ;
#297 = DIRECTION ( 'NONE',  ( -0.000000000000000000, -1.000000000000000000, -0.000000000000000000 ) ) ;
#298 = CARTESIAN_POINT ( 'NONE',  ( 12.26369673848343922, 13.60025882107204787, -8.477740225125399931 ) ) ;
#299 = DIRECTION ( 'NONE',  ( 0.000000000000000000, 0.000000000000000000, 1.000000000000000000 ) ) ;
#300 = ORIENTED_EDGE ( 'NONE', *, *, #749, .F. ) ;
#301 = CARTESIAN_POINT ( 'NONE',  ( 7.750000000000001776, 30.00000000000000000, 5.500000000000000000 ) ) ;
#302 = CARTESIAN_POINT ( 'NONE',  ( 10.00000000000000178, 10.00000000000000178, 4.000000000000000000 ) ) ;
#303 = PRODUCT_DEFINITION_FORMATION_WITH_SPECIFIED_SOURCE ( 'ANY', '', #1045, .NOT_KNOWN. ) ;
#304 = CARTESIAN_POINT ( 'NONE',  ( 12.59359626461872317, 13.36937316723017588, -4.980499564606559737 ) ) ;
#305 = AXIS2_PLACEMENT_3D ( 'NONE', #326, #154, #1081 ) ;
#306 = CARTESIAN_POINT ( 'NONE',  ( 10.00000000000000178, 10.00000000000000178, -1.000000000000000000 ) ) ;
#307 = ORIENTED_EDGE ( 'NONE', *, *, #1083, .T. ) ;
#308 = CARTESIAN_POINT ( 'NONE',  ( 7.562186294929722052, 13.49106118259482301, -10.35962908910128810 ) ) ;
#309 = CARTESIAN_POINT ( 'NONE',  ( 10.00000000000000000, 17.50000000000000000, -4.899999999999999467 ) ) ;
#310 = EDGE_CURVE ( 'NONE', #412, #411, #1102, .T. ) ;
#311 = DIRECTION ( 'NONE',  ( -1.000000000000000000, 0.000000000000000000, -0.000000000000000000 ) ) ;
#312 = FACE_OUTER_BOUND ( 'NONE', #1057, .T. ) ;
#313 = PRODUCT_CONTEXT ( 'NONE', #1025, 'mechanical' ) ;
#314 = CARTESIAN_POINT ( 'NONE',  ( 7.750000000000001776, 30.00000000000000000, 0.000000000000000000 ) ) ;
#315 = VERTEX_POINT ( 'NONE', #1088 ) ;
#316 = ORIENTED_EDGE ( 'NONE', *, *, #1054, .T. ) ;
#317 = CARTESIAN_POINT ( 'NONE',  ( 7.650835203774652094, 6.445903856627419160, -3.031034858858214331 ) ) ;
#318 = DIRECTION ( 'NONE',  ( -0.000000000000000000, -0.000000000000000000, 1.000000000000000000 ) ) ;
#319 = DIRECTION ( 'NONE',  ( 0.000000000000000000, 8.673617379884037444E-16, -1.000000000000000000 ) ) ;
#320 = EDGE_CURVE ( 'NONE', #42, #1098, #667, .T. ) ;
#321 = CIRCLE ( 'NONE', #663, 19.99999999999999645 ) ;
#322 = DIRECTION ( 'NONE',  ( 0.000000000000000000, 1.000000000000000000, 0.000000000000000000 ) ) ;
#323 = VERTEX_POINT ( 'NONE', #144 ) ;
#324 = CARTESIAN_POINT ( 'NONE',  ( 5.904363908600586797, 8.837423446592202581, -4.743816340843019397 ) ) ;
#325 = CARTESIAN_POINT ( 'NONE',  ( 10.00000000000000178, 10.00000000000000178, -1.000000000000000000 ) ) ;
#326 = CARTESIAN_POINT ( 'NONE',  ( 0.000000000000000000, 40.00000000000000000, 0.000000000000000000 ) ) ;
#327 = PRESENTATION_STYLE_ASSIGNMENT (( #822 ) ) ;
#328 = EDGE_LOOP ( 'NONE', ( #289, #426, #366, #280 ) ) ;
#329 = CIRCLE ( 'NONE', #1009, 6.000000000000000888 ) ;
#330 = ORIENTED_EDGE ( 'NONE', *, *, #47, .F. ) ;
#331 = CARTESIAN_POINT ( 'NONE',  ( 10.79961470864734885, 5.822954970366168048, -2.667062930277730892 ) ) ;
#332 = CYLINDRICAL_SURFACE ( 'NONE', #609, 19.99999999999998934 ) ;
#333 = DIRECTION ( 'NONE',  ( -0.000000000000000000, -0.000000000000000000, -1.000000000000000000 ) ) ;
#334 = AXIS2_PLACEMENT_3D ( 'NONE', #702, #538, #110 ) ;
#335 = EDGE_CURVE ( 'NONE', #246, #355, #660, .T. ) ;
#336 = ORIENTED_EDGE ( 'NONE', *, *, #416, .T. ) ;
#337 = CARTESIAN_POINT ( 'NONE',  ( 6.070164898340693505, 8.362252977571504431, -4.359376321073604288 ) ) ;
#338 = LINE ( 'NONE', #588, #867 ) ;
#339 = EDGE_LOOP ( 'NONE', ( #918, #199, #1007, #535 ) ) ;
#340 = LINE ( 'NONE', #595, #168 ) ;
#341 = AXIS2_PLACEMENT_3D ( 'NONE', #325, #505, #926 ) ;
#342 = VERTEX_POINT ( 'NONE', #502 ) ;
#343 = CARTESIAN_POINT ( 'NONE',  ( 7.162526303216472101, 13.16560814054185435, -7.492990952196308285 ) ) ;
#344 = AXIS2_PLACEMENT_3D ( 'NONE', #1023, #415, #405 ) ;
#345 = VERTEX_POINT ( 'NONE', #237 ) ;
#346 = EDGE_CURVE ( 'NONE', #406, #851, #764, .T. ) ;
#347 = CARTESIAN_POINT ( 'NONE',  ( 7.000084080493734540, 13.01048243474351374, -6.293804101941675277 ) ) ;
#348 = CARTESIAN_POINT ( 'NONE',  ( 10.00000000000000178, 10.00000000000000178, 5.500000000000000000 ) ) ;
#349 = CARTESIAN_POINT ( 'NONE',  ( 10.00000000000000000, 17.50000000000000000, -6.500000000000000000 ) ) ;
#350 = ORIENTED_EDGE ( 'NONE', *, *, #971, .F. ) ;
#351 = CARTESIAN_POINT ( 'NONE',  ( 9.593869049158715967, 14.23536768678294528, -3.520619207713677756 ) ) ;
#352 = CIRCLE ( 'NONE', #356, 6.000000000000000888 ) ;
#353 = EDGE_CURVE ( 'NONE', #251, #1098, #340, .T. ) ;
#354 = AXIS2_PLACEMENT_3D ( 'NONE', #900, #1072, #748 ) ;
#355 = VERTEX_POINT ( 'NONE', #165 ) ;
#356 = AXIS2_PLACEMENT_3D ( 'NONE', #30, #374, #564 ) ;
#357 = DIRECTION ( 'NONE',  ( -1.000000000000000000, -0.000000000000000000, 0.000000000000000000 ) ) ;
#358 = DIRECTION ( 'NONE',  ( 0.000000000000000000, 0.000000000000000000, -1.000000000000000000 ) ) ;
#359 = CARTESIAN_POINT ( 'NONE',  ( 8.640320105106725990, 14.03107422353035361, -3.818520528500799927 ) ) ;
#360 = VERTEX_POINT ( 'NONE', #171 ) ;
#361 = ORIENTED_EDGE ( 'NONE', *, *, #948, .F. ) ;
#362 = PRESENTATION_LAYER_ASSIGNMENT (  '', '', ( #940 ) ) ;
#363 = VECTOR ( 'NONE', #53, 1000.000000000000000 ) ;
#364 = CARTESIAN_POINT ( 'NONE',  ( 19.00000000000000355, 10.00000000000000355, 5.500000000000000000 ) ) ;
#365 = DIRECTION ( 'NONE',  ( 1.000000000000000000, -0.000000000000000000, -0.000000000000000000 ) ) ;
#366 = ORIENTED_EDGE ( 'NONE', *, *, #346, .T. ) ;
#367 = EDGE_CURVE ( 'NONE', #959, #791, #182, .T. ) ;
#368 = CARTESIAN_POINT ( 'NONE',  ( 10.00000000000000000, 32.50000000000000000, -6.500000000000000000 ) ) ;
#369 = CIRCLE ( 'NONE', #960, 2.249999999999998668 ) ;
#370 = ADVANCED_FACE ( 'NONE', ( #821 ), #1094, .T. ) ;
#371 = DIRECTION ( 'NONE',  ( -1.000000000000000000, 0.000000000000000000, 0.000000000000000000 ) ) ;
#372 = CARTESIAN_POINT ( 'NONE',  ( 21.00000000000000000, 43.97974164148261167, -20.10004225676693324 ) ) ;
#373 = ORIENTED_EDGE ( 'NONE', *, *, #422, .F. ) ;
#374 = DIRECTION ( 'NONE',  ( 0.000000000000000000, 0.000000000000000000, -1.000000000000000000 ) ) ;
#375 = CARTESIAN_POINT ( 'NONE',  ( 10.00000000000000178, 10.00000000000000178, 4.000000000000000000 ) ) ;
#376 = CARTESIAN_POINT ( 'NONE',  ( 0.000000000000000000, -3.979741641482624104, -20.10004225676693324 ) ) ;
#377 = EDGE_CURVE ( 'NONE', #1019, #445, #494, .T. ) ;
#378 = PLANE ( 'NONE',  #561 ) ;
#379 = ORIENTED_EDGE ( 'NONE', *, *, #54, .F. ) ;
#380 = DIRECTION ( 'NONE',  ( 0.000000000000000000, -1.000000000000000000, 0.000000000000000000 ) ) ;
#381 = DIRECTION ( 'NONE',  ( 1.000000000000000000, 0.000000000000000000, 0.000000000000000000 ) ) ;
#382 = CARTESIAN_POINT ( 'NONE',  ( 11.99735838144335709, 13.75456335658430795, -8.746405755418550143 ) ) ;
#383 = ADVANCED_FACE ( 'NONE', ( #410, #312 ), #673, .F. ) ;
#384 = AXIS2_PLACEMENT_3D ( 'NONE', #279, #797, #881 ) ;
#385 = LINE ( 'NONE', #208, #1080 ) ;
#386 = CIRCLE ( 'NONE', #786, 2.249999999999998668 ) ;
#387 = ORIENTED_EDGE ( 'NONE', *, *, #367, .F. ) ;
#388 = LINE ( 'NONE', #459, #876 ) ;
#389 = DIRECTION ( 'NONE',  ( -1.000000000000000000, 0.000000000000000000, 0.000000000000000000 ) ) ;
#390 = B_SPLINE_CURVE_WITH_KNOTS ( 'NONE', 3,
 ( #116, #464, #893, #1064, #296, #632, #129, #904, #747, #225, #123, #308, #888, #290, #826, #974, #968, #205, #58, #552, #643, #739, #211, #988, #402, #981, #1085, #733, #805, #557, #37, #899, #572, #43, #801, #200, #545, #472, #485, #995 ),
 .UNSPECIFIED., .F., .F.,
 ( 4, 2, 2, 2, 2, 2, 2, 2, 2, 2, 2, 2, 2, 2, 2, 2, 2, 2, 2, 4 ),
 ( 0.01506974948932259493, 0.01621422271220452141, 0.01735869593508644962, 0.01850316915796837436, 0.01964764238085030257, 0.02079211560373222731, 0.02193658882661415552, 0.02250882543805511615, 0.02308106204949608026, 0.02365329866093704436, 0.02422553527237800500, 0.02479777188381896563, 0.02537000849525992974, 0.02594224510670089384, 0.02651448171814185795, 0.02765895494102378616, 0.02880342816390571090, 0.02994790138678763911, 0.03109237460966956385, 0.03338132105543342026 ),
 .UNSPECIFIED. ) ;
#391 = CYLINDRICAL_SURFACE ( 'NONE', #753, 2.999999999999998224 ) ;
#392 = APPLICATION_PROTOCOL_DEFINITION ( 'draft international standard', 'automotive_design', 1998, #1025 ) ;
#393 = CARTESIAN_POINT ( 'NONE',  ( 10.00000000000000000, 32.50000000000000000, -6.500000000000000000 ) ) ;
#394 = ORIENTED_EDGE ( 'NONE', *, *, #789, .F. ) ;
#395 = CARTESIAN_POINT ( 'NONE',  ( 20.00000000000000000, 20.00000000000000000, 0.000000000000000000 ) ) ;
#396 = DIRECTION ( 'NONE',  ( 1.000000000000000000, 0.000000000000000000, 0.000000000000000000 ) ) ;
#397 = CARTESIAN_POINT ( 'NONE',  ( 1.000000000000002665, 10.00000000000000178, 5.500000000000000000 ) ) ;
#398 = FACE_OUTER_BOUND ( 'NONE', #140, .T. ) ;
#399 = FACE_BOUND ( 'NONE', #746, .T. ) ;
#400 = VERTEX_POINT ( 'NONE', #1037 ) ;
#401 = AXIS2_PLACEMENT_3D ( 'NONE', #470, #299, #1001 ) ;
#402 = CARTESIAN_POINT ( 'NONE',  ( 10.93566258032872263, 14.14916391560599074, -11.65295740795214741 ) ) ;
#403 = CARTESIAN_POINT ( 'NONE',  ( 21.00000000000000000, 16.00000000000000000, -21.00000000000000000 ) ) ;
#404 = FACE_OUTER_BOUND ( 'NONE', #794, .T. ) ;
#405 = DIRECTION ( 'NONE',  ( 0.000000000000000000, 0.000000000000000000, 1.000000000000000000 ) ) ;
#406 = VERTEX_POINT ( 'NONE', #777 ) ;
#407 = CARTESIAN_POINT ( 'NONE',  ( 13.93145305743668594, 8.366181409412087433, -4.362460468505886979 ) ) ;
#408 = VECTOR ( 'NONE', #235, 1000.000000000000000 ) ;
#409 = DIRECTION ( 'NONE',  ( 1.000000000000000000, 0.000000000000000000, 0.000000000000000000 ) ) ;
#410 = FACE_BOUND ( 'NONE', #240, .T. ) ;
#411 = VERTEX_POINT ( 'NONE', #268 ) ;
#412 = VERTEX_POINT ( 'NONE', #184 ) ;
#413 = CARTESIAN_POINT ( 'NONE',  ( 11.25807482289069128, 5.928378309874047680, -2.726623615735611406 ) ) ;
#414 = FACE_OUTER_BOUND ( 'NONE', #192, .T. ) ;
#415 = DIRECTION ( 'NONE',  ( -1.000000000000000000, -0.000000000000000000, 0.000000000000000000 ) ) ;
#416 = EDGE_CURVE ( 'NONE', #323, #445, #4, .T. ) ;
#417 = CARTESIAN_POINT ( 'NONE',  ( 0.000000000000000000, 0.000000000000000000, 0.000000000000000000 ) ) ;
#418 = AXIS2_PLACEMENT_3D ( 'NONE', #83, #684, #248 ) ;
#419 = ORIENTED_EDGE ( 'NONE', *, *, #892, .F. ) ;
#420 = CARTESIAN_POINT ( 'NONE',  ( 12.48011704043384995, 6.545592034368390877, -3.093323758156660830 ) ) ;
#421 = DIRECTION ( 'NONE',  ( 0.000000000000000000, -1.000000000000000000, 0.000000000000000000 ) ) ;
#422 = EDGE_CURVE ( 'NONE', #1097, #953, #857, .T. ) ;
#423 = EDGE_LOOP ( 'NONE', ( #891, #949, #711, #1107 ) ) ;
#424 = DIRECTION ( 'NONE',  ( 1.000000000000000000, 0.000000000000000000, 0.000000000000000000 ) ) ;
#425 = ORIENTED_EDGE ( 'NONE', *, *, #285, .T. ) ;
#426 = ORIENTED_EDGE ( 'NONE', *, *, #1103, .T. ) ;
#427 = ORIENTED_EDGE ( 'NONE', *, *, #965, .T. ) ;
#428 = DIRECTION ( 'NONE',  ( -1.000000000000000000, -0.000000000000000000, -0.000000000000000000 ) ) ;
#429 = ORIENTED_EDGE ( 'NONE', *, *, #1054, .F. ) ;
#430 = CARTESIAN_POINT ( 'NONE',  ( 9.194055327581420300, 14.17764428276911737, -9.396734016603181416 ) ) ;
#431 = EDGE_CURVE ( 'NONE', #355, #400, #524, .T. ) ;
#432 = LINE ( 'NONE', #776, #455 ) ;
#433 = ORIENTED_EDGE ( 'NONE', *, *, #633, .T. ) ;
#434 = CARTESIAN_POINT ( 'NONE',  ( 8.002122720255314903, 13.75426839974070070, -8.745897235431808525 ) ) ;
#435 = AXIS2_PLACEMENT_3D ( 'NONE', #244, #576, #913 ) ;
#436 = ADVANCED_FACE ( 'NONE', ( #438 ), #947, .F. ) ;
#437 = EDGE_LOOP ( 'NONE', ( #81, #779, #433, #994 ) ) ;
#438 = FACE_OUTER_BOUND ( 'NONE', #437, .T. ) ;
#439 = CIRCLE ( 'NONE', #153, 1.599999999999999867 ) ;
#440 = ORIENTED_EDGE ( 'NONE', *, *, #216, .F. ) ;
#441 = EDGE_LOOP ( 'NONE', ( #36, #766, #544, #96 ) ) ;
#442 = DIRECTION ( 'NONE',  ( 0.000000000000000000, 0.000000000000000000, -1.000000000000000000 ) ) ;
#443 = CARTESIAN_POINT ( 'NONE',  ( 8.467748652685610722, 13.96796535967463626, -9.086362644280940870 ) ) ;
#444 = CIRCLE ( 'NONE', #1066, 1.599999999999999867 ) ;
#445 = VERTEX_POINT ( 'NONE', #951 ) ;
#446 = FACE_OUTER_BOUND ( 'NONE', #1027, .T. ) ;
#447 = CARTESIAN_POINT ( 'NONE',  ( 20.00000000000000000, 20.00000000000000000, 0.000000000000000000 ) ) ;
#448 = CARTESIAN_POINT ( 'NONE',  ( 18.00000000000000355, 10.00000000000000355, 4.000000000000000000 ) ) ;
#449 = ORIENTED_EDGE ( 'NONE', *, *, #377, .T. ) ;
#450 = EDGE_CURVE ( 'NONE', #769, #491, #944, .T. ) ;
#451 = AXIS2_PLACEMENT_3D ( 'NONE', #520, #421, #666 ) ;
#452 = CARTESIAN_POINT ( 'NONE',  ( 20.00000000000000000, 40.00000000000000000, 0.000000000000000000 ) ) ;
#453 = DIRECTION ( 'NONE',  ( 0.000000000000000000, -1.000000000000000000, 0.000000000000000000 ) ) ;
#454 = EDGE_CURVE ( 'NONE', #342, #586, #765, .T. ) ;
#455 = VECTOR ( 'NONE', #56, 1000.000000000000000 ) ;
#456 = DIRECTION ( 'NONE',  ( 0.000000000000000000, 0.000000000000000000, 1.000000000000000000 ) ) ;
#457 = ORIENTED_EDGE ( 'NONE', *, *, #713, .F. ) ;
#458 = EDGE_CURVE ( 'NONE', #29, #42, #338, .T. ) ;
#459 = CARTESIAN_POINT ( 'NONE',  ( 0.000000000000000000, 0.000000000000000000, 5.500000000000000000 ) ) ;
#460 = CYLINDRICAL_SURFACE ( 'NONE', #840, 9.000000000000000000 ) ;
#461 = CARTESIAN_POINT ( 'NONE',  ( 11.85173139155533839, 13.82935460908259628, -8.868240332444210949 ) ) ;
#462 = CARTESIAN_POINT ( 'NONE',  ( 0.000000000000000000, 0.000000000000000000, -21.00000000000000000 ) ) ;
#463 = EDGE_LOOP ( 'NONE', ( #203, #25, #627, #1075, #224, #1063 ) ) ;
#464 = CARTESIAN_POINT ( 'NONE',  ( 5.750000000000003553, 10.27320360103821884, -6.064391230218503459 ) ) ;
#465 = DIRECTION ( 'NONE',  ( -1.000000000000000000, -0.000000000000000000, -0.000000000000000000 ) ) ;
#466 = EDGE_LOOP ( 'NONE', ( #75, #476 ) ) ;
#467 = ADVANCED_FACE ( 'NONE', ( #1106 ), #1101, .T. ) ;
#468 = VECTOR ( 'NONE', #79, 1000.000000000000000 ) ;
#469 = CARTESIAN_POINT ( 'NONE',  ( 12.99988245829531053, 13.01051578034699752, -6.294179662389518093 ) ) ;
#470 = CARTESIAN_POINT ( 'NONE',  ( 10.00000000000000178, 10.00000000000000178, 5.500000000000000000 ) ) ;
#471 = ORIENTED_EDGE ( 'NONE', *, *, #86, .T. ) ;
#472 = CARTESIAN_POINT ( 'NONE',  ( 14.14617150647816324, 11.05921194495909710, -6.894886998736265760 ) ) ;
#473 = DIRECTION ( 'NONE',  ( 0.000000000000000000, 1.000000000000000000, 0.000000000000000000 ) ) ;
#474 = CARTESIAN_POINT ( 'NONE',  ( 9.999999999999998224, 14.25000000000000178, -9.500000000000000000 ) ) ;
#475 = DIRECTION ( 'NONE',  ( 0.000000000000000000, 0.000000000000000000, -1.000000000000000000 ) ) ;
#476 = ORIENTED_EDGE ( 'NONE', *, *, #174, .F. ) ;
#477 = DIRECTION ( 'NONE',  ( 0.000000000000000000, -0.000000000000000000, -1.000000000000000000 ) ) ;
#478 = CARTESIAN_POINT ( 'NONE',  ( 12.24999999999999822, 30.00000000000000000, 5.500000000000000000 ) ) ;
#479 = CARTESIAN_POINT ( 'NONE',  ( 10.00000000000000000, 14.25000000000000178, -3.500000000000000444 ) ) ;
#480 = DIRECTION ( 'NONE',  ( 0.000000000000000000, 0.000000000000000000, 1.000000000000000000 ) ) ;
#481 = EDGE_CURVE ( 'NONE', #315, #251, #489, .T. ) ;
#482 = DIRECTION ( 'NONE',  ( 0.000000000000000000, 0.000000000000000000, -1.000000000000000000 ) ) ;
#483 = ADVANCED_BREP_SHAPE_REPRESENTATION ( 'xbearingholder left', ( #724, #967 ), #151 ) ;
#484 = ORIENTED_EDGE ( 'NONE', *, *, #320, .F. ) ;
#485 = CARTESIAN_POINT ( 'NONE',  ( 14.25000000000000355, 10.55225712405812466, -6.337143927597061577 ) ) ;
#486 = LINE ( 'NONE', #828, #547 ) ;
#487 = CARTESIAN_POINT ( 'NONE',  ( 4.000000000000000888, 10.00000000000000178, -1.000000000000000000 ) ) ;
#488 = DIRECTION ( 'NONE',  ( 0.000000000000000000, 0.000000000000000000, 1.000000000000000000 ) ) ;
#489 = CIRCLE ( 'NONE', #1055, 19.99999999999998934 ) ;
#490 = ORIENTED_EDGE ( 'NONE', *, *, #963, .F. ) ;
#491 = VERTEX_POINT ( 'NONE', #677 ) ;
#492 = DIRECTION ( 'NONE',  ( 1.000000000000000000, 0.000000000000000000, 0.000000000000000000 ) ) ;
#493 = DIRECTION ( 'NONE',  ( 0.000000000000000000, 0.000000000000000000, 1.000000000000000000 ) ) ;
#494 = LINE ( 'NONE', #67, #126 ) ;
#495 = PRODUCT_DEFINITION_CONTEXT ( 'detailed design', #542, 'design' ) ;
#496 = EDGE_LOOP ( 'NONE', ( #607, #707, #277, #956 ) ) ;
#497 = CARTESIAN_POINT ( 'NONE',  ( 7.180692439935040916, 6.805993187558784463, -3.256259374061282408 ) ) ;
#498 = AXIS2_PLACEMENT_3D ( 'NONE', #1065, #982, #841 ) ;
#499 = EDGE_CURVE ( 'NONE', #252, #973, #583, .T. ) ;
#500 = CARTESIAN_POINT ( 'NONE',  ( 16.00000000000000355, 10.00000000000000178, -1.000000000000000000 ) ) ;
#501 = AXIS2_PLACEMENT_3D ( 'NONE', #599, #768, #409 ) ;
#502 = CARTESIAN_POINT ( 'NONE',  ( 19.00000000000000355, 10.00000000000000355, 4.000000000000000000 ) ) ;
#503 = ORIENTED_EDGE ( 'NONE', *, *, #1, .F. ) ;
#504 = CARTESIAN_POINT ( 'NONE',  ( 13.56217619735402558, 7.666838272400418042, -3.838458060738076050 ) ) ;
#505 = DIRECTION ( 'NONE',  ( -0.000000000000000000, -0.000000000000000000, 1.000000000000000000 ) ) ;
#506 = ORIENTED_EDGE ( 'NONE', *, *, #886, .F. ) ;
#507 = CARTESIAN_POINT ( 'NONE',  ( 0.000000000000000000, 0.000000000000000000, 4.000000000000000000 ) ) ;
#508 = EDGE_LOOP ( 'NONE', ( #950, #223, #233, #49 ) ) ;
#509 = CARTESIAN_POINT ( 'NONE',  ( 12.10199330263157691, 6.303137906359221887, -2.945715718448621345 ) ) ;
#510 = CARTESIAN_POINT ( 'NONE',  ( 0.000000000000000000, 20.00000000000000000, 4.000000000000000000 ) ) ;
#511 = ORIENTED_EDGE ( 'NONE', *, *, #979, .T. ) ;
#512 = CARTESIAN_POINT ( 'NONE',  ( 9.000146503573212442, 14.13502935248202164, -9.335357516357900565 ) ) ;
#513 = VECTOR ( 'NONE', #275, 1000.000000000000000 ) ;
#514 = DIRECTION ( 'NONE',  ( 0.000000000000000000, -0.000000000000000000, -1.000000000000000000 ) ) ;
#515 = ORIENTED_EDGE ( 'NONE', *, *, #481, .T. ) ;
#516 = CARTESIAN_POINT ( 'NONE',  ( 7.405863438117696873, 13.36896128364632830, -4.981395695579956318 ) ) ;
#517 = AXIS2_PLACEMENT_3D ( 'NONE', #958, #19, #1041 ) ;
#518 = ADVANCED_FACE ( 'NONE', ( #594 ), #152, .T. ) ;
#519 = ORIENTED_EDGE ( 'NONE', *, *, #377, .F. ) ;
#520 = CARTESIAN_POINT ( 'NONE',  ( 10.00000000000000000, 17.50000000000000000, -6.500000000000000000 ) ) ;
#521 = PRODUCT_DEFINITION ( 'UNKNOWN', '', #303, #495 ) ;
#522 = EDGE_LOOP ( 'NONE', ( #763, #597, #1043, #102 ) ) ;
#523 = AXIS2_PLACEMENT_3D ( 'NONE', #159, #770, #589 ) ;
#524 = B_SPLINE_CURVE_WITH_KNOTS ( 'NONE', 3,
 ( #775, #788, #351, #1110, #697, #359, #613, #259, #1028, #955, #527, #516, #89, #861, #873, #608, #347, #85, #95, #101, #343, #703, #276, #434, #604, #443, #688, #512, #430, #179, #176, #1042 ),
 .UNSPECIFIED., .F., .F.,
 ( 4, 2, 2, 2, 2, 2, 2, 2, 2, 2, 2, 2, 2, 2, 2, 4 ),
 ( 0.009757895275441606092, 0.01036648620694743603, 0.01097507713845326596, 0.01158366806995909590, 0.01219225900146492583, 0.01280084993297075577, 0.01340944086447658744, 0.01401803179598241911, 0.01462662272748825078, 0.01523521365899408245, 0.01584380459049991585, 0.01706098645351158266, 0.01766957738501740913, 0.01827816831652323559, 0.01888675924802906553, 0.01949535017953489546 ),
 .UNSPECIFIED. ) ;
#525 = ORIENTED_EDGE ( 'NONE', *, *, #367, .T. ) ;
#526 = CARTESIAN_POINT ( 'NONE',  ( 18.00000000000000355, 10.00000000000000355, 4.000000000000000000 ) ) ;
#527 = CARTESIAN_POINT ( 'NONE',  ( 7.616905768734073767, 13.52140689459618095, -4.667906820053985939 ) ) ;
#528 = VECTOR ( 'NONE', #1056, 1000.000000000000000 ) ;
#529 = ORIENTED_EDGE ( 'NONE', *, *, #736, .T. ) ;
#530 = LINE ( 'NONE', #178, #80 ) ;
#531 = FACE_OUTER_BOUND ( 'NONE', #771, .T. ) ;
#532 = FACE_OUTER_BOUND ( 'NONE', #522, .T. ) ;
#533 = ADVANCED_FACE ( 'NONE', ( #158 ), #935, .F. ) ;
#534 = CIRCLE ( 'NONE', #930, 8.000000000000000000 ) ;
#535 = ORIENTED_EDGE ( 'NONE', *, *, #633, .F. ) ;
#536 = ADVANCED_FACE ( 'NONE', ( #837 ), #66, .F. ) ;
#537 = PLANE ( 'NONE',  #1000 ) ;
#538 = DIRECTION ( 'NONE',  ( -0.000000000000000000, -0.000000000000000000, -1.000000000000000000 ) ) ;
#539 = ORIENTED_EDGE ( 'NONE', *, *, #834, .T. ) ;
#540 = SURFACE_STYLE_FILL_AREA ( #197 ) ;
#541 = AXIS2_PLACEMENT_3D ( 'NONE', #306, #475, #816 ) ;
#542 = APPLICATION_CONTEXT ( 'automotive_design' ) ;
#543 = ADVANCED_FACE ( 'NONE', ( #762 ), #72, .F. ) ;
#544 = ORIENTED_EDGE ( 'NONE', *, *, #789, .T. ) ;
#545 = CARTESIAN_POINT ( 'NONE',  ( 13.87678242621269931, 11.75943173956174270, -7.754395903805694878 ) ) ;
#546 = CARTESIAN_POINT ( 'NONE',  ( 1.000000000000002665, 10.00000000000000178, 4.000000000000000000 ) ) ;
#547 = VECTOR ( 'NONE', #381, 1000.000000000000000 ) ;
#548 = CARTESIAN_POINT ( 'NONE',  ( 0.000000000000000000, 40.00000000000000000, 5.500000000000000000 ) ) ;
#549 = ADVANCED_FACE ( 'NONE', ( #1092 ), #755, .F. ) ;
#550 = AXIS2_PLACEMENT_3D ( 'NONE', #1079, #815, #311 ) ;
#551 = EDGE_LOOP ( 'NONE', ( #1017, #614 ) ) ;
#552 = CARTESIAN_POINT ( 'NONE',  ( 9.622238803721804956, 14.23729827530417502, -11.84516466056888717 ) ) ;
#553 = CARTESIAN_POINT ( 'NONE',  ( 0.000000000000000000, 20.00000000000000000, 5.500000000000000000 ) ) ;
#554 = CARTESIAN_POINT ( 'NONE',  ( 11.36445627791303004, 14.02949843144468467, -3.820879702354851748 ) ) ;
#555 = FACE_OUTER_BOUND ( 'NONE', #696, .T. ) ;
#556 = ORIENTED_EDGE ( 'NONE', *, *, #756, .F. ) ;
#557 = CARTESIAN_POINT ( 'NONE',  ( 12.21882848630257357, 13.63612181029384018, -10.62566040419983437 ) ) ;
#558 = CYLINDRICAL_SURFACE ( 'NONE', #45, 4.000000000000000000 ) ;
#559 = VECTOR ( 'NONE', #855, 1000.000000000000000 ) ;
#560 = DIRECTION ( 'NONE',  ( 0.000000000000000000, 1.734723475976807094E-15, 1.000000000000000000 ) ) ;
#561 = AXIS2_PLACEMENT_3D ( 'NONE', #640, #978, #731 ) ;
#562 = CARTESIAN_POINT ( 'NONE',  ( 0.000000000000000000, 0.000000000000000000, 4.000000000000000000 ) ) ;
#563 = VERTEX_POINT ( 'NONE', #500 ) ;
#564 = DIRECTION ( 'NONE',  ( -1.000000000000000000, 0.000000000000000000, 0.000000000000000000 ) ) ;
#565 = CYLINDRICAL_SURFACE ( 'NONE', #1018, 4.250000000000000000 ) ;
#566 = DIRECTION ( 'NONE',  ( 1.000000000000000000, 0.000000000000000000, -0.000000000000000000 ) ) ;
#567 = ADVANCED_FACE ( 'NONE', ( #414 ), #332, .F. ) ;
#568 = SURFACE_STYLE_FILL_AREA ( #928 ) ;
#569 = DIRECTION ( 'NONE',  ( 0.000000000000000000, 0.000000000000000000, -1.000000000000000000 ) ) ;
#570 = VERTEX_POINT ( 'NONE', #397 ) ;
#571 = CIRCLE ( 'NONE', #27, 2.249999999999998668 ) ;
#572 = CARTESIAN_POINT ( 'NONE',  ( 13.03566752996221112, 12.98482950259541724, -9.501840463071600240 ) ) ;
#573 = LINE ( 'NONE', #51, #1033 ) ;
#574 = ADVANCED_FACE ( 'NONE', ( #404 ), #391, .F. ) ;
#575 = CARTESIAN_POINT ( 'NONE',  ( 1.000000000000002665, 10.00000000000000178, 5.500000000000000000 ) ) ;
#576 = DIRECTION ( 'NONE',  ( -0.000000000000000000, 0.000000000000000000, -1.000000000000000000 ) ) ;
#577 = UNCERTAINTY_MEASURE_WITH_UNIT (LENGTH_MEASURE( 1.000000000000000082E-05 ), #690, 'distance_accuracy_value', 'NONE');
#578 = CYLINDRICAL_SURFACE ( 'NONE', #185, 1.599999999999999867 ) ;
#579 = ORIENTED_EDGE ( 'NONE', *, *, #892, .T. ) ;
#580 = ORIENTED_EDGE ( 'NONE', *, *, #952, .T. ) ;
#581 = CARTESIAN_POINT ( 'NONE',  ( 5.750000000000001776, 9.775163490890852458, -5.577596503617919588 ) ) ;
#582 = CARTESIAN_POINT ( 'NONE',  ( 10.00000000000000178, 10.00000000000000178, -1.000000000000000000 ) ) ;
#583 = LINE ( 'NONE', #510, #559 ) ;
#584 = DIRECTION ( 'NONE',  ( 0.000000000000000000, -0.000000000000000000, 1.000000000000000000 ) ) ;
#585 = EDGE_CURVE ( 'NONE', #791, #959, #571, .T. ) ;
#586 = VERTEX_POINT ( 'NONE', #546 ) ;
#587 = CARTESIAN_POINT ( 'NONE',  ( 10.00000000000000000, 30.00000000000000000, 0.000000000000000000 ) ) ;
#588 = CARTESIAN_POINT ( 'NONE',  ( 0.000000000000000000, 40.00000000000000000, 5.500000000000000000 ) ) ;
#589 = DIRECTION ( 'NONE',  ( 1.000000000000000000, 0.000000000000000000, 0.000000000000000000 ) ) ;
#590 = EDGE_LOOP ( 'NONE', ( #642, #273 ) ) ;
#591 = AXIS2_PLACEMENT_3D ( 'NONE', #710, #365, #611 ) ;
#592 = EDGE_CURVE ( 'NONE', #323, #166, #321, .T. ) ;
#593 = CARTESIAN_POINT ( 'NONE',  ( 6.599955701464553570, 7.434581797834040273, -3.675083253104240111 ) ) ;
#594 = FACE_OUTER_BOUND ( 'NONE', #691, .T. ) ;
#595 = CARTESIAN_POINT ( 'NONE',  ( 21.00000000000000000, 40.00000000000000000, -0.5000000000000156541 ) ) ;
#596 = EDGE_LOOP ( 'NONE', ( #1038, #845 ) ) ;
#597 = ORIENTED_EDGE ( 'NONE', *, *, #263, .T. ) ;
#598 = DIRECTION ( 'NONE',  ( 0.000000000000000000, -0.000000000000000000, 1.000000000000000000 ) ) ;
#599 = CARTESIAN_POINT ( 'NONE',  ( 10.00000000000000178, 10.00000000000000178, -21.00000000000000000 ) ) ;
#600 = VERTEX_POINT ( 'NONE', #809 ) ;
#601 = DIRECTION ( 'NONE',  ( 0.000000000000000000, 0.000000000000000000, -1.000000000000000000 ) ) ;
#602 = AXIS2_PLACEMENT_3D ( 'NONE', #811, #1069, #902 ) ;
#603 = PLANE ( 'NONE',  #5 ) ;
#604 = CARTESIAN_POINT ( 'NONE',  ( 8.149719551577204513, 13.83001377923225661, -8.869288539047742503 ) ) ;
#605 = ADVANCED_FACE ( 'NONE', ( #52, #970 ), #742, .F. ) ;
#606 = DIRECTION ( 'NONE',  ( -0.000000000000000000, -0.000000000000000000, -1.000000000000000000 ) ) ;
#607 = ORIENTED_EDGE ( 'NONE', *, *, #756, .T. ) ;
#608 = CARTESIAN_POINT ( 'NONE',  ( 7.020987741179527397, 13.03169971997923682, -6.091873730460216407 ) ) ;
#609 = AXIS2_PLACEMENT_3D ( 'NONE', #847, #143, #720 ) ;
#610 = DIRECTION ( 'NONE',  ( 0.000000000000000000, 0.000000000000000000, 1.000000000000000000 ) ) ;
#611 = DIRECTION ( 'NONE',  ( 0.000000000000000000, 0.000000000000000000, -1.000000000000000000 ) ) ;
#612 = ORIENTED_EDGE ( 'NONE', *, *, #869, .T. ) ;
#613 = CARTESIAN_POINT ( 'NONE',  ( 8.467493700225306341, 13.96784577395183646, -3.913828837874754107 ) ) ;
#614 = ORIENTED_EDGE ( 'NONE', *, *, #431, .F. ) ;
#615 = AXIS2_PLACEMENT_3D ( 'NONE', #922, #848, #424 ) ;
#616 = EDGE_CURVE ( 'NONE', #175, #853, #907, .T. ) ;
#617 = ORIENTED_EDGE ( 'NONE', *, *, #16, .T. ) ;
#618 = DIRECTION ( 'NONE',  ( -0.000000000000000000, -0.000000000000000000, 1.000000000000000000 ) ) ;
#619 = CYLINDRICAL_SURFACE ( 'NONE', #334, 8.000000000000001776 ) ;
#620 = ORIENTED_EDGE ( 'NONE', *, *, #915, .T. ) ;
#621 = DIRECTION ( 'NONE',  ( -1.000000000000000000, 0.000000000000000000, 0.000000000000000000 ) ) ;
#622 = FACE_OUTER_BOUND ( 'NONE', #817, .T. ) ;
#623 = VECTOR ( 'NONE', #473, 1000.000000000000000 ) ;
#624 = VERTEX_POINT ( 'NONE', #487 ) ;
#625 = CIRCLE ( 'NONE', #10, 20.00000000000000355 ) ;
#626 = VECTOR ( 'NONE', #618, 1000.000000000000000 ) ;
#627 = ORIENTED_EDGE ( 'NONE', *, *, #856, .T. ) ;
#628 = CARTESIAN_POINT ( 'NONE',  ( 20.00000000000000000, 40.00000000000000000, 0.000000000000000000 ) ) ;
#629 = DIRECTION ( 'NONE',  ( 1.000000000000000000, 0.000000000000000000, -0.000000000000000000 ) ) ;
#630 = EDGE_CURVE ( 'NONE', #400, #355, #807, .T. ) ;
#631 = AXIS2_PLACEMENT_3D ( 'NONE', #164, #78, #1005 ) ;
#632 = CARTESIAN_POINT ( 'NONE',  ( 6.126736366431381420, 11.76720588060959649, -7.764300505822913756 ) ) ;
#633 = EDGE_CURVE ( 'NONE', #570, #586, #820, .T. ) ;
#634 = PRODUCT_DEFINITION_SHAPE ( 'NONE', 'NONE',  #521 ) ;
#635 = CARTESIAN_POINT ( 'NONE',  ( 10.00000000000000000, 30.00000000000000000, -14.50000000000000000 ) ) ;
#636 = ORIENTED_EDGE ( 'NONE', *, *, #454, .T. ) ;
#637 = CARTESIAN_POINT ( 'NONE',  ( 10.00000000000000000, 17.50000000000000000, -6.500000000000000000 ) ) ;
#638 = FILL_AREA_STYLE_COLOUR ( '', #229 ) ;
#639 = DIRECTION ( 'NONE',  ( 1.000000000000000000, 0.000000000000000000, 0.000000000000000000 ) ) ;
#640 = CARTESIAN_POINT ( 'NONE',  ( 20.00000000000000000, 43.97974164148261167, -20.10004225676693324 ) ) ;
#641 = AXIS2_PLACEMENT_3D ( 'NONE', #1046, #975, #712 ) ;
#642 = ORIENTED_EDGE ( 'NONE', *, *, #1076, .T. ) ;
#643 = CARTESIAN_POINT ( 'NONE',  ( 9.812491760039215194, 14.25035130295669106, -11.87424673313744172 ) ) ;
#644 = FACE_OUTER_BOUND ( 'NONE', #508, .T. ) ;
#645 = CARTESIAN_POINT ( 'NONE',  ( 12.89781007001588975, 13.10939370680408622, -7.301767203870097589 ) ) ;
#646 = LINE ( 'NONE', #562, #243 ) ;
#647 = ORIENTED_EDGE ( 'NONE', *, *, #749, .T. ) ;
#648 = DIRECTION ( 'NONE',  ( -0.000000000000000000, -1.000000000000000000, -0.000000000000000000 ) ) ;
#649 = CARTESIAN_POINT ( 'NONE',  ( 20.00000000000000000, 16.00000000000000000, -21.00000000000000000 ) ) ;
#650 = CARTESIAN_POINT ( 'NONE',  ( 11.53356434336919278, 13.96739847202861462, -3.914528408223779898 ) ) ;
#651 = VECTOR ( 'NONE', #41, 1000.000000000000000 ) ;
#652 = CARTESIAN_POINT ( 'NONE',  ( 10.00000000000000000, 20.00000000000000000, -4.899999999999999467 ) ) ;
#653 = ADVANCED_FACE ( 'NONE', ( #829 ), #460, .F. ) ;
#654 = VERTEX_POINT ( 'NONE', #447 ) ;
#655 = EDGE_LOOP ( 'NONE', ( #427, #917, #612, #316, #515, #111, #1013, #449 ) ) ;
#656 = LINE ( 'NONE', #141, #932 ) ;
#657 = LINE ( 'NONE', #649, #623 ) ;
#658 = CARTESIAN_POINT ( 'NONE',  ( 10.00000000000000000, 30.00000000000000000, 5.500000000000000000 ) ) ;
#659 = VECTOR ( 'NONE', #1047, 1000.000000000000000 ) ;
#660 = LINE ( 'NONE', #1006, #920 ) ;
#661 = FACE_OUTER_BOUND ( 'NONE', #986, .T. ) ;
#662 = ORIENTED_EDGE ( 'NONE', *, *, #772, .T. ) ;
#663 = AXIS2_PLACEMENT_3D ( 'NONE', #376, #750, #319 ) ;
#664 = CARTESIAN_POINT ( 'NONE',  ( 6.967840742059212111, 7.008732372640022135, -3.387188021469920152 ) ) ;
#665 = CARTESIAN_POINT ( 'NONE',  ( 10.00000000000000000, 17.50000000000000000, -9.499999999999998224 ) ) ;
#666 = DIRECTION ( 'NONE',  ( 0.000000000000000000, 0.000000000000000000, -1.000000000000000000 ) ) ;
#667 = LINE ( 'NONE', #257, #468 ) ;
#668 = EDGE_CURVE ( 'NONE', #851, #732, #1089, .T. ) ;
#669 = DIRECTION ( 'NONE',  ( 1.000000000000000000, 0.000000000000000000, 0.000000000000000000 ) ) ;
#670 = ORIENTED_EDGE ( 'NONE', *, *, #132, .T. ) ;
#671 = CARTESIAN_POINT ( 'NONE',  ( 13.03629618893689646, 7.012713546092324002, -3.389766183844283187 ) ) ;
#672 = CARTESIAN_POINT ( 'NONE',  ( 10.00000000000000178, 10.00000000000000178, -1.000000000000000000 ) ) ;
#673 = PLANE ( 'NONE',  #435 ) ;
#674 = EDGE_CURVE ( 'NONE', #220, #769, #26, .T. ) ;
#675 = ORIENTED_EDGE ( 'NONE', *, *, #114, .F. ) ;
#676 = CARTESIAN_POINT ( 'NONE',  ( 10.00000000000000000, 20.00000000000000000, -6.500000000000000000 ) ) ;
#677 = CARTESIAN_POINT ( 'NONE',  ( 10.00000000000000000, 17.50000000000000000, -8.099999999999999645 ) ) ;
#678 = CARTESIAN_POINT ( 'NONE',  ( 7.750000000000001776, 30.00000000000000000, -14.50000000000000000 ) ) ;
#679 = UNCERTAINTY_MEASURE_WITH_UNIT (LENGTH_MEASURE( 1.000000000000000082E-05 ), #113, 'distance_accuracy_value', 'NONE');
#680 = VERTEX_POINT ( 'NONE', #364 ) ;
#681 = CARTESIAN_POINT ( 'NONE',  ( 12.82771601206176726, 6.813751129587108935, -3.261247581471138357 ) ) ;
#682 = VECTOR ( 'NONE', #297, 1000.000000000000000 ) ;
#683 = STYLED_ITEM ( 'NONE', ( #1053 ), #724 ) ;
#684 = DIRECTION ( 'NONE',  ( -0.000000000000000000, 0.000000000000000000, -1.000000000000000000 ) ) ;
#685 = CARTESIAN_POINT ( 'NONE',  ( 21.00000000000000000, 39.99999999999999289, -0.5000000000000143219 ) ) ;
#686 = ADVANCED_FACE ( 'NONE', ( #1059, #531, #961 ), #704, .T. ) ;
#687 = FACE_BOUND ( 'NONE', #759, .T. ) ;
#688 = CARTESIAN_POINT ( 'NONE',  ( 8.637276504489285855, 14.03003218783521255, -9.179914911833435553 ) ) ;
#689 = ORIENTED_EDGE ( 'NONE', *, *, #112, .F. ) ;
#690 =( LENGTH_UNIT ( ) NAMED_UNIT ( * ) SI_UNIT ( .MILLI., .METRE. ) );
#691 = EDGE_LOOP ( 'NONE', ( #700, #511, #471, #782, #1022, #70 ) ) ;
#692 = CARTESIAN_POINT ( 'NONE',  ( 10.00000000000000178, 10.00000000000000178, 5.500000000000000000 ) ) ;
#693 = DIRECTION ( 'NONE',  ( 1.000000000000000000, 0.000000000000000000, 0.000000000000000000 ) ) ;
#694 = CIRCLE ( 'NONE', #498, 2.999999999999998224 ) ;
#695 = DIRECTION ( 'NONE',  ( 0.000000000000000000, 0.000000000000000000, 1.000000000000000000 ) ) ;
#696 = EDGE_LOOP ( 'NONE', ( #903, #647, #860, #897, #931, #800, #28, #773 ) ) ;
#697 = CARTESIAN_POINT ( 'NONE',  ( 9.003856539074135412, 14.13593846876890758, -3.663318879764019709 ) ) ;
#698 = EDGE_CURVE ( 'NONE', #42, #98, #792, .T. ) ;
#699 = ORIENTED_EDGE ( 'NONE', *, *, #668, .T. ) ;
#700 = ORIENTED_EDGE ( 'NONE', *, *, #869, .F. ) ;
#701 = CARTESIAN_POINT ( 'NONE',  ( 20.00000000000000000, 20.00000000000000000, -21.00000000000000000 ) ) ;
#702 = CARTESIAN_POINT ( 'NONE',  ( 10.00000000000000178, 10.00000000000000178, 4.000000000000000000 ) ) ;
#703 = CARTESIAN_POINT ( 'NONE',  ( 7.388605134226915894, 13.35893500571639336, -8.026358050832907765 ) ) ;
#704 = PLANE ( 'NONE',  #119 ) ;
#705 = DIRECTION ( 'NONE',  ( 0.000000000000000000, -0.000000000000000000, 1.000000000000000000 ) ) ;
#706 = ORIENTED_EDGE ( 'NONE', *, *, #971, .T. ) ;
#707 = ORIENTED_EDGE ( 'NONE', *, *, #186, .T. ) ;
#708 = AXIS2_PLACEMENT_3D ( 'NONE', #368, #107, #358 ) ;
#709 = FACE_BOUND ( 'NONE', #590, .T. ) ;
#710 = CARTESIAN_POINT ( 'NONE',  ( 0.000000000000000000, -3.979741641482624104, -20.10004225676693324 ) ) ;
#711 = ORIENTED_EDGE ( 'NONE', *, *, #114, .T. ) ;
#712 = DIRECTION ( 'NONE',  ( 1.000000000000000000, 0.000000000000000000, 0.000000000000000000 ) ) ;
#713 = EDGE_CURVE ( 'NONE', #624, #563, #177, .T. ) ;
#714 = DIRECTION ( 'NONE',  ( -1.000000000000000000, -0.000000000000000000, 0.000000000000000000 ) ) ;
#715 = VERTEX_POINT ( 'NONE', #628 ) ;
#716 = AXIS2_PLACEMENT_3D ( 'NONE', #692, #1031, #261 ) ;
#717 = ADVANCED_FACE ( 'NONE', ( #709, #966 ), #537, .F. ) ;
#718 = LINE ( 'NONE', #395, #138 ) ;
#719 = CARTESIAN_POINT ( 'NONE',  ( 18.00000000000000355, 10.00000000000000355, 0.000000000000000000 ) ) ;
#720 = DIRECTION ( 'NONE',  ( 0.000000000000000000, 0.000000000000000000, 1.000000000000000000 ) ) ;
#721 = VECTOR ( 'NONE', #875, 1000.000000000000000 ) ;
#722 = LINE ( 'NONE', #215, #870 ) ;
#723 = VERTEX_POINT ( 'NONE', #195 ) ;
#724 = MANIFOLD_SOLID_BREP ( 'Fillet1', #832 ) ;
#725 = CARTESIAN_POINT ( 'NONE',  ( 0.000000000000000000, 19.81920241085422774, -21.00000000000000000 ) ) ;
#726 = LINE ( 'NONE', #734, #408 ) ;
#727 = DIRECTION ( 'NONE',  ( 0.000000000000000000, 0.000000000000000000, -1.000000000000000000 ) ) ;
#728 = CIRCLE ( 'NONE', #384, 8.000000000000000000 ) ;
#729 = AXIS2_PLACEMENT_3D ( 'NONE', #637, #380, #477 ) ;
#730 = ADVANCED_FACE ( 'NONE', ( #1040 ), #31, .F. ) ;
#731 = DIRECTION ( 'NONE',  ( 0.000000000000000000, 0.000000000000000000, 1.000000000000000000 ) ) ;
#732 = VERTEX_POINT ( 'NONE', #719 ) ;
#733 = CARTESIAN_POINT ( 'NONE',  ( 11.70377405064521881, 13.89659978247893690, -11.13049353311399514 ) ) ;
#734 = CARTESIAN_POINT ( 'NONE',  ( 21.00000000000000000, 24.14728826453524846, -17.51667370946115554 ) ) ;
#735 = CARTESIAN_POINT ( 'NONE',  ( 10.99817184705872641, 14.13542700695241194, -9.335934133776103039 ) ) ;
#736 = EDGE_CURVE ( 'NONE', #835, #723, #206, .T. ) ;
#737 = DIRECTION ( 'NONE',  ( -0.000000000000000000, -1.000000000000000000, -0.000000000000000000 ) ) ;
#738 = ORIENTED_EDGE ( 'NONE', *, *, #674, .T. ) ;
#739 = CARTESIAN_POINT ( 'NONE',  ( 10.20310875969218323, 14.24963438078326483, -11.87265806746979280 ) ) ;
#740 = DIRECTION ( 'NONE',  ( 0.000000000000000000, 0.000000000000000000, 1.000000000000000000 ) ) ;
#741 = ORIENTED_EDGE ( 'NONE', *, *, #713, .T. ) ;
#742 = PLANE ( 'NONE',  #550 ) ;
#743 = LINE ( 'NONE', #678, #795 ) ;
#744 = AXIS2_PLACEMENT_3D ( 'NONE', #348, #610, #693 ) ;
#745 = LINE ( 'NONE', #1082, #651 ) ;
#746 = EDGE_LOOP ( 'NONE', ( #108, #1090 ) ) ;
#747 = CARTESIAN_POINT ( 'NONE',  ( 6.640486270935380020, 12.61514545898620554, -8.931798087758066274 ) ) ;
#748 = DIRECTION ( 'NONE',  ( -1.000000000000000000, 0.000000000000000000, 0.000000000000000000 ) ) ;
#749 = EDGE_CURVE ( 'NONE', #938, #166, #1052, .T. ) ;
#750 = DIRECTION ( 'NONE',  ( -1.000000000000000000, 0.000000000000000000, -0.000000000000000000 ) ) ;
#751 = CARTESIAN_POINT ( 'NONE',  ( 21.00000000000000000, 20.18079758914577937, -21.00000000000000000 ) ) ;
#752 = VERTEX_POINT ( 'NONE', #701 ) ;
#753 = AXIS2_PLACEMENT_3D ( 'NONE', #1087, #33, #727 ) ;
#754 = CARTESIAN_POINT ( 'NONE',  ( 20.00000000000000000, 39.99999999999999289, -0.5000000000000143219 ) ) ;
#755 = CYLINDRICAL_SURFACE ( 'NONE', #341, 6.000000000000001776 ) ;
#756 = EDGE_CURVE ( 'NONE', #563, #624, #160, .T. ) ;
#757 = DIRECTION ( 'NONE',  ( -1.000000000000000000, 0.000000000000000000, 0.000000000000000000 ) ) ;
#758 =( NAMED_UNIT ( * ) PLANE_ANGLE_UNIT ( ) SI_UNIT ( $, .RADIAN. ) );
#759 = EDGE_LOOP ( 'NONE', ( #63, #579 ) ) ;
#760 = ORIENTED_EDGE ( 'NONE', *, *, #499, .F. ) ;
#761 = CARTESIAN_POINT ( 'NONE',  ( 5.844514754155943237, 9.077681088487699057, -4.947426048055467263 ) ) ;
#762 = FACE_OUTER_BOUND ( 'NONE', #62, .T. ) ;
#763 = ORIENTED_EDGE ( 'NONE', *, *, #592, .T. ) ;
#764 = LINE ( 'NONE', #927, #1100 ) ;
#765 = CIRCLE ( 'NONE', #77, 9.000000000000001776 ) ;
#766 = ORIENTED_EDGE ( 'NONE', *, *, #231, .F. ) ;
#767 = CARTESIAN_POINT ( 'NONE',  ( 11.96635848831028781, 6.229110238705269254, -2.901634303724330621 ) ) ;
#768 = DIRECTION ( 'NONE',  ( -0.000000000000000000, -0.000000000000000000, 1.000000000000000000 ) ) ;
#769 = VERTEX_POINT ( 'NONE', #309 ) ;
#770 = DIRECTION ( 'NONE',  ( -0.000000000000000000, -0.000000000000000000, 1.000000000000000000 ) ) ;
#771 = EDGE_LOOP ( 'NONE', ( #580, #689, #484, #936 ) ) ;
#772 = EDGE_CURVE ( 'NONE', #406, #983, #534, .T. ) ;
#773 = ORIENTED_EDGE ( 'NONE', *, *, #499, .T. ) ;
#774 = VECTOR ( 'NONE', #227, 1000.000000000000000 ) ;
#775 = CARTESIAN_POINT ( 'NONE',  ( 10.00000000000000000, 14.25000000000000178, -3.500000000000000444 ) ) ;
#776 = CARTESIAN_POINT ( 'NONE',  ( 21.00000000000000000, 40.00000000000000000, 5.500000000000000000 ) ) ;
#777 = CARTESIAN_POINT ( 'NONE',  ( 2.000000000000000000, 10.00000000000000178, 4.000000000000000000 ) ) ;
#778 = AXIS2_PLACEMENT_3D ( 'NONE', #672, #842, #942 ) ;
#779 = ORIENTED_EDGE ( 'NONE', *, *, #174, .T. ) ;
#780 = CARTESIAN_POINT ( 'NONE',  ( 16.00000000000000355, 10.00000000000000178, -1.000000000000000000 ) ) ;
#781 = ADVANCED_FACE ( 'NONE', ( #1086 ), #558, .T. ) ;
#782 = ORIENTED_EDGE ( 'NONE', *, *, #863, .T. ) ;
#783 = CARTESIAN_POINT ( 'NONE',  ( 0.000000000000000000, 0.000000000000000000, -0.5000000000000017764 ) ) ;
#784 = VERTEX_POINT ( 'NONE', #665 ) ;
#785 = DIRECTION ( 'NONE',  ( -0.000000000000000000, -0.000000000000000000, 1.000000000000000000 ) ) ;
#786 = AXIS2_PLACEMENT_3D ( 'NONE', #587, #598, #492 ) ;
#787 = CARTESIAN_POINT ( 'NONE',  ( 21.00000000000000000, 0.000000000000000000, 5.500000000000000000 ) ) ;
#788 = CARTESIAN_POINT ( 'NONE',  ( 9.796373081731095667, 14.25000000000000533, -3.499999999999999112 ) ) ;
#789 = EDGE_CURVE ( 'NONE', #784, #400, #130, .T. ) ;
#790 = AXIS2_PLACEMENT_3D ( 'NONE', #188, #278, #621 ) ;
#791 = VERTEX_POINT ( 'NONE', #478 ) ;
#792 = LINE ( 'NONE', #553, #264 ) ;
#793 = CYLINDRICAL_SURFACE ( 'NONE', #591, 19.99999999999999645 ) ;
#794 = EDGE_LOOP ( 'NONE', ( #155, #103, #808, #394 ) ) ;
#795 = VECTOR ( 'NONE', #1016, 1000.000000000000000 ) ;
#796 = CARTESIAN_POINT ( 'NONE',  ( 10.00000000000000178, 10.00000000000000178, 5.500000000000000000 ) ) ;
#797 = DIRECTION ( 'NONE',  ( 0.000000000000000000, 0.000000000000000000, 1.000000000000000000 ) ) ;
#798 = EDGE_CURVE ( 'NONE', #752, #412, #657, .T. ) ;
#799 = LINE ( 'NONE', #187, #22 ) ;
#800 = ORIENTED_EDGE ( 'NONE', *, *, #458, .F. ) ;
#801 = CARTESIAN_POINT ( 'NONE',  ( 13.50943220140552192, 12.41008655180838360, -8.632470458988050765 ) ) ;
#802 = CARTESIAN_POINT ( 'NONE',  ( 12.83753398675683677, 13.16556598609741080, -7.492947024212538665 ) ) ;
#803 = DIRECTION ( 'NONE',  ( 0.000000000000000000, 1.000000000000000000, 0.000000000000000000 ) ) ;
#804 = ORIENTED_EDGE ( 'NONE', *, *, #450, .T. ) ;
#805 = CARTESIAN_POINT ( 'NONE',  ( 11.83776081262621105, 13.83479538089140526, -11.00812772579839915 ) ) ;
#806 = DIRECTION ( 'NONE',  ( 0.000000000000000000, 0.000000000000000000, -1.000000000000000000 ) ) ;
#807 = B_SPLINE_CURVE_WITH_KNOTS ( 'NONE', 3,
 ( #474, #1067, #202, #46, #735, #137, #889, #461, #382, #298, #997, #901, #221, #802, #645, #1060, #1073, #469, #984, #977, #213, #131, #304, #906, #60, #207, #292, #650, #554, #895, #125, #40, #990, #479 ),
 .UNSPECIFIED., .F., .F.,
 ( 4, 2, 2, 2, 2, 2, 2, 2, 2, 2, 2, 2, 2, 2, 2, 2, 4 ),
 ( 1.734723475976806902E-18, 0.0006098684547151020071, 0.001219736909430202279, 0.001829605364145302660, 0.002439473818860402824, 0.003049342273575502988, 0.003659210728290603586, 0.004269079183005703750, 0.004878947637720803913, 0.005488816092435904077, 0.006098684547151004241, 0.006708553001866104405, 0.007318421456581205436, 0.007928289911296305600, 0.008538158366011405764, 0.009148026820726505928, 0.009757895275441606092 ),
 .UNSPECIFIED. ) ;
#808 = ORIENTED_EDGE ( 'NONE', *, *, #431, .T. ) ;
#809 = CARTESIAN_POINT ( 'NONE',  ( 10.00000000000000000, 20.00000000000000000, -8.099999999999999645 ) ) ;
#810 = EDGE_CURVE ( 'NONE', #924, #715, #996, .T. ) ;
#811 = CARTESIAN_POINT ( 'NONE',  ( 0.000000000000000000, 0.000000000000000000, 4.000000000000000000 ) ) ;
#812 = EDGE_LOOP ( 'NONE', ( #350, #617, #295, #760 ) ) ;
#813 = LINE ( 'NONE', #218, #250 ) ;
#814 = FACE_BOUND ( 'NONE', #551, .T. ) ;
#815 = DIRECTION ( 'NONE',  ( 0.000000000000000000, 0.000000000000000000, -1.000000000000000000 ) ) ;
#816 = DIRECTION ( 'NONE',  ( -1.000000000000000000, 0.000000000000000000, 0.000000000000000000 ) ) ;
#817 = EDGE_LOOP ( 'NONE', ( #419, #738, #804, #361 ) ) ;
#818 = DIRECTION ( 'NONE',  ( -1.000000000000000000, -0.000000000000000000, -0.000000000000000000 ) ) ;
#819 = CARTESIAN_POINT ( 'NONE',  ( 21.00000000000000000, 19.81920241085422774, -21.00000000000000000 ) ) ;
#820 = LINE ( 'NONE', #575, #774 ) ;
#821 = FACE_OUTER_BOUND ( 'NONE', #463, .T. ) ;
#822 = SURFACE_STYLE_USAGE ( .BOTH. , #992 ) ;
#823 = FACE_OUTER_BOUND ( 'NONE', #862, .T. ) ;
#824 = ADVANCED_FACE ( 'NONE', ( #644, #814 ), #565, .F. ) ;
#825 = ORIENTED_EDGE ( 'NONE', *, *, #450, .F. ) ;
#826 = CARTESIAN_POINT ( 'NONE',  ( 8.308983463118931212, 13.90219822465091326, -11.14166073736681817 ) ) ;
#827 = AXIS2_PLACEMENT_3D ( 'NONE', #1015, #428, #493 ) ;
#828 = CARTESIAN_POINT ( 'NONE',  ( 0.000000000000000000, 20.00000000000000000, -21.00000000000000000 ) ) ;
#829 = FACE_OUTER_BOUND ( 'NONE', #339, .T. ) ;
#830 = CARTESIAN_POINT ( 'NONE',  ( 0.000000000000000000, 15.85271173546474976, -17.51667370946115554 ) ) ;
#831 =( NAMED_UNIT ( * ) PLANE_ANGLE_UNIT ( ) SI_UNIT ( $, .RADIAN. ) );
#832 = CLOSED_SHELL ( 'NONE', ( #65, #1044, #574, #549, #653, #1061, #543, #100, #210, #254, #824, #156, #730, #686, #436, #605, #536, #383, #518, #1095, #533, #934, #172, #717, #370, #293, #198, #567, #73, #781, #467 ) ) ;
#833 = ORIENTED_EDGE ( 'NONE', *, *, #1049, .T. ) ;
#834 = EDGE_CURVE ( 'NONE', #315, #909, #726, .T. ) ;
#835 = VERTEX_POINT ( 'NONE', #44 ) ;
#836 = CARTESIAN_POINT ( 'NONE',  ( 5.750000000000001776, 10.00000000000000355, -5.797356367836955293 ) ) ;
#837 = FACE_OUTER_BOUND ( 'NONE', #874, .T. ) ;
#838 = DIRECTION ( 'NONE',  ( 0.000000000000000000, 0.000000000000000000, -1.000000000000000000 ) ) ;
#839 = EDGE_LOOP ( 'NONE', ( #3, #1002 ) ) ;
#840 = AXIS2_PLACEMENT_3D ( 'NONE', #796, #283, #371 ) ;
#841 = DIRECTION ( 'NONE',  ( 0.000000000000000000, 0.000000000000000000, -1.000000000000000000 ) ) ;
#842 = DIRECTION ( 'NONE',  ( -0.000000000000000000, -0.000000000000000000, 1.000000000000000000 ) ) ;
#843 = DIRECTION ( 'NONE',  ( 0.000000000000000000, 1.445602896647339163E-16, -1.000000000000000000 ) ) ;
#844 = UNCERTAINTY_MEASURE_WITH_UNIT (LENGTH_MEASURE( 1.000000000000000082E-05 ), #872, 'distance_accuracy_value', 'NONE');
#845 = ORIENTED_EDGE ( 'NONE', *, *, #882, .T. ) ;
#846 = CARTESIAN_POINT ( 'NONE',  ( 14.17922687761911504, 9.078420907083019742, -4.938987645081298616 ) ) ;
#847 = CARTESIAN_POINT ( 'NONE',  ( 21.00000000000000000, 43.97974164148261167, -20.10004225676693324 ) ) ;
#848 = DIRECTION ( 'NONE',  ( 0.000000000000000000, 0.000000000000000000, 1.000000000000000000 ) ) ;
#849 = CIRCLE ( 'NONE', #21, 2.999999999999998224 ) ;
#850 = EDGE_CURVE ( 'NONE', #723, #953, #976, .T. ) ;
#851 = VERTEX_POINT ( 'NONE', #136 ) ;
#852 = CIRCLE ( 'NONE', #744, 9.000000000000001776 ) ;
#853 = VERTEX_POINT ( 'NONE', #819 ) ;
#854 = CARTESIAN_POINT ( 'NONE',  ( 10.64197098709214373, 5.795771108459471854, -2.651839499052421445 ) ) ;
#855 = DIRECTION ( 'NONE',  ( -0.000000000000000000, -0.000000000000000000, -1.000000000000000000 ) ) ;
#856 = EDGE_CURVE ( 'NONE', #251, #924, #573, .T. ) ;
#857 = LINE ( 'NONE', #15, #898 ) ;
#858 = CIRCLE ( 'NONE', #517, 8.000000000000000000 ) ;
#859 = DIRECTION ( 'NONE',  ( 1.000000000000000000, 0.000000000000000000, 0.000000000000000000 ) ) ;
#860 = ORIENTED_EDGE ( 'NONE', *, *, #592, .F. ) ;
#861 = CARTESIAN_POINT ( 'NONE',  ( 7.162186524106899377, 13.16531022241253801, -5.507887732184347129 ) ) ;
#862 = EDGE_LOOP ( 'NONE', ( #972, #17, #864, #57, #1104, #196 ) ) ;
#863 = EDGE_CURVE ( 'NONE', #973, #752, #486, .T. ) ;
#864 = ORIENTED_EDGE ( 'NONE', *, *, #798, .F. ) ;
#865 = FACE_OUTER_BOUND ( 'NONE', #1036, .T. ) ;
#866 = DIRECTION ( 'NONE',  ( -0.000000000000000000, -0.000000000000000000, 1.000000000000000000 ) ) ;
#867 = VECTOR ( 'NONE', #1010, 1000.000000000000000 ) ;
#868 = EDGE_LOOP ( 'NONE', ( #94, #1039 ) ) ;
#869 = EDGE_CURVE ( 'NONE', #853, #411, #59, .T. ) ;
#870 = VECTOR ( 'NONE', #146, 1000.000000000000000 ) ;
#871 = DIRECTION ( 'NONE',  ( 0.000000000000000000, 0.000000000000000000, 1.000000000000000000 ) ) ;
#872 =( LENGTH_UNIT ( ) NAMED_UNIT ( * ) SI_UNIT ( .MILLI., .METRE. ) );
#873 = CARTESIAN_POINT ( 'NONE',  ( 7.102956684116287889, 13.11012174298986643, -5.694878198044155404 ) ) ;
#874 = EDGE_LOOP ( 'NONE', ( #115, #741, #307, #490 ) ) ;
#875 = DIRECTION ( 'NONE',  ( -1.000000000000000000, 0.000000000000000000, 0.000000000000000000 ) ) ;
#876 = VECTOR ( 'NONE', #910, 1000.000000000000000 ) ;
#877 = CARTESIAN_POINT ( 'NONE',  ( 0.000000000000000000, 0.000000000000000000, 5.500000000000000000 ) ) ;
#878 = CARTESIAN_POINT ( 'NONE',  ( 21.00000000000000000, 20.18079758914577937, -17.00000000000000000 ) ) ;
#879 = ORIENTED_EDGE ( 'NONE', *, *, #952, .F. ) ;
#880 = CARTESIAN_POINT ( 'NONE',  ( 10.00000000000000000, 32.50000000000000000, -4.899999999999999467 ) ) ;
#881 = DIRECTION ( 'NONE',  ( 1.000000000000000000, 0.000000000000000000, 0.000000000000000000 ) ) ;
#882 = EDGE_CURVE ( 'NONE', #246, #784, #694, .T. ) ;
#883 = ORIENTED_EDGE ( 'NONE', *, *, #979, .F. ) ;
#884 = SURFACE_SIDE_STYLE ('',( #540 ) ) ;
#885 = AXIS2_PLACEMENT_3D ( 'NONE', #372, #357, #287 ) ;
#886 = EDGE_CURVE ( 'NONE', #170, #345, #386, .T. ) ;
#887 = ORIENTED_EDGE ( 'NONE', *, *, #616, .F. ) ;
#888 = CARTESIAN_POINT ( 'NONE',  ( 7.789120272054482541, 13.64114072765456065, -10.63496495318110924 ) ) ;
#889 = CARTESIAN_POINT ( 'NONE',  ( 11.53202119032767392, 13.96809487549889361, -9.086577370015039179 ) ) ;
#890 = LINE ( 'NONE', #462, #39 ) ;
#891 = ORIENTED_EDGE ( 'NONE', *, *, #285, .F. ) ;
#892 = EDGE_CURVE ( 'NONE', #220, #600, #444, .T. ) ;
#893 = CARTESIAN_POINT ( 'NONE',  ( 5.776448097639781842, 10.54101324927951033, -6.341648106123818351 ) ) ;
#894 = CARTESIAN_POINT ( 'NONE',  ( 5.750000000000001776, 10.00000000000000178, -21.00000000000000000 ) ) ;
#895 = CARTESIAN_POINT ( 'NONE',  ( 10.99945462184698286, 14.13517702187223968, -3.664419466412705884 ) ) ;
#896 = PLANE ( 'NONE',  #602 ) ;
#897 = ORIENTED_EDGE ( 'NONE', *, *, #132, .F. ) ;
#898 = VECTOR ( 'NONE', #866, 1000.000000000000000 ) ;
#899 = CARTESIAN_POINT ( 'NONE',  ( 12.85411703642113679, 13.15982809174713530, -9.787901331183158860 ) ) ;
#900 = CARTESIAN_POINT ( 'NONE',  ( 10.00000000000000178, 10.00000000000000178, -1.000000000000000000 ) ) ;
#901 = CARTESIAN_POINT ( 'NONE',  ( 12.59557292027531261, 13.36784788483588216, -8.016141493019379283 ) ) ;
#902 = DIRECTION ( 'NONE',  ( 0.000000000000000000, 0.000000000000000000, -1.000000000000000000 ) ) ;
#903 = ORIENTED_EDGE ( 'NONE', *, *, #86, .F. ) ;
#904 = CARTESIAN_POINT ( 'NONE',  ( 6.492650521203073843, 12.41293696083714693, -8.636628031001578165 ) ) ;
#905 = CARTESIAN_POINT ( 'NONE',  ( 10.00000000000000178, 10.00000000000000178, -21.00000000000000000 ) ) ;
#906 = CARTESIAN_POINT ( 'NONE',  ( 12.38270475932003301, 13.52166653075054725, -4.667422256241575695 ) ) ;
#907 = CIRCLE ( 'NONE', #12, 4.000000000000000000 ) ;
#908 = DIRECTION ( 'NONE',  ( 0.000000000000000000, -1.000000000000000000, 0.000000000000000000 ) ) ;
#909 = VERTEX_POINT ( 'NONE', #163 ) ;
#910 = DIRECTION ( 'NONE',  ( 1.000000000000000000, 0.000000000000000000, 0.000000000000000000 ) ) ;
#911 = DIRECTION ( 'NONE',  ( 1.000000000000000000, -0.000000000000000000, -0.000000000000000000 ) ) ;
#912 = CARTESIAN_POINT ( 'NONE',  ( 21.00000000000000000, 19.81920241085422774, -17.00000000000000000 ) ) ;
#913 = DIRECTION ( 'NONE',  ( -1.000000000000000000, 0.000000000000000000, 0.000000000000000000 ) ) ;
#914 = APPLICATION_PROTOCOL_DEFINITION ( 'draft international standard', 'automotive_design', 1998, #542 ) ;
#915 = EDGE_CURVE ( 'NONE', #1097, #835, #191, .T. ) ;
#916 = DIRECTION ( 'NONE',  ( -0.000000000000000000, -0.000000000000000000, -1.000000000000000000 ) ) ;
#917 = ORIENTED_EDGE ( 'NONE', *, *, #616, .T. ) ;
#918 = ORIENTED_EDGE ( 'NONE', *, *, #20, .T. ) ;
#919 = CARTESIAN_POINT ( 'NONE',  ( 10.32675403426649652, 5.759610970462414770, -2.631629630005560383 ) ) ;
#920 = VECTOR ( 'NONE', #249, 1000.000000000000000 ) ;
#921 = DIRECTION ( 'NONE',  ( 0.000000000000000000, 0.000000000000000000, 1.000000000000000000 ) ) ;
#922 = CARTESIAN_POINT ( 'NONE',  ( 10.00000000000000000, 30.00000000000000000, 5.500000000000000000 ) ) ;
#923 = CIRCLE ( 'NONE', #401, 9.000000000000001776 ) ;
#924 = VERTEX_POINT ( 'NONE', #754 ) ;
#925 = CARTESIAN_POINT ( 'NONE',  ( 10.01151542795898486, 5.741273537841536267, -2.621436580858623966 ) ) ;
#926 = DIRECTION ( 'NONE',  ( 1.000000000000000000, 0.000000000000000000, 0.000000000000000000 ) ) ;
#927 = CARTESIAN_POINT ( 'NONE',  ( 2.000000000000000000, 10.00000000000000178, 4.000000000000000000 ) ) ;
#928 = FILL_AREA_STYLE ('',( #1012 ) ) ;
#929 = EDGE_LOOP ( 'NONE', ( #980, #825 ) ) ;
#930 = AXIS2_PLACEMENT_3D ( 'NONE', #302, #740, #1078 ) ;
#931 = ORIENTED_EDGE ( 'NONE', *, *, #698, .F. ) ;
#932 = VECTOR ( 'NONE', #99, 1000.000000000000000 ) ;
#933 = DIRECTION ( 'NONE',  ( 0.000000000000000000, 0.000000000000000000, -1.000000000000000000 ) ) ;
#934 = ADVANCED_FACE ( 'NONE', ( #1091, #1008 ), #241, .T. ) ;
#935 = CYLINDRICAL_SURFACE ( 'NONE', #631, 2.999999999999998224 ) ;
#936 = ORIENTED_EDGE ( 'NONE', *, *, #698, .T. ) ;
#937 = PLANE ( 'NONE',  #239 ) ;
#938 = VERTEX_POINT ( 'NONE', #725 ) ;
#939 = EDGE_CURVE ( 'NONE', #835, #1097, #390, .T. ) ;
#940 = STYLED_ITEM ( 'NONE', ( #327 ), #483 ) ;
#941 = CARTESIAN_POINT ( 'NONE',  ( 9.380931845637427102, 5.792339723211748392, -2.649918624214536500 ) ) ;
#942 = DIRECTION ( 'NONE',  ( 1.000000000000000000, 0.000000000000000000, 0.000000000000000000 ) ) ;
#943 = DIRECTION ( 'NONE',  ( 1.000000000000000000, -0.000000000000000000, -0.000000000000000000 ) ) ;
#944 = CIRCLE ( 'NONE', #451, 1.599999999999999867 ) ;
#945 = CARTESIAN_POINT ( 'NONE',  ( 0.000000000000000000, 20.00000000000000000, 4.000000000000000000 ) ) ;
#946 = ORIENTED_EDGE ( 'NONE', *, *, #271, .T. ) ;
#947 = CYLINDRICAL_SURFACE ( 'NONE', #716, 9.000000000000000000 ) ;
#948 = EDGE_CURVE ( 'NONE', #600, #491, #813, .T. ) ;
#949 = ORIENTED_EDGE ( 'NONE', *, *, #1076, .F. ) ;
#950 = ORIENTED_EDGE ( 'NONE', *, *, #736, .F. ) ;
#951 = CARTESIAN_POINT ( 'NONE',  ( 21.00000000000000000, 8.673617379884035472E-16, -0.5000000000000004441 ) ) ;
#952 = EDGE_CURVE ( 'NONE', #98, #1019, #388, .T. ) ;
#953 = VERTEX_POINT ( 'NONE', #1071 ) ;
#954 = CARTESIAN_POINT ( 'NONE',  ( 14.25000000000004086, 10.00000000000001954, -5.797356367836962399 ) ) ;
#955 = CARTESIAN_POINT ( 'NONE',  ( 7.735907206045280482, 13.60003078119875575, -4.522655564320307242 ) ) ;
#956 = ORIENTED_EDGE ( 'NONE', *, *, #1083, .F. ) ;
#957 = ORIENTED_EDGE ( 'NONE', *, *, #147, .F. ) ;
#958 = CARTESIAN_POINT ( 'NONE',  ( 10.00000000000000178, 10.00000000000000178, 0.000000000000000000 ) ) ;
#959 = VERTEX_POINT ( 'NONE', #301 ) ;
#960 = AXIS2_PLACEMENT_3D ( 'NONE', #24, #705, #189 ) ;
#961 = FACE_BOUND ( 'NONE', #466, .T. ) ;
#962 = CYLINDRICAL_SURFACE ( 'NONE', #708, 1.599999999999999867 ) ;
#963 = EDGE_CURVE ( 'NONE', #360, #1084, #352, .T. ) ;
#964 = MECHANICAL_DESIGN_GEOMETRIC_PRESENTATION_REPRESENTATION (  '', ( #683 ), #87 ) ;
#965 = EDGE_CURVE ( 'NONE', #445, #175, #625, .T. ) ;
#966 = FACE_OUTER_BOUND ( 'NONE', #209, .T. ) ;
#967 = AXIS2_PLACEMENT_3D ( 'NONE', #417, #480, #669 ) ;
#968 = CARTESIAN_POINT ( 'NONE',  ( 8.752766677243693394, 14.06635664505704320, -11.47748582440281417 ) ) ;
#969 = CIRCLE ( 'NONE', #991, 4.000000000000000000 ) ;
#970 = FACE_OUTER_BOUND ( 'NONE', #258, .T. ) ;
#971 = EDGE_CURVE ( 'NONE', #654, #252, #718, .T. ) ;
#972 = ORIENTED_EDGE ( 'NONE', *, *, #271, .F. ) ;
#973 = VERTEX_POINT ( 'NONE', #1077 ) ;
#974 = CARTESIAN_POINT ( 'NONE',  ( 8.598718764577055751, 14.01535786845027332, -11.37119545717431457 ) ) ;
#975 = DIRECTION ( 'NONE',  ( 0.000000000000000000, 0.000000000000000000, 1.000000000000000000 ) ) ;
#976 = CIRCLE ( 'NONE', #193, 4.250000000000000000 ) ;
#977 = CARTESIAN_POINT ( 'NONE',  ( 12.89694686243465682, 13.11021018590376386, -5.694658640762463087 ) ) ;
#978 = DIRECTION ( 'NONE',  ( -1.000000000000000000, -0.000000000000000000, 0.000000000000000000 ) ) ;
#979 = EDGE_CURVE ( 'NONE', #853, #938, #656, .T. ) ;
#980 = ORIENTED_EDGE ( 'NONE', *, *, #998, .F. ) ;
#981 = CARTESIAN_POINT ( 'NONE',  ( 11.26196828334841094, 14.06182984806316760, -11.46799977954735894 ) ) ;
#982 = DIRECTION ( 'NONE',  ( 0.000000000000000000, -1.000000000000000000, 0.000000000000000000 ) ) ;
#983 = VERTEX_POINT ( 'NONE', #526 ) ;
#984 = CARTESIAN_POINT ( 'NONE',  ( 12.97880864931654266, 13.03189834180278694, -6.090640916278265315 ) ) ;
#985 = DIRECTION ( 'NONE',  ( -0.000000000000000000, -1.000000000000000000, -0.000000000000000000 ) ) ;
#986 = EDGE_LOOP ( 'NONE', ( #1109, #636 ) ) ;
#987 = VECTOR ( 'NONE', #943, 1000.000000000000000 ) ;
#988 = CARTESIAN_POINT ( 'NONE',  ( 10.76258138837609657, 14.18518838684732764, -11.73110913214114071 ) ) ;
#989 = CARTESIAN_POINT ( 'NONE',  ( 20.00000000000000000, 40.00000000000000000, -0.5000000000000156541 ) ) ;
#990 = CARTESIAN_POINT ( 'NONE',  ( 10.20405436156563539, 14.25000000000000355, -3.500000000000000000 ) ) ;
#991 = AXIS2_PLACEMENT_3D ( 'NONE', #1034, #714, #871 ) ;
#992 = SURFACE_SIDE_STYLE ('',( #568 ) ) ;
#993 = CARTESIAN_POINT ( 'NONE',  ( 0.000000000000000000, 15.85271173546474976, -17.51667370946115554 ) ) ;
#994 = ORIENTED_EDGE ( 'NONE', *, *, #454, .F. ) ;
#995 = CARTESIAN_POINT ( 'NONE',  ( 14.25000000000004086, 10.00000000000001954, -5.797356367836962399 ) ) ;
#996 = LINE ( 'NONE', #989, #262 ) ;
#997 = CARTESIAN_POINT ( 'NONE',  ( 12.38489167516958211, 13.52018321363631159, -8.329747389403344471 ) ) ;
#998 = EDGE_CURVE ( 'NONE', #491, #769, #1068, .T. ) ;
#999 = LINE ( 'NONE', #830, #987 ) ;
#1000 = AXIS2_PLACEMENT_3D ( 'NONE', #452, #118, #1050 ) ;
#1001 = DIRECTION ( 'NONE',  ( 1.000000000000000000, 0.000000000000000000, 0.000000000000000000 ) ) ;
#1002 = ORIENTED_EDGE ( 'NONE', *, *, #939, .F. ) ;
#1003 = CARTESIAN_POINT ( 'NONE',  ( 12.35830754838649526, 6.461137090684442974, -3.041420328872012302 ) ) ;
#1004 = CARTESIAN_POINT ( 'NONE',  ( 10.00000000000000000, 17.50000000000000000, -9.499999999999998224 ) ) ;
#1005 = DIRECTION ( 'NONE',  ( 0.000000000000000000, 0.000000000000000000, -1.000000000000000000 ) ) ;
#1006 = CARTESIAN_POINT ( 'NONE',  ( 10.00000000000000000, 17.50000000000000000, -3.500000000000000444 ) ) ;
#1007 = ORIENTED_EDGE ( 'NONE', *, *, #1026, .F. ) ;
#1008 = FACE_OUTER_BOUND ( 'NONE', #596, .T. ) ;
#1009 = AXIS2_PLACEMENT_3D ( 'NONE', #74, #838, #757 ) ;
#1010 = DIRECTION ( 'NONE',  ( -0.000000000000000000, -0.000000000000000000, 1.000000000000000000 ) ) ;
#1011 = FACE_OUTER_BOUND ( 'NONE', #423, .T. ) ;
#1012 = FILL_AREA_STYLE_COLOUR ( '', #272 ) ;
#1013 = ORIENTED_EDGE ( 'NONE', *, *, #112, .T. ) ;
#1014 = CARTESIAN_POINT ( 'NONE',  ( 8.762739882795901991, 5.921938533369354829, -2.722960214119120703 ) ) ;
#1015 = CARTESIAN_POINT ( 'NONE',  ( 21.00000000000000000, 20.18079758914577937, -17.00000000000000000 ) ) ;
#1016 = DIRECTION ( 'NONE',  ( -0.000000000000000000, -0.000000000000000000, 1.000000000000000000 ) ) ;
#1017 = ORIENTED_EDGE ( 'NONE', *, *, #630, .F. ) ;
#1018 = AXIS2_PLACEMENT_3D ( 'NONE', #905, #318, #396 ) ;
#1019 = VERTEX_POINT ( 'NONE', #787 ) ;
#1020 = DIRECTION ( 'NONE',  ( 0.000000000000000000, -1.000000000000000000, 0.000000000000000000 ) ) ;
#1021 = DIRECTION ( 'NONE',  ( -1.000000000000000000, -0.000000000000000000, 0.000000000000000000 ) ) ;
#1022 = ORIENTED_EDGE ( 'NONE', *, *, #798, .T. ) ;
#1023 = CARTESIAN_POINT ( 'NONE',  ( 20.00000000000000000, 43.97974164148261167, -20.10004225676693324 ) ) ;
#1024 = FACE_OUTER_BOUND ( 'NONE', #812, .T. ) ;
#1025 = APPLICATION_CONTEXT ( 'automotive_design' ) ;
#1026 = EDGE_CURVE ( 'NONE', #586, #342, #117, .T. ) ;
#1027 = EDGE_LOOP ( 'NONE', ( #506, #425, #525, #675 ) ) ;
#1028 = CARTESIAN_POINT ( 'NONE',  ( 8.003096085457347186, 13.75482523711829508, -4.253139534142061251 ) ) ;
#1029 = CIRCLE ( 'NONE', #541, 4.250000000000000000 ) ;
#1030 = EDGE_LOOP ( 'NONE', ( #300, #883, #887, #128 ) ) ;
#1031 = DIRECTION ( 'NONE',  ( -0.000000000000000000, -0.000000000000000000, -1.000000000000000000 ) ) ;
#1032 = EDGE_CURVE ( 'NONE', #732, #851, #858, .T. ) ;
#1033 = VECTOR ( 'NONE', #142, 1000.000000000000000 ) ;
#1034 = CARTESIAN_POINT ( 'NONE',  ( 20.00000000000000000, 20.18079758914577937, -17.00000000000000000 ) ) ;
#1035 = LINE ( 'NONE', #780, #513 ) ;
#1036 = EDGE_LOOP ( 'NONE', ( #662, #833, #7, #148 ) ) ;
#1037 = CARTESIAN_POINT ( 'NONE',  ( 9.999999999999998224, 14.25000000000000178, -9.500000000000000000 ) ) ;
#1038 = ORIENTED_EDGE ( 'NONE', *, *, #231, .T. ) ;
#1039 = ORIENTED_EDGE ( 'NONE', *, *, #963, .T. ) ;
#1040 = FACE_OUTER_BOUND ( 'NONE', #328, .T. ) ;
#1041 = DIRECTION ( 'NONE',  ( 1.000000000000000000, 0.000000000000000000, 0.000000000000000000 ) ) ;
#1042 = CARTESIAN_POINT ( 'NONE',  ( 9.999999999999998224, 14.25000000000000178, -9.500000000000000000 ) ) ;
#1043 = ORIENTED_EDGE ( 'NONE', *, *, #965, .F. ) ;
#1044 = ADVANCED_FACE ( 'NONE', ( #622 ), #962, .F. ) ;
#1045 = PRODUCT ( 'xbearingholder left', 'xbearingholder left', '', ( #313 ) ) ;
#1046 = CARTESIAN_POINT ( 'NONE',  ( 10.00000000000000178, 10.00000000000000178, 0.000000000000000000 ) ) ;
#1047 = DIRECTION ( 'NONE',  ( -0.000000000000000000, -0.000000000000000000, -1.000000000000000000 ) ) ;
#1048 = CIRCLE ( 'NONE', #190, 4.000000000000000000 ) ;
#1049 = EDGE_CURVE ( 'NONE', #983, #732, #8, .T. ) ;
#1050 = DIRECTION ( 'NONE',  ( 1.000000000000000000, 0.000000000000000000, -0.000000000000000000 ) ) ;
#1051 = CARTESIAN_POINT ( 'NONE',  ( 10.00000000000000178, 10.00000000000000178, 4.000000000000000000 ) ) ;
#1052 = CIRCLE ( 'NONE', #104, 4.000000000000000000 ) ;
#1053 = PRESENTATION_STYLE_ASSIGNMENT (( #106 ) ) ;
#1054 = EDGE_CURVE ( 'NONE', #411, #315, #1048, .T. ) ;
#1055 = AXIS2_PLACEMENT_3D ( 'NONE', #242, #1021, #921 ) ;
#1056 = DIRECTION ( 'NONE',  ( -0.000000000000000000, -0.000000000000000000, -1.000000000000000000 ) ) ;
#1057 = EDGE_LOOP ( 'NONE', ( #556, #457 ) ) ;
#1058 = DIRECTION ( 'NONE',  ( -1.000000000000000000, 0.000000000000000000, 0.000000000000000000 ) ) ;
#1059 = FACE_BOUND ( 'NONE', #204, .T. ) ;
#1060 = CARTESIAN_POINT ( 'NONE',  ( 12.97868591961943174, 13.03200636840678506, -6.909345872518725784 ) ) ;
#1061 = ADVANCED_FACE ( 'NONE', ( #865 ), #619, .F. ) ;
#1062 = DIRECTION ( 'NONE',  ( 0.000000000000000000, 0.000000000000000000, -1.000000000000000000 ) ) ;
#1063 = ORIENTED_EDGE ( 'NONE', *, *, #458, .T. ) ;
#1064 = CARTESIAN_POINT ( 'NONE',  ( 5.874825028147292016, 11.05547025511218706, -6.905795956711105354 ) ) ;
#1065 = CARTESIAN_POINT ( 'NONE',  ( 10.00000000000000000, 17.50000000000000000, -6.500000000000000000 ) ) ;
#1066 = AXIS2_PLACEMENT_3D ( 'NONE', #676, #1020, #933 ) ;
#1067 = CARTESIAN_POINT ( 'NONE',  ( 10.20661696909452054, 14.25000000000000178, -9.499999999999998224 ) ) ;
#1068 = CIRCLE ( 'NONE', #281, 1.599999999999999867 ) ;
#1069 = DIRECTION ( 'NONE',  ( 1.000000000000000000, 0.000000000000000000, 0.000000000000000000 ) ) ;
#1070 = ORIENTED_EDGE ( 'NONE', *, *, #585, .F. ) ;
#1071 = CARTESIAN_POINT ( 'NONE',  ( 14.25000000000000178, 10.00000000000000178, -1.000000000000000000 ) ) ;
#1072 = DIRECTION ( 'NONE',  ( 0.000000000000000000, 0.000000000000000000, -1.000000000000000000 ) ) ;
#1073 = CARTESIAN_POINT ( 'NONE',  ( 13.00011655504717289, 13.01028249229836931, -6.702379423593141539 ) ) ;
#1074 = FACE_OUTER_BOUND ( 'NONE', #134, .T. ) ;
#1075 = ORIENTED_EDGE ( 'NONE', *, *, #810, .T. ) ;
#1076 = EDGE_CURVE ( 'NONE', #345, #170, #369, .T. ) ;
#1077 = CARTESIAN_POINT ( 'NONE',  ( 0.000000000000000000, 20.00000000000000000, -21.00000000000000000 ) ) ;
#1078 = DIRECTION ( 'NONE',  ( 1.000000000000000000, 0.000000000000000000, 0.000000000000000000 ) ) ;
#1079 = CARTESIAN_POINT ( 'NONE',  ( 0.000000000000000000, 0.000000000000000000, 0.000000000000000000 ) ) ;
#1080 = VECTOR ( 'NONE', #985, 1000.000000000000000 ) ;
#1081 = DIRECTION ( 'NONE',  ( 0.000000000000000000, -0.000000000000000000, 1.000000000000000000 ) ) ;
#1082 = CARTESIAN_POINT ( 'NONE',  ( 12.24999999999999822, 30.00000000000000000, -14.50000000000000000 ) ) ;
#1083 = EDGE_CURVE ( 'NONE', #563, #1084, #1035, .T. ) ;
#1084 = VERTEX_POINT ( 'NONE', #266 ) ;
#1085 = CARTESIAN_POINT ( 'NONE',  ( 11.41655466698187560, 14.00995121615198791, -11.36005725105906805 ) ) ;
#1086 = FACE_OUTER_BOUND ( 'NONE', #1030, .T. ) ;
#1087 = CARTESIAN_POINT ( 'NONE',  ( 10.00000000000000000, 17.50000000000000000, -6.500000000000000000 ) ) ;
#1088 = CARTESIAN_POINT ( 'NONE',  ( 21.00000000000000000, 24.14728826453525201, -17.51667370946115554 ) ) ;
#1089 = CIRCLE ( 'NONE', #641, 8.000000000000000000 ) ;
#1090 = ORIENTED_EDGE ( 'NONE', *, *, #1103, .F. ) ;
#1091 = FACE_BOUND ( 'NONE', #929, .T. ) ;
#1092 = FACE_OUTER_BOUND ( 'NONE', #496, .T. ) ;
#1093 = ORIENTED_EDGE ( 'NONE', *, *, #856, .F. ) ;
#1094 = PLANE ( 'NONE',  #305 ) ;
#1095 = ADVANCED_FACE ( 'NONE', ( #183, #532 ), #793, .F. ) ;
#1096 = ORIENTED_EDGE ( 'NONE', *, *, #216, .T. ) ;
#1097 = VERTEX_POINT ( 'NONE', #954 ) ;
#1098 = VERTEX_POINT ( 'NONE', #93 ) ;
#1099 = CARTESIAN_POINT ( 'NONE',  ( 11.54960659276518165, 6.030627178859602644, -2.784844094334595788 ) ) ;
#1100 = VECTOR ( 'NONE', #333, 1000.000000000000000 ) ;
#1101 = CYLINDRICAL_SURFACE ( 'NONE', #827, 4.000000000000000000 ) ;
#1102 = LINE ( 'NONE', #751, #363 ) ;
#1103 = EDGE_CURVE ( 'NONE', #983, #406, #728, .T. ) ;
#1104 = ORIENTED_EDGE ( 'NONE', *, *, #180, .F. ) ;
#1105 = CARTESIAN_POINT ( 'NONE',  ( 6.441141046139316373, 7.661488724691544405, -3.834582257620127610 ) ) ;
#1106 = FACE_OUTER_BOUND ( 'NONE', #267, .T. ) ;
#1107 = ORIENTED_EDGE ( 'NONE', *, *, #585, .T. ) ;
#1108 = CARTESIAN_POINT ( 'NONE',  ( 10.00000000000000000, 17.50000000000000000, -3.500000000000000444 ) ) ;
#1109 = ORIENTED_EDGE ( 'NONE', *, *, #1026, .T. ) ;
#1110 = CARTESIAN_POINT ( 'NONE',  ( 9.194106087670139260, 14.17777653705245378, -3.603072790568325523 ) ) ;
ENDSEC;
END-ISO-10303-21;
