ISO-10303-21;
HEADER;
FILE_DESCRIPTION (( 'STEP AP214' ),
    '1' );
FILE_NAME ('xcarriage for v2.STEP',
    '2026-02-28T11:21:06',
    ( '' ),
    ( '' ),
    'SwSTEP 2.0',
    'SolidWorks 2021',
    '' );
FILE_SCHEMA (( 'AUTOMOTIVE_DESIGN' ));
ENDSEC;

DATA;
#1 = EDGE_CURVE ( 'NONE', #36, #553, #190, .T. ) ;
#2 = CARTESIAN_POINT ( 'NONE',  ( 4.499999999999997335, 11.99999999999999822, 7.500000000000000000 ) ) ;
#3 = ADVANCED_FACE ( 'NONE', ( #603 ), #143, .F. ) ;
#4 = CARTESIAN_POINT ( 'NONE',  ( 50.00000000000000000, 2.999999999999997335, 0.000000000000000000 ) ) ;
#5 = AXIS2_PLACEMENT_3D ( 'NONE', #215, #65, #417 ) ;
#6 = APPLICATION_CONTEXT ( 'automotive_design' ) ;
#7 = FACE_OUTER_BOUND ( 'NONE', #269, .T. ) ;
#8 = CARTESIAN_POINT ( 'NONE',  ( 45.50000000000000000, 11.99999999999999822, 7.500000000000000000 ) ) ;
#9 = ORIENTED_EDGE ( 'NONE', *, *, #621, .F. ) ;
#10 = ADVANCED_FACE ( 'NONE', ( #161, #615, #412 ), #315, .F. ) ;
#11 = DIRECTION ( 'NONE',  ( 0.000000000000000000, 1.000000000000000000, 0.000000000000000000 ) ) ;
#12 = ORIENTED_EDGE ( 'NONE', *, *, #353, .F. ) ;
#13 = CLOSED_SHELL ( 'NONE', ( #335, #3, #364, #423, #491, #20, #452, #413, #99, #416, #10, #589, #439, #604, #234, #637, #512, #374, #613 ) ) ;
#14 = LINE ( 'NONE', #35, #332 ) ;
#15 = ORIENTED_EDGE ( 'NONE', *, *, #52, .T. ) ;
#16 = LINE ( 'NONE', #627, #337 ) ;
#17 = VECTOR ( 'NONE', #271, 1000.000000000000000 ) ;
#18 = ORIENTED_EDGE ( 'NONE', *, *, #357, .T. ) ;
#19 = ORIENTED_EDGE ( 'NONE', *, *, #357, .F. ) ;
#20 = ADVANCED_FACE ( 'NONE', ( #151, #155, #163 ), #264, .F. ) ;
#21 = CARTESIAN_POINT ( 'NONE',  ( 16.00000000000000000, 2.999999999999997335, -34.00000000000000000 ) ) ;
#22 = VERTEX_POINT ( 'NONE', #310 ) ;
#23 = PLANE ( 'NONE',  #62 ) ;
#24 = LINE ( 'NONE', #228, #629 ) ;
#25 = ORIENTED_EDGE ( 'NONE', *, *, #354, .T. ) ;
#26 = AXIS2_PLACEMENT_3D ( 'NONE', #552, #346, #610 ) ;
#27 = CARTESIAN_POINT ( 'NONE',  ( 0.000000000000000000, -7.000000000000002665, 0.000000000000000000 ) ) ;
#28 = CARTESIAN_POINT ( 'NONE',  ( 50.00000000000000000, 3.464101615137757495, 7.500000000000000000 ) ) ;
#29 = SURFACE_STYLE_USAGE ( .BOTH. , #244 ) ;
#30 = ORIENTED_EDGE ( 'NONE', *, *, #345, .F. ) ;
#31 = LINE ( 'NONE', #235, #635 ) ;
#32 = DIRECTION ( 'NONE',  ( 0.000000000000000000, 0.000000000000000000, -1.000000000000000000 ) ) ;
#33 = ORIENTED_EDGE ( 'NONE', *, *, #353, .T. ) ;
#34 = CYLINDRICAL_SURFACE ( 'NONE', #363, 2.750000000000002665 ) ;
#35 = CARTESIAN_POINT ( 'NONE',  ( 50.00000000000000000, 0.000000000000000000, 7.500000000000000000 ) ) ;
#36 = VERTEX_POINT ( 'NONE', #513 ) ;
#37 = CIRCLE ( 'NONE', #420, 2.099999999999997868 ) ;
#38 = LINE ( 'NONE', #46, #424 ) ;
#39 = CARTESIAN_POINT ( 'NONE',  ( 39.99999999999999289, 2.999999999999997335, -24.24999999999999645 ) ) ;
#40 = FILL_AREA_STYLE ('',( #393 ) ) ;
#41 = ORIENTED_EDGE ( 'NONE', *, *, #186, .T. ) ;
#42 = AXIS2_PLACEMENT_3D ( 'NONE', #504, #301, #140 ) ;
#43 = APPLICATION_PROTOCOL_DEFINITION ( 'draft international standard', 'automotive_design', 1998, #6 ) ;
#44 = FACE_OUTER_BOUND ( 'NONE', #238, .T. ) ;
#45 = EDGE_LOOP ( 'NONE', ( #565, #490, #399, #265 ) ) ;
#46 = CARTESIAN_POINT ( 'NONE',  ( 0.000000000000000000, 2.999999999999997335, 0.000000000000000000 ) ) ;
#47 = CYLINDRICAL_SURFACE ( 'NONE', #104, 2.100000000000000977 ) ;
#48 = ORIENTED_EDGE ( 'NONE', *, *, #150, .T. ) ;
#49 = VECTOR ( 'NONE', #367, 1000.000000000000000 ) ;
#50 = EDGE_CURVE ( 'NONE', #422, #394, #521, .T. ) ;
#51 = PLANE ( 'NONE',  #263 ) ;
#52 = EDGE_CURVE ( 'NONE', #394, #229, #514, .T. ) ;
#53 = AXIS2_PLACEMENT_3D ( 'NONE', #379, #440, #638 ) ;
#54 = CARTESIAN_POINT ( 'NONE',  ( 50.00000000000000000, 14.99999999999999645, 0.000000000000000000 ) ) ;
#55 =( BOUNDED_CURVE ( )  B_SPLINE_CURVE ( 3, ( #639, #236, #446, #278 ),
 .UNSPECIFIED., .F., .F. ) 
 B_SPLINE_CURVE_WITH_KNOTS ( ( 4, 4 ),
 ( 4.712388980384689674, 6.283185307179586232 ),
 .UNSPECIFIED. ) 
 CURVE ( )  GEOMETRIC_REPRESENTATION_ITEM ( )  RATIONAL_B_SPLINE_CURVE ( ( 1.000000000000000000, 0.8047378541243649375, 0.8047378541243649375, 1.000000000000000000 ) ) 
 REPRESENTATION_ITEM ( '' )  );
#56 = DIRECTION ( 'NONE',  ( 1.000000000000000000, -0.000000000000000000, -0.000000000000000000 ) ) ;
#57 = VECTOR ( 'NONE', #189, 1000.000000000000000 ) ;
#58 = PRODUCT ( 'xcarriage for v2', 'xcarriage for v2', '', ( #444 ) ) ;
#59 = EDGE_CURVE ( 'NONE', #437, #632, #614, .T. ) ;
#60 = FACE_BOUND ( 'NONE', #522, .T. ) ;
#61 = ORIENTED_EDGE ( 'NONE', *, *, #206, .T. ) ;
#62 = AXIS2_PLACEMENT_3D ( 'NONE', #76, #169, #230 ) ;
#63 = CARTESIAN_POINT ( 'NONE',  ( 40.00000000000000000, 0.000000000000000000, -7.000000000000000000 ) ) ;
#64 = VERTEX_POINT ( 'NONE', #108 ) ;
#65 = DIRECTION ( 'NONE',  ( 0.000000000000000000, 0.000000000000000000, -1.000000000000000000 ) ) ;
#66 = VERTEX_POINT ( 'NONE', #259 ) ;
#67 = AXIS2_PLACEMENT_3D ( 'NONE', #644, #579, #587 ) ;
#68 = EDGE_CURVE ( 'NONE', #428, #285, #371, .T. ) ;
#69 = ORIENTED_EDGE ( 'NONE', *, *, #322, .T. ) ;
#70 = CARTESIAN_POINT ( 'NONE',  ( 0.000000000000000000, 2.000000000000000000, -34.00000000000000000 ) ) ;
#71 = ORIENTED_EDGE ( 'NONE', *, *, #407, .T. ) ;
#72 = LINE ( 'NONE', #70, #17 ) ;
#73 = CARTESIAN_POINT ( 'NONE',  ( 50.00000000000000000, 18.00000000000000000, -34.00000000000000000 ) ) ;
#74 = VERTEX_POINT ( 'NONE', #415 ) ;
#75 = VECTOR ( 'NONE', #583, 1000.000000000000000 ) ;
#76 = CARTESIAN_POINT ( 'NONE',  ( 0.000000000000000000, 15.00000000000000000, 0.000000000000000000 ) ) ;
#77 = DIRECTION ( 'NONE',  ( -0.000000000000000000, 1.000000000000000000, -0.000000000000000000 ) ) ;
#78 = CARTESIAN_POINT ( 'NONE',  ( 40.00000000000000000, 2.999999999999997335, -7.000000000000000000 ) ) ;
#79 = ORIENTED_EDGE ( 'NONE', *, *, #542, .F. ) ;
#80 = EDGE_CURVE ( 'NONE', #331, #626, #312, .T. ) ;
#81 = CYLINDRICAL_SURFACE ( 'NONE', #325, 2.099999999999997868 ) ;
#82 = DIRECTION ( 'NONE',  ( 1.000000000000000000, -0.000000000000000000, 0.000000000000000000 ) ) ;
#83 = DIRECTION ( 'NONE',  ( -0.000000000000000000, -0.000000000000000000, -1.000000000000000000 ) ) ;
#84 = ORIENTED_EDGE ( 'NONE', *, *, #518, .T. ) ;
#85 = DIRECTION ( 'NONE',  ( 1.000000000000000000, 0.000000000000000000, 0.000000000000000000 ) ) ;
#86 = CARTESIAN_POINT ( 'NONE',  ( 50.00000000000000000, 15.00000000000000000, 7.500000000000000000 ) ) ;
#87 = VERTEX_POINT ( 'NONE', #469 ) ;
#88 =( LENGTH_UNIT ( ) NAMED_UNIT ( * ) SI_UNIT ( .MILLI., .METRE. ) );
#89 = CARTESIAN_POINT ( 'NONE',  ( 4.499999999999997335, 11.99999999999999822, 0.000000000000000000 ) ) ;
#90 = PRESENTATION_STYLE_ASSIGNMENT (( #29 ) ) ;
#91 = ORIENTED_EDGE ( 'NONE', *, *, #483, .T. ) ;
#92 = CIRCLE ( 'NONE', #182, 2.099999999999997868 ) ;
#93 = FILL_AREA_STYLE ('',( #458 ) ) ;
#94 = DIRECTION ( 'NONE',  ( 0.000000000000000000, -0.000000000000000000, 1.000000000000000000 ) ) ;
#95 = VERTEX_POINT ( 'NONE', #562 ) ;
#96 = STYLED_ITEM ( 'NONE', ( #607 ), #516 ) ;
#97 = CARTESIAN_POINT ( 'NONE',  ( 0.000000000000000000, 2.999999999999997335, 0.000000000000000000 ) ) ;
#98 = ORIENTED_EDGE ( 'NONE', *, *, #211, .T. ) ;
#99 = ADVANCED_FACE ( 'NONE', ( #60, #567, #7 ), #616, .F. ) ;
#100 = FACE_BOUND ( 'NONE', #156, .T. ) ;
#101 = VECTOR ( 'NONE', #266, 1000.000000000000000 ) ;
#102 = PLANE ( 'NONE',  #179 ) ;
#103 = VECTOR ( 'NONE', #333, 1000.000000000000114 ) ;
#104 = AXIS2_PLACEMENT_3D ( 'NONE', #305, #253, #509 ) ;
#105 = DIRECTION ( 'NONE',  ( 0.000000000000000000, 1.000000000000000000, 0.000000000000000000 ) ) ;
#106 = EDGE_CURVE ( 'NONE', #22, #285, #620, .T. ) ;
#107 = AXIS2_PLACEMENT_3D ( 'NONE', #634, #387, #531 ) ;
#108 = CARTESIAN_POINT ( 'NONE',  ( 0.000000000000000000, 0.000000000000000000, 0.000000000000000000 ) ) ;
#109 = EDGE_LOOP ( 'NONE', ( #541, #595, #636, #272 ) ) ;
#110 = CARTESIAN_POINT ( 'NONE',  ( 39.99999999999999289, 2.999999999999997335, -27.00000000000000000 ) ) ;
#111 = EDGE_CURVE ( 'NONE', #422, #95, #157, .T. ) ;
#112 = DIRECTION ( 'NONE',  ( 1.000000000000000000, 0.000000000000000000, 0.000000000000000000 ) ) ;
#113 = EDGE_CURVE ( 'NONE', #328, #147, #515, .T. ) ;
#114 = DIRECTION ( 'NONE',  ( 0.000000000000000000, 0.000000000000000000, 1.000000000000000000 ) ) ;
#115 = EDGE_LOOP ( 'NONE', ( #319, #376 ) ) ;
#116 = VECTOR ( 'NONE', #343, 1000.000000000000000 ) ;
#117 = CARTESIAN_POINT ( 'NONE',  ( 45.50000000000000000, 11.99999999999999822, 7.500000000000000000 ) ) ;
#118 = ORIENTED_EDGE ( 'NONE', *, *, #268, .F. ) ;
#119 = ORIENTED_EDGE ( 'NONE', *, *, #299, .T. ) ;
#120 = DIRECTION ( 'NONE',  ( -0.000000000000000000, 1.000000000000000000, -0.000000000000000000 ) ) ;
#121 = DIRECTION ( 'NONE',  ( 0.000000000000000000, 0.000000000000000000, 1.000000000000000000 ) ) ;
#122 = VERTEX_POINT ( 'NONE', #535 ) ;
#123 = EDGE_CURVE ( 'NONE', #626, #262, #92, .T. ) ;
#124 = FACE_OUTER_BOUND ( 'NONE', #557, .T. ) ;
#125 = LINE ( 'NONE', #534, #214 ) ;
#126 = ORIENTED_EDGE ( 'NONE', *, *, #612, .T. ) ;
#127 = LINE ( 'NONE', #21, #282 ) ;
#128 = DIRECTION ( 'NONE',  ( 1.000000000000000000, 0.000000000000000000, 0.000000000000000000 ) ) ;
#129 = CARTESIAN_POINT ( 'NONE',  ( 16.00000000000000000, 2.999999999999997335, -34.00000000000000000 ) ) ;
#130 = EDGE_LOOP ( 'NONE', ( #448, #368, #219, #482, #581 ) ) ;
#131 = DIRECTION ( 'NONE',  ( 1.000000000000000000, 0.000000000000000000, 0.000000000000000000 ) ) ;
#132 = DIRECTION ( 'NONE',  ( -0.4257970363298795302, 0.000000000000000000, 0.9048187022009940295 ) ) ;
#133 = LINE ( 'NONE', #73, #360 ) ;
#134 = VERTEX_POINT ( 'NONE', #4 ) ;
#135 = DIRECTION ( 'NONE',  ( -0.000000000000000000, -0.000000000000000000, -1.000000000000000000 ) ) ;
#136 = EDGE_CURVE ( 'NONE', #331, #74, #37, .T. ) ;
#137 = CARTESIAN_POINT ( 'NONE',  ( 40.00000000000000000, -7.000000000000002665, -4.249999999999998224 ) ) ;
#138 = ORIENTED_EDGE ( 'NONE', *, *, #171, .T. ) ;
#139 = VECTOR ( 'NONE', #82, 1000.000000000000000 ) ;
#140 = DIRECTION ( 'NONE',  ( 0.000000000000000000, 0.000000000000000000, 1.000000000000000000 ) ) ;
#141 = DIRECTION ( 'NONE',  ( -0.4257970363298795857, 0.000000000000000000, 0.9048187022009940295 ) ) ;
#142 = LINE ( 'NONE', #177, #473 ) ;
#143 = CYLINDRICAL_SURFACE ( 'NONE', #226, 2.750000000000001776 ) ;
#144 = CARTESIAN_POINT ( 'NONE',  ( 50.00000000000000000, 0.000000000000000000, -32.00000000000000000 ) ) ;
#145 = ORIENTED_EDGE ( 'NONE', *, *, #545, .T. ) ;
#146 = LINE ( 'NONE', #27, #212 ) ;
#147 = VERTEX_POINT ( 'NONE', #474 ) ;
#148 = DIRECTION ( 'NONE',  ( -1.000000000000000000, 0.000000000000000000, -0.000000000000000000 ) ) ;
#149 = VECTOR ( 'NONE', #318, 1000.000000000000114 ) ;
#150 = EDGE_CURVE ( 'NONE', #147, #437, #14, .T. ) ;
#151 = FACE_BOUND ( 'NONE', #409, .T. ) ;
#152 = PRODUCT_DEFINITION_FORMATION_WITH_SPECIFIED_SOURCE ( 'ANY', '', #58, .NOT_KNOWN. ) ;
#153 = CARTESIAN_POINT ( 'NONE',  ( 0.000000000000000000, 0.000000000000000000, 7.500000000000000000 ) ) ;
#154 = UNCERTAINTY_MEASURE_WITH_UNIT (LENGTH_MEASURE( 1.000000000000000082E-05 ), #88, 'distance_accuracy_value', 'NONE');
#155 = FACE_BOUND ( 'NONE', #115, .T. ) ;
#156 = EDGE_LOOP ( 'NONE', ( #71, #25 ) ) ;
#157 = CIRCLE ( 'NONE', #254, 2.750000000000001776 ) ;
#158 = AXIS2_PLACEMENT_3D ( 'NONE', #97, #94, #309 ) ;
#159 = EDGE_CURVE ( 'NONE', #174, #328, #389, .T. ) ;
#160 = MANIFOLD_SOLID_BREP ( 'Cut-Extrude5', #13 ) ;
#161 = FACE_BOUND ( 'NONE', #571, .T. ) ;
#162 = ORIENTED_EDGE ( 'NONE', *, *, #199, .T. ) ;
#163 = FACE_OUTER_BOUND ( 'NONE', #245, .T. ) ;
#164 = ORIENTED_EDGE ( 'NONE', *, *, #649, .T. ) ;
#165 = DIRECTION ( 'NONE',  ( -0.000000000000000000, 1.000000000000000000, -0.000000000000000000 ) ) ;
#166 = EDGE_LOOP ( 'NONE', ( #418, #536, #390, #48, #628, #652, #12, #19 ) ) ;
#167 = ORIENTED_EDGE ( 'NONE', *, *, #542, .T. ) ;
#168 = STYLED_ITEM ( 'NONE', ( #90 ), #160 ) ;
#169 = DIRECTION ( 'NONE',  ( -0.000000000000000000, 1.000000000000000000, 0.000000000000000000 ) ) ;
#170 = ORIENTED_EDGE ( 'NONE', *, *, #111, .T. ) ;
#171 = EDGE_CURVE ( 'NONE', #313, #429, #489, .T. ) ;
#172 = DIRECTION ( 'NONE',  ( 1.000000000000000000, 0.000000000000000000, 0.000000000000000000 ) ) ;
#173 = CARTESIAN_POINT ( 'NONE',  ( 47.59999999999999432, 11.99999999999999822, 7.500000000000000000 ) ) ;
#174 = VERTEX_POINT ( 'NONE', #340 ) ;
#175 = CARTESIAN_POINT ( 'NONE',  ( 47.59999999999999432, 11.99999999999999822, 0.000000000000000000 ) ) ;
#176 = FACE_OUTER_BOUND ( 'NONE', #276, .T. ) ;
#177 = CARTESIAN_POINT ( 'NONE',  ( 39.99999999999999289, -7.000000000000002665, -29.75000000000000355 ) ) ;
#178 = ORIENTED_EDGE ( 'NONE', *, *, #314, .T. ) ;
#179 = AXIS2_PLACEMENT_3D ( 'NONE', #355, #558, #141 ) ;
#180 = CARTESIAN_POINT ( 'NONE',  ( 0.000000000000000000, 0.000000000000000000, 7.500000000000000000 ) ) ;
#181 = CARTESIAN_POINT ( 'NONE',  ( 43.39999999999999858, 11.99999999999999822, 0.000000000000000000 ) ) ;
#182 = AXIS2_PLACEMENT_3D ( 'NONE', #261, #466, #112 ) ;
#183 =( NAMED_UNIT ( * ) SI_UNIT ( $, .STERADIAN. ) SOLID_ANGLE_UNIT ( ) );
#184 = EDGE_CURVE ( 'NONE', #648, #22, #142, .T. ) ;
#185 = ORIENTED_EDGE ( 'NONE', *, *, #354, .F. ) ;
#186 = EDGE_CURVE ( 'NONE', #520, #64, #288, .T. ) ;
#187 = DIRECTION ( 'NONE',  ( 0.000000000000000000, 0.000000000000000000, 1.000000000000000000 ) ) ;
#188 = CARTESIAN_POINT ( 'NONE',  ( 43.39999999999999858, 11.99999999999999822, 7.500000000000000000 ) ) ;
#189 = DIRECTION ( 'NONE',  ( 1.000000000000000000, 0.000000000000000000, 0.000000000000000000 ) ) ;
#190 = LINE ( 'NONE', #194, #496 ) ;
#191 = DIRECTION ( 'NONE',  ( 1.000000000000000000, -0.000000000000000000, -0.000000000000000000 ) ) ;
#192 = FACE_OUTER_BOUND ( 'NONE', #166, .T. ) ;
#193 = CARTESIAN_POINT ( 'NONE',  ( 6.599999999999997868, 11.99999999999999822, 0.000000000000000000 ) ) ;
#194 = CARTESIAN_POINT ( 'NONE',  ( 0.000000000000000000, 2.999999999999997335, 0.000000000000000000 ) ) ;
#195 =( NAMED_UNIT ( * ) SI_UNIT ( $, .STERADIAN. ) SOLID_ANGLE_UNIT ( ) );
#196 = CYLINDRICAL_SURFACE ( 'NONE', #506, 2.100000000000000977 ) ;
#197 = ORIENTED_EDGE ( 'NONE', *, *, #299, .F. ) ;
#198 = FACE_OUTER_BOUND ( 'NONE', #224, .T. ) ;
#199 = EDGE_CURVE ( 'NONE', #95, #229, #588, .T. ) ;
#200 = FACE_OUTER_BOUND ( 'NONE', #477, .T. ) ;
#201 = PRESENTATION_LAYER_ASSIGNMENT (  '', '', ( #96 ) ) ;
#202 = VERTEX_POINT ( 'NONE', #129 ) ;
#203 = DIRECTION ( 'NONE',  ( 0.000000000000000000, 1.000000000000000000, 0.000000000000000000 ) ) ;
#204 = DIRECTION ( 'NONE',  ( 0.000000000000000000, 0.000000000000000000, 1.000000000000000000 ) ) ;
#205 = AXIS2_PLACEMENT_3D ( 'NONE', #78, #105, #361 ) ;
#206 = EDGE_CURVE ( 'NONE', #36, #122, #247, .T. ) ;
#207 = CARTESIAN_POINT ( 'NONE',  ( 40.00000000000000000, -7.000000000000002665, -9.750000000000001776 ) ) ;
#208 = AXIS2_PLACEMENT_3D ( 'NONE', #478, #277, #427 ) ;
#209 = DIRECTION ( 'NONE',  ( 1.000000000000000000, 0.000000000000000000, 0.000000000000000000 ) ) ;
#210 = ORIENTED_EDGE ( 'NONE', *, *, #345, .T. ) ;
#211 = EDGE_CURVE ( 'NONE', #95, #422, #433, .T. ) ;
#212 = VECTOR ( 'NONE', #120, 1000.000000000000000 ) ;
#213 = UNCERTAINTY_MEASURE_WITH_UNIT (LENGTH_MEASURE( 1.000000000000000082E-05 ), #602, 'distance_accuracy_value', 'NONE');
#214 = VECTOR ( 'NONE', #232, 1000.000000000000000 ) ;
#215 = CARTESIAN_POINT ( 'NONE',  ( 0.000000000000000000, 0.000000000000000000, 7.500000000000000000 ) ) ;
#216 = ORIENTED_EDGE ( 'NONE', *, *, #556, .T. ) ;
#217 = AXIS2_PLACEMENT_3D ( 'NONE', #570, #56, #519 ) ;
#218 = DIRECTION ( 'NONE',  ( 0.000000000000000000, -0.000000000000000000, 1.000000000000000000 ) ) ;
#219 = ORIENTED_EDGE ( 'NONE', *, *, #545, .F. ) ;
#220 = CYLINDRICAL_SURFACE ( 'NONE', #351, 2.000000000000001776 ) ;
#221 = EDGE_LOOP ( 'NONE', ( #573, #167, #584, #118 ) ) ;
#222 = VERTEX_POINT ( 'NONE', #193 ) ;
#223 = FACE_OUTER_BOUND ( 'NONE', #255, .T. ) ;
#224 = EDGE_LOOP ( 'NONE', ( #524, #551, #460, #568 ) ) ;
#225 = EDGE_CURVE ( 'NONE', #648, #428, #646, .T. ) ;
#226 = AXIS2_PLACEMENT_3D ( 'NONE', #349, #316, #622 ) ;
#227 = LINE ( 'NONE', #543, #231 ) ;
#228 = CARTESIAN_POINT ( 'NONE',  ( 50.00000000000000000, 2.999999999999997335, -34.00000000000000000 ) ) ;
#229 = VERTEX_POINT ( 'NONE', #640 ) ;
#230 = DIRECTION ( 'NONE',  ( 0.000000000000000000, -0.000000000000000000, 1.000000000000000000 ) ) ;
#231 = VECTOR ( 'NONE', #85, 1000.000000000000000 ) ;
#232 = DIRECTION ( 'NONE',  ( -0.000000000000000000, -1.000000000000000000, -0.000000000000000000 ) ) ;
#233 = ORIENTED_EDGE ( 'NONE', *, *, #211, .F. ) ;
#234 = ADVANCED_FACE ( 'NONE', ( #447 ), #593, .F. ) ;
#235 = CARTESIAN_POINT ( 'NONE',  ( 50.00000000000000000, 15.00000000000000000, 0.000000000000000000 ) ) ;
#236 = CARTESIAN_POINT ( 'NONE',  ( 15.61015194129590888, -6.488953147413177264E-16, -33.17157287525380838 ) ) ;
#237 = CARTESIAN_POINT ( 'NONE',  ( 39.99999999999999289, 0.000000000000000000, -27.00000000000000000 ) ) ;
#238 = EDGE_LOOP ( 'NONE', ( #344, #126, #352, #528 ) ) ;
#239 = EDGE_CURVE ( 'NONE', #324, #632, #133, .T. ) ;
#240 = PRODUCT_DEFINITION ( 'UNKNOWN', '', #152, #525 ) ;
#241 = SHAPE_DEFINITION_REPRESENTATION ( #563, #516 ) ;
#242 = CARTESIAN_POINT ( 'NONE',  ( 39.99999999999999289, -7.000000000000002665, -27.00000000000000000 ) ) ;
#243 = VECTOR ( 'NONE', #32, 1000.000000000000000 ) ;
#244 = SURFACE_SIDE_STYLE ('',( #594 ) ) ;
#245 = EDGE_LOOP ( 'NONE', ( #248, #317, #372, #547 ) ) ;
#246 = CARTESIAN_POINT ( 'NONE',  ( 0.000000000000000000, 0.000000000000000000, 1.499999999999958922 ) ) ;
#247 = LINE ( 'NONE', #279, #347 ) ;
#248 = ORIENTED_EDGE ( 'NONE', *, *, #556, .F. ) ;
#249 = DIRECTION ( 'NONE',  ( -1.000000000000000000, 0.000000000000000000, 0.000000000000000000 ) ) ;
#250 = ORIENTED_EDGE ( 'NONE', *, *, #1, .T. ) ;
#251 = EDGE_CURVE ( 'NONE', #328, #313, #327, .T. ) ;
#252 = AXIS2_PLACEMENT_3D ( 'NONE', #435, #287, #128 ) ;
#253 = DIRECTION ( 'NONE',  ( -0.000000000000000000, -0.000000000000000000, -1.000000000000000000 ) ) ;
#254 = AXIS2_PLACEMENT_3D ( 'NONE', #63, #11, #114 ) ;
#255 = EDGE_LOOP ( 'NONE', ( #457, #600, #210, #503 ) ) ;
#256 = CARTESIAN_POINT ( 'NONE',  ( 39.99999999999999289, 0.000000000000000000, -24.24999999999999645 ) ) ;
#257 = EDGE_CURVE ( 'NONE', #87, #437, #339, .T. ) ;
#258 = VECTOR ( 'NONE', #380, 1000.000000000000000 ) ;
#259 = CARTESIAN_POINT ( 'NONE',  ( 6.599999999999997868, 11.99999999999999822, 7.500000000000000000 ) ) ;
#260 = VECTOR ( 'NONE', #398, 1000.000000000000000 ) ;
#261 = CARTESIAN_POINT ( 'NONE',  ( 45.50000000000000000, 11.99999999999999822, 0.000000000000000000 ) ) ;
#262 = VERTEX_POINT ( 'NONE', #181 ) ;
#263 = AXIS2_PLACEMENT_3D ( 'NONE', #461, #608, #401 ) ;
#264 = PLANE ( 'NONE',  #5 ) ;
#265 = ORIENTED_EDGE ( 'NONE', *, *, #59, .F. ) ;
#266 = DIRECTION ( 'NONE',  ( -0.000000000000000000, -0.000000000000000000, -1.000000000000000000 ) ) ;
#267 = ORIENTED_EDGE ( 'NONE', *, *, #268, .T. ) ;
#268 = EDGE_CURVE ( 'NONE', #471, #366, #384, .T. ) ;
#269 = EDGE_LOOP ( 'NONE', ( #467, #507, #656, #119, #41 ) ) ;
#270 = CIRCLE ( 'NONE', #500, 2.099999999999997868 ) ;
#271 = DIRECTION ( 'NONE',  ( -1.000000000000000000, 0.000000000000000000, 0.000000000000000000 ) ) ;
#272 = ORIENTED_EDGE ( 'NONE', *, *, #68, .F. ) ;
#273 = LINE ( 'NONE', #487, #395 ) ;
#274 = DIRECTION ( 'NONE',  ( -0.000000000000000000, -0.000000000000000000, -1.000000000000000000 ) ) ;
#275 = CIRCLE ( 'NONE', #252, 2.099999999999997868 ) ;
#276 = EDGE_LOOP ( 'NONE', ( #69, #609, #499, #30 ) ) ;
#277 = DIRECTION ( 'NONE',  ( 0.000000000000000000, 0.000000000000000000, 1.000000000000000000 ) ) ;
#278 = CARTESIAN_POINT ( 'NONE',  ( 16.00000000000000000, 2.000000000000000000, -34.00000000000000000 ) ) ;
#279 = CARTESIAN_POINT ( 'NONE',  ( 0.000000000000000000, 15.00000000000000000, 0.000000000000000000 ) ) ;
#280 = ORIENTED_EDGE ( 'NONE', *, *, #111, .F. ) ;
#281 = EDGE_CURVE ( 'NONE', #87, #432, #55, .T. ) ;
#282 = VECTOR ( 'NONE', #132, 1000.000000000000114 ) ;
#283 = DIRECTION ( 'NONE',  ( 1.000000000000000000, -0.000000000000000000, 0.000000000000000000 ) ) ;
#284 = CARTESIAN_POINT ( 'NONE',  ( 50.00000000000000000, 0.000000000000000000, -32.00000000000000000 ) ) ;
#285 = VERTEX_POINT ( 'NONE', #39 ) ;
#286 = CARTESIAN_POINT ( 'NONE',  ( 0.000000000000000000, 0.000000000000000000, 0.000000000000000000 ) ) ;
#287 = DIRECTION ( 'NONE',  ( 0.000000000000000000, 0.000000000000000000, 1.000000000000000000 ) ) ;
#288 = LINE ( 'NONE', #493, #260 ) ;
#289 = ORIENTED_EDGE ( 'NONE', *, *, #308, .F. ) ;
#290 = APPLICATION_PROTOCOL_DEFINITION ( 'draft international standard', 'automotive_design', 1998, #348 ) ;
#291 = SURFACE_STYLE_FILL_AREA ( #93 ) ;
#292 = CYLINDRICAL_SURFACE ( 'NONE', #388, 2.099999999999997868 ) ;
#293 = PRESENTATION_LAYER_ASSIGNMENT (  '', '', ( #168 ) ) ;
#294 = CARTESIAN_POINT ( 'NONE',  ( 50.00000000000000000, 15.00000000000000000, 7.500000000000000000 ) ) ;
#295 = ORIENTED_EDGE ( 'NONE', *, *, #468, .F. ) ;
#296 =( NAMED_UNIT ( * ) SI_UNIT ( $, .STERADIAN. ) SOLID_ANGLE_UNIT ( ) );
#297 = DIRECTION ( 'NONE',  ( 0.000000000000000000, 0.000000000000000000, 1.000000000000000000 ) ) ;
#298 = CIRCLE ( 'NONE', #208, 2.100000000000000977 ) ;
#299 = EDGE_CURVE ( 'NONE', #147, #520, #453, .T. ) ;
#300 = ORIENTED_EDGE ( 'NONE', *, *, #50, .F. ) ;
#301 = DIRECTION ( 'NONE',  ( -0.000000000000000000, 1.000000000000000000, -0.000000000000000000 ) ) ;
#302 = PLANE ( 'NONE',  #307 ) ;
#303 = ORIENTED_EDGE ( 'NONE', *, *, #186, .F. ) ;
#304 = VECTOR ( 'NONE', #498, 1000.000000000000000 ) ;
#305 = CARTESIAN_POINT ( 'NONE',  ( 4.499999999999997335, 11.99999999999999822, 7.500000000000000000 ) ) ;
#306 = AXIS2_PLACEMENT_3D ( 'NONE', #237, #402, #442 ) ;
#307 = AXIS2_PLACEMENT_3D ( 'NONE', #408, #511, #148 ) ;
#308 = EDGE_CURVE ( 'NONE', #202, #324, #549, .T. ) ;
#309 = DIRECTION ( 'NONE',  ( 1.000000000000000000, 0.000000000000000000, -0.000000000000000000 ) ) ;
#310 = CARTESIAN_POINT ( 'NONE',  ( 39.99999999999999289, 2.999999999999997335, -29.75000000000000355 ) ) ;
#311 = VECTOR ( 'NONE', #544, 1000.000000000000000 ) ;
#312 = LINE ( 'NONE', #464, #101 ) ;
#313 = VERTEX_POINT ( 'NONE', #86 ) ;
#314 = EDGE_CURVE ( 'NONE', #229, #394, #419, .T. ) ;
#315 = PLANE ( 'NONE',  #523 ) ;
#316 = DIRECTION ( 'NONE',  ( -0.000000000000000000, 1.000000000000000000, -0.000000000000000000 ) ) ;
#317 = ORIENTED_EDGE ( 'NONE', *, *, #495, .T. ) ;
#318 = DIRECTION ( 'NONE',  ( -0.000000000000000000, -0.4999999999999977240, -0.8660254037844398178 ) ) ;
#319 = ORIENTED_EDGE ( 'NONE', *, *, #369, .F. ) ;
#320 = AXIS2_PLACEMENT_3D ( 'NONE', #110, #425, #564 ) ;
#321 = FACE_OUTER_BOUND ( 'NONE', #475, .T. ) ;
#322 = EDGE_CURVE ( 'NONE', #74, #331, #275, .T. ) ;
#323 = EDGE_LOOP ( 'NONE', ( #623, #250, #295, #303, #84, #630 ) ) ;
#324 = VERTEX_POINT ( 'NONE', #650 ) ;
#325 = AXIS2_PLACEMENT_3D ( 'NONE', #117, #431, #445 ) ;
#326 = CARTESIAN_POINT ( 'NONE',  ( 45.50000000000000000, 11.99999999999999822, 0.000000000000000000 ) ) ;
#327 = LINE ( 'NONE', #330, #304 ) ;
#328 = VERTEX_POINT ( 'NONE', #28 ) ;
#329 = CARTESIAN_POINT ( 'NONE',  ( 0.000000000000000000, 3.464101615137757495, 7.500000000000000000 ) ) ;
#330 = CARTESIAN_POINT ( 'NONE',  ( 50.00000000000000000, 0.000000000000000000, 7.500000000000000000 ) ) ;
#331 = VERTEX_POINT ( 'NONE', #173 ) ;
#332 = VECTOR ( 'NONE', #83, 1000.000000000000000 ) ;
#333 = DIRECTION ( 'NONE',  ( -0.000000000000000000, 0.4999999999999977240, 0.8660254037844398178 ) ) ;
#334 = CARTESIAN_POINT ( 'NONE',  ( 45.50000000000000000, 11.99999999999999822, 7.500000000000000000 ) ) ;
#335 = ADVANCED_FACE ( 'NONE', ( #492 ), #34, .F. ) ;
#336 = EDGE_LOOP ( 'NONE', ( #606, #426 ) ) ;
#337 = VECTOR ( 'NONE', #165, 1000.000000000000000 ) ;
#338 = DIRECTION ( 'NONE',  ( 0.000000000000000000, 0.8660254037844399289, -0.4999999999999977796 ) ) ;
#339 = LINE ( 'NONE', #284, #139 ) ;
#340 = CARTESIAN_POINT ( 'NONE',  ( 0.000000000000000000, 3.464101615137757495, 7.500000000000000000 ) ) ;
#341 = ORIENTED_EDGE ( 'NONE', *, *, #52, .F. ) ;
#342 = DIRECTION ( 'NONE',  ( -0.000000000000000000, -0.000000000000000000, -1.000000000000000000 ) ) ;
#343 = DIRECTION ( 'NONE',  ( -0.000000000000000000, 1.000000000000000000, -0.000000000000000000 ) ) ;
#344 = ORIENTED_EDGE ( 'NONE', *, *, #527, .T. ) ;
#345 = EDGE_CURVE ( 'NONE', #74, #262, #485, .T. ) ;
#346 = DIRECTION ( 'NONE',  ( 0.000000000000000000, 0.000000000000000000, 1.000000000000000000 ) ) ;
#347 = VECTOR ( 'NONE', #540, 1000.000000000000000 ) ;
#348 = APPLICATION_CONTEXT ( 'automotive_design' ) ;
#349 = CARTESIAN_POINT ( 'NONE',  ( 40.00000000000000000, -7.000000000000002665, -7.000000000000000000 ) ) ;
#350 = CARTESIAN_POINT ( 'NONE',  ( 40.00000000000000000, 2.999999999999997335, -9.750000000000001776 ) ) ;
#351 = AXIS2_PLACEMENT_3D ( 'NONE', #526, #533, #476 ) ;
#352 = ORIENTED_EDGE ( 'NONE', *, *, #308, .T. ) ;
#353 = EDGE_CURVE ( 'NONE', #134, #324, #24, .T. ) ;
#354 = EDGE_CURVE ( 'NONE', #222, #366, #373, .T. ) ;
#355 = CARTESIAN_POINT ( 'NONE',  ( 16.00000000000000000, -7.000000000000002665, -34.00000000000000000 ) ) ;
#356 = ORIENTED_EDGE ( 'NONE', *, *, #136, .F. ) ;
#357 = EDGE_CURVE ( 'NONE', #429, #134, #125, .T. ) ;
#358 = EDGE_CURVE ( 'NONE', #87, #64, #397, .T. ) ;
#359 = DIRECTION ( 'NONE',  ( 0.000000000000000000, 0.000000000000000000, 1.000000000000000000 ) ) ;
#360 = VECTOR ( 'NONE', #481, 1000.000000000000000 ) ;
#361 = DIRECTION ( 'NONE',  ( 0.000000000000000000, 0.000000000000000000, 1.000000000000000000 ) ) ;
#362 = DIRECTION ( 'NONE',  ( 0.000000000000000000, 1.000000000000000000, 0.000000000000000000 ) ) ;
#363 = AXIS2_PLACEMENT_3D ( 'NONE', #242, #77, #121 ) ;
#364 = ADVANCED_FACE ( 'NONE', ( #176 ), #292, .F. ) ;
#365 = DIRECTION ( 'NONE',  ( -0.000000000000000000, 1.000000000000000000, -0.000000000000000000 ) ) ;
#366 = VERTEX_POINT ( 'NONE', #601 ) ;
#367 = DIRECTION ( 'NONE',  ( -0.000000000000000000, 1.000000000000000000, -0.000000000000000000 ) ) ;
#368 = ORIENTED_EDGE ( 'NONE', *, *, #468, .T. ) ;
#369 = EDGE_CURVE ( 'NONE', #471, #66, #430, .T. ) ;
#370 = EDGE_CURVE ( 'NONE', #428, #648, #642, .T. ) ;
#371 = LINE ( 'NONE', #572, #575 ) ;
#372 = ORIENTED_EDGE ( 'NONE', *, *, #159, .T. ) ;
#373 = CIRCLE ( 'NONE', #559, 2.100000000000000977 ) ;
#374 = ADVANCED_FACE ( 'NONE', ( #404 ), #102, .T. ) ;
#375 = PLANE ( 'NONE',  #569 ) ;
#376 = ORIENTED_EDGE ( 'NONE', *, *, #483, .F. ) ;
#377 = ORIENTED_EDGE ( 'NONE', *, *, #159, .F. ) ;
#378 = AXIS2_PLACEMENT_3D ( 'NONE', #153, #362, #218 ) ;
#379 = CARTESIAN_POINT ( 'NONE',  ( 39.99999999999999289, 2.999999999999997335, -27.00000000000000000 ) ) ;
#380 = DIRECTION ( 'NONE',  ( 1.000000000000000000, -0.000000000000000000, -0.000000000000000000 ) ) ;
#381 = EDGE_LOOP ( 'NONE', ( #9, #529 ) ) ;
#382 =( GEOMETRIC_REPRESENTATION_CONTEXT ( 3 ) GLOBAL_UNCERTAINTY_ASSIGNED_CONTEXT ( ( #154 ) ) GLOBAL_UNIT_ASSIGNED_CONTEXT ( ( #88, #497, #195 ) ) REPRESENTATION_CONTEXT ( 'NONE', 'WORKASPACE' ) );
#383 = FACE_OUTER_BOUND ( 'NONE', #323, .T. ) ;
#384 = LINE ( 'NONE', #488, #617 ) ;
#385 = ORIENTED_EDGE ( 'NONE', *, *, #561, .T. ) ;
#386 = DIRECTION ( 'NONE',  ( -0.000000000000000000, -1.000000000000000000, -0.000000000000000000 ) ) ;
#387 = DIRECTION ( 'NONE',  ( 0.000000000000000000, 1.000000000000000000, 0.000000000000000000 ) ) ;
#388 = AXIS2_PLACEMENT_3D ( 'NONE', #334, #274, #539 ) ;
#389 = LINE ( 'NONE', #546, #57 ) ;
#390 = ORIENTED_EDGE ( 'NONE', *, *, #113, .T. ) ;
#391 = CARTESIAN_POINT ( 'NONE',  ( 0.000000000000000000, 0.000000000000000000, 1.499999999999958922 ) ) ;
#392 = CARTESIAN_POINT ( 'NONE',  ( 0.000000000000000000, 2.999999999999997335, -34.00000000000000000 ) ) ;
#393 = FILL_AREA_STYLE_COLOUR ( '', #411 ) ;
#394 = VERTEX_POINT ( 'NONE', #350 ) ;
#395 = VECTOR ( 'NONE', #592, 1000.000000000000000 ) ;
#396 =( NAMED_UNIT ( * ) PLANE_ANGLE_UNIT ( ) SI_UNIT ( $, .RADIAN. ) );
#397 = LINE ( 'NONE', #598, #462 ) ;
#398 = DIRECTION ( 'NONE',  ( -0.000000000000000000, -0.000000000000000000, -1.000000000000000000 ) ) ;
#399 = ORIENTED_EDGE ( 'NONE', *, *, #527, .F. ) ;
#400 =( LENGTH_UNIT ( ) NAMED_UNIT ( * ) SI_UNIT ( .MILLI., .METRE. ) );
#401 = DIRECTION ( 'NONE',  ( 0.000000000000000000, 0.000000000000000000, 1.000000000000000000 ) ) ;
#402 = DIRECTION ( 'NONE',  ( 0.000000000000000000, 1.000000000000000000, 0.000000000000000000 ) ) ;
#403 = DIRECTION ( 'NONE',  ( -0.000000000000000000, -1.000000000000000000, -0.000000000000000000 ) ) ;
#404 = FACE_OUTER_BOUND ( 'NONE', #130, .T. ) ;
#405 = EDGE_LOOP ( 'NONE', ( #79, #91, #267, #185 ) ) ;
#406 = SURFACE_SIDE_STYLE ('',( #291 ) ) ;
#407 = EDGE_CURVE ( 'NONE', #366, #222, #566, .T. ) ;
#408 = CARTESIAN_POINT ( 'NONE',  ( 0.000000000000000000, 0.000000000000000000, -34.00000000000000000 ) ) ;
#409 = EDGE_LOOP ( 'NONE', ( #619, #356 ) ) ;
#410 = FACE_BOUND ( 'NONE', #577, .T. ) ;
#411 = COLOUR_RGB ( '',0.7921568627450980005, 0.8196078431372548767, 0.9333333333333333481 ) ;
#412 = FACE_OUTER_BOUND ( 'NONE', #576, .T. ) ;
#413 = ADVANCED_FACE ( 'NONE', ( #100, #410, #200 ), #560, .F. ) ;
#414 = VECTOR ( 'NONE', #386, 1000.000000000000000 ) ;
#415 = CARTESIAN_POINT ( 'NONE',  ( 43.39999999999999858, 11.99999999999999822, 7.500000000000000000 ) ) ;
#416 = ADVANCED_FACE ( 'NONE', ( #44 ), #302, .T. ) ;
#417 = DIRECTION ( 'NONE',  ( -1.000000000000000000, 0.000000000000000000, -0.000000000000000000 ) ) ;
#418 = ORIENTED_EDGE ( 'NONE', *, *, #171, .F. ) ;
#419 = CIRCLE ( 'NONE', #107, 2.750000000000001776 ) ;
#420 = AXIS2_PLACEMENT_3D ( 'NONE', #8, #204, #209 ) ;
#421 = CARTESIAN_POINT ( 'NONE',  ( 50.00000000000000000, 3.464101615137757495, 7.500000000000000000 ) ) ;
#422 = VERTEX_POINT ( 'NONE', #505 ) ;
#423 = ADVANCED_FACE ( 'NONE', ( #502 ), #196, .F. ) ;
#424 = VECTOR ( 'NONE', #191, 1000.000000000000000 ) ;
#425 = DIRECTION ( 'NONE',  ( 0.000000000000000000, 1.000000000000000000, 0.000000000000000000 ) ) ;
#426 = ORIENTED_EDGE ( 'NONE', *, *, #225, .T. ) ;
#427 = DIRECTION ( 'NONE',  ( 1.000000000000000000, 0.000000000000000000, 0.000000000000000000 ) ) ;
#428 = VERTEX_POINT ( 'NONE', #256 ) ;
#429 = VERTEX_POINT ( 'NONE', #54 ) ;
#430 = CIRCLE ( 'NONE', #585, 2.100000000000000977 ) ;
#431 = DIRECTION ( 'NONE',  ( -0.000000000000000000, -0.000000000000000000, -1.000000000000000000 ) ) ;
#432 = VERTEX_POINT ( 'NONE', #605 ) ;
#433 = CIRCLE ( 'NONE', #591, 2.750000000000001776 ) ;
#434 = CARTESIAN_POINT ( 'NONE',  ( 2.399999999999995914, 11.99999999999999822, 7.500000000000000000 ) ) ;
#435 = CARTESIAN_POINT ( 'NONE',  ( 45.50000000000000000, 11.99999999999999822, 7.500000000000000000 ) ) ;
#436 = PRODUCT_RELATED_PRODUCT_CATEGORY ( 'part', '', ( #58 ) ) ;
#437 = VERTEX_POINT ( 'NONE', #144 ) ;
#438 = AXIS2_PLACEMENT_3D ( 'NONE', #286, #187, #131 ) ;
#439 = ADVANCED_FACE ( 'NONE', ( #555 ), #47, .F. ) ;
#440 = DIRECTION ( 'NONE',  ( 0.000000000000000000, 1.000000000000000000, 0.000000000000000000 ) ) ;
#441 = DIRECTION ( 'NONE',  ( -0.4257970363298795857, 0.000000000000000000, 0.9048187022009940295 ) ) ;
#442 = DIRECTION ( 'NONE',  ( 0.000000000000000000, 0.000000000000000000, 1.000000000000000000 ) ) ;
#443 = EDGE_LOOP ( 'NONE', ( #300, #233, #162, #178 ) ) ;
#444 = PRODUCT_CONTEXT ( 'NONE', #6, 'mechanical' ) ;
#445 = DIRECTION ( 'NONE',  ( -1.000000000000000000, 0.000000000000000000, 0.000000000000000000 ) ) ;
#446 = CARTESIAN_POINT ( 'NONE',  ( 16.00000000000000000, 0.8284271247461898469, -34.00000000000000000 ) ) ;
#447 = FACE_OUTER_BOUND ( 'NONE', #443, .T. ) ;
#448 = ORIENTED_EDGE ( 'NONE', *, *, #358, .T. ) ;
#449 = DIRECTION ( 'NONE',  ( 0.000000000000000000, 0.000000000000000000, 1.000000000000000000 ) ) ;
#450 =( NAMED_UNIT ( * ) PLANE_ANGLE_UNIT ( ) SI_UNIT ( $, .RADIAN. ) );
#451 = ORIENTED_EDGE ( 'NONE', *, *, #561, .F. ) ;
#452 = ADVANCED_FACE ( 'NONE', ( #192 ), #51, .F. ) ;
#453 = LINE ( 'NONE', #246, #311 ) ;
#454 = DIRECTION ( 'NONE',  ( 0.000000000000000000, 1.000000000000000000, 0.000000000000000000 ) ) ;
#455 = ORIENTED_EDGE ( 'NONE', *, *, #50, .T. ) ;
#456 = DIRECTION ( 'NONE',  ( -0.000000000000000000, -0.000000000000000000, -1.000000000000000000 ) ) ;
#457 = ORIENTED_EDGE ( 'NONE', *, *, #80, .F. ) ;
#458 = FILL_AREA_STYLE_COLOUR ( '', #510 ) ;
#459 = DIRECTION ( 'NONE',  ( 1.000000000000000000, 0.000000000000000000, 0.000000000000000000 ) ) ;
#460 = ORIENTED_EDGE ( 'NONE', *, *, #68, .T. ) ;
#461 = CARTESIAN_POINT ( 'NONE',  ( 50.00000000000000000, 0.000000000000000000, 7.500000000000000000 ) ) ;
#462 = VECTOR ( 'NONE', #441, 1000.000000000000114 ) ;
#463 = DIRECTION ( 'NONE',  ( 0.000000000000000000, -0.000000000000000000, -1.000000000000000000 ) ) ;
#464 = CARTESIAN_POINT ( 'NONE',  ( 47.59999999999999432, 11.99999999999999822, 7.500000000000000000 ) ) ;
#465 = CIRCLE ( 'NONE', #53, 2.750000000000002665 ) ;
#466 = DIRECTION ( 'NONE',  ( 0.000000000000000000, 0.000000000000000000, 1.000000000000000000 ) ) ;
#467 = ORIENTED_EDGE ( 'NONE', *, *, #358, .F. ) ;
#468 = EDGE_CURVE ( 'NONE', #64, #553, #146, .T. ) ;
#469 = CARTESIAN_POINT ( 'NONE',  ( 15.05882352941176272, 0.000000000000000000, -32.00000000000000000 ) ) ;
#470 = AXIS2_PLACEMENT_3D ( 'NONE', #653, #203, #297 ) ;
#471 = VERTEX_POINT ( 'NONE', #434 ) ;
#472 = EDGE_CURVE ( 'NONE', #262, #626, #270, .T. ) ;
#473 = VECTOR ( 'NONE', #599, 1000.000000000000000 ) ;
#474 = CARTESIAN_POINT ( 'NONE',  ( 50.00000000000000000, 0.000000000000000000, 1.499999999999958922 ) ) ;
#475 = EDGE_LOOP ( 'NONE', ( #216, #138, #385, #61 ) ) ;
#476 = DIRECTION ( 'NONE',  ( 0.000000000000000000, 0.000000000000000000, -1.000000000000000000 ) ) ;
#477 = EDGE_LOOP ( 'NONE', ( #451, #18, #654, #532 ) ) ;
#478 = CARTESIAN_POINT ( 'NONE',  ( 4.499999999999997335, 11.99999999999999822, 7.500000000000000000 ) ) ;
#479 = ORIENTED_EDGE ( 'NONE', *, *, #518, .F. ) ;
#480 = PLANE ( 'NONE',  #624 ) ;
#481 = DIRECTION ( 'NONE',  ( 0.000000000000000000, -1.000000000000000000, 0.000000000000000000 ) ) ;
#482 = ORIENTED_EDGE ( 'NONE', *, *, #612, .F. ) ;
#483 = EDGE_CURVE ( 'NONE', #66, #471, #298, .T. ) ;
#484 = DIRECTION ( 'NONE',  ( 0.000000000000000000, 0.000000000000000000, 1.000000000000000000 ) ) ;
#485 = LINE ( 'NONE', #188, #75 ) ;
#486 = ORIENTED_EDGE ( 'NONE', *, *, #314, .F. ) ;
#487 = CARTESIAN_POINT ( 'NONE',  ( 6.599999999999997868, 11.99999999999999822, 7.500000000000000000 ) ) ;
#488 = CARTESIAN_POINT ( 'NONE',  ( 2.399999999999995914, 11.99999999999999822, 7.500000000000000000 ) ) ;
#489 = LINE ( 'NONE', #294, #243 ) ;
#490 = ORIENTED_EDGE ( 'NONE', *, *, #281, .T. ) ;
#491 = ADVANCED_FACE ( 'NONE', ( #383 ), #375, .F. ) ;
#492 = FACE_OUTER_BOUND ( 'NONE', #109, .T. ) ;
#493 = CARTESIAN_POINT ( 'NONE',  ( 0.000000000000000000, 0.000000000000000000, 7.500000000000000000 ) ) ;
#494 = ORIENTED_EDGE ( 'NONE', *, *, #123, .T. ) ;
#495 = EDGE_CURVE ( 'NONE', #122, #174, #643, .T. ) ;
#496 = VECTOR ( 'NONE', #403, 1000.000000000000000 ) ;
#497 =( NAMED_UNIT ( * ) PLANE_ANGLE_UNIT ( ) SI_UNIT ( $, .RADIAN. ) );
#498 = DIRECTION ( 'NONE',  ( 0.000000000000000000, 1.000000000000000000, 0.000000000000000000 ) ) ;
#499 = ORIENTED_EDGE ( 'NONE', *, *, #472, .F. ) ;
#500 = AXIS2_PLACEMENT_3D ( 'NONE', #326, #484, #631 ) ;
#501 = CYLINDRICAL_SURFACE ( 'NONE', #42, 2.750000000000002665 ) ;
#502 = FACE_OUTER_BOUND ( 'NONE', #221, .T. ) ;
#503 = ORIENTED_EDGE ( 'NONE', *, *, #123, .F. ) ;
#504 = CARTESIAN_POINT ( 'NONE',  ( 39.99999999999999289, -7.000000000000002665, -27.00000000000000000 ) ) ;
#505 = CARTESIAN_POINT ( 'NONE',  ( 40.00000000000000000, 0.000000000000000000, -9.750000000000001776 ) ) ;
#506 = AXIS2_PLACEMENT_3D ( 'NONE', #2, #456, #249 ) ;
#507 = ORIENTED_EDGE ( 'NONE', *, *, #257, .T. ) ;
#508 =( GEOMETRIC_REPRESENTATION_CONTEXT ( 3 ) GLOBAL_UNCERTAINTY_ASSIGNED_CONTEXT ( ( #213 ) ) GLOBAL_UNIT_ASSIGNED_CONTEXT ( ( #602, #450, #183 ) ) REPRESENTATION_CONTEXT ( 'NONE', 'WORKASPACE' ) );
#509 = DIRECTION ( 'NONE',  ( -1.000000000000000000, 0.000000000000000000, 0.000000000000000000 ) ) ;
#510 = COLOUR_RGB ( '',0.7921568627450980005, 0.8196078431372548767, 0.9333333333333333481 ) ;
#511 = DIRECTION ( 'NONE',  ( 0.000000000000000000, 0.000000000000000000, -1.000000000000000000 ) ) ;
#512 = ADVANCED_FACE ( 'NONE', ( #124 ), #480, .F. ) ;
#513 = CARTESIAN_POINT ( 'NONE',  ( 0.000000000000000000, 15.00000000000000000, 0.000000000000000000 ) ) ;
#514 = CIRCLE ( 'NONE', #205, 2.750000000000001776 ) ;
#515 = LINE ( 'NONE', #421, #149 ) ;
#516 = ADVANCED_BREP_SHAPE_REPRESENTATION ( 'xcarriage for v2', ( #160, #438 ), #580 ) ;
#517 = EDGE_LOOP ( 'NONE', ( #280, #455, #15, #641 ) ) ;
#518 = EDGE_CURVE ( 'NONE', #520, #174, #578, .T. ) ;
#519 = DIRECTION ( 'NONE',  ( 0.000000000000000000, 0.000000000000000000, 1.000000000000000000 ) ) ;
#520 = VERTEX_POINT ( 'NONE', #391 ) ;
#521 = LINE ( 'NONE', #207, #49 ) ;
#522 = EDGE_LOOP ( 'NONE', ( #98, #170 ) ) ;
#523 = AXIS2_PLACEMENT_3D ( 'NONE', #625, #618, #463 ) ;
#524 = ORIENTED_EDGE ( 'NONE', *, *, #184, .F. ) ;
#525 = PRODUCT_DEFINITION_CONTEXT ( 'detailed design', #348, 'design' ) ;
#526 = CARTESIAN_POINT ( 'NONE',  ( 0.000000000000000000, 2.000000000000000000, -32.00000000000000000 ) ) ;
#527 = EDGE_CURVE ( 'NONE', #632, #432, #72, .T. ) ;
#528 = ORIENTED_EDGE ( 'NONE', *, *, #239, .T. ) ;
#529 = ORIENTED_EDGE ( 'NONE', *, *, #106, .F. ) ;
#530 = CARTESIAN_POINT ( 'NONE',  ( 0.000000000000000000, 3.464101615137757495, 7.500000000000000000 ) ) ;
#531 = DIRECTION ( 'NONE',  ( 0.000000000000000000, 0.000000000000000000, 1.000000000000000000 ) ) ;
#532 = ORIENTED_EDGE ( 'NONE', *, *, #1, .F. ) ;
#533 = DIRECTION ( 'NONE',  ( 1.000000000000000000, -0.000000000000000000, 0.000000000000000000 ) ) ;
#534 = CARTESIAN_POINT ( 'NONE',  ( 50.00000000000000000, 2.999999999999997335, 0.000000000000000000 ) ) ;
#535 = CARTESIAN_POINT ( 'NONE',  ( 0.000000000000000000, 15.00000000000000000, 7.500000000000000000 ) ) ;
#536 = ORIENTED_EDGE ( 'NONE', *, *, #251, .F. ) ;
#537 = MECHANICAL_DESIGN_GEOMETRIC_PRESENTATION_REPRESENTATION (  '', ( #168 ), #508 ) ;
#538 = DIRECTION ( 'NONE',  ( -1.000000000000000000, 0.000000000000000000, 0.000000000000000000 ) ) ;
#539 = DIRECTION ( 'NONE',  ( -1.000000000000000000, 0.000000000000000000, 0.000000000000000000 ) ) ;
#540 = DIRECTION ( 'NONE',  ( 0.000000000000000000, 0.000000000000000000, 1.000000000000000000 ) ) ;
#541 = ORIENTED_EDGE ( 'NONE', *, *, #225, .F. ) ;
#542 = EDGE_CURVE ( 'NONE', #66, #222, #273, .T. ) ;
#543 = CARTESIAN_POINT ( 'NONE',  ( 0.000000000000000000, 15.00000000000000000, 7.500000000000000000 ) ) ;
#544 = DIRECTION ( 'NONE',  ( -1.000000000000000000, 0.000000000000000000, 0.000000000000000000 ) ) ;
#545 = EDGE_CURVE ( 'NONE', #202, #553, #127, .T. ) ;
#546 = CARTESIAN_POINT ( 'NONE',  ( 0.000000000000000000, 3.464101615137757495, 7.500000000000000000 ) ) ;
#547 = ORIENTED_EDGE ( 'NONE', *, *, #251, .T. ) ;
#548 = SURFACE_STYLE_USAGE ( .BOTH. , #406 ) ;
#549 = LINE ( 'NONE', #392, #258 ) ;
#550 = CARTESIAN_POINT ( 'NONE',  ( 40.00000000000000000, 0.000000000000000000, -7.000000000000000000 ) ) ;
#551 = ORIENTED_EDGE ( 'NONE', *, *, #370, .F. ) ;
#552 = CARTESIAN_POINT ( 'NONE',  ( 4.499999999999997335, 11.99999999999999822, 0.000000000000000000 ) ) ;
#553 = VERTEX_POINT ( 'NONE', #574 ) ;
#554 = CARTESIAN_POINT ( 'NONE',  ( 39.99999999999999289, 0.000000000000000000, -29.75000000000000355 ) ) ;
#555 = FACE_OUTER_BOUND ( 'NONE', #405, .T. ) ;
#556 = EDGE_CURVE ( 'NONE', #122, #313, #227, .T. ) ;
#557 = EDGE_LOOP ( 'NONE', ( #479, #197, #590, #377 ) ) ;
#558 = DIRECTION ( 'NONE',  ( -0.9048187022009941405, 0.000000000000000000, -0.4257970363298796412 ) ) ;
#559 = AXIS2_PLACEMENT_3D ( 'NONE', #89, #449, #647 ) ;
#560 = PLANE ( 'NONE',  #158 ) ;
#561 = EDGE_CURVE ( 'NONE', #429, #36, #31, .T. ) ;
#562 = CARTESIAN_POINT ( 'NONE',  ( 40.00000000000000000, 0.000000000000000000, -4.249999999999998224 ) ) ;
#563 = PRODUCT_DEFINITION_SHAPE ( 'NONE', 'NONE',  #240 ) ;
#564 = DIRECTION ( 'NONE',  ( 0.000000000000000000, 0.000000000000000000, 1.000000000000000000 ) ) ;
#565 = ORIENTED_EDGE ( 'NONE', *, *, #257, .F. ) ;
#566 = CIRCLE ( 'NONE', #26, 2.100000000000000977 ) ;
#567 = FACE_BOUND ( 'NONE', #336, .T. ) ;
#568 = ORIENTED_EDGE ( 'NONE', *, *, #621, .T. ) ;
#569 = AXIS2_PLACEMENT_3D ( 'NONE', #180, #172, #633 ) ;
#570 = CARTESIAN_POINT ( 'NONE',  ( 50.00000000000000000, 2.000000000000000000, -32.00000000000000000 ) ) ;
#571 = EDGE_LOOP ( 'NONE', ( #486, #341 ) ) ;
#572 = CARTESIAN_POINT ( 'NONE',  ( 39.99999999999999289, -7.000000000000002665, -24.24999999999999645 ) ) ;
#573 = ORIENTED_EDGE ( 'NONE', *, *, #369, .T. ) ;
#574 = CARTESIAN_POINT ( 'NONE',  ( 0.000000000000000000, 2.999999999999997335, 0.000000000000000000 ) ) ;
#575 = VECTOR ( 'NONE', #365, 1000.000000000000000 ) ;
#576 = EDGE_LOOP ( 'NONE', ( #145, #164, #33, #289 ) ) ;
#577 = EDGE_LOOP ( 'NONE', ( #645, #494 ) ) ;
#578 = LINE ( 'NONE', #530, #103 ) ;
#579 = DIRECTION ( 'NONE',  ( -0.000000000000000000, 1.000000000000000000, -0.000000000000000000 ) ) ;
#580 =( GEOMETRIC_REPRESENTATION_CONTEXT ( 3 ) GLOBAL_UNCERTAINTY_ASSIGNED_CONTEXT ( ( #611 ) ) GLOBAL_UNIT_ASSIGNED_CONTEXT ( ( #400, #396, #296 ) ) REPRESENTATION_CONTEXT ( 'NONE', 'WORKASPACE' ) );
#581 = ORIENTED_EDGE ( 'NONE', *, *, #281, .F. ) ;
#582 = FACE_OUTER_BOUND ( 'NONE', #45, .T. ) ;
#583 = DIRECTION ( 'NONE',  ( -0.000000000000000000, -0.000000000000000000, -1.000000000000000000 ) ) ;
#584 = ORIENTED_EDGE ( 'NONE', *, *, #407, .F. ) ;
#585 = AXIS2_PLACEMENT_3D ( 'NONE', #655, #359, #459 ) ;
#586 = CARTESIAN_POINT ( 'NONE',  ( 0.000000000000000000, 0.000000000000000000, 7.500000000000000000 ) ) ;
#587 = DIRECTION ( 'NONE',  ( 0.000000000000000000, 0.000000000000000000, 1.000000000000000000 ) ) ;
#588 = LINE ( 'NONE', #137, #116 ) ;
#589 = ADVANCED_FACE ( 'NONE', ( #582 ), #220, .T. ) ;
#590 = ORIENTED_EDGE ( 'NONE', *, *, #113, .F. ) ;
#591 = AXIS2_PLACEMENT_3D ( 'NONE', #550, #454, #651 ) ;
#592 = DIRECTION ( 'NONE',  ( -0.000000000000000000, -0.000000000000000000, -1.000000000000000000 ) ) ;
#593 = CYLINDRICAL_SURFACE ( 'NONE', #67, 2.750000000000001776 ) ;
#594 = SURFACE_STYLE_FILL_AREA ( #40 ) ;
#595 = ORIENTED_EDGE ( 'NONE', *, *, #184, .T. ) ;
#596 = MECHANICAL_DESIGN_GEOMETRIC_PRESENTATION_REPRESENTATION (  '', ( #96 ), #382 ) ;
#597 = CARTESIAN_POINT ( 'NONE',  ( 50.00000000000000000, 1.999999999999998224, -34.00000000000000000 ) ) ;
#598 = CARTESIAN_POINT ( 'NONE',  ( -2.889518413597734980, 0.000000000000000000, 6.140226628895183225 ) ) ;
#599 = DIRECTION ( 'NONE',  ( -0.000000000000000000, 1.000000000000000000, -0.000000000000000000 ) ) ;
#600 = ORIENTED_EDGE ( 'NONE', *, *, #136, .T. ) ;
#601 = CARTESIAN_POINT ( 'NONE',  ( 2.399999999999995914, 11.99999999999999822, 0.000000000000000000 ) ) ;
#602 =( LENGTH_UNIT ( ) NAMED_UNIT ( * ) SI_UNIT ( .MILLI., .METRE. ) );
#603 = FACE_OUTER_BOUND ( 'NONE', #517, .T. ) ;
#604 = ADVANCED_FACE ( 'NONE', ( #223 ), #81, .F. ) ;
#605 = CARTESIAN_POINT ( 'NONE',  ( 16.00000000000000000, 2.000000000000000000, -34.00000000000000000 ) ) ;
#606 = ORIENTED_EDGE ( 'NONE', *, *, #370, .T. ) ;
#607 = PRESENTATION_STYLE_ASSIGNMENT (( #548 ) ) ;
#608 = DIRECTION ( 'NONE',  ( -1.000000000000000000, 0.000000000000000000, 0.000000000000000000 ) ) ;
#609 = ORIENTED_EDGE ( 'NONE', *, *, #80, .T. ) ;
#610 = DIRECTION ( 'NONE',  ( 1.000000000000000000, 0.000000000000000000, 0.000000000000000000 ) ) ;
#611 = UNCERTAINTY_MEASURE_WITH_UNIT (LENGTH_MEASURE( 1.000000000000000082E-05 ), #400, 'distance_accuracy_value', 'NONE');
#612 = EDGE_CURVE ( 'NONE', #432, #202, #16, .T. ) ;
#613 = ADVANCED_FACE ( 'NONE', ( #321 ), #23, .T. ) ;
#614 = CIRCLE ( 'NONE', #217, 2.000000000000001776 ) ;
#615 = FACE_BOUND ( 'NONE', #381, .T. ) ;
#616 = PLANE ( 'NONE',  #378 ) ;
#617 = VECTOR ( 'NONE', #342, 1000.000000000000000 ) ;
#618 = DIRECTION ( 'NONE',  ( 0.000000000000000000, -1.000000000000000000, 0.000000000000000000 ) ) ;
#619 = ORIENTED_EDGE ( 'NONE', *, *, #322, .F. ) ;
#620 = CIRCLE ( 'NONE', #320, 2.750000000000002665 ) ;
#621 = EDGE_CURVE ( 'NONE', #285, #22, #465, .T. ) ;
#622 = DIRECTION ( 'NONE',  ( 0.000000000000000000, 0.000000000000000000, 1.000000000000000000 ) ) ;
#623 = ORIENTED_EDGE ( 'NONE', *, *, #206, .F. ) ;
#624 = AXIS2_PLACEMENT_3D ( 'NONE', #329, #338, #283 ) ;
#625 = CARTESIAN_POINT ( 'NONE',  ( 0.000000000000000000, 2.999999999999997335, -34.00000000000000000 ) ) ;
#626 = VERTEX_POINT ( 'NONE', #175 ) ;
#627 = CARTESIAN_POINT ( 'NONE',  ( 16.00000000000000000, -7.000000000000002665, -34.00000000000000000 ) ) ;
#628 = ORIENTED_EDGE ( 'NONE', *, *, #59, .T. ) ;
#629 = VECTOR ( 'NONE', #135, 1000.000000000000000 ) ;
#630 = ORIENTED_EDGE ( 'NONE', *, *, #495, .F. ) ;
#631 = DIRECTION ( 'NONE',  ( 1.000000000000000000, 0.000000000000000000, 0.000000000000000000 ) ) ;
#632 = VERTEX_POINT ( 'NONE', #597 ) ;
#633 = DIRECTION ( 'NONE',  ( 0.000000000000000000, 0.000000000000000000, -1.000000000000000000 ) ) ;
#634 = CARTESIAN_POINT ( 'NONE',  ( 40.00000000000000000, 2.999999999999997335, -7.000000000000000000 ) ) ;
#635 = VECTOR ( 'NONE', #538, 1000.000000000000000 ) ;
#636 = ORIENTED_EDGE ( 'NONE', *, *, #106, .T. ) ;
#637 = ADVANCED_FACE ( 'NONE', ( #198 ), #501, .F. ) ;
#638 = DIRECTION ( 'NONE',  ( 0.000000000000000000, 0.000000000000000000, 1.000000000000000000 ) ) ;
#639 = CARTESIAN_POINT ( 'NONE',  ( 15.05882352941176272, 0.000000000000000000, -32.00000000000000000 ) ) ;
#640 = CARTESIAN_POINT ( 'NONE',  ( 40.00000000000000000, 2.999999999999997335, -4.249999999999998224 ) ) ;
#641 = ORIENTED_EDGE ( 'NONE', *, *, #199, .F. ) ;
#642 = CIRCLE ( 'NONE', #470, 2.750000000000002665 ) ;
#643 = LINE ( 'NONE', #586, #414 ) ;
#644 = CARTESIAN_POINT ( 'NONE',  ( 40.00000000000000000, -7.000000000000002665, -7.000000000000000000 ) ) ;
#645 = ORIENTED_EDGE ( 'NONE', *, *, #472, .T. ) ;
#646 = CIRCLE ( 'NONE', #306, 2.750000000000002665 ) ;
#647 = DIRECTION ( 'NONE',  ( 1.000000000000000000, 0.000000000000000000, 0.000000000000000000 ) ) ;
#648 = VERTEX_POINT ( 'NONE', #554 ) ;
#649 = EDGE_CURVE ( 'NONE', #553, #134, #38, .T. ) ;
#650 = CARTESIAN_POINT ( 'NONE',  ( 50.00000000000000000, 2.999999999999997335, -34.00000000000000000 ) ) ;
#651 = DIRECTION ( 'NONE',  ( 0.000000000000000000, 0.000000000000000000, 1.000000000000000000 ) ) ;
#652 = ORIENTED_EDGE ( 'NONE', *, *, #239, .F. ) ;
#653 = CARTESIAN_POINT ( 'NONE',  ( 39.99999999999999289, 0.000000000000000000, -27.00000000000000000 ) ) ;
#654 = ORIENTED_EDGE ( 'NONE', *, *, #649, .F. ) ;
#655 = CARTESIAN_POINT ( 'NONE',  ( 4.499999999999997335, 11.99999999999999822, 7.500000000000000000 ) ) ;
#656 = ORIENTED_EDGE ( 'NONE', *, *, #150, .F. ) ;
ENDSEC;
END-ISO-10303-21;
