ISO-10303-21;
HEADER;
FILE_DESCRIPTION (( 'STEP AP214' ),
    '1' );
FILE_NAME ('y bearing holder b.STEP',
    '2026-02-16T17:59:39',
    ( '' ),
    ( '' ),
    'SwSTEP 2.0',
    'SolidWorks 2021',
    '' );
FILE_SCHEMA (( 'AUTOMOTIVE_DESIGN' ));
ENDSEC;

DATA;
#1 = EDGE_LOOP ( 'NONE', ( #148, #252, #74, #352 ) ) ;
#2 = LINE ( 'NONE', #331, #498 ) ;
#3 = CARTESIAN_POINT ( 'NONE',  ( 0.000000000000000000, 40.00000000000000000, 6.000000000000000000 ) ) ;
#4 = DIRECTION ( 'NONE',  ( -1.000000000000000000, -0.000000000000000000, -0.000000000000000000 ) ) ;
#5 = ADVANCED_FACE ( 'NONE', ( #438, #439 ), #519, .F. ) ;
#6 = CYLINDRICAL_SURFACE ( 'NONE', #515, 2.850000000000000533 ) ;
#7 = SURFACE_SIDE_STYLE ('',( #161 ) ) ;
#8 = DIRECTION ( 'NONE',  ( 0.000000000000000000, 0.000000000000000000, 1.000000000000000000 ) ) ;
#9 = DIRECTION ( 'NONE',  ( -1.000000000000000000, 0.000000000000000000, 0.000000000000000000 ) ) ;
#10 = CLOSED_SHELL ( 'NONE', ( #449, #282, #233, #408, #118, #260, #105, #183, #88, #159, #5, #54, #143, #344, #22, #401, #217 ) ) ;
#11 = DIRECTION ( 'NONE',  ( -0.000000000000000000, 0.000000000000000000, 1.000000000000000000 ) ) ;
#12 = APPLICATION_CONTEXT ( 'automotive_design' ) ;
#13 = DIRECTION ( 'NONE',  ( -0.000000000000000000, -0.000000000000000000, -1.000000000000000000 ) ) ;
#14 = DIRECTION ( 'NONE',  ( -0.000000000000000000, 0.000000000000000000, 1.000000000000000000 ) ) ;
#15 = FACE_OUTER_BOUND ( 'NONE', #181, .T. ) ;
#16 = CIRCLE ( 'NONE', #64, 2.850000000000000977 ) ;
#17 = EDGE_CURVE ( 'NONE', #190, #416, #358, .T. ) ;
#18 = CARTESIAN_POINT ( 'NONE',  ( 0.000000000000000000, 30.00000000000000000, -0.8500000000000005329 ) ) ;
#19 = CARTESIAN_POINT ( 'NONE',  ( 0.000000000000000000, 9.999999999999998224, 4.850000000000003197 ) ) ;
#20 = DIRECTION ( 'NONE',  ( 0.000000000000000000, 1.000000000000000000, -0.000000000000000000 ) ) ;
#21 = VECTOR ( 'NONE', #409, 1000.000000000000000 ) ;
#22 = ADVANCED_FACE ( 'NONE', ( #514 ), #117, .T. ) ;
#23 =( LENGTH_UNIT ( ) NAMED_UNIT ( * ) SI_UNIT ( .MILLI., .METRE. ) );
#24 = VECTOR ( 'NONE', #250, 1000.000000000000000 ) ;
#25 = CARTESIAN_POINT ( 'NONE',  ( 8.500000000000000000, 9.999999999999998224, 4.850000000000003197 ) ) ;
#26 = CYLINDRICAL_SURFACE ( 'NONE', #359, 9.500000000000001776 ) ;
#27 = DIRECTION ( 'NONE',  ( -0.000000000000000000, -0.000000000000000000, -1.000000000000000000 ) ) ;
#28 = ORIENTED_EDGE ( 'NONE', *, *, #426, .F. ) ;
#29 = COLOUR_RGB ( '',0.7921568627450980005, 0.8196078431372548767, 0.9333333333333333481 ) ;
#30 = EDGE_CURVE ( 'NONE', #236, #376, #195, .T. ) ;
#31 = VERTEX_POINT ( 'NONE', #276 ) ;
#32 = EDGE_LOOP ( 'NONE', ( #153, #264 ) ) ;
#33 = EDGE_CURVE ( 'NONE', #95, #220, #444, .T. ) ;
#34 = CIRCLE ( 'NONE', #311, 2.850000000000000533 ) ;
#35 = ORIENTED_EDGE ( 'NONE', *, *, #255, .F. ) ;
#36 = ORIENTED_EDGE ( 'NONE', *, *, #430, .T. ) ;
#37 = AXIS2_PLACEMENT_3D ( 'NONE', #216, #138, #422 ) ;
#38 =( LENGTH_UNIT ( ) NAMED_UNIT ( * ) SI_UNIT ( .MILLI., .METRE. ) );
#39 = AXIS2_PLACEMENT_3D ( 'NONE', #124, #279, #283 ) ;
#40 = ORIENTED_EDGE ( 'NONE', *, *, #328, .T. ) ;
#41 = ORIENTED_EDGE ( 'NONE', *, *, #128, .F. ) ;
#42 = LINE ( 'NONE', #378, #391 ) ;
#43 = ORIENTED_EDGE ( 'NONE', *, *, #463, .T. ) ;
#44 = DIRECTION ( 'NONE',  ( 1.000000000000000000, 0.000000000000000000, 0.000000000000000000 ) ) ;
#45 = DIRECTION ( 'NONE',  ( 0.000000000000000000, 0.000000000000000000, 1.000000000000000000 ) ) ;
#46 = CIRCLE ( 'NONE', #175, 35.00000000000001421 ) ;
#47 = PRODUCT_DEFINITION_CONTEXT ( 'detailed design', #12, 'design' ) ;
#48 = FACE_OUTER_BOUND ( 'NONE', #510, .T. ) ;
#49 = DIRECTION ( 'NONE',  ( -0.000000000000000000, 0.000000000000000000, 1.000000000000000000 ) ) ;
#50 = CARTESIAN_POINT ( 'NONE',  ( 27.99999999999999645, 28.00000000000000000, 0.000000000000000000 ) ) ;
#51 = VERTEX_POINT ( 'NONE', #130 ) ;
#52 = CYLINDRICAL_SURFACE ( 'NONE', #267, 5.999999999999998224 ) ;
#53 = DIRECTION ( 'NONE',  ( -1.000000000000000000, -0.000000000000000000, -0.000000000000000000 ) ) ;
#54 = ADVANCED_FACE ( 'NONE', ( #417, #85 ), #482, .T. ) ;
#55 = DIRECTION ( 'NONE',  ( 1.000000000000000000, 0.000000000000000000, 0.000000000000000000 ) ) ;
#56 = ORIENTED_EDGE ( 'NONE', *, *, #430, .F. ) ;
#57 = DIRECTION ( 'NONE',  ( 0.000000000000000000, 0.000000000000000000, 1.000000000000000000 ) ) ;
#58 = DIRECTION ( 'NONE',  ( 0.000000000000000000, 0.000000000000000000, 1.000000000000000000 ) ) ;
#59 = CARTESIAN_POINT ( 'NONE',  ( 22.00000000000000000, 28.00000000000000000, -2.000000000000000000 ) ) ;
#60 = ORIENTED_EDGE ( 'NONE', *, *, #144, .F. ) ;
#61 = DIRECTION ( 'NONE',  ( -1.000000000000000000, 0.000000000000000000, 0.000000000000000000 ) ) ;
#62 = SURFACE_STYLE_USAGE ( .BOTH. , #259 ) ;
#63 = ORIENTED_EDGE ( 'NONE', *, *, #152, .T. ) ;
#64 = AXIS2_PLACEMENT_3D ( 'NONE', #197, #9, #445 ) ;
#65 = DIRECTION ( 'NONE',  ( -0.000000000000000000, -0.000000000000000000, -1.000000000000000000 ) ) ;
#66 = VERTEX_POINT ( 'NONE', #208 ) ;
#67 = CARTESIAN_POINT ( 'NONE',  ( 22.00000000000000000, 28.00000000000000000, 0.000000000000000000 ) ) ;
#68 = EDGE_CURVE ( 'NONE', #376, #66, #245, .T. ) ;
#69 = AXIS2_PLACEMENT_3D ( 'NONE', #176, #335, #133 ) ;
#70 = DIRECTION ( 'NONE',  ( -0.000000000000000000, 0.000000000000000000, 1.000000000000000000 ) ) ;
#71 = ORIENTED_EDGE ( 'NONE', *, *, #128, .T. ) ;
#72 = EDGE_CURVE ( 'NONE', #31, #416, #34, .T. ) ;
#73 = AXIS2_PLACEMENT_3D ( 'NONE', #171, #460, #489 ) ;
#74 = ORIENTED_EDGE ( 'NONE', *, *, #478, .F. ) ;
#75 = STYLED_ITEM ( 'NONE', ( #101 ), #147 ) ;
#76 = EDGE_LOOP ( 'NONE', ( #40, #462, #115, #297 ) ) ;
#77 = DIRECTION ( 'NONE',  ( 1.000000000000000000, 0.000000000000000000, 0.000000000000000000 ) ) ;
#78 = AXIS2_PLACEMENT_3D ( 'NONE', #177, #209, #45 ) ;
#79 = FILL_AREA_STYLE ('',( #404 ) ) ;
#80 = EDGE_LOOP ( 'NONE', ( #273, #345, #196, #187 ) ) ;
#81 = DIRECTION ( 'NONE',  ( -1.000000000000000000, 0.000000000000000000, 0.000000000000000000 ) ) ;
#82 = VECTOR ( 'NONE', #4, 1000.000000000000000 ) ;
#83 = CARTESIAN_POINT ( 'NONE',  ( 8.500000000000000000, 30.00000000000000000, 2.000000000000000888 ) ) ;
#84 = DIRECTION ( 'NONE',  ( 1.000000000000000000, 0.000000000000000000, 0.000000000000000000 ) ) ;
#85 = FACE_BOUND ( 'NONE', #398, .T. ) ;
#86 = DIRECTION ( 'NONE',  ( -1.000000000000000000, 0.000000000000000000, 0.000000000000000000 ) ) ;
#87 = CIRCLE ( 'NONE', #154, 12.50000000000000355 ) ;
#88 = ADVANCED_FACE ( 'NONE', ( #48 ), #163, .T. ) ;
#89 = DIRECTION ( 'NONE',  ( -1.000000000000000000, 0.000000000000000000, 0.000000000000000000 ) ) ;
#90 = DIRECTION ( 'NONE',  ( 0.000000000000000000, 0.000000000000000000, 1.000000000000000000 ) ) ;
#91 = DIRECTION ( 'NONE',  ( -1.000000000000000000, -0.000000000000000000, -0.000000000000000000 ) ) ;
#92 = FACE_OUTER_BOUND ( 'NONE', #76, .T. ) ;
#93 = LINE ( 'NONE', #174, #222 ) ;
#94 = DIRECTION ( 'NONE',  ( -0.000000000000000000, -0.000000000000000000, -1.000000000000000000 ) ) ;
#95 = VERTEX_POINT ( 'NONE', #205 ) ;
#96 = DIRECTION ( 'NONE',  ( 1.000000000000000000, 0.000000000000000000, 0.000000000000000000 ) ) ;
#97 = CARTESIAN_POINT ( 'NONE',  ( 22.00000000000000000, 28.00000000000000000, 6.000000000000000000 ) ) ;
#98 = FACE_OUTER_BOUND ( 'NONE', #156, .T. ) ;
#99 = ORIENTED_EDGE ( 'NONE', *, *, #366, .F. ) ;
#100 = CIRCLE ( 'NONE', #496, 2.850000000000000977 ) ;
#101 = PRESENTATION_STYLE_ASSIGNMENT (( #62 ) ) ;
#102 = EDGE_LOOP ( 'NONE', ( #292, #309, #355, #512 ) ) ;
#103 = CARTESIAN_POINT ( 'NONE',  ( 8.500000000000000000, 9.999999999999998224, -0.8499999999999974243 ) ) ;
#104 = ORIENTED_EDGE ( 'NONE', *, *, #440, .T. ) ;
#105 = ADVANCED_FACE ( 'NONE', ( #126, #369, #285 ), #491, .T. ) ;
#106 = ORIENTED_EDGE ( 'NONE', *, *, #166, .F. ) ;
#107 = ORIENTED_EDGE ( 'NONE', *, *, #426, .T. ) ;
#108 = VERTEX_POINT ( 'NONE', #330 ) ;
#109 = AXIS2_PLACEMENT_3D ( 'NONE', #253, #280, #89 ) ;
#110 = VERTEX_POINT ( 'NONE', #324 ) ;
#111 = CIRCLE ( 'NONE', #244, 9.500000000000001776 ) ;
#112 = ORIENTED_EDGE ( 'NONE', *, *, #235, .F. ) ;
#113 = CIRCLE ( 'NONE', #506, 9.500000000000001776 ) ;
#114 = ORIENTED_EDGE ( 'NONE', *, *, #294, .T. ) ;
#115 = ORIENTED_EDGE ( 'NONE', *, *, #308, .F. ) ;
#116 = ORIENTED_EDGE ( 'NONE', *, *, #517, .T. ) ;
#117 = PLANE ( 'NONE',  #262 ) ;
#118 = ADVANCED_FACE ( 'NONE', ( #92 ), #121, .T. ) ;
#119 =( NAMED_UNIT ( * ) PLANE_ANGLE_UNIT ( ) SI_UNIT ( $, .RADIAN. ) );
#120 = CIRCLE ( 'NONE', #421, 2.850000000000000533 ) ;
#121 = CYLINDRICAL_SURFACE ( 'NONE', #109, 12.50000000000000355 ) ;
#122 = FACE_OUTER_BOUND ( 'NONE', #1, .T. ) ;
#123 = PRODUCT_DEFINITION ( 'UNKNOWN', '', #204, #47 ) ;
#124 = CARTESIAN_POINT ( 'NONE',  ( 0.000000000000000000, 0.000000000000000000, 0.000000000000000000 ) ) ;
#125 = VECTOR ( 'NONE', #20, 1000.000000000000000 ) ;
#126 = FACE_BOUND ( 'NONE', #395, .T. ) ;
#127 = CARTESIAN_POINT ( 'NONE',  ( 0.6148280490264924625, 34.99459939005060960, -2.000000000000000000 ) ) ;
#128 = EDGE_CURVE ( 'NONE', #95, #51, #100, .T. ) ;
#129 = VERTEX_POINT ( 'NONE', #319 ) ;
#130 = CARTESIAN_POINT ( 'NONE',  ( 8.500000000000000000, 30.00000000000000000, 4.850000000000002309 ) ) ;
#131 = CARTESIAN_POINT ( 'NONE',  ( 12.49999999999999645, 28.00000000000000000, 6.000000000000000000 ) ) ;
#132 = AXIS2_PLACEMENT_3D ( 'NONE', #59, #256, #455 ) ;
#133 = DIRECTION ( 'NONE',  ( 1.000000000000000000, 0.000000000000000000, 0.000000000000000000 ) ) ;
#134 = EDGE_LOOP ( 'NONE', ( #35, #316, #405, #465 ) ) ;
#135 = DIRECTION ( 'NONE',  ( -1.000000000000000000, 0.000000000000000000, 0.000000000000000000 ) ) ;
#136 = LINE ( 'NONE', #295, #314 ) ;
#137 = DIRECTION ( 'NONE',  ( 1.000000000000000000, 0.000000000000000000, 0.000000000000000000 ) ) ;
#138 = DIRECTION ( 'NONE',  ( -1.000000000000000000, 0.000000000000000000, 0.000000000000000000 ) ) ;
#139 = FACE_OUTER_BOUND ( 'NONE', #476, .T. ) ;
#140 = ORIENTED_EDGE ( 'NONE', *, *, #152, .F. ) ;
#141 = ORIENTED_EDGE ( 'NONE', *, *, #218, .T. ) ;
#142 = CARTESIAN_POINT ( 'NONE',  ( 8.500000000000000000, 30.00000000000000000, 2.000000000000000888 ) ) ;
#143 = ADVANCED_FACE ( 'NONE', ( #413 ), #52, .F. ) ;
#144 = EDGE_CURVE ( 'NONE', #470, #31, #201, .T. ) ;
#145 = CARTESIAN_POINT ( 'NONE',  ( 22.00000000000000000, 28.00000000000000000, 6.000000000000000000 ) ) ;
#146 = AXIS2_PLACEMENT_3D ( 'NONE', #251, #505, #375 ) ;
#147 = MANIFOLD_SOLID_BREP ( 'Cut-Extrude1', #10 ) ;
#148 = ORIENTED_EDGE ( 'NONE', *, *, #166, .T. ) ;
#149 = VECTOR ( 'NONE', #485, 1000.000000000000000 ) ;
#150 = UNCERTAINTY_MEASURE_WITH_UNIT (LENGTH_MEASURE( 1.000000000000000082E-05 ), #23, 'distance_accuracy_value', 'NONE');
#151 = CARTESIAN_POINT ( 'NONE',  ( 9.247693015089264890, 73.75618719433030890, 0.000000000000000000 ) ) ;
#152 = EDGE_CURVE ( 'NONE', #129, #522, #461, .T. ) ;
#153 = ORIENTED_EDGE ( 'NONE', *, *, #243, .F. ) ;
#154 = AXIS2_PLACEMENT_3D ( 'NONE', #238, #334, #320 ) ;
#155 = APPLICATION_CONTEXT ( 'automotive_design' ) ;
#156 = EDGE_LOOP ( 'NONE', ( #211, #36, #140, #504 ) ) ;
#157 = DIRECTION ( 'NONE',  ( 0.000000000000000000, 0.000000000000000000, 1.000000000000000000 ) ) ;
#158 = VECTOR ( 'NONE', #237, 1000.000000000000000 ) ;
#159 = ADVANCED_FACE ( 'NONE', ( #257, #98 ), #336, .T. ) ;
#160 = ORIENTED_EDGE ( 'NONE', *, *, #235, .T. ) ;
#161 = SURFACE_STYLE_FILL_AREA ( #79 ) ;
#162 = AXIS2_PLACEMENT_3D ( 'NONE', #145, #178, #55 ) ;
#163 = CYLINDRICAL_SURFACE ( 'NONE', #284, 35.00000000000000000 ) ;
#164 = DIRECTION ( 'NONE',  ( -1.000000000000000000, 0.000000000000000000, 0.000000000000000000 ) ) ;
#165 = PRESENTATION_LAYER_ASSIGNMENT (  '', '', ( #435 ) ) ;
#166 = EDGE_CURVE ( 'NONE', #108, #110, #298, .T. ) ;
#167 = CARTESIAN_POINT ( 'NONE',  ( 33.88065108387417013, 24.11411144997188316, 6.000000000000000000 ) ) ;
#168 = CARTESIAN_POINT ( 'NONE',  ( 18.64412974081296070, 40.04110189324482150, -2.000000000000000000 ) ) ;
#169 = DIRECTION ( 'NONE',  ( -1.000000000000000000, 0.000000000000000000, 0.000000000000000000 ) ) ;
#170 = FACE_OUTER_BOUND ( 'NONE', #102, .T. ) ;
#171 = CARTESIAN_POINT ( 'NONE',  ( 9.247693015089264890, 73.75618719433030890, -2.000000000000000000 ) ) ;
#172 = VERTEX_POINT ( 'NONE', #261 ) ;
#173 = DIRECTION ( 'NONE',  ( 0.000000000000000000, 0.000000000000000000, 1.000000000000000000 ) ) ;
#174 = CARTESIAN_POINT ( 'NONE',  ( 18.64412974081296070, 40.04110189324482150, 6.000000000000000000 ) ) ;
#175 = AXIS2_PLACEMENT_3D ( 'NONE', #127, #370, #325 ) ;
#176 = CARTESIAN_POINT ( 'NONE',  ( 9.247693015089264890, 73.75618719433030890, 6.000000000000000000 ) ) ;
#177 = CARTESIAN_POINT ( 'NONE',  ( 0.000000000000000000, 9.999999999999998224, 2.000000000000003109 ) ) ;
#178 = DIRECTION ( 'NONE',  ( -0.000000000000000000, 0.000000000000000000, 1.000000000000000000 ) ) ;
#179 = DIRECTION ( 'NONE',  ( -0.000000000000000000, -0.000000000000000000, 1.000000000000000000 ) ) ;
#180 = DIRECTION ( 'NONE',  ( 0.000000000000000000, 0.000000000000000000, -1.000000000000000000 ) ) ;
#181 = EDGE_LOOP ( 'NONE', ( #41, #475, #192, #350 ) ) ;
#182 = EDGE_CURVE ( 'NONE', #236, #428, #427, .T. ) ;
#183 = ADVANCED_FACE ( 'NONE', ( #386 ), #26, .F. ) ;
#184 = CARTESIAN_POINT ( 'NONE',  ( 22.00000000000000000, 28.00000000000000000, 0.000000000000000000 ) ) ;
#185 = ORIENTED_EDGE ( 'NONE', *, *, #68, .F. ) ;
#186 = VERTEX_POINT ( 'NONE', #383 ) ;
#187 = ORIENTED_EDGE ( 'NONE', *, *, #182, .F. ) ;
#188 = DIRECTION ( 'NONE',  ( 0.000000000000000000, 0.000000000000000000, 1.000000000000000000 ) ) ;
#189 = VECTOR ( 'NONE', #27, 1000.000000000000000 ) ;
#190 = VERTEX_POINT ( 'NONE', #25 ) ;
#191 = EDGE_CURVE ( 'NONE', #470, #190, #317, .T. ) ;
#192 = ORIENTED_EDGE ( 'NONE', *, *, #368, .T. ) ;
#193 = EDGE_LOOP ( 'NONE', ( #270, #114, #230, #400 ) ) ;
#194 = CARTESIAN_POINT ( 'NONE',  ( 8.500000000000000000, 9.999999999999998224, 4.850000000000003197 ) ) ;
#195 = CIRCLE ( 'NONE', #240, 9.500000000000001776 ) ;
#196 = ORIENTED_EDGE ( 'NONE', *, *, #494, .F. ) ;
#197 = CARTESIAN_POINT ( 'NONE',  ( 0.000000000000000000, 30.00000000000000000, 2.000000000000000888 ) ) ;
#198 = ORIENTED_EDGE ( 'NONE', *, *, #368, .F. ) ;
#199 = SHAPE_DEFINITION_REPRESENTATION ( #518, #431 ) ;
#200 = AXIS2_PLACEMENT_3D ( 'NONE', #281, #361, #407 ) ;
#201 = LINE ( 'NONE', #364, #82 ) ;
#202 = DIRECTION ( 'NONE',  ( -1.000000000000000000, -0.000000000000000000, -0.000000000000000000 ) ) ;
#203 = APPLICATION_PROTOCOL_DEFINITION ( 'draft international standard', 'automotive_design', 1998, #12 ) ;
#204 = PRODUCT_DEFINITION_FORMATION_WITH_SPECIFIED_SOURCE ( 'ANY', '', #480, .NOT_KNOWN. ) ;
#205 = CARTESIAN_POINT ( 'NONE',  ( 8.500000000000000000, 30.00000000000000000, -0.8500000000000005329 ) ) ;
#206 = DIRECTION ( 'NONE',  ( 1.000000000000000000, 0.000000000000000000, 0.000000000000000000 ) ) ;
#207 = DIRECTION ( 'NONE',  ( 0.000000000000000000, 0.000000000000000000, 1.000000000000000000 ) ) ;
#208 = CARTESIAN_POINT ( 'NONE',  ( 31.50000000000000000, 28.00000000000000000, 0.000000000000000000 ) ) ;
#209 = DIRECTION ( 'NONE',  ( -1.000000000000000000, 0.000000000000000000, 0.000000000000000000 ) ) ;
#210 = DIRECTION ( 'NONE',  ( -1.000000000000000000, 0.000000000000000000, 0.000000000000000000 ) ) ;
#211 = ORIENTED_EDGE ( 'NONE', *, *, #326, .T. ) ;
#212 = DIRECTION ( 'NONE',  ( -1.000000000000000000, -0.000000000000000000, -0.000000000000000000 ) ) ;
#213 = FACE_OUTER_BOUND ( 'NONE', #231, .T. ) ;
#214 = EDGE_CURVE ( 'NONE', #108, #390, #299, .T. ) ;
#215 = AXIS2_PLACEMENT_3D ( 'NONE', #142, #210, #303 ) ;
#216 = CARTESIAN_POINT ( 'NONE',  ( 8.500000000000000000, 9.999999999999998224, 2.000000000000003109 ) ) ;
#217 = ADVANCED_FACE ( 'NONE', ( #139 ), #300, .T. ) ;
#218 = EDGE_CURVE ( 'NONE', #51, #402, #448, .T. ) ;
#219 = SURFACE_STYLE_FILL_AREA ( #382 ) ;
#220 = VERTEX_POINT ( 'NONE', #18 ) ;
#221 = ORIENTED_EDGE ( 'NONE', *, *, #182, .T. ) ;
#222 = VECTOR ( 'NONE', #495, 1000.000000000000000 ) ;
#223 = CARTESIAN_POINT ( 'NONE',  ( 0.000000000000000000, 0.000000000000000000, 6.000000000000000000 ) ) ;
#224 = EDGE_LOOP ( 'NONE', ( #185, #107, #221, #269 ) ) ;
#225 = CARTESIAN_POINT ( 'NONE',  ( 22.00000000000000000, 28.00000000000000000, 0.000000000000000000 ) ) ;
#226 = ORIENTED_EDGE ( 'NONE', *, *, #424, .F. ) ;
#227 = AXIS2_PLACEMENT_3D ( 'NONE', #337, #81, #322 ) ;
#228 = CARTESIAN_POINT ( 'NONE',  ( 8.500000000000000000, 30.00000000000000000, -0.8500000000000005329 ) ) ;
#229 =( GEOMETRIC_REPRESENTATION_CONTEXT ( 3 ) GLOBAL_UNCERTAINTY_ASSIGNED_CONTEXT ( ( #469 ) ) GLOBAL_UNIT_ASSIGNED_CONTEXT ( ( #38, #119, #446 ) ) REPRESENTATION_CONTEXT ( 'NONE', 'WORKASPACE' ) );
#230 = ORIENTED_EDGE ( 'NONE', *, *, #312, .T. ) ;
#231 = EDGE_LOOP ( 'NONE', ( #396, #333, #141, #160 ) ) ;
#232 =( GEOMETRIC_REPRESENTATION_CONTEXT ( 3 ) GLOBAL_UNCERTAINTY_ASSIGNED_CONTEXT ( ( #150 ) ) GLOBAL_UNIT_ASSIGNED_CONTEXT ( ( #23, #425, #263 ) ) REPRESENTATION_CONTEXT ( 'NONE', 'WORKASPACE' ) );
#233 = ADVANCED_FACE ( 'NONE', ( #122 ), #483, .F. ) ;
#234 = ORIENTED_EDGE ( 'NONE', *, *, #243, .T. ) ;
#235 = EDGE_CURVE ( 'NONE', #402, #220, #397, .T. ) ;
#236 = VERTEX_POINT ( 'NONE', #131 ) ;
#237 = DIRECTION ( 'NONE',  ( -1.000000000000000000, -0.000000000000000000, -0.000000000000000000 ) ) ;
#238 = CARTESIAN_POINT ( 'NONE',  ( 22.00000000000000000, 28.00000000000000000, -2.000000000000000000 ) ) ;
#239 = SURFACE_STYLE_USAGE ( .BOTH. , #7 ) ;
#240 = AXIS2_PLACEMENT_3D ( 'NONE', #275, #70, #77 ) ;
#241 = CARTESIAN_POINT ( 'NONE',  ( 22.00000000000000000, 28.00000000000000000, -2.000000000000000000 ) ) ;
#242 = CYLINDRICAL_SURFACE ( 'NONE', #329, 34.99999999999999289 ) ;
#243 = EDGE_CURVE ( 'NONE', #416, #31, #363, .T. ) ;
#244 = AXIS2_PLACEMENT_3D ( 'NONE', #452, #49, #206 ) ;
#245 = LINE ( 'NONE', #373, #21 ) ;
#246 = CYLINDRICAL_SURFACE ( 'NONE', #339, 2.850000000000000533 ) ;
#247 = CARTESIAN_POINT ( 'NONE',  ( 8.500000000000000000, 9.999999999999998224, 2.000000000000003109 ) ) ;
#248 =( GEOMETRIC_REPRESENTATION_CONTEXT ( 3 ) GLOBAL_UNCERTAINTY_ASSIGNED_CONTEXT ( ( #507 ) ) GLOBAL_UNIT_ASSIGNED_CONTEXT ( ( #354, #520, #442 ) ) REPRESENTATION_CONTEXT ( 'NONE', 'WORKASPACE' ) );
#249 = CARTESIAN_POINT ( 'NONE',  ( 9.247693015089264890, 73.75618719433030890, -2.000000000000000000 ) ) ;
#250 = DIRECTION ( 'NONE',  ( -0.000000000000000000, -0.000000000000000000, -1.000000000000000000 ) ) ;
#251 = CARTESIAN_POINT ( 'NONE',  ( 8.500000000000000000, 30.00000000000000000, 2.000000000000000888 ) ) ;
#252 = ORIENTED_EDGE ( 'NONE', *, *, #255, .T. ) ;
#253 = CARTESIAN_POINT ( 'NONE',  ( 22.00000000000000000, 28.00000000000000000, 6.000000000000000000 ) ) ;
#254 = CARTESIAN_POINT ( 'NONE',  ( 33.88065108387417013, 24.11411144997188316, 6.000000000000000000 ) ) ;
#255 = EDGE_CURVE ( 'NONE', #110, #479, #136, .T. ) ;
#256 = DIRECTION ( 'NONE',  ( 0.000000000000000000, 0.000000000000000000, -1.000000000000000000 ) ) ;
#257 = FACE_BOUND ( 'NONE', #481, .T. ) ;
#258 = CIRCLE ( 'NONE', #215, 2.850000000000000977 ) ;
#259 = SURFACE_SIDE_STYLE ('',( #219 ) ) ;
#260 = ADVANCED_FACE ( 'NONE', ( #290 ), #242, .F. ) ;
#261 = CARTESIAN_POINT ( 'NONE',  ( 0.000000000000000000, 40.00000000000000000, -2.000000000000000000 ) ) ;
#262 = AXIS2_PLACEMENT_3D ( 'NONE', #360, #432, #157 ) ;
#263 =( NAMED_UNIT ( * ) SI_UNIT ( $, .STERADIAN. ) SOLID_ANGLE_UNIT ( ) );
#264 = ORIENTED_EDGE ( 'NONE', *, *, #72, .F. ) ;
#265 = DIRECTION ( 'NONE',  ( 0.000000000000000000, 0.000000000000000000, -1.000000000000000000 ) ) ;
#266 = AXIS2_PLACEMENT_3D ( 'NONE', #296, #94, #327 ) ;
#267 = AXIS2_PLACEMENT_3D ( 'NONE', #241, #406, #44 ) ;
#268 = ORIENTED_EDGE ( 'NONE', *, *, #272, .T. ) ;
#269 = ORIENTED_EDGE ( 'NONE', *, *, #347, .F. ) ;
#270 = ORIENTED_EDGE ( 'NONE', *, *, #499, .T. ) ;
#271 = AXIS2_PLACEMENT_3D ( 'NONE', #323, #484, #516 ) ;
#272 = EDGE_CURVE ( 'NONE', #129, #511, #2, .T. ) ;
#273 = ORIENTED_EDGE ( 'NONE', *, *, #30, .T. ) ;
#274 = ORIENTED_EDGE ( 'NONE', *, *, #517, .F. ) ;
#275 = CARTESIAN_POINT ( 'NONE',  ( 22.00000000000000000, 28.00000000000000000, 6.000000000000000000 ) ) ;
#276 = CARTESIAN_POINT ( 'NONE',  ( 0.000000000000000000, 9.999999999999998224, -0.8499999999999974243 ) ) ;
#277 = DIRECTION ( 'NONE',  ( -4.147073309757053967E-16, 1.000000000000000000, 0.000000000000000000 ) ) ;
#278 = AXIS2_PLACEMENT_3D ( 'NONE', #67, #343, #493 ) ;
#279 = DIRECTION ( 'NONE',  ( 0.000000000000000000, 0.000000000000000000, 1.000000000000000000 ) ) ;
#280 = DIRECTION ( 'NONE',  ( -0.000000000000000000, -0.000000000000000000, -1.000000000000000000 ) ) ;
#281 = CARTESIAN_POINT ( 'NONE',  ( 22.00000000000000000, 28.00000000000000000, -2.000000000000000000 ) ) ;
#282 = ADVANCED_FACE ( 'NONE', ( #170 ), #246, .F. ) ;
#283 = DIRECTION ( 'NONE',  ( 1.000000000000000000, 0.000000000000000000, 0.000000000000000000 ) ) ;
#284 = AXIS2_PLACEMENT_3D ( 'NONE', #293, #13, #487 ) ;
#285 = FACE_OUTER_BOUND ( 'NONE', #394, .T. ) ;
#286 = CARTESIAN_POINT ( 'NONE',  ( 8.500000000000000000, 9.999999999999998224, 2.000000000000003109 ) ) ;
#287 = PRODUCT_RELATED_PRODUCT_CATEGORY ( 'part', '', ( #480 ) ) ;
#288 = VECTOR ( 'NONE', #179, 1000.000000000000000 ) ;
#289 = CARTESIAN_POINT ( 'NONE',  ( 0.000000000000000000, 0.000000000000000000, 6.000000000000000000 ) ) ;
#290 = FACE_OUTER_BOUND ( 'NONE', #437, .T. ) ;
#291 = CARTESIAN_POINT ( 'NONE',  ( 18.64412974081296070, 40.04110189324482150, 6.000000000000000000 ) ) ;
#292 = ORIENTED_EDGE ( 'NONE', *, *, #191, .F. ) ;
#293 = CARTESIAN_POINT ( 'NONE',  ( 0.6148280490264924625, 34.99459939005060960, 6.000000000000000000 ) ) ;
#294 = EDGE_CURVE ( 'NONE', #304, #186, #87, .T. ) ;
#295 = CARTESIAN_POINT ( 'NONE',  ( 16.00000000000000000, 28.00000000000000000, -2.000000000000000000 ) ) ;
#296 = CARTESIAN_POINT ( 'NONE',  ( 22.00000000000000000, 28.00000000000000000, 6.000000000000000000 ) ) ;
#297 = ORIENTED_EDGE ( 'NONE', *, *, #326, .F. ) ;
#298 = CIRCLE ( 'NONE', #302, 5.999999999999998224 ) ;
#299 = LINE ( 'NONE', #380, #288 ) ;
#300 = PLANE ( 'NONE',  #227 ) ;
#301 = CIRCLE ( 'NONE', #69, 34.99999999999999289 ) ;
#302 = AXIS2_PLACEMENT_3D ( 'NONE', #502, #180, #464 ) ;
#303 = DIRECTION ( 'NONE',  ( 0.000000000000000000, 0.000000000000000000, 1.000000000000000000 ) ) ;
#304 = VERTEX_POINT ( 'NONE', #168 ) ;
#305 = CARTESIAN_POINT ( 'NONE',  ( 16.00000000000000000, 28.00000000000000000, 0.000000000000000000 ) ) ;
#306 = AXIS2_PLACEMENT_3D ( 'NONE', #365, #164, #58 ) ;
#307 = AXIS2_PLACEMENT_3D ( 'NONE', #184, #265, #371 ) ;
#308 = EDGE_CURVE ( 'NONE', #509, #304, #93, .T. ) ;
#309 = ORIENTED_EDGE ( 'NONE', *, *, #144, .T. ) ;
#310 = ORIENTED_EDGE ( 'NONE', *, *, #272, .F. ) ;
#311 = AXIS2_PLACEMENT_3D ( 'NONE', #457, #169, #8 ) ;
#312 = EDGE_CURVE ( 'NONE', #186, #511, #46, .T. ) ;
#313 = DIRECTION ( 'NONE',  ( 0.000000000000000000, 0.000000000000000000, -1.000000000000000000 ) ) ;
#314 = VECTOR ( 'NONE', #414, 1000.000000000000000 ) ;
#315 = ORIENTED_EDGE ( 'NONE', *, *, #347, .T. ) ;
#316 = ORIENTED_EDGE ( 'NONE', *, *, #389, .T. ) ;
#317 = CIRCLE ( 'NONE', #37, 2.850000000000000533 ) ;
#318 = ORIENTED_EDGE ( 'NONE', *, *, #328, .F. ) ;
#319 = CARTESIAN_POINT ( 'NONE',  ( 0.000000000000000000, 0.000000000000000000, 6.000000000000000000 ) ) ;
#320 = DIRECTION ( 'NONE',  ( -1.000000000000000000, 0.000000000000000000, 0.000000000000000000 ) ) ;
#321 = FILL_AREA_STYLE_COLOUR ( '', #521 ) ;
#322 = DIRECTION ( 'NONE',  ( 0.000000000000000000, 0.000000000000000000, 1.000000000000000000 ) ) ;
#323 = CARTESIAN_POINT ( 'NONE',  ( 0.6148280490264924625, 34.99459939005060960, 6.000000000000000000 ) ) ;
#324 = CARTESIAN_POINT ( 'NONE',  ( 16.00000000000000000, 28.00000000000000000, -2.000000000000000000 ) ) ;
#325 = DIRECTION ( 'NONE',  ( -1.000000000000000000, 0.000000000000000000, 0.000000000000000000 ) ) ;
#326 = EDGE_CURVE ( 'NONE', #385, #509, #377, .T. ) ;
#327 = DIRECTION ( 'NONE',  ( -1.000000000000000000, 0.000000000000000000, 0.000000000000000000 ) ) ;
#328 = EDGE_CURVE ( 'NONE', #385, #186, #492, .T. ) ;
#329 = AXIS2_PLACEMENT_3D ( 'NONE', #486, #374, #86 ) ;
#330 = CARTESIAN_POINT ( 'NONE',  ( 27.99999999999999645, 28.00000000000000000, -2.000000000000000000 ) ) ;
#331 = CARTESIAN_POINT ( 'NONE',  ( 0.000000000000000000, 0.000000000000000000, 6.000000000000000000 ) ) ;
#332 = CARTESIAN_POINT ( 'NONE',  ( 8.500000000000000000, 30.00000000000000000, 2.000000000000000888 ) ) ;
#333 = ORIENTED_EDGE ( 'NONE', *, *, #440, .F. ) ;
#334 = DIRECTION ( 'NONE',  ( 0.000000000000000000, 0.000000000000000000, -1.000000000000000000 ) ) ;
#335 = DIRECTION ( 'NONE',  ( 0.000000000000000000, -0.000000000000000000, -1.000000000000000000 ) ) ;
#336 = PLANE ( 'NONE',  #423 ) ;
#337 = CARTESIAN_POINT ( 'NONE',  ( 8.500000000000000000, 30.00000000000000000, 2.000000000000000888 ) ) ;
#338 = ORIENTED_EDGE ( 'NONE', *, *, #389, .F. ) ;
#339 = AXIS2_PLACEMENT_3D ( 'NONE', #454, #202, #90 ) ;
#340 = CIRCLE ( 'NONE', #278, 5.999999999999998224 ) ;
#341 = DIRECTION ( 'NONE',  ( -0.000000000000000000, 0.000000000000000000, 1.000000000000000000 ) ) ;
#342 = ORIENTED_EDGE ( 'NONE', *, *, #191, .T. ) ;
#343 = DIRECTION ( 'NONE',  ( 0.000000000000000000, 0.000000000000000000, -1.000000000000000000 ) ) ;
#344 = ADVANCED_FACE ( 'NONE', ( #410 ), #6, .F. ) ;
#345 = ORIENTED_EDGE ( 'NONE', *, *, #68, .T. ) ;
#346 = CIRCLE ( 'NONE', #73, 34.99999999999999289 ) ;
#347 = EDGE_CURVE ( 'NONE', #66, #428, #111, .T. ) ;
#348 = ORIENTED_EDGE ( 'NONE', *, *, #494, .T. ) ;
#349 = AXIS2_PLACEMENT_3D ( 'NONE', #289, #135, #173 ) ;
#350 = ORIENTED_EDGE ( 'NONE', *, *, #218, .F. ) ;
#351 = EDGE_LOOP ( 'NONE', ( #348, #315 ) ) ;
#352 = ORIENTED_EDGE ( 'NONE', *, *, #214, .F. ) ;
#353 = CIRCLE ( 'NONE', #132, 5.999999999999998224 ) ;
#354 =( LENGTH_UNIT ( ) NAMED_UNIT ( * ) SI_UNIT ( .MILLI., .METRE. ) );
#355 = ORIENTED_EDGE ( 'NONE', *, *, #72, .T. ) ;
#356 = CARTESIAN_POINT ( 'NONE',  ( 1.647987302177966740E-14, -1.387778780781445676E-14, -2.000000000000000000 ) ) ;
#357 = ORIENTED_EDGE ( 'NONE', *, *, #513, .T. ) ;
#358 = LINE ( 'NONE', #194, #158 ) ;
#359 = AXIS2_PLACEMENT_3D ( 'NONE', #97, #420, #61 ) ;
#360 = CARTESIAN_POINT ( 'NONE',  ( 8.500000000000000000, 9.999999999999998224, 2.000000000000003109 ) ) ;
#361 = DIRECTION ( 'NONE',  ( -0.000000000000000000, -0.000000000000000000, 1.000000000000000000 ) ) ;
#362 = DIRECTION ( 'NONE',  ( -1.000000000000000000, 0.000000000000000000, 0.000000000000000000 ) ) ;
#363 = CIRCLE ( 'NONE', #78, 2.850000000000000533 ) ;
#364 = CARTESIAN_POINT ( 'NONE',  ( 8.500000000000000000, 9.999999999999998224, -0.8499999999999974243 ) ) ;
#365 = CARTESIAN_POINT ( 'NONE',  ( 0.000000000000000000, 30.00000000000000000, 2.000000000000000888 ) ) ;
#366 = EDGE_CURVE ( 'NONE', #511, #172, #42, .T. ) ;
#367 = PRODUCT_CONTEXT ( 'NONE', #155, 'mechanical' ) ;
#368 = EDGE_CURVE ( 'NONE', #220, #402, #16, .T. ) ;
#369 = FACE_BOUND ( 'NONE', #32, .T. ) ;
#370 = DIRECTION ( 'NONE',  ( 0.000000000000000000, 0.000000000000000000, -1.000000000000000000 ) ) ;
#371 = DIRECTION ( 'NONE',  ( -1.000000000000000000, 0.000000000000000000, 0.000000000000000000 ) ) ;
#372 = VECTOR ( 'NONE', #65, 1000.000000000000000 ) ;
#373 = CARTESIAN_POINT ( 'NONE',  ( 31.50000000000000000, 28.00000000000000000, 6.000000000000000000 ) ) ;
#374 = DIRECTION ( 'NONE',  ( -0.000000000000000000, -0.000000000000000000, -1.000000000000000000 ) ) ;
#375 = DIRECTION ( 'NONE',  ( 0.000000000000000000, 0.000000000000000000, 1.000000000000000000 ) ) ;
#376 = VERTEX_POINT ( 'NONE', #436 ) ;
#377 = CIRCLE ( 'NONE', #434, 12.50000000000000355 ) ;
#378 = CARTESIAN_POINT ( 'NONE',  ( 1.658829323902821784E-14, -6.938893903907228378E-15, -2.000000000000000000 ) ) ;
#379 = CARTESIAN_POINT ( 'NONE',  ( 0.000000000000000000, 30.00000000000000000, 4.850000000000002309 ) ) ;
#380 = CARTESIAN_POINT ( 'NONE',  ( 27.99999999999999645, 28.00000000000000000, -2.000000000000000000 ) ) ;
#381 = AXIS2_PLACEMENT_3D ( 'NONE', #151, #313, #393 ) ;
#382 = FILL_AREA_STYLE ('',( #321 ) ) ;
#383 = CARTESIAN_POINT ( 'NONE',  ( 33.88065108387417013, 24.11411144997188316, -2.000000000000000000 ) ) ;
#384 = ORIENTED_EDGE ( 'NONE', *, *, #499, .F. ) ;
#385 = VERTEX_POINT ( 'NONE', #167 ) ;
#386 = FACE_OUTER_BOUND ( 'NONE', #224, .T. ) ;
#387 = ORIENTED_EDGE ( 'NONE', *, *, #478, .T. ) ;
#388 = LINE ( 'NONE', #503, #189 ) ;
#389 = EDGE_CURVE ( 'NONE', #110, #108, #353, .T. ) ;
#390 = VERTEX_POINT ( 'NONE', #50 ) ;
#391 = VECTOR ( 'NONE', #277, 1000.000000000000000 ) ;
#392 = AXIS2_PLACEMENT_3D ( 'NONE', #332, #91, #207 ) ;
#393 = DIRECTION ( 'NONE',  ( -1.000000000000000000, 0.000000000000000000, -0.000000000000000000 ) ) ;
#394 = EDGE_LOOP ( 'NONE', ( #477, #99, #310, #63 ) ) ;
#395 = EDGE_LOOP ( 'NONE', ( #112, #198 ) ) ;
#396 = ORIENTED_EDGE ( 'NONE', *, *, #33, .F. ) ;
#397 = CIRCLE ( 'NONE', #306, 2.850000000000000977 ) ;
#398 = EDGE_LOOP ( 'NONE', ( #106, #338 ) ) ;
#399 = MECHANICAL_DESIGN_GEOMETRIC_PRESENTATION_REPRESENTATION (  '', ( #435 ), #229 ) ;
#400 = ORIENTED_EDGE ( 'NONE', *, *, #366, .T. ) ;
#401 = ADVANCED_FACE ( 'NONE', ( #213 ), #429, .F. ) ;
#402 = VERTEX_POINT ( 'NONE', #379 ) ;
#403 = CARTESIAN_POINT ( 'NONE',  ( 22.00000000000000000, 28.00000000000000000, 6.000000000000000000 ) ) ;
#404 = FILL_AREA_STYLE_COLOUR ( '', #29 ) ;
#405 = ORIENTED_EDGE ( 'NONE', *, *, #214, .T. ) ;
#406 = DIRECTION ( 'NONE',  ( -0.000000000000000000, -0.000000000000000000, 1.000000000000000000 ) ) ;
#407 = DIRECTION ( 'NONE',  ( 1.000000000000000000, 0.000000000000000000, 0.000000000000000000 ) ) ;
#408 = ADVANCED_FACE ( 'NONE', ( #468 ), #415, .F. ) ;
#409 = DIRECTION ( 'NONE',  ( -0.000000000000000000, -0.000000000000000000, -1.000000000000000000 ) ) ;
#410 = FACE_OUTER_BOUND ( 'NONE', #501, .T. ) ;
#411 = CIRCLE ( 'NONE', #271, 35.00000000000000000 ) ;
#412 = APPLICATION_PROTOCOL_DEFINITION ( 'draft international standard', 'automotive_design', 1998, #155 ) ;
#413 = FACE_OUTER_BOUND ( 'NONE', #134, .T. ) ;
#414 = DIRECTION ( 'NONE',  ( -0.000000000000000000, -0.000000000000000000, 1.000000000000000000 ) ) ;
#415 = CYLINDRICAL_SURFACE ( 'NONE', #266, 9.500000000000001776 ) ;
#416 = VERTEX_POINT ( 'NONE', #19 ) ;
#417 = FACE_OUTER_BOUND ( 'NONE', #193, .T. ) ;
#418 = DIRECTION ( 'NONE',  ( 0.000000000000000000, 0.000000000000000000, 1.000000000000000000 ) ) ;
#419 = CARTESIAN_POINT ( 'NONE',  ( 12.49999999999999645, 28.00000000000000000, 0.000000000000000000 ) ) ;
#420 = DIRECTION ( 'NONE',  ( -0.000000000000000000, -0.000000000000000000, -1.000000000000000000 ) ) ;
#421 = AXIS2_PLACEMENT_3D ( 'NONE', #247, #362, #188 ) ;
#422 = DIRECTION ( 'NONE',  ( 0.000000000000000000, 0.000000000000000000, 1.000000000000000000 ) ) ;
#423 = AXIS2_PLACEMENT_3D ( 'NONE', #223, #341, #96 ) ;
#424 = EDGE_CURVE ( 'NONE', #522, #172, #388, .T. ) ;
#425 =( NAMED_UNIT ( * ) PLANE_ANGLE_UNIT ( ) SI_UNIT ( $, .RADIAN. ) );
#426 = EDGE_CURVE ( 'NONE', #376, #236, #441, .T. ) ;
#427 = LINE ( 'NONE', #497, #372 ) ;
#428 = VERTEX_POINT ( 'NONE', #419 ) ;
#429 = CYLINDRICAL_SURFACE ( 'NONE', #146, 2.850000000000000977 ) ;
#430 = EDGE_CURVE ( 'NONE', #509, #522, #301, .T. ) ;
#431 = ADVANCED_BREP_SHAPE_REPRESENTATION ( 'y bearing holder b', ( #147, #39 ), #248 ) ;
#432 = DIRECTION ( 'NONE',  ( -1.000000000000000000, 0.000000000000000000, 0.000000000000000000 ) ) ;
#433 = ORIENTED_EDGE ( 'NONE', *, *, #30, .F. ) ;
#434 = AXIS2_PLACEMENT_3D ( 'NONE', #403, #14, #84 ) ;
#435 = STYLED_ITEM ( 'NONE', ( #450 ), #431 ) ;
#436 = CARTESIAN_POINT ( 'NONE',  ( 31.50000000000000000, 28.00000000000000000, 6.000000000000000000 ) ) ;
#437 = EDGE_LOOP ( 'NONE', ( #456, #384, #226, #56 ) ) ;
#438 = FACE_BOUND ( 'NONE', #467, .T. ) ;
#439 = FACE_OUTER_BOUND ( 'NONE', #351, .T. ) ;
#440 = EDGE_CURVE ( 'NONE', #51, #95, #258, .T. ) ;
#441 = CIRCLE ( 'NONE', #162, 9.500000000000001776 ) ;
#442 =( NAMED_UNIT ( * ) SI_UNIT ( $, .STERADIAN. ) SOLID_ANGLE_UNIT ( ) );
#443 = CIRCLE ( 'NONE', #307, 5.999999999999998224 ) ;
#444 = LINE ( 'NONE', #228, #149 ) ;
#445 = DIRECTION ( 'NONE',  ( 0.000000000000000000, 0.000000000000000000, 1.000000000000000000 ) ) ;
#446 =( NAMED_UNIT ( * ) SI_UNIT ( $, .STERADIAN. ) SOLID_ANGLE_UNIT ( ) );
#447 = DIRECTION ( 'NONE',  ( 0.000000000000000000, 0.000000000000000000, -1.000000000000000000 ) ) ;
#448 = LINE ( 'NONE', #488, #474 ) ;
#449 = ADVANCED_FACE ( 'NONE', ( #15 ), #466, .F. ) ;
#450 = PRESENTATION_STYLE_ASSIGNMENT (( #239 ) ) ;
#451 = DIRECTION ( 'NONE',  ( -1.000000000000000000, 0.000000000000000000, 0.000000000000000000 ) ) ;
#452 = CARTESIAN_POINT ( 'NONE',  ( 22.00000000000000000, 28.00000000000000000, 0.000000000000000000 ) ) ;
#453 = DIRECTION ( 'NONE',  ( -1.000000000000000000, 0.000000000000000000, -0.000000000000000000 ) ) ;
#454 = CARTESIAN_POINT ( 'NONE',  ( 8.500000000000000000, 9.999999999999998224, 2.000000000000003109 ) ) ;
#455 = DIRECTION ( 'NONE',  ( -1.000000000000000000, 0.000000000000000000, 0.000000000000000000 ) ) ;
#456 = ORIENTED_EDGE ( 'NONE', *, *, #308, .T. ) ;
#457 = CARTESIAN_POINT ( 'NONE',  ( 0.000000000000000000, 9.999999999999998224, 2.000000000000003109 ) ) ;
#458 = DIRECTION ( 'NONE',  ( -0.000000000000000000, -0.000000000000000000, -1.000000000000000000 ) ) ;
#459 = AXIS2_PLACEMENT_3D ( 'NONE', #249, #447, #453 ) ;
#460 = DIRECTION ( 'NONE',  ( -0.000000000000000000, -0.000000000000000000, 1.000000000000000000 ) ) ;
#461 = LINE ( 'NONE', #500, #125 ) ;
#462 = ORIENTED_EDGE ( 'NONE', *, *, #294, .F. ) ;
#463 = EDGE_CURVE ( 'NONE', #479, #390, #443, .T. ) ;
#464 = DIRECTION ( 'NONE',  ( -1.000000000000000000, 0.000000000000000000, 0.000000000000000000 ) ) ;
#465 = ORIENTED_EDGE ( 'NONE', *, *, #463, .F. ) ;
#466 = CYLINDRICAL_SURFACE ( 'NONE', #392, 2.850000000000000977 ) ;
#467 = EDGE_LOOP ( 'NONE', ( #387, #43 ) ) ;
#468 = FACE_OUTER_BOUND ( 'NONE', #80, .T. ) ;
#469 = UNCERTAINTY_MEASURE_WITH_UNIT (LENGTH_MEASURE( 1.000000000000000082E-05 ), #38, 'distance_accuracy_value', 'NONE');
#470 = VERTEX_POINT ( 'NONE', #103 ) ;
#471 = PRESENTATION_LAYER_ASSIGNMENT (  '', '', ( #75 ) ) ;
#472 = ORIENTED_EDGE ( 'NONE', *, *, #312, .F. ) ;
#473 = EDGE_LOOP ( 'NONE', ( #116, #342 ) ) ;
#474 = VECTOR ( 'NONE', #53, 1000.000000000000000 ) ;
#475 = ORIENTED_EDGE ( 'NONE', *, *, #33, .T. ) ;
#476 = EDGE_LOOP ( 'NONE', ( #104, #71 ) ) ;
#477 = ORIENTED_EDGE ( 'NONE', *, *, #424, .T. ) ;
#478 = EDGE_CURVE ( 'NONE', #390, #479, #340, .T. ) ;
#479 = VERTEX_POINT ( 'NONE', #305 ) ;
#480 = PRODUCT ( 'y bearing holder b', 'y bearing holder b', '', ( #367 ) ) ;
#481 = EDGE_LOOP ( 'NONE', ( #433, #28 ) ) ;
#482 = PLANE ( 'NONE',  #459 ) ;
#483 = CYLINDRICAL_SURFACE ( 'NONE', #200, 5.999999999999998224 ) ;
#484 = DIRECTION ( 'NONE',  ( 0.000000000000000000, -0.000000000000000000, -1.000000000000000000 ) ) ;
#485 = DIRECTION ( 'NONE',  ( -1.000000000000000000, -0.000000000000000000, -0.000000000000000000 ) ) ;
#486 = CARTESIAN_POINT ( 'NONE',  ( 9.247693015089264890, 73.75618719433030890, 6.000000000000000000 ) ) ;
#487 = DIRECTION ( 'NONE',  ( -1.000000000000000000, 0.000000000000000000, 0.000000000000000000 ) ) ;
#488 = CARTESIAN_POINT ( 'NONE',  ( 8.500000000000000000, 30.00000000000000000, 4.850000000000002309 ) ) ;
#489 = DIRECTION ( 'NONE',  ( -1.000000000000000000, 0.000000000000000000, 0.000000000000000000 ) ) ;
#490 = ORIENTED_EDGE ( 'NONE', *, *, #17, .T. ) ;
#491 = PLANE ( 'NONE',  #349 ) ;
#492 = LINE ( 'NONE', #254, #24 ) ;
#493 = DIRECTION ( 'NONE',  ( -1.000000000000000000, 0.000000000000000000, 0.000000000000000000 ) ) ;
#494 = EDGE_CURVE ( 'NONE', #428, #66, #113, .T. ) ;
#495 = DIRECTION ( 'NONE',  ( -0.000000000000000000, -0.000000000000000000, -1.000000000000000000 ) ) ;
#496 = AXIS2_PLACEMENT_3D ( 'NONE', #83, #451, #57 ) ;
#497 = CARTESIAN_POINT ( 'NONE',  ( 12.49999999999999645, 28.00000000000000000, 6.000000000000000000 ) ) ;
#498 = VECTOR ( 'NONE', #458, 1000.000000000000000 ) ;
#499 = EDGE_CURVE ( 'NONE', #172, #304, #346, .T. ) ;
#500 = CARTESIAN_POINT ( 'NONE',  ( 0.000000000000000000, 0.000000000000000000, 6.000000000000000000 ) ) ;
#501 = EDGE_LOOP ( 'NONE', ( #60, #274, #490, #234 ) ) ;
#502 = CARTESIAN_POINT ( 'NONE',  ( 22.00000000000000000, 28.00000000000000000, -2.000000000000000000 ) ) ;
#503 = CARTESIAN_POINT ( 'NONE',  ( 0.000000000000000000, 40.00000000000000000, 6.000000000000000000 ) ) ;
#504 = ORIENTED_EDGE ( 'NONE', *, *, #513, .F. ) ;
#505 = DIRECTION ( 'NONE',  ( -1.000000000000000000, -0.000000000000000000, -0.000000000000000000 ) ) ;
#506 = AXIS2_PLACEMENT_3D ( 'NONE', #225, #11, #137 ) ;
#507 = UNCERTAINTY_MEASURE_WITH_UNIT (LENGTH_MEASURE( 1.000000000000000082E-05 ), #354, 'distance_accuracy_value', 'NONE');
#508 = MECHANICAL_DESIGN_GEOMETRIC_PRESENTATION_REPRESENTATION (  '', ( #75 ), #232 ) ;
#509 = VERTEX_POINT ( 'NONE', #291 ) ;
#510 = EDGE_LOOP ( 'NONE', ( #268, #472, #318, #357 ) ) ;
#511 = VERTEX_POINT ( 'NONE', #356 ) ;
#512 = ORIENTED_EDGE ( 'NONE', *, *, #17, .F. ) ;
#513 = EDGE_CURVE ( 'NONE', #385, #129, #411, .T. ) ;
#514 = FACE_OUTER_BOUND ( 'NONE', #473, .T. ) ;
#515 = AXIS2_PLACEMENT_3D ( 'NONE', #286, #212, #418 ) ;
#516 = DIRECTION ( 'NONE',  ( 1.000000000000000000, 0.000000000000000000, 0.000000000000000000 ) ) ;
#517 = EDGE_CURVE ( 'NONE', #190, #470, #120, .T. ) ;
#518 = PRODUCT_DEFINITION_SHAPE ( 'NONE', 'NONE',  #123 ) ;
#519 = PLANE ( 'NONE',  #381 ) ;
#520 =( NAMED_UNIT ( * ) PLANE_ANGLE_UNIT ( ) SI_UNIT ( $, .RADIAN. ) );
#521 = COLOUR_RGB ( '',0.7921568627450980005, 0.8196078431372548767, 0.9333333333333333481 ) ;
#522 = VERTEX_POINT ( 'NONE', #3 ) ;
ENDSEC;
END-ISO-10303-21;
