ISO-10303-21;
HEADER;
FILE_DESCRIPTION (( 'STEP AP214' ),
    '1' );
FILE_NAME ('equereinterne.STEP',
    '2026-02-05T16:20:35',
    ( '' ),
    ( '' ),
    'SwSTEP 2.0',
    'SolidWorks 2021',
    '' );
FILE_SCHEMA (( 'AUTOMOTIVE_DESIGN' ));
ENDSEC;

DATA;
#1 = DIRECTION ( 'NONE',  ( 0.000000000000000000, 0.000000000000000000, 1.000000000000000000 ) ) ;
#2 = EDGE_CURVE ( 'NONE', #262, #241, #229, .T. ) ;
#3 = CARTESIAN_POINT ( 'NONE',  ( 2.000000000000000888, 2.000000000000000000, 92.00000000000000000 ) ) ;
#4 = AXIS2_PLACEMENT_3D ( 'NONE', #190, #110, #191 ) ;
#5 = PLANE ( 'NONE',  #75 ) ;
#6 = UNCERTAINTY_MEASURE_WITH_UNIT (LENGTH_MEASURE( 1.000000000000000082E-05 ), #205, 'distance_accuracy_value', 'NONE');
#7 = ORIENTED_EDGE ( 'NONE', *, *, #151, .T. ) ;
#8 = CARTESIAN_POINT ( 'NONE',  ( 2.000000000000000000, 6.000000000000000000, 0.000000000000000000 ) ) ;
#9 = ORIENTED_EDGE ( 'NONE', *, *, #160, .T. ) ;
#10 = DIRECTION ( 'NONE',  ( 0.7071067811865423547, -0.7071067811865526798, -0.000000000000000000 ) ) ;
#11 = MANIFOLD_SOLID_BREP ( 'Chamfer1', #209 ) ;
#12 = DIRECTION ( 'NONE',  ( 2.168404344971008868E-16, -1.000000000000000000, 0.000000000000000000 ) ) ;
#13 = CARTESIAN_POINT ( 'NONE',  ( 6.000000000000000000, -2.449293598294705921E-16, 0.000000000000000000 ) ) ;
#14 = ORIENTED_EDGE ( 'NONE', *, *, #130, .T. ) ;
#15 = FACE_OUTER_BOUND ( 'NONE', #109, .T. ) ;
#16 = ADVANCED_FACE ( 'NONE', ( #228 ), #5, .F. ) ;
#17 =( NAMED_UNIT ( * ) SI_UNIT ( $, .STERADIAN. ) SOLID_ANGLE_UNIT ( ) );
#18 = CARTESIAN_POINT ( 'NONE',  ( 0.000000000000000000, 6.000000000000000000, 0.000000000000000000 ) ) ;
#19 = DIRECTION ( 'NONE',  ( 0.000000000000000000, 0.000000000000000000, -1.000000000000000000 ) ) ;
#20 = COLOUR_RGB ( '',0.7921568627450980005, 0.8196078431372548767, 0.9333333333333333481 ) ;
#21 = SURFACE_STYLE_FILL_AREA ( #59 ) ;
#22 = LINE ( 'NONE', #224, #164 ) ;
#23 = APPLICATION_PROTOCOL_DEFINITION ( 'draft international standard', 'automotive_design', 1998, #101 ) ;
#24 = DIRECTION ( 'NONE',  ( 0.000000000000000000, 0.000000000000000000, -1.000000000000000000 ) ) ;
#25 = FILL_AREA_STYLE_COLOUR ( '', #161 ) ;
#26 = ORIENTED_EDGE ( 'NONE', *, *, #63, .F. ) ;
#27 = ORIENTED_EDGE ( 'NONE', *, *, #100, .T. ) ;
#28 = EDGE_LOOP ( 'NONE', ( #53, #118, #60, #156 ) ) ;
#29 = VECTOR ( 'NONE', #149, 1000.000000000000000 ) ;
#30 = DIRECTION ( 'NONE',  ( 0.7071067811865451302, -0.7071067811865500152, -0.000000000000000000 ) ) ;
#31 = EDGE_CURVE ( 'NONE', #241, #192, #231, .T. ) ;
#32 = AXIS2_PLACEMENT_3D ( 'NONE', #73, #129, #102 ) ;
#33 = LINE ( 'NONE', #170, #54 ) ;
#34 = LINE ( 'NONE', #13, #64 ) ;
#35 = ORIENTED_EDGE ( 'NONE', *, *, #232, .F. ) ;
#36 = CARTESIAN_POINT ( 'NONE',  ( 0.000000000000000000, 0.000000000000000000, 0.000000000000000000 ) ) ;
#37 = EDGE_CURVE ( 'NONE', #168, #171, #44, .T. ) ;
#38 = CARTESIAN_POINT ( 'NONE',  ( 0.000000000000000000, 0.000000000000000000, 92.00000000000000000 ) ) ;
#39 = DIRECTION ( 'NONE',  ( 0.000000000000000000, 0.000000000000000000, 1.000000000000000000 ) ) ;
#40 = EDGE_CURVE ( 'NONE', #241, #163, #238, .T. ) ;
#41 = VECTOR ( 'NONE', #236, 1000.000000000000114 ) ;
#42 = CARTESIAN_POINT ( 'NONE',  ( 3.999999999999998224, 2.000000000000000000, 92.00000000000000000 ) ) ;
#43 = ORIENTED_EDGE ( 'NONE', *, *, #2, .T. ) ;
#44 = LINE ( 'NONE', #3, #145 ) ;
#45 = VECTOR ( 'NONE', #93, 1000.000000000000000 ) ;
#46 = DIRECTION ( 'NONE',  ( -0.000000000000000000, -0.000000000000000000, -1.000000000000000000 ) ) ;
#47 = SURFACE_STYLE_USAGE ( .BOTH. , #120 ) ;
#48 = SURFACE_STYLE_FILL_AREA ( #80 ) ;
#49 = CARTESIAN_POINT ( 'NONE',  ( 0.000000000000000000, 0.000000000000000000, 92.00000000000000000 ) ) ;
#50 = PLANE ( 'NONE',  #32 ) ;
#51 = STYLED_ITEM ( 'NONE', ( #166 ), #11 ) ;
#52 = CARTESIAN_POINT ( 'NONE',  ( 3.999999999999998224, 2.000000000000000000, 92.00000000000000000 ) ) ;
#53 = ORIENTED_EDGE ( 'NONE', *, *, #160, .F. ) ;
#54 = VECTOR ( 'NONE', #10, 1000.000000000000000 ) ;
#55 = PLANE ( 'NONE',  #106 ) ;
#56 = LINE ( 'NONE', #90, #239 ) ;
#57 = ORIENTED_EDGE ( 'NONE', *, *, #130, .F. ) ;
#58 = PLANE ( 'NONE',  #76 ) ;
#59 = FILL_AREA_STYLE ('',( #202 ) ) ;
#60 = ORIENTED_EDGE ( 'NONE', *, *, #100, .F. ) ;
#61 = EDGE_CURVE ( 'NONE', #192, #180, #34, .T. ) ;
#62 = CARTESIAN_POINT ( 'NONE',  ( 0.000000000000000000, 0.000000000000000000, 0.000000000000000000 ) ) ;
#63 = EDGE_CURVE ( 'NONE', #213, #192, #147, .T. ) ;
#64 = VECTOR ( 'NONE', #128, 1000.000000000000000 ) ;
#65 = VECTOR ( 'NONE', #39, 1000.000000000000000 ) ;
#66 = CARTESIAN_POINT ( 'NONE',  ( 6.000000000000000000, -2.449293598294705921E-16, 92.00000000000000000 ) ) ;
#67 = ADVANCED_FACE ( 'NONE', ( #210 ), #72, .F. ) ;
#68 = CARTESIAN_POINT ( 'NONE',  ( 2.000000000000000444, 3.999999999999970690, 92.00000000000000000 ) ) ;
#69 = VECTOR ( 'NONE', #70, 1000.000000000000000 ) ;
#70 = DIRECTION ( 'NONE',  ( -0.000000000000000000, -1.000000000000000000, -0.000000000000000000 ) ) ;
#71 = ORIENTED_EDGE ( 'NONE', *, *, #37, .T. ) ;
#72 = PLANE ( 'NONE',  #82 ) ;
#73 = CARTESIAN_POINT ( 'NONE',  ( 0.000000000000000000, 6.000000000000000000, 92.00000000000000000 ) ) ;
#74 = ORIENTED_EDGE ( 'NONE', *, *, #40, .T. ) ;
#75 = AXIS2_PLACEMENT_3D ( 'NONE', #142, #162, #24 ) ;
#76 = AXIS2_PLACEMENT_3D ( 'NONE', #105, #257, #172 ) ;
#77 = ADVANCED_FACE ( 'NONE', ( #240 ), #55, .F. ) ;
#78 = PLANE ( 'NONE',  #148 ) ;
#79 = PRODUCT_DEFINITION_FORMATION_WITH_SPECIFIED_SOURCE ( 'ANY', '', #216, .NOT_KNOWN. ) ;
#80 = FILL_AREA_STYLE ('',( #25 ) ) ;
#81 = ADVANCED_FACE ( 'NONE', ( #242 ), #50, .F. ) ;
#82 = AXIS2_PLACEMENT_3D ( 'NONE', #234, #261, #152 ) ;
#83 = PRODUCT_DEFINITION_SHAPE ( 'NONE', 'NONE',  #186 ) ;
#84 = ORIENTED_EDGE ( 'NONE', *, *, #31, .T. ) ;
#85 = ORIENTED_EDGE ( 'NONE', *, *, #181, .F. ) ;
#86 = DIRECTION ( 'NONE',  ( -1.000000000000000000, -2.168404344971008868E-16, 0.000000000000000000 ) ) ;
#87 = ORIENTED_EDGE ( 'NONE', *, *, #40, .F. ) ;
#88 = LINE ( 'NONE', #52, #116 ) ;
#89 = CARTESIAN_POINT ( 'NONE',  ( 3.999999999999998224, 2.000000000000000000, 92.00000000000000000 ) ) ;
#90 = CARTESIAN_POINT ( 'NONE',  ( 2.000000000000000000, 6.000000000000000000, 92.00000000000000000 ) ) ;
#91 = VERTEX_POINT ( 'NONE', #68 ) ;
#92 = CARTESIAN_POINT ( 'NONE',  ( 2.000000000000000888, 2.000000000000000000, 92.00000000000000000 ) ) ;
#93 = DIRECTION ( 'NONE',  ( -1.000000000000000000, 1.084202172485504681E-16, -0.000000000000000000 ) ) ;
#94 = EDGE_CURVE ( 'NONE', #171, #237, #122, .T. ) ;
#95 = SURFACE_STYLE_USAGE ( .BOTH. , #264 ) ;
#96 = DIRECTION ( 'NONE',  ( -1.000000000000000000, 1.084202172485504681E-16, -0.000000000000000000 ) ) ;
#97 = CARTESIAN_POINT ( 'NONE',  ( 6.000000000000000000, -2.449293598294705921E-16, 92.00000000000000000 ) ) ;
#98 = CARTESIAN_POINT ( 'NONE',  ( 0.000000000000000000, 0.000000000000000000, 0.000000000000000000 ) ) ;
#99 = PRODUCT_DEFINITION_CONTEXT ( 'detailed design', #101, 'design' ) ;
#100 = EDGE_CURVE ( 'NONE', #196, #180, #260, .T. ) ;
#101 = APPLICATION_CONTEXT ( 'automotive_design' ) ;
#102 = DIRECTION ( 'NONE',  ( 0.000000000000000000, 0.000000000000000000, -1.000000000000000000 ) ) ;
#103 = MECHANICAL_DESIGN_GEOMETRIC_PRESENTATION_REPRESENTATION (  '', ( #51 ), #115 ) ;
#104 = EDGE_LOOP ( 'NONE', ( #153, #203, #87, #84 ) ) ;
#105 = CARTESIAN_POINT ( 'NONE',  ( 0.000000000000000000, 0.000000000000000000, 0.000000000000000000 ) ) ;
#106 = AXIS2_PLACEMENT_3D ( 'NONE', #66, #215, #258 ) ;
#107 = LINE ( 'NONE', #189, #201 ) ;
#108 = CARTESIAN_POINT ( 'NONE',  ( 2.000000000000000888, 2.000000000000000000, 0.000000000000000000 ) ) ;
#109 = EDGE_LOOP ( 'NONE', ( #194, #254, #133, #71 ) ) ;
#110 = DIRECTION ( 'NONE',  ( 0.000000000000000000, 0.000000000000000000, -1.000000000000000000 ) ) ;
#111 = PRESENTATION_LAYER_ASSIGNMENT (  '', '', ( #233 ) ) ;
#112 = ADVANCED_FACE ( 'NONE', ( #167 ), #58, .T. ) ;
#113 = DIRECTION ( 'NONE',  ( -0.7071067811865423547, 0.7071067811865526798, -0.000000000000000000 ) ) ;
#114 = ORIENTED_EDGE ( 'NONE', *, *, #245, .T. ) ;
#115 =( GEOMETRIC_REPRESENTATION_CONTEXT ( 3 ) GLOBAL_UNCERTAINTY_ASSIGNED_CONTEXT ( ( #6 ) ) GLOBAL_UNIT_ASSIGNED_CONTEXT ( ( #205, #250, #183 ) ) REPRESENTATION_CONTEXT ( 'NONE', 'WORKASPACE' ) );
#116 = VECTOR ( 'NONE', #255, 1000.000000000000000 ) ;
#117 = PRESENTATION_STYLE_ASSIGNMENT (( #95 ) ) ;
#118 = ORIENTED_EDGE ( 'NONE', *, *, #251, .T. ) ;
#119 = DIRECTION ( 'NONE',  ( -0.000000000000000000, -1.000000000000000000, -0.000000000000000000 ) ) ;
#120 = SURFACE_SIDE_STYLE ('',( #48 ) ) ;
#121 = DIRECTION ( 'NONE',  ( -0.000000000000000000, -0.000000000000000000, -1.000000000000000000 ) ) ;
#122 = LINE ( 'NONE', #8, #188 ) ;
#123 = VECTOR ( 'NONE', #119, 1000.000000000000000 ) ;
#124 = CARTESIAN_POINT ( 'NONE',  ( 6.000000000000000000, -2.449293598294705921E-16, 92.00000000000000000 ) ) ;
#125 = ORIENTED_EDGE ( 'NONE', *, *, #31, .F. ) ;
#126 = EDGE_CURVE ( 'NONE', #168, #91, #56, .T. ) ;
#127 = DIRECTION ( 'NONE',  ( -2.168404344971008868E-16, 1.000000000000000000, -0.000000000000000000 ) ) ;
#128 = DIRECTION ( 'NONE',  ( 1.000000000000000000, -4.082155997157842586E-17, -0.000000000000000000 ) ) ;
#129 = DIRECTION ( 'NONE',  ( -0.7071067811865526798, -0.7071067811865423547, -0.000000000000000000 ) ) ;
#130 = EDGE_CURVE ( 'NONE', #213, #237, #33, .T. ) ;
#131 = ORIENTED_EDGE ( 'NONE', *, *, #94, .F. ) ;
#132 =( LENGTH_UNIT ( ) NAMED_UNIT ( * ) SI_UNIT ( .MILLI., .METRE. ) );
#133 = ORIENTED_EDGE ( 'NONE', *, *, #126, .F. ) ;
#134 = CARTESIAN_POINT ( 'NONE',  ( 2.000000000000000444, 3.999999999999970690, 0.000000000000000000 ) ) ;
#135 = ORIENTED_EDGE ( 'NONE', *, *, #198, .F. ) ;
#136 = CARTESIAN_POINT ( 'NONE',  ( 2.000000000000000444, 3.999999999999970690, 92.00000000000000000 ) ) ;
#137 = VECTOR ( 'NONE', #121, 1000.000000000000000 ) ;
#138 = ORIENTED_EDGE ( 'NONE', *, *, #63, .T. ) ;
#139 = ADVANCED_FACE ( 'NONE', ( #187 ), #169, .F. ) ;
#140 = ORIENTED_EDGE ( 'NONE', *, *, #198, .T. ) ;
#141 = EDGE_LOOP ( 'NONE', ( #138, #125, #150, #226 ) ) ;
#142 = CARTESIAN_POINT ( 'NONE',  ( 0.000000000000000000, 0.000000000000000000, 92.00000000000000000 ) ) ;
#143 = CARTESIAN_POINT ( 'NONE',  ( 3.000000000000012434, 2.999999999999992450, 0.000000000000000000 ) ) ;
#144 = CARTESIAN_POINT ( 'NONE',  ( 2.000000000000000000, 6.000000000000000000, 92.00000000000000000 ) ) ;
#145 = VECTOR ( 'NONE', #46, 1000.000000000000000 ) ;
#146 = ADVANCED_FACE ( 'NONE', ( #15 ), #184, .F. ) ;
#147 = LINE ( 'NONE', #36, #69 ) ;
#148 = AXIS2_PLACEMENT_3D ( 'NONE', #199, #267, #19 ) ;
#149 = DIRECTION ( 'NONE',  ( 1.000000000000000000, -4.082155997157842586E-17, -0.000000000000000000 ) ) ;
#150 = ORIENTED_EDGE ( 'NONE', *, *, #2, .F. ) ;
#151 = EDGE_CURVE ( 'NONE', #265, #196, #88, .T. ) ;
#152 = DIRECTION ( 'NONE',  ( 1.000000000000000000, -1.084202172485504681E-16, 0.000000000000000000 ) ) ;
#153 = ORIENTED_EDGE ( 'NONE', *, *, #61, .T. ) ;
#154 = LINE ( 'NONE', #136, #65 ) ;
#155 = VECTOR ( 'NONE', #244, 1000.000000000000000 ) ;
#156 = ORIENTED_EDGE ( 'NONE', *, *, #151, .F. ) ;
#157 = LINE ( 'NONE', #97, #155 ) ;
#158 = CARTESIAN_POINT ( 'NONE',  ( 2.000000000000000888, 2.000000000000000000, 92.00000000000000000 ) ) ;
#159 = MECHANICAL_DESIGN_GEOMETRIC_PRESENTATION_REPRESENTATION (  '', ( #233 ), #256 ) ;
#160 = EDGE_CURVE ( 'NONE', #163, #265, #214, .T. ) ;
#161 = COLOUR_RGB ( '',0.7921568627450980005, 0.8196078431372548767, 0.9333333333333333481 ) ;
#162 = DIRECTION ( 'NONE',  ( 1.000000000000000000, 0.000000000000000000, 0.000000000000000000 ) ) ;
#163 = VERTEX_POINT ( 'NONE', #124 ) ;
#164 = VECTOR ( 'NONE', #113, 1000.000000000000000 ) ;
#165 = CARTESIAN_POINT ( 'NONE',  ( 0.000000000000000000, 0.000000000000000000, 92.00000000000000000 ) ) ;
#166 = PRESENTATION_STYLE_ASSIGNMENT (( #47 ) ) ;
#167 = FACE_OUTER_BOUND ( 'NONE', #243, .T. ) ;
#168 = VERTEX_POINT ( 'NONE', #92 ) ;
#169 = PLANE ( 'NONE',  #4 ) ;
#170 = CARTESIAN_POINT ( 'NONE',  ( 3.000000000000000000, 2.999999999999956479, 0.000000000000000000 ) ) ;
#171 = VERTEX_POINT ( 'NONE', #108 ) ;
#172 = DIRECTION ( 'NONE',  ( -1.000000000000000000, 0.000000000000000000, -0.000000000000000000 ) ) ;
#173 = ORIENTED_EDGE ( 'NONE', *, *, #263, .F. ) ;
#174 = PRODUCT_RELATED_PRODUCT_CATEGORY ( 'part', '', ( #216 ) ) ;
#175 = CARTESIAN_POINT ( 'NONE',  ( 6.000000000000000000, -2.449293598294705921E-16, 0.000000000000000000 ) ) ;
#176 = APPLICATION_PROTOCOL_DEFINITION ( 'draft international standard', 'automotive_design', 1998, #218 ) ;
#177 = VECTOR ( 'NONE', #30, 1000.000000000000114 ) ;
#178 =( NAMED_UNIT ( * ) PLANE_ANGLE_UNIT ( ) SI_UNIT ( $, .RADIAN. ) );
#179 =( NAMED_UNIT ( * ) PLANE_ANGLE_UNIT ( ) SI_UNIT ( $, .RADIAN. ) );
#180 = VERTEX_POINT ( 'NONE', #175 ) ;
#181 = EDGE_CURVE ( 'NONE', #262, #213, #107, .T. ) ;
#182 = DIRECTION ( 'NONE',  ( 1.000000000000000000, 0.000000000000000000, 0.000000000000000000 ) ) ;
#183 =( NAMED_UNIT ( * ) SI_UNIT ( $, .STERADIAN. ) SOLID_ANGLE_UNIT ( ) );
#184 = PLANE ( 'NONE',  #227 ) ;
#185 = ORIENTED_EDGE ( 'NONE', *, *, #263, .T. ) ;
#186 = PRODUCT_DEFINITION ( 'UNKNOWN', '', #79, #99 ) ;
#187 = FACE_OUTER_BOUND ( 'NONE', #259, .T. ) ;
#188 = VECTOR ( 'NONE', #127, 1000.000000000000000 ) ;
#189 = CARTESIAN_POINT ( 'NONE',  ( 0.000000000000000000, 6.000000000000000000, 92.00000000000000000 ) ) ;
#190 = CARTESIAN_POINT ( 'NONE',  ( 0.000000000000000000, 0.000000000000000000, 92.00000000000000000 ) ) ;
#191 = DIRECTION ( 'NONE',  ( -1.000000000000000000, 0.000000000000000000, -0.000000000000000000 ) ) ;
#192 = VERTEX_POINT ( 'NONE', #62 ) ;
#193 =( LENGTH_UNIT ( ) NAMED_UNIT ( * ) SI_UNIT ( .MILLI., .METRE. ) );
#194 = ORIENTED_EDGE ( 'NONE', *, *, #94, .T. ) ;
#195 = CARTESIAN_POINT ( 'NONE',  ( 2.000000000000000888, 2.000000000000000000, 0.000000000000000000 ) ) ;
#196 = VERTEX_POINT ( 'NONE', #266 ) ;
#197 = PRESENTATION_LAYER_ASSIGNMENT (  '', '', ( #51 ) ) ;
#198 = EDGE_CURVE ( 'NONE', #91, #262, #22, .T. ) ;
#199 = CARTESIAN_POINT ( 'NONE',  ( 3.999999999999998224, 2.000000000000000000, 92.00000000000000000 ) ) ;
#200 = ORIENTED_EDGE ( 'NONE', *, *, #126, .T. ) ;
#201 = VECTOR ( 'NONE', #222, 1000.000000000000000 ) ;
#202 = FILL_AREA_STYLE_COLOUR ( '', #20 ) ;
#203 = ORIENTED_EDGE ( 'NONE', *, *, #251, .F. ) ;
#204 = PRODUCT_CONTEXT ( 'NONE', #218, 'mechanical' ) ;
#205 =( LENGTH_UNIT ( ) NAMED_UNIT ( * ) SI_UNIT ( .MILLI., .METRE. ) );
#206 = EDGE_LOOP ( 'NONE', ( #249, #7, #185, #221 ) ) ;
#207 = ADVANCED_FACE ( 'NONE', ( #247 ), #78, .F. ) ;
#208 = ORIENTED_EDGE ( 'NONE', *, *, #61, .F. ) ;
#209 = CLOSED_SHELL ( 'NONE', ( #77, #67, #146, #16, #139, #112, #207, #81 ) ) ;
#210 = FACE_OUTER_BOUND ( 'NONE', #206, .T. ) ;
#211 = CARTESIAN_POINT ( 'NONE',  ( 6.000000000000000000, -2.449293598294705921E-16, 92.00000000000000000 ) ) ;
#212 =( GEOMETRIC_REPRESENTATION_CONTEXT ( 3 ) GLOBAL_UNCERTAINTY_ASSIGNED_CONTEXT ( ( #235 ) ) GLOBAL_UNIT_ASSIGNED_CONTEXT ( ( #193, #178, #17 ) ) REPRESENTATION_CONTEXT ( 'NONE', 'WORKASPACE' ) );
#213 = VERTEX_POINT ( 'NONE', #18 ) ;
#214 = LINE ( 'NONE', #89, #41 ) ;
#215 = DIRECTION ( 'NONE',  ( 4.082155997157843202E-17, 1.000000000000000000, -0.000000000000000000 ) ) ;
#216 = PRODUCT ( 'equereinterne', 'equereinterne', '', ( #204 ) ) ;
#217 = DIRECTION ( 'NONE',  ( -2.168404344971008868E-16, 1.000000000000000000, -0.000000000000000000 ) ) ;
#218 = APPLICATION_CONTEXT ( 'automotive_design' ) ;
#219 = AXIS2_PLACEMENT_3D ( 'NONE', #98, #1, #182 ) ;
#220 = LINE ( 'NONE', #195, #45 ) ;
#221 = ORIENTED_EDGE ( 'NONE', *, *, #37, .F. ) ;
#222 = DIRECTION ( 'NONE',  ( -0.000000000000000000, -0.000000000000000000, -1.000000000000000000 ) ) ;
#223 = ADVANCED_BREP_SHAPE_REPRESENTATION ( 'equereinterne', ( #11, #219 ), #212 ) ;
#224 = CARTESIAN_POINT ( 'NONE',  ( 0.000000000000000000, 6.000000000000000000, 92.00000000000000000 ) ) ;
#225 = SHAPE_DEFINITION_REPRESENTATION ( #83, #223 ) ;
#226 = ORIENTED_EDGE ( 'NONE', *, *, #181, .T. ) ;
#227 = AXIS2_PLACEMENT_3D ( 'NONE', #144, #86, #12 ) ;
#228 = FACE_OUTER_BOUND ( 'NONE', #141, .T. ) ;
#229 = LINE ( 'NONE', #165, #123 ) ;
#230 = UNCERTAINTY_MEASURE_WITH_UNIT (LENGTH_MEASURE( 1.000000000000000082E-05 ), #132, 'distance_accuracy_value', 'NONE');
#231 = LINE ( 'NONE', #49, #137 ) ;
#232 = EDGE_CURVE ( 'NONE', #237, #91, #154, .T. ) ;
#233 = STYLED_ITEM ( 'NONE', ( #117 ), #223 ) ;
#234 = CARTESIAN_POINT ( 'NONE',  ( 2.000000000000000888, 2.000000000000000000, 92.00000000000000000 ) ) ;
#235 = UNCERTAINTY_MEASURE_WITH_UNIT (LENGTH_MEASURE( 1.000000000000000082E-05 ), #193, 'distance_accuracy_value', 'NONE');
#236 = DIRECTION ( 'NONE',  ( -0.7071067811865451302, 0.7071067811865500152, -0.000000000000000000 ) ) ;
#237 = VERTEX_POINT ( 'NONE', #134 ) ;
#238 = LINE ( 'NONE', #211, #29 ) ;
#239 = VECTOR ( 'NONE', #217, 1000.000000000000000 ) ;
#240 = FACE_OUTER_BOUND ( 'NONE', #104, .T. ) ;
#241 = VERTEX_POINT ( 'NONE', #38 ) ;
#242 = FACE_OUTER_BOUND ( 'NONE', #253, .T. ) ;
#243 = EDGE_LOOP ( 'NONE', ( #173, #27, #208, #26, #14, #131 ) ) ;
#244 = DIRECTION ( 'NONE',  ( -0.000000000000000000, -0.000000000000000000, -1.000000000000000000 ) ) ;
#245 = EDGE_CURVE ( 'NONE', #265, #168, #246, .T. ) ;
#246 = LINE ( 'NONE', #158, #252 ) ;
#247 = FACE_OUTER_BOUND ( 'NONE', #28, .T. ) ;
#248 = CARTESIAN_POINT ( 'NONE',  ( 0.000000000000000000, 6.000000000000000000, 92.00000000000000000 ) ) ;
#249 = ORIENTED_EDGE ( 'NONE', *, *, #245, .F. ) ;
#250 =( NAMED_UNIT ( * ) PLANE_ANGLE_UNIT ( ) SI_UNIT ( $, .RADIAN. ) );
#251 = EDGE_CURVE ( 'NONE', #163, #180, #157, .T. ) ;
#252 = VECTOR ( 'NONE', #96, 1000.000000000000000 ) ;
#253 = EDGE_LOOP ( 'NONE', ( #135, #35, #57, #85 ) ) ;
#254 = ORIENTED_EDGE ( 'NONE', *, *, #232, .T. ) ;
#255 = DIRECTION ( 'NONE',  ( 0.000000000000000000, 0.000000000000000000, -1.000000000000000000 ) ) ;
#256 =( GEOMETRIC_REPRESENTATION_CONTEXT ( 3 ) GLOBAL_UNCERTAINTY_ASSIGNED_CONTEXT ( ( #230 ) ) GLOBAL_UNIT_ASSIGNED_CONTEXT ( ( #132, #179, #268 ) ) REPRESENTATION_CONTEXT ( 'NONE', 'WORKASPACE' ) );
#257 = DIRECTION ( 'NONE',  ( 0.000000000000000000, 0.000000000000000000, -1.000000000000000000 ) ) ;
#258 = DIRECTION ( 'NONE',  ( -1.000000000000000000, 4.082155997157843202E-17, 0.000000000000000000 ) ) ;
#259 = EDGE_LOOP ( 'NONE', ( #74, #9, #114, #200, #140, #43 ) ) ;
#260 = LINE ( 'NONE', #143, #177 ) ;
#261 = DIRECTION ( 'NONE',  ( -1.084202172485504681E-16, -1.000000000000000000, 0.000000000000000000 ) ) ;
#262 = VERTEX_POINT ( 'NONE', #248 ) ;
#263 = EDGE_CURVE ( 'NONE', #196, #171, #220, .T. ) ;
#264 = SURFACE_SIDE_STYLE ('',( #21 ) ) ;
#265 = VERTEX_POINT ( 'NONE', #42 ) ;
#266 = CARTESIAN_POINT ( 'NONE',  ( 3.999999999999998224, 2.000000000000000000, 0.000000000000000000 ) ) ;
#267 = DIRECTION ( 'NONE',  ( -0.7071067811865500152, -0.7071067811865451302, -0.000000000000000000 ) ) ;
#268 =( NAMED_UNIT ( * ) SI_UNIT ( $, .STERADIAN. ) SOLID_ANGLE_UNIT ( ) );
ENDSEC;
END-ISO-10303-21;
