ISO-10303-21;
HEADER;
FILE_DESCRIPTION (( 'STEP AP214' ),
    '1' );
FILE_NAME ('Equerre.STEP',
    '2026-02-05T13:57:26',
    ( '' ),
    ( '' ),
    'SwSTEP 2.0',
    'SolidWorks 2021',
    '' );
FILE_SCHEMA (( 'AUTOMOTIVE_DESIGN' ));
ENDSEC;

DATA;
#1 = DIRECTION ( 'NONE',  ( 1.000000000000000000, 0.000000000000000000, -0.000000000000000000 ) ) ;
#2 = VECTOR ( 'NONE', #349, 1000.000000000000000 ) ;
#3 = PLANE ( 'NONE',  #197 ) ;
#4 = EDGE_CURVE ( 'NONE', #66, #143, #248, .T. ) ;
#5 = ORIENTED_EDGE ( 'NONE', *, *, #38, .F. ) ;
#6 = ORIENTED_EDGE ( 'NONE', *, *, #97, .T. ) ;
#7 = AXIS2_PLACEMENT_3D ( 'NONE', #378, #271, #52 ) ;
#8 = PLANE ( 'NONE',  #88 ) ;
#9 = ORIENTED_EDGE ( 'NONE', *, *, #319, .F. ) ;
#10 = CARTESIAN_POINT ( 'NONE',  ( 6.999999999999968026, 4.500000000000000000, 110.0000000000000000 ) ) ;
#11 = ORIENTED_EDGE ( 'NONE', *, *, #306, .F. ) ;
#12 = FACE_OUTER_BOUND ( 'NONE', #409, .T. ) ;
#13 = VERTEX_POINT ( 'NONE', #126 ) ;
#14 = VECTOR ( 'NONE', #123, 1000.000000000000000 ) ;
#15 = VECTOR ( 'NONE', #233, 1000.000000000000114 ) ;
#16 = ADVANCED_FACE ( 'NONE', ( #61 ), #89, .F. ) ;
#17 = ORIENTED_EDGE ( 'NONE', *, *, #4, .F. ) ;
#18 = LINE ( 'NONE', #185, #254 ) ;
#19 = VERTEX_POINT ( 'NONE', #384 ) ;
#20 = FACE_OUTER_BOUND ( 'NONE', #209, .T. ) ;
#21 = VERTEX_POINT ( 'NONE', #120 ) ;
#22 = ADVANCED_FACE ( 'NONE', ( #56 ), #308, .F. ) ;
#23 = PRESENTATION_STYLE_ASSIGNMENT (( #429 ) ) ;
#24 = CARTESIAN_POINT ( 'NONE',  ( 0.000000000000000000, 0.000000000000000000, 0.000000000000000000 ) ) ;
#25 = VECTOR ( 'NONE', #108, 1000.000000000000000 ) ;
#26 = DIRECTION ( 'NONE',  ( -1.000000000000000000, 0.000000000000000000, 0.000000000000000000 ) ) ;
#27 = CARTESIAN_POINT ( 'NONE',  ( 0.000000000000000000, 10.00000000000000000, 0.000000000000000000 ) ) ;
#28 = EDGE_CURVE ( 'NONE', #270, #116, #158, .T. ) ;
#29 = CARTESIAN_POINT ( 'NONE',  ( 2.000000000000000888, 2.000000000000000000, 0.000000000000000000 ) ) ;
#30 = CARTESIAN_POINT ( 'NONE',  ( 4.500000000000000000, 10.00000000000000000, 110.0000000000000000 ) ) ;
#31 = APPLICATION_CONTEXT ( 'automotive_design' ) ;
#32 = EDGE_CURVE ( 'NONE', #331, #13, #274, .T. ) ;
#33 = STYLED_ITEM ( 'NONE', ( #166 ), #124 ) ;
#34 = CARTESIAN_POINT ( 'NONE',  ( 0.000000000000000000, 0.000000000000000000, 0.000000000000000000 ) ) ;
#35 = EDGE_CURVE ( 'NONE', #118, #262, #245, .T. ) ;
#36 = LINE ( 'NONE', #75, #25 ) ;
#37 = AXIS2_PLACEMENT_3D ( 'NONE', #303, #49, #296 ) ;
#38 = EDGE_CURVE ( 'NONE', #204, #118, #346, .T. ) ;
#39 = SURFACE_SIDE_STYLE ('',( #194 ) ) ;
#40 = ORIENTED_EDGE ( 'NONE', *, *, #337, .F. ) ;
#41 = FILL_AREA_STYLE_COLOUR ( '', #363 ) ;
#42 = DIRECTION ( 'NONE',  ( -0.000000000000000000, -1.000000000000000000, -0.000000000000000000 ) ) ;
#43 = ORIENTED_EDGE ( 'NONE', *, *, #292, .T. ) ;
#44 = DIRECTION ( 'NONE',  ( 0.000000000000000000, -1.000000000000000000, 0.000000000000000000 ) ) ;
#45 = ORIENTED_EDGE ( 'NONE', *, *, #85, .T. ) ;
#46 = AXIS2_PLACEMENT_3D ( 'NONE', #300, #263, #340 ) ;
#47 = PLANE ( 'NONE',  #37 ) ;
#48 = EDGE_LOOP ( 'NONE', ( #140, #101, #199, #344 ) ) ;
#49 = DIRECTION ( 'NONE',  ( 0.7071067811865459074, 0.7071067811865492381, 0.000000000000000000 ) ) ;
#50 = ORIENTED_EDGE ( 'NONE', *, *, #104, .T. ) ;
#51 = DIRECTION ( 'NONE',  ( -0.000000000000000000, 0.000000000000000000, 1.000000000000000000 ) ) ;
#52 = DIRECTION ( 'NONE',  ( 1.000000000000000000, 0.000000000000000000, 0.000000000000000000 ) ) ;
#53 = FACE_OUTER_BOUND ( 'NONE', #380, .T. ) ;
#54 = DIRECTION ( 'NONE',  ( 1.000000000000000000, 0.000000000000000000, -0.000000000000000000 ) ) ;
#55 = ORIENTED_EDGE ( 'NONE', *, *, #117, .T. ) ;
#56 = FACE_OUTER_BOUND ( 'NONE', #236, .T. ) ;
#57 = LINE ( 'NONE', #27, #2 ) ;
#58 = CARTESIAN_POINT ( 'NONE',  ( 6.999999999999968026, 4.500000000000000000, 105.0000000000000000 ) ) ;
#59 = EDGE_CURVE ( 'NONE', #262, #19, #128, .T. ) ;
#60 = DIRECTION ( 'NONE',  ( 0.7071067811865474617, -0.7071067811865474617, 0.000000000000000000 ) ) ;
#61 = FACE_OUTER_BOUND ( 'NONE', #413, .T. ) ;
#62 = PLANE ( 'NONE',  #74 ) ;
#63 = VECTOR ( 'NONE', #426, 1000.000000000000000 ) ;
#64 = VERTEX_POINT ( 'NONE', #94 ) ;
#65 = EDGE_CURVE ( 'NONE', #262, #193, #219, .T. ) ;
#66 = VERTEX_POINT ( 'NONE', #29 ) ;
#67 = EDGE_CURVE ( 'NONE', #116, #374, #130, .T. ) ;
#68 = CARTESIAN_POINT ( 'NONE',  ( 4.500000000000000000, 6.999999999999997335, 105.0000000000000000 ) ) ;
#69 = FACE_OUTER_BOUND ( 'NONE', #110, .T. ) ;
#70 = APPLICATION_PROTOCOL_DEFINITION ( 'draft international standard', 'automotive_design', 1998, #31 ) ;
#71 = EDGE_CURVE ( 'NONE', #193, #241, #253, .T. ) ;
#72 = CARTESIAN_POINT ( 'NONE',  ( 4.500000000000000000, 10.00000000000000000, 105.0000000000000000 ) ) ;
#73 = ORIENTED_EDGE ( 'NONE', *, *, #179, .T. ) ;
#74 = AXIS2_PLACEMENT_3D ( 'NONE', #68, #206, #305 ) ;
#75 = CARTESIAN_POINT ( 'NONE',  ( 0.000000000000000000, 0.000000000000000000, 0.000000000000000000 ) ) ;
#76 = ORIENTED_EDGE ( 'NONE', *, *, #337, .T. ) ;
#77 = CARTESIAN_POINT ( 'NONE',  ( 4.500000000000000000, 6.999999999999997335, 105.0000000000000000 ) ) ;
#78 = ORIENTED_EDGE ( 'NONE', *, *, #170, .T. ) ;
#79 = ORIENTED_EDGE ( 'NONE', *, *, #400, .F. ) ;
#80 = VECTOR ( 'NONE', #249, 1000.000000000000000 ) ;
#81 = UNCERTAINTY_MEASURE_WITH_UNIT (LENGTH_MEASURE( 1.000000000000000082E-05 ), #169, 'distance_accuracy_value', 'NONE');
#82 = LINE ( 'NONE', #335, #221 ) ;
#83 = ORIENTED_EDGE ( 'NONE', *, *, #242, .F. ) ;
#84 = VERTEX_POINT ( 'NONE', #312 ) ;
#85 = EDGE_CURVE ( 'NONE', #64, #66, #18, .T. ) ;
#86 = ORIENTED_EDGE ( 'NONE', *, *, #412, .T. ) ;
#87 = CARTESIAN_POINT ( 'NONE',  ( 0.000000000000000000, 10.00000000000000000, 110.0000000000000000 ) ) ;
#88 = AXIS2_PLACEMENT_3D ( 'NONE', #172, #200, #373 ) ;
#89 = PLANE ( 'NONE',  #405 ) ;
#90 = CARTESIAN_POINT ( 'NONE',  ( 0.000000000000000000, 0.000000000000000000, 110.0000000000000000 ) ) ;
#91 = APPLICATION_CONTEXT ( 'automotive_design' ) ;
#92 = ORIENTED_EDGE ( 'NONE', *, *, #28, .T. ) ;
#93 = DIRECTION ( 'NONE',  ( -1.000000000000000000, -0.000000000000000000, -0.000000000000000000 ) ) ;
#94 = CARTESIAN_POINT ( 'NONE',  ( 2.000000000000000888, 2.000000000000000000, 105.0000000000000000 ) ) ;
#95 = DIRECTION ( 'NONE',  ( 0.000000000000000000, 0.000000000000000000, 1.000000000000000000 ) ) ;
#96 = VECTOR ( 'NONE', #251, 1000.000000000000000 ) ;
#97 = EDGE_CURVE ( 'NONE', #116, #66, #427, .T. ) ;
#98 = LINE ( 'NONE', #125, #167 ) ;
#99 = LINE ( 'NONE', #225, #364 ) ;
#100 = CARTESIAN_POINT ( 'NONE',  ( 0.000000000000000000, 10.00000000000000000, 110.0000000000000000 ) ) ;
#101 = ORIENTED_EDGE ( 'NONE', *, *, #38, .T. ) ;
#102 = LINE ( 'NONE', #224, #132 ) ;
#103 = LINE ( 'NONE', #330, #314 ) ;
#104 = EDGE_CURVE ( 'NONE', #299, #268, #315, .T. ) ;
#105 =( NAMED_UNIT ( * ) PLANE_ANGLE_UNIT ( ) SI_UNIT ( $, .RADIAN. ) );
#106 = VERTEX_POINT ( 'NONE', #275 ) ;
#107 = LINE ( 'NONE', #332, #176 ) ;
#108 = DIRECTION ( 'NONE',  ( 1.000000000000000000, 0.000000000000000000, 0.000000000000000000 ) ) ;
#109 = VECTOR ( 'NONE', #162, 1000.000000000000000 ) ;
#110 = EDGE_LOOP ( 'NONE', ( #50, #175, #333, #11 ) ) ;
#111 = EDGE_CURVE ( 'NONE', #106, #148, #390, .T. ) ;
#112 = ORIENTED_EDGE ( 'NONE', *, *, #258, .T. ) ;
#113 = DIRECTION ( 'NONE',  ( 0.000000000000000000, 0.000000000000000000, -1.000000000000000000 ) ) ;
#114 = PRODUCT_DEFINITION_CONTEXT ( 'detailed design', #91, 'design' ) ;
#115 = DIRECTION ( 'NONE',  ( 0.000000000000000000, 1.000000000000000000, 0.000000000000000000 ) ) ;
#116 = VERTEX_POINT ( 'NONE', #418 ) ;
#117 = EDGE_CURVE ( 'NONE', #143, #226, #252, .T. ) ;
#118 = VERTEX_POINT ( 'NONE', #127 ) ;
#119 = ADVANCED_FACE ( 'NONE', ( #20 ), #393, .F. ) ;
#120 = CARTESIAN_POINT ( 'NONE',  ( 1.499999999999996891, 10.00000000000000000, 0.000000000000000000 ) ) ;
#121 = ORIENTED_EDGE ( 'NONE', *, *, #325, .T. ) ;
#122 = DIRECTION ( 'NONE',  ( -1.000000000000000000, -0.000000000000000000, -0.000000000000000000 ) ) ;
#123 = DIRECTION ( 'NONE',  ( 0.000000000000000000, 1.000000000000000000, 0.000000000000000000 ) ) ;
#124 = ADVANCED_BREP_SHAPE_REPRESENTATION ( 'Equerre', ( #134, #7 ), #321 ) ;
#125 = CARTESIAN_POINT ( 'NONE',  ( 4.500000000000000000, 4.500000000000000000, 110.0000000000000000 ) ) ;
#126 = CARTESIAN_POINT ( 'NONE',  ( 9.999999999999998224, 1.499999999999983125, 110.0000000000000000 ) ) ;
#127 = CARTESIAN_POINT ( 'NONE',  ( 6.999999999999968026, 4.500000000000000000, 105.0000000000000000 ) ) ;
#128 = LINE ( 'NONE', #186, #96 ) ;
#129 = CARTESIAN_POINT ( 'NONE',  ( 2.000000000000000888, 2.000000000000000000, 0.000000000000000000 ) ) ;
#130 = LINE ( 'NONE', #161, #227 ) ;
#131 = CARTESIAN_POINT ( 'NONE',  ( 0.000000000000000000, 0.000000000000000000, 110.0000000000000000 ) ) ;
#132 = VECTOR ( 'NONE', #222, 1000.000000000000000 ) ;
#133 = PLANE ( 'NONE',  #414 ) ;
#134 = MANIFOLD_SOLID_BREP ( 'Chamfer2', #164 ) ;
#135 = PRODUCT_DEFINITION ( 'UNKNOWN', '', #422, #114 ) ;
#136 = VECTOR ( 'NONE', #60, 1000.000000000000114 ) ;
#137 = CARTESIAN_POINT ( 'NONE',  ( 1.499999999999996891, 10.00000000000000000, 105.0000000000000000 ) ) ;
#138 = ORIENTED_EDGE ( 'NONE', *, *, #111, .T. ) ;
#139 =( NAMED_UNIT ( * ) PLANE_ANGLE_UNIT ( ) SI_UNIT ( $, .RADIAN. ) );
#140 = ORIENTED_EDGE ( 'NONE', *, *, #160, .F. ) ;
#141 = CARTESIAN_POINT ( 'NONE',  ( 2.000000000000000000, 9.499999999999998224, 105.0000000000000000 ) ) ;
#142 = MECHANICAL_DESIGN_GEOMETRIC_PRESENTATION_REPRESENTATION (  '', ( #212 ), #246 ) ;
#143 = VERTEX_POINT ( 'NONE', #421 ) ;
#144 = ORIENTED_EDGE ( 'NONE', *, *, #325, .F. ) ;
#145 = EDGE_LOOP ( 'NONE', ( #235, #43, #329, #433 ) ) ;
#146 = CARTESIAN_POINT ( 'NONE',  ( 0.000000000000000000, 0.000000000000000000, 110.0000000000000000 ) ) ;
#147 = PLANE ( 'NONE',  #334 ) ;
#148 = VERTEX_POINT ( 'NONE', #347 ) ;
#149 = VECTOR ( 'NONE', #151, 1000.000000000000000 ) ;
#150 = FACE_OUTER_BOUND ( 'NONE', #416, .T. ) ;
#151 = DIRECTION ( 'NONE',  ( 0.000000000000000000, 0.000000000000000000, -1.000000000000000000 ) ) ;
#152 = DIRECTION ( 'NONE',  ( -0.000000000000000000, -0.000000000000000000, -1.000000000000000000 ) ) ;
#153 = DIRECTION ( 'NONE',  ( 1.084202172485504557E-16, -1.000000000000000000, 0.000000000000000000 ) ) ;
#154 = FILL_AREA_STYLE ('',( #284 ) ) ;
#155 = CARTESIAN_POINT ( 'NONE',  ( 2.000000000000000000, 10.00000000000000000, 110.0000000000000000 ) ) ;
#156 = VECTOR ( 'NONE', #93, 1000.000000000000000 ) ;
#157 = CARTESIAN_POINT ( 'NONE',  ( 4.500000000000000000, 4.500000000000000000, 110.0000000000000000 ) ) ;
#158 = LINE ( 'NONE', #184, #149 ) ;
#159 =( NAMED_UNIT ( * ) SI_UNIT ( $, .STERADIAN. ) SOLID_ANGLE_UNIT ( ) );
#160 = EDGE_CURVE ( 'NONE', #204, #193, #98, .T. ) ;
#161 = CARTESIAN_POINT ( 'NONE',  ( 9.999999999999998224, 1.499999999999983125, 0.000000000000000000 ) ) ;
#162 = DIRECTION ( 'NONE',  ( -0.000000000000000000, 1.000000000000000000, -0.000000000000000000 ) ) ;
#163 = EDGE_CURVE ( 'NONE', #21, #143, #354, .T. ) ;
#164 = CLOSED_SHELL ( 'NONE', ( #358, #22, #280, #16, #203, #119, #229, #302, #353, #392, #339, #195, #220 ) ) ;
#165 =( LENGTH_UNIT ( ) NAMED_UNIT ( * ) SI_UNIT ( .MILLI., .METRE. ) );
#166 = PRESENTATION_STYLE_ASSIGNMENT (( #293 ) ) ;
#167 = VECTOR ( 'NONE', #122, 1000.000000000000000 ) ;
#168 = LINE ( 'NONE', #273, #343 ) ;
#169 =( LENGTH_UNIT ( ) NAMED_UNIT ( * ) SI_UNIT ( .MILLI., .METRE. ) );
#170 = EDGE_CURVE ( 'NONE', #148, #299, #247, .T. ) ;
#171 = ORIENTED_EDGE ( 'NONE', *, *, #32, .T. ) ;
#172 = CARTESIAN_POINT ( 'NONE',  ( 2.000000000000000888, 2.000000000000000000, 110.0000000000000000 ) ) ;
#173 = ORIENTED_EDGE ( 'NONE', *, *, #179, .F. ) ;
#174 = VECTOR ( 'NONE', #355, 1000.000000000000000 ) ;
#175 = ORIENTED_EDGE ( 'NONE', *, *, #410, .T. ) ;
#176 = VECTOR ( 'NONE', #266, 1000.000000000000000 ) ;
#177 = CARTESIAN_POINT ( 'NONE',  ( 9.999999999999998224, 0.000000000000000000, 110.0000000000000000 ) ) ;
#178 = ORIENTED_EDGE ( 'NONE', *, *, #400, .T. ) ;
#179 = EDGE_CURVE ( 'NONE', #21, #84, #57, .T. ) ;
#180 = ORIENTED_EDGE ( 'NONE', *, *, #104, .F. ) ;
#181 = PLANE ( 'NONE',  #397 ) ;
#182 = DIRECTION ( 'NONE',  ( 0.000000000000000000, 0.000000000000000000, 1.000000000000000000 ) ) ;
#183 = FACE_OUTER_BOUND ( 'NONE', #265, .T. ) ;
#184 = CARTESIAN_POINT ( 'NONE',  ( 9.499999999999978684, 2.000000000000000000, 110.0000000000000000 ) ) ;
#185 = CARTESIAN_POINT ( 'NONE',  ( 2.000000000000000888, 2.000000000000000000, 110.0000000000000000 ) ) ;
#186 = CARTESIAN_POINT ( 'NONE',  ( 4.500000000000000000, 10.00000000000000000, 105.0000000000000000 ) ) ;
#187 = DIRECTION ( 'NONE',  ( -1.000000000000000000, 0.000000000000000000, 0.000000000000000000 ) ) ;
#188 = CARTESIAN_POINT ( 'NONE',  ( 9.999999999999998224, 0.000000000000000000, 110.0000000000000000 ) ) ;
#189 = EDGE_LOOP ( 'NONE', ( #9, #5, #40, #276, #348, #401 ) ) ;
#190 = LINE ( 'NONE', #388, #352 ) ;
#191 = EDGE_CURVE ( 'NONE', #270, #64, #190, .T. ) ;
#192 = CARTESIAN_POINT ( 'NONE',  ( 0.000000000000000000, 0.000000000000000000, 110.0000000000000000 ) ) ;
#193 = VERTEX_POINT ( 'NONE', #157 ) ;
#194 = SURFACE_STYLE_FILL_AREA ( #399 ) ;
#195 = ADVANCED_FACE ( 'NONE', ( #424 ), #62, .T. ) ;
#196 = LINE ( 'NONE', #259, #379 ) ;
#197 = AXIS2_PLACEMENT_3D ( 'NONE', #72, #1, #264 ) ;
#198 = ORIENTED_EDGE ( 'NONE', *, *, #191, .F. ) ;
#199 = ORIENTED_EDGE ( 'NONE', *, *, #35, .T. ) ;
#200 = DIRECTION ( 'NONE',  ( 0.000000000000000000, -1.000000000000000000, 0.000000000000000000 ) ) ;
#201 = ORIENTED_EDGE ( 'NONE', *, *, #210, .F. ) ;
#202 = PRODUCT_CONTEXT ( 'NONE', #31, 'mechanical' ) ;
#203 = ADVANCED_FACE ( 'NONE', ( #150 ), #133, .F. ) ;
#204 = VERTEX_POINT ( 'NONE', #10 ) ;
#205 = ORIENTED_EDGE ( 'NONE', *, *, #35, .F. ) ;
#206 = DIRECTION ( 'NONE',  ( 0.7071067811865475727, 0.7071067811865475727, 0.000000000000000000 ) ) ;
#207 = FACE_OUTER_BOUND ( 'NONE', #48, .T. ) ;
#208 = CARTESIAN_POINT ( 'NONE',  ( 0.000000000000000000, 0.000000000000000000, 110.0000000000000000 ) ) ;
#209 = EDGE_LOOP ( 'NONE', ( #404, #121, #180, #342 ) ) ;
#210 = EDGE_CURVE ( 'NONE', #243, #374, #82, .T. ) ;
#211 = DIRECTION ( 'NONE',  ( -1.000000000000000000, -1.084202172485504557E-16, 0.000000000000000000 ) ) ;
#212 = STYLED_ITEM ( 'NONE', ( #23 ), #134 ) ;
#213 = VECTOR ( 'NONE', #359, 1000.000000000000000 ) ;
#214 = DIRECTION ( 'NONE',  ( -1.000000000000000000, -0.000000000000000000, -0.000000000000000000 ) ) ;
#215 = DIRECTION ( 'NONE',  ( -1.000000000000000000, -0.000000000000000000, -0.000000000000000000 ) ) ;
#216 = CARTESIAN_POINT ( 'NONE',  ( 0.000000000000000000, 0.000000000000000000, 110.0000000000000000 ) ) ;
#217 = EDGE_LOOP ( 'NONE', ( #198, #92, #6, #389 ) ) ;
#218 = SURFACE_STYLE_FILL_AREA ( #154 ) ;
#219 = LINE ( 'NONE', #351, #394 ) ;
#220 = ADVANCED_FACE ( 'NONE', ( #382 ), #47, .T. ) ;
#221 = VECTOR ( 'NONE', #115, 1000.000000000000000 ) ;
#222 = DIRECTION ( 'NONE',  ( -0.000000000000000000, -0.000000000000000000, -1.000000000000000000 ) ) ;
#223 =( LENGTH_UNIT ( ) NAMED_UNIT ( * ) SI_UNIT ( .MILLI., .METRE. ) );
#224 = CARTESIAN_POINT ( 'NONE',  ( 0.000000000000000000, 10.00000000000000000, 110.0000000000000000 ) ) ;
#225 = CARTESIAN_POINT ( 'NONE',  ( 9.999999999999998224, 1.499999999999983125, 105.0000000000000000 ) ) ;
#226 = VERTEX_POINT ( 'NONE', #141 ) ;
#227 = VECTOR ( 'NONE', #428, 1000.000000000000114 ) ;
#228 = ORIENTED_EDGE ( 'NONE', *, *, #417, .T. ) ;
#229 = ADVANCED_FACE ( 'NONE', ( #12 ), #147, .T. ) ;
#230 = VECTOR ( 'NONE', #345, 1000.000000000000000 ) ;
#231 = ORIENTED_EDGE ( 'NONE', *, *, #117, .F. ) ;
#232 = PLANE ( 'NONE',  #327 ) ;
#233 = DIRECTION ( 'NONE',  ( 0.7071067811865474617, -0.7071067811865474617, 0.000000000000000000 ) ) ;
#234 = UNCERTAINTY_MEASURE_WITH_UNIT (LENGTH_MEASURE( 1.000000000000000082E-05 ), #165, 'distance_accuracy_value', 'NONE');
#235 = ORIENTED_EDGE ( 'NONE', *, *, #59, .T. ) ;
#236 = EDGE_LOOP ( 'NONE', ( #362, #55, #297, #45 ) ) ;
#237 = VECTOR ( 'NONE', #215, 1000.000000000000000 ) ;
#238 = AXIS2_PLACEMENT_3D ( 'NONE', #294, #51, #257 ) ;
#239 = ORIENTED_EDGE ( 'NONE', *, *, #97, .F. ) ;
#240 = SHAPE_DEFINITION_REPRESENTATION ( #356, #124 ) ;
#241 = VERTEX_POINT ( 'NONE', #403 ) ;
#242 = EDGE_CURVE ( 'NONE', #148, #84, #102, .T. ) ;
#243 = VERTEX_POINT ( 'NONE', #350 ) ;
#244 = CARTESIAN_POINT ( 'NONE',  ( 2.000000000000000000, 9.499999999999998224, 105.0000000000000000 ) ) ;
#245 = LINE ( 'NONE', #281, #237 ) ;
#246 =( GEOMETRIC_REPRESENTATION_CONTEXT ( 3 ) GLOBAL_UNCERTAINTY_ASSIGNED_CONTEXT ( ( #267 ) ) GLOBAL_UNIT_ASSIGNED_CONTEXT ( ( #223, #385, #159 ) ) REPRESENTATION_CONTEXT ( 'NONE', 'WORKASPACE' ) );
#247 = LINE ( 'NONE', #90, #80 ) ;
#248 = LINE ( 'NONE', #423, #361 ) ;
#249 = DIRECTION ( 'NONE',  ( -0.000000000000000000, -1.000000000000000000, -0.000000000000000000 ) ) ;
#250 = EDGE_CURVE ( 'NONE', #64, #226, #289, .T. ) ;
#251 = DIRECTION ( 'NONE',  ( -0.000000000000000000, 1.000000000000000000, -0.000000000000000000 ) ) ;
#252 = LINE ( 'NONE', #244, #230 ) ;
#253 = LINE ( 'NONE', #30, #109 ) ;
#254 = VECTOR ( 'NONE', #282, 1000.000000000000000 ) ;
#255 = VECTOR ( 'NONE', #113, 1000.000000000000000 ) ;
#256 = COLOUR_RGB ( '',0.7921568627450980005, 0.8196078431372548767, 0.9333333333333333481 ) ;
#257 = DIRECTION ( 'NONE',  ( 1.000000000000000000, 0.000000000000000000, 0.000000000000000000 ) ) ;
#258 = EDGE_CURVE ( 'NONE', #241, #106, #365, .T. ) ;
#259 = CARTESIAN_POINT ( 'NONE',  ( 9.999999999999998224, 0.000000000000000000, 110.0000000000000000 ) ) ;
#260 = ORIENTED_EDGE ( 'NONE', *, *, #160, .T. ) ;
#261 = DIRECTION ( 'NONE',  ( 0.000000000000000000, 1.000000000000000000, 0.000000000000000000 ) ) ;
#262 = VERTEX_POINT ( 'NONE', #286 ) ;
#263 = DIRECTION ( 'NONE',  ( 0.000000000000000000, 1.000000000000000000, 0.000000000000000000 ) ) ;
#264 = DIRECTION ( 'NONE',  ( -0.000000000000000000, 0.000000000000000000, -1.000000000000000000 ) ) ;
#265 = EDGE_LOOP ( 'NONE', ( #205, #377, #301, #391, #178, #415 ) ) ;
#266 = DIRECTION ( 'NONE',  ( 0.000000000000000000, 0.000000000000000000, 1.000000000000000000 ) ) ;
#267 = UNCERTAINTY_MEASURE_WITH_UNIT (LENGTH_MEASURE( 1.000000000000000082E-05 ), #223, 'distance_accuracy_value', 'NONE');
#268 = VERTEX_POINT ( 'NONE', #34 ) ;
#269 = DIRECTION ( 'NONE',  ( -0.7071067811865491270, 0.7071067811865459074, 0.000000000000000000 ) ) ;
#270 = VERTEX_POINT ( 'NONE', #432 ) ;
#271 = DIRECTION ( 'NONE',  ( 0.000000000000000000, 0.000000000000000000, 1.000000000000000000 ) ) ;
#272 = ORIENTED_EDGE ( 'NONE', *, *, #292, .F. ) ;
#273 = CARTESIAN_POINT ( 'NONE',  ( 0.000000000000000000, 0.000000000000000000, 0.000000000000000000 ) ) ;
#274 = LINE ( 'NONE', #313, #14 ) ;
#275 = CARTESIAN_POINT ( 'NONE',  ( 1.499999999999996891, 10.00000000000000000, 110.0000000000000000 ) ) ;
#276 = ORIENTED_EDGE ( 'NONE', *, *, #412, .F. ) ;
#277 = ORIENTED_EDGE ( 'NONE', *, *, #71, .T. ) ;
#278 = AXIS2_PLACEMENT_3D ( 'NONE', #155, #211, #153 ) ;
#279 = DIRECTION ( 'NONE',  ( 1.000000000000000000, 0.000000000000000000, 0.000000000000000000 ) ) ;
#280 = ADVANCED_FACE ( 'NONE', ( #69 ), #232, .F. ) ;
#281 = CARTESIAN_POINT ( 'NONE',  ( 4.500000000000000000, 4.500000000000000000, 105.0000000000000000 ) ) ;
#282 = DIRECTION ( 'NONE',  ( -0.000000000000000000, -0.000000000000000000, -1.000000000000000000 ) ) ;
#283 = DIRECTION ( 'NONE',  ( 0.000000000000000000, 0.000000000000000000, 1.000000000000000000 ) ) ;
#284 = FILL_AREA_STYLE_COLOUR ( '', #256 ) ;
#285 = DIRECTION ( 'NONE',  ( 1.000000000000000000, 0.000000000000000000, -0.000000000000000000 ) ) ;
#286 = CARTESIAN_POINT ( 'NONE',  ( 4.500000000000000000, 4.500000000000000000, 105.0000000000000000 ) ) ;
#287 = AXIS2_PLACEMENT_3D ( 'NONE', #216, #279, #317 ) ;
#288 = PRESENTATION_LAYER_ASSIGNMENT (  '', '', ( #33 ) ) ;
#289 = LINE ( 'NONE', #322, #174 ) ;
#290 = PLANE ( 'NONE',  #238 ) ;
#291 = VECTOR ( 'NONE', #214, 1000.000000000000000 ) ;
#292 = EDGE_CURVE ( 'NONE', #19, #241, #107, .T. ) ;
#293 = SURFACE_STYLE_USAGE ( .BOTH. , #39 ) ;
#294 = CARTESIAN_POINT ( 'NONE',  ( 0.000000000000000000, 0.000000000000000000, 105.0000000000000000 ) ) ;
#295 = ORIENTED_EDGE ( 'NONE', *, *, #163, .F. ) ;
#296 = DIRECTION ( 'NONE',  ( 0.000000000000000000, 0.000000000000000000, -1.000000000000000000 ) ) ;
#297 = ORIENTED_EDGE ( 'NONE', *, *, #250, .F. ) ;
#298 = DIRECTION ( 'NONE',  ( 0.000000000000000000, -0.000000000000000000, -1.000000000000000000 ) ) ;
#299 = VERTEX_POINT ( 'NONE', #146 ) ;
#300 = CARTESIAN_POINT ( 'NONE',  ( 4.500000000000000000, 4.500000000000000000, 105.0000000000000000 ) ) ;
#301 = ORIENTED_EDGE ( 'NONE', *, *, #191, .T. ) ;
#302 = ADVANCED_FACE ( 'NONE', ( #53 ), #181, .F. ) ;
#303 = CARTESIAN_POINT ( 'NONE',  ( 9.999999999999998224, 1.499999999999983125, 110.0000000000000000 ) ) ;
#304 = ORIENTED_EDGE ( 'NONE', *, *, #210, .T. ) ;
#305 = DIRECTION ( 'NONE',  ( 0.000000000000000000, 0.000000000000000000, -1.000000000000000000 ) ) ;
#306 = EDGE_CURVE ( 'NONE', #299, #331, #430, .T. ) ;
#307 = MECHANICAL_DESIGN_GEOMETRIC_PRESENTATION_REPRESENTATION (  '', ( #33 ), #386 ) ;
#308 = PLANE ( 'NONE',  #278 ) ;
#309 = ORIENTED_EDGE ( 'NONE', *, *, #306, .T. ) ;
#310 = SURFACE_SIDE_STYLE ('',( #218 ) ) ;
#311 = ORIENTED_EDGE ( 'NONE', *, *, #417, .F. ) ;
#312 = CARTESIAN_POINT ( 'NONE',  ( 0.000000000000000000, 10.00000000000000000, 0.000000000000000000 ) ) ;
#313 = CARTESIAN_POINT ( 'NONE',  ( 9.999999999999998224, 0.000000000000000000, 110.0000000000000000 ) ) ;
#314 = VECTOR ( 'NONE', #376, 1000.000000000000000 ) ;
#315 = LINE ( 'NONE', #192, #431 ) ;
#316 = ORIENTED_EDGE ( 'NONE', *, *, #425, .T. ) ;
#317 = DIRECTION ( 'NONE',  ( 0.000000000000000000, 0.000000000000000000, -1.000000000000000000 ) ) ;
#318 = DIRECTION ( 'NONE',  ( -0.7071067811865474617, 0.7071067811865474617, 0.000000000000000000 ) ) ;
#319 = EDGE_CURVE ( 'NONE', #118, #270, #99, .T. ) ;
#320 = PRESENTATION_LAYER_ASSIGNMENT (  '', '', ( #212 ) ) ;
#321 =( GEOMETRIC_REPRESENTATION_CONTEXT ( 3 ) GLOBAL_UNCERTAINTY_ASSIGNED_CONTEXT ( ( #234 ) ) GLOBAL_UNIT_ASSIGNED_CONTEXT ( ( #165, #105, #328 ) ) REPRESENTATION_CONTEXT ( 'NONE', 'WORKASPACE' ) );
#322 = CARTESIAN_POINT ( 'NONE',  ( 2.000000000000000000, 10.00000000000000000, 105.0000000000000000 ) ) ;
#323 = PRODUCT ( 'Equerre', 'Equerre', '', ( #202 ) ) ;
#324 = LINE ( 'NONE', #137, #255 ) ;
#325 = EDGE_CURVE ( 'NONE', #84, #268, #168, .T. ) ;
#326 = DIRECTION ( 'NONE',  ( 0.7071067811865491270, -0.7071067811865459074, 0.000000000000000000 ) ) ;
#327 = AXIS2_PLACEMENT_3D ( 'NONE', #375, #261, #368 ) ;
#328 =( NAMED_UNIT ( * ) SI_UNIT ( $, .STERADIAN. ) SOLID_ANGLE_UNIT ( ) );
#329 = ORIENTED_EDGE ( 'NONE', *, *, #71, .F. ) ;
#330 = CARTESIAN_POINT ( 'NONE',  ( 9.999999999999998224, 1.499999999999983125, 110.0000000000000000 ) ) ;
#331 = VERTEX_POINT ( 'NONE', #177 ) ;
#332 = CARTESIAN_POINT ( 'NONE',  ( 4.500000000000000000, 6.999999999999997335, 110.0000000000000000 ) ) ;
#333 = ORIENTED_EDGE ( 'NONE', *, *, #425, .F. ) ;
#334 = AXIS2_PLACEMENT_3D ( 'NONE', #208, #341, #54 ) ;
#335 = CARTESIAN_POINT ( 'NONE',  ( 9.999999999999998224, 0.000000000000000000, 0.000000000000000000 ) ) ;
#336 = ORIENTED_EDGE ( 'NONE', *, *, #410, .F. ) ;
#337 = EDGE_CURVE ( 'NONE', #13, #204, #367, .T. ) ;
#338 = EDGE_LOOP ( 'NONE', ( #295, #311, #383, #272, #79, #231 ) ) ;
#339 = ADVANCED_FACE ( 'NONE', ( #207 ), #408, .T. ) ;
#340 = DIRECTION ( 'NONE',  ( 0.000000000000000000, -0.000000000000000000, 1.000000000000000000 ) ) ;
#341 = DIRECTION ( 'NONE',  ( 0.000000000000000000, 0.000000000000000000, 1.000000000000000000 ) ) ;
#342 = ORIENTED_EDGE ( 'NONE', *, *, #170, .F. ) ;
#343 = VECTOR ( 'NONE', #42, 1000.000000000000000 ) ;
#344 = ORIENTED_EDGE ( 'NONE', *, *, #65, .T. ) ;
#345 = DIRECTION ( 'NONE',  ( 0.000000000000000000, 0.000000000000000000, 1.000000000000000000 ) ) ;
#346 = LINE ( 'NONE', #58, #63 ) ;
#347 = CARTESIAN_POINT ( 'NONE',  ( 0.000000000000000000, 10.00000000000000000, 110.0000000000000000 ) ) ;
#348 = ORIENTED_EDGE ( 'NONE', *, *, #67, .F. ) ;
#349 = DIRECTION ( 'NONE',  ( -1.000000000000000000, -0.000000000000000000, -0.000000000000000000 ) ) ;
#350 = CARTESIAN_POINT ( 'NONE',  ( 9.999999999999998224, 0.000000000000000000, 0.000000000000000000 ) ) ;
#351 = CARTESIAN_POINT ( 'NONE',  ( 4.500000000000000000, 4.500000000000000000, 105.0000000000000000 ) ) ;
#352 = VECTOR ( 'NONE', #187, 1000.000000000000000 ) ;
#353 = ADVANCED_FACE ( 'NONE', ( #183 ), #290, .F. ) ;
#354 = LINE ( 'NONE', #357, #136 ) ;
#355 = DIRECTION ( 'NONE',  ( -1.084202172485504557E-16, 1.000000000000000000, -0.000000000000000000 ) ) ;
#356 = PRODUCT_DEFINITION_SHAPE ( 'NONE', 'NONE',  #135 ) ;
#357 = CARTESIAN_POINT ( 'NONE',  ( 4.500000000000000000, 6.999999999999997335, 0.000000000000000000 ) ) ;
#358 = ADVANCED_FACE ( 'NONE', ( #366 ), #8, .F. ) ;
#359 = DIRECTION ( 'NONE',  ( 1.000000000000000000, 0.000000000000000000, 0.000000000000000000 ) ) ;
#360 = CARTESIAN_POINT ( 'NONE',  ( 5.749999999999998224, 5.749999999999998224, 110.0000000000000000 ) ) ;
#361 = VECTOR ( 'NONE', #420, 1000.000000000000000 ) ;
#362 = ORIENTED_EDGE ( 'NONE', *, *, #4, .T. ) ;
#363 = COLOUR_RGB ( '',0.7921568627450980005, 0.8196078431372548767, 0.9333333333333333481 ) ;
#364 = VECTOR ( 'NONE', #326, 1000.000000000000114 ) ;
#365 = LINE ( 'NONE', #360, #396 ) ;
#366 = FACE_OUTER_BOUND ( 'NONE', #217, .T. ) ;
#367 = LINE ( 'NONE', #381, #406 ) ;
#368 = DIRECTION ( 'NONE',  ( 0.000000000000000000, -0.000000000000000000, 1.000000000000000000 ) ) ;
#369 = FACE_OUTER_BOUND ( 'NONE', #145, .T. ) ;
#370 = ORIENTED_EDGE ( 'NONE', *, *, #111, .F. ) ;
#371 = CARTESIAN_POINT ( 'NONE',  ( 9.999999999999998224, 1.499999999999983125, 0.000000000000000000 ) ) ;
#372 = ORIENTED_EDGE ( 'NONE', *, *, #67, .T. ) ;
#373 = DIRECTION ( 'NONE',  ( 0.000000000000000000, -0.000000000000000000, -1.000000000000000000 ) ) ;
#374 = VERTEX_POINT ( 'NONE', #371 ) ;
#375 = CARTESIAN_POINT ( 'NONE',  ( 0.000000000000000000, 0.000000000000000000, 110.0000000000000000 ) ) ;
#376 = DIRECTION ( 'NONE',  ( 0.000000000000000000, -0.000000000000000000, 1.000000000000000000 ) ) ;
#377 = ORIENTED_EDGE ( 'NONE', *, *, #319, .T. ) ;
#378 = CARTESIAN_POINT ( 'NONE',  ( 0.000000000000000000, 0.000000000000000000, 0.000000000000000000 ) ) ;
#379 = VECTOR ( 'NONE', #407, 1000.000000000000000 ) ;
#380 = EDGE_LOOP ( 'NONE', ( #239, #372, #201, #336, #144, #173, #411, #17 ) ) ;
#381 = CARTESIAN_POINT ( 'NONE',  ( 5.749999999999968026, 5.749999999999994671, 110.0000000000000000 ) ) ;
#382 = FACE_OUTER_BOUND ( 'NONE', #189, .T. ) ;
#383 = ORIENTED_EDGE ( 'NONE', *, *, #258, .F. ) ;
#384 = CARTESIAN_POINT ( 'NONE',  ( 4.500000000000000000, 6.999999999999997335, 105.0000000000000000 ) ) ;
#385 =( NAMED_UNIT ( * ) PLANE_ANGLE_UNIT ( ) SI_UNIT ( $, .RADIAN. ) );
#386 =( GEOMETRIC_REPRESENTATION_CONTEXT ( 3 ) GLOBAL_UNCERTAINTY_ASSIGNED_CONTEXT ( ( #81 ) ) GLOBAL_UNIT_ASSIGNED_CONTEXT ( ( #169, #139, #402 ) ) REPRESENTATION_CONTEXT ( 'NONE', 'WORKASPACE' ) );
#387 = ORIENTED_EDGE ( 'NONE', *, *, #32, .F. ) ;
#388 = CARTESIAN_POINT ( 'NONE',  ( 2.000000000000000888, 2.000000000000000000, 105.0000000000000000 ) ) ;
#389 = ORIENTED_EDGE ( 'NONE', *, *, #85, .F. ) ;
#390 = LINE ( 'NONE', #87, #156 ) ;
#391 = ORIENTED_EDGE ( 'NONE', *, *, #250, .T. ) ;
#392 = ADVANCED_FACE ( 'NONE', ( #369 ), #3, .T. ) ;
#393 = PLANE ( 'NONE',  #287 ) ;
#394 = VECTOR ( 'NONE', #283, 1000.000000000000000 ) ;
#395 = PRODUCT_RELATED_PRODUCT_CATEGORY ( 'part', '', ( #323 ) ) ;
#396 = VECTOR ( 'NONE', #318, 1000.000000000000114 ) ;
#397 = AXIS2_PLACEMENT_3D ( 'NONE', #24, #95, #285 ) ;
#398 = LINE ( 'NONE', #77, #15 ) ;
#399 = FILL_AREA_STYLE ('',( #41 ) ) ;
#400 = EDGE_CURVE ( 'NONE', #226, #19, #398, .T. ) ;
#401 = ORIENTED_EDGE ( 'NONE', *, *, #28, .F. ) ;
#402 =( NAMED_UNIT ( * ) SI_UNIT ( $, .STERADIAN. ) SOLID_ANGLE_UNIT ( ) );
#403 = CARTESIAN_POINT ( 'NONE',  ( 4.500000000000000000, 6.999999999999997335, 110.0000000000000000 ) ) ;
#404 = ORIENTED_EDGE ( 'NONE', *, *, #242, .T. ) ;
#405 = AXIS2_PLACEMENT_3D ( 'NONE', #188, #26, #182 ) ;
#406 = VECTOR ( 'NONE', #269, 1000.000000000000114 ) ;
#407 = DIRECTION ( 'NONE',  ( -0.000000000000000000, -0.000000000000000000, -1.000000000000000000 ) ) ;
#408 = PLANE ( 'NONE',  #46 ) ;
#409 = EDGE_LOOP ( 'NONE', ( #171, #76, #260, #277, #112, #138, #78, #309 ) ) ;
#410 = EDGE_CURVE ( 'NONE', #268, #243, #36, .T. ) ;
#411 = ORIENTED_EDGE ( 'NONE', *, *, #163, .T. ) ;
#412 = EDGE_CURVE ( 'NONE', #374, #13, #103, .T. ) ;
#413 = EDGE_LOOP ( 'NONE', ( #304, #86, #387, #316 ) ) ;
#414 = AXIS2_PLACEMENT_3D ( 'NONE', #100, #44, #298 ) ;
#415 = ORIENTED_EDGE ( 'NONE', *, *, #59, .F. ) ;
#416 = EDGE_LOOP ( 'NONE', ( #370, #228, #73, #83 ) ) ;
#417 = EDGE_CURVE ( 'NONE', #106, #21, #324, .T. ) ;
#418 = CARTESIAN_POINT ( 'NONE',  ( 9.499999999999976907, 2.000000000000000000, 0.000000000000000000 ) ) ;
#419 = APPLICATION_PROTOCOL_DEFINITION ( 'draft international standard', 'automotive_design', 1998, #91 ) ;
#420 = DIRECTION ( 'NONE',  ( -1.084202172485504434E-16, 1.000000000000000000, -0.000000000000000000 ) ) ;
#421 = CARTESIAN_POINT ( 'NONE',  ( 2.000000000000000000, 9.499999999999998224, 0.000000000000000000 ) ) ;
#422 = PRODUCT_DEFINITION_FORMATION_WITH_SPECIFIED_SOURCE ( 'ANY', '', #323, .NOT_KNOWN. ) ;
#423 = CARTESIAN_POINT ( 'NONE',  ( 2.000000000000000000, 10.00000000000000000, 0.000000000000000000 ) ) ;
#424 = FACE_OUTER_BOUND ( 'NONE', #338, .T. ) ;
#425 = EDGE_CURVE ( 'NONE', #331, #243, #196, .T. ) ;
#426 = DIRECTION ( 'NONE',  ( 0.000000000000000000, 0.000000000000000000, -1.000000000000000000 ) ) ;
#427 = LINE ( 'NONE', #129, #291 ) ;
#428 = DIRECTION ( 'NONE',  ( 0.7071067811865491270, -0.7071067811865459074, 0.000000000000000000 ) ) ;
#429 = SURFACE_STYLE_USAGE ( .BOTH. , #310 ) ;
#430 = LINE ( 'NONE', #131, #213 ) ;
#431 = VECTOR ( 'NONE', #152, 1000.000000000000000 ) ;
#432 = CARTESIAN_POINT ( 'NONE',  ( 9.499999999999976907, 2.000000000000000000, 105.0000000000000000 ) ) ;
#433 = ORIENTED_EDGE ( 'NONE', *, *, #65, .F. ) ;
ENDSEC;
END-ISO-10303-21;
