ISO-10303-21;
HEADER;
FILE_DESCRIPTION (( 'STEP AP214' ),
    '1' );
FILE_NAME ('equerrere60.STEP',
    '2026-02-05T16:18:58',
    ( '' ),
    ( '' ),
    'SwSTEP 2.0',
    'SolidWorks 2021',
    '' );
FILE_SCHEMA (( 'AUTOMOTIVE_DESIGN' ));
ENDSEC;

DATA;
#1 = EDGE_CURVE ( 'NONE', #107, #238, #63, .T. ) ;
#2 = DIRECTION ( 'NONE',  ( 0.000000000000000000, 0.000000000000000000, 1.000000000000000000 ) ) ;
#3 = VECTOR ( 'NONE', #253, 1000.000000000000000 ) ;
#4 = LINE ( 'NONE', #62, #8 ) ;
#5 = CARTESIAN_POINT ( 'NONE',  ( 12.73205080756889629, -16.58845726811989252, 110.0000000000000000 ) ) ;
#6 = ADVANCED_FACE ( 'NONE', ( #207 ), #178, .F. ) ;
#7 = VECTOR ( 'NONE', #9, 1000.000000000000000 ) ;
#8 = VECTOR ( 'NONE', #67, 1000.000000000000000 ) ;
#9 = DIRECTION ( 'NONE',  ( -0.4999999999999986677, -0.8660254037844393737, -0.000000000000000000 ) ) ;
#10 = CARTESIAN_POINT ( 'NONE',  ( 20.74038105676661914, -18.32531754730547746, 105.0000000000000000 ) ) ;
#11 = EDGE_CURVE ( 'NONE', #243, #340, #392, .T. ) ;
#12 = LINE ( 'NONE', #75, #384 ) ;
#13 = AXIS2_PLACEMENT_3D ( 'NONE', #313, #23, #114 ) ;
#14 = VECTOR ( 'NONE', #295, 1000.000000000000000 ) ;
#15 = CARTESIAN_POINT ( 'NONE',  ( 15.00000000000000711, -8.660254037844378416, 110.0000000000000000 ) ) ;
#16 = CARTESIAN_POINT ( 'NONE',  ( 10.00000000000001954, -17.32050807568877460, 0.000000000000000000 ) ) ;
#17 = EDGE_CURVE ( 'NONE', #395, #388, #85, .T. ) ;
#18 = VERTEX_POINT ( 'NONE', #310 ) ;
#19 = ORIENTED_EDGE ( 'NONE', *, *, #188, .F. ) ;
#20 = VECTOR ( 'NONE', #176, 1000.000000000000114 ) ;
#21 = EDGE_LOOP ( 'NONE', ( #213, #54, #88, #87, #331, #139, #276, #240 ) ) ;
#22 = CARTESIAN_POINT ( 'NONE',  ( 15.00000000000000711, -8.660254037844378416, 110.0000000000000000 ) ) ;
#23 = DIRECTION ( 'NONE',  ( 0.4999999999999987232, 0.8660254037844394848, 0.000000000000000000 ) ) ;
#24 = CARTESIAN_POINT ( 'NONE',  ( 23.24038105676660848, -22.65544456622765424, 0.000000000000000000 ) ) ;
#25 = VERTEX_POINT ( 'NONE', #26 ) ;
#26 = CARTESIAN_POINT ( 'NONE',  ( 15.24038105676659960, -8.799038105676654453, 110.0000000000000000 ) ) ;
#27 = ORIENTED_EDGE ( 'NONE', *, *, #174, .T. ) ;
#28 = CARTESIAN_POINT ( 'NONE',  ( 13.98205080756889274, -14.42339375865879170, 110.0000000000000000 ) ) ;
#29 = CARTESIAN_POINT ( 'NONE',  ( 20.74038105676661914, -18.32531754730547746, 110.0000000000000000 ) ) ;
#30 = CARTESIAN_POINT ( 'NONE',  ( 23.24038105676660848, -22.65544456622765424, 105.0000000000000000 ) ) ;
#31 = CARTESIAN_POINT ( 'NONE',  ( 12.25000000000001421, -13.42339375865879347, 110.0000000000000000 ) ) ;
#32 = UNCERTAINTY_MEASURE_WITH_UNIT (LENGTH_MEASURE( 1.000000000000000082E-05 ), #300, 'distance_accuracy_value', 'NONE');
#33 = DIRECTION ( 'NONE',  ( 0.8660254037844394848, -0.4999999999999987232, 0.000000000000000000 ) ) ;
#34 =( GEOMETRIC_REPRESENTATION_CONTEXT ( 3 ) GLOBAL_UNCERTAINTY_ASSIGNED_CONTEXT ( ( #250 ) ) GLOBAL_UNIT_ASSIGNED_CONTEXT ( ( #232, #97, #46 ) ) REPRESENTATION_CONTEXT ( 'NONE', 'WORKASPACE' ) );
#35 = DIRECTION ( 'NONE',  ( -0.000000000000000000, -0.000000000000000000, 1.000000000000000000 ) ) ;
#36 = EDGE_CURVE ( 'NONE', #369, #208, #183, .T. ) ;
#37 = SHAPE_DEFINITION_REPRESENTATION ( #299, #221 ) ;
#38 = CARTESIAN_POINT ( 'NONE',  ( 12.73205080756889629, -16.58845726811989252, 105.0000000000000000 ) ) ;
#39 = AXIS2_PLACEMENT_3D ( 'NONE', #399, #379, #64 ) ;
#40 = DIRECTION ( 'NONE',  ( -0.4999999999999987232, -0.8660254037844394848, 0.000000000000000000 ) ) ;
#41 = FACE_OUTER_BOUND ( 'NONE', #116, .T. ) ;
#42 = PRODUCT_DEFINITION ( 'UNKNOWN', '', #220, #288 ) ;
#43 = CARTESIAN_POINT ( 'NONE',  ( 10.00000000000001954, -17.32050807568877460, 110.0000000000000000 ) ) ;
#44 = LINE ( 'NONE', #168, #306 ) ;
#45 = DIRECTION ( 'NONE',  ( 0.000000000000000000, 0.000000000000000000, 1.000000000000000000 ) ) ;
#46 =( NAMED_UNIT ( * ) SI_UNIT ( $, .STERADIAN. ) SOLID_ANGLE_UNIT ( ) );
#47 = DIRECTION ( 'NONE',  ( -0.5000000000000007772, 0.8660254037844381525, 0.000000000000000000 ) ) ;
#48 = CARTESIAN_POINT ( 'NONE',  ( 12.73205080756889629, -16.58845726811989252, 110.0000000000000000 ) ) ;
#49 = AXIS2_PLACEMENT_3D ( 'NONE', #108, #144, #275 ) ;
#50 = DIRECTION ( 'NONE',  ( 0.000000000000000000, 0.000000000000000000, 1.000000000000000000 ) ) ;
#51 = DIRECTION ( 'NONE',  ( -0.5000000000000006661, 0.8660254037844382635, 0.000000000000000000 ) ) ;
#52 = VERTEX_POINT ( 'NONE', #28 ) ;
#53 = EDGE_CURVE ( 'NONE', #206, #25, #68, .T. ) ;
#54 = ORIENTED_EDGE ( 'NONE', *, *, #262, .F. ) ;
#55 = EDGE_LOOP ( 'NONE', ( #336, #170, #180, #304 ) ) ;
#56 = EDGE_LOOP ( 'NONE', ( #341, #150, #173, #78 ) ) ;
#57 = MECHANICAL_DESIGN_GEOMETRIC_PRESENTATION_REPRESENTATION (  '', ( #356 ), #291 ) ;
#58 = LINE ( 'NONE', #307, #20 ) ;
#59 = DIRECTION ( 'NONE',  ( 0.000000000000000000, 0.000000000000000000, -1.000000000000000000 ) ) ;
#60 = ORIENTED_EDGE ( 'NONE', *, *, #1, .F. ) ;
#61 = ORIENTED_EDGE ( 'NONE', *, *, #255, .F. ) ;
#62 = CARTESIAN_POINT ( 'NONE',  ( 10.00000000000001954, -17.32050807568877460, 0.000000000000000000 ) ) ;
#63 = LINE ( 'NONE', #16, #394 ) ;
#64 = DIRECTION ( 'NONE',  ( 0.4999999999999986677, 0.8660254037844393737, 0.000000000000000000 ) ) ;
#65 = LINE ( 'NONE', #251, #123 ) ;
#66 = ADVANCED_FACE ( 'NONE', ( #324 ), #296, .F. ) ;
#67 = DIRECTION ( 'NONE',  ( -0.8660254037844393737, 0.4999999999999986677, -0.000000000000000000 ) ) ;
#68 = LINE ( 'NONE', #98, #79 ) ;
#69 = CARTESIAN_POINT ( 'NONE',  ( 22.99038105676661203, -24.82050807568875683, 110.0000000000000000 ) ) ;
#70 = VECTOR ( 'NONE', #153, 1000.000000000000114 ) ;
#71 = CARTESIAN_POINT ( 'NONE',  ( 10.00000000000001954, -17.32050807568877460, 110.0000000000000000 ) ) ;
#72 = ADVANCED_FACE ( 'NONE', ( #41 ), #131, .F. ) ;
#73 = EDGE_CURVE ( 'NONE', #241, #243, #162, .T. ) ;
#74 = APPLICATION_PROTOCOL_DEFINITION ( 'draft international standard', 'automotive_design', 1998, #287 ) ;
#75 = CARTESIAN_POINT ( 'NONE',  ( 17.62019052838331135, -12.92098902285043494, 0.000000000000000000 ) ) ;
#76 = CARTESIAN_POINT ( 'NONE',  ( 16.23482755730145755, -10.52146997001209705, 0.000000000000000000 ) ) ;
#77 = EDGE_CURVE ( 'NONE', #369, #243, #383, .T. ) ;
#78 = ORIENTED_EDGE ( 'NONE', *, *, #53, .T. ) ;
#79 = VECTOR ( 'NONE', #159, 1000.000000000000000 ) ;
#80 = VECTOR ( 'NONE', #118, 1000.000000000000000 ) ;
#81 = ORIENTED_EDGE ( 'NONE', *, *, #360, .T. ) ;
#82 = ORIENTED_EDGE ( 'NONE', *, *, #86, .F. ) ;
#83 = DIRECTION ( 'NONE',  ( 0.4999999999999986677, 0.8660254037844393737, 0.000000000000000000 ) ) ;
#84 = ORIENTED_EDGE ( 'NONE', *, *, #17, .F. ) ;
#85 = LINE ( 'NONE', #210, #94 ) ;
#86 = EDGE_CURVE ( 'NONE', #374, #112, #44, .T. ) ;
#87 = ORIENTED_EDGE ( 'NONE', *, *, #249, .F. ) ;
#88 = ORIENTED_EDGE ( 'NONE', *, *, #360, .F. ) ;
#89 = LINE ( 'NONE', #155, #302 ) ;
#90 = ORIENTED_EDGE ( 'NONE', *, *, #215, .T. ) ;
#91 = FACE_OUTER_BOUND ( 'NONE', #55, .T. ) ;
#92 = LINE ( 'NONE', #252, #244 ) ;
#93 = DIRECTION ( 'NONE',  ( 0.4999999999999986677, 0.8660254037844393737, 0.000000000000000000 ) ) ;
#94 = VECTOR ( 'NONE', #59, 1000.000000000000000 ) ;
#95 = VECTOR ( 'NONE', #320, 1000.000000000000000 ) ;
#96 = SURFACE_SIDE_STYLE ('',( #256 ) ) ;
#97 =( NAMED_UNIT ( * ) PLANE_ANGLE_UNIT ( ) SI_UNIT ( $, .RADIAN. ) );
#98 = CARTESIAN_POINT ( 'NONE',  ( 15.24038105676659960, -8.799038105676654453, 0.000000000000000000 ) ) ;
#99 = FILL_AREA_STYLE_COLOUR ( '', #151 ) ;
#100 = DIRECTION ( 'NONE',  ( 0.000000000000000000, 0.000000000000000000, -1.000000000000000000 ) ) ;
#101 = DIRECTION ( 'NONE',  ( -0.8660254037844393737, 0.4999999999999986677, 0.000000000000000000 ) ) ;
#102 = AXIS2_PLACEMENT_3D ( 'NONE', #364, #200, #45 ) ;
#103 = LINE ( 'NONE', #169, #80 ) ;
#104 = EDGE_CURVE ( 'NONE', #185, #25, #58, .T. ) ;
#105 = ORIENTED_EDGE ( 'NONE', *, *, #223, .F. ) ;
#106 = PRESENTATION_LAYER_ASSIGNMENT (  '', '', ( #329 ) ) ;
#107 = VERTEX_POINT ( 'NONE', #113 ) ;
#108 = CARTESIAN_POINT ( 'NONE',  ( 10.00000000000001954, -17.32050807568877460, 105.0000000000000000 ) ) ;
#109 = VERTEX_POINT ( 'NONE', #22 ) ;
#110 = ORIENTED_EDGE ( 'NONE', *, *, #227, .T. ) ;
#111 = ORIENTED_EDGE ( 'NONE', *, *, #326, .T. ) ;
#112 = VERTEX_POINT ( 'NONE', #272 ) ;
#113 = CARTESIAN_POINT ( 'NONE',  ( 10.00000000000001954, -17.32050807568877460, 0.000000000000000000 ) ) ;
#114 = DIRECTION ( 'NONE',  ( 0.000000000000000000, 0.000000000000000000, -1.000000000000000000 ) ) ;
#115 = VECTOR ( 'NONE', #189, 1000.000000000000000 ) ;
#116 = EDGE_LOOP ( 'NONE', ( #393, #387, #235, #172 ) ) ;
#117 = ORIENTED_EDGE ( 'NONE', *, *, #36, .F. ) ;
#118 = DIRECTION ( 'NONE',  ( -0.000000000000000000, 0.000000000000000000, -1.000000000000000000 ) ) ;
#119 = LINE ( 'NONE', #121, #133 ) ;
#120 = CARTESIAN_POINT ( 'NONE',  ( 23.99038105676661203, -23.08845726811987475, 110.0000000000000000 ) ) ;
#121 = CARTESIAN_POINT ( 'NONE',  ( 22.99038105676661203, -24.82050807568875683, 0.000000000000000000 ) ) ;
#122 = VECTOR ( 'NONE', #371, 1000.000000000000227 ) ;
#123 = VECTOR ( 'NONE', #248, 1000.000000000000000 ) ;
#124 = CARTESIAN_POINT ( 'NONE',  ( 16.23482755730145755, -10.52146997001209705, 110.0000000000000000 ) ) ;
#125 = CARTESIAN_POINT ( 'NONE',  ( 15.00000000000000711, -8.660254037844378416, 110.0000000000000000 ) ) ;
#126 = LINE ( 'NONE', #351, #187 ) ;
#127 = AXIS2_PLACEMENT_3D ( 'NONE', #327, #301, #230 ) ;
#128 = VECTOR ( 'NONE', #318, 1000.000000000000000 ) ;
#129 = ADVANCED_FACE ( 'NONE', ( #204 ), #312, .F. ) ;
#130 = FACE_OUTER_BOUND ( 'NONE', #56, .T. ) ;
#131 = PLANE ( 'NONE',  #127 ) ;
#132 = CARTESIAN_POINT ( 'NONE',  ( 12.73205080756889629, -16.58845726811989252, 0.000000000000000000 ) ) ;
#133 = VECTOR ( 'NONE', #322, 1000.000000000000000 ) ;
#134 = LINE ( 'NONE', #282, #167 ) ;
#135 = DIRECTION ( 'NONE',  ( 0.8660254037844393737, -0.4999999999999986677, 0.000000000000000000 ) ) ;
#136 = ORIENTED_EDGE ( 'NONE', *, *, #142, .T. ) ;
#137 = DIRECTION ( 'NONE',  ( -0.8660254037844394848, 0.4999999999999987232, 0.000000000000000000 ) ) ;
#138 = VERTEX_POINT ( 'NONE', #319 ) ;
#139 = ORIENTED_EDGE ( 'NONE', *, *, #215, .F. ) ;
#140 = ORIENTED_EDGE ( 'NONE', *, *, #196, .T. ) ;
#141 = ORIENTED_EDGE ( 'NONE', *, *, #196, .F. ) ;
#142 = EDGE_CURVE ( 'NONE', #238, #206, #354, .T. ) ;
#143 = EDGE_CURVE ( 'NONE', #185, #52, #65, .T. ) ;
#144 = DIRECTION ( 'NONE',  ( 0.000000000000000000, -0.000000000000000000, 1.000000000000000000 ) ) ;
#145 = ORIENTED_EDGE ( 'NONE', *, *, #249, .T. ) ;
#146 = CARTESIAN_POINT ( 'NONE',  ( 23.99038105676661203, -23.08845726811987475, 105.0000000000000000 ) ) ;
#147 = CARTESIAN_POINT ( 'NONE',  ( 23.74038105676660848, -23.52146997001209883, 0.000000000000000000 ) ) ;
#148 = ORIENTED_EDGE ( 'NONE', *, *, #335, .T. ) ;
#149 = VECTOR ( 'NONE', #245, 1000.000000000000000 ) ;
#150 = ORIENTED_EDGE ( 'NONE', *, *, #326, .F. ) ;
#151 = COLOUR_RGB ( '',0.7921568627450980005, 0.8196078431372548767, 0.9333333333333333481 ) ;
#152 = FACE_OUTER_BOUND ( 'NONE', #21, .T. ) ;
#153 = DIRECTION ( 'NONE',  ( 0.4999999999999997224, -0.8660254037844387076, -0.000000000000000000 ) ) ;
#154 = EDGE_CURVE ( 'NONE', #52, #112, #92, .T. ) ;
#155 = CARTESIAN_POINT ( 'NONE',  ( 23.24038105676660848, -22.65544456622765424, 105.0000000000000000 ) ) ;
#156 = LINE ( 'NONE', #125, #3 ) ;
#157 = PLANE ( 'NONE',  #39 ) ;
#158 = CARTESIAN_POINT ( 'NONE',  ( 20.74038105676661914, -18.32531754730547746, 105.0000000000000000 ) ) ;
#159 = DIRECTION ( 'NONE',  ( 0.000000000000000000, 0.000000000000000000, 1.000000000000000000 ) ) ;
#160 = PRESENTATION_STYLE_ASSIGNMENT (( #165 ) ) ;
#161 = DIRECTION ( 'NONE',  ( 1.000000000000000000, 0.000000000000000000, 0.000000000000000000 ) ) ;
#162 = LINE ( 'NONE', #132, #7 ) ;
#163 = APPLICATION_CONTEXT ( 'automotive_design' ) ;
#164 = CARTESIAN_POINT ( 'NONE',  ( 20.74038105676661914, -18.32531754730547746, 105.0000000000000000 ) ) ;
#165 = SURFACE_STYLE_USAGE ( .BOTH. , #323 ) ;
#166 = ADVANCED_FACE ( 'NONE', ( #344 ), #376, .F. ) ;
#167 = VECTOR ( 'NONE', #346, 1000.000000000000114 ) ;
#168 = CARTESIAN_POINT ( 'NONE',  ( 12.25000000000001421, -13.42339375865879347, 105.0000000000000000 ) ) ;
#169 = CARTESIAN_POINT ( 'NONE',  ( 10.00000000000001954, -17.32050807568877460, 110.0000000000000000 ) ) ;
#170 = ORIENTED_EDGE ( 'NONE', *, *, #77, .F. ) ;
#171 = PLANE ( 'NONE',  #317 ) ;
#172 = ORIENTED_EDGE ( 'NONE', *, *, #343, .F. ) ;
#173 = ORIENTED_EDGE ( 'NONE', *, *, #255, .T. ) ;
#174 = EDGE_CURVE ( 'NONE', #395, #345, #126, .T. ) ;
#175 = ORIENTED_EDGE ( 'NONE', *, *, #73, .F. ) ;
#176 = DIRECTION ( 'NONE',  ( -0.5000000000000007772, 0.8660254037844381525, 0.000000000000000000 ) ) ;
#177 = AXIS2_PLACEMENT_3D ( 'NONE', #184, #33, #2 ) ;
#178 = PLANE ( 'NONE',  #13 ) ;
#179 = EDGE_LOOP ( 'NONE', ( #246, #273, #390, #268, #175, #111 ) ) ;
#180 = ORIENTED_EDGE ( 'NONE', *, *, #36, .T. ) ;
#181 = ORIENTED_EDGE ( 'NONE', *, *, #321, .T. ) ;
#182 = PRODUCT_RELATED_PRODUCT_CATEGORY ( 'part', '', ( #391 ) ) ;
#183 = LINE ( 'NONE', #146, #149 ) ;
#184 = CARTESIAN_POINT ( 'NONE',  ( 10.00000000000001954, -17.32050807568877460, 110.0000000000000000 ) ) ;
#185 = VERTEX_POINT ( 'NONE', #124 ) ;
#186 = EDGE_CURVE ( 'NONE', #208, #374, #193, .T. ) ;
#187 = VECTOR ( 'NONE', #219, 1000.000000000000000 ) ;
#188 = EDGE_CURVE ( 'NONE', #388, #138, #119, .T. ) ;
#189 = DIRECTION ( 'NONE',  ( -0.000000000000000000, 0.000000000000000000, -1.000000000000000000 ) ) ;
#190 = CARTESIAN_POINT ( 'NONE',  ( 17.62019052838333266, -12.92098902285043494, 110.0000000000000000 ) ) ;
#191 = UNCERTAINTY_MEASURE_WITH_UNIT (LENGTH_MEASURE( 1.000000000000000082E-05 ), #261, 'distance_accuracy_value', 'NONE');
#192 = CARTESIAN_POINT ( 'NONE',  ( 15.00000000000000711, -8.660254037844378416, 0.000000000000000000 ) ) ;
#193 = LINE ( 'NONE', #292, #367 ) ;
#194 = DIRECTION ( 'NONE',  ( 0.4999999999999986677, 0.8660254037844393737, 0.000000000000000000 ) ) ;
#195 = PLANE ( 'NONE',  #373 ) ;
#196 = EDGE_CURVE ( 'NONE', #138, #107, #4, .T. ) ;
#197 = EDGE_CURVE ( 'NONE', #340, #208, #89, .T. ) ;
#198 = ADVANCED_FACE ( 'NONE', ( #290 ), #286, .F. ) ;
#199 = DIRECTION ( 'NONE',  ( -0.000000000000000000, 0.000000000000000000, -1.000000000000000000 ) ) ;
#200 = DIRECTION ( 'NONE',  ( -0.4999999999999987232, -0.8660254037844394848, 0.000000000000000000 ) ) ;
#201 = PLANE ( 'NONE',  #226 ) ;
#202 = VERTEX_POINT ( 'NONE', #29 ) ;
#203 = VECTOR ( 'NONE', #50, 1000.000000000000000 ) ;
#204 = FACE_OUTER_BOUND ( 'NONE', #308, .T. ) ;
#205 = ADVANCED_FACE ( 'NONE', ( #152 ), #157, .T. ) ;
#206 = VERTEX_POINT ( 'NONE', #380 ) ;
#207 = FACE_OUTER_BOUND ( 'NONE', #368, .T. ) ;
#208 = VERTEX_POINT ( 'NONE', #30 ) ;
#209 = VECTOR ( 'NONE', #283, 1000.000000000000000 ) ;
#210 = CARTESIAN_POINT ( 'NONE',  ( 23.74038105676660848, -23.52146997001209883, 110.0000000000000000 ) ) ;
#211 = ORIENTED_EDGE ( 'NONE', *, *, #227, .F. ) ;
#212 =( NAMED_UNIT ( * ) SI_UNIT ( $, .STERADIAN. ) SOLID_ANGLE_UNIT ( ) );
#213 = ORIENTED_EDGE ( 'NONE', *, *, #104, .T. ) ;
#214 = CARTESIAN_POINT ( 'NONE',  ( 12.73205080756889629, -16.58845726811989252, 105.0000000000000000 ) ) ;
#215 = EDGE_CURVE ( 'NONE', #202, #395, #224, .T. ) ;
#216 = DIRECTION ( 'NONE',  ( 0.000000000000000000, 0.000000000000000000, -1.000000000000000000 ) ) ;
#217 = ORIENTED_EDGE ( 'NONE', *, *, #335, .F. ) ;
#218 = LINE ( 'NONE', #214, #209 ) ;
#219 = DIRECTION ( 'NONE',  ( -0.4999999999999986677, -0.8660254037844393737, -0.000000000000000000 ) ) ;
#220 = PRODUCT_DEFINITION_FORMATION_WITH_SPECIFIED_SOURCE ( 'ANY', '', #391, .NOT_KNOWN. ) ;
#221 = ADVANCED_BREP_SHAPE_REPRESENTATION ( 'equerrere60', ( #294, #263 ), #337 ) ;
#222 = DIRECTION ( 'NONE',  ( 0.000000000000000000, 0.000000000000000000, -1.000000000000000000 ) ) ;
#223 = EDGE_CURVE ( 'NONE', #109, #238, #156, .T. ) ;
#224 = LINE ( 'NONE', #190, #70 ) ;
#225 = LINE ( 'NONE', #69, #115 ) ;
#226 = AXIS2_PLACEMENT_3D ( 'NONE', #330, #382, #51 ) ;
#227 = EDGE_CURVE ( 'NONE', #345, #138, #225, .T. ) ;
#228 = SURFACE_STYLE_USAGE ( .BOTH. , #96 ) ;
#229 = FILL_AREA_STYLE ('',( #99 ) ) ;
#230 = DIRECTION ( 'NONE',  ( 0.000000000000000000, 0.000000000000000000, 1.000000000000000000 ) ) ;
#231 = VECTOR ( 'NONE', #135, 1000.000000000000000 ) ;
#232 =( LENGTH_UNIT ( ) NAMED_UNIT ( * ) SI_UNIT ( .MILLI., .METRE. ) );
#233 = CARTESIAN_POINT ( 'NONE',  ( 22.99038105676661203, -24.82050807568875683, 110.0000000000000000 ) ) ;
#234 = VECTOR ( 'NONE', #199, 1000.000000000000000 ) ;
#235 = ORIENTED_EDGE ( 'NONE', *, *, #289, .F. ) ;
#236 = VECTOR ( 'NONE', #194, 1000.000000000000000 ) ;
#237 = ORIENTED_EDGE ( 'NONE', *, *, #197, .T. ) ;
#238 = VERTEX_POINT ( 'NONE', #192 ) ;
#239 = ADVANCED_FACE ( 'NONE', ( #91 ), #195, .F. ) ;
#240 = ORIENTED_EDGE ( 'NONE', *, *, #143, .F. ) ;
#241 = VERTEX_POINT ( 'NONE', #325 ) ;
#242 = CARTESIAN_POINT ( 'NONE',  ( 23.99038105676661203, -23.08845726811987475, 0.000000000000000000 ) ) ;
#243 = VERTEX_POINT ( 'NONE', #365 ) ;
#244 = VECTOR ( 'NONE', #222, 1000.000000000000000 ) ;
#245 = DIRECTION ( 'NONE',  ( 0.8660254037844393737, -0.4999999999999987232, 0.000000000000000000 ) ) ;
#246 = ORIENTED_EDGE ( 'NONE', *, *, #143, .T. ) ;
#247 = ORIENTED_EDGE ( 'NONE', *, *, #321, .F. ) ;
#248 = DIRECTION ( 'NONE',  ( -0.4999999999999986677, -0.8660254037844393737, -0.000000000000000000 ) ) ;
#249 = EDGE_CURVE ( 'NONE', #345, #18, #298, .T. ) ;
#250 = UNCERTAINTY_MEASURE_WITH_UNIT (LENGTH_MEASURE( 1.000000000000000082E-05 ), #232, 'distance_accuracy_value', 'NONE');
#251 = CARTESIAN_POINT ( 'NONE',  ( 12.73205080756889629, -16.58845726811989252, 110.0000000000000000 ) ) ;
#252 = CARTESIAN_POINT ( 'NONE',  ( 13.98205080756889274, -14.42339375865879170, 110.0000000000000000 ) ) ;
#253 = DIRECTION ( 'NONE',  ( -0.000000000000000000, 0.000000000000000000, -1.000000000000000000 ) ) ;
#254 = DIRECTION ( 'NONE',  ( -0.8660254037844388186, -0.4999999999999997780, 0.000000000000000000 ) ) ;
#255 = EDGE_CURVE ( 'NONE', #241, #206, #12, .T. ) ;
#256 = SURFACE_STYLE_FILL_AREA ( #359 ) ;
#257 = PRESENTATION_LAYER_ASSIGNMENT (  '', '', ( #356 ) ) ;
#258 = DIRECTION ( 'NONE',  ( 0.000000000000000000, 0.000000000000000000, 1.000000000000000000 ) ) ;
#259 = LINE ( 'NONE', #71, #236 ) ;
#260 =( NAMED_UNIT ( * ) SI_UNIT ( $, .STERADIAN. ) SOLID_ANGLE_UNIT ( ) );
#261 =( LENGTH_UNIT ( ) NAMED_UNIT ( * ) SI_UNIT ( .MILLI., .METRE. ) );
#262 = EDGE_CURVE ( 'NONE', #109, #25, #303, .T. ) ;
#263 = AXIS2_PLACEMENT_3D ( 'NONE', #358, #258, #161 ) ;
#264 = PLANE ( 'NONE',  #102 ) ;
#265 = ORIENTED_EDGE ( 'NONE', *, *, #17, .T. ) ;
#266 = CARTESIAN_POINT ( 'NONE',  ( 22.99038105676661203, -24.82050807568875683, 110.0000000000000000 ) ) ;
#267 = ADVANCED_FACE ( 'NONE', ( #130 ), #201, .F. ) ;
#268 = ORIENTED_EDGE ( 'NONE', *, *, #77, .T. ) ;
#269 = ORIENTED_EDGE ( 'NONE', *, *, #73, .T. ) ;
#270 = EDGE_CURVE ( 'NONE', #112, #369, #218, .T. ) ;
#271 = AXIS2_PLACEMENT_3D ( 'NONE', #342, #314, #93 ) ;
#272 = CARTESIAN_POINT ( 'NONE',  ( 13.98205080756889274, -14.42339375865879170, 105.0000000000000000 ) ) ;
#273 = ORIENTED_EDGE ( 'NONE', *, *, #154, .T. ) ;
#274 = EDGE_LOOP ( 'NONE', ( #269, #311, #247, #279, #140, #281, #136, #61 ) ) ;
#275 = DIRECTION ( 'NONE',  ( 0.4999999999999986677, 0.8660254037844393737, 0.000000000000000000 ) ) ;
#276 = ORIENTED_EDGE ( 'NONE', *, *, #289, .T. ) ;
#277 = ORIENTED_EDGE ( 'NONE', *, *, #186, .T. ) ;
#278 = CARTESIAN_POINT ( 'NONE',  ( 23.74038105676660848, -23.52146997001209883, 110.0000000000000000 ) ) ;
#279 = ORIENTED_EDGE ( 'NONE', *, *, #188, .T. ) ;
#280 = AXIS2_PLACEMENT_3D ( 'NONE', #5, #353, #216 ) ;
#281 = ORIENTED_EDGE ( 'NONE', *, *, #1, .T. ) ;
#282 = CARTESIAN_POINT ( 'NONE',  ( 20.74038105676661914, -18.32531754730547746, 0.000000000000000000 ) ) ;
#283 = DIRECTION ( 'NONE',  ( -0.4999999999999986677, -0.8660254037844393737, 0.000000000000000000 ) ) ;
#284 = PLANE ( 'NONE',  #271 ) ;
#285 = ADVANCED_FACE ( 'NONE', ( #350 ), #284, .F. ) ;
#286 = PLANE ( 'NONE',  #177 ) ;
#287 = APPLICATION_CONTEXT ( 'automotive_design' ) ;
#288 = PRODUCT_DEFINITION_CONTEXT ( 'detailed design', #287, 'design' ) ;
#289 = EDGE_CURVE ( 'NONE', #202, #52, #339, .T. ) ;
#290 = FACE_OUTER_BOUND ( 'NONE', #305, .T. ) ;
#291 =( GEOMETRIC_REPRESENTATION_CONTEXT ( 3 ) GLOBAL_UNCERTAINTY_ASSIGNED_CONTEXT ( ( #191 ) ) GLOBAL_UNIT_ASSIGNED_CONTEXT ( ( #261, #362, #212 ) ) REPRESENTATION_CONTEXT ( 'NONE', 'WORKASPACE' ) );
#292 = CARTESIAN_POINT ( 'NONE',  ( 20.74038105676661914, -18.32531754730547746, 105.0000000000000000 ) ) ;
#293 = DIRECTION ( 'NONE',  ( 0.000000000000000000, 0.000000000000000000, 1.000000000000000000 ) ) ;
#294 = MANIFOLD_SOLID_BREP ( 'Mirror4', #347 ) ;
#295 = DIRECTION ( 'NONE',  ( -0.8660254037844393737, 0.4999999999999986677, -0.000000000000000000 ) ) ;
#296 = PLANE ( 'NONE',  #315 ) ;
#297 = APPLICATION_PROTOCOL_DEFINITION ( 'draft international standard', 'automotive_design', 1998, #163 ) ;
#298 = LINE ( 'NONE', #43, #14 ) ;
#299 = PRODUCT_DEFINITION_SHAPE ( 'NONE', 'NONE',  #42 ) ;
#300 =( LENGTH_UNIT ( ) NAMED_UNIT ( * ) SI_UNIT ( .MILLI., .METRE. ) );
#301 = DIRECTION ( 'NONE',  ( -0.4999999999999987232, -0.8660254037844394848, 0.000000000000000000 ) ) ;
#302 = VECTOR ( 'NONE', #35, 1000.000000000000000 ) ;
#303 = LINE ( 'NONE', #15, #231 ) ;
#304 = ORIENTED_EDGE ( 'NONE', *, *, #197, .F. ) ;
#305 = EDGE_LOOP ( 'NONE', ( #397, #60, #217, #81 ) ) ;
#306 = VECTOR ( 'NONE', #386, 1000.000000000000000 ) ;
#307 = CARTESIAN_POINT ( 'NONE',  ( 17.62019052838331135, -12.92098902285043494, 110.0000000000000000 ) ) ;
#308 = EDGE_LOOP ( 'NONE', ( #117, #377, #82, #389 ) ) ;
#309 = ORIENTED_EDGE ( 'NONE', *, *, #53, .F. ) ;
#310 = CARTESIAN_POINT ( 'NONE',  ( 10.00000000000001954, -17.32050807568877460, 110.0000000000000000 ) ) ;
#311 = ORIENTED_EDGE ( 'NONE', *, *, #11, .T. ) ;
#312 = PLANE ( 'NONE',  #49 ) ;
#313 = CARTESIAN_POINT ( 'NONE',  ( 10.00000000000001954, -17.32050807568877460, 110.0000000000000000 ) ) ;
#314 = DIRECTION ( 'NONE',  ( 0.000000000000000000, -0.000000000000000000, 1.000000000000000000 ) ) ;
#315 = AXIS2_PLACEMENT_3D ( 'NONE', #233, #137, #100 ) ;
#316 = DIRECTION ( 'NONE',  ( 0.8660254037844393737, -0.4999999999999986677, 0.000000000000000000 ) ) ;
#317 = AXIS2_PLACEMENT_3D ( 'NONE', #10, #254, #293 ) ;
#318 = DIRECTION ( 'NONE',  ( -0.8660254037844393737, 0.4999999999999986677, 0.000000000000000000 ) ) ;
#319 = CARTESIAN_POINT ( 'NONE',  ( 22.99038105676661203, -24.82050807568875683, 0.000000000000000000 ) ) ;
#320 = DIRECTION ( 'NONE',  ( 0.000000000000000000, 0.000000000000000000, 1.000000000000000000 ) ) ;
#321 = EDGE_CURVE ( 'NONE', #388, #340, #134, .T. ) ;
#322 = DIRECTION ( 'NONE',  ( -0.4999999999999986677, -0.8660254037844393737, -0.000000000000000000 ) ) ;
#323 = SURFACE_SIDE_STYLE ('',( #381 ) ) ;
#324 = FACE_OUTER_BOUND ( 'NONE', #332, .T. ) ;
#325 = CARTESIAN_POINT ( 'NONE',  ( 16.23482755730145755, -10.52146997001209705, 0.000000000000000000 ) ) ;
#326 = EDGE_CURVE ( 'NONE', #241, #185, #398, .T. ) ;
#327 = CARTESIAN_POINT ( 'NONE',  ( 12.25000000000001421, -13.42339375865879347, 105.0000000000000000 ) ) ;
#328 = FACE_OUTER_BOUND ( 'NONE', #366, .T. ) ;
#329 = STYLED_ITEM ( 'NONE', ( #160 ), #221 ) ;
#330 = CARTESIAN_POINT ( 'NONE',  ( 17.62019052838331135, -12.92098902285043494, 0.000000000000000000 ) ) ;
#331 = ORIENTED_EDGE ( 'NONE', *, *, #174, .F. ) ;
#332 = EDGE_LOOP ( 'NONE', ( #27, #110, #19, #84 ) ) ;
#333 = ORIENTED_EDGE ( 'NONE', *, *, #142, .F. ) ;
#334 = ORIENTED_EDGE ( 'NONE', *, *, #343, .T. ) ;
#335 = EDGE_CURVE ( 'NONE', #18, #107, #103, .T. ) ;
#336 = ORIENTED_EDGE ( 'NONE', *, *, #11, .F. ) ;
#337 =( GEOMETRIC_REPRESENTATION_CONTEXT ( 3 ) GLOBAL_UNCERTAINTY_ASSIGNED_CONTEXT ( ( #32 ) ) GLOBAL_UNIT_ASSIGNED_CONTEXT ( ( #300, #400, #260 ) ) REPRESENTATION_CONTEXT ( 'NONE', 'WORKASPACE' ) );
#338 = ORIENTED_EDGE ( 'NONE', *, *, #262, .T. ) ;
#339 = LINE ( 'NONE', #31, #128 ) ;
#340 = VERTEX_POINT ( 'NONE', #24 ) ;
#341 = ORIENTED_EDGE ( 'NONE', *, *, #104, .F. ) ;
#342 = CARTESIAN_POINT ( 'NONE',  ( 10.00000000000001954, -17.32050807568877460, 0.000000000000000000 ) ) ;
#343 = EDGE_CURVE ( 'NONE', #374, #202, #372, .T. ) ;
#344 = FACE_OUTER_BOUND ( 'NONE', #179, .T. ) ;
#345 = VERTEX_POINT ( 'NONE', #266 ) ;
#346 = DIRECTION ( 'NONE',  ( -0.4999999999999997224, 0.8660254037844387076, -0.000000000000000000 ) ) ;
#347 = CLOSED_SHELL ( 'NONE', ( #166, #239, #198, #375, #66, #6, #205, #285, #129, #72, #385, #267 ) ) ;
#348 = DIRECTION ( 'NONE',  ( -0.4999999999999997224, 0.8660254037844387076, -0.000000000000000000 ) ) ;
#349 = MECHANICAL_DESIGN_GEOMETRIC_PRESENTATION_REPRESENTATION (  '', ( #329 ), #34 ) ;
#350 = FACE_OUTER_BOUND ( 'NONE', #274, .T. ) ;
#351 = CARTESIAN_POINT ( 'NONE',  ( 22.99038105676661203, -24.82050807568875683, 110.0000000000000000 ) ) ;
#352 = FILL_AREA_STYLE_COLOUR ( '', #361 ) ;
#353 = DIRECTION ( 'NONE',  ( -0.8660254037844394848, 0.4999999999999987232, 0.000000000000000000 ) ) ;
#354 = LINE ( 'NONE', #378, #396 ) ;
#355 = FACE_OUTER_BOUND ( 'NONE', #370, .T. ) ;
#356 = STYLED_ITEM ( 'NONE', ( #357 ), #294 ) ;
#357 = PRESENTATION_STYLE_ASSIGNMENT (( #228 ) ) ;
#358 = CARTESIAN_POINT ( 'NONE',  ( 0.000000000000000000, 0.000000000000000000, 0.000000000000000000 ) ) ;
#359 = FILL_AREA_STYLE ('',( #352 ) ) ;
#360 = EDGE_CURVE ( 'NONE', #18, #109, #259, .T. ) ;
#361 = COLOUR_RGB ( '',0.7921568627450980005, 0.8196078431372548767, 0.9333333333333333481 ) ;
#362 =( NAMED_UNIT ( * ) PLANE_ANGLE_UNIT ( ) SI_UNIT ( $, .RADIAN. ) );
#363 = PRODUCT_CONTEXT ( 'NONE', #163, 'mechanical' ) ;
#364 = CARTESIAN_POINT ( 'NONE',  ( 15.00000000000000711, -8.660254037844378416, 110.0000000000000000 ) ) ;
#365 = CARTESIAN_POINT ( 'NONE',  ( 12.73205080756889629, -16.58845726811989252, 0.000000000000000000 ) ) ;
#366 = EDGE_LOOP ( 'NONE', ( #181, #237, #277, #334, #90, #265 ) ) ;
#367 = VECTOR ( 'NONE', #348, 1000.000000000000114 ) ;
#368 = EDGE_LOOP ( 'NONE', ( #211, #145, #148, #141 ) ) ;
#369 = VERTEX_POINT ( 'NONE', #38 ) ;
#370 = EDGE_LOOP ( 'NONE', ( #333, #105, #338, #309 ) ) ;
#371 = DIRECTION ( 'NONE',  ( 0.8660254037844392627, -0.4999999999999986677, 0.000000000000000000 ) ) ;
#372 = LINE ( 'NONE', #158, #95 ) ;
#373 = AXIS2_PLACEMENT_3D ( 'NONE', #120, #40, #101 ) ;
#374 = VERTEX_POINT ( 'NONE', #164 ) ;
#375 = ADVANCED_FACE ( 'NONE', ( #355 ), #264, .F. ) ;
#376 = PLANE ( 'NONE',  #280 ) ;
#377 = ORIENTED_EDGE ( 'NONE', *, *, #270, .F. ) ;
#378 = CARTESIAN_POINT ( 'NONE',  ( 15.00000000000000711, -8.660254037844378416, 0.000000000000000000 ) ) ;
#379 = DIRECTION ( 'NONE',  ( 0.000000000000000000, -0.000000000000000000, 1.000000000000000000 ) ) ;
#380 = CARTESIAN_POINT ( 'NONE',  ( 15.24038105676660670, -8.799038105676659782, 0.000000000000000000 ) ) ;
#381 = SURFACE_STYLE_FILL_AREA ( #229 ) ;
#382 = DIRECTION ( 'NONE',  ( -0.8660254037844382635, -0.5000000000000006661, -0.000000000000000000 ) ) ;
#383 = LINE ( 'NONE', #48, #234 ) ;
#384 = VECTOR ( 'NONE', #47, 1000.000000000000114 ) ;
#385 = ADVANCED_FACE ( 'NONE', ( #328 ), #171, .F. ) ;
#386 = DIRECTION ( 'NONE',  ( -0.8660254037844393737, 0.4999999999999986677, 0.000000000000000000 ) ) ;
#387 = ORIENTED_EDGE ( 'NONE', *, *, #154, .F. ) ;
#388 = VERTEX_POINT ( 'NONE', #147 ) ;
#389 = ORIENTED_EDGE ( 'NONE', *, *, #186, .F. ) ;
#390 = ORIENTED_EDGE ( 'NONE', *, *, #270, .T. ) ;
#391 = PRODUCT ( 'equerrere60', 'equerrere60', '', ( #363 ) ) ;
#392 = LINE ( 'NONE', #242, #122 ) ;
#393 = ORIENTED_EDGE ( 'NONE', *, *, #86, .T. ) ;
#394 = VECTOR ( 'NONE', #83, 1000.000000000000000 ) ;
#395 = VERTEX_POINT ( 'NONE', #278 ) ;
#396 = VECTOR ( 'NONE', #316, 1000.000000000000000 ) ;
#397 = ORIENTED_EDGE ( 'NONE', *, *, #223, .T. ) ;
#398 = LINE ( 'NONE', #76, #203 ) ;
#399 = CARTESIAN_POINT ( 'NONE',  ( 10.00000000000001954, -17.32050807568877460, 110.0000000000000000 ) ) ;
#400 =( NAMED_UNIT ( * ) PLANE_ANGLE_UNIT ( ) SI_UNIT ( $, .RADIAN. ) );
ENDSEC;
END-ISO-10303-21;
